<svg width="24" height="24" viewBox="0 0 24 24" fill="none" xmlns="http://www.w3.org/2000/svg">
<g id="icon.24.sidebar.open">
<path id="Icon" d="M18 6C19.1046 6 20 6.89543 20 8V16L19.9893 16.2041C19.887 17.2128 19.0357 18 18 18H6C4.96435 18 4.113 17.2128 4.01074 16.2041L4 16V8C4 6.89543 4.89543 6 6 6H18ZM6 7C5.48232 7 5.05621 7.39333 5.00488 7.89746L5 8V16C5 16.5523 5.44772 17 6 17H9V7H6ZM18 17C18.5523 17 19 16.5523 19 16V8C19 7.44772 18.5523 7 18 7H10V17H18Z" fill="black" fill-opacity="0.9"/>
</g>
</svg>
