<svg width="24" height="24" viewBox="0 0 24 24" fill="none" xmlns="http://www.w3.org/2000/svg">
<g id="icon.24.extend.image.small">
<path id="Icon" d="M7.5 6C7.77614 6 8 6.22386 8 6.5C8 6.53177 7.9959 6.56264 7.99023 6.59277C7.98791 6.60514 7.98369 6.61688 7.98047 6.62891C7.97557 6.64721 7.97072 6.6652 7.96387 6.68262C7.95908 6.69476 7.95295 6.70611 7.94727 6.71777C7.93961 6.73348 7.93204 6.74894 7.92285 6.76367C7.91587 6.77484 7.9082 6.78535 7.90039 6.7959C7.88947 6.81067 7.87768 6.82442 7.86523 6.83789C7.85706 6.84672 7.84863 6.85506 7.83984 6.86328C7.82731 6.87503 7.81447 6.88607 7.80078 6.89648C7.7896 6.90498 7.77849 6.91335 7.7666 6.9209C7.7485 6.93241 7.72955 6.94203 7.70996 6.95117C7.70363 6.95412 7.69788 6.95825 7.69141 6.96094C7.66226 6.97307 7.63222 6.98378 7.60059 6.99023L7.39941 7.00977C7.17145 7.05629 7 7.25829 7 7.5V13.793L9.64648 11.1465L9.72461 11.082C9.91869 10.9539 10.1827 10.9756 10.3535 11.1465L11.8535 12.6465C12.0488 12.8417 12.0488 13.1583 11.8535 13.3535C11.6583 13.5488 11.3417 13.5488 11.1465 13.3535L10 12.207L7 15.207V16.5C7.00002 16.7761 7.22387 17 7.5 17H14.5C14.7761 17 15 17.2239 15 17.5C15 17.7761 14.7761 18 14.5 18H7.5C6.67158 18 6.00002 17.3284 6 16.5V7.5C6 6.67157 6.67157 6 7.5 6ZM17.5 16C17.7761 16 18 16.2239 18 16.5C18 17.3284 17.3284 18 16.5 18C16.2239 18 16 17.7761 16 17.5C16 17.2583 16.1715 17.0563 16.3994 17.0098L16.6006 16.9902C16.7961 16.9503 16.9503 16.7961 16.9902 16.6006L17.0098 16.3994C17.0563 16.1714 17.2583 16 17.5 16ZM12.6465 14.1465C12.8417 13.9512 13.1583 13.9512 13.3535 14.1465L14.3535 15.1465C14.5488 15.3417 14.5488 15.6583 14.3535 15.8535C14.1583 16.0488 13.8417 16.0488 13.6465 15.8535L12.6465 14.8535C12.4512 14.6583 12.4512 14.3417 12.6465 14.1465ZM17.5 13C17.7761 13 18 13.2239 18 13.5V14.5C18 14.7761 17.7761 15 17.5 15C17.2239 15 17 14.7761 17 14.5V13.5C17 13.2239 17.2239 13 17.5 13ZM12.0264 9.6748C12.0877 9.30603 12.5363 9.24335 12.8008 9.50781L12.8486 9.55566C12.9632 9.67022 13 9.83799 13 10C13 10.5523 13.4477 11 14 11C14.1615 11 14.3282 11.0352 14.4424 11.1494L14.4912 11.1982C14.7557 11.4628 14.6931 11.9119 14.3242 11.9736C14.2189 11.9912 14.1104 12 14 12C12.8954 12 12 11.1046 12 10C12 9.88936 12.0089 9.78044 12.0264 9.6748ZM17.5 10C17.7761 10 18 10.2239 18 10.5V11.5C18 11.7761 17.7761 12 17.5 12C17.2239 12 17 11.7761 17 11.5V10.5C17 10.2239 17.2239 10 17.5 10ZM14 8C15.1046 8 16 8.89543 16 10C16 10.1104 15.9912 10.2189 15.9736 10.3242C15.9119 10.693 15.4628 10.7557 15.1982 10.4912L15.1494 10.4424C15.0352 10.3282 15 10.1615 15 10C15 9.44772 14.5523 9 14 9C13.838 9 13.6702 8.96319 13.5557 8.84863L13.5078 8.80078C13.2434 8.53632 13.3061 8.08773 13.6748 8.02637C13.7804 8.00889 13.8894 8 14 8ZM17.0146 4.44043C17.1409 3.93545 17.8591 3.93545 17.9854 4.44043L18.2998 5.7002L19.5596 6.01465C20.0645 6.14089 20.0645 6.85911 19.5596 6.98535L18.2998 7.2998L18 8.5L17.9902 8.60059C17.9437 8.82854 17.7417 9 17.5 9C17.2583 9 17.0563 8.82854 17.0098 8.60059L17 8.5L16.7002 7.2998L15.4404 6.98535C14.9355 6.85911 14.9355 6.14089 15.4404 6.01465L16.7002 5.7002L17.0146 4.44043ZM10.5 6C10.7761 6 11 6.22386 11 6.5C11 6.77613 10.7761 7 10.5 7H9.5C9.22387 7 9.00002 6.77613 9 6.5C9 6.22386 9.22386 6 9.5 6H10.5ZM13.5 6C13.7761 6 14 6.22386 14 6.5C14 6.77613 13.7761 7 13.5 7H12.5C12.2239 7 12 6.77613 12 6.5C12 6.22386 12.2239 6 12.5 6H13.5Z" fill="black" fill-opacity="0.9"/>
</g>
</svg>
