<svg width="24" height="24" viewBox="0 0 24 24" fill="none" xmlns="http://www.w3.org/2000/svg">
<g id="icon.24.version.history.small">
<path id="Icon" d="M12 5.99963C15.3136 5.99976 18 8.686 18 11.9996C18 15.3133 15.3136 17.9995 12 17.9996C8.85678 17.9995 6.27835 15.5824 6.02148 12.5055C5.99827 12.2272 6.2266 11.9997 6.50586 11.9996H6.74316C6.88598 11.9996 7.0026 12.1137 7.00586 12.2565C7.13953 14.8985 9.32481 16.9995 12 16.9996C14.7613 16.9995 17 14.761 17 11.9996C17 9.23829 14.7613 6.99976 12 6.99963C10.3645 6.99971 8.91318 7.78557 8.00098 8.99963H9.5C9.77602 8.99963 9.99981 9.22365 10 9.49963C10 9.77578 9.77614 9.99963 9.5 9.99963H6.5C6.22386 9.99963 6 9.77578 6 9.49963V6.49963C6.00019 6.22365 6.22398 5.99963 6.5 5.99963C6.77602 5.99963 6.99981 6.22365 7 6.49963V8.68616C8.07468 7.06786 9.91184 5.99971 12 5.99963ZM12 8.99963C12.2761 8.99963 12.5 9.22349 12.5 9.49963V11.7926L13.8535 13.1461C14.0487 13.3414 14.0487 13.6579 13.8535 13.8531C13.6583 14.0483 13.3417 14.0482 13.1465 13.8531L11.6465 12.3541C11.5528 12.2605 11.5002 12.133 11.5 12.0006V9.49963C11.5 9.22349 11.7239 8.99963 12 8.99963Z" fill="black" fill-opacity="0.9"/>
</g>
</svg>
