<svg width="24" height="24" viewBox="0 0 24 24" fill="none" xmlns="http://www.w3.org/2000/svg">
<g id="icon.24.rotate">
<path id="Icon" d="M11.0537 9.54388C11.6429 9.06349 12.5114 9.09733 13.0605 9.64642L16.3535 12.9394C16.9392 13.5251 16.9391 14.4747 16.3535 15.0605L13.0605 18.3535C12.4748 18.9392 11.5252 18.9391 10.9395 18.3535L7.64648 15.0605C7.06075 14.4747 7.06075 13.5252 7.64648 12.9394L10.9395 9.64642L11.0537 9.54388ZM12.3535 10.3535C12.1583 10.1583 11.8417 10.1583 11.6465 10.3535L8.35352 13.6464C8.1583 13.8417 8.1583 14.1582 8.35352 14.3535L11.6465 17.6464C11.8173 17.8172 12.0814 17.839 12.2754 17.7109L12.3535 17.6464L15.6465 14.3535C15.8172 14.1826 15.839 13.9186 15.7109 13.7245L15.6465 13.6464L12.3535 10.3535ZM9.52539 5.76752C10.8922 4.40108 13.1079 4.40101 14.4746 5.76752L16 7.29291V5.99994C16 5.72381 16.2239 5.49994 16.5 5.49994C16.7761 5.50002 17 5.72386 17 5.99994V8.49994C17 8.77603 16.7761 8.99986 16.5 8.99994H14C13.7239 8.99994 13.5 8.77608 13.5 8.49994C13.5 8.22381 13.7239 7.99994 14 7.99994H15.293L13.7676 6.47455C12.7914 5.49857 11.2087 5.49863 10.2324 6.47455L7.85352 8.85345C7.65827 9.0487 7.34175 9.04866 7.14648 8.85345C6.95122 8.65819 6.95122 8.34169 7.14648 8.14642L9.52539 5.76752Z" fill="black" fill-opacity="0.9"/>
</g>
</svg>
