<svg width="24" height="24" viewBox="0 0 24 24" fill="none" xmlns="http://www.w3.org/2000/svg">
<g id="icon.24.update.text.style.small">
<path id="Icon" d="M18.0215 12.0039C18.2964 12.0272 18.5005 12.269 18.4775 12.5439C18.177 16.1212 15.0333 18.778 11.4561 18.4775C9.64743 18.3256 8.0742 17.4457 7 16.1523V17.5C6.99981 17.776 6.77602 18 6.5 18C6.22412 17.9998 6.00019 17.7759 6 17.5V15.001C6 14.725 6.22408 14.5013 6.5 14.501L9 14.5C9.27605 14.5 9.49989 14.7239 9.5 15C9.49981 15.2759 9.27596 15.4999 9 15.5H7.75781C8.6679 16.6031 10.0034 17.3514 11.54 17.4805C14.5667 17.7347 17.227 15.4876 17.4814 12.4609C17.5046 12.1858 17.7463 11.9808 18.0215 12.0039ZM13.5 10C13.7761 10 14 10.2239 14 10.5V11C14 11.2761 13.7761 11.5 13.5 11.5C13.224 11.4998 13 11.276 13 11H12.5V13H13C13.2761 13 13.5 13.2239 13.5 13.5C13.5 13.7761 13.2761 14 13 14H11C10.724 13.9998 10.5 13.776 10.5 13.5C10.5 13.224 10.724 13.0002 11 13H11.5V11H11C11 11.2761 10.7761 11.5 10.5 11.5C10.224 11.4998 10 11.276 10 11V10.5C10 10.224 10.224 10.0002 10.5 10H13.5ZM5.52344 11.4561C5.82391 7.87895 8.96688 5.22224 12.5439 5.52246C14.3522 5.67435 15.9258 6.55384 17 7.84668V6.50098C17 6.22494 17.224 6.00115 17.5 6.00098C17.7761 6.00098 18 6.22483 18 6.50098V9.00098C17.9997 9.27687 17.776 9.50098 17.5 9.50098H15C14.7242 9.50081 14.5003 9.27677 14.5 9.00098C14.5 8.72494 14.724 8.50115 15 8.50098H16.2432C15.3331 7.39759 13.9978 6.64871 12.4609 6.51953C9.43403 6.26527 6.77379 8.51313 6.51953 11.54C6.49623 11.815 6.25454 12.0192 5.97949 11.9961C5.70434 11.973 5.50036 11.7312 5.52344 11.4561Z" fill="black" fill-opacity="0.9"/>
</g>
</svg>
