<svg width="24" height="24" viewBox="0 0 24 24" fill="none" xmlns="http://www.w3.org/2000/svg">
<g id="icon.24.people.small">
<path id="Icon" d="M8.5 12C10.433 12 12 13.567 12 15.5V17.5C12 17.7761 11.7761 18 11.5 18C11.2239 18 11 17.7761 11 17.5V15.5C11 14.1193 9.88071 13 8.5 13C7.11929 13 6 14.1193 6 15.5V17.5C6 17.7761 5.77614 18 5.5 18C5.22386 18 5 17.7761 5 17.5V15.5C5 13.567 6.567 12 8.5 12ZM15.5 12C17.4328 12.0002 19 13.5671 19 15.5V17.5C19 17.776 18.776 17.9998 18.5 18C18.224 17.9998 18 17.776 18 17.5V15.5C18 14.1194 16.8805 13.0002 15.5 13C14.1195 13.0002 13 14.1194 13 15.5C13 14.8144 12.8465 14.1646 12.5723 13.583C13.1974 12.6299 14.275 12.0001 15.5 12ZM8.5 6C9.88066 6.00007 11 7.11933 11 8.5C11 9.88067 9.88066 10.9999 8.5 11C7.11929 11 6 9.88071 6 8.5C6 7.11929 7.11929 6 8.5 6ZM15.5 6C16.8807 6.00007 18 7.11933 18 8.5C18 9.88067 16.8807 10.9999 15.5 11C14.1193 11 13 9.88071 13 8.5C13 7.11929 14.1193 6 15.5 6ZM15.5 7C14.6716 7 14 7.67157 14 8.5C14 9.32843 14.6716 10 15.5 10C16.3284 9.99993 17 9.32839 17 8.5C17 7.67161 16.3284 7.00007 15.5 7ZM8.5 7C7.67157 7 7 7.67157 7 8.5C7 9.32843 7.67157 10 8.5 10C9.32837 9.99993 10 9.32839 10 8.5C10 7.67161 9.32837 7.00007 8.5 7Z" fill="black" fill-opacity="0.9"/>
</g>
</svg>
