<svg width="24" height="24" viewBox="0 0 24 24" fill="none" xmlns="http://www.w3.org/2000/svg">
<g id="icon.24.first.draft.small">
<path id="Icon" d="M17.0146 15.4404C17.1409 14.9355 17.8591 14.9355 17.9854 15.4404L18.2998 16.7002L19.5596 17.0146C20.0645 17.1409 20.0645 17.8591 19.5596 17.9854L18.2998 18.2998L17.9854 19.5596C17.8591 20.0645 17.1409 20.0645 17.0146 19.5596L16.7002 18.2998L15.4404 17.9854C14.9355 17.8591 14.9355 17.1409 15.4404 17.0146L16.7002 16.7002L17.0146 15.4404ZM16.5 6C17.3284 6 18 6.67157 18 7.5V13.5C18 13.7761 17.7761 14 17.5 14C17.2239 14 17 13.7761 17 13.5V10H11V17H13.5C13.7761 17 14 17.2239 14 17.5C14 17.7761 13.7761 18 13.5 18H7.5C6.67157 18 6 17.3284 6 16.5V7.5C6 6.67157 6.67157 6 7.5 6H16.5ZM7 16.5C7 16.7761 7.22386 17 7.5 17H10V10H7V16.5ZM7.5 7C7.22386 7 7 7.22386 7 7.5V9H17V7.5C17 7.22386 16.7761 7 16.5 7H7.5Z" fill="black" fill-opacity="0.9"/>
</g>
</svg>
