<svg width="24" height="24" viewBox="0 0 24 24" fill="none" xmlns="http://www.w3.org/2000/svg">
<g id="icon.24.actions.small">
<path id="Icon" d="M9.5 13C10.3284 13 11 13.6716 11 14.5V16.5C11 17.3284 10.3284 18 9.5 18H7.5C6.72334 18 6.08461 17.4097 6.00781 16.6533L6 16.5V14.5C6 13.6716 6.67157 13 7.5 13H9.5ZM15.5 13C15.7761 13 16 13.2239 16 13.5V15H17.5C17.7761 15 18 15.2239 18 15.5C18 15.7761 17.7761 16 17.5 16H16V17.5C16 17.7761 15.7761 18 15.5 18C15.2239 18 15 17.7761 15 17.5V16H13.5C13.2239 16 13 15.7761 13 15.5C13 15.2239 13.2239 15 13.5 15H15V13.5C15 13.2239 15.2239 13 15.5 13ZM7.5 14C7.22386 14 7 14.2239 7 14.5V16.5L7.00977 16.6006C7.05629 16.8286 7.25829 17 7.5 17H9.5L9.60059 16.9902C9.79608 16.9503 9.95034 16.7961 9.99023 16.6006L10 16.5V14.5C10 14.2583 9.82855 14.0563 9.60059 14.0098L9.5 14H7.5ZM7.86914 5.72461C8.26191 5.40426 8.84092 5.42685 9.20703 5.79297L11.207 7.79297C11.5976 8.18349 11.5976 8.81651 11.207 9.20703L9.20703 11.207C8.81651 11.5976 8.18349 11.5976 7.79297 11.207L5.79297 9.20703C5.40245 8.81651 5.40244 8.18349 5.79297 7.79297L7.79297 5.79297L7.86914 5.72461ZM15.5 6C16.8807 6 18 7.11929 18 8.5C18 9.88071 16.8807 11 15.5 11C14.1193 11 13 9.88071 13 8.5C13 7.11929 14.1193 6.00001 15.5 6ZM6.5 8.5L8.5 10.5L10.5 8.5L8.5 6.5L6.5 8.5ZM15.5 7C14.6716 7.00001 14 7.67158 14 8.5C14 9.32842 14.6716 9.99999 15.5 10C16.3284 10 17 9.32843 17 8.5C17 7.67157 16.3284 7 15.5 7Z" fill="black" fill-opacity="0.9"/>
</g>
</svg>
