<svg width="24" height="24" viewBox="0 0 24 24" fill="none" xmlns="http://www.w3.org/2000/svg">
<g id="icon.24.flatten">
<path id="Icon" d="M18.5 18C18.7761 18 19 18.2239 19 18.5C19 18.7761 18.7761 19 18.5 19H5.5C5.22386 19 5 18.7761 5 18.5C5 18.2239 5.22386 18 5.5 18H18.5ZM19.6006 15.0098C19.8286 15.0563 20 15.2583 20 15.5C20 15.7417 19.8286 15.9437 19.6006 15.9902L19.5 16H4.5C4.22386 16 4 15.7761 4 15.5C4 15.2239 4.22386 15 4.5 15H19.5L19.6006 15.0098ZM12 3C12.2761 3 12.5 3.22386 12.5 3.5V10.293L15.1465 7.64648C15.3417 7.45122 15.6583 7.45122 15.8535 7.64648C16.0488 7.84175 16.0488 8.15825 15.8535 8.35352L12.3535 11.8535C12.1583 12.0488 11.8417 12.0488 11.6465 11.8535L8.14648 8.35352C7.95122 8.15825 7.95122 7.84175 8.14648 7.64648C8.34175 7.45122 8.65825 7.45122 8.85352 7.64648L11.5 10.293V3.5C11.5 3.22386 11.7239 3 12 3Z" fill="black" fill-opacity="0.9"/>
</g>
</svg>
