<svg width="24" height="24" viewBox="0 0 24 24" fill="none" xmlns="http://www.w3.org/2000/svg">
<g id="icon.24.import">
<path id="Icon" d="M11 6C11.2761 6 11.5 6.22386 11.5 6.5C11.5 6.77614 11.2761 7 11 7H8C7.44772 7 7 7.44772 7 8V16C7 16.5523 7.44772 17 8 17H16C16.5523 17 17 16.5523 17 16V9.5C17 9.22386 17.2239 9 17.5 9C17.7761 9 18 9.22386 18 9.5V16C18 17.1046 17.1046 18 16 18H8C6.89543 18 6 17.1046 6 16V8C6 6.89543 6.89543 6 8 6H11ZM17.5 6C17.7761 6 18 6.22386 18 6.5C18 6.77614 17.7761 7 17.5 7H17C14.5147 7 12.5 9.01472 12.5 11.5V13.293L14.1465 11.6465C14.3417 11.4512 14.6583 11.4512 14.8535 11.6465C15.0488 11.8417 15.0488 12.1583 14.8535 12.3535L12.3535 14.8535C12.1583 15.0488 11.8417 15.0488 11.6465 14.8535L9.14648 12.3535C8.95122 12.1583 8.95122 11.8417 9.14648 11.6465C9.34175 11.4512 9.65825 11.4512 9.85352 11.6465L11.5 13.293V11.5C11.5 8.46243 13.9624 6 17 6H17.5Z" fill="black" fill-opacity="0.9"/>
</g>
</svg>
