<svg width="24" height="24" viewBox="0 0 24 24" fill="none" xmlns="http://www.w3.org/2000/svg">
<g id="icon.24.interaction.key.small">
<path id="Icon" d="M13.5 5C14.2767 5 14.9154 5.59028 14.9922 6.34668L15 6.5V9H17.5C18.2767 9 18.9154 9.59028 18.9922 10.3467L19 10.5V13.5C19 14.2767 18.4097 14.9154 17.6533 14.9922L17.5 15H15V17.5C15 18.3284 14.3284 19 13.5 19H10.5C9.67157 19 9 18.3284 9 17.5V15H6.5C5.72334 15 5.08461 14.4097 5.00781 13.6533L5 13.5V10.5C5 9.67157 5.67157 9 6.5 9H9V6.5C9 5.67157 9.67157 5 10.5 5H13.5ZM10.5 6C10.2239 6 10 6.22386 10 6.5V10H6.5C6.22386 10 6 10.2239 6 10.5V13.5C6 13.7761 6.22386 14 6.5 14H10V17.5C10 17.7761 10.2239 18 10.5 18H13.5C13.7761 18 14 17.7761 14 17.5V14H17.5C17.7761 14 18 13.7761 18 13.5V10.5C18 10.2239 17.7761 10 17.5 10H14V6.5C14 6.22386 13.7761 6 13.5 6H10.5ZM12 10C13.1046 10 14 10.8954 14 12C14 13.1046 13.1046 14 12 14C10.8954 14 10 13.1046 10 12C10 10.8954 10.8954 10 12 10ZM12 11C11.4477 11 11 11.4477 11 12C11 12.5523 11.4477 13 12 13C12.5523 13 13 12.5523 13 12C13 11.4477 12.5523 11 12 11Z" fill="black" fill-opacity="0.9"/>
</g>
</svg>
