<svg width="24" height="24" viewBox="0 0 24 24" fill="none" xmlns="http://www.w3.org/2000/svg">
<g id="icon.24.create.variant">
<path id="Icon" d="M11.1162 3.38406C11.6043 2.89603 12.3957 2.89603 12.8838 3.38406L20.6162 11.1165C21.1041 11.6046 21.1042 12.396 20.6162 12.8841L12.8838 20.6165L12.7891 20.7024C12.3309 21.0761 11.6692 21.076 11.2109 20.7024L11.1162 20.6165L3.38379 12.8841C2.92625 12.4264 2.89749 11.7021 3.29785 11.2112L3.38379 11.1165L11.1162 3.38406ZM12.1768 4.09109C12.0792 3.99359 11.9208 3.99359 11.8232 4.09109L4.09082 11.8235C3.99332 11.9211 3.99331 12.0794 4.09082 12.177L11.8232 19.9095C11.9209 20.0068 12.0792 20.0069 12.1768 19.9095L19.9092 12.177C20.0066 12.0795 20.0065 11.9211 19.9092 11.8235L12.1768 4.09109ZM12 8.50027C12.2761 8.50037 12.5 8.72419 12.5 9.00027V11.5003H15C15.2761 11.5004 15.5 11.7242 15.5 12.0003C15.4998 12.2762 15.276 12.5002 15 12.5003H12.5V15.0003C12.4998 15.2762 12.276 15.5002 12 15.5003C11.724 15.5003 11.5002 15.2763 11.5 15.0003V12.5003H9C8.72395 12.5003 8.50015 12.2763 8.5 12.0003C8.5 11.7241 8.72386 11.5003 9 11.5003H11.5V9.00027C11.5 8.72413 11.7239 8.50027 12 8.50027Z" fill="black" fill-opacity="0.9"/>
</g>
</svg>
