<svg width="24" height="24" viewBox="0 0 24 24" fill="none" xmlns="http://www.w3.org/2000/svg">
<g id="icon.24.preview.prototype">
<path id="Icon" d="M18.5 4C19.3284 4 20 4.67157 20 5.5V18.5C20 19.3284 19.3284 20 18.5 20H5.5C4.67157 20 4 19.3284 4 18.5V5.5C4 4.67157 4.67157 4 5.5 4H18.5ZM5 18.5C5 18.7761 5.22386 19 5.5 19H18.5C18.7761 19 19 18.7761 19 18.5V8H5V18.5ZM9.5 11.4512C9.5 10.5307 10.4492 9.9471 11.2539 10.3066L11.4121 10.3906L14.6904 12.4404C15.4738 12.93 15.4738 14.07 14.6904 14.5596L11.4121 16.6094C10.5796 17.1292 9.5 16.5304 9.5 15.5488V11.4512ZM10.8828 11.2393C10.7163 11.1352 10.5 11.2548 10.5 11.4512V15.5488C10.5 15.7452 10.7163 15.8648 10.8828 15.7607L14.1611 13.7119C14.3174 13.614 14.3174 13.386 14.1611 13.2881L10.8828 11.2393ZM5.5 5C5.22386 5 5 5.22386 5 5.5V7H7V5H5.5ZM17 7H19V5.5C19 5.22386 18.7761 5 18.5 5H17V7ZM8 7H16V5H8V7Z" fill="black" fill-opacity="0.9"/>
</g>
</svg>
