<svg width="24" height="24" viewBox="0 0 24 24" fill="none" xmlns="http://www.w3.org/2000/svg">
<g id="icon.24.multi.edit.text.small">
<path id="Icon" d="M6.5 6C6.77614 6 7 6.22386 7 6.5V17.5C7 17.7761 6.77614 18 6.5 18C6.22386 18 6 17.7761 6 17.5V6.5C6 6.22386 6.22386 6 6.5 6ZM11.5 8C11.7 8 11.8811 8.11896 11.96 8.30273L14.1025 13.3027L14.96 15.3027C15.0687 15.5565 14.951 15.8511 14.6973 15.96C14.4435 16.0687 14.1489 15.951 14.04 15.6973L13.3135 14H9.68652L8.95996 15.6973C8.85114 15.951 8.55651 16.0687 8.30273 15.96C8.049 15.8511 7.93128 15.5565 8.04004 15.3027L8.89746 13.3027L11.04 8.30273L11.0742 8.2373C11.1643 8.0912 11.3249 8 11.5 8ZM15.5 8C15.6999 8.00002 15.8812 8.11898 15.96 8.30273L18.1025 13.3027L18.96 15.3027C19.0687 15.5565 18.951 15.8511 18.6973 15.96C18.4435 16.0687 18.1489 15.951 18.04 15.6973L17.3135 14H15.4893L15.0605 13H16.8848L15.5 9.76953L14.5879 11.8965L14.0439 10.627L15.04 8.30273L15.0742 8.2373C15.1643 8.09122 15.3249 8.00001 15.5 8ZM10.1152 13H12.8848L11.5 9.76953L10.1152 13Z" fill="black" fill-opacity="0.9"/>
</g>
</svg>
