<svg width="24" height="24" viewBox="0 0 24 24" fill="none" xmlns="http://www.w3.org/2000/svg">
<g id="icon.24.fit.to.screen.small">
<path id="Icon" d="M17.6533 6.00781C18.4097 6.08461 19 6.72334 19 7.5V16.5C19 17.2767 18.4097 17.9154 17.6533 17.9922L17.5 18H6.5C5.67157 18 5 17.3284 5 16.5V7.5C5 6.67157 5.67157 6 6.5 6H17.5L17.6533 6.00781ZM6.5 7C6.22386 7 6 7.22386 6 7.5V16.5C6 16.7761 6.22386 17 6.5 17H17.5C17.7761 17 18 16.7761 18 16.5V7.5C18 7.22386 17.7761 7 17.5 7H6.5ZM11.7246 8.08203C11.9187 7.95387 12.1827 7.97562 12.3535 8.14648L13.3535 9.14648C13.5488 9.34175 13.5488 9.65825 13.3535 9.85352C13.1583 10.0488 12.8417 10.0488 12.6465 9.85352L12.5 9.70703V11.5H15.293L15.1465 11.3535C14.9512 11.1583 14.9512 10.8417 15.1465 10.6465C15.3417 10.4512 15.6583 10.4512 15.8535 10.6465L16.8535 11.6465C17.0488 11.8417 17.0488 12.1583 16.8535 12.3535L15.8535 13.3535C15.6583 13.5488 15.3417 13.5488 15.1465 13.3535C14.9512 13.1583 14.9512 12.8417 15.1465 12.6465L15.293 12.5H12.5V14.293L12.6465 14.1465C12.8417 13.9512 13.1583 13.9512 13.3535 14.1465C13.5488 14.3417 13.5488 14.6583 13.3535 14.8535L12.3535 15.8535C12.1583 16.0488 11.8417 16.0488 11.6465 15.8535L10.6465 14.8535C10.4512 14.6583 10.4512 14.3417 10.6465 14.1465C10.8417 13.9512 11.1583 13.9512 11.3535 14.1465L11.5 14.293V12.5H8.70703L8.85352 12.6465C9.04878 12.8417 9.04878 13.1583 8.85352 13.3535C8.65825 13.5488 8.34175 13.5488 8.14648 13.3535L7.14648 12.3535C6.95122 12.1583 6.95122 11.8417 7.14648 11.6465L8.14648 10.6465C8.34175 10.4512 8.65825 10.4512 8.85352 10.6465C9.04878 10.8417 9.04878 11.1583 8.85352 11.3535L8.70703 11.5H11.5V9.70703L11.3535 9.85352C11.1583 10.0488 10.8417 10.0488 10.6465 9.85352C10.4512 9.65825 10.4512 9.34175 10.6465 9.14648L11.6465 8.14648L11.7246 8.08203Z" fill="black" fill-opacity="0.9"/>
</g>
</svg>
