<svg width="24" height="24" viewBox="0 0 24 24" fill="none" xmlns="http://www.w3.org/2000/svg">
<g id="icon.24.effects.small">
<path id="Icon" d="M15 5C15.3601 5 15.6926 5.19356 15.8701 5.50684C16.0476 5.82034 16.0428 6.20572 15.8574 6.51465L13.7666 10H16C16.4044 10 16.769 10.2436 16.9238 10.6172C17.0786 10.9909 16.993 11.421 16.707 11.707L9.70703 18.707C9.37131 19.0428 8.84559 19.0963 8.44922 18.835C8.05306 18.5736 7.8952 18.0696 8.07129 17.6289L9.52246 14H7.5C7.15342 14 6.83162 13.8202 6.64941 13.5254C6.46733 13.2306 6.45051 12.8626 6.60547 12.5527L10.1055 5.55273L10.1768 5.43164C10.3617 5.16368 10.6685 5 11 5H15ZM7.5 13H11L9 18L16 11H12L15 6H11L7.5 13Z" fill="black" fill-opacity="0.9"/>
</g>
</svg>
