<svg width="24" height="24" viewBox="0 0 24 24" fill="none" xmlns="http://www.w3.org/2000/svg">
<g id="icon.24.updates">
<path id="Icon" d="M17.5225 12.0242C17.7972 12.0504 17.9987 12.2943 17.9727 12.5691C17.6581 15.8678 14.7293 18.2878 11.4307 17.9734C9.55476 17.7945 7.96563 16.7679 7 15.3122V17.4997C7 17.7759 6.77614 17.9997 6.5 17.9997C6.22386 17.9997 6 17.7759 6 17.4997V14.4997C6.00023 14.2238 6.224 13.9997 6.5 13.9997H10C10.276 13.9997 10.4998 14.2238 10.5 14.4997C10.5 14.7759 10.2761 14.9997 10 14.9997H8.00293C8.81836 16.0859 10.068 16.8383 11.5254 16.9773C14.2743 17.2394 16.7154 15.2233 16.9775 12.4744C17.0038 12.1996 17.2477 11.9981 17.5225 12.0242ZM17.5 5.99975C17.7761 5.99975 17.9999 6.22372 18 6.49975V9.49975C18 9.77589 17.7761 9.99975 17.5 9.99975H14C13.7239 9.99975 13.5 9.77589 13.5 9.49975C13.5001 9.22372 13.7239 8.99975 14 8.99975H15.9961C15.1806 7.91405 13.9316 7.16113 12.4746 7.02221C9.72574 6.76012 7.28469 8.77632 7.02246 11.5251C6.99626 11.8 6.75238 12.0015 6.47754 11.9753C6.20264 11.9491 6.00113 11.7053 6.02734 11.4304C6.34192 8.13177 9.27069 5.71266 12.5693 6.02709C14.4448 6.20591 16.0343 7.23113 17 8.68627V6.49975C17.0001 6.22372 17.2239 5.99975 17.5 5.99975Z" fill="black" fill-opacity="0.9"/>
</g>
</svg>
