<svg width="24" height="24" viewBox="0 0 24 24" fill="none" xmlns="http://www.w3.org/2000/svg">
<g id="icon.24.edit.object.small">
<path id="Icon" d="M16 4.99988C16.5523 4.99988 17 5.44759 17 5.99988V6.99988C17 7.51755 16.6067 7.94366 16.1025 7.995L16 7.99988H15L14.8975 7.995C14.8439 7.98954 14.792 7.97831 14.7412 7.96472L13.5186 9.18738C13.9926 9.06697 14.4885 8.99988 15 8.99988C16.4681 8.99988 17.8127 9.52763 18.8555 10.4032C18.9486 10.4814 19 10.598 19 10.7196C18.9997 11.1299 18.4307 11.3401 18.1094 11.0848C17.2558 10.406 16.1754 9.99988 15 9.99988C14.2582 9.99988 13.5549 10.1631 12.9219 10.453C12.9713 10.627 13 10.81 13 10.9999C13 12.1044 12.1046 12.9999 11 12.9999C10.8102 12.9999 10.6271 12.9712 10.4531 12.9218C10.1632 13.5548 10 14.2581 10 14.9999C10 16.1755 10.4058 17.2566 11.085 18.1102C11.3402 18.4314 11.13 18.9999 10.7197 18.9999C10.5984 18.9997 10.4823 18.9482 10.4043 18.8553C9.52843 17.8126 9 16.4682 9 14.9999C9 14.4883 9.06709 13.9925 9.1875 13.5184L7.96484 14.7411C7.98695 14.8237 8 14.9103 8 14.9999V15.9999C8 16.5176 7.60667 16.9437 7.10254 16.995L7 16.9999H6L5.89746 16.995C5.42703 16.9471 5.05278 16.5728 5.00488 16.1024L5 15.9999V14.9999C5 14.4476 5.44772 13.9999 6 13.9999H7C7.0892 13.9999 7.17551 14.0121 7.25781 14.0341L9.27832 12.0135C9.10278 11.716 9 11.3703 9 10.9999C9 9.89531 9.89543 8.99988 11 8.99988C11.3704 8.99988 11.7162 9.10265 12.0137 9.2782L14.0342 7.25769C14.0208 7.20731 14.0103 7.15559 14.0049 7.10242L14 6.99988V5.99988C14 5.44759 14.4477 4.99988 15 4.99988H16ZM6 15.9999H7V14.9999H6V15.9999ZM11 9.99988C10.4477 9.99988 10 10.4476 10 10.9999C10 11.5522 10.4477 11.9999 11 11.9999C11.5523 11.9999 12 11.5522 12 10.9999C12 10.4476 11.5523 9.99988 11 9.99988ZM15 6.99988H16V5.99988H15V6.99988Z" fill="black" fill-opacity="0.9"/>
</g>
</svg>
