<svg width="24" height="24" viewBox="0 0 24 24" fill="none" xmlns="http://www.w3.org/2000/svg">
<g id="icon.24.boolean.union">
<path id="Union" d="M14 10H19V19H10V14H5V5H14V10Z" fill="black" fill-opacity="0.3"/>
<path id="Icon" d="M14 4C14.5523 4 15 4.44772 15 5V9H19C19.5523 9 20 9.44772 20 10V19C20 19.5523 19.5523 20 19 20H10C9.44772 20 9 19.5523 9 19V15H5C4.44772 15 4 14.5523 4 14V5C4 4.48232 4.39333 4.05621 4.89746 4.00488L5 4H14ZM5 14H10V19H19V10H14V5H5V14Z" fill="black" fill-opacity="0.9"/>
</g>
</svg>
