<svg width="24" height="24" viewBox="0 0 24 24" fill="none" xmlns="http://www.w3.org/2000/svg">
<g id="icon.24.qwand.small">
<path id="Icon" d="M16.001 15C16.2771 15 16.501 15.2239 16.501 15.5V16.5H17.501C17.7771 16.5 18.001 16.7239 18.001 17C18.001 17.2761 17.7771 17.5 17.501 17.5H16.501V18.5C16.501 18.7761 16.2771 19 16.001 19C15.7248 19 15.501 18.7761 15.501 18.5V17.5H14.501C14.2248 17.5 14.001 17.2761 14.001 17C14.001 16.7239 14.2248 16.5 14.501 16.5H15.501V15.5C15.501 15.2239 15.7248 15 16.001 15ZM8.60547 7.48438C9.0702 6.12697 11.0745 6.17221 11.4365 7.62012L12.0254 9.97559L14.3809 10.5645C15.8753 10.9383 15.8754 13.0618 14.3809 13.4355L12.0254 14.0244L11.4365 16.3799C11.0627 17.8742 8.93931 17.8742 8.56543 16.3799L7.97656 14.0244L5.62109 13.4355C4.12648 13.0618 4.12646 10.9382 5.62109 10.5645L7.97656 9.97559L8.56543 7.62012L8.60547 7.48438ZM10.4668 7.8623C10.3454 7.37794 9.65654 7.37794 9.53516 7.8623L8.80078 10.7998L5.86328 11.5342C5.37892 11.6556 5.37892 12.3444 5.86328 12.4658L8.80078 13.2002L9.53516 16.1377C9.6491 16.5916 10.2614 16.6199 10.4375 16.2227L10.4668 16.1377L11.2012 13.2002L14.1387 12.4658C14.5927 12.352 14.6209 11.7396 14.2236 11.5635L14.1387 11.5342L11.2012 10.7998L10.4668 7.8623ZM16.001 5C17.1055 5.00004 18.001 5.89546 18.001 7C18.001 8.10454 17.1055 8.99996 16.001 9C14.8964 9 14.001 8.10457 14.001 7C14.001 5.89543 14.8964 5 16.001 5ZM16.001 6C15.4487 6 15.001 6.44772 15.001 7C15.001 7.55228 15.4487 8 16.001 8C16.5532 7.99996 17.001 7.55226 17.001 7C17.001 6.44774 16.5532 6.00004 16.001 6Z" fill="black" fill-opacity="0.9"/>
</g>
</svg>
