<svg width="24" height="24" viewBox="0 0 24 24" fill="none" xmlns="http://www.w3.org/2000/svg">
<g id="icon.24.move">
<path id="Icon" d="M4.58594 4.58588C5.14848 4.02333 5.99097 3.84773 6.73145 4.13861L19.7314 9.24603C20.5224 9.55688 21.0311 10.3333 20.999 11.1826C20.9668 12.032 20.4004 12.7685 19.5879 13.0185L14.5635 14.5634L13.0186 19.5878C12.7686 20.4003 12.0321 20.9667 11.1826 20.999C10.3334 21.031 9.55694 20.5223 9.24609 19.7314L4.13867 6.73138C3.84779 5.99091 4.02339 5.14842 4.58594 4.58588ZM6.36523 5.06927C5.99509 4.92405 5.57414 5.01173 5.29297 5.29291L5.19629 5.40424C4.99309 5.67825 4.94226 6.0413 5.06934 6.36517L10.1768 19.3652C10.3128 19.7115 10.6271 19.95 10.9883 19.9931L11.1455 19.999C11.5701 19.9827 11.9375 19.7 12.0625 19.2939L13.7646 13.7646L19.2939 12.0624C19.6493 11.9531 19.9109 11.6583 19.9814 11.3017L19.999 11.1454C20.0131 10.7737 19.8204 10.4293 19.5068 10.2451L19.3652 10.1767L6.36523 5.06927Z" fill="black" fill-opacity="0.9"/>
</g>
</svg>
