<svg width="24" height="24" viewBox="0 0 24 24" fill="none" xmlns="http://www.w3.org/2000/svg">
<g id="icon.24.slide">
<path id="Icon" d="M19 4C20.1046 4 21 4.89543 21 6V15C21 16.0357 20.2128 16.887 19.2041 16.9893L19 17H17.1318L18.4336 19.2539C18.5716 19.493 18.4891 19.7994 18.25 19.9375C18.0109 20.0754 17.7054 19.993 17.5674 19.7539L15.9775 17H8.02246L6.43262 19.7539C6.29456 19.993 5.98913 20.0755 5.75 19.9375C5.51085 19.7994 5.42931 19.4931 5.56738 19.2539L6.86914 17H5L4.7959 16.9893C3.85435 16.8938 3.1062 16.1457 3.01074 15.2041L3 15V6C3 4.89543 3.89543 4 5 4H19ZM5 5C4.44772 5 4 5.44772 4 6V15C4 15.5523 4.44772 16 5 16H19C19.5523 16 20 15.5523 20 15V6C20 5.44772 19.5523 5 19 5H5ZM10 8.90234C10 8.11691 10.8642 7.63743 11.5303 8.05371L14.0869 9.65234C14.7131 10.0441 14.7131 10.9559 14.0869 11.3477L11.5303 12.9463C10.8642 13.3626 10 12.8831 10 12.0977V8.90234ZM11 12.0977L13.5566 10.5L11 8.90234V12.0977Z" fill="black" fill-opacity="0.9"/>
</g>
</svg>
