<svg width="24" height="24" viewBox="0 0 24 24" fill="none" xmlns="http://www.w3.org/2000/svg">
<g id="icon.24.grid-view">
<path id="Icon" d="M10 13C10.5523 13 11 13.4477 11 14V17C11 17.5177 10.6067 17.9438 10.1025 17.9951L10 18H7L6.89746 17.9951C6.42703 17.9472 6.05278 17.573 6.00488 17.1025L6 17V14C6 13.4477 6.44772 13 7 13H10ZM17 13C17.5523 13 18 13.4477 18 14V17C18 17.5177 17.6067 17.9438 17.1025 17.9951L17 18H14L13.8975 17.9951C13.427 17.9472 13.0528 17.573 13.0049 17.1025L13 17V14C13 13.4477 13.4477 13 14 13H17ZM14 17H17V14H14V17ZM7 17H10V14H7V17ZM10 6C10.5523 6 11 6.44772 11 7V10C11 10.5177 10.6067 10.9438 10.1025 10.9951L10 11H7L6.89746 10.9951C6.42703 10.9472 6.05278 10.573 6.00488 10.1025L6 10V7C6 6.44772 6.44772 6 7 6H10ZM17 6C17.5523 6 18 6.44772 18 7V10C18 10.5177 17.6067 10.9438 17.1025 10.9951L17 11H14L13.8975 10.9951C13.427 10.9472 13.0528 10.573 13.0049 10.1025L13 10V7C13 6.44772 13.4477 6 14 6H17ZM7 10H10V7H7V10ZM14 10H17V7H14V10Z" fill="black"/>
</g>
</svg>
