<svg width="24" height="24" viewBox="0 0 24 24" fill="none" xmlns="http://www.w3.org/2000/svg">
<g id="icon.24.fill.screen.small">
<path id="Icon" d="M17.6533 6.00781C18.4097 6.08461 19 6.72334 19 7.5V16.5C19 17.2767 18.4097 17.9154 17.6533 17.9922L17.5 18H6.5C5.67157 18 5 17.3284 5 16.5V7.5C5 6.67157 5.67157 6 6.5 6H17.5L17.6533 6.00781ZM6.5 7C6.22386 7 6 7.22386 6 7.5V16.5C6 16.7761 6.22386 17 6.5 17H17.5C17.7761 17 18 16.7761 18 16.5V7.5C18 7.22386 17.7761 7 17.5 7H6.5ZM7.5 13C7.77614 13 8 13.2239 8 13.5V15H9.5C9.77614 15 10 15.2239 10 15.5C10 15.7761 9.77614 16 9.5 16H7.5C7.22386 16 7 15.7761 7 15.5V13.5C7 13.2239 7.22386 13 7.5 13ZM16.5 13C16.7761 13 17 13.2239 17 13.5V15.5C17 15.7761 16.7761 16 16.5 16H14.5C14.2239 16 14 15.7761 14 15.5C14 15.2239 14.2239 15 14.5 15H16V13.5C16 13.2239 16.2239 13 16.5 13ZM9.5 8C9.77614 8 10 8.22386 10 8.5C10 8.77614 9.77614 9 9.5 9H8V10.5C8 10.7761 7.77614 11 7.5 11C7.22386 11 7 10.7761 7 10.5V8.5C7 8.22386 7.22386 8 7.5 8H9.5ZM16.5 8C16.7761 8 17 8.22386 17 8.5V10.5C17 10.7761 16.7761 11 16.5 11C16.2239 11 16 10.7761 16 10.5V9H14.5C14.2239 9 14 8.77614 14 8.5C14 8.22386 14.2239 8 14.5 8H16.5Z" fill="black" fill-opacity="0.9"/>
</g>
</svg>
