<svg width="24" height="24" viewBox="0 0 24 24" fill="none" xmlns="http://www.w3.org/2000/svg">
<g id="icon.24.help.small">
<path id="Icon" d="M12 5C15.866 5 19 8.13401 19 12C19 15.866 15.866 19 12 19C8.13401 19 5 15.866 5 12C5 8.13401 8.13401 5 12 5ZM12 6C8.68629 6 6 8.68629 6 12C6 15.3137 8.68629 18 12 18C15.3137 18 18 15.3137 18 12C18 8.68629 15.3137 6 12 6ZM12 14C12.4142 14 12.75 14.3358 12.75 14.75C12.75 15.1642 12.4142 15.5 12 15.5C11.5858 15.5 11.25 15.1642 11.25 14.75C11.25 14.3358 11.5858 14 12 14ZM12 8C13.1046 8 14 8.89543 14 10C14 10.8747 13.4387 11.6167 12.6582 11.8887C12.5956 11.9105 12.5468 11.9454 12.5195 11.9756C12.5076 11.9888 12.5027 11.9981 12.501 12.002L12.5 12.0039V12.5029C12.5 12.7791 12.2761 13.0029 12 13.0029C11.7239 13.0029 11.5 12.7791 11.5 12.5029V12.0029C11.5001 11.4251 11.9633 11.0718 12.3291 10.9443C12.7203 10.808 13 10.4362 13 10C13 9.44772 12.5523 9 12 9C11.4477 9 11 9.44772 11 10C11 10.2761 10.7761 10.5 10.5 10.5C10.2239 10.5 10 10.2761 10 10C10 8.89543 10.8954 8 12 8Z" fill="black" fill-opacity="0.9"/>
</g>
</svg>
