<svg width="24" height="24" viewBox="0 0 24 24" fill="none" xmlns="http://www.w3.org/2000/svg">
<g id="icon.24.angle">
<path id="Icon" d="M9.5957 6.6972C9.79097 6.50194 10.1075 6.50194 10.3027 6.6972L15.2529 11.6474C15.4477 11.8427 15.448 12.1593 15.2529 12.3544L10.3027 17.3036C10.1075 17.4989 9.79097 17.4989 9.5957 17.3036C9.40048 17.1084 9.40045 16.7919 9.5957 16.5966L11.7705 14.4208C10.6955 12.9907 10.6953 11.0092 11.7705 9.57904L9.5957 7.40424C9.40044 7.20897 9.40044 6.89247 9.5957 6.6972ZM12.4873 10.2958C11.7899 11.3213 11.7901 12.6786 12.4873 13.704L14.1914 12.0009L12.4873 10.2958Z" fill="black" fill-opacity="0.9"/>
</g>
</svg>
