<svg width="24" height="24" viewBox="0 0 24 24" fill="none" xmlns="http://www.w3.org/2000/svg">
<g id="icon.24.rewrite.small">
<path id="Icon" d="M16.1182 14.7495C16.2016 14.4166 16.6753 14.4166 16.7588 14.7495L17.0381 15.8696L18.1582 16.1489C18.4912 16.2324 18.4912 16.7061 18.1582 16.7896L17.0381 17.0688L16.7588 18.189C16.6753 18.5219 16.2016 18.5219 16.1182 18.189L15.8389 17.0688L14.7188 16.7896C14.3859 16.706 14.3859 16.2324 14.7188 16.1489L15.8389 15.8696L16.1182 14.7495ZM14.793 5.99951C15.1835 5.60904 15.8165 5.60905 16.207 5.99951L18 7.79248C18.3905 8.183 18.3905 8.81603 18 9.20654L9.5 17.7065C9.31249 17.894 9.05814 17.9995 8.79297 17.9995H7C6.48236 17.9995 6.05622 17.6062 6.00488 17.1021L6 16.9995V15.2065C6.00002 14.9414 6.10548 14.687 6.29297 14.4995L14.793 5.99951ZM7 15.2065V16.9995H8.79297L15.293 10.4995L13.5 8.70654L7 15.2065ZM6.95312 5.90967C7.07937 5.40469 7.79758 5.40469 7.92383 5.90967L8.23828 7.16943L9.49805 7.48389C10.003 7.61013 10.003 8.32835 9.49805 8.45459L8.23828 8.76904L7.92383 10.0288C7.79758 10.5338 7.07937 10.5338 6.95312 10.0288L6.63867 8.76904L5.37891 8.45459C4.87393 8.32835 4.87393 7.61013 5.37891 7.48389L6.63867 7.16943L6.95312 5.90967ZM14.207 7.99951L16 9.79248L17.293 8.49951L15.5 6.70654L14.207 7.99951Z" fill="black" fill-opacity="0.9"/>
</g>
</svg>
