<svg width="24" height="24" viewBox="0 0 24 24" fill="none" xmlns="http://www.w3.org/2000/svg">
<g id="icon.24.image.small">
<path id="Icon" d="M16.2041 6.01074C17.2128 6.113 18 6.96435 18 8V16L17.9893 16.2041C17.8938 17.1457 17.1457 17.8938 16.2041 17.9893L16 18H8C6.96435 18 6.113 17.2128 6.01074 16.2041L6 16V8C6 6.89543 6.89543 6 8 6H16L16.2041 6.01074ZM7 15.082V16C7 16.5523 7.44772 17 8 17H14.668L9.875 12.207L7 15.082ZM8 7C7.48232 7 7.05621 7.39333 7.00488 7.89746L7 8V13.668L9.52148 11.1465L9.59961 11.082C9.79369 10.9539 10.0577 10.9756 10.2285 11.1465L16.0781 16.9961C16.5939 16.9562 17 16.526 17 16V8C17 7.48232 16.6067 7.05621 16.1025 7.00488L16 7H8ZM14 8C15.1046 8 16 8.89543 16 10C16 11.1046 15.1046 12 14 12C12.8954 12 12 11.1046 12 10C12 8.89543 12.8954 8 14 8ZM14 9C13.4477 9 13 9.44772 13 10C13 10.5523 13.4477 11 14 11C14.5523 11 15 10.5523 15 10C15 9.44772 14.5523 9 14 9Z" fill="black" fill-opacity="0.9"/>
</g>
</svg>
