<svg width="24" height="24" viewBox="0 0 24 24" fill="none" xmlns="http://www.w3.org/2000/svg">
<g id="icon.24.reset.instance">
<path id="Icon" d="M10.6895 2.60367C11.2752 2.01794 12.2247 2.01806 12.8105 2.60367L20.3975 10.1896C20.9831 10.7753 20.9828 11.7249 20.3975 12.3107L19.5459 13.1623C19.3506 13.3575 19.0341 13.3575 18.8389 13.1623C18.6437 12.967 18.6436 12.6505 18.8389 12.4552L19.6904 11.6037C19.8853 11.4084 19.8855 11.0918 19.6904 10.8966L12.1035 3.3107C11.9082 3.11561 11.5917 3.1155 11.3965 3.3107L3.81055 10.8966C3.61534 11.0918 3.61546 11.4084 3.81055 11.6037L5.84863 13.6418C5.85045 13.6435 5.8527 13.6448 5.85449 13.6466L10.1582 17.9503C11.6298 19.4219 14.0638 19.2491 15.3125 17.5841C15.4787 17.3625 15.6179 17.1195 15.7246 16.8634C16.6562 14.627 15.0979 12.1601 12.7324 12.008L12.501 12.0002H10.208L12.3545 14.1466C12.5497 14.3418 12.5495 14.6584 12.3545 14.8537C12.1592 15.0489 11.8427 15.0489 11.6475 14.8537L8.64746 11.8537C8.4523 11.6584 8.45223 11.3419 8.64746 11.1466L11.6475 8.14664C11.8427 7.95166 12.1593 7.95156 12.3545 8.14664C12.5497 8.34182 12.5495 8.65839 12.3545 8.85367L10.208 11.0002H12.501L12.7988 11.0099C15.8472 11.2053 17.8421 14.379 16.6475 17.2472C16.5089 17.5797 16.3286 17.8962 16.1123 18.1847C14.4984 20.3361 11.353 20.5592 9.45117 18.6574L7.15234 16.3586C7.15086 16.3571 7.14893 16.3561 7.14746 16.3546L3.10352 12.3107C2.5179 11.7249 2.51779 10.7753 3.10352 10.1896L10.6895 2.60367Z" fill="black" fill-opacity="0.9"/>
</g>
</svg>
