<svg width="24" height="24" viewBox="0 0 24 24" fill="none" xmlns="http://www.w3.org/2000/svg">
<g id="icon.24.layout-align-left">
<path id="Icon" d="M13.25 13C13.6642 13 14 13.3358 14 13.75V14.25C14 14.6642 13.6642 15 13.25 15H8.75C8.33579 15 8 14.6642 8 14.25V13.75C8 13.3358 8.33579 13 8.75 13H13.25ZM17.25 8C17.6642 8 18 8.33579 18 8.75V9.25C18 9.66421 17.6642 10 17.25 10H8.75C8.33579 10 8 9.66421 8 9.25V8.75C8 8.33579 8.33579 8 8.75 8H17.25Z" fill="black" fill-opacity="0.9"/>
<path id="Secondary" d="M6 17.5C6 17.7761 5.77614 18 5.5 18C5.22386 18 5 17.7761 5 17.5V5.5C5 5.22386 5.22386 5 5.5 5C5.77614 5 6 5.22386 6 5.5V17.5Z" fill="black" fill-opacity="0.3"/>
</g>
</svg>
