<svg width="24" height="24" viewBox="0 0 24 24" fill="none" xmlns="http://www.w3.org/2000/svg">
<g id="icon.24.al.width-fill">
<path id="Icon" d="M14.6465 8.14648C14.8417 7.95123 15.1583 7.95123 15.3535 8.14648L18.3535 11.1465C18.4472 11.2402 18.5 11.3675 18.5 11.5C18.4999 11.6325 18.4472 11.7598 18.3535 11.8535L15.3535 14.8535C15.1583 15.0488 14.8417 15.0488 14.6465 14.8535C14.4512 14.6583 14.4512 14.3417 14.6465 14.1465L16.793 12H7.20703L9.35352 14.1465C9.54878 14.3417 9.54878 14.6583 9.35352 14.8535C9.15825 15.0488 8.84175 15.0488 8.64648 14.8535L5.64648 11.8535C5.45122 11.6583 5.45122 11.3417 5.64648 11.1465L8.64648 8.14648C8.84175 7.95122 9.15825 7.95122 9.35352 8.14648C9.54878 8.34175 9.54878 8.65825 9.35352 8.85352L7.20703 11H16.793L14.6465 8.85352C14.4512 8.65826 14.4512 8.34175 14.6465 8.14648Z" fill="black" fill-opacity="0.9"/>
</g>
</svg>
