<svg width="24" height="24" viewBox="0 0 24 24" fill="none" xmlns="http://www.w3.org/2000/svg">
<g id="icon.24.table.small">
<path id="Icon" d="M17 5C18.1046 5 19 5.89543 19 7V16C19 17.1046 18.1046 18 17 18H7C5.89543 18 5 17.1046 5 16V7C5 5.89543 5.89543 5 7 5H17ZM6 16C6 16.5523 6.44771 17 7 17H9V14H6V16ZM10 14V17H17C17.5523 17 18 16.5523 18 16V14H10ZM6 13H9V10H6V13ZM10 10V13H18V10H10ZM7 6C6.44772 6 6 6.44772 6 7V9H9V6H7ZM10 9H18V7C18 6.44772 17.5523 6 17 6H10V9Z" fill="black" fill-opacity="0.9"/>
</g>
</svg>
