<svg width="24" height="24" viewBox="0 0 24 24" fill="none" xmlns="http://www.w3.org/2000/svg">
<g id="icon.24.shape.text.small">
<path id="Icon" d="M16.2041 6.01074C17.2128 6.113 18 6.96435 18 8V16L17.9893 16.2041C17.8938 17.1457 17.1457 17.8938 16.2041 17.9893L16 18H8C6.96435 18 6.113 17.2128 6.01074 16.2041L6 16V8C6 6.89543 6.89543 6 8 6H16L16.2041 6.01074ZM8 7C7.48232 7 7.05621 7.39333 7.00488 7.89746L7 8V16C7 16.5523 7.44772 17 8 17H16C16.5523 17 17 16.5523 17 16V8C17 7.48232 16.6067 7.05621 16.1025 7.00488L16 7H8ZM14.5 9C14.7761 9 15 9.22386 15 9.5V10.5C15 10.7761 14.7761 11 14.5 11C14.2239 11 14 10.7761 14 10.5V10H12.5V14H13C13.2761 14 13.5 14.2239 13.5 14.5C13.5 14.7761 13.2761 15 13 15H11C10.7239 15 10.5 14.7761 10.5 14.5C10.5 14.2239 10.7239 14 11 14H11.5V10H10V10.5C10 10.7761 9.77614 11 9.5 11C9.22386 11 9 10.7761 9 10.5V9.5C9 9.22386 9.22386 9 9.5 9H14.5Z" fill="black" fill-opacity="0.9"/>
</g>
</svg>
