<svg width="24" height="24" viewBox="0 0 24 24" fill="none" xmlns="http://www.w3.org/2000/svg">
<g id="icon.24.styles">
<path id="Icon" d="M8.5 13C9.88071 13 11 14.1193 11 15.5C11 16.8807 9.88071 18 8.5 18C7.11929 18 6 16.8807 6 15.5C6 14.1193 7.11929 13 8.5 13ZM15.5 13C16.8807 13 18 14.1193 18 15.5C18 16.8807 16.8807 18 15.5 18C14.1193 18 13 16.8807 13 15.5C13 14.1193 14.1193 13 15.5 13ZM15.5 14C14.6716 14 14 14.6716 14 15.5C14 16.3284 14.6716 17 15.5 17C16.3284 17 17 16.3284 17 15.5C17 14.6716 16.3284 14 15.5 14ZM8.5 6C9.88071 6 11 7.11929 11 8.5C11 9.88071 9.88071 11 8.5 11C7.11929 11 6 9.88071 6 8.5C6 7.11929 7.11929 6 8.5 6ZM15.5 6C16.8807 6 18 7.11929 18 8.5C18 9.88071 16.8807 11 15.5 11C14.1193 11 13 9.88071 13 8.5C13 7.11929 14.1193 6 15.5 6ZM8.5 7C7.67157 7 7 7.67157 7 8.5C7 9.32843 7.67157 10 8.5 10C9.32843 10 10 9.32843 10 8.5C10 7.67157 9.32843 7 8.5 7ZM15.5 7C14.6716 7 14 7.67157 14 8.5C14 9.32843 14.6716 10 15.5 10C16.3284 10 17 9.32843 17 8.5C17 7.67157 16.3284 7 15.5 7ZM7 15.5C7 16.3284 7.67157 17 8.5 17C9.32843 17 10 16.3284 10 15.5C10 14.6716 9.32843 14 8.5 14C7.67157 14 7 14.6716 7 15.5Z" fill="black" fill-opacity="0.9"/>
</g>
</svg>
