<svg width="24" height="24" viewBox="0 0 24 24" fill="none" xmlns="http://www.w3.org/2000/svg">
<g id="icon.24.layout-align-right-group">
<path id="Icon" d="M18.5 5C18.7761 5 19 5.22386 19 5.5V17.5C19 17.7761 18.7761 18 18.5 18C18.2239 18 18 17.7761 18 17.5V5.5C18 5.22386 18.2239 5 18.5 5ZM15.25 13C15.6642 13 16 13.3358 16 13.75V14.25C16 14.6642 15.6642 15 15.25 15H10.75C10.3358 15 10 14.6642 10 14.25V13.75C10 13.3358 10.3358 13 10.75 13H15.25ZM15.25 8C15.6642 8 16 8.33579 16 8.75V9.25C16 9.66421 15.6642 10 15.25 10H6.75C6.33579 10 6 9.66421 6 9.25V8.75C6 8.33579 6.33579 8 6.75 8H15.25Z" fill="black" fill-opacity="0.9"/>
<path id="Secondary" d="M15.5 17.5H5.25C4.83579 17.5 4.5 17.1642 4.5 16.75L4.5 6.25C4.5 5.83579 4.83579 5.5 5.25 5.5L15.5 5.5" stroke="black" stroke-opacity="0.3" stroke-linecap="round"/>
</g>
</svg>
