<svg width="24" height="24" viewBox="0 0 24 24" fill="none" xmlns="http://www.w3.org/2000/svg">
<g id="icon.24.layout-align-vertical-center-group">
<path id="Icon" d="M5 11.5C5 11.2239 5.22386 11 5.5 11H8V7.75C8 7.33579 8.33579 7 8.75 7H9.25C9.66421 7 10 7.33579 10 7.75V11H13V9.75C13 9.33579 13.3358 9 13.75 9H14.25C14.6642 9 15 9.33579 15 9.75V11H17.5C17.7761 11 18 11.2239 18 11.5C18 11.7761 17.7761 12 17.5 12H15V13.25C15 13.6642 14.6642 14 14.25 14H13.75C13.3358 14 13 13.6642 13 13.25V12H10V15.25C10 15.6642 9.66421 16 9.25 16H8.75C8.33579 16 8 15.6642 8 15.25V12H5.5C5.22386 12 5 11.7761 5 11.5Z" fill="black" fill-opacity="0.9"/>
<path id="Secondary" d="M17.5 14C17.7761 14 18 14.2239 18 14.5V16.75C18 17.4404 17.4404 18 16.75 18H6.25C5.55964 18 5 17.4404 5 16.75V14.5C5 14.2239 5.22386 14 5.5 14C5.77614 14 6 14.2239 6 14.5V16.75C6 16.8881 6.11193 17 6.25 17H16.75C16.8881 17 17 16.8881 17 16.75V14.5C17 14.2239 17.2239 14 17.5 14ZM16.75 5C17.4404 5 18 5.55964 18 6.25V8.5C18 8.77614 17.7761 9 17.5 9C17.2239 9 17 8.77614 17 8.5V6.25C17 6.11193 16.8881 6 16.75 6H6.25C6.11193 6 6 6.11193 6 6.25V8.5C6 8.77614 5.77614 9 5.5 9C5.22386 9 5 8.77614 5 8.5V6.25C5 5.55964 5.55964 5 6.25 5H16.75Z" fill="black" fill-opacity="0.3"/>
</g>
</svg>
