<svg width="24" height="24" viewBox="0 0 24 24" fill="none" xmlns="http://www.w3.org/2000/svg">
<g id="icon.24.variant.small">
<path id="Icon" d="M11.1162 5.88376C11.6043 5.39573 12.3957 5.39573 12.8838 5.88376L18.1162 11.1162C18.6041 11.6043 18.6042 12.3957 18.1162 12.8838L12.8838 18.1162L12.7891 18.2021C12.3309 18.5758 11.6692 18.5757 11.2109 18.2021L11.1162 18.1162L5.88379 12.8838C5.42625 12.4261 5.39749 11.7018 5.79785 11.2109L5.88379 11.1162L11.1162 5.88376ZM12.1768 6.59079C12.0792 6.49328 11.9209 6.49328 11.8232 6.59079L6.59082 11.8232C6.49332 11.9208 6.49331 12.0791 6.59082 12.1767L11.8232 17.4091C11.9209 17.5065 12.0792 17.5066 12.1768 17.4091L17.4092 12.1767C17.5066 12.0792 17.5065 11.9208 17.4092 11.8232L12.1768 6.59079Z" fill="black" fill-opacity="0.9"/>
</g>
</svg>
