<svg width="24" height="24" viewBox="0 0 24 24" fill="none" xmlns="http://www.w3.org/2000/svg">
<g id="icon.24.ai.search">
<path id="Icon" d="M10.5 4C14.0899 4 17 6.91015 17 10.5C17 12.1149 16.4094 13.5908 15.4346 14.7275L19.8535 19.1465C20.0488 19.3417 20.0488 19.6583 19.8535 19.8535C19.6583 20.0488 19.3417 20.0488 19.1465 19.8535L14.7275 15.4346C13.5908 16.4094 12.1149 17 10.5 17C6.91015 17 4 14.0899 4 10.5C4 6.91015 6.91015 4 10.5 4ZM10.5 5C7.46243 5 5 7.46243 5 10.5C5 13.5376 7.46243 16 10.5 16C13.5376 16 16 13.5376 16 10.5C16 7.46243 13.5376 5 10.5 5ZM10.0146 7.44043C10.1409 6.93545 10.8591 6.93545 10.9854 7.44043L11.5 9.5L13.5596 10.0146C14.0645 10.1409 14.0645 10.8591 13.5596 10.9854L11.5 11.5L10.9854 13.5596C10.8591 14.0645 10.1409 14.0645 10.0146 13.5596L9.5 11.5L7.44043 10.9854C6.93545 10.8591 6.93545 10.1409 7.44043 10.0146L9.5 9.5L10.0146 7.44043Z" fill="black" fill-opacity="0.9"/>
</g>
</svg>
