<svg width="24" height="24" viewBox="0 0 24 24" fill="none" xmlns="http://www.w3.org/2000/svg">
<g id="icon.24.pause">
<path id="Icon" d="M8.5 4C9.60457 4 10.5 4.89543 10.5 6V18C10.5 19.0357 9.71278 19.887 8.7041 19.9893L8.5 20H6L5.7959 19.9893C4.78722 19.887 4 19.0357 4 18V6C4 4.89543 4.89543 4 6 4H8.5ZM18 4C19.1046 4 20 4.89543 20 6V18C20 19.0357 19.2128 19.887 18.2041 19.9893L18 20H15.5L15.2959 19.9893C14.2872 19.887 13.5 19.0357 13.5 18V6C13.5 4.89543 14.3954 4 15.5 4H18ZM6 5C5.44772 5 5 5.44772 5 6V18C5 18.5523 5.44772 19 6 19H8.5C9.05228 19 9.5 18.5523 9.5 18V6C9.5 5.44772 9.05228 5 8.5 5H6ZM15.5 5C14.9477 5 14.5 5.44772 14.5 6V18C14.5 18.5523 14.9477 19 15.5 19H18C18.5523 19 19 18.5523 19 18V6C19 5.44772 18.5523 5 18 5H15.5Z" fill="black" fill-opacity="0.9"/>
</g>
</svg>
