<svg width="24" height="24" viewBox="0 0 24 24" fill="none" xmlns="http://www.w3.org/2000/svg">
<g id="icon.24.action.time.jump.small">
<path id="Icon" d="M12.5 6C13.0523 6 13.5 6.44772 13.5 7V17C13.5 17.5177 13.1067 17.9438 12.6025 17.9951L12.5 18H11.5L11.3975 17.9951C10.927 17.9472 10.5528 17.573 10.5049 17.1025L10.5 17V7C10.5 6.44772 10.9477 6 11.5 6H12.5ZM11.5 17H12.5V7H11.5V17ZM7.40039 9.7002C7.70339 9.47304 8.10854 9.43611 8.44727 9.60547C8.78605 9.77486 9 10.1212 9 10.5V13.5C9 13.8788 8.78605 14.2251 8.44727 14.3945C8.10854 14.5639 7.70339 14.527 7.40039 14.2998L5.40039 12.7998C5.14858 12.611 5 12.3148 5 12C5 11.6852 5.14858 11.389 5.40039 11.2002L7.40039 9.7002ZM15.5527 9.60547C15.8915 9.43611 16.2966 9.47304 16.5996 9.7002L18.5996 11.2002C18.8514 11.389 19 11.6852 19 12C19 12.3148 18.8514 12.611 18.5996 12.7998L16.5996 14.2998C16.2966 14.527 15.8915 14.5639 15.5527 14.3945C15.214 14.2251 15 13.8788 15 13.5V10.5C15 10.1212 15.214 9.77486 15.5527 9.60547ZM6 12L8 13.5V10.5L6 12ZM16 13.5L18 12L16 10.5V13.5Z" fill="black" fill-opacity="0.9"/>
</g>
</svg>
