<svg width="24" height="24" viewBox="0 0 24 24" fill="none" xmlns="http://www.w3.org/2000/svg">
<g id="icon.24.ai.outline.small">
<path id="Icon" d="M17 6C18.1046 6 19 6.89543 19 8V14C19 15.0357 18.2128 15.887 17.2041 15.9893L17 16H15.3193L15.9814 18.3652C16.0558 18.6311 15.9006 18.9069 15.6348 18.9814C15.3689 19.0558 15.093 18.9006 15.0186 18.6348L14.2812 16H9.71875L8.98145 18.6348C8.90699 18.9006 8.63109 19.0558 8.36523 18.9814C8.0994 18.907 7.94415 18.6311 8.01855 18.3652L8.68066 16H7L6.7959 15.9893C5.85435 15.8938 5.1062 15.1457 5.01074 14.2041L5 14V8C5 6.89543 5.89543 6 7 6H17ZM7 7C6.44772 7 6 7.44772 6 8V14C6 14.5523 6.44772 15 7 15H17C17.5523 15 18 14.5523 18 14V8C18 7.44772 17.5523 7 17 7H7ZM15 12C15.2761 12 15.5 12.2239 15.5 12.5C15.5 12.7761 15.2761 13 15 13H12.5C12.2239 13 12 12.7761 12 12.5C12 12.2239 12.2239 12 12.5 12H15ZM8.51465 9.44043C8.64089 8.93545 9.35911 8.93545 9.48535 9.44043L9.7002 10.2998L10.5596 10.5146C11.0645 10.6409 11.0645 11.3591 10.5596 11.4854L9.7002 11.7002L9.48535 12.5596C9.35911 13.0645 8.64089 13.0645 8.51465 12.5596L8.2998 11.7002L7.44043 11.4854C6.93545 11.3591 6.93545 10.6409 7.44043 10.5146L8.2998 10.2998L8.51465 9.44043ZM15.502 9.01367C15.778 9.01493 16.0011 9.23963 16 9.51562C15.9987 9.79166 15.774 10.0148 15.498 10.0137L12.498 10C12.222 9.99874 11.9989 9.77404 12 9.49805C12.0013 9.22202 12.226 8.99892 12.502 9L15.502 9.01367Z" fill="black" fill-opacity="0.9"/>
</g>
</svg>
