<svg width="24" height="24" viewBox="0 0 24 24" fill="none" xmlns="http://www.w3.org/2000/svg">
<g id="icon.24.community">
<path id="Icon" d="M11.5 5C14.9216 5 17.7241 7.64383 17.9795 11H18V12H17.9785C17.7231 15.3561 14.9215 18 11.5 18C7.91015 18 5 15.0899 5 11.5C5 7.91015 7.91015 5 11.5 5ZM9.51074 12C9.57255 13.4608 9.89992 14.7451 10.3398 15.665C10.5853 16.1783 10.8476 16.5395 11.082 16.7588C11.2592 16.9245 11.3836 16.9771 11.4512 16.9932L11.5 17C11.5387 17 11.6811 16.9804 11.918 16.7588C12.1524 16.5395 12.4147 16.1783 12.6602 15.665C13.1001 14.7451 13.4275 13.4608 13.4893 12H9.51074ZM6.02344 12C6.22328 14.2172 7.73858 16.0532 9.7832 16.7246C9.09304 15.6334 8.58621 13.9353 8.51074 12H6.02344ZM14.4893 12C14.4138 13.9355 13.9061 15.6334 13.2158 16.7246C15.2609 16.0534 16.7767 14.2175 16.9766 12H14.4893ZM9.7832 6.27441C7.73843 6.94579 6.22329 8.78268 6.02344 11H8.51074C8.58622 9.0643 9.09281 7.3656 9.7832 6.27441ZM11.5 6C11.4613 6 11.3189 6.01964 11.082 6.24121C10.8476 6.46052 10.5853 6.82174 10.3398 7.33496C9.89992 8.25491 9.57255 9.53916 9.51074 11H13.4893C13.4275 9.53916 13.1001 8.25491 12.6602 7.33496C12.4147 6.82174 12.1524 6.46052 11.918 6.24121C11.6811 6.01964 11.5387 6 11.5 6ZM13.2158 6.27441C13.9064 7.36559 14.4138 9.06404 14.4893 11H16.9766C16.7767 8.78236 15.261 6.94555 13.2158 6.27441Z" fill="black" fill-opacity="0.9"/>
</g>
</svg>
