<svg width="24" height="24" viewBox="0 0 24 24" fill="none" xmlns="http://www.w3.org/2000/svg">
<g id="icon.24.interaction.delay">
<path id="Icon" d="M12 3C16.9706 3 21 7.02944 21 12C21 16.9706 16.9706 21 12 21C7.02944 21 3 16.9706 3 12C3 11.7239 3.22386 11.5 3.5 11.5C3.77614 11.5 4 11.7239 4 12C4 16.4183 7.58172 20 12 20C16.4183 20 20 16.4183 20 12C20 7.58172 16.4183 4 12 4C11.7239 4 11.5 3.77614 11.5 3.5C11.5 3.22386 11.7239 3 12 3ZM5.79297 5.79297C6.13372 5.45232 6.66925 5.40302 7.06641 5.67578L13.6094 10.1738C14.8821 11.0488 15.0498 12.8647 13.958 13.957C12.8659 15.0494 11.0501 14.8821 10.1748 13.6094L5.67578 7.06738C5.40273 6.67016 5.45214 6.13382 5.79297 5.79297ZM10.999 13.043L11.1025 13.1768C11.6162 13.7676 12.5114 13.8498 13.124 13.3623L13.251 13.25C13.9006 12.5998 13.8003 11.5189 13.043 10.998L6.5 6.5L10.999 13.043Z" fill="black" fill-opacity="0.9"/>
</g>
</svg>
