<svg width="24" height="24" viewBox="0 0 24 24" fill="none" xmlns="http://www.w3.org/2000/svg">
<g id="icon.24.resolve.filled">
<path id="Icon" d="M12 4.1C16.3629 4.10021 19.8994 7.63747 19.8994 12.0004C19.8992 16.3631 16.3627 19.8996 12 19.8998C7.63708 19.8998 4.09982 16.3633 4.09961 12.0004C4.09961 7.63734 7.63695 4.1 12 4.1ZM15.252 8.56875C15.0135 8.42963 14.7075 8.51001 14.5684 8.74844L11.4268 14.1322L9.38379 11.6801C9.20698 11.4682 8.89173 11.4399 8.67969 11.6166C8.46781 11.7934 8.43951 12.1087 8.61621 12.3207L11.1162 15.3207C11.2206 15.4455 11.3798 15.512 11.542 15.4984C11.7041 15.4847 11.8496 15.3928 11.9316 15.2523L15.4316 9.25234C15.5707 9.01401 15.49 8.70805 15.252 8.56875Z" fill="black" fill-opacity="0.9"/>
</g>
</svg>
