<svg width="24" height="24" viewBox="0 0 24 24" fill="none" xmlns="http://www.w3.org/2000/svg">
<g id="icon.24.file.figjam">
<path id="File Type Frame" d="M4 24H20C21.1046 24 22 23.1046 22 22V6.74264C22 5.94699 21.6839 5.18393 21.1213 4.62132L17.3787 0.87868C16.8161 0.316071 16.053 0 15.2574 0H4C2.89543 0 2 0.89543 2 2V22C2 23.1046 2.89543 24 4 24Z" fill="#0D99FF"/>
<path id="Intersect" d="M15.2578 0C16.0534 6.49018e-05 16.8164 0.316355 17.3789 0.878906L21.1211 4.62109C21.6836 5.1836 21.9999 5.9467 22 6.74219V7L21.9951 6.89746C21.9439 6.39325 21.5177 6 21 6H18C16.8956 5.99989 16.0001 5.10441 16 4V1C16 0.447715 15.5523 0 15 0H15.2578Z" fill="white" fill-opacity="0.4"/>
<g id="icon.16.figjam">
<path id="Icon" d="M6.79297 6.79297C7.02939 6.55655 7.36843 6.45397 7.69629 6.51953L10.1963 7.01953C10.3898 7.05827 10.5675 7.15342 10.707 7.29297L16.8535 13.4395C17.4393 14.0252 17.4393 14.9748 16.8535 15.5605L15.5605 16.8535C15.0114 17.4026 14.1429 17.4365 13.5537 16.9561L13.4395 16.8535L7.29297 10.707C7.15342 10.5675 7.05827 10.3898 7.01953 10.1963L6.51953 7.69629C6.45397 7.36843 6.55655 7.02939 6.79297 6.79297ZM9.35352 11.3535L14.1465 16.1465C14.3417 16.3417 14.6583 16.3417 14.8535 16.1465L16.1465 14.8535L16.2109 14.7754C16.3391 14.5813 16.3173 14.3173 16.1465 14.1465L11.3535 9.35352L9.35352 11.3535ZM8 10L8.64648 10.6465L10.6465 8.64648L10 8L7.5 7.5L8 10Z" fill="white"/>
</g>
</g>
</svg>
