<svg width="24" height="24" viewBox="0 0 24 24" fill="none" xmlns="http://www.w3.org/2000/svg">
<g id="icon.24.h2">
<path id="Icon" d="M13.5 6C13.7761 6 14 6.22386 14 6.5V17.5C14 17.7761 13.7761 18 13.5 18C13.2239 18 13 17.7761 13 17.5V12H7V17.5C7 17.7761 6.77614 18 6.5 18C6.22386 18 6 17.7761 6 17.5V6.5C6 6.22386 6.22386 6 6.5 6C6.77614 6 7 6.22386 7 6.5V11H13V6.5C13 6.22386 13.2239 6 13.5 6ZM17.9609 12C18.3487 12.0001 18.6897 12.0744 18.9834 12.2227C19.277 12.371 19.5051 12.574 19.667 12.832C19.8308 13.0902 19.9121 13.3854 19.9121 13.7168C19.9121 13.9384 19.871 14.1563 19.7881 14.3701C19.7052 14.5839 19.5595 14.821 19.3506 15.0811C19.1434 15.3412 18.8523 15.6564 18.4775 16.0264L17.4805 17.0635V17.1045H19.5518C19.7991 17.1045 19.9999 17.3045 20 17.5518C20 17.7992 19.7992 18 19.5518 18H16.582C16.2794 18 16.0343 17.7547 16.0342 17.4521C16.0342 17.3073 16.0912 17.1681 16.1934 17.0654L18.042 15.2109C18.2341 15.0125 18.3944 14.8358 18.5225 14.6816C18.6503 14.5277 18.7465 14.3787 18.8105 14.2344C18.8746 14.0899 18.9072 13.9353 18.9072 13.7715C18.9072 13.5847 18.8651 13.4249 18.7822 13.292C18.6994 13.1571 18.5854 13.0527 18.4404 12.9795C18.2955 12.9064 18.1307 12.8701 17.9463 12.8701C17.7561 12.8701 17.5894 12.9103 17.4463 12.9912C17.3033 13.0701 17.1924 13.1829 17.1133 13.3291C17.1067 13.3415 17.0997 13.3544 17.0938 13.3672C16.9773 13.6165 16.7742 13.8523 16.499 13.8525C16.2237 13.8525 15.9913 13.6262 16.0547 13.3584C16.0964 13.1828 16.1618 13.0208 16.251 12.873C16.4185 12.5957 16.6497 12.3807 16.9434 12.2285C17.239 12.0763 17.5786 12 17.9609 12Z" fill="black" fill-opacity="0.9"/>
</g>
</svg>
