<svg width="24" height="24" viewBox="0 0 24 24" fill="none" xmlns="http://www.w3.org/2000/svg">
<g id="icon.24.subscript">
<path id="Icon" d="M15.5938 12.6108C15.9357 12.6108 16.2354 12.6719 16.4912 12.7935C16.7493 12.915 16.9504 13.0819 17.0947 13.2944C17.2391 13.5047 17.3115 13.7433 17.3115 14.0093C17.3115 14.2194 17.2687 14.4145 17.1826 14.5942C17.099 14.7741 16.967 14.9589 16.7871 15.1489C16.6073 15.3364 16.3755 15.5481 16.0918 15.7837L15.165 16.5815C15.1599 16.586 15.1572 16.5933 15.1572 16.6001C15.1574 16.6129 15.1678 16.6235 15.1807 16.6235H17.0762C17.2733 16.6236 17.4334 16.7829 17.4336 16.98C17.4336 17.1772 17.2734 17.3374 17.0762 17.3374H14.3242C14.0834 17.3373 13.8877 17.1418 13.8877 16.9009C13.8878 16.7752 13.9425 16.6555 14.0371 16.5728L15.6777 15.1411C15.85 14.9892 15.9948 14.8539 16.1113 14.7349C16.2277 14.6159 16.3162 14.5005 16.377 14.3892C16.4377 14.2752 16.4678 14.1531 16.4678 14.0239C16.4677 13.8037 16.3821 13.63 16.21 13.5034C16.0403 13.3742 15.8298 13.3101 15.5791 13.3101C15.3131 13.3101 15.0986 13.3797 14.9365 13.519C14.8836 13.5646 14.8394 13.6151 14.8037 13.6704C14.677 13.8671 14.5035 14.0737 14.2695 14.0737C14.0357 14.0735 13.8371 13.8793 13.9023 13.6548C13.9756 13.4029 14.1211 13.1889 14.3369 13.0132C14.6661 12.745 15.085 12.6109 15.5938 12.6108ZM9.68262 8.21826C10.0317 8.21826 10.3437 8.43704 10.4629 8.76514L12.8359 15.2983C12.9598 15.6393 12.7075 16.0005 12.3447 16.0005C12.1226 16.0004 11.9249 15.8595 11.8516 15.6499L11.2285 13.8687H8.13477L7.51074 15.6499C7.43728 15.8594 7.23864 16.0005 7.0166 16.0005C6.65406 16.0002 6.40142 15.6391 6.52539 15.2983L8.90234 8.76416C9.02167 8.43633 9.33373 8.21828 9.68262 8.21826ZM9.68262 9.54053C9.66463 9.54059 9.6487 9.55196 9.64258 9.56885L8.45508 12.9565H10.9092L9.72363 9.56885C9.71755 9.55179 9.70074 9.54053 9.68262 9.54053Z" fill="black" fill-opacity="0.9"/>
</g>
</svg>
