<svg width="24" height="24" viewBox="0 0 24 24" fill="none" xmlns="http://www.w3.org/2000/svg">
<g id="icon.24.interaction.hover.small">
<path id="Icon" d="M12 11C13.8401 11 15.5286 11.2861 16.7754 11.7656C17.3971 12.0047 17.9345 12.302 18.3252 12.6572C18.716 13.0126 19 13.4655 19 14V16C19 16.5345 18.716 16.9874 18.3252 17.3428C17.9345 17.698 17.3971 17.9953 16.7754 18.2344C15.5286 18.7139 13.8401 19 12 19C10.1599 19 8.47141 18.7139 7.22461 18.2344C6.60291 17.9953 6.0655 17.698 5.6748 17.3428C5.28396 16.9874 5 16.5345 5 16V14C5 13.4655 5.28396 13.0126 5.6748 12.6572C6.0655 12.302 6.60291 12.0047 7.22461 11.7656C8.47141 11.2861 10.1599 11 12 11ZM18 15.6025C17.656 15.8455 17.2391 16.056 16.7754 16.2344C15.5286 16.7139 13.8401 17 12 17C10.1599 17 8.47141 16.7139 7.22461 16.2344C6.76092 16.056 6.34401 15.8455 6 15.6025V16C6 16.1558 6.08066 16.3607 6.34766 16.6035C6.61475 16.8463 7.02895 17.0876 7.58301 17.3008C8.68872 17.7261 10.2504 18 12 18C13.7496 18 15.3113 17.7261 16.417 17.3008C16.971 17.0876 17.3852 16.8463 17.6523 16.6035C17.9193 16.3607 18 16.1558 18 16V15.6025ZM12 12C10.2504 12 8.68872 12.2739 7.58301 12.6992C7.02895 12.9124 6.61475 13.1537 6.34766 13.3965C6.08066 13.6393 6 13.8442 6 14C6 14.1558 6.08066 14.3607 6.34766 14.6035C6.61475 14.8463 7.02895 15.0876 7.58301 15.3008C8.68872 15.7261 10.2504 16 12 16C13.7496 16 15.3113 15.7261 16.417 15.3008C16.971 15.0876 17.3852 14.8463 17.6523 14.6035C17.9193 14.3607 18 14.1558 18 14C18 13.8442 17.9193 13.6393 17.6523 13.3965C17.3852 13.1537 16.971 12.9124 16.417 12.6992C15.3113 12.2739 13.7496 12 12 12ZM12 5C13.3807 5 14.5 6.11929 14.5 7.5C14.5 8.88071 13.3807 10 12 10C10.6193 10 9.5 8.88071 9.5 7.5C9.5 6.11929 10.6193 5 12 5ZM12 6C11.1716 6 10.5 6.67157 10.5 7.5C10.5 8.32843 11.1716 9 12 9C12.8284 9 13.5 8.32843 13.5 7.5C13.5 6.67157 12.8284 6 12 6Z" fill="black" fill-opacity="0.9"/>
</g>
</svg>
