<svg width="24" height="24" viewBox="0 0 24 24" fill="none" xmlns="http://www.w3.org/2000/svg">
<g id="icon.24.fill.solid.small">
<rect id="Rectangle 3182" x="9" y="9" width="6" height="6" fill="black" fill-opacity="0.3"/>
<path id="Icon" d="M16.2041 6.01074C17.2128 6.113 18 6.96435 18 8V16L17.9893 16.2041C17.8938 17.1457 17.1457 17.8938 16.2041 17.9893L16 18H8C6.96435 18 6.113 17.2128 6.01074 16.2041L6 16V8C6 6.89543 6.89543 6 8 6H16L16.2041 6.01074ZM8 7C7.48232 7 7.05621 7.39333 7.00488 7.89746L7 8V16C7 16.5523 7.44772 17 8 17H16C16.5523 17 17 16.5523 17 16V8C17 7.48232 16.6067 7.05621 16.1025 7.00488L16 7H8ZM15.5 8C15.7761 8 16 8.22386 16 8.5V15.5C16 15.7761 15.7761 16 15.5 16H8.5L8.39941 15.9902C8.17145 15.9437 8 15.7417 8 15.5V8.5C8 8.25829 8.17145 8.05629 8.39941 8.00977L8.5 8H15.5ZM9 15H15V9H9V15Z" fill="black" fill-opacity="0.9"/>
</g>
</svg>
