<svg width="24" height="24" viewBox="0 0 24 24" fill="none" xmlns="http://www.w3.org/2000/svg">
<g id="icon.24.microphone">
<path id="Icon" d="M17.5 10.5C17.7761 10.5 18 10.7239 18 11V11.167C17.9998 14.2766 15.5664 16.8165 12.5 16.9893V20H15.5C15.7761 20 16 20.2239 16 20.5C16 20.7761 15.7761 21 15.5 21H8.5C8.22386 21 8 20.7761 8 20.5C8 20.2239 8.22386 20 8.5 20H11.5V16.9893C8.43358 16.8165 6.00017 14.2766 6 11.167V11C6 10.7239 6.22386 10.5 6.5 10.5C6.77614 10.5 7 10.7239 7 11V11.167C7.00018 13.8361 9.16389 15.9998 11.833 16H12.167C14.8361 15.9998 16.9998 13.8361 17 11.167V11C17 10.7239 17.2239 10.5 17.5 10.5ZM12 3C13.6569 3 15 4.34315 15 6V11C15 12.6569 13.6569 14 12 14L11.8457 13.9961C10.3117 13.9184 9.08163 12.6883 9.00391 11.1543L9 11V6C9 4.34315 10.3431 3 12 3ZM12 4C10.8954 4 10 4.89543 10 6V11C10 12.1046 10.8954 13 12 13C13.1046 13 14 12.1046 14 11V6C14 4.89543 13.1046 4 12 4Z" fill="black" fill-opacity="0.9"/>
</g>
</svg>
