<svg width="24" height="24" viewBox="0 0 24 24" fill="none" xmlns="http://www.w3.org/2000/svg">
<g id="icon.24.in.development.small">
<path id="Icon" d="M14.5 6C14.7218 6 14.9357 6.02149 15.1396 6.05957C15.5044 6.12767 15.8013 6.39268 15.9111 6.74707C16.0209 7.10143 15.9253 7.48758 15.6631 7.75L14.5 8.91309V9.5H15.0859L16.249 8.33594L16.3525 8.24512C16.6068 8.0527 16.941 7.99218 17.251 8.08789C17.6054 8.19735 17.8699 8.49388 17.9385 8.8584C17.9765 9.06044 18 9.27499 18 9.5L17.9951 9.67969C17.9215 11.1358 16.9581 12.3568 15.6377 12.8105L17.4141 14.5869C18.1947 15.368 18.1949 16.6341 17.4141 17.415C16.6331 18.1956 15.3669 18.1956 14.5859 17.415L11.998 14.8271L9.41406 17.4141C8.63301 18.1951 7.36698 18.1951 6.58594 17.4141C5.80491 16.633 5.8049 15.367 6.58594 14.5859L10.2314 10.9385L8.5 9.20703L7.85352 9.85352C7.73987 9.96716 7.57857 10.0189 7.41992 9.99316C7.2613 9.9674 7.1246 9.86737 7.05273 9.72363L6.05273 7.72363C5.9565 7.53114 5.99431 7.29866 6.14648 7.14648L7.14648 6.14648L7.20703 6.09473C7.35611 5.98689 7.55521 5.96853 7.72363 6.05273L9.72363 7.05273C9.86737 7.1246 9.9674 7.2613 9.99316 7.41992C10.0189 7.57857 9.96716 7.73987 9.85352 7.85352L9.20703 8.5L10.9385 10.2314L11.0557 10.1152C11.0294 9.96975 11.0113 9.82086 11.0039 9.66895L11 9.5C11 7.56702 12.567 6.00001 14.5 6ZM14.5 7C13.1193 7.00001 12 8.1193 12 9.5C12 9.82182 12.0631 10.1286 12.1738 10.4111L7.29297 15.293C6.90246 15.6835 6.90246 16.3165 7.29297 16.707C7.68349 17.0976 8.31651 17.0975 8.70703 16.707L13.5879 11.8252C13.7809 11.901 13.9856 11.952 14.1982 11.9785C14.2339 11.9829 14.2696 11.9872 14.3057 11.9902C14.3698 11.9954 14.4345 12 14.5 12C14.5648 12 14.6288 11.9951 14.6924 11.9902C14.7307 11.987 14.7688 11.9841 14.8066 11.9795C16.0426 11.8282 17 10.7768 17 9.5C17 9.3437 16.9839 9.19115 16.9561 9.04297L15.5 10.5H13.5V8.5L14.9561 7.04297C14.8082 7.01536 14.6559 7 14.5 7ZM12.7051 14.1201L15.293 16.708C15.6834 17.098 16.3166 17.098 16.707 16.708C17.0974 16.3176 17.0971 15.6845 16.707 15.2939L14.4082 12.9951C14.2287 12.9901 14.0533 12.9744 13.8828 12.9434L12.7051 14.1201ZM7.1084 7.59863L7.63672 8.65527L8.14648 8.14648L8.65527 7.63672L7.59863 7.1084L7.1084 7.59863Z" fill="black" fill-opacity="0.9"/>
</g>
</svg>
