<svg width="24" height="24" viewBox="0 0 24 24" fill="none" xmlns="http://www.w3.org/2000/svg">
<g id="icon.24.pencil.small">
<path id="Icon" d="M6.16406 5.01373L9.16406 5.51373C9.36964 5.548 9.55966 5.64566 9.70703 5.79303L18.3535 14.4395C18.9393 15.0253 18.9393 15.9748 18.3535 16.5606L16.5605 18.3536C16.0114 18.9027 15.1429 18.9366 14.5537 18.4561L14.4395 18.3536L5.79297 9.70709C5.68248 9.5966 5.59961 9.46243 5.55078 9.31549L5.51367 9.16412L5.01367 6.16412C4.96071 5.84567 5.06469 5.52131 5.29297 5.29303C5.52125 5.06475 5.84561 4.96077 6.16406 5.01373ZM13.6035 16.1036L15.1465 17.6465C15.3417 17.8418 15.6583 17.8418 15.8535 17.6465L17.6465 15.8536L17.7109 15.7755C17.8391 15.5814 17.8173 15.3174 17.6465 15.1465L16.1035 13.6036L13.6035 16.1036ZM6.5 9.00006L12.8965 15.3965L15.3965 12.8965L9 6.50006L6 6.00006L6.5 9.00006Z" fill="black" fill-opacity="0.9"/>
</g>
</svg>
