<svg width="24" height="24" viewBox="0 0 24 24" fill="none" xmlns="http://www.w3.org/2000/svg">
<g id="icon.24.interactive">
<path id="Icon" d="M12 9C13.1044 9.0002 14 9.89555 14 11V11.2695C14.2943 11.0991 14.6355 11.0001 15 11C15.8724 11.0002 16.6125 11.5597 16.8857 12.3389C17.2041 12.1249 17.5876 12.0001 18 12C19.1044 12.0002 20 12.8956 20 14V15C20 15.0222 19.9988 15.0443 19.998 15.0664C19.998 15.1338 19.9998 15.2015 20.001 15.2949C20.0075 15.8345 20.0256 16.7301 19.7158 17.6406C19.3902 18.5974 18.7211 19.528 17.4648 20.1865C15.9407 20.9853 14.3692 21.1235 13.0342 20.9131C11.7254 20.7067 10.5601 20.1508 9.85938 19.4502C9.0946 18.6854 7.92378 17.5426 7.09766 16.7305C6.30998 15.9561 6.29988 14.69 7.07422 13.9023C7.84858 13.1148 9.11471 13.1036 9.90234 13.8779L10 13.9736V11C10 9.89555 10.8956 9.0002 12 9ZM12 10C11.4479 10.0002 11 10.4478 11 11V15.0078C10.9457 15.4707 10.4148 15.6852 10.0566 15.4229L9.98828 15.3643L9.20117 14.5908C8.80749 14.2038 8.17433 14.2092 7.78711 14.6025L7.71875 14.6797C7.40193 15.0752 7.42966 15.6547 7.79883 16.0176C8.61982 16.8247 9.79867 17.9735 10.5674 18.7422C11.5717 19.7463 14.2085 20.6174 16.7539 19.4229L17 19.3008C18.7807 18.3673 18.9872 16.8569 19.002 15.7529L19.001 15.3066C19 15.2224 18.998 15.1417 18.998 15.0664C18.9995 15.0445 19 15.0223 19 15V14C19 13.4478 18.5521 13.0002 18 13C17.4479 13.0002 17 13.4478 17 14V14.4795C17 14.7622 16.7658 14.9889 16.4834 14.9795L16.3848 14.9668C16.1636 14.9145 16 14.7152 16 14.4795V13C16 12.4478 15.5521 12.0002 15 12C14.4479 12.0002 14 12.4478 14 13V14.375C14 14.6577 13.7659 14.8844 13.4834 14.875L13.3848 14.8623C13.1636 14.81 13 14.6107 13 14.375V11C13 10.4478 12.5521 10.0002 12 10ZM12 3C16.0292 3 19.3625 5.97818 19.9189 9.85352C19.9582 10.1269 19.7675 10.3807 19.4941 10.4199C19.221 10.4589 18.968 10.2692 18.9287 9.99609C18.4421 6.6059 15.5249 4 12 4C8.13401 4 5 7.13401 5 11C5 11.6342 5.0846 12.2479 5.24219 12.8311C5.31423 13.0976 5.15619 13.3723 4.88965 13.4443C4.62307 13.5164 4.34841 13.3584 4.27637 13.0918C4.09604 12.4245 4 11.7231 4 11C4 6.58172 7.58172 3 12 3ZM12 6C14.0119 6 15.7449 7.18864 16.5381 8.89941C16.654 9.14987 16.5453 9.44637 16.2949 9.5625C16.0444 9.67866 15.747 9.56986 15.6309 9.31934C14.9953 7.94886 13.608 7 12 7C9.79086 7 8 8.79086 8 11C8 11.2761 7.77614 11.5 7.5 11.5C7.22386 11.5 7 11.2761 7 11C7 8.23858 9.23858 6 12 6Z" fill="black" fill-opacity="0.9"/>
</g>
</svg>
