<svg width="24" height="24" viewBox="0 0 24 24" fill="none" xmlns="http://www.w3.org/2000/svg">
<g id="icon.24.collapse-layers.small">
<path id="Icon" d="M11.5 16C11.7761 16 12 16.2239 12 16.5C12 16.7761 11.7761 17 11.5 17H6.5C6.22386 17 6 16.7761 6 16.5C6 16.2239 6.22386 16 6.5 16H11.5ZM15.2246 14.082C15.4187 13.9539 15.6827 13.9756 15.8535 14.1465L17.8535 16.1465C18.0488 16.3417 18.0488 16.6583 17.8535 16.8535C17.6583 17.0488 17.3417 17.0488 17.1465 16.8535L15.5 15.207L13.8535 16.8535C13.6583 17.0488 13.3417 17.0488 13.1465 16.8535C12.9512 16.6583 12.9512 16.3417 13.1465 16.1465L15.1465 14.1465L15.2246 14.082ZM11.5 13C11.7761 13 12 13.2239 12 13.5C12 13.7761 11.7761 14 11.5 14H6.5C6.22386 14 6 13.7761 6 13.5C6 13.2239 6.22386 13 6.5 13H11.5ZM11.5 10C11.7761 10 12 10.2239 12 10.5C12 10.7761 11.7761 11 11.5 11H6.5C6.22386 11 6 10.7761 6 10.5C6 10.2239 6.22386 10 6.5 10H11.5ZM17.1465 7.14648C17.3417 6.95122 17.6583 6.95122 17.8535 7.14648C18.0488 7.34175 18.0488 7.65825 17.8535 7.85352L15.8535 9.85352C15.6827 10.0244 15.4187 10.0461 15.2246 9.91797L15.1465 9.85352L13.1465 7.85352C12.9512 7.65825 12.9512 7.34175 13.1465 7.14648C13.3417 6.95122 13.6583 6.95122 13.8535 7.14648L15.5 8.79297L17.1465 7.14648ZM11.5 7C11.7761 7 12 7.22386 12 7.5C12 7.77614 11.7761 8 11.5 8H6.5C6.22386 8 6 7.77614 6 7.5C6 7.22386 6.22386 7 6.5 7H11.5Z" fill="black" fill-opacity="0.9"/>
</g>
</svg>
