<svg width="24" height="24" viewBox="0 0 24 24" fill="none" xmlns="http://www.w3.org/2000/svg">
<g id="icon.24.layout-align-top">
<path id="Icon" d="M13 13.25C13 13.6642 13.3358 14 13.75 14H14.25C14.6642 14 15 13.6642 15 13.25V8.75C15 8.33579 14.6642 8 14.25 8H13.75C13.3358 8 13 8.33579 13 8.75V13.25ZM8 17.25C8 17.6642 8.33579 18 8.75 18H9.25C9.66421 18 10 17.6642 10 17.25V8.75C10 8.33579 9.66421 8 9.25 8H8.75C8.33579 8 8 8.33579 8 8.75L8 17.25Z" fill="black" fill-opacity="0.9"/>
<path id="Secondary" d="M17.5 6C17.7761 6 18 5.77614 18 5.5C18 5.22386 17.7761 5 17.5 5L5.5 5C5.22386 5 5 5.22386 5 5.5C5 5.77614 5.22386 6 5.5 6L17.5 6Z" fill="black" fill-opacity="0.3"/>
</g>
</svg>
