<svg width="24" height="24" viewBox="0 0 24 24" fill="none" xmlns="http://www.w3.org/2000/svg">
<g id="icon.24.replace.text.style">
<path id="Icon" d="M20 10C20.5523 10 21 10.4477 21 11V12C21 12.5523 20.5523 13 20 13H18V18C18 18.5523 17.5523 19 17 19H16C15.4477 19 15 18.5523 15 18V13H13C12.4477 13 12 12.5523 12 12V11C12 10.4477 12.4477 10 13 10H20ZM13 12H16V18H17V12H20V11H13V12ZM11.5 5C11.7761 5 12 5.22386 12 5.5V6.5C12 6.77614 11.7761 7 11.5 7C11.2239 7 11 6.77614 11 6.5V6H8V13H8.5C8.77614 13 9 13.2239 9 13.5C9 13.7761 8.77614 14 8.5 14H6.5C6.22386 14 6 13.7761 6 13.5C6 13.2239 6.22386 13 6.5 13H7V6H4V6.5C4 6.77614 3.77614 7 3.5 7C3.22386 7 3 6.77614 3 6.5V5.5C3 5.22386 3.22386 5 3.5 5H11.5Z" fill="black" fill-opacity="0.9"/>
</g>
</svg>
