<svg width="24" height="24" viewBox="0 0 24 24" fill="none" xmlns="http://www.w3.org/2000/svg">
<g id="icon.24.count-star">
<path id="Icon" d="M12 5.5C12.2761 5.5 12.5 5.72386 12.5 6V10.792L15.8887 7.4043C16.0839 7.20903 16.4004 7.20903 16.5957 7.4043C16.791 7.59956 16.791 7.91607 16.5957 8.11133L13.207 11.5H18C18.2761 11.5 18.5 11.7239 18.5 12C18.5 12.2761 18.2761 12.5 18 12.5H13.208L16.5967 15.8887C16.7919 16.0839 16.7919 16.4014 16.5967 16.5967C16.4014 16.7919 16.0839 16.7919 15.8887 16.5967L12.5 13.207V18C12.5 18.2761 12.2761 18.5 12 18.5C11.7239 18.5 11.5 18.2761 11.5 18V13.207L8.11133 16.5967C7.91606 16.7919 7.59857 16.7919 7.40332 16.5967C7.20807 16.4014 7.20809 16.0839 7.40332 15.8887L10.792 12.5H6C5.72386 12.5 5.5 12.2761 5.5 12C5.5 11.7239 5.72386 11.5 6 11.5H10.793L7.4043 8.11133C7.20904 7.91607 7.20905 7.59956 7.4043 7.4043C7.59956 7.20903 7.91607 7.20903 8.11133 7.4043L11.5 10.792V6C11.5 5.72386 11.7239 5.5 12 5.5Z" fill="black" fill-opacity="0.9"/>
</g>
</svg>
