<svg width="24" height="24" viewBox="0 0 24 24" fill="none" xmlns="http://www.w3.org/2000/svg">
<g id="icon.24.radius.top.right">
<path id="Icon" d="M11.5 8C12.1918 8 12.7407 8.00003 13.1826 8.03613C13.6304 8.07272 14.0127 8.14901 14.3623 8.32715C14.9265 8.61472 15.3853 9.07347 15.6729 9.6377C15.851 9.98732 15.9273 10.3696 15.9639 10.8174C16 11.2593 16 11.8082 16 12.5V15.5C16 15.7761 15.7761 16 15.5 16C15.2239 16 15 15.7761 15 15.5V12.5C15 11.7917 14.9998 11.2902 14.9678 10.8984C14.9362 10.5126 14.8765 10.2769 14.7822 10.0918C14.5905 9.71554 14.2845 9.40951 13.9082 9.21777C13.7231 9.12345 13.4874 9.06377 13.1016 9.03223C12.7098 9.00022 12.2083 9 11.5 9H8.5C8.22386 9 8 8.77614 8 8.5C8 8.22386 8.22386 8 8.5 8H11.5Z" fill="black" fill-opacity="0.9"/>
</g>
</svg>
