<svg width="24" height="24" viewBox="0 0 24 24" fill="none" xmlns="http://www.w3.org/2000/svg">
<g id="icon.24.scale">
<path id="Icon" d="M10.5 10C10.7761 10 11 10.2239 11 10.5C11 10.7761 10.7761 11 10.5 11H5.5C5.22386 11 5 11.2239 5 11.5V18.5C5 18.7761 5.22386 19 5.5 19H12.5C12.7761 19 13 18.7761 13 18.5V13.5C13 13.2239 13.2239 13 13.5 13C13.7761 13 14 13.2239 14 13.5V18.5C14 19.3284 13.3284 20 12.5 20H5.5C4.67157 20 4 19.3284 4 18.5V11.5C4 10.6716 4.67157 10 5.5 10H10.5ZM17.7559 4.0127C19.0164 4.14082 20 5.20566 20 6.5V17.5C20 18.8807 18.8807 20 17.5 20H15.5C15.2239 20 15 19.7761 15 19.5C15 19.2239 15.2239 19 15.5 19H17.5C18.3284 19 19 18.3284 19 17.5V6.5C19 5.72334 18.4097 5.08461 17.6533 5.00781L17.5 5H6.5C5.67157 5 5 5.67157 5 6.5V8.5C5 8.77614 4.77614 9 4.5 9C4.22386 9 4 8.77614 4 8.5V6.5C4 5.11929 5.11929 4 6.5 4H17.5L17.7559 4.0127ZM15.5 8C15.7761 8 16 8.22386 16 8.5V12.5C16 12.7761 15.7761 13 15.5 13C15.2239 13 15 12.7761 15 12.5V9.70703L8.85352 15.8535C8.65825 16.0488 8.34175 16.0488 8.14648 15.8535C7.95122 15.6583 7.95122 15.3417 8.14648 15.1465L14.293 9H11.5C11.2239 9 11 8.77614 11 8.5C11 8.22386 11.2239 8 11.5 8H15.5Z" fill="black" fill-opacity="0.9"/>
</g>
</svg>
