<svg width="24" height="24" viewBox="0 0 24 24" fill="none" xmlns="http://www.w3.org/2000/svg">
<g id="icon.24.unsaved.changes.small">
<path id="Icon" d="M11.7246 11.082C11.9187 10.9539 12.1827 10.9756 12.3535 11.1465L14.3535 13.1465C14.5488 13.3417 14.5488 13.6583 14.3535 13.8535C14.1583 14.0488 13.8417 14.0488 13.6465 13.8535L12.5 12.707V17.5C12.5 17.7761 12.2761 18 12 18C11.7239 18 11.5 17.7761 11.5 17.5V12.707L10.3535 13.8535C10.1583 14.0488 9.84175 14.0488 9.64648 13.8535C9.45122 13.6583 9.45122 13.3417 9.64648 13.1465L11.6465 11.1465L11.7246 11.082ZM12 6.5C14.1844 6.5 16.0042 8.05668 16.4131 10.1211C17.9032 10.5228 19 11.883 19 13.5C19 15.433 17.433 17 15.5 17H14C13.7239 17 13.5 16.7761 13.5 16.5C13.5 16.2239 13.7239 16 14 16H15.5C16.8807 16 18 14.8807 18 13.5C18 12.3467 17.2174 11.374 16.1523 11.0869L15.5527 10.9248L15.4326 10.3154C15.1147 8.70989 13.6975 7.5 12 7.5C10.58 7.5 9.35562 8.34583 8.80664 9.56543L8.61621 9.98828L8.16992 10.1162C6.91579 10.4763 6 11.6326 6 13C6 14.6569 7.34315 16 9 16H10C10.2761 16 10.5 16.2239 10.5 16.5C10.5 16.7761 10.2761 17 10 17H9C6.79086 17 5 15.2091 5 13C5 11.1744 6.22315 9.63496 7.89453 9.15527C8.59898 7.58994 10.1721 6.5 12 6.5Z" fill="black" fill-opacity="0.9"/>
</g>
</svg>
