<svg width="24" height="24" viewBox="0 0 24 24" fill="none" xmlns="http://www.w3.org/2000/svg">
<g id="icon.24.recent.small">
<path id="Icon" d="M12 5C15.866 5 19 8.13401 19 12C19 15.866 15.866 19 12 19C8.13401 19 5 15.866 5 12C5 8.13401 8.13401 5 12 5ZM12 6C8.68629 6 6 8.68629 6 12C6 15.3137 8.68629 18 12 18C15.3137 18 18 15.3137 18 12C18 8.68629 15.3137 6 12 6ZM12 8C12.2761 8 12.5 8.22386 12.5 8.5V11.793L14.3535 13.6465C14.5488 13.8417 14.5488 14.1583 14.3535 14.3535C14.1583 14.5488 13.8417 14.5488 13.6465 14.3535L11.6465 12.3535C11.5527 12.2597 11.5 12.1326 11.5 12V8.5C11.5 8.22386 11.7239 8 12 8Z" fill="black" fill-opacity="0.9"/>
</g>
</svg>
