<svg width="24" height="24" viewBox="0 0 24 24" fill="none" xmlns="http://www.w3.org/2000/svg">
<g id="icon.24.blendmode.small">
<path id="Icon" d="M11.251 5.99939C11.6246 5.47876 12.3754 5.47876 12.749 5.99939C13.907 7.61291 16 10.8302 16 13.0004C15.9998 15.2093 14.209 17.0004 12 17.0004C9.79098 17.0004 8.00019 15.2093 8 13.0004C8 10.8302 10.093 7.61291 11.251 5.99939ZM12 6.67322C11.4405 7.45844 10.6908 8.58121 10.0771 9.75427C9.41971 11.0112 9 12.174 9 13.0004C9.00019 14.6571 10.3433 16.0004 12 16.0004C13.6567 16.0004 14.9998 14.6571 15 13.0004C15 12.174 14.5803 11.0112 13.9229 9.75427C13.3092 8.58121 12.5595 7.45844 12 6.67322Z" fill="black" fill-opacity="0.9"/>
</g>
</svg>
