<svg width="24" height="24" viewBox="0 0 24 24" fill="none" xmlns="http://www.w3.org/2000/svg">
<g id="icon.24.file.design.library">
<path id="File Type Frame" d="M4 24H20C21.1046 24 22 23.1046 22 22V6.74264C22 5.94699 21.6839 5.18393 21.1213 4.62132L17.3787 0.87868C16.8161 0.316071 16.053 0 15.2574 0H4C2.89543 0 2 0.89543 2 2V22C2 23.1046 2.89543 24 4 24Z" fill="#0D99FF"/>
<path id="Intersect" d="M15.2578 0C16.0534 6.49018e-05 16.8164 0.316355 17.3789 0.878906L21.1211 4.62109C21.6836 5.1836 21.9999 5.9467 22 6.74219V7L21.9951 6.89746C21.9439 6.39325 21.5177 6 21 6H18C16.8956 5.99989 16.0001 5.10441 16 4V1C16 0.447715 15.5523 0 15 0H15.2578Z" fill="white" fill-opacity="0.4"/>
<g id="icon.16.library">
<path id="Icon" d="M12 8.33313C13.3254 7.21986 15.2739 7.24115 16.5752 8.39758L16.832 8.6261C16.9387 8.72098 17 8.85735 17 9.00012V16.0001C16.9999 16.1969 16.8845 16.3755 16.7051 16.4562C16.5256 16.5367 16.3151 16.5047 16.168 16.3741L15.9111 16.1456C14.9639 15.3037 13.5361 15.3037 12.5889 16.1456L12.332 16.3741C12.1427 16.5421 11.8573 16.5421 11.668 16.3741L11.4111 16.1456C10.4639 15.3037 9.03608 15.3037 8.08887 16.1456L7.83203 16.3741C7.68491 16.5047 7.47438 16.5367 7.29492 16.4562C7.1155 16.3755 7.00008 16.1969 7 16.0001V9.00012C7 8.85735 7.06128 8.72098 7.16797 8.6261L7.4248 8.39758C8.72607 7.24115 10.6746 7.21986 12 8.33313ZM11.4111 9.14563C10.4639 8.30366 9.03608 8.30366 8.08887 9.14563L8 9.22375V14.9845C9.08073 14.3593 10.4193 14.3593 11.5 14.9845V9.22375L11.4111 9.14563ZM15.9111 9.14563C14.9639 8.30366 13.5361 8.30366 12.5889 9.14563L12.5 9.22375V14.9845C13.5807 14.3593 14.9193 14.3593 16 14.9845V9.22375L15.9111 9.14563Z" fill="white"/>
</g>
</g>
</svg>
