<svg width="24" height="24" viewBox="0 0 24 24" fill="none" xmlns="http://www.w3.org/2000/svg">
<g id="icon.24.flip.horizontal.small">
<path id="Icon" d="M12 6C12.2761 6 12.5 6.22386 12.5 6.5V17.5C12.5 17.7761 12.2761 18 12 18C11.7239 18 11.5 17.7761 11.5 17.5V6.5C11.5 6.22386 11.7239 6 12 6ZM6 9.10352C6.00003 8.47698 6.71042 8.14366 7.18848 8.49414L7.28027 8.57324L10 11.293C10.3905 11.6835 10.3905 12.3165 10 12.707L7.28027 15.4268C6.8078 15.8992 6.00003 15.5646 6 14.8965V9.10352ZM16.8115 8.49414C17.2896 8.14366 18 8.47698 18 9.10352V14.8965C18 15.5646 17.1922 15.8992 16.7197 15.4268L14 12.707C13.6095 12.3165 13.6095 11.6835 14 11.293L16.7197 8.57324L16.8115 8.49414ZM7 14.293L9.29297 12L7 9.70703V14.293ZM14.707 12L17 14.293V9.70703L14.707 12Z" fill="black" fill-opacity="0.9"/>
</g>
</svg>
