<svg width="24" height="24" viewBox="0 0 24 24" fill="none" xmlns="http://www.w3.org/2000/svg">
<g id="icon.24.crop">
<path id="Icon" d="M7.5 3C7.77614 3 8 3.22386 8 3.5V7H16.5C16.7761 7 17 7.22386 17 7.5V16H20.5C20.7761 16 21 16.2239 21 16.5C21 16.7761 20.7761 17 20.5 17H17V20.5C17 20.7761 16.7761 21 16.5 21C16.2239 21 16 20.7761 16 20.5V17H7.5C7.22386 17 7 16.7761 7 16.5V8H3.5C3.22386 8 3 7.77614 3 7.5C3 7.22386 3.22386 7 3.5 7H7V3.5C7 3.22386 7.22386 3 7.5 3ZM8 16H16V8H8V16Z" fill="black" fill-opacity="0.9"/>
</g>
</svg>
