<svg width="24" height="24" viewBox="0 0 24 24" fill="none" xmlns="http://www.w3.org/2000/svg">
<g id="icon.24.al.height-fill">
<path id="Icon" d="M11.5 6C11.6326 6 11.7597 6.05272 11.8535 6.14648L14.8535 9.14648C15.0488 9.34175 15.0488 9.65825 14.8535 9.85352C14.6583 10.0488 14.3417 10.0488 14.1465 9.85352L12 7.70703V16.293L14.1465 14.1465C14.3417 13.9512 14.6583 13.9512 14.8535 14.1465C15.0488 14.3417 15.0488 14.6583 14.8535 14.8535L11.8535 17.8535C11.6583 18.0488 11.3417 18.0488 11.1465 17.8535L8.14648 14.8535C7.95123 14.6583 7.95123 14.3417 8.14648 14.1465C8.34175 13.9512 8.65825 13.9512 8.85352 14.1465L11 16.293V7.70703L8.85352 9.85352C8.65825 10.0488 8.34175 10.0488 8.14648 9.85352C7.95122 9.65825 7.95122 9.34175 8.14648 9.14648L11.1465 6.14648C11.2403 6.05272 11.3674 6 11.5 6Z" fill="black" fill-opacity="0.9"/>
</g>
</svg>
