<svg width="24" height="24" viewBox="0 0 24 24" fill="none" xmlns="http://www.w3.org/2000/svg">
<g id="icon.24.border-bottom.small">
<path id="Icon" d="M17 15C17.5523 15 18 15.4477 18 16V17L17.9951 17.1025C17.9438 17.6067 17.5177 18 17 18H7C6.44772 18 6 17.5523 6 17V16C6 15.4477 6.44772 15 7 15H17ZM7 17H17V16H7V17ZM7.5 12.5C7.77614 12.5 8 12.7239 8 13V14C8 14.2761 7.77614 14.5 7.5 14.5C7.22386 14.5 7 14.2761 7 14V13C7 12.7239 7.22386 12.5 7.5 12.5ZM16.5 12.5C16.7761 12.5 17 12.7239 17 13V14C17 14.2761 16.7761 14.5 16.5 14.5C16.2239 14.5 16 14.2761 16 14V13C16 12.7239 16.2239 12.5 16.5 12.5ZM7.5 9.5C7.77614 9.5 8 9.72386 8 10V11C8 11.2761 7.77614 11.5 7.5 11.5C7.22386 11.5 7 11.2761 7 11V10C7 9.72386 7.22386 9.5 7.5 9.5ZM16.5 9.5C16.7761 9.5 17 9.72386 17 10V11C17 11.2761 16.7761 11.5 16.5 11.5C16.2239 11.5 16 11.2761 16 11V10C16 9.72386 16.2239 9.5 16.5 9.5ZM8 7C8.27614 7 8.5 7.22386 8.5 7.5C8.5 7.77614 8.27614 8 8 8C8 8.27614 7.77614 8.5 7.5 8.5C7.22386 8.5 7 8.27614 7 8C7 7.44772 7.44772 7 8 7ZM16 7C16.5523 7 17 7.44772 17 8C17 8.27614 16.7761 8.5 16.5 8.5C16.2239 8.5 16 8.27614 16 8C15.7239 8 15.5 7.77614 15.5 7.5C15.5 7.22386 15.7239 7 16 7ZM11 7C11.2761 7 11.5 7.22386 11.5 7.5C11.5 7.77614 11.2761 8 11 8H10C9.72386 8 9.5 7.77614 9.5 7.5C9.5 7.22386 9.72386 7 10 7H11ZM14 7C14.2761 7 14.5 7.22386 14.5 7.5C14.5 7.77614 14.2761 8 14 8H13C12.7239 8 12.5 7.77614 12.5 7.5C12.5 7.22386 12.7239 7 13 7H14Z" fill="black" fill-opacity="0.9"/>
</g>
</svg>
