<svg width="24" height="24" viewBox="0 0 24 24" fill="none" xmlns="http://www.w3.org/2000/svg">
<g id="icon.24.vector.paint.small">
<path id="Icon" d="M17.2422 15.1983C17.393 15.0709 17.606 15.0685 17.7588 15.1935C18.1882 15.5457 18.999 16.3618 18.999 17.5001C18.999 18.3285 18.3274 19.0001 17.499 19.0001C16.6708 18.9998 15.9991 18.3283 15.999 17.5001C15.999 16.3949 16.8135 15.5606 17.2422 15.1983ZM8.14551 5.14658C8.34071 4.95137 8.65726 4.95149 8.85254 5.14658L10.3955 6.68954L11.792 5.29306L11.8682 5.2247C12.2609 4.9044 12.8399 4.92711 13.2061 5.29306L18.7061 10.7931C19.0966 11.1836 19.0966 11.8166 18.7061 12.2071L12.7666 18.1466C11.7903 19.1225 10.2076 19.1226 9.23145 18.1466L5.85254 14.7677C4.87665 13.7915 4.87671 12.2088 5.85254 11.2325L9.68848 7.39658L8.14551 5.85361C7.95051 5.65842 7.95057 5.3418 8.14551 5.14658ZM17.5068 16.3429C17.2337 16.6626 16.999 17.0677 16.999 17.5001C16.9991 17.776 17.2231 17.9999 17.499 18.0001C17.7751 18.0001 17.999 17.7762 17.999 17.5001C17.999 17.0506 17.7709 16.6514 17.5068 16.3429ZM11.1025 7.39658L13.2402 9.53427C13.3228 9.51216 13.4095 9.50013 13.499 9.50009C14.0513 9.50009 14.499 9.94781 14.499 10.5001C14.499 11.0523 14.0513 11.5001 13.499 11.5001C12.947 11.4999 12.4991 11.0522 12.499 10.5001C12.499 10.4106 12.5112 10.3238 12.5332 10.2413L10.3955 8.10361L6.55957 11.9395L6.45703 12.0538C5.97692 12.6429 6.01079 13.5116 6.55957 14.0606L9.93848 17.4395C10.4875 17.9885 11.3562 18.0222 11.9453 17.5421L12.0596 17.4395L17.999 11.5001L12.499 6.00009L11.1025 7.39658Z" fill="black" fill-opacity="0.9"/>
</g>
</svg>
