<svg width="24" height="24" viewBox="0 0 24 24" fill="none" xmlns="http://www.w3.org/2000/svg">
<g id="icon.24.return">
<path id="Icon" d="M9.64648 5.64646C9.84175 5.4512 10.1583 5.4512 10.3535 5.64646C10.5488 5.84172 10.5488 6.15823 10.3535 6.35349L7.70703 8.99998H11.5C15.0761 8.99998 18 11.9238 18 15.5V17.5C18 17.7761 17.7761 18 17.5 18C17.2239 18 17 17.7761 17 17.5V15.5C17 12.4761 14.5239 9.99998 11.5 9.99998H7.70703L10.3535 12.6465C10.5488 12.8417 10.5488 13.1582 10.3535 13.3535C10.1583 13.5488 9.84175 13.5488 9.64648 13.3535L6.14648 9.85349C5.95122 9.65823 5.95122 9.34172 6.14648 9.14646L9.64648 5.64646Z" fill="black" fill-opacity="0.9"/>
</g>
</svg>
