<svg width="24" height="24" viewBox="0 0 24 24" fill="none" xmlns="http://www.w3.org/2000/svg">
<g id="icon.24.interaction.drag.small">
<path id="Icon" d="M11.293 11.293C11.5703 11.0157 11.9844 10.9258 12.3516 11.0635L18.3516 13.3135C18.7612 13.4672 19.0228 13.8698 18.998 14.3066C18.9732 14.7437 18.6669 15.1136 18.2422 15.2197L15.8242 15.8242L15.2197 18.2422C15.1136 18.6669 14.7437 18.9732 14.3066 18.998C13.8698 19.0228 13.4672 18.7612 13.3135 18.3516L11.0635 12.3516C10.9258 11.9844 11.0157 11.5703 11.293 11.293ZM9.14648 14.1465C9.34175 13.9512 9.65825 13.9512 9.85352 14.1465C10.0488 14.3417 10.0488 14.6583 9.85352 14.8535L7.70703 17H9.5C9.77614 17 10 17.2239 10 17.5C10 17.7761 9.77614 18 9.5 18H6.5C6.22386 18 6 17.7761 6 17.5V14.5C6 14.2239 6.22386 14 6.5 14C6.77614 14 7 14.2239 7 14.5V16.293L9.14648 14.1465ZM14.25 18L15 15L18 14.25L12 12L14.25 18ZM9.5 6C9.77614 6 10 6.22386 10 6.5C10 6.77614 9.77614 7 9.5 7H7.70703L9.85352 9.14648C10.0488 9.34175 10.0488 9.65825 9.85352 9.85352C9.65825 10.0488 9.34175 10.0488 9.14648 9.85352L7 7.70703V9.5C7 9.77614 6.77614 10 6.5 10C6.22386 10 6 9.77614 6 9.5V6.5C6 6.22386 6.22386 6 6.5 6H9.5ZM17.5 6C17.7761 6 18 6.22386 18 6.5V9.5C18 9.77614 17.7761 10 17.5 10C17.2239 10 17 9.77614 17 9.5V7.70703L14.8535 9.85352C14.6583 10.0488 14.3417 10.0488 14.1465 9.85352C13.9512 9.65825 13.9512 9.34175 14.1465 9.14648L16.293 7H14.5C14.2239 7 14 6.77614 14 6.5C14 6.22386 14.2239 6 14.5 6H17.5Z" fill="black" fill-opacity="0.9"/>
</g>
</svg>
