<svg width="24" height="24" viewBox="0 0 24 24" fill="none" xmlns="http://www.w3.org/2000/svg">
<g id="icon.24.resize-to-fit.small">
<path id="Icon" d="M9.5 14C9.77614 14 10 14.2239 10 14.5V17.5C10 17.7761 9.77614 18 9.5 18C9.22386 18 9 17.7761 9 17.5V15.707L6.85352 17.8535C6.65825 18.0488 6.34175 18.0488 6.14648 17.8535C5.95122 17.6583 5.95122 17.3417 6.14648 17.1465L8.29297 15H6.5C6.22386 15 6 14.7761 6 14.5C6 14.2239 6.22386 14 6.5 14H9.5ZM17.5 14C17.7761 14 18 14.2239 18 14.5C18 14.7761 17.7761 15 17.5 15H15.707L17.8535 17.1465C18.0488 17.3417 18.0488 17.6583 17.8535 17.8535C17.6583 18.0488 17.3417 18.0488 17.1465 17.8535L15 15.707V17.5C15 17.7761 14.7761 18 14.5 18C14.2239 18 14 17.7761 14 17.5V14.5C14 14.2239 14.2239 14 14.5 14H17.5ZM9.5 6C9.77614 6 10 6.22386 10 6.5V9.5C10 9.77614 9.77614 10 9.5 10H6.5C6.22386 10 6 9.77614 6 9.5C6 9.22386 6.22386 9 6.5 9H8.29297L6.14648 6.85352C5.95122 6.65825 5.95122 6.34175 6.14648 6.14648C6.34175 5.95122 6.65825 5.95122 6.85352 6.14648L9 8.29297V6.5C9 6.22386 9.22386 6 9.5 6ZM17.1465 6.14648C17.3417 5.95122 17.6583 5.95122 17.8535 6.14648C18.0488 6.34175 18.0488 6.65825 17.8535 6.85352L15.707 9H17.5C17.7761 9 18 9.22386 18 9.5C18 9.77614 17.7761 10 17.5 10H14.5C14.2239 10 14 9.77614 14 9.5V6.5C14 6.22386 14.2239 6 14.5 6C14.7761 6 15 6.22386 15 6.5V8.29297L17.1465 6.14648Z" fill="black" fill-opacity="0.9"/>
</g>
</svg>
