<svg width="24" height="24" viewBox="0 0 24 24" fill="none" xmlns="http://www.w3.org/2000/svg">
<g id="icon.24.qwand">
<path id="Icon" d="M17.499 16C17.7752 16 17.999 16.2239 17.999 16.5V18H19.499C19.7752 18 19.999 18.2239 19.999 18.5C19.999 18.7761 19.7752 19 19.499 19H17.999V20.5C17.999 20.7761 17.7752 21 17.499 21C17.2229 20.9999 16.999 20.7761 16.999 20.5V19H15.499C15.2229 18.9999 14.999 18.7761 14.999 18.5C14.999 18.2239 15.2229 18.0001 15.499 18H16.999V16.5C16.999 16.2239 17.2229 16.0001 17.499 16ZM8.87988 5.10547C9.4453 3.61033 11.5966 3.61043 12.1621 5.10547L12.2129 5.26074L13.3291 9.16797L17.2383 10.2852C18.9401 10.7715 18.9401 13.1836 17.2383 13.6699L13.3291 14.7861L12.2129 18.6943C11.7266 20.3963 9.31539 20.3963 8.8291 18.6943L7.71289 14.7891L3.79688 13.6855C2.0919 13.2052 2.08419 10.7913 3.78613 10.3008L7.71191 9.16895L8.8291 5.26074L8.87988 5.10547ZM11.252 5.53516C11.0418 4.80053 10.0001 4.80047 9.79004 5.53516L8.52148 9.97754L4.06348 11.2617C3.32849 11.4735 3.33127 12.5161 4.06738 12.7236L8.52148 13.9775L9.79004 18.4199C9.98692 19.109 10.915 19.1519 11.2031 18.5488L11.252 18.4199L12.5215 13.9775L16.9639 12.708C17.6523 12.5109 17.6952 11.5842 17.0928 11.2959L16.9639 11.2471L12.5215 9.97754L11.252 5.53516ZM17.499 3C18.8797 3 19.999 4.11929 19.999 5.5C19.999 6.88071 18.8797 8 17.499 8C16.1184 7.99993 14.999 6.88067 14.999 5.5C14.999 4.11933 16.1184 3.00007 17.499 3ZM17.499 4C16.6707 4.00007 15.999 4.67161 15.999 5.5C15.999 6.32839 16.6707 6.99993 17.499 7C18.3275 7 18.999 6.32843 18.999 5.5C18.999 4.67157 18.3275 4 17.499 4Z" fill="black" fill-opacity="0.9"/>
</g>
</svg>
