<svg width="24" height="24" viewBox="0 0 24 24" fill="none" xmlns="http://www.w3.org/2000/svg">
<g id="icon.24.al.height-min">
<path id="Icon" d="M11.2246 14.082C11.4187 13.9539 11.6827 13.9756 11.8535 14.1465L13.8535 16.1465C14.0488 16.3417 14.0488 16.6583 13.8535 16.8535C13.6583 17.0488 13.3417 17.0488 13.1465 16.8535L12 15.707V19.5C12 19.7761 11.7761 20 11.5 20C11.2239 20 11 19.7761 11 19.5V15.707L9.85352 16.8535C9.65825 17.0488 9.34175 17.0488 9.14648 16.8535C8.95122 16.6583 8.95122 16.3417 9.14648 16.1465L11.1465 14.1465L11.2246 14.082ZM17.5 12C17.7761 12 18 12.2239 18 12.5C18 12.7761 17.7761 13 17.5 13H5.5C5.22386 13 5 12.7761 5 12.5C5 12.2239 5.22386 12 5.5 12H17.5ZM11.5 5C11.7761 5 12 5.22386 12 5.5V9.29297L13.1465 8.14648C13.3417 7.95122 13.6583 7.95122 13.8535 8.14648C14.0488 8.34175 14.0488 8.65825 13.8535 8.85352L11.8535 10.8535C11.6827 11.0244 11.4187 11.0461 11.2246 10.918L11.1465 10.8535L9.14648 8.85352C8.95122 8.65825 8.95122 8.34175 9.14648 8.14648C9.34175 7.95122 9.65825 7.95122 9.85352 8.14648L11 9.29297V5.5C11 5.22386 11.2239 5 11.5 5Z" fill="black" fill-opacity="0.9"/>
</g>
</svg>
