<svg width="24" height="24" viewBox="0 0 24 24" fill="none" xmlns="http://www.w3.org/2000/svg">
<g id="icon.24.filter.filled">
<path id="Icon" d="M12 4.1C16.3629 4.10021 19.8994 7.63747 19.8994 12.0004C19.8992 16.3631 16.3627 19.8996 12 19.8998C7.63708 19.8998 4.09982 16.3633 4.09961 12.0004C4.09961 7.63734 7.63695 4.1 12 4.1ZM10.5 15.0004C10.2239 15.0004 10 15.2242 10 15.5004C10.0002 15.7764 10.224 16.0004 10.5 16.0004H13.5C13.7758 16.0002 13.9998 15.7762 14 15.5004C14 15.2244 13.776 15.0006 13.5 15.0004H10.5ZM9.5 12.0004C9.22386 12.0004 9 12.2242 9 12.5004C9.00021 12.7764 9.22399 13.0004 9.5 13.0004H14.5C14.7758 13.0002 14.9998 12.7762 15 12.5004C15 12.2244 14.776 12.0006 14.5 12.0004H9.5ZM8.5 9.00039C8.22386 9.00039 8 9.22425 8 9.50039C8.00021 9.77635 8.22399 10.0004 8.5 10.0004H15.5C15.7758 10.0002 15.9998 9.77622 16 9.50039C16 9.22438 15.776 9.0006 15.5 9.00039H8.5Z" fill="black" fill-opacity="0.9"/>
</g>
</svg>
