<svg width="24" height="24" viewBox="0 0 24 24" fill="none" xmlns="http://www.w3.org/2000/svg">
<g id="icon.24.loading.small">
<path id="Icon" d="M12.001 5.50005C12.001 5.22391 12.2251 4.99819 12.5006 5.0179C13.709 5.10439 14.8775 5.50349 15.8896 6.17973C17.0407 6.94889 17.938 8.0423 18.4678 9.32133C18.9975 10.6003 19.1362 12.0075 18.8662 13.3653C18.5961 14.7231 17.9301 15.9713 16.9512 16.9502C15.9722 17.9292 14.7241 18.5952 13.3662 18.8653C12.0085 19.1353 10.6012 18.9966 9.32227 18.4668C8.04323 17.937 6.94982 17.0398 6.18066 15.8887C5.50442 14.8766 5.10533 13.7081 5.01883 12.4996C4.99912 12.2242 5.22484 12 5.50098 12C5.77712 12 5.99881 12.2243 6.02179 12.4995C6.10617 13.5099 6.44549 14.4855 7.01172 15.3331C7.67101 16.3197 8.60874 17.0889 9.70508 17.543C10.8014 17.9971 12.008 18.1163 13.1719 17.8848C14.3356 17.6533 15.4041 17.0813 16.2432 16.2422C17.0822 15.4032 17.6542 14.3347 17.8857 13.1709C18.1172 12.0071 17.998 10.8005 17.5439 9.70415C17.0898 8.60781 16.3207 7.67007 15.334 7.01079C14.4864 6.44456 13.5108 6.10524 12.5004 6.02086C12.2252 5.99788 12.001 5.77619 12.001 5.50005Z" fill="black" fill-opacity="0.9"/>
</g>
</svg>
