<svg width="24" height="24" viewBox="0 0 24 24" fill="none" xmlns="http://www.w3.org/2000/svg">
<g id="icon.24.layout-align-top-group">
<path id="Icon" d="M9.25 8C9.66421 8 10 8.33579 10 8.75V15.25C10 15.6642 9.66421 16 9.25 16H8.75C8.33579 16 8 15.6642 8 15.25V8.75C8 8.33579 8.33579 8 8.75 8H9.25ZM14.25 8C14.6642 8 15 8.33579 15 8.75V11.25C15 11.6642 14.6642 12 14.25 12H13.75C13.3358 12 13 11.6642 13 11.25V8.75C13 8.33579 13.3358 8 13.75 8H14.25ZM17.5 5C17.7761 5 18 5.22386 18 5.5C18 5.77614 17.7761 6 17.5 6H5.5C5.22386 6 5 5.77614 5 5.5C5 5.22386 5.22386 5 5.5 5H17.5Z" fill="black" fill-opacity="0.9"/>
<path id="Secondary" d="M5.5 8.5L5.5 16.75C5.5 17.1642 5.83579 17.5 6.25 17.5H16.75C17.1642 17.5 17.5 17.1642 17.5 16.75L17.5 8.5" stroke="black" stroke-opacity="0.3" stroke-linecap="round"/>
</g>
</svg>
