<svg width="24" height="24" viewBox="0 0 24 24" fill="none" xmlns="http://www.w3.org/2000/svg">
<g id="icon.24.moon.small">
<path id="Icon" d="M9.19238 6.69807C9.78696 6.3829 10.322 7.10859 10.1553 7.76057L10.0879 8.06135C10.03 8.36523 10 8.67906 10 8.99982C10.0001 11.7612 12.2386 13.9998 15 13.9998C15.3212 13.9998 15.6352 13.969 15.9395 13.911L16.2402 13.8446C16.8919 13.6777 17.617 14.2111 17.3027 14.8055L17.1025 15.1551C16.0456 16.8625 14.1561 17.9998 12 17.9998C8.68633 17.9998 6.00007 15.3135 6 11.9998C6.00005 9.70066 7.29354 7.7048 9.19238 6.69807ZM9.0957 7.93049C7.91593 8.77307 7.12023 10.1142 7.0127 11.6444L7 11.9998C7.00007 14.7612 9.23862 16.9998 12 16.9998C13.6777 16.9998 15.1623 16.1733 16.0693 14.9022C15.7218 14.965 15.3646 14.9998 15 14.9998C11.6863 14.9998 9.00007 12.3135 9 8.99982C9.00002 8.63547 9.03299 8.27796 9.0957 7.93049ZM15.5 6.99982C15.7761 6.99982 15.9999 7.22379 16 7.49982V7.99982H16.5C16.7761 7.99982 16.9999 8.22379 17 8.49982C17 8.77597 16.7761 8.99982 16.5 8.99982H16V9.49982C16 9.77597 15.7761 9.99982 15.5 9.99982C15.2239 9.99982 15 9.77597 15 9.49982V8.99982H14.5C14.2239 8.99982 14 8.77597 14 8.49982C14.0001 8.22379 14.2239 7.99982 14.5 7.99982H15V7.49982C15.0001 7.22379 15.2239 6.99982 15.5 6.99982Z" fill="black" fill-opacity="0.9"/>
</g>
</svg>
