<svg width="24" height="24" viewBox="0 0 24 24" fill="none" xmlns="http://www.w3.org/2000/svg">
<g id="icon.24.video.small">
<path id="Icon" d="M16.2041 6.01074C17.2128 6.113 18 6.96435 18 8V16L17.9893 16.2041C17.8938 17.1457 17.1457 17.8938 16.2041 17.9893L16 18H8C6.96435 18 6.113 17.2128 6.01074 16.2041L6 16V8C6 6.89543 6.89543 6 8 6H16L16.2041 6.01074ZM8 7C7.48232 7 7.05621 7.39333 7.00488 7.89746L7 8V16C7 16.5523 7.44772 17 8 17H16C16.5523 17 17 16.5523 17 16V8C17 7.48232 16.6067 7.05621 16.1025 7.00488L16 7H8ZM9.125 9.83496C9.125 9.06516 9.95833 8.58385 10.625 8.96875L14.375 11.1338C15.0415 11.5187 15.0415 12.4803 14.375 12.8652L10.625 15.0303C9.95845 15.4151 9.1253 14.9346 9.125 14.165V9.83496ZM10.125 14.165L13.875 12L10.125 9.83496V14.165Z" fill="black" fill-opacity="0.9"/>
</g>
</svg>
