<svg width="24" height="24" viewBox="0 0 24 24" fill="none" xmlns="http://www.w3.org/2000/svg">
<g id="icon.24.send.to.back.small">
<path id="Icon" d="M11.7754 17.918C11.5813 18.0461 11.3173 18.0244 11.1465 17.8535L9.14648 15.8535C8.95122 15.6583 8.95122 15.3417 9.14648 15.1465C9.34175 14.9512 9.65825 14.9512 9.85352 15.1465L11 16.293L11 9L7.5 9C6.67157 9 6 8.32843 6 7.5C6 6.67157 6.67157 6 7.5 6L15.5 6C16.3284 6 17 6.67157 17 7.5C17 8.32843 16.3284 9 15.5 9L12 9L12 16.293L13.1465 15.1465C13.3417 14.9512 13.6583 14.9512 13.8535 15.1465C14.0488 15.3417 14.0488 15.6583 13.8535 15.8535L11.8535 17.8535L11.7754 17.918ZM15.5 8C15.7761 8 16 7.77614 16 7.5C16 7.22386 15.7761 7 15.5 7L7.5 7C7.22386 7 7 7.22386 7 7.5C7 7.77614 7.22386 8 7.5 8L15.5 8ZM13.5 13C13.2239 13 13 12.7761 13 12.5C13 12.2239 13.2239 12 13.5 12L15.5 12C15.7761 12 16 11.7761 16 11.5C16 11.2239 15.7761 11 15.5 11L13.5 11C13.2239 11 13 10.7761 13 10.5C13 10.2239 13.2239 10 13.5 10L15.5 10C16.3284 10 17 10.6716 17 11.5C17 12.3284 16.3284 13 15.5 13L13.5 13ZM7.5 13C6.67157 13 6 12.3284 6 11.5C6 10.6716 6.67157 10 7.5 10L9.5 10C9.77614 10 10 10.2239 10 10.5C10 10.7761 9.77614 11 9.5 11L7.5 11C7.22386 11 7 11.2239 7 11.5C7 11.7761 7.22386 12 7.5 12L9.5 12C9.77614 12 10 12.2239 10 12.5C10 12.7761 9.77614 13 9.5 13L7.5 13Z" fill="black" fill-opacity="0.9"/>
</g>
</svg>
