<svg width="24" height="24" viewBox="0 0 24 24" fill="none" xmlns="http://www.w3.org/2000/svg">
<g id="icon.24.al.layout-vertical">
<path id="Icon" d="M12.5 7C12.7761 7 13 7.22386 13 7.5V14.2891L15.3887 11.8896C15.5835 11.6941 15.9001 11.6939 16.0957 11.8887C16.2913 12.0835 16.2924 12.4 16.0977 12.5957L12.8555 15.8525C12.7616 15.9468 12.633 16 12.5 16C12.3672 15.9999 12.2392 15.9467 12.1455 15.8525L8.90332 12.5957C8.70855 12.4 8.70971 12.0835 8.90527 11.8887C9.10092 11.694 9.41749 11.6942 9.6123 11.8896L12.001 14.2891V7.5C12.001 7.22401 12.2241 7.00024 12.5 7Z" fill="black" fill-opacity="0.9"/>
</g>
</svg>
