<svg width="24" height="24" viewBox="0 0 24 24" fill="none" xmlns="http://www.w3.org/2000/svg">
<g id="icon.24.ai.summarize.small">
<path id="Icon" d="M6.18066 14.7812C6.26399 14.4479 6.73699 14.4479 6.82031 14.7812L7.10059 15.9003L8.21973 16.1806C8.55301 16.2639 8.55301 16.7369 8.21973 16.8203L7.10059 17.1005L6.82031 18.2197C6.73696 18.5529 6.26398 18.5529 6.18066 18.2197L5.90039 17.1005L4.78125 16.8203C4.448 16.7369 4.44804 16.264 4.78125 16.1806L5.90039 15.9003L6.18066 14.7812ZM18.501 15.9999C18.7769 16.0001 19.0009 16.224 19.001 16.4999C19.001 16.776 18.777 16.9998 18.501 16.9999H10.501C10.2248 16.9999 10.001 16.7761 10.001 16.4999C10.0011 16.2239 10.2249 15.9999 10.501 15.9999H18.501ZM6.18066 9.78119C6.26399 9.4479 6.73699 9.4479 6.82031 9.78119L7.10059 10.9003L8.21973 11.1806C8.55301 11.2639 8.55301 11.7369 8.21973 11.8203L7.10059 12.1005L6.82031 13.2197C6.73696 13.5529 6.26398 13.5529 6.18066 13.2197L5.90039 12.1005L4.78125 11.8203C4.448 11.7369 4.44804 11.264 4.78125 11.1806L5.90039 10.9003L6.18066 9.78119ZM18.501 10.9999C18.7769 11.0001 19.0009 11.224 19.001 11.4999C19.001 11.776 18.777 11.9998 18.501 11.9999H10.501C10.2248 11.9999 10.001 11.7761 10.001 11.4999C10.0011 11.2239 10.2249 10.9999 10.501 10.9999H18.501ZM6.18066 4.78119C6.26399 4.44794 6.73694 4.44798 6.82031 4.78119L7.10059 5.90033L8.21973 6.1806C8.55301 6.26392 8.55301 6.73693 8.21973 6.82025L7.10059 7.10052L6.82031 8.21967C6.73699 8.55295 6.26398 8.55295 6.18066 8.21967L5.90039 7.10052L4.78125 6.82025C4.44804 6.73688 4.448 6.26392 4.78125 6.1806L5.90039 5.90033L6.18066 4.78119ZM18.501 5.99994C18.7769 6.0001 19.0009 6.22398 19.001 6.49994C19.001 6.77598 18.777 6.99978 18.501 6.99994H10.501C10.2248 6.99994 10.001 6.77608 10.001 6.49994C10.0011 6.22389 10.2249 5.99994 10.501 5.99994H18.501Z" fill="black" fill-opacity="0.9"/>
</g>
</svg>
