<svg width="24" height="24" viewBox="0 0 24 24" fill="none" xmlns="http://www.w3.org/2000/svg">
<g id="icon.24.figjam">
<path id="Icon" d="M5.12402 4.00781L9.12402 4.50781C9.34468 4.53539 9.54979 4.63573 9.70703 4.79297L19.5 14.5859C20.2809 15.367 20.2809 16.633 19.5 17.4141L17.4141 19.5C16.633 20.2809 15.367 20.2809 14.5859 19.5L4.79297 9.70703C4.67506 9.58912 4.58922 9.44427 4.54199 9.28613L4.50781 9.12402L4.00781 5.12402C3.96954 4.81782 4.07476 4.51117 4.29297 4.29297C4.51117 4.07476 4.81782 3.96954 5.12402 4.00781ZM6.85352 10.3535L15.293 18.793C15.6835 19.1834 16.3165 19.1834 16.707 18.793L18.793 16.707L18.8613 16.6309C19.1816 16.2381 19.159 15.6591 18.793 15.293L10.3535 6.85352L6.85352 10.3535ZM5.5 9L6.14648 9.64648L9.64648 6.14648L9 5.5L5 5L5.5 9Z" fill="black" fill-opacity="0.9"/>
</g>
</svg>
