<svg width="24" height="24" viewBox="0 0 24 24" fill="none" xmlns="http://www.w3.org/2000/svg">
<g id="icon.24.vector.paint">
<path id="Icon" d="M18.6602 15.8666C18.8429 15.6596 19.1551 15.6596 19.3379 15.8666C19.9085 16.513 20.999 17.8929 20.999 19.0004C20.9988 20.1048 20.1035 21.0004 18.999 21.0004C17.8947 21.0002 16.9992 20.1047 16.999 19.0004C16.999 17.8931 18.0895 16.5131 18.6602 15.8666ZM11.8682 3.22499C12.2609 2.90464 12.8399 2.92723 13.2061 3.29335L20.7061 10.7934C21.0966 11.1839 21.0966 11.8169 20.7061 12.2074L13.1201 19.7934C11.9486 20.9644 10.0494 20.9646 8.87793 19.7934L4.20605 15.1215C3.03479 13.95 3.03499 12.0508 4.20605 10.8793L8.68848 6.39687L6.64551 4.3539C6.45036 4.15875 6.4506 3.84216 6.64551 3.64687C6.84077 3.4516 7.15728 3.4516 7.35254 3.64687L9.39551 5.68983L11.792 3.29335L11.8682 3.22499ZM18.999 17.0248C18.821 17.253 18.634 17.5111 18.4697 17.7807C18.1498 18.3056 17.999 18.7313 17.999 19.0004C17.9992 19.5524 18.447 20.0002 18.999 20.0004C19.5512 20.0004 19.9988 19.5525 19.999 19.0004C19.999 18.7313 19.8483 18.3058 19.5283 17.7807C19.364 17.511 19.1771 17.2531 18.999 17.0248ZM10.1025 6.39687L12.8525 9.14687C13.0484 9.0531 13.2674 9.00043 13.499 9.00038C14.3275 9.00038 14.999 9.67195 14.999 10.5004C14.9988 11.3286 14.3273 12.0004 13.499 12.0004C12.6709 12.0002 11.9992 11.3285 11.999 10.5004C11.999 10.2692 12.0531 10.0505 12.1465 9.85487L9.39551 7.1039L4.91309 11.5863L4.77637 11.7377C4.13562 12.5232 4.18097 13.6822 4.91309 14.4144L9.58496 19.0863C10.3172 19.8184 11.4762 19.8638 12.2617 19.223L12.4131 19.0863L19.999 11.5004L12.499 4.00038L10.1025 6.39687ZM13.499 10.0004C13.223 10.0005 12.999 10.2243 12.999 10.5004C12.9992 10.7762 13.2232 11.0002 13.499 11.0004C13.775 11.0004 13.9988 10.7763 13.999 10.5004C13.999 10.2242 13.7752 10.0004 13.499 10.0004Z" fill="black" fill-opacity="0.9"/>
</g>
</svg>
