<svg width="24" height="24" viewBox="0 0 24 24" fill="none" xmlns="http://www.w3.org/2000/svg">
<g id="icon.24.al.layout-horizontal">
<path id="Icon" d="M12.8887 7.90485C13.0835 7.70928 13.4 7.70812 13.5957 7.90289L16.8525 11.1451C16.9467 11.2388 16.9999 11.3667 17 11.4996C17 11.6326 16.9468 11.7612 16.8525 11.855L13.5957 15.0972C13.4 15.292 13.0835 15.2908 12.8887 15.0953C12.6939 14.8996 12.6941 14.5831 12.8896 14.3882L15.2891 11.9996H8.5C8.22386 11.9996 8 11.7757 8 11.4996C8.00024 11.2236 8.22401 11.0005 8.5 11.0005H15.2891L12.8896 8.61188C12.6942 8.41706 12.694 8.10049 12.8887 7.90485Z" fill="black" fill-opacity="0.9"/>
</g>
</svg>
