<svg width="24" height="24" viewBox="0 0 24 24" fill="none" xmlns="http://www.w3.org/2000/svg">
<g id="icon.24.slide.grid">
<path id="Icon" d="M9.2041 13.0107C10.2128 13.113 11 13.9643 11 15V17C11 18.1046 10.1046 19 9 19H5C3.96435 19 3.113 18.2128 3.01074 17.2041L3 17V15C3 13.8954 3.89543 13 5 13H9L9.2041 13.0107ZM19.2041 13.0107C20.2128 13.113 21 13.9643 21 15V17C21 18.1046 20.1046 19 19 19H15C13.9643 19 13.113 18.2128 13.0107 17.2041L13 17V15C13 13.8954 13.8954 13 15 13H19L19.2041 13.0107ZM5 14C4.44772 14 4 14.4477 4 15V17C4 17.5523 4.44772 18 5 18H9C9.55228 18 10 17.5523 10 17V15C10 14.4477 9.55228 14 9 14H5ZM15 14C14.4477 14 14 14.4477 14 15V17C14 17.5523 14.4477 18 15 18H19C19.5523 18 20 17.5523 20 17V15C20 14.4477 19.5523 14 19 14H15ZM9.2041 5.01074C10.2128 5.113 11 5.96435 11 7V9C11 10.1046 10.1046 11 9 11H5C3.96435 11 3.113 10.2128 3.01074 9.2041L3 9V7C3 5.89543 3.89543 5 5 5H9L9.2041 5.01074ZM19.2041 5.01074C20.2128 5.113 21 5.96435 21 7V9C21 10.1046 20.1046 11 19 11H15C13.9643 11 13.113 10.2128 13.0107 9.2041L13 9V7C13 5.89543 13.8954 5 15 5H19L19.2041 5.01074ZM5 6C4.44772 6 4 6.44772 4 7V9C4 9.55228 4.44772 10 5 10H9C9.55228 10 10 9.55228 10 9V7C10 6.44772 9.55228 6 9 6H5ZM15 6C14.4477 6 14 6.44772 14 7V9C14 9.55228 14.4477 10 15 10H19C19.5523 10 20 9.55228 20 9V7C20 6.44772 19.5523 6 19 6H15Z" fill="black" fill-opacity="0.9"/>
</g>
</svg>
