<svg width="24" height="24" viewBox="0 0 24 24" fill="none" xmlns="http://www.w3.org/2000/svg">
<g id="icon.24.shuffle.small">
<path id="Icon" d="M5 15.499C5 15.7752 5.22384 15.9988 5.5 15.999L6.55566 15.999C7.93667 15.999 9.24151 15.3652 10.0947 14.2793L13.1924 10.3369C13.8557 9.49266 14.8707 8.99917 15.9443 8.99902L17.2939 8.99902L16.1475 10.1455C15.9522 10.3408 15.9515 10.6571 16.1465 10.8525C16.3419 11.048 16.6581 11.0479 16.8535 10.8525L18.8545 8.85254C19.0495 8.65708 19.0497 8.34079 18.8545 8.14551L16.8545 6.14551C16.6592 5.95023 16.3429 5.95054 16.1475 6.14551C15.952 6.34094 15.952 6.6571 16.1475 6.85254L17.2939 7.99902L15.9453 7.99902C14.5643 7.99902 13.2585 8.63286 12.4053 9.71875L9.30762 13.6611C8.64415 14.5055 7.62954 14.999 6.55566 14.999L5.5 14.999C5.22399 14.9993 5.00024 15.223 5 15.499ZM12.5264 14.4238C13.3792 15.4206 14.6263 15.9989 15.9443 15.999L17.2939 15.999L16.1475 17.1455C15.952 17.3409 15.952 17.6571 16.1475 17.8525C16.3429 18.0479 16.6591 18.048 16.8545 17.8525L18.8535 15.8525C19.0489 15.6571 19.0489 15.3409 18.8535 15.1455L16.8535 13.1455C16.6582 12.9507 16.3428 12.9507 16.1475 13.1455C15.952 13.3409 15.952 13.6571 16.1475 13.8525L17.2939 14.999L15.9443 14.999C14.8706 14.9989 13.8558 14.5054 13.1924 13.6611L13.1572 13.6162L12.5264 14.4238ZM5 8.49902C5 8.77526 5.22382 8.99879 5.5 8.99902L6.55566 8.99902C7.6292 8.99902 8.64414 9.49299 9.30762 10.3369L9.34277 10.3818L9.97363 9.57422C9.12077 8.57807 7.87331 7.99902 6.55566 7.99902L5.5 7.99902C5.22411 7.99926 5.00047 8.22319 5 8.49902Z" fill="black" fill-opacity="0.9"/>
</g>
</svg>
