<svg width="24" height="24" viewBox="0 0 24 24" fill="none" xmlns="http://www.w3.org/2000/svg">
<g id="icon.24.layout-align-right">
<path id="Icon" d="M10.75 13C10.3358 13 10 13.3358 10 13.75V14.25C10 14.6642 10.3358 15 10.75 15H15.25C15.6642 15 16 14.6642 16 14.25V13.75C16 13.3358 15.6642 13 15.25 13H10.75ZM6.75 8C6.33579 8 6 8.33579 6 8.75V9.25C6 9.66421 6.33579 10 6.75 10H15.25C15.6642 10 16 9.66421 16 9.25V8.75C16 8.33579 15.6642 8 15.25 8H6.75Z" fill="black" fill-opacity="0.9"/>
<path id="Secondary" d="M18 17.5C18 17.7761 18.2239 18 18.5 18C18.7761 18 19 17.7761 19 17.5V5.5C19 5.22386 18.7761 5 18.5 5C18.2239 5 18 5.22386 18 5.5V17.5Z" fill="black" fill-opacity="0.3"/>
</g>
</svg>
