<svg width="24" height="24" viewBox="0 0 24 24" fill="none" xmlns="http://www.w3.org/2000/svg">
<g id="icon.24.figma.small">
<path id="Icon" d="M14 5.5C15.3807 5.5 16.5 6.61929 16.5 8C16.5 8.81955 16.1034 9.54407 15.4941 10C16.1034 10.4559 16.5 11.1804 16.5 12C16.5 13.3807 15.3807 14.5 14 14.5C13.4363 14.5 12.9182 14.3108 12.5 13.9961V16C12.5 17.3807 11.3807 18.5 10 18.5C8.61929 18.5 7.5 17.3807 7.5 16C7.5 15.1807 7.89593 14.456 8.50488 14C7.89593 13.544 7.5 12.8193 7.5 12C7.5 11.1807 7.89593 10.456 8.50488 10C7.89593 9.54404 7.5 8.81927 7.5 8C7.5 6.61929 8.61929 5.5 10 5.5H14ZM10 14.5C9.17157 14.5 8.5 15.1716 8.5 16C8.5 16.8284 9.17157 17.5 10 17.5C10.8284 17.5 11.5 16.8284 11.5 16V14.5H10ZM14 10.5C13.1716 10.5 12.5 11.1716 12.5 12C12.5 12.8284 13.1716 13.5 14 13.5C14.8284 13.5 15.5 12.8284 15.5 12C15.5 11.1716 14.8284 10.5 14 10.5ZM10 10.5C9.17157 10.5 8.5 11.1716 8.5 12C8.5 12.8284 9.17157 13.5 10 13.5H11.5V10.5H10ZM10 6.5C9.17157 6.5 8.5 7.17157 8.5 8C8.5 8.82843 9.17157 9.5 10 9.5H11.5V6.5H10ZM12.5 9.5H14C14.8284 9.5 15.5 8.82843 15.5 8C15.5 7.17157 14.8284 6.5 14 6.5H12.5V9.5Z" fill="black" fill-opacity="0.9"/>
</g>
</svg>
