<svg width="24" height="24" viewBox="0 0 24 24" fill="none" xmlns="http://www.w3.org/2000/svg">
<g id="icon.24.al.padding-all">
<path id="Icon" d="M16 7C16.5523 7 17 7.44772 17 8V16L16.9951 16.1025C16.9438 16.6067 16.5177 17 16 17H8L7.89746 16.9951C7.42703 16.9472 7.05278 16.573 7.00488 16.1025L7 16V8C7 7.48232 7.39333 7.05621 7.89746 7.00488L8 7H16ZM13 10C13.5523 10 14 10.4477 14 11V13L13.9951 13.1025C13.9438 13.6067 13.5177 14 13 14H11L10.8975 13.9951C10.3933 13.9438 10 13.5177 10 13V11C10 10.4477 10.4477 10 11 10H13ZM16 8H8V16H16V8ZM13 11H11V13H13V11Z" fill="black" fill-opacity="0.9"/>
</g>
</svg>
