<svg width="24" height="24" viewBox="0 0 24 24" fill="none" xmlns="http://www.w3.org/2000/svg">
<g id="icon.24.link">
<path id="Icon" d="M7.64648 10.6463C7.84168 10.4512 8.15829 10.4513 8.35352 10.6463C8.54873 10.8415 8.54862 11.158 8.35352 11.3533L5.85352 13.8533C4.66843 15.0387 4.66843 16.9609 5.85352 18.1463C7.03879 19.3315 8.961 19.3321 10.1465 18.1472L12.6475 15.6463C12.8428 15.4514 13.1594 15.4511 13.3545 15.6463C13.5494 15.8414 13.5492 16.1581 13.3545 16.3533L10.8535 18.8543C9.27751 20.4297 6.72228 20.4291 5.14648 18.8533C3.57087 17.2774 3.57087 14.7222 5.14648 13.1463L7.64648 10.6463ZM14.1465 9.14626C14.3417 8.95109 14.6582 8.95126 14.8535 9.14626C15.0488 9.34153 15.0488 9.65803 14.8535 9.85329L9.85352 14.8533L9.77539 14.9177C9.58132 15.0458 9.31732 15.0241 9.14648 14.8533C8.97586 14.6824 8.95393 14.4184 9.08203 14.2244L9.14648 14.1463L14.1465 9.14626ZM13.1465 5.14626C14.7225 3.57056 17.2786 3.57038 18.8545 5.14626C20.43 6.72213 20.43 9.27739 18.8545 10.8533L16.3535 13.3533C16.1582 13.5484 15.8417 13.5485 15.6465 13.3533C15.4515 13.1581 15.4514 12.8415 15.6465 12.6463L18.1475 10.1463C19.3324 8.96088 19.3325 7.03863 18.1475 5.85329C16.9621 4.66793 15.039 4.66811 13.8535 5.85329L11.3535 8.35329C11.1582 8.5484 10.8417 8.54851 10.6465 8.35329C10.4514 8.15807 10.4514 7.84148 10.6465 7.64626L13.1465 5.14626Z" fill="black" fill-opacity="0.9"/>
</g>
</svg>
