<svg width="24" height="24" viewBox="0 0 24 24" fill="none" xmlns="http://www.w3.org/2000/svg">
<g id="icon.24.action.overlay.open.small">
<path id="Icon" d="M15.2041 6.01074C16.2128 6.113 17 6.96435 17 8V11.5361C18.1954 12.2278 19 13.5196 19 15C19 17.2091 17.2091 19 15 19C13.5196 19 12.2278 18.1954 11.5361 17H8C6.96435 17 6.113 16.2128 6.01074 15.2041L6 15V8C6 6.89543 6.89543 6 8 6H15L15.2041 6.01074ZM15 12C13.3431 12 12 13.3431 12 15C12 15.351 12.0631 15.6869 12.1738 16C12.3059 16.3732 12.5095 16.7112 12.7686 17C13.3178 17.6124 14.1126 18 15 18C16.6569 18 18 16.6569 18 15C18 14.1084 17.6087 13.3102 16.9912 12.7607C16.7043 12.5055 16.3695 12.3046 16 12.1738C15.6869 12.0631 15.351 12 15 12ZM15 13C15.2761 13 15.5 13.2239 15.5 13.5V14.5H16.5C16.7761 14.5 17 14.7239 17 15C17 15.2761 16.7761 15.5 16.5 15.5H15.5V16.5C15.5 16.7761 15.2761 17 15 17C14.7239 17 14.5 16.7761 14.5 16.5V15.5H13.5C13.2239 15.5 13 15.2761 13 15C13 14.7239 13.2239 14.5 13.5 14.5H14.5V13.5C14.5 13.2239 14.7239 13 15 13ZM8 7C7.44772 7 7 7.44772 7 8V15C7 15.5523 7.44772 16 8 16H11.126C11.0437 15.6804 11 15.3453 11 15C11 12.7909 12.7909 11 15 11C15.3453 11 15.6804 11.0437 16 11.126V8C16 7.44772 15.5523 7 15 7H8Z" fill="black" fill-opacity="0.9"/>
</g>
</svg>
