<svg width="24" height="24" viewBox="0 0 24 24" fill="none" xmlns="http://www.w3.org/2000/svg">
<g id="icon.24.key.small">
<path id="Icon" d="M14.5 5C16.9853 5 19 7.01472 19 9.5C19 11.9853 16.9853 14 14.5 14C14.1562 14 13.8217 13.9598 13.5 13.8867V14C13.5 14.5523 13.0523 15 12.5 15H11.5V16C11.5 16.5523 11.0523 17 10.5 17H9.5V18C9.5 18.5523 9.05228 19 8.5 19H6C5.44772 19 5 18.5523 5 18V15.9141C5.00004 15.6489 5.10547 15.3945 5.29297 15.207L10.0918 10.4072C10.0318 10.1142 10 9.81079 10 9.5C10 7.01472 12.0147 5 14.5 5ZM14.5 6C12.567 6 11 7.567 11 9.5C11 9.74239 11.0246 9.97894 11.0713 10.207L11.1797 10.7334L10.7988 11.1143L6 15.9141V18H8.5V16H10.5V14H12.5V12.6338L13.7217 12.9111C13.9746 12.9685 14.2346 13 14.5 13C16.433 13 18 11.433 18 9.5C18 7.567 16.433 6 14.5 6ZM15 8C15.5523 8 16 8.44772 16 9C16 9.55228 15.5523 10 15 10C14.4477 10 14 9.55228 14 9C14 8.44772 14.4477 8 15 8Z" fill="black" fill-opacity="0.9"/>
</g>
</svg>
