<svg width="24" height="24" viewBox="0 0 24 24" fill="none" xmlns="http://www.w3.org/2000/svg">
<g id="icon.24.update.text.style">
<path id="Union" d="M20 12C20.2761 12 20.5013 12.2243 20.4854 12.5C20.2265 16.9617 16.5266 20.5 12 20.5C9.09488 20.5 6.53266 19.0411 5 16.8174V18.5C5 18.7761 4.77614 19 4.5 19C4.22386 19 4 18.7761 4 18.5V15.5C4 15.2239 4.22386 15 4.5 15H7.5C7.77614 15 8 15.2239 8 15.5C8 15.7761 7.77614 16 7.5 16H5.65625C6.98478 18.1028 9.32874 19.5 12 19.5C15.9741 19.5 19.2261 16.409 19.4834 12.5C19.5016 12.2245 19.7239 12 20 12ZM14.5 9C14.7761 9 15 9.22386 15 9.5V10.5C15 10.7761 14.7761 11 14.5 11C14.2239 11 14 10.7761 14 10.5V10H12.5V14H13C13.2761 14 13.5 14.2239 13.5 14.5C13.5 14.7761 13.2761 15 13 15H11C10.7239 15 10.5 14.7761 10.5 14.5C10.5 14.2239 10.7239 14 11 14H11.5V10H10V10.5C10 10.7761 9.77614 11 9.5 11C9.22386 11 9 10.7761 9 10.5V9.5C9 9.22386 9.22386 9 9.5 9H14.5ZM12 3.5C14.9048 3.5 17.4673 4.95825 19 7.18164V5.5C19 5.22386 19.2239 5 19.5 5C19.7761 5 20 5.22386 20 5.5V8.5C20 8.77614 19.7761 9 19.5 9H16.5C16.2239 9 16 8.77614 16 8.5C16 8.22386 16.2239 8 16.5 8H18.3438C17.0152 5.89716 14.6713 4.5 12 4.5C8.02592 4.5 4.77394 7.59103 4.5166 11.5C4.49842 11.7755 4.27611 12 4 12C3.72387 12 3.49868 11.7757 3.51465 11.5C3.77348 7.03834 7.47345 3.5 12 3.5Z" fill="black" fill-opacity="0.9"/>
</g>
</svg>
