<svg width="24" height="24" viewBox="0 0 24 24" fill="none" xmlns="http://www.w3.org/2000/svg">
<g id="icon.24.actions">
<path id="Icon" d="M9 13C10.1046 13 11 13.8954 11 15V18C11 19.1046 10.1046 20 9 20H6C4.89543 20 4 19.1046 4 18V15C4 13.8954 4.89543 13 6 13H9ZM16.5 13C16.7761 13 17 13.2239 17 13.5V16H19.5C19.7761 16 20 16.2239 20 16.5C20 16.7761 19.7761 17 19.5 17H17V19.5C17 19.7761 16.7761 20 16.5 20C16.2239 20 16 19.7761 16 19.5V17H13.5C13.2239 17 13 16.7761 13 16.5C13 16.2239 13.2239 16 13.5 16H16V13.5C16 13.2239 16.2239 13 16.5 13ZM6 14C5.44772 14 5 14.4477 5 15V18L5.00488 18.1025C5.05278 18.573 5.42703 18.9472 5.89746 18.9951L6 19H9L9.10254 18.9951C9.60667 18.9438 10 18.5177 10 18V15C10 14.4477 9.55228 14 9 14H6ZM6.86914 3.72461C7.26191 3.40426 7.84092 3.42685 8.20703 3.79297L11.207 6.79297C11.5976 7.18349 11.5976 7.81651 11.207 8.20703L8.20703 11.207C7.81651 11.5976 7.18349 11.5976 6.79297 11.207L3.79297 8.20703C3.40244 7.81651 3.40244 7.18349 3.79297 6.79297L6.79297 3.79297L6.86914 3.72461ZM16.5 4C18.433 4 20 5.567 20 7.5C20 9.433 18.433 11 16.5 11C14.567 11 13 9.433 13 7.5C13 5.567 14.567 4 16.5 4ZM4.5 7.5L7.5 10.5L10.5 7.5L7.5 4.5L4.5 7.5ZM16.5 5C15.1193 5 14 6.11929 14 7.5C14 8.88071 15.1193 10 16.5 10C17.8807 10 19 8.88071 19 7.5C19 6.11929 17.8807 5 16.5 5Z" fill="black" fill-opacity="0.9"/>
</g>
</svg>
