<svg width="24" height="24" viewBox="0 0 24 24" fill="none" xmlns="http://www.w3.org/2000/svg">
<g id="icon.24.poll.small">
<path id="Icon" d="M6.5 6C6.77614 6 7 6.22386 7 6.5V7H13C13.5523 7 14 7.44772 14 8V10H18C18.5523 10 19 10.4477 19 11V13C19 13.5177 18.6067 13.9438 18.1025 13.9951L18 14H16V16C16 16.5523 15.5523 17 15 17H7V17.5C7 17.7761 6.77614 18 6.5 18C6.22386 18 6 17.7761 6 17.5V6.5C6 6.22386 6.22386 6 6.5 6ZM7 16H15V14H7V16ZM7 13H18V11H7V13ZM7 10H13V8H7V10Z" fill="black" fill-opacity="0.9"/>
</g>
</svg>
