<svg width="24" height="24" viewBox="0 0 24 24" fill="none" xmlns="http://www.w3.org/2000/svg">
<g id="icon.24.save">
<path id="Icon" d="M15 3C16.1046 3 17 3.89543 17 5V20.0859L16.9873 20.2471C16.8749 20.976 16.011 21.3341 15.416 20.8984L15.293 20.793L12 17.5L8.70703 20.793L8.58398 20.8984C7.98898 21.3341 7.12509 20.976 7.0127 20.2471L7 20.0859V5C7 3.89543 7.89543 3 9 3H15ZM9 4C8.48232 4 8.05621 4.39333 8.00488 4.89746L8 5V20.0859L12 16.0859L16 20.0859V5C16 4.44772 15.5523 4 15 4H9Z" fill="black" fill-opacity="0.9"/>
</g>
</svg>
