<svg width="24" height="24" viewBox="0 0 24 24" fill="none" xmlns="http://www.w3.org/2000/svg">
<g id="icon.24.inspect.small">
<path id="Icon" d="M11.293 11.293C11.5742 11.0118 11.9951 10.9241 12.3652 11.0693L18.3652 13.4268C18.7608 13.5822 19.0151 13.9708 18.999 14.3955C18.9827 14.82 18.7 15.1875 18.2939 15.3125L16.0137 16.0137L15.3125 18.2939C15.1875 18.7 14.82 18.9827 14.3955 18.999C13.9708 19.0151 13.5822 18.7608 13.4268 18.3652L11.0693 12.3652C10.9241 11.9951 11.0118 11.5742 11.293 11.293ZM14.3574 18L15.2139 15.2139L18 14.3574L12 12L14.3574 18ZM15 6C16.1046 6 17 6.89543 17 8V11C17 11.2761 16.7761 11.5 16.5 11.5C16.2239 11.5 16 11.2761 16 11V8C16 7.44772 15.5523 7 15 7H8C7.44772 7 7 7.44772 7 8V15C7 15.5523 7.44772 16 8 16H11C11.2761 16 11.5 16.2239 11.5 16.5C11.5 16.7761 11.2761 17 11 17H8C6.89543 17 6 16.1046 6 15V8C6 6.89543 6.89543 6 8 6H15Z" fill="black" fill-opacity="0.9"/>
</g>
</svg>
