<svg width="24" height="24" viewBox="0 0 24 24" fill="none" xmlns="http://www.w3.org/2000/svg">
<g id="icon.24.published.community.small">
<path id="Icon" d="M15.5 12C17.433 12 19 13.567 19 15.5C19 17.433 17.433 19 15.5 19C13.567 19 12 17.433 12 15.5C12 13.567 13.567 12 15.5 12ZM15.5 13C14.1193 13 13 14.1193 13 15.5C13 16.8807 14.1193 18 15.5 18C16.8807 18 18 16.8807 18 15.5C18 14.1193 16.8807 13 15.5 13ZM12 6C15.2313 6 17.864 8.55434 17.9932 11.7539C17.6691 11.5378 17.3154 11.3632 16.9395 11.2363C16.6494 9.34535 15.3024 7.8034 13.5186 7.23535C14.0229 8.16312 14.3713 9.54162 14.4678 11.1201C14.1245 11.2007 13.7962 11.3195 13.4883 11.4736C13.4362 10.1359 13.1904 8.97125 12.8447 8.1416C12.6487 7.6712 12.4406 7.35541 12.2607 7.17285C12.174 7.08481 12.1062 7.04059 12.0635 7.01953C12.0243 7.0003 12.0053 7 12 7C11.9947 7 11.9757 7.0003 11.9365 7.01953C11.8938 7.04059 11.826 7.08481 11.7393 7.17285C11.5594 7.35541 11.3513 7.6712 11.1553 8.1416C10.8073 8.97671 10.5596 10.1512 10.5098 11.5H13.4385C12.9485 11.753 12.5109 12.0929 12.1465 12.5H10.5098C10.5518 13.6376 10.736 14.6508 11.001 15.4414C11.0007 15.4609 11 15.4804 11 15.5C11 16.4223 11.2779 17.2794 11.7539 17.9932C8.55434 17.864 6 15.2313 6 12C6 8.68629 8.68629 6 12 6ZM16.0527 14.2764C16.1762 14.0294 16.4766 13.9292 16.7236 14.0527C16.9706 14.1762 17.0708 14.4766 16.9473 14.7236L15.9473 16.7236C15.8754 16.8674 15.7387 16.9674 15.5801 16.9932C15.4214 17.0189 15.2601 16.9672 15.1465 16.8535L14.1465 15.8535C13.9512 15.6583 13.9512 15.3417 14.1465 15.1465C14.3417 14.9512 14.6583 14.9512 14.8535 15.1465L15.3623 15.6553L16.0527 14.2764ZM7.02441 12.5C7.22399 14.5102 8.61481 16.1691 10.4805 16.7637C9.93634 15.7621 9.57042 14.2359 9.51074 12.5H7.02441ZM10.4805 7.23535C8.61467 7.82988 7.224 9.48966 7.02441 11.5H9.51074C9.57044 9.76362 9.93611 8.23687 10.4805 7.23535Z" fill="black" fill-opacity="0.9"/>
</g>
</svg>
