<svg width="24" height="24" viewBox="0 0 24 24" fill="none" xmlns="http://www.w3.org/2000/svg">
<g id="icon.24.sticky.small">
<path id="Icon" d="M16.5 6C17.3284 6 18 6.67157 18 7.5V12.9717L17.9902 13.1689C17.9448 13.6269 17.7423 14.0575 17.4141 14.3857L14.3857 17.4141C14.0107 17.7891 13.5021 18 12.9717 18H7.5L7.34668 17.9922C6.59028 17.9154 6 17.2767 6 16.5V7.5C6 6.67157 6.67157 6 7.5 6H16.5ZM7.5 7C7.22386 7 7 7.22386 7 7.5V16.5C7 16.7761 7.22386 17 7.5 17H12V12.5C12 12.2239 12.2239 12 12.5 12H17V7.5C17 7.22386 16.7761 7 16.5 7H7.5ZM13 13V16.998C13.2549 16.9908 13.4979 16.8878 13.6787 16.707L16.707 13.6787C16.8879 13.4979 16.9918 13.2549 16.999 13H13Z" fill="black" fill-opacity="0.9"/>
</g>
</svg>
