<svg width="24" height="24" viewBox="0 0 24 24" fill="none" xmlns="http://www.w3.org/2000/svg">
<g id="icon.24.underline-wave">
<path id="Icon" d="M11.9395 16.854C12.5252 16.2683 13.4748 16.2683 14.0605 16.854L14.6465 17.4399C14.8417 17.6348 15.1583 17.6348 15.3535 17.4399L15.9395 16.854C16.1055 16.688 16.3008 16.5685 16.5088 16.4966C16.7698 16.4064 17 16.6384 17 16.9146V17.022C16.9997 17.2386 16.7998 17.4078 16.6465 17.561L16.0605 18.147C15.4748 18.7323 14.5252 18.7323 13.9395 18.147L13.3535 17.561C13.1583 17.3659 12.8417 17.3659 12.6465 17.561L12.0605 18.147C11.4748 18.7323 10.5252 18.7323 9.93945 18.147L9.35352 17.561C9.15827 17.3659 8.84173 17.3659 8.64648 17.561L8.06055 18.147C7.89454 18.3129 7.69908 18.4315 7.49121 18.5034C7.23033 18.5936 7.00019 18.3624 7 18.0864V17.979C7 17.7622 7.20011 17.5932 7.35352 17.4399L7.93945 16.854C8.52522 16.2683 9.47478 16.2683 10.0605 16.854L10.6465 17.4399C10.8417 17.6348 11.1583 17.6348 11.3535 17.4399L11.9395 16.854ZM15.5 6.00049C15.7761 6.00049 16 6.22435 16 6.50049V11.0005C16 13.2096 14.2091 15.0005 12 15.0005C9.79086 15.0005 8 13.2096 8 11.0005V6.50049C8 6.22435 8.22386 6.00049 8.5 6.00049C8.77614 6.00049 9 6.22435 9 6.50049V11.0005C9 12.6573 10.3431 14.0005 12 14.0005C13.6569 14.0005 15 12.6573 15 11.0005V6.50049C15 6.22435 15.2239 6.00049 15.5 6.00049Z" fill="black" fill-opacity="0.9"/>
</g>
</svg>
