<svg width="24" height="24" viewBox="0 0 24 24" fill="none" xmlns="http://www.w3.org/2000/svg">
<g id="icon.24.al.layout-wrap">
<path id="Icon" d="M15 6C16.6568 6.00008 18 7.3432 18 9C18 10.6568 16.6568 11.9999 15 12H9.71191L12.1104 14.3887C12.3057 14.5835 12.3068 14.9001 12.1123 15.0957C11.9175 15.2913 11.601 15.2913 11.4053 15.0967L8.14746 11.8535C8.05347 11.7598 8.00007 11.6328 8 11.5C8.00007 11.3671 8.0533 11.2393 8.14746 11.1455L11.4053 7.90234C11.601 7.70822 11.9167 7.70987 12.1113 7.90527C12.3059 8.10099 12.306 8.41756 12.1104 8.6123L9.71094 11H15C16.1045 10.9999 17 10.1045 17 9C17 7.89548 16.1045 7.00008 15 7H14.5C14.224 6.99994 14.0002 6.77591 14 6.5C14.0002 6.22409 14.224 6.00006 14.5 6H15Z" fill="black" fill-opacity="0.9"/>
</g>
</svg>
