<svg width="24" height="24" viewBox="0 0 24 24" fill="none" xmlns="http://www.w3.org/2000/svg">
<g id="icon.24.corners">
<path id="Icon" d="M6.5 14C6.77614 14 7 14.2239 7 14.5V15.0996C7 15.5279 7.00017 15.8199 7.01855 16.0449C7.03647 16.2639 7.06956 16.376 7.10938 16.4541C7.20521 16.6421 7.35793 16.7948 7.5459 16.8906C7.62405 16.9304 7.73615 16.9635 7.95508 16.9814C8.18012 16.9998 8.4721 17 8.90039 17H9.5C9.77614 17 10 17.2239 10 17.5C10 17.7761 9.77614 18 9.5 18H8.90039C8.4886 18 8.14924 18 7.87402 17.9775C7.59301 17.9546 7.33444 17.9059 7.0918 17.7822C6.71554 17.5905 6.40951 17.2845 6.21777 16.9082C6.09414 16.6656 6.04543 16.407 6.02246 16.126C5.99998 15.8508 6 15.5114 6 15.0996V14.5C6 14.2239 6.22386 14 6.5 14ZM17.5 14C17.7761 14 18 14.2239 18 14.5V15.0996C18 15.5114 18 15.8508 17.9775 16.126C17.9546 16.407 17.9059 16.6656 17.7822 16.9082C17.5905 17.2845 17.2845 17.5905 16.9082 17.7822C16.6656 17.9059 16.407 17.9546 16.126 17.9775C15.8508 18 15.5114 18 15.0996 18H14.5C14.2239 18 14 17.7761 14 17.5C14 17.2239 14.2239 17 14.5 17H15.0996C15.5279 17 15.8199 16.9998 16.0449 16.9814C16.2639 16.9635 16.376 16.9304 16.4541 16.8906C16.6421 16.7948 16.7948 16.6421 16.8906 16.4541C16.9304 16.376 16.9635 16.2639 16.9814 16.0449C16.9998 15.8199 17 15.5279 17 15.0996V14.5C17 14.2239 17.2239 14 17.5 14ZM9.5 6C9.77614 6 10 6.22386 10 6.5C10 6.77614 9.77614 7 9.5 7H8.90039C8.47217 7 8.1801 7.00017 7.95508 7.01855C7.73623 7.03647 7.62403 7.06956 7.5459 7.10938C7.35797 7.20522 7.2052 7.35796 7.10938 7.5459C7.06957 7.62405 7.03647 7.73619 7.01855 7.95508C7.00017 8.18012 7 8.47211 7 8.90039V9.5C7 9.77614 6.77614 10 6.5 10C6.22391 9.99993 6 9.7761 6 9.5V8.90039C6 8.48861 5.99998 8.14923 6.02246 7.87402C6.04543 7.59303 6.09416 7.33442 6.21777 7.0918C6.40949 6.71558 6.71559 6.40951 7.0918 6.21777C7.3344 6.09416 7.59306 6.04543 7.87402 6.02246C8.14921 5.99998 8.48866 6 8.90039 6H9.5ZM15.0996 6C15.5114 6 15.8508 5.99998 16.126 6.02246C16.407 6.04543 16.6656 6.09414 16.9082 6.21777C17.2845 6.40951 17.5905 6.71554 17.7822 7.0918C17.9059 7.33444 17.9546 7.59301 17.9775 7.87402C18 8.14924 18 8.4886 18 8.90039V9.5C18 9.77614 17.7761 10 17.5 10C17.2239 10 17 9.77614 17 9.5V8.90039C17 8.4721 16.9998 8.18012 16.9814 7.95508C16.9635 7.73615 16.9304 7.62405 16.8906 7.5459C16.7948 7.35793 16.6421 7.20521 16.4541 7.10938C16.376 7.06956 16.2639 7.03647 16.0449 7.01855C15.8199 7.00017 15.5279 7 15.0996 7H14.5C14.2239 7 14 6.77614 14 6.5C14 6.22386 14.2239 6 14.5 6H15.0996Z" fill="black" fill-opacity="0.9"/>
</g>
</svg>
