<svg width="24" height="24" viewBox="0 0 24 24" fill="none" xmlns="http://www.w3.org/2000/svg">
<g id="icon.24.edit.text.small">
<path id="Icon" d="M8.5 6C8.77614 6 9 6.22386 9 6.5V17.5C9 17.7761 8.77614 18 8.5 18C8.22386 18 8 17.7761 8 17.5V6.5C8 6.22386 8.22386 6 8.5 6ZM13.5 8C13.7 8 13.8811 8.11896 13.96 8.30273L16.1025 13.3027L16.96 15.3027C17.0687 15.5565 16.951 15.8511 16.6973 15.96C16.4435 16.0687 16.1489 15.951 16.04 15.6973L15.3135 14H11.6865L10.96 15.6973C10.8511 15.951 10.5565 16.0687 10.3027 15.96C10.049 15.8511 9.93128 15.5565 10.04 15.3027L10.8975 13.3027L13.04 8.30273L13.0742 8.2373C13.1643 8.0912 13.3249 8 13.5 8ZM12.1152 13H14.8848L13.5 9.76953L12.1152 13Z" fill="black" fill-opacity="0.9"/>
</g>
</svg>
