<svg width="24" height="24" viewBox="0 0 24 24" fill="none" xmlns="http://www.w3.org/2000/svg">
<g id="icon.24.slice">
<path id="Icon" d="M16.8887 5.15385C17.7787 4.26461 19.2215 4.26431 20.1113 5.15385C20.993 6.03552 21.0024 7.46264 20.1328 8.356L11.9922 16.7095C11.8836 18.5446 10.3623 19.9993 8.5 19.9996H3C2.79641 19.9996 2.61361 19.8757 2.53711 19.6871C2.4609 19.4987 2.50569 19.2829 2.65137 19.1412L11.1514 10.8912L16.8887 5.15385ZM4.2334 18.9996H8.5C9.8805 18.9993 11 17.8801 11 16.4996V12.4312L4.2334 18.9996ZM19.4043 5.86089C18.9049 5.36186 18.0952 5.36216 17.5957 5.86089L12 11.4566V15.2691L19.416 7.65874C19.9041 7.15733 19.8991 6.35573 19.4043 5.86089Z" fill="black" fill-opacity="0.9"/>
</g>
</svg>
