<svg width="24" height="24" viewBox="0 0 24 24" fill="none" xmlns="http://www.w3.org/2000/svg">
<g id="icon.24.slides.small">
<path id="Icon" d="M17 6C18.1046 6 19 6.89543 19 8V14C19 15.0357 18.2128 15.887 17.2041 15.9893L17 16H15.3193L15.9814 18.3652C16.0558 18.6311 15.9006 18.9069 15.6348 18.9814C15.3689 19.0558 15.093 18.9006 15.0186 18.6348L14.2812 16H9.71875L8.98145 18.6348C8.90699 18.9006 8.63109 19.0558 8.36523 18.9814C8.0994 18.907 7.94415 18.6311 8.01855 18.3652L8.68066 16H7L6.7959 15.9893C5.85435 15.8938 5.1062 15.1457 5.01074 14.2041L5 14V8C5 6.89543 5.89543 6 7 6H17ZM7 7C6.44772 7 6 7.44772 6 8V14C6 14.5523 6.44772 15 7 15H17C17.5523 15 18 14.5523 18 14V8C18 7.44772 17.5523 7 17 7H7ZM8.5 11.5C9.05228 11.5 9.5 11.9477 9.5 12.5C9.5 13.0523 9.05228 13.5 8.5 13.5C7.94772 13.5 7.5 13.0523 7.5 12.5C7.5 11.9477 7.94772 11.5 8.5 11.5ZM8.5 8.5C9.05228 8.5 9.5 8.94772 9.5 9.5C9.5 10.0523 9.05228 10.5 8.5 10.5C7.94772 10.5 7.5 10.0523 7.5 9.5C7.5 8.94772 7.94772 8.5 8.5 8.5Z" fill="black" fill-opacity="0.9"/>
</g>
</svg>
