<svg width="24" height="24" viewBox="0 0 24 24" fill="none" xmlns="http://www.w3.org/2000/svg">
<g id="icon.24.poll">
<path id="Icon" d="M4.5 4C4.77614 4 5 4.22386 5 4.5V5H13C13.5523 5 14 5.44772 14 6V9H20C20.5523 9 21 9.44772 21 10V13C21 13.5177 20.6067 13.9438 20.1025 13.9951L20 14H17V17C17 17.5177 16.6067 17.9438 16.1025 17.9951L16 18H5V18.5C5 18.7761 4.77614 19 4.5 19C4.22386 19 4 18.7761 4 18.5V4.5C4 4.22386 4.22386 4 4.5 4ZM5 17H16V14H5V17ZM5 13H20V10H5V13ZM5 9H13V6H5V9Z" fill="black" fill-opacity="0.9"/>
</g>
</svg>
