<svg width="24" height="24" viewBox="0 0 24 24" fill="none" xmlns="http://www.w3.org/2000/svg">
<g id="icon.24.figjam.pages">
<path id="Icon" d="M18 4C19.1044 4.00013 20 4.89555 20 6V16C19.9999 17.1044 19.1044 17.9999 18 18C18 19.1046 17.1046 20 16 20H6L5.7959 19.9893C4.78723 19.887 4 19.0356 4 18V8C4.00006 6.9644 4.78726 6.113 5.7959 6.01074L6 6L6.01074 5.7959C6.11319 4.78745 6.96453 4.00005 8 4H18ZM6 7C5.44776 7 5.00007 7.44777 5 8V18C5 18.5523 5.44772 19 6 19H16C16.5523 19 17 18.5523 17 18V17.999H16.999V16.999H17V8C16.9999 7.44777 16.5522 7 16 7H6ZM16 6C17.1045 6 17.9999 6.89549 18 8V17C18.5521 16.9999 18.9997 16.552 19 16V6C18.9999 5.44794 18.552 5.00026 18 5H8C7.44793 5.00009 7.00023 5.44797 7 6H16Z" fill="black" fill-opacity="0.9"/>
</g>
</svg>
