<svg width="24" height="24" viewBox="0 0 24 24" fill="none" xmlns="http://www.w3.org/2000/svg">
<g id="icon.24.adjust">
<path id="Icon" d="M7.5 20C7.77614 20 8 19.7762 8 19.5V17C8 16.9832 7.99675 16.9667 7.99512 16.9502C9.13859 16.7204 10 15.7112 10 14.5C10 13.2888 9.13869 12.2786 7.99512 12.0489C7.99669 12.0327 8 12.0166 8 12V4.50005C8 4.2239 7.77614 4.00005 7.5 4.00005C7.22386 4.00005 7 4.2239 7 4.50005V12C7 12.0166 7.00234 12.0328 7.00391 12.0489C5.8608 12.279 5 13.2892 5 14.5C5 15.7109 5.8609 16.7201 7.00391 16.9502C7.00228 16.9667 7 16.9832 7 17V19.5C7 19.7762 7.22386 20 7.5 20ZM16.5 20C16.7761 20 17 19.7762 17 19.5V12C17 11.9835 16.9967 11.9674 16.9951 11.9512C18.1387 11.7215 19 10.7113 19 9.50005C19 8.2889 18.1386 7.27965 16.9951 7.04985C16.9968 7.03339 17 7.01694 17 7.00005V4.50005C17 4.2239 16.7761 4.00005 16.5 4.00005C16.2239 4.00005 16 4.2239 16 4.50005V7.00005C16 7.0169 16.0023 7.03342 16.0039 7.04985C14.8609 7.28002 14 8.28923 14 9.50005C14 10.7109 14.8608 11.7211 16.0039 11.9512C16.0023 11.9673 16 11.9835 16 12V19.5C16 19.7762 16.2239 20 16.5 20ZM16.5 11C15.6716 11 15 10.3285 15 9.50005C15 8.67162 15.6716 8.00005 16.5 8.00005C17.3284 8.00005 18 8.67162 18 9.50005C18 10.3285 17.3284 11 16.5 11ZM7.5 16C6.67157 16 6 15.3285 6 14.5C6 13.6716 6.67157 13 7.5 13C8.32843 13 9 13.6716 9 14.5C9 15.3285 8.32843 16 7.5 16Z" fill="black" fill-opacity="0.9"/>
</g>
</svg>
