<svg width="24" height="24" viewBox="0 0 24 24" fill="none" xmlns="http://www.w3.org/2000/svg">
<g id="icon.24.small-caps">
<path id="Icon" d="M15.6699 10.0938C15.982 10.0938 16.2734 10.1401 16.543 10.2324C16.8124 10.3229 17.0523 10.4522 17.2627 10.6201C17.475 10.7863 17.6495 10.985 17.7861 11.2158C17.8192 11.2717 17.8494 11.329 17.877 11.3877C18.0157 11.6832 17.761 11.9803 17.4346 11.9805C17.2008 11.9805 17.0032 11.8215 16.8828 11.6211C16.8713 11.602 16.8599 11.5828 16.8477 11.5645C16.7665 11.4427 16.6681 11.3398 16.5537 11.2549C16.4392 11.1681 16.3079 11.1019 16.1602 11.0576C16.0145 11.0116 15.8549 10.9883 15.6816 10.9883C15.3733 10.9883 15.0974 11.0666 14.8555 11.2217C14.6138 11.3768 14.4236 11.6045 14.2852 11.9053C14.1485 12.2044 14.0801 12.5711 14.0801 13.0049C14.0801 13.4388 14.1486 13.8065 14.2852 14.1074C14.4237 14.4084 14.6146 14.638 14.8584 14.7949C15.1021 14.95 15.3848 15.0273 15.7061 15.0273C15.9977 15.0273 16.2507 14.971 16.4648 14.8584C16.6809 14.7439 16.8475 14.5817 16.9639 14.373C17.0765 14.1741 17.1345 13.9407 17.1396 13.6729H15.9316C15.8652 13.6727 15.8115 13.6182 15.8115 13.5518V13.2812C15.8115 13.0648 15.9867 12.8888 16.2031 12.8887H17.4287C17.8003 12.8887 18.1023 13.19 18.1025 13.5615C18.1025 14.0471 17.9987 14.4667 17.792 14.8193C17.587 15.172 17.3033 15.4447 16.9414 15.6367C16.5813 15.8269 16.1673 15.9219 15.7002 15.9219C15.1815 15.9218 14.7253 15.8048 14.332 15.5703C13.9387 15.334 13.6328 14.9973 13.4131 14.5615C13.1934 14.1258 13.083 13.609 13.083 13.0107C13.083 12.5546 13.1481 12.1462 13.2773 11.7861C13.4066 11.4262 13.5868 11.1202 13.8193 10.8691C14.0538 10.6162 14.3287 10.4251 14.6426 10.2939C14.9565 10.161 15.2988 10.0938 15.6699 10.0938ZM9.01855 8.0625C9.36764 8.0625 9.67964 8.28127 9.79883 8.60938L12.1719 15.1426C12.2957 15.4835 12.0434 15.8447 11.6807 15.8447C11.4586 15.8446 11.2609 15.7038 11.1875 15.4941L10.5645 13.7129H7.4707L6.84668 15.4941C6.77322 15.7037 6.57458 15.8447 6.35254 15.8447C5.98999 15.8444 5.73736 15.4834 5.86133 15.1426L8.23828 8.6084C8.35761 8.28056 8.66967 8.06252 9.01855 8.0625ZM9.01855 9.38477C9.00057 9.38483 8.98464 9.39619 8.97852 9.41309L7.79102 12.8008H10.2451L9.05957 9.41309C9.05349 9.39603 9.03668 9.38477 9.01855 9.38477Z" fill="black" fill-opacity="0.9"/>
</g>
</svg>
