<svg width="24" height="24" viewBox="0 0 24 24" fill="none" xmlns="http://www.w3.org/2000/svg">
<g id="icon.24.write">
<path id="Icon" d="M11.5 5.99985C11.7761 5.99985 11.9999 6.22377 12 6.49985C12 6.77599 11.7761 6.99985 11.5 6.99985H7.5C7.22391 6.99985 7.00008 7.22377 7 7.49985V16.4998C7 16.776 7.22386 16.9998 7.5 16.9998H16.5C16.7761 16.9998 17 16.776 17 16.4998V12.4998C17.0001 12.2238 17.2239 11.9998 17.5 11.9998C17.7761 11.9998 17.9999 12.2238 18 12.4998V16.4998C18 17.3283 17.3284 17.9998 16.5 17.9998H7.5C6.67157 17.9998 6 17.3283 6 16.4998V7.49985C6.00008 6.67149 6.67162 5.99985 7.5 5.99985H11.5ZM14.7236 6.35336C15.3094 5.76758 16.2599 5.76758 16.8457 6.35336L17.5527 7.06039C18.1384 7.64606 18.1382 8.59567 17.5527 9.18149L13.1035 13.6307C12.9581 13.776 12.784 13.8903 12.5928 13.9657L10.9043 14.6317C9.89058 15.031 8.88619 14.0323 9.28027 13.0164L9.93945 11.3192C10.0148 11.125 10.13 10.948 10.2773 10.8006L14.7236 6.35336ZM10.9844 11.5077C10.9354 11.5567 10.8972 11.6159 10.8721 11.6805L10.2129 13.3788C10.1346 13.5816 10.3348 13.7811 10.5371 13.702L12.2266 13.036C12.2902 13.0109 12.3481 12.972 12.3965 12.9237L15.7852 9.53598L14.3701 8.12094L10.9844 11.5077ZM16.1387 7.06039C15.9435 6.86525 15.6269 6.86548 15.4316 7.06039L15.0781 7.41391L16.4922 8.82797L16.8457 8.47446C17.0406 8.27917 17.0408 7.96257 16.8457 7.76743L16.1387 7.06039Z" fill="black" fill-opacity="0.9"/>
</g>
</svg>
