<svg width="24" height="24" viewBox="0 0 24 24" fill="none" xmlns="http://www.w3.org/2000/svg">
<g id="icon.24.lock.locked">
<path id="Icon" d="M12 4C14.2091 4 16 5.79086 16 8V10H16.125C17.1605 10 18 10.8395 18 11.875V17.125C18 18.1605 17.1605 19 16.125 19H7.875C6.83947 19 6 18.1605 6 17.125V11.875C6 10.8395 6.83947 10 7.875 10H8V8C8 5.79086 9.79086 4 12 4ZM7.875 11C7.39175 11 7 11.3918 7 11.875V17.125C7 17.6082 7.39175 18 7.875 18H16.125C16.6082 18 17 17.6082 17 17.125V11.875C17 11.3918 16.6082 11 16.125 11H7.875ZM15 8C15 6.34315 13.6569 5 12 5C10.3431 5 9 6.34315 9 8V10H15V8Z" fill="black" fill-opacity="0.9"/>
</g>
</svg>
