<svg width="24" height="24" viewBox="0 0 24 24" fill="none" xmlns="http://www.w3.org/2000/svg">
<g id="icon.24.tint.small">
<path id="Icon" d="M12 4C12.2817 4 12.5507 4.11867 12.7402 4.32715V4.32812L12.7451 4.33301C12.7481 4.33627 12.7525 4.34083 12.7578 4.34668C12.7684 4.35843 12.7833 4.37567 12.8027 4.39746C12.8418 4.44133 12.8987 4.50521 12.9697 4.58691C13.1118 4.75025 13.3128 4.9862 13.5537 5.2793C14.0347 5.8645 14.678 6.68454 15.3232 7.62012C15.9663 8.55252 16.6242 9.61872 17.125 10.6953C17.6182 11.7558 18 12.9116 18 14C18 17.3137 15.3137 20 12 20C8.68629 20 6 17.3137 6 14C6 12.9116 6.38177 11.7558 6.875 10.6953C7.37577 9.61872 8.03373 8.55252 8.67676 7.62012C9.32198 6.68454 9.9653 5.8645 10.4463 5.2793C10.6872 4.9862 10.8882 4.75025 11.0303 4.58691C11.1013 4.50521 11.1582 4.44133 11.1973 4.39746C11.2167 4.37567 11.2316 4.35843 11.2422 4.34668C11.2475 4.34083 11.2519 4.33627 11.2549 4.33301L11.2598 4.32812V4.32715L11.335 4.25293C11.5172 4.09073 11.7536 4 12 4ZM7 14C7 16.7614 9.23858 19 12 19C14.7614 19 17 16.7614 17 14H7ZM12 5C12 5 7.87052 9.54417 7.11816 13H16.8818C16.1295 9.54417 12 5 12 5Z" fill="black" fill-opacity="0.9"/>
<path id="Secondary Fill" d="M12 19C14.7614 19 17 16.7614 17 14H7C7 16.7614 9.23858 19 12 19Z" fill="black" fill-opacity="0.3"/>
</g>
</svg>
