<svg width="24" height="24" viewBox="0 0 24 24" fill="none" xmlns="http://www.w3.org/2000/svg">
<g id="icon.24.filter">
<path id="Icon" d="M12.4062 4.11074C16.5803 4.32239 19.8994 7.77373 19.8994 12.0004L19.8896 12.4066C19.678 16.5806 16.2265 19.8996 12 19.8998L11.5928 19.89C7.55348 19.6851 4.31517 16.446 4.11035 12.4066L4.09961 12.0004C4.09961 7.63734 7.63695 4.1 12 4.1L12.4062 4.11074ZM12 5.1C8.18924 5.1 5.09961 8.18963 5.09961 12.0004C5.09982 15.811 8.18937 18.8998 12 18.8998C15.8105 18.8996 18.8992 15.8108 18.8994 12.0004C18.8994 8.18976 15.8106 5.10021 12 5.1ZM13.5 15.0004C13.776 15.0006 14 15.2244 14 15.5004C13.9998 15.7762 13.7758 16.0002 13.5 16.0004H10.5C10.224 16.0004 10.0002 15.7764 10 15.5004C10 15.2242 10.2239 15.0004 10.5 15.0004H13.5ZM14.5 12.0004C14.776 12.0006 15 12.2244 15 12.5004C14.9998 12.7762 14.7758 13.0002 14.5 13.0004H9.5C9.22399 13.0004 9.00021 12.7764 9 12.5004C9 12.2242 9.22386 12.0004 9.5 12.0004H14.5ZM15.5 9.00039C15.776 9.0006 16 9.22438 16 9.50039C15.9998 9.77622 15.7758 10.0002 15.5 10.0004H8.5C8.22399 10.0004 8.00021 9.77635 8 9.50039C8 9.22425 8.22386 9.00039 8.5 9.00039H15.5Z" fill="black" fill-opacity="0.9"/>
</g>
</svg>
