<svg width="24" height="24" viewBox="0 0 24 24" fill="none" xmlns="http://www.w3.org/2000/svg">
<g id="icon.24.figjam.small">
<path id="Icon" d="M6.16406 5.01367L9.16406 5.51367C9.36964 5.54794 9.55966 5.6456 9.70703 5.79297L18.3535 14.4395C18.9393 15.0252 18.9393 15.9748 18.3535 16.5605L16.5605 18.3535C16.0114 18.9026 15.1429 18.9365 14.5537 18.4561L14.4395 18.3535L5.79297 9.70703C5.68248 9.59654 5.59961 9.46237 5.55078 9.31543L5.51367 9.16406L5.01367 6.16406C4.96071 5.84561 5.06469 5.52125 5.29297 5.29297C5.52125 5.06469 5.84561 4.96071 6.16406 5.01367ZM8.10352 10.6035L15.1465 17.6465C15.3417 17.8417 15.6583 17.8417 15.8535 17.6465L17.6465 15.8535L17.7109 15.7754C17.8391 15.5813 17.8173 15.3173 17.6465 15.1465L10.6035 8.10352L8.10352 10.6035ZM6.5 9L7.39648 9.89648L9.89648 7.39648L9 6.5L6 6L6.5 9Z" fill="black" fill-opacity="0.9"/>
</g>
</svg>
