<svg width="24" height="24" viewBox="0 0 24 24" fill="none" xmlns="http://www.w3.org/2000/svg">
<g id="icon.24.missing-font.small">
<path id="Icon" d="M18 6C19.1046 6 20 6.89543 20 8V16L19.9893 16.2041C19.887 17.2128 19.0357 18 18 18H6C4.96435 18 4.113 17.2128 4.01074 16.2041L4 16V8C4 6.89543 4.89543 6 6 6H18ZM6 7C5.48232 7 5.05621 7.39333 5.00488 7.89746L5 8V16C5 16.5523 5.44772 17 6 17H18C18.5523 17 19 16.5523 19 16V8C19 7.44772 18.5523 7 18 7H6ZM14.6143 13.8184C14.7827 13.8184 14.9287 13.8789 15.0518 14C15.1768 14.1212 15.2393 14.267 15.2393 14.4375C15.2393 14.553 15.2101 14.6582 15.1514 14.7529C15.0946 14.8475 15.0194 14.9237 14.9248 14.9805C14.832 15.0354 14.7279 15.0625 14.6143 15.0625C14.4441 15.0624 14.2977 15.0018 14.1748 14.8809C14.0517 14.7596 13.9893 14.6117 13.9893 14.4375C13.9893 14.267 14.0517 14.1212 14.1748 14C14.2978 13.879 14.4441 13.8185 14.6143 13.8184ZM12.5967 15H11.4717L10.9902 13.5654H8.80273L8.32129 15H7.19629L9.24414 9.18164H10.5459L12.5967 15ZM14.748 9.10254C15.1098 9.10254 15.4285 9.16607 15.7031 9.29297C15.9794 9.41982 16.1943 9.60032 16.3477 9.83496C16.503 10.0679 16.5811 10.345 16.5811 10.665C16.581 10.8808 16.5456 11.0738 16.4756 11.2441C16.4074 11.4146 16.3095 11.5666 16.1826 11.6992C16.0559 11.8316 15.9054 11.9497 15.7314 12.0537C15.578 12.1484 15.452 12.2473 15.3535 12.3496C15.257 12.4518 15.185 12.5718 15.1377 12.71C15.0922 12.8463 15.0683 13.0151 15.0664 13.2158V13.29H14.1201V13.2158C14.122 12.8731 14.1543 12.6001 14.2168 12.3975C14.2811 12.1951 14.372 12.0322 14.4893 11.9092C14.6067 11.7842 14.7504 11.6696 14.9189 11.5654C15.0344 11.4935 15.1376 11.4143 15.2285 11.3291C15.3211 11.2421 15.3943 11.1459 15.4473 11.04C15.5003 10.9321 15.5264 10.8113 15.5264 10.6787C15.5263 10.5294 15.4918 10.3998 15.4219 10.29C15.3518 10.1803 15.2569 10.0948 15.1377 10.0342C15.0203 9.97357 14.888 9.94336 14.7422 9.94336C14.608 9.94342 14.4804 9.97268 14.3594 10.0312C14.2401 10.0881 14.1401 10.1755 14.0605 10.293C13.983 10.4084 13.9391 10.5555 13.9297 10.7334H12.9189C12.9284 10.3735 13.0149 10.0715 13.1797 9.8291C13.3463 9.58682 13.5663 9.40537 13.8389 9.28418C14.1134 9.16299 14.4167 9.10257 14.748 9.10254ZM9.08594 12.7188H10.7051L9.91797 10.375H9.87207L9.08594 12.7188Z" fill="black" fill-opacity="0.9"/>
</g>
</svg>
