<svg width="24" height="24" viewBox="0 0 24 24" fill="none" xmlns="http://www.w3.org/2000/svg">
<g id="icon.24.size.small">
<path id="Icon" d="M7.5 9.00006C7.77614 9.00006 8 9.22392 8 9.50006C8 9.7762 7.77614 10.0001 7.5 10.0001H7V17.0001H7.5C7.77614 17.0001 8 17.2239 8 17.5001C8 17.7762 7.77614 18.0001 7.5 18.0001H5.5C5.22386 18.0001 5 17.7762 5 17.5001C5 17.2239 5.22386 17.0001 5.5 17.0001H6V10.0001H5.5C5.22386 10.0001 5 9.7762 5 9.50006C5 9.22392 5.22386 9.00006 5.5 9.00006H7.5ZM9.5 16.0001C9.74171 16.0001 9.94371 16.1715 9.99023 16.3995L10.0098 16.6006C10.0497 16.7961 10.2039 16.9504 10.3994 16.9903L10.6006 17.0098C10.8286 17.0564 11 17.2583 11 17.5001C11 17.7762 10.7761 18.0001 10.5 18.0001C9.72334 18.0001 9.08461 17.4098 9.00781 16.6534L9 16.5001C9 16.2239 9.22386 16.0001 9.5 16.0001ZM14.5 17.0001C14.7761 17.0001 15 17.2239 15 17.5001C15 17.7762 14.7761 18.0001 14.5 18.0001H12.5C12.2239 18.0001 12 17.7762 12 17.5001C12 17.2239 12.2239 17.0001 12.5 17.0001H14.5ZM17.5 16.0001C17.7761 16.0001 18 16.2239 18 16.5001L17.9922 16.6534C17.9205 17.3594 17.3593 17.9206 16.6533 17.9922L16.5 18.0001C16.2239 18.0001 16 17.7762 16 17.5001C16 17.2583 16.1714 17.0564 16.3994 17.0098L16.6006 16.9903C16.7961 16.9504 16.9503 16.7961 16.9902 16.6006L17.0098 16.3995C17.0563 16.1715 17.2583 16.0001 17.5 16.0001ZM9.5 12.0001C9.77614 12.0001 10 12.2239 10 12.5001V14.5001C10 14.7762 9.77614 15.0001 9.5 15.0001C9.22386 15.0001 9 14.7762 9 14.5001V12.5001C9 12.2239 9.22386 12.0001 9.5 12.0001ZM17.5 12.0001C17.7761 12.0001 18 12.2239 18 12.5001V14.5001C18 14.7762 17.7761 15.0001 17.5 15.0001C17.2239 15.0001 17 14.7762 17 14.5001V12.5001C17 12.2239 17.2239 12.0001 17.5 12.0001ZM10.5 9.00006C10.7761 9.00006 11 9.22392 11 9.50006C11 9.74177 10.8286 9.94377 10.6006 9.9903L10.3994 10.0098C10.2039 10.0497 10.0497 10.204 10.0098 10.3995L9.99023 10.6006C9.94371 10.8286 9.74171 11.0001 9.5 11.0001C9.22386 11.0001 9 10.7762 9 10.5001C9 9.67163 9.67157 9.00006 10.5 9.00006ZM16.6533 9.00787C17.4097 9.08467 18 9.7234 18 10.5001C18 10.7762 17.7761 11.0001 17.5 11.0001C17.2583 11.0001 17.0563 10.8286 17.0098 10.6006L16.9902 10.3995C16.9503 10.204 16.7961 10.0497 16.6006 10.0098L16.3994 9.9903C16.1714 9.94377 16 9.74177 16 9.50006C16 9.22392 16.2239 9.00006 16.5 9.00006L16.6533 9.00787ZM14.5 9.00006C14.7761 9.00006 15 9.22392 15 9.50006C15 9.7762 14.7761 10.0001 14.5 10.0001H12.5C12.2239 10.0001 12 9.7762 12 9.50006C12 9.22392 12.2239 9.00006 12.5 9.00006H14.5ZM17.5 5.00006C17.7761 5.00006 18 5.22392 18 5.50006V7.50006C18 7.7762 17.7761 8.00006 17.5 8.00006C17.2239 8.00006 17 7.7762 17 7.50006V7.00006H10V7.50006C10 7.7762 9.77614 8.00006 9.5 8.00006C9.22386 8.00006 9 7.7762 9 7.50006V5.50006C9 5.22392 9.22386 5.00006 9.5 5.00006C9.77614 5.00006 10 5.22392 10 5.50006V6.00006H17V5.50006C17 5.22392 17.2239 5.00006 17.5 5.00006Z" fill="black" fill-opacity="0.9"/>
</g>
</svg>
