<svg width="24" height="24" viewBox="0 0 24 24" fill="none" xmlns="http://www.w3.org/2000/svg">
<g id="icon.24.home">
<path id="Icon" d="M11.4219 3.18499C11.7925 2.92181 12.2994 2.94075 12.6504 3.24163L19.6504 9.24163C19.8719 9.43161 20 9.70859 20 10.0004V19.0004C19.9998 19.5525 19.5521 20.0004 19 20.0004H15C14.4479 20.0004 14.0002 19.5525 14 19.0004V13.0004H10V19.0004C9.99977 19.5525 9.55215 20.0004 9 20.0004H5C4.44785 20.0004 4.00023 19.5525 4 19.0004V10.0004C4 9.70859 4.12809 9.43161 4.34961 9.24163L11.3496 3.24163L11.4219 3.18499ZM5 10.0004V19.0004H9V13.0004C9 12.4481 9.44772 12.0004 10 12.0004H14C14.5523 12.0004 15 12.4481 15 13.0004V19.0004H19V10.0004L12 4.00042L5 10.0004Z" fill="black" fill-opacity="0.9"/>
</g>
</svg>
