<svg width="24" height="24" viewBox="0 0 24 24" fill="none" xmlns="http://www.w3.org/2000/svg">
<g id="icon.24.zoom.in.small">
<path id="Icon" d="M10.5 5.00002C13.5376 5.00002 16 7.46246 16 10.5C16 11.8512 15.5115 13.0875 14.7031 14.0449C14.7574 14.0692 14.8089 14.102 14.8535 14.1465L17.8535 17.1465C18.0488 17.3418 18.0488 17.6583 17.8535 17.8535C17.6582 18.0487 17.3417 18.0488 17.1465 17.8535L14.1465 14.8535C14.102 14.809 14.0691 14.7574 14.0449 14.7031C13.0875 15.5115 11.8512 16 10.5 16C7.46243 16 5 13.5376 5 10.5C5 7.46246 7.46243 5.00002 10.5 5.00002ZM10.5 6.00002C8.01472 6.00002 6 8.01474 6 10.5C6 12.9853 8.01472 15 10.5 15C12.9853 15 15 12.9853 15 10.5C15 8.01474 12.9853 6.00002 10.5 6.00002ZM10.5 8.00002C10.7761 8.00002 11 8.22388 11 8.50002V10H12.5C12.7761 10 13 10.2239 13 10.5C13 10.7762 12.7761 11 12.5 11H11V12.5C11 12.7762 10.7761 13 10.5 13C10.2239 13 10 12.7762 10 12.5V11H8.5C8.22386 11 8 10.7762 8 10.5C8 10.2239 8.22386 10 8.5 10H10V8.50002C10 8.22388 10.2239 8.00002 10.5 8.00002Z" fill="black" fill-opacity="0.9"/>
</g>
</svg>
