<svg width="24" height="24" viewBox="0 0 24 24" fill="none" xmlns="http://www.w3.org/2000/svg">
<g id="icon.24.sound.off.small">
<path id="Icon" d="M15 17.9998C15 18.4042 14.7564 18.7688 14.3828 18.9236C14.0091 19.0784 13.579 18.9928 13.293 18.7068L10.5859 15.9998H10.1211L11.0605 15.0603L14 17.9998V12.1209L15 11.1209V17.9998ZM17.1465 6.14625C17.3417 5.95114 17.6583 5.95114 17.8535 6.14625C18.0487 6.34147 18.0487 6.65801 17.8535 6.85328L6.85352 17.8533C6.65825 18.0485 6.34175 18.0485 6.14648 17.8533C5.95134 17.658 5.95126 17.3415 6.14648 17.1462L17.1465 6.14625ZM13.293 5.29273C13.579 5.00675 14.0091 4.92116 14.3828 5.07594C14.7564 5.23074 15 5.59536 15 5.99976V6.87867L14 7.87867V5.99976L11 8.99976H7.5C7.22395 8.99976 7.00015 9.22375 7 9.49976V14.4998C7 14.6066 7.0337 14.7056 7.09082 14.7869L6.38086 15.4968C6.1445 15.2317 6 14.8829 6 14.4998V9.49976C6.00041 8.67231 6.67119 7.99976 7.5 7.99976H10.5859L13.293 5.29273Z" fill="black" fill-opacity="0.9"/>
</g>
</svg>
