<svg width="24" height="24" viewBox="0 0 24 24" fill="none" xmlns="http://www.w3.org/2000/svg">
<g id="icon.24.mic.mute.small">
<path id="Icon" d="M16 11C16.2761 11 16.5 11.2239 16.5 11.5V12C16.5 14.3162 14.7499 16.2219 12.5 16.4707V18H14.5C14.7761 18 15 18.2239 15 18.5C15 18.7761 14.7761 19 14.5 19H9.5C9.22386 19 9 18.7761 9 18.5C9 18.2239 9.22386 18 9.5 18H11.5V16.4707C10.9895 16.4142 10.505 16.2721 10.0605 16.0596L10.8232 15.2969C11.191 15.4282 11.5871 15.5 12 15.5C13.933 15.5 15.5 13.933 15.5 12V11.5C15.5 11.2239 15.7239 11 16 11ZM17.1465 6.14648C17.3417 5.95122 17.6583 5.95122 17.8535 6.14648C18.0488 6.34175 18.0488 6.65825 17.8535 6.85352L6.85352 17.8535C6.65825 18.0488 6.34175 18.0488 6.14648 17.8535C5.95122 17.6583 5.95122 17.3417 6.14648 17.1465L17.1465 6.14648ZM8 11C8.27614 11 8.5 11.2239 8.5 11.5V12C8.5 12.4125 8.57113 12.8083 8.70215 13.1758L7.93945 13.9385C7.65851 13.3514 7.5 12.6944 7.5 12V11.5C7.5 11.2239 7.72386 11 8 11ZM12 5C13.1046 5 14 5.89543 14 7V7.87891L13 8.87891V7C13 6.44772 12.5523 6 12 6C11.4477 6 11 6.44772 11 7V10.8789L10 11.8789V7C10 5.89543 10.8954 5 12 5Z" fill="black" fill-opacity="0.9"/>
</g>
</svg>
