<svg width="24" height="24" viewBox="0 0 24 24" fill="none" xmlns="http://www.w3.org/2000/svg">
<g id="icon.24.sun.small">
<path id="Icon" d="M12 17C12.2761 17 12.5 17.2239 12.5 17.5V18.5C12.5 18.7761 12.2761 19 12 19C11.7239 19 11.5 18.7761 11.5 18.5V17.5C11.5 17.2239 11.7239 17 12 17ZM7.75781 15.5352C7.95301 15.3402 8.26964 15.3402 8.46484 15.5352C8.66011 15.7304 8.66011 16.0479 8.46484 16.2432L7.75781 16.9502C7.56262 17.1452 7.24601 17.1452 7.05078 16.9502C6.85558 16.755 6.85569 16.4384 7.05078 16.2432L7.75781 15.5352ZM15.5352 15.5352C15.7304 15.3402 16.047 15.3402 16.2422 15.5352L16.9492 16.2432C17.1443 16.4384 17.1444 16.755 16.9492 16.9502C16.754 17.1452 16.4374 17.1452 16.2422 16.9502L15.5352 16.2432C15.3399 16.0479 15.3399 15.7304 15.5352 15.5352ZM12 8C14.2091 8 16 9.79086 16 12C16 14.2091 14.2091 16 12 16C9.79086 16 8 14.2091 8 12C8 9.79086 9.79086 8 12 8ZM12 9C10.3431 9 9 10.3431 9 12C9 13.6569 10.3431 15 12 15C13.6569 15 15 13.6569 15 12C15 10.3431 13.6569 9 12 9ZM6.5 11.5C6.77614 11.5 7 11.7239 7 12C7 12.2761 6.77614 12.5 6.5 12.5H5.5C5.22386 12.5 5 12.2761 5 12C5 11.7239 5.22386 11.5 5.5 11.5H6.5ZM18.5 11.5C18.7761 11.5 19 11.7239 19 12C19 12.2761 18.7761 12.5 18.5 12.5H17.5C17.2239 12.5 17 12.2761 17 12C17 11.7239 17.2239 11.5 17.5 11.5H18.5ZM7.0498 7.0498C7.24501 6.85487 7.56164 6.85487 7.75684 7.0498L8.46387 7.75781C8.65896 7.95309 8.65907 8.26964 8.46387 8.46484C8.26864 8.65981 7.95203 8.65986 7.75684 8.46484L7.0498 7.75781C6.85454 7.56255 6.85454 7.24507 7.0498 7.0498ZM16.2432 7.0498C16.4384 6.85487 16.755 6.85487 16.9502 7.0498C17.1455 7.24507 17.1455 7.56255 16.9502 7.75781L16.2432 8.46484C16.048 8.65986 15.7314 8.65981 15.5361 8.46484C15.3409 8.26964 15.341 7.95309 15.5361 7.75781L16.2432 7.0498ZM12 5C12.2761 5 12.5 5.22386 12.5 5.5V6.5C12.5 6.77614 12.2761 7 12 7C11.7239 7 11.5 6.77614 11.5 6.5V5.5C11.5 5.22386 11.7239 5 12 5Z" fill="black" fill-opacity="0.9"/>
</g>
</svg>
