<svg width="24" height="24" viewBox="0 0 24 24" fill="none" xmlns="http://www.w3.org/2000/svg">
<g id="icon.24.border-top.small">
<path id="Icon" d="M7.5 15.5C7.77614 15.5 8 15.7239 8 16C8.27614 16 8.5 16.2239 8.5 16.5C8.5 16.7761 8.27614 17 8 17C7.44772 17 7 16.5523 7 16C7 15.7239 7.22386 15.5 7.5 15.5ZM11 16C11.2761 16 11.5 16.2239 11.5 16.5C11.5 16.7761 11.2761 17 11 17H10C9.72386 17 9.5 16.7761 9.5 16.5C9.5 16.2239 9.72386 16 10 16H11ZM14 16C14.2761 16 14.5 16.2239 14.5 16.5C14.5 16.7761 14.2761 17 14 17H13C12.7239 17 12.5 16.7761 12.5 16.5C12.5 16.2239 12.7239 16 13 16H14ZM16.5 15.5C16.7761 15.5 17 15.7239 17 16C17 16.5523 16.5523 17 16 17C15.7239 17 15.5 16.7761 15.5 16.5C15.5 16.2239 15.7239 16 16 16C16 15.7239 16.2239 15.5 16.5 15.5ZM7.5 12.5C7.77614 12.5 8 12.7239 8 13V14C8 14.2761 7.77614 14.5 7.5 14.5C7.22386 14.5 7 14.2761 7 14V13C7 12.7239 7.22386 12.5 7.5 12.5ZM16.5 12.5C16.7761 12.5 17 12.7239 17 13V14C17 14.2761 16.7761 14.5 16.5 14.5C16.2239 14.5 16 14.2761 16 14V13C16 12.7239 16.2239 12.5 16.5 12.5ZM7.5 9.5C7.77614 9.5 8 9.72386 8 10V11C8 11.2761 7.77614 11.5 7.5 11.5C7.22386 11.5 7 11.2761 7 11V10C7 9.72386 7.22386 9.5 7.5 9.5ZM16.5 9.5C16.7761 9.5 17 9.72386 17 10V11C17 11.2761 16.7761 11.5 16.5 11.5C16.2239 11.5 16 11.2761 16 11V10C16 9.72386 16.2239 9.5 16.5 9.5ZM17 6C17.5523 6 18 6.44772 18 7V8L17.9951 8.10254C17.9438 8.60667 17.5177 9 17 9H7C6.44772 9 6 8.55228 6 8V7C6 6.44772 6.44772 6 7 6H17ZM7 8H17V7H7V8Z" fill="black" fill-opacity="0.9"/>
</g>
</svg>
