<svg width="24" height="24" viewBox="0 0 24 24" fill="none" xmlns="http://www.w3.org/2000/svg">
<g id="icon.24.temperature.small">
<g id="Group 14722">
<path id="Secondary Fill" d="M13 14.209C13.8828 14.5948 14.5 15.475 14.5 16.5C14.5 17.8807 13.3807 19 12 19C10.6193 19 9.5 17.8807 9.5 16.5C9.5 15.475 10.1172 14.5948 11 14.209V11H13V14.209Z" fill="black" fill-opacity="0.3"/>
<path id="Icon" d="M12 4C13.1046 4 14 4.89543 14 6V13.6318C14.9045 14.2632 15.5 15.3102 15.5 16.5C15.5 18.433 13.933 20 12 20C10.067 20 8.5 18.433 8.5 16.5C8.5 15.3102 9.09553 14.2632 10 13.6318V6C10 4.89543 10.8954 4 12 4ZM11 14.1924L10.751 14.3369C10.0023 14.7705 9.5 15.5765 9.5 16.5C9.5 17.8807 10.6193 19 12 19C13.3807 19 14.5 17.8807 14.5 16.5C14.5 15.5765 13.9977 14.7705 13.249 14.3369L13 14.1924V11H11V14.1924ZM18.5 12C18.7761 12 19 12.2239 19 12.5C19 12.7761 18.7761 13 18.5 13H16.5C16.2239 13 16 12.7761 16 12.5C16 12.2239 16.2239 12 16.5 12H18.5ZM12 5C11.4477 5 11 5.44772 11 6V10H13V6C13 5.44772 12.5523 5 12 5ZM18.5 9C18.7761 9 19 9.22386 19 9.5C19 9.77614 18.7761 10 18.5 10H16.5C16.2239 10 16 9.77614 16 9.5C16 9.22386 16.2239 9 16.5 9H18.5ZM18.5 6C18.7761 6 19 6.22386 19 6.5C19 6.77614 18.7761 7 18.5 7H16.5C16.2239 7 16 6.77614 16 6.5C16 6.22386 16.2239 6 16.5 6H18.5Z" fill="black" fill-opacity="0.9"/>
</g>
</g>
</svg>
