<svg width="24" height="24" viewBox="0 0 24 24" fill="none" xmlns="http://www.w3.org/2000/svg">
<g id="icon.24.al.layout-vertical-up">
<path id="Icon" d="M12.5 7C12.633 7 12.7616 7.0532 12.8555 7.14746L16.0977 10.4043C16.2924 10.6 16.2913 10.9165 16.0957 11.1113C15.9001 11.3061 15.5835 11.3059 15.3887 11.1104L13 8.71094V15.5C13 15.7761 12.7761 16 12.5 16C12.2241 15.9998 12.001 15.776 12.001 15.5V8.71094L9.6123 11.1104C9.41749 11.3058 9.10092 11.306 8.90527 11.1113C8.70971 10.9165 8.70855 10.6 8.90332 10.4043L12.1455 7.14746C12.2392 7.05331 12.3672 7.00012 12.5 7Z" fill="black" fill-opacity="0.9"/>
</g>
</svg>
