<svg width="24" height="24" viewBox="0 0 24 24" fill="none" xmlns="http://www.w3.org/2000/svg">
<g id="icon.24.design">
<path id="Icon" d="M6.45996 4.68219C5.37569 4.37261 4.37289 5.37531 4.68262 6.45953L6.64844 13.3326C7.1909 15.868 9.43806 17.7707 12.1318 17.7711C12.5981 17.7711 13.0516 17.713 13.4844 17.605C13.5632 17.5855 13.6226 17.6099 13.6514 17.6382L14.8691 18.8599H14.8701C15.5529 19.5439 16.6599 19.5438 17.3428 18.8599L18.8623 17.3375H18.8633C19.5451 16.6536 19.5451 15.5447 18.8633 14.8609H18.8623L17.623 13.6197C17.5949 13.5913 17.5702 13.5319 17.5889 13.4537C17.6886 13.035 17.7422 12.5982 17.7422 12.149C17.7421 9.63863 16.1002 7.51389 13.834 6.79156L13.6133 6.72614L13.6182 6.72809C13.6165 6.72757 13.614 6.72659 13.6123 6.72614L6.45996 4.68219ZM13.3438 7.68903C13.3453 7.68947 13.3471 7.69048 13.3486 7.69098C15.3038 8.22607 16.7421 10.0189 16.7422 12.149C16.7422 12.5185 16.6983 12.8779 16.6162 13.2222C16.5268 13.5975 16.614 14.0239 16.915 14.3257L18.1543 15.5679C18.4469 15.8615 18.4469 16.3369 18.1543 16.6304L16.6357 18.1529C16.3435 18.4456 15.8703 18.4457 15.5781 18.1529L14.3594 16.9322C14.0541 16.6265 13.6213 16.5398 13.2422 16.6343C12.8865 16.723 12.5144 16.7711 12.1318 16.7711C9.91031 16.7707 8.05286 15.1936 7.61816 13.0933L7.61523 13.0757L7.60938 13.0572L5.72656 6.47321L10.1465 10.8531C10.0527 11.0489 9.99905 11.268 9.99902 11.4996C9.99902 12.3278 10.6708 12.9993 11.499 12.9996C12.3275 12.9996 12.999 12.328 12.999 11.4996C12.9989 10.6712 12.3274 9.99957 11.499 9.99957C11.2678 9.99964 11.0491 10.0535 10.8535 10.147L10.8506 10.1441L6.35938 5.69293L13.3438 7.68903ZM11.499 10.9996C11.7751 10.9996 11.9989 11.2235 11.999 11.4996C11.999 11.7757 11.7752 11.9996 11.499 11.9996C11.2231 11.9993 10.999 11.7756 10.999 11.4996C10.9991 11.2237 11.2231 10.9998 11.499 10.9996ZM12.9824 7.19C12.9763 7.38683 13.0898 7.61659 13.3438 7.68903L13.2471 7.65192C13.0569 7.55728 12.974 7.37171 12.9824 7.19ZM13.9775 7.27008L13.9766 7.27301C13.9787 7.25683 13.9788 7.24049 13.9795 7.22418C13.9791 7.23967 13.9794 7.25508 13.9775 7.27008ZM13.3086 6.73883C13.1518 6.79572 13.0459 6.92599 13.0029 7.06207C13.0529 6.89319 13.1867 6.74965 13.3906 6.71637L13.3086 6.73883Z" fill="black" fill-opacity="0.9"/>
</g>
</svg>
