<svg width="24" height="24" viewBox="0 0 24 24" fill="none" xmlns="http://www.w3.org/2000/svg">
<g id="icon.24.text.resize-width">
<path id="Icon" d="M14.1465 8.14648C14.3417 7.95122 14.6583 7.95122 14.8535 8.14648L17.8535 11.1465C17.9473 11.2403 18 11.3674 18 11.5C18 11.6326 17.9473 11.7597 17.8535 11.8535L14.8535 14.8535C14.6583 15.0488 14.3417 15.0488 14.1465 14.8535C13.9512 14.6583 13.9512 14.3417 14.1465 14.1465L16.293 12H7.70703L9.85352 14.1465C10.0487 14.3417 10.0487 14.6582 9.85352 14.8535C9.65825 15.0488 9.34175 15.0488 9.14648 14.8535L6.14648 11.8535C5.95134 11.6582 5.95126 11.3417 6.14648 11.1465L9.14648 8.14648C9.34172 7.95138 9.65828 7.95138 9.85352 8.14648C10.0487 8.34171 10.0487 8.65824 9.85352 8.85352L7.70703 11H16.293L14.1465 8.85352C13.9512 8.65825 13.9512 8.34175 14.1465 8.14648Z" fill="black" fill-opacity="0.9"/>
</g>
</svg>
