<svg width="24" height="24" viewBox="0 0 24 24" fill="none" xmlns="http://www.w3.org/2000/svg">
<g id="icon.24.play.on.rectangle">
<path id="Icon" d="M15 5C16.1046 5 17 5.89543 17 7V8H19C20.1046 8 21 8.89543 21 10V17L20.9893 17.2041C20.8938 18.1457 20.1457 18.8938 19.2041 18.9893L19 19H9L8.7959 18.9893C7.85435 18.8938 7.1062 18.1457 7.01074 17.2041L7 17V16H5L4.7959 15.9893C3.85435 15.8938 3.1062 15.1457 3.01074 14.2041L3 14V7C3 5.89543 3.89543 5 5 5H15ZM9 9C8.48232 9 8.05621 9.39333 8.00488 9.89746L8 10V17C8 17.5523 8.44772 18 9 18H19C19.5523 18 20 17.5523 20 17V10C20 9.44772 19.5523 9 19 9H9ZM12 11.9023C12 11.1169 12.8642 10.6374 13.5303 11.0537L16.0869 12.6523C16.7131 13.0441 16.7131 13.9559 16.0869 14.3477L13.5303 15.9463C12.8642 16.3626 12 15.8831 12 15.0977V11.9023ZM13 15.0977L15.5566 13.5L13 11.9023V15.0977ZM5 6C4.48232 6 4.05621 6.39333 4.00488 6.89746L4 7V14C4 14.5523 4.44772 15 5 15H7V10C7 8.89543 7.89543 8 9 8H16V7C16 6.44772 15.5523 6 15 6H5Z" fill="black" fill-opacity="0.9"/>
</g>
</svg>
