<svg width="24" height="24" viewBox="0 0 24 24" fill="none" xmlns="http://www.w3.org/2000/svg">
<g id="icon.24.layout-tidy-up-list-horizontal">
<path id="Icon" d="M7.25 5C7.66421 5 8 5.33579 8 5.75V17.25C8 17.6642 7.66421 18 7.25 18H6.75C6.33579 18 6 17.6642 6 17.25V5.75C6 5.33579 6.33579 5 6.75 5H7.25ZM12.25 5C12.6642 5 13 5.33579 13 5.75V17.25C13 17.6642 12.6642 18 12.25 18H11.75C11.3358 18 11 17.6642 11 17.25V5.75C11 5.33579 11.3358 5 11.75 5H12.25ZM17.25 5C17.6642 5 18 5.33579 18 5.75V17.25C18 17.6642 17.6642 18 17.25 18H16.75C16.3358 18 16 17.6642 16 17.25V5.75C16 5.33579 16.3358 5 16.75 5H17.25Z" fill="black" fill-opacity="0.9"/>
</g>
</svg>
