<svg width="24" height="24" viewBox="0 0 24 24" fill="none" xmlns="http://www.w3.org/2000/svg">
<g id="icon.24.author.small">
<path id="Icon" d="M15.8691 10.7246C16.2619 10.4043 16.8409 10.4269 17.207 10.793L18.707 12.293C19.0976 12.6835 19.0976 13.3165 18.707 13.707L13.707 18.707C13.5195 18.8946 13.2652 19 13 19H11.5C10.9477 19 10.5 18.5523 10.5 18V16.5C10.5 16.2348 10.6054 15.9805 10.793 15.793L15.793 10.793L15.8691 10.7246ZM11.5 16.5V18H13L18 13L16.5 11.5L11.5 16.5ZM10 12C10.8584 12 11.5755 12.1107 12.1738 12.29L11.3467 13.1172C10.958 13.044 10.5121 13 10 13C8.11362 13 7.12213 13.5849 6.60352 14.1035C6.33859 14.3684 6.1826 14.6309 6.09375 14.8213C6.04942 14.9163 6.02142 14.9935 6.00586 15.043C5.99819 15.0674 5.99365 15.0851 5.99121 15.0947C5.99072 15.0967 5.99054 15.0983 5.99023 15.0996V15.0986C5.93585 15.369 5.6728 15.5441 5.40234 15.4902C5.13169 15.4361 4.95585 15.173 5.00977 14.9023L5.5 15C5.02854 14.9057 5.01039 14.9019 5.00977 14.9014V14.9004L5.01074 14.8984C5.01099 14.8973 5.01141 14.896 5.01172 14.8945C5.01239 14.8914 5.01269 14.8872 5.01367 14.8828C5.01564 14.8741 5.01814 14.8628 5.02148 14.8496C5.02831 14.8227 5.03903 14.7858 5.05273 14.7422C5.08013 14.6551 5.1227 14.5363 5.1875 14.3975C5.31742 14.1191 5.53658 13.7564 5.89648 13.3965C6.62787 12.6651 7.88638 12 10 12ZM10 5C11.6569 5 13 6.34315 13 8C13 9.65685 11.6569 11 10 11C8.34315 11 7 9.65685 7 8C7 6.34315 8.34315 5 10 5ZM10 6C8.89543 6 8 6.89543 8 8C8 9.10457 8.89543 10 10 10C11.1046 10 12 9.10457 12 8C12 6.89543 11.1046 6 10 6Z" fill="black" fill-opacity="0.9"/>
</g>
</svg>
