<svg width="24" height="24" viewBox="0 0 24 24" fill="none" xmlns="http://www.w3.org/2000/svg">
<g id="icon.24.frame.small">
<path id="Icon" d="M15.5 6C15.7761 6 16 6.22386 16 6.5V8H17.5C17.7761 8 18 8.22386 18 8.5C18 8.77614 17.7761 9 17.5 9H16V15H17.5C17.7761 15 18 15.2239 18 15.5C18 15.7761 17.7761 16 17.5 16H16V17.5C16 17.7761 15.7761 18 15.5 18C15.2239 18 15 17.7761 15 17.5V16H9V17.5C9 17.7761 8.77614 18 8.5 18C8.22386 18 8 17.7761 8 17.5V16H6.5C6.22386 16 6 15.7761 6 15.5C6 15.2239 6.22386 15 6.5 15H8V9H6.5C6.22386 9 6 8.77614 6 8.5C6 8.22386 6.22386 8 6.5 8H8V6.5C8 6.22386 8.22386 6 8.5 6C8.77614 6 9 6.22386 9 6.5V8H15V6.5C15 6.22386 15.2239 6 15.5 6ZM9 9V15H15V9H9Z" fill="black" fill-opacity="0.9"/>
</g>
</svg>
