<svg width="24" height="24" viewBox="0 0 24 24" fill="none" xmlns="http://www.w3.org/2000/svg">
<g id="icon.24.doc.plus">
<path id="Icon" d="M13.3447 3C13.7406 3.00003 14.1204 3.15668 14.4014 3.43555L18.5566 7.55957C18.8404 7.84119 19 8.22524 19 8.625V19C19 20.1046 18.1046 21 17 21H7L6.7959 20.9893C5.78722 20.887 5 20.0356 5 19V5C5.00002 3.96437 5.78723 3.113 6.7959 3.01074L7 3H13.3447ZM7 4C6.48234 4 6.05623 4.39336 6.00488 4.89746L6 5V19C6 19.5523 6.44772 20 7 20H17C17.5523 20 18 19.5523 18 19V9H15C13.8954 9 13 8.10457 13 7V4H7ZM12.0508 10C12.3269 10 12.5508 10.2239 12.5508 10.5V12.5498H14.5C14.7761 12.5498 15 12.7737 15 13.0498C15 13.3259 14.7761 13.5498 14.5 13.5498H12.5508V15.5C12.5508 15.7761 12.3269 16 12.0508 16C11.7746 16 11.5508 15.7761 11.5508 15.5V13.5498H9.5C9.22386 13.5498 9 13.3259 9 13.0498C9 12.7737 9.22386 12.5498 9.5 12.5498H11.5508V10.5C11.5508 10.2239 11.7746 10 12.0508 10ZM14 7C14 7.55228 14.4477 8 15 8H17.5811L14 4.44531V7Z" fill="black" fill-opacity="0.9"/>
</g>
</svg>
