<svg width="24" height="24" viewBox="0 0 24 24" fill="none" xmlns="http://www.w3.org/2000/svg">
<g id="icon.24.stroke-dash">
<path id="Icon" d="M7.5 12C7.77614 12 8 12.2239 8 12.5C8 12.7761 7.77614 13 7.5 13H5.5C5.22386 13 5 12.7761 5 12.5C5 12.2239 5.22386 12 5.5 12H7.5ZM13 12C13.2761 12 13.5 12.2239 13.5 12.5C13.5 12.7761 13.2761 13 13 13H11C10.7239 13 10.5 12.7761 10.5 12.5C10.5 12.2239 10.7239 12 11 12H13ZM18.5 12C18.7761 12 19 12.2239 19 12.5C19 12.7761 18.7761 13 18.5 13H16.5C16.2239 13 16 12.7761 16 12.5C16 12.2239 16.2239 12 16.5 12H18.5Z" fill="black" fill-opacity="0.9"/>
</g>
</svg>
