<svg width="24" height="24" viewBox="0 0 24 24" fill="none" xmlns="http://www.w3.org/2000/svg">
<g id="icon.24.shapes">
<path id="Icon" d="M19.2041 10.0107C20.2128 10.113 21 10.9643 21 12V19L20.9893 19.2041C20.8938 20.1457 20.1457 20.8938 19.2041 20.9893L19 21H12C10.9643 21 10.113 20.2128 10.0107 19.2041L10 19V12C10 10.8954 10.8954 10 12 10H19L19.2041 10.0107ZM12 11C11.4477 11 11 11.4477 11 12V19C11 19.5523 11.4477 20 12 20H19C19.5523 20 20 19.5523 20 19V12C20 11.4477 19.5523 11 19 11H12ZM9 3C12.1453 3 14.7254 5.42023 14.9795 8.5C15.0022 8.77521 14.7761 9 14.5 9C14.224 9 14.003 8.77564 13.9756 8.50098C13.725 5.97398 11.5929 4 9 4C6.23858 4 4 6.23858 4 9C4 11.5929 5.97398 13.725 8.50098 13.9756C8.5283 13.9783 8.5549 13.9838 8.58105 13.9902C8.81782 14.0484 9 14.2514 9 14.5C9 14.7761 8.77521 15.0022 8.5 14.9795L8.40234 14.9688C5.36931 14.6687 3 12.1119 3 9C3 5.68629 5.68629 3 9 3Z" fill="black" fill-opacity="0.9"/>
</g>
</svg>
