<svg width="24" height="24" viewBox="0 0 24 24" fill="none" xmlns="http://www.w3.org/2000/svg">
<g id="icon.24.generate.image.small">
<path id="Icon" d="M13.5 5.99976C13.7761 5.99976 14 6.22361 14 6.49976C14 6.77588 13.7761 6.99976 13.5 6.99976H7.5C7.22386 6.99976 7 7.22361 7 7.49976V13.7927L9.64648 11.1462L9.72461 11.0818C9.91863 10.9537 10.1827 10.9755 10.3535 11.1462L16.207 16.9998H16.5C16.7761 16.9998 17 16.7759 17 16.4998V10.4998C17 10.2236 17.2239 9.99976 17.5 9.99976C17.7761 9.99976 18 10.2236 18 10.4998V16.4998C18 17.3282 17.3284 17.9998 16.5 17.9998H7.5C6.67158 17.9998 6.00002 17.3282 6 16.4998V7.49976C6 6.67133 6.67157 5.99976 7.5 5.99976H13.5ZM7 15.2068V16.4998C7.00002 16.7759 7.22387 16.9998 7.5 16.9998H14.793L10 12.2068L7 15.2068ZM17.0146 4.44019C17.1409 3.93521 17.8591 3.93521 17.9854 4.44019L18.2998 5.69995L19.5596 6.0144C20.0645 6.14065 20.0645 6.85886 19.5596 6.98511L18.2998 7.29956L17.9854 8.55933C17.8591 9.0643 17.1409 9.0643 17.0146 8.55933L16.7002 7.29956L15.4404 6.98511C14.9355 6.85886 14.9355 6.14065 15.4404 6.0144L16.7002 5.69995L17.0146 4.44019Z" fill="black" fill-opacity="0.9"/>
</g>
</svg>
