<svg width="24" height="24" viewBox="0 0 24 24" fill="none" xmlns="http://www.w3.org/2000/svg">
<g id="icon.24.interaction.press.small">
<path id="Icon" d="M16.5586 10.6865C16.6323 10.712 16.7046 10.7384 16.7754 10.7656C17.3971 11.0047 17.9345 11.302 18.3252 11.6572C18.716 12.0126 19 12.4655 19 13C19 13.5345 18.716 13.9874 18.3252 14.3428C17.9345 14.698 17.3971 14.9953 16.7754 15.2344C15.5286 15.7139 13.8401 16 12 16C10.1599 16 8.47141 15.7139 7.22461 15.2344C6.60291 14.9953 6.06549 14.698 5.6748 14.3428C5.28397 13.9874 5 13.5345 5 13C5.00001 12.4655 5.28397 12.0126 5.6748 11.6572C6.06549 11.302 6.60291 11.0047 7.22461 10.7656C7.29513 10.7385 7.36701 10.7119 7.44043 10.6865C7.71829 10.5904 8.0009 10.8109 8.04492 11.1016C8.08053 11.3374 7.94831 11.5675 7.72363 11.6475C7.67598 11.6644 7.62904 11.6815 7.58301 11.6992C7.02896 11.9123 6.61475 12.1538 6.34766 12.3965C6.08067 12.6393 6.00001 12.8442 6 13C6 13.1558 6.08067 13.3607 6.34766 13.6035C6.61475 13.8463 7.02896 14.0876 7.58301 14.3008C8.68872 14.7261 10.2504 15 12 15C13.7496 15 15.3113 14.7261 16.417 14.3008C16.971 14.0876 17.3852 13.8463 17.6523 13.6035C17.9193 13.3607 18 13.1558 18 13C18 12.8442 17.9193 12.6393 17.6523 12.3965C17.3852 12.1538 16.971 11.9123 16.417 11.6992C16.3706 11.6814 16.3234 11.6636 16.2754 11.6465C16.0507 11.5666 15.9185 11.3374 15.9541 11.1016C15.9981 10.8109 16.2807 10.5906 16.5586 10.6865ZM12 8C13.3807 8 14.5 9.11929 14.5 10.5C14.5 11.8807 13.3807 13 12 13C10.6193 13 9.5 11.8807 9.5 10.5C9.5 9.11929 10.6193 8 12 8ZM12 9C11.1716 9 10.5 9.67157 10.5 10.5C10.5 11.3284 11.1716 12 12 12C12.8284 12 13.5 11.3284 13.5 10.5C13.5 9.67157 12.8284 9 12 9Z" fill="black" fill-opacity="0.9"/>
</g>
</svg>
