<svg width="24" height="24" viewBox="0 0 24 24" fill="none" xmlns="http://www.w3.org/2000/svg">
<g id="icon.24.sidebars.show.default">
<path id="Icon" d="M19 5C20.1046 5 21 5.89543 21 7V17C21 18.0357 20.2128 18.887 19.2041 18.9893L19 19H5L4.7959 18.9893C3.85435 18.8938 3.1062 18.1457 3.01074 17.2041L3 17V7C3 5.89543 3.89543 5 5 5H19ZM5 6C4.44772 6 4 6.44772 4 7V17C4 17.5523 4.44772 18 5 18H19C19.5523 18 20 17.5523 20 17V7C20 6.44772 19.5523 6 19 6H5ZM6.14648 10.1465C6.34175 9.95122 6.65825 9.95122 6.85352 10.1465L8.35352 11.6465C8.54878 11.8417 8.54878 12.1583 8.35352 12.3535L6.85352 13.8535C6.65825 14.0488 6.34175 14.0488 6.14648 13.8535C5.95122 13.6583 5.95122 13.3417 6.14648 13.1465L7.29297 12L6.14648 10.8535C5.95122 10.6583 5.95122 10.3417 6.14648 10.1465ZM17.1465 10.1465C17.3417 9.95122 17.6583 9.95122 17.8535 10.1465C18.0488 10.3417 18.0488 10.6583 17.8535 10.8535L16.707 12L17.8535 13.1465C18.0488 13.3417 18.0488 13.6583 17.8535 13.8535C17.6583 14.0488 17.3417 14.0488 17.1465 13.8535L15.6465 12.3535C15.4512 12.1583 15.4512 11.8417 15.6465 11.6465L17.1465 10.1465Z" fill="black" fill-opacity="0.9"/>
</g>
</svg>
