<svg width="24" height="24" viewBox="0 0 24 24" fill="none" xmlns="http://www.w3.org/2000/svg">
<g id="icon.24.lock.open">
<path id="Icon" d="M16.125 10C17.1605 10 18 10.8395 18 11.875V17.125C18 18.1605 17.1605 19 16.125 19H7.875C6.83947 19 6 18.1605 6 17.125V11.875C6 10.8395 6.83947 10 7.875 10H8V7C8 4.79086 9.79086 3 12 3C14.2091 3 16 4.79086 16 7V7.5C16 7.77614 15.7761 8 15.5 8C15.2239 8 15 7.77614 15 7.5V7C15 5.34315 13.6569 4 12 4C10.3431 4 9 5.34315 9 7V10H16.125ZM7.875 11C7.39175 11 7 11.3918 7 11.875V17.125C7 17.6082 7.39175 18 7.875 18H16.125C16.6082 18 17 17.6082 17 17.125V11.875C17 11.3918 16.6082 11 16.125 11H7.875Z" fill="black" fill-opacity="0.9"/>
</g>
</svg>
