<svg width="24" height="24" viewBox="0 0 24 24" fill="none" xmlns="http://www.w3.org/2000/svg">
<g id="icon.24.save.filled">
<g id="Icon">
<path d="M7 5C7 3.89543 7.89543 3 9 3H15C16.1046 3 17 3.89543 17 5V20.0858C17 20.9767 15.9229 21.4229 15.2929 20.7929L12 17.5L8.70711 20.7929C8.07714 21.4229 7 20.9767 7 20.0858V5Z" fill="black" fill-opacity="0.3"/>
<path d="M9 3.5H15C15.8284 3.5 16.5 4.17157 16.5 5V20.0859C16.4999 20.5313 15.9614 20.7543 15.6465 20.4395L12 16.793L8.35352 20.4395C8.03856 20.7543 7.50012 20.5313 7.5 20.0859V5L7.50781 4.84668C7.58461 4.09028 8.22334 3.5 9 3.5Z" stroke="black" stroke-opacity="0.9"/>
</g>
</g>
</svg>
