<svg width="24" height="24" viewBox="0 0 24 24" fill="none" xmlns="http://www.w3.org/2000/svg">
<g id="icon.24.drop.shadow.min.small">
<path id="Icon" d="M14.6533 7.00781C15.4097 7.08461 16 7.72334 16 8.5V14.5L15.9922 14.6533C15.9205 15.3593 15.3593 15.9205 14.6533 15.9922L14.5 16H8.5C7.72334 16 7.08461 15.4097 7.00781 14.6533L7 14.5V8.5C7 7.67157 7.67157 7 8.5 7H14.5L14.6533 7.00781ZM8.5 8C8.22386 8 8 8.22386 8 8.5V14.5C8 14.7761 8.22386 15 8.5 15H14.5C14.7761 15 15 14.7761 15 14.5V8.5C15 8.22386 14.7761 8 14.5 8H8.5Z" fill="black" fill-opacity="0.9"/>
<path id="Subtract" d="M15.9346 8.06427C16.5511 8.25054 16.9999 8.82256 17 9.49982V15.4998C17 16.3282 16.3284 16.9998 15.5 16.9998H9.5C8.82274 16.9997 8.25073 16.5509 8.06445 15.9344C8.2024 15.9762 8.34839 15.9998 8.5 15.9998H14.5C15.3284 15.9998 16 15.3282 16 14.4998V8.49982C16 8.3482 15.9764 8.20222 15.9346 8.06427Z" fill="black" fill-opacity="0.3"/>
</g>
</svg>
