<svg width="24" height="24" viewBox="0 0 24 24" fill="none" xmlns="http://www.w3.org/2000/svg">
<g id="icon.24.dock-to-side">
<path id="Icon" d="M16.5 5C17.8807 5 19 6.11929 19 7.5V13.6719C18.9998 15.8989 16.3073 17.0141 14.7324 15.4395L10 10.707V14C10 14.2761 9.77614 14.5 9.5 14.5C9.22386 14.5 9 14.2761 9 14V9.5C9 9.22386 9.22386 9 9.5 9H14C14.2761 9 14.5 9.22386 14.5 9.5C14.5 9.77614 14.2761 10 14 10H10.707L15.4395 14.7324C16.3844 15.6771 17.9998 15.008 18 13.6719V7.5C18 6.67157 17.3284 6 16.5 6H7.5C6.67157 6 6 6.67157 6 7.5V16.5C6 17.3284 6.67157 18 7.5 18H12.5C12.7761 18 13 18.2239 13 18.5C13 18.7761 12.7761 19 12.5 19H7.5C6.11929 19 5 17.8807 5 16.5V7.5C5 6.11929 6.11929 5 7.5 5H16.5Z" fill="black" fill-opacity="0.9"/>
</g>
</svg>
