<svg width="24" height="24" viewBox="0 0 24 24" fill="none" xmlns="http://www.w3.org/2000/svg">
<g id="icon.24.table">
<path id="Icon" d="M19 4C20.1046 4 21 4.89543 21 6V18C21 19.1046 20.1046 20 19 20H5C3.89543 20 3 19.1046 3 18V6C3 4.89543 3.89543 4 5 4H19ZM4 18C4 18.5523 4.44772 19 5 19H9V15H4V18ZM10 15V19H19C19.5523 19 20 18.5523 20 18V15H10ZM10 10V14H20V10H10ZM4 14H9V10H4V14ZM10 9H20V6C20 5.44772 19.5523 5 19 5H10V9ZM5 5C4.44771 5 4 5.44772 4 6V9H9V5H5Z" fill="black" fill-opacity="0.9"/>
</g>
</svg>
