<svg width="24" height="24" viewBox="0 0 24 24" fill="none" xmlns="http://www.w3.org/2000/svg">
<g id="icon.24.props.small">
<path id="Icon" d="M11.1162 5.88379C11.6043 5.39583 12.3957 5.39578 12.8838 5.88379L18.1162 11.1162C18.6041 11.6043 18.6041 12.3957 18.1162 12.8838L12.8838 18.1162L12.7891 18.2021C12.3309 18.5757 11.6691 18.5757 11.2109 18.2021L11.1162 18.1162L7.85352 14.8535C7.53857 14.5386 7.76163 14 8.20703 14C8.33956 14.0001 8.46683 14.0528 8.56055 14.1465L11.8232 17.4092C11.9208 17.5065 12.0792 17.5065 12.1768 17.4092L17.4092 12.1768C17.5066 12.0792 17.5066 11.9208 17.4092 11.8232L12.1768 6.59082C12.0792 6.49334 11.9209 6.49338 11.8232 6.59082L8.56055 9.85352C8.46683 9.94723 8.33956 9.99995 8.20703 10C7.76163 10 7.53857 9.46143 7.85352 9.14648L11.1162 5.88379ZM12 10C13.1046 10 14 10.8954 14 12C14 13.1046 13.1046 14 12 14C11.0683 14 10.2877 13.3623 10.0654 12.5H6C5.72386 12.5 5.5 12.2761 5.5 12C5.5 11.7239 5.72386 11.5 6 11.5H10.0654C10.2877 10.6377 11.0683 10 12 10ZM12 11C11.4477 11 11 11.4477 11 12C11 12.5523 11.4477 13 12 13C12.5523 13 13 12.5523 13 12C13 11.4477 12.5523 11 12 11Z" fill="black" fill-opacity="0.9"/>
</g>
</svg>
