<svg width="24" height="24" viewBox="0 0 24 24" fill="none" xmlns="http://www.w3.org/2000/svg">
<g id="icon.24.al.padding-bottom">
<path id="Icon" d="M16.5 16C16.7761 16 17 16.2239 17 16.5C17 16.7761 16.7761 17 16.5 17H7.5C7.22386 17 7 16.7761 7 16.5C7 16.2239 7.22386 16 7.5 16H16.5ZM13.1025 10.0049C13.6067 10.0562 14 10.4823 14 11V13L13.9951 13.1025C13.9438 13.6067 13.5177 14 13 14H11C10.4477 14 10 13.5523 10 13V11C10 10.4477 10.4477 10 11 10H13L13.1025 10.0049ZM11 13H13V11H11V13Z" fill="black" fill-opacity="0.9"/>
</g>
</svg>
