<svg width="24" height="24" viewBox="0 0 24 24" fill="none" xmlns="http://www.w3.org/2000/svg">
<g id="icon.24.keyboard.shortcuts.small">
<path id="Icon" d="M17 7C18.1046 7 19 7.89543 19 9V15C19 16.0357 18.2128 16.887 17.2041 16.9893L17 17H7L6.7959 16.9893C5.85435 16.8938 5.1062 16.1457 5.01074 15.2041L5 15V9C5 7.89543 5.89543 7 7 7H17ZM6 15C6 15.5523 6.44772 16 7 16H8V14H6V15ZM9 16H15V14H9V16ZM16 16H17C17.5523 16 18 15.5523 18 15V14H16V16ZM6 13H8V11H6V13ZM9 13H11V11H9V13ZM12 13H14V11H12V13ZM15 13H18V11H15V13ZM7 8C6.44772 8 6 8.44772 6 9V10H7V8ZM8 10H10V8H8V10ZM11 10H13V8H11V10ZM17 10H18V9C18 8.44772 17.5523 8 17 8V10ZM14 10H16V8H14V10Z" fill="black" fill-opacity="0.9"/>
</g>
</svg>
