<svg width="24" height="24" viewBox="0 0 24 24" fill="none" xmlns="http://www.w3.org/2000/svg">
<g id="icon.24.proportional-uppercase-number">
<path id="Icon" d="M9.13965 8.21826C9.58353 8.21826 9.94334 8.57809 9.94336 9.02197V15.4702C9.94325 15.7629 9.70577 16.0005 9.41309 16.0005C9.12062 16.0002 8.88389 15.7627 8.88379 15.4702V9.33643C8.88379 9.31713 8.8679 9.30139 8.84863 9.30127C8.84177 9.30127 8.83483 9.30336 8.8291 9.30713L7.63086 10.0962C7.34177 10.2864 6.95706 10.079 6.95703 9.73291C6.95703 9.58676 7.03034 9.45009 7.15234 9.36963L8.69727 8.35107C8.82854 8.2645 8.9824 8.2183 9.13965 8.21826ZM16.2666 8.21826C16.6958 8.21826 17.0439 8.56644 17.0439 8.99561C17.0439 9.11667 17.0153 9.23606 16.9609 9.34424L13.7529 15.728C13.6692 15.8946 13.4989 16.0005 13.3125 16.0005C12.9451 16.0005 12.7065 15.6125 12.8721 15.2847L15.9443 9.20947C15.9478 9.20264 15.9492 9.19466 15.9492 9.18701C15.9492 9.1599 15.9275 9.13818 15.9004 9.13818H12.4385C12.1847 9.1381 11.9786 8.932 11.9785 8.67822C11.9785 8.42435 12.1846 8.21835 12.4385 8.21826H16.2666Z" fill="black" fill-opacity="0.9"/>
</g>
</svg>
