<svg width="24" height="24" viewBox="0 0 24 24" fill="none" xmlns="http://www.w3.org/2000/svg">
<g id="icon.24.spread.small">
<path id="Icon" d="M12 17C12.5523 17 13 17.4477 13 18C13 18.5523 12.5523 19 12 19C11.4477 19 11 18.5523 11 18C11 17.4477 11.4477 17 12 17ZM7.0498 15.5352C7.44033 15.1446 8.07432 15.1446 8.46484 15.5352C8.85513 15.9256 8.85503 16.5587 8.46484 16.9492C8.07432 17.3397 7.44033 17.3397 7.0498 16.9492C6.6597 16.5587 6.6596 15.9256 7.0498 15.5352ZM15.5361 15.5352C15.9267 15.1447 16.5597 15.1447 16.9502 15.5352C17.3406 15.9257 17.3406 16.5587 16.9502 16.9492C16.5597 17.3397 15.9267 17.3397 15.5361 16.9492C15.1456 16.5587 15.1456 15.9257 15.5361 15.5352ZM12 9C13.6569 9 15 10.3431 15 12C15 13.6569 13.6569 15 12 15C10.3431 15 9 13.6569 9 12C9 10.3431 10.3431 9 12 9ZM12 10C10.8954 10 10 10.8954 10 12C10 13.1046 10.8954 14 12 14C13.1046 14 14 13.1046 14 12C14 10.8954 13.1046 10 12 10ZM6 11C6.55228 11 7 11.4477 7 12C7 12.5523 6.55228 13 6 13C5.44772 13 5 12.5523 5 12C5 11.4477 5.44772 11 6 11ZM18 11C18.5523 11 19 11.4477 19 12C19 12.5523 18.5523 13 18 13C17.4477 13 17 12.5523 17 12C17 11.4477 17.4477 11 18 11ZM7.05078 7.05078C7.44131 6.66033 8.07434 6.66028 8.46484 7.05078C8.85527 7.44129 8.85527 8.07434 8.46484 8.46484C8.07434 8.85534 7.44131 8.85529 7.05078 8.46484C6.66026 8.07432 6.66026 7.44131 7.05078 7.05078ZM15.5352 7.0498C15.9257 6.65928 16.5597 6.65928 16.9502 7.0498C17.3404 7.44023 17.3403 8.07338 16.9502 8.46387C16.5597 8.85439 15.9257 8.85439 15.5352 8.46387C15.145 8.07337 15.1449 7.44024 15.5352 7.0498ZM12 5C12.5523 5 13 5.44772 13 6C13 6.55228 12.5523 7 12 7C11.4477 7 11 6.55228 11 6C11 5.44772 11.4477 5 12 5Z" fill="black" fill-opacity="0.9"/>
</g>
</svg>
