<svg width="24" height="24" viewBox="0 0 24 24" fill="none" xmlns="http://www.w3.org/2000/svg">
<g id="icon.24.file.slides">
<path id="File Type Frame" d="M4 24H20C21.1046 24 22 23.1046 22 22V6.74264C22 5.94699 21.6839 5.18393 21.1213 4.62132L17.3787 0.87868C16.8161 0.316071 16.053 0 15.2574 0H4C2.89543 0 2 0.89543 2 2V22C2 23.1046 2.89543 24 4 24Z" fill="#0D99FF"/>
<path id="Intersect" d="M15.2578 0C16.0534 6.49018e-05 16.8164 0.316355 17.3789 0.878906L21.1211 4.62109C21.6836 5.1836 21.9999 5.9467 22 6.74219V7L21.9951 6.89746C21.9439 6.39325 21.5177 6 21 6H18C16.8956 5.99989 16.0001 5.10441 16 4V1C16 0.447715 15.5523 0 15 0H15.2578Z" fill="white" fill-opacity="0.4"/>
<g id="icon.16.slides">
<path id="Icon" d="M16.2041 7.01074C17.2128 7.113 18 7.96435 18 9V14C18 15.0357 17.2128 15.887 16.2041 15.9893L16 16H15.5664L15.9785 17.3545C16.0588 17.6186 15.9096 17.8981 15.6455 17.9785C15.3814 18.0588 15.1019 17.9096 15.0215 17.6455L14.5205 16H9.47949L8.97852 17.6455C8.89813 17.9096 8.61859 18.0588 8.35449 17.9785C8.09043 17.8981 7.94119 17.6186 8.02148 17.3545L8.43359 16H8C6.96435 16 6.113 15.2128 6.01074 14.2041L6 14V9C6 7.89543 6.89543 7 8 7H16L16.2041 7.01074ZM8 8C7.44772 8 7 8.44772 7 9V14C7 14.5523 7.44772 15 8 15H16C16.5523 15 17 14.5523 17 14V9C17 8.48232 16.6067 8.05621 16.1025 8.00488L16 8H8ZM9 12C9.55228 12 10 12.4477 10 13C10 13.5523 9.55228 14 9 14C8.44772 14 8 13.5523 8 13C8 12.4477 8.44772 12 9 12ZM9 9C9.55228 9 10 9.44772 10 10C10 10.5523 9.55228 11 9 11C8.44772 11 8 10.5523 8 10C8 9.44772 8.44772 9 9 9Z" fill="white"/>
</g>
</g>
</svg>
