<svg width="24" height="24" viewBox="0 0 24 24" fill="none" xmlns="http://www.w3.org/2000/svg">
<g id="icon.24.multi.edit.small">
<path id="Icon" d="M12.5 6C13.3284 6 14 6.67157 14 7.5V9H15.5C16.3284 9 17 9.67157 17 10.5V13.4316L18.3516 13.9385C18.7612 14.0922 19.0228 14.4948 18.998 14.9316C18.9732 15.3687 18.6669 15.7386 18.2422 15.8447L16.3242 16.3242L15.8447 18.2422C15.7386 18.6669 15.3687 18.9732 14.9316 18.998C14.4948 19.0228 14.0922 18.7612 13.9385 18.3516L13.4316 17H10.5L10.3467 16.9922C9.59028 16.9154 9 16.2767 9 15.5V14H7.5L7.34668 13.9922C6.59028 13.9154 6 13.2767 6 12.5V7.5C6 6.67157 6.67157 6 7.5 6H12.5ZM14.875 18L15.5 15.5L18 14.875L13 13L14.875 18ZM10.5 10C10.2239 10 10 10.2239 10 10.5V15.5C10 15.7761 10.2239 16 10.5 16H13.0566L12.0635 13.3516C11.9258 12.9844 12.0157 12.5703 12.293 12.293C12.5703 12.0157 12.9844 11.9258 13.3516 12.0635L16 13.0566V10.5C16 10.2239 15.7761 10 15.5 10H10.5ZM7.5 7C7.22386 7 7 7.22386 7 7.5V12.5C7 12.7761 7.22386 13 7.5 13H9V10.5C9 9.67157 9.67157 9 10.5 9H13V7.5C13 7.22386 12.7761 7 12.5 7H7.5Z" fill="black" fill-opacity="0.9"/>
</g>
</svg>
