<svg width="24" height="24" viewBox="0 0 24 24" fill="none" xmlns="http://www.w3.org/2000/svg">
<g id="icon.24.forward.small">
<path id="Icon" d="M12.6172 7.07605C12.9908 6.9213 13.421 7.00691 13.707 7.29285L17.707 11.2928C18.0975 11.6834 18.0975 12.3164 17.707 12.7069L13.707 16.7069C13.421 16.9929 12.9909 17.0785 12.6172 16.9237C12.2436 16.7689 12 16.4043 12 15.9999V13.4139L8.70703 16.7069C8.42103 16.9929 7.99086 17.0785 7.61719 16.9237C7.2436 16.7689 7 16.4043 7 15.9999V7.99988C7.00003 7.59549 7.24361 7.23085 7.61719 7.07605C7.99084 6.92129 8.42104 7.00688 8.70703 7.29285L12 10.5858V7.99988C12 7.59551 12.2436 7.23085 12.6172 7.07605ZM8 15.9999L12 11.9999L8 7.99988V15.9999ZM13 15.9999L17 11.9999L13 7.99988V15.9999Z" fill="black" fill-opacity="0.9"/>
</g>
</svg>
