<svg width="24" height="24" viewBox="0 0 24 24" fill="none" xmlns="http://www.w3.org/2000/svg">
<g id="icon.24.linkedobject.small">
<path id="Icon" d="M11.8789 14.3789C12.0741 14.1838 12.3907 14.184 12.5859 14.3789C12.7807 14.5742 12.7809 14.8908 12.5859 15.0859C11.8051 15.8669 11.8053 17.133 12.5859 17.9141C13.367 18.6947 14.6331 18.6949 15.4141 17.9141C15.6091 17.7191 15.9258 17.7194 16.1211 17.9141C16.3159 18.1093 16.3161 18.426 16.1211 18.6211C14.9496 19.7925 13.0505 19.7923 11.8789 18.6211C10.7078 17.4495 10.7075 15.5503 11.8789 14.3789ZM16.2041 6.01074C17.2128 6.113 18 6.96435 18 8V9.5C18 9.77614 17.7761 10 17.5 10C17.2239 10 17 9.77614 17 9.5V8C17 7.48232 16.6067 7.05621 16.1025 7.00488L16 7H8C7.48232 7 7.05621 7.39333 7.00488 7.89746L7 8V16C7 16.5523 7.44772 17 8 17H9.5C9.77614 17 10 17.2239 10 17.5C10 17.7761 9.77614 18 9.5 18H8C6.96435 18 6.113 17.2128 6.01074 16.2041L6 16V8C6 6.89543 6.89543 6 8 6H16L16.2041 6.01074ZM16.1465 13.6465C16.3416 13.4513 16.6582 13.4515 16.8535 13.6465C17.0485 13.8418 17.0487 14.1584 16.8535 14.3535L14.3535 16.8535C14.1584 17.0487 13.8418 17.0485 13.6465 16.8535C13.4515 16.6582 13.4513 16.3416 13.6465 16.1465L16.1465 13.6465ZM14.3789 11.8789C15.5503 10.7075 17.4495 10.7078 18.6211 11.8789C19.7923 13.0505 19.7925 14.9496 18.6211 16.1211C18.426 16.3161 18.1093 16.3159 17.9141 16.1211C17.7194 15.9258 17.7191 15.6091 17.9141 15.4141C18.6949 14.6331 18.6947 13.367 17.9141 12.5859C17.133 11.8053 15.8669 11.8051 15.0859 12.5859C14.8908 12.7809 14.5742 12.7807 14.3789 12.5859C14.184 12.3907 14.1838 12.0741 14.3789 11.8789Z" fill="black" fill-opacity="0.9"/>
</g>
</svg>
