<svg width="24" height="24" viewBox="0 0 24 24" fill="none" xmlns="http://www.w3.org/2000/svg">
<g id="icon.24.comment.small">
<path id="Icon" d="M12 6C15.3137 6 18 8.68629 18 12C18 15.3137 15.3137 18 12 18H7.89453C7.61939 18 7.44746 17.9998 7.31445 17.9863L7.19238 17.9678C6.64619 17.8532 6.21154 17.4465 6.05859 16.916L6.03223 16.8076C6.01629 16.7315 6.0079 16.6478 6.00391 16.5371L6 16.1055V12C6 8.68629 8.68629 6 12 6ZM12 7C9.23858 7 7 9.23858 7 12V16.1055C7 16.2959 6.99974 16.4124 7.00293 16.501C7.00558 16.5744 7.01016 16.5994 7.01074 16.6025C7.05147 16.7968 7.20321 16.9485 7.39746 16.9893C7.40063 16.9898 7.42556 16.9944 7.49902 16.9971C7.58755 17.0003 7.70411 17 7.89453 17H12C14.7614 17 17 14.7614 17 12C17 9.23858 14.7614 7 12 7Z" fill="black" fill-opacity="0.9"/>
</g>
</svg>
