<svg width="24" height="24" viewBox="0 0 24 24" fill="none" xmlns="http://www.w3.org/2000/svg">
<g id="icon.24.emoji">
<path id="Icon" d="M12 5C15.866 5 19 8.13401 19 12C19 15.866 15.866 19 12 19C8.13401 19 5 15.866 5 12C5 8.13401 8.13401 5 12 5ZM12 6C8.68629 6 6 8.68629 6 12C6 15.3137 8.68629 18 12 18C15.3137 18 18 15.3137 18 12C18 8.68629 15.3137 6 12 6ZM15.2266 13.0039C15.3732 13.0226 15.5057 13.1057 15.5859 13.2324C15.6775 13.3774 15.6888 13.56 15.6152 13.7148C14.9738 15.065 13.5963 16 12 16C10.4038 16 9.02725 15.0648 8.38574 13.7148C8.31215 13.5599 8.32244 13.3774 8.41406 13.2324C8.50572 13.0876 8.66552 13 8.83691 13H15.1631L15.2266 13.0039ZM9.76465 14C10.3143 14.6139 11.1122 15 12 15C12.8878 15 13.6857 14.6138 14.2354 14H9.76465ZM10 9C10.5523 9 11 9.44772 11 10C11 10.5523 10.5523 11 10 11C9.44772 11 9 10.5523 9 10C9 9.44772 9.44772 9 10 9ZM14 9C14.5523 9 15 9.44772 15 10C15 10.5523 14.5523 11 14 11C13.4477 11 13 10.5523 13 10C13 9.44772 13.4477 9 14 9Z" fill="black" fill-opacity="0.9"/>
</g>
</svg>
