<svg width="24" height="24" viewBox="0 0 24 24" fill="none" xmlns="http://www.w3.org/2000/svg">
<g id="icon.24.sound.on.small">
<path id="Icon" d="M12.293 5.29294C12.579 5.00695 13.0091 4.92137 13.3828 5.07614C13.7564 5.23095 14 5.59557 14 5.99997V18C14 18.4044 13.7564 18.769 13.3828 18.9238C13.0091 19.0786 12.579 18.993 12.293 18.707L9.58594 16H6.5C5.72334 16 5.08461 15.4097 5.00781 14.6533L5 14.5V9.49997C5.00002 8.67156 5.67158 7.99997 6.5 7.99997H9.58594L12.293 5.29294ZM10 8.99997H6.5C6.22387 8.99997 6.00002 9.22384 6 9.49997V14.5C6 14.7761 6.22386 15 6.5 15H10L13 18V5.99997L10 8.99997ZM15.5 7.22946C17.5285 7.86664 19 9.76217 19 12.0009C18.9996 14.2393 17.5281 16.1333 15.5 16.7705V15.708C16.9653 15.1145 17.9996 13.679 18 12.0009C18 10.3224 16.9657 8.88545 15.5 8.29196V7.22946ZM15.5 9.40427C16.396 9.92315 17 10.891 17 12.0009C16.9997 13.1104 16.3956 14.0769 15.5 14.5957V13.3193C15.8098 12.9672 15.9998 12.5067 16 12.0009C16 11.4947 15.8102 11.033 15.5 10.6806V9.40427Z" fill="black" fill-opacity="0.9"/>
</g>
</svg>
