<svg width="24" height="24" viewBox="0 0 24 24" fill="none" xmlns="http://www.w3.org/2000/svg">
<g id="icon.24.adjust.small">
<path id="Icon" d="M8.5 19C8.77614 19 9 18.7762 9 18.5V16.9493C10.141 16.7176 11 15.7095 11 14.5C11 13.2905 10.1411 12.2815 9 12.0498V5.50004C9 5.2239 8.77614 5.00004 8.5 5.00004C8.22386 5.00004 8 5.2239 8 5.50004V12.0498C6.85886 12.2815 6 13.2905 6 14.5C6 15.7095 6.85895 16.7176 8 16.9493V18.5C8 18.7762 8.22386 19 8.5 19ZM15.5 19C15.7761 19 16 18.7762 16 18.5V11.9502C17.1411 11.7186 18 10.7095 18 9.50004C18 8.29061 17.141 7.28251 16 7.05082V5.50004C16 5.2239 15.7761 5.00004 15.5 5.00004C15.2239 5.00004 15 5.2239 15 5.50004V7.05082C13.859 7.28251 13 8.29061 13 9.50004C13 10.7095 13.8589 11.7186 15 11.9502V18.5C15 18.7762 15.2239 19 15.5 19ZM15.5 11C14.6716 11 14 10.3285 14 9.50004C14 8.67161 14.6716 8.00004 15.5 8.00004C16.3284 8.00004 17 8.67161 17 9.50004C17 10.3285 16.3284 11 15.5 11ZM8.5 16C7.67157 16 7 15.3285 7 14.5C7 13.6716 7.67157 13 8.5 13C9.32843 13 10 13.6716 10 14.5C10 15.3285 9.32843 16 8.5 16Z" fill="black" fill-opacity="0.9"/>
</g>
</svg>
