<svg width="24" height="24" viewBox="0 0 24 24" fill="none" xmlns="http://www.w3.org/2000/svg">
<g id="icon.24.variable.small">
<path id="Icon" d="M10.9922 5.58786C11.6149 5.22461 12.3851 5.22461 13.0078 5.58786L17.0078 7.92087C17.6222 8.27923 17.9999 8.9372 18 9.64841V14.3515L17.9961 14.4843C17.9522 15.1439 17.5837 15.7431 17.0078 16.0791L13.0078 18.4121L12.8896 18.4756C12.2896 18.7738 11.5761 18.7527 10.9922 18.4121L6.99219 16.0791C6.41627 15.7431 6.04779 15.1439 6.00391 14.4843L6 14.3515V9.64841C6.00012 8.9372 6.37785 8.27923 6.99219 7.92087L10.9922 5.58786ZM12.5039 6.45114C12.1926 6.26966 11.8074 6.26965 11.4961 6.45114L7.49609 8.78513C7.18904 8.9643 7.00012 9.29291 7 9.64841V14.3515C7.00011 14.707 7.18903 15.0356 7.49609 15.2148L11.4961 17.5488C11.8074 17.7303 12.1926 17.7303 12.5039 17.5488L16.5039 15.2148C16.811 15.0356 16.9999 14.707 17 14.3515V9.64841C16.9999 9.29291 16.811 8.9643 16.5039 8.78513L12.5039 6.45114ZM12 11C12.5523 11 13 11.4477 13 12C13 12.5523 12.5523 13 12 13C11.4477 13 11 12.5523 11 12C11 11.4477 11.4477 11 12 11Z" fill="black" fill-opacity="0.9"/>
</g>
</svg>
