<svg width="24" height="24" viewBox="0 0 24 24" fill="none" xmlns="http://www.w3.org/2000/svg">
<g id="icon.24.help">
<path id="Icon" d="M12 15.5C12.4142 15.5 12.75 15.8358 12.75 16.25C12.75 16.6642 12.4142 17 12 17C11.5858 17 11.25 16.6642 11.25 16.25C11.25 15.8358 11.5858 15.5 12 15.5ZM12 7C13.6569 7 15 8.34315 15 10C15 11.0383 14.4706 11.7641 13.6777 12.1523C12.9629 12.5024 12.5 12.9813 12.5 13.5V14C12.5 14.2761 12.2761 14.5 12 14.5C11.7239 14.5 11.5 14.2761 11.5 14V13.5C11.5 12.362 12.4642 11.6325 13.2373 11.2539C13.707 11.024 14 10.6352 14 10C14 8.89543 13.1046 8 12 8C10.8954 8 10 8.89543 10 10C10 10.2761 9.77614 10.5 9.5 10.5C9.22386 10.5 9 10.2761 9 10C9 8.34315 10.3431 7 12 7Z" fill="black" fill-opacity="0.9"/>
</g>
</svg>
