<svg width="24" height="24" viewBox="0 0 24 24" fill="none" xmlns="http://www.w3.org/2000/svg">
<g id="icon.24.gradient.diamond.small">
<path id="Exclude" d="M16 6C17.1046 6 18 6.89543 18 8V16C18 17.1046 17.1046 18 16 18H8C6.89543 18 6 17.1046 6 16V8C6 6.89543 6.89543 6 8 6H16ZM12.707 8.46484C12.3165 8.07432 11.6835 8.07432 11.293 8.46484L8.46484 11.293C8.07432 11.6835 8.07432 12.3165 8.46484 12.707L11.293 15.5352C11.6835 15.9257 12.3165 15.9257 12.707 15.5352L15.5352 12.707C15.9257 12.3165 15.9257 11.6835 15.5352 11.293L12.707 8.46484Z" fill="black" fill-opacity="0.3"/>
<path id="Icon" d="M16.2041 6.01074C17.2128 6.113 18 6.96435 18 8V16L17.9893 16.2041C17.8938 17.1457 17.1457 17.8938 16.2041 17.9893L16 18H8C6.96435 18 6.113 17.2128 6.01074 16.2041L6 16V8C6 6.89543 6.89543 6 8 6H16L16.2041 6.01074ZM8 7C7.48232 7 7.05621 7.39333 7.00488 7.89746L7 8V16C7 16.5523 7.44772 17 8 17H16C16.5523 17 17 16.5523 17 16V8C17 7.48232 16.6067 7.05621 16.1025 7.00488L16 7H8ZM11.3691 8.39551C11.7619 8.07544 12.341 8.09883 12.707 8.46484L15.5352 11.293L15.6045 11.3691C15.9031 11.7356 15.9031 12.2644 15.6045 12.6309L15.5352 12.707L12.707 15.5352C12.341 15.9012 11.7619 15.9246 11.3691 15.6045L11.293 15.5352L8.46484 12.707C8.07432 12.3165 8.07432 11.6835 8.46484 11.293L11.293 8.46484L11.3691 8.39551ZM9.17188 12L12 14.8281L14.8281 12L12 9.17188L9.17188 12Z" fill="black" fill-opacity="0.9"/>
</g>
</svg>
