<svg width="24" height="24" viewBox="0 0 24 24" fill="none" xmlns="http://www.w3.org/2000/svg">
<g id="icon.24.sticky">
<path id="Icon" d="M18.5 4C19.3284 4 20 4.67157 20 5.5V13.5713C20 14.1017 19.789 14.6103 19.4141 14.9854L14.9854 19.4141C14.6103 19.789 14.1017 20 13.5713 20H5.5C4.67157 20 4 19.3284 4 18.5V5.5C4 4.67157 4.67157 4 5.5 4H18.5ZM5.5 5C5.22386 5 5 5.22386 5 5.5V18.5C5 18.7761 5.22386 19 5.5 19H13V13.5C13 13.2239 13.2239 13 13.5 13H19V5.5C19 5.22386 18.7761 5 18.5 5H5.5ZM14 14V18.9014C14.1021 18.8528 14.1969 18.7884 14.2783 18.707L18.707 14.2783C18.7885 14.1968 18.8538 14.1022 18.9023 14H14Z" fill="black" fill-opacity="0.9"/>
</g>
</svg>
