<svg width="24" height="24" viewBox="0 0 24 24" fill="none" xmlns="http://www.w3.org/2000/svg">
<g id="icon.24.cloud.offline.small">
<path id="Icon" d="M12 6.5C14.1844 6.5 16.0042 8.05668 16.4131 10.1211C17.9032 10.5228 19 11.883 19 13.5C19 15.433 17.433 17 15.5 17H9C6.79086 17 5 15.2091 5 13C5 11.1744 6.22315 9.63496 7.89453 9.15527C8.59898 7.58994 10.1721 6.5 12 6.5ZM12 7.5C10.58 7.5 9.35562 8.34583 8.80664 9.56543L8.61621 9.98828L8.16992 10.1162C6.91579 10.4763 6 11.6326 6 13C6 14.6569 7.34315 16 9 16H15.5C16.8807 16 18 14.8807 18 13.5C18 12.3467 17.2174 11.374 16.1523 11.0869L15.5527 10.9248L15.4326 10.3154C15.1147 8.70989 13.6975 7.5 12 7.5ZM13.1465 10.6465C13.3417 10.4512 13.6583 10.4512 13.8535 10.6465C14.0488 10.8417 14.0488 11.1583 13.8535 11.3535L12.707 12.5L13.8535 13.6465C14.0488 13.8417 14.0488 14.1583 13.8535 14.3535C13.6583 14.5488 13.3417 14.5488 13.1465 14.3535L12 13.207L10.8535 14.3535C10.6583 14.5488 10.3417 14.5488 10.1465 14.3535C9.95122 14.1583 9.95122 13.8417 10.1465 13.6465L11.293 12.5L10.1465 11.3535C9.95122 11.1583 9.95122 10.8417 10.1465 10.6465C10.3417 10.4512 10.6583 10.4512 10.8535 10.6465L12 11.793L13.1465 10.6465Z" fill="black" fill-opacity="0.9"/>
</g>
</svg>
