<svg width="24" height="24" viewBox="0 0 24 24" fill="none" xmlns="http://www.w3.org/2000/svg">
<g id="icon.24.border-bottom-right.small">
<path id="Icon" d="M17 6C17.5523 6 18 6.44772 18 7V17C18 17.5523 17.5523 18 17 18H7C6.44772 18 6 17.5523 6 17V16C6 15.4477 6.44772 15 7 15H15V7C15 6.44772 15.4477 6 16 6H17ZM16 16H7V17H17V7H16V16ZM7.5 12.5C7.77614 12.5 8 12.7239 8 13V14C8 14.2761 7.77614 14.5 7.5 14.5C7.22386 14.5 7 14.2761 7 14V13C7 12.7239 7.22386 12.5 7.5 12.5ZM7.5 9.5C7.77614 9.5 8 9.72386 8 10V11C8 11.2761 7.77614 11.5 7.5 11.5C7.22386 11.5 7 11.2761 7 11V10C7 9.72386 7.22386 9.5 7.5 9.5ZM8 7C8.27614 7 8.5 7.22386 8.5 7.5C8.5 7.77614 8.27614 8 8 8C8 8.27614 7.77614 8.5 7.5 8.5C7.22386 8.5 7 8.27614 7 8C7 7.44772 7.44772 7 8 7ZM11 7C11.2761 7 11.5 7.22386 11.5 7.5C11.5 7.77614 11.2761 8 11 8H10C9.72386 8 9.5 7.77614 9.5 7.5C9.5 7.22386 9.72386 7 10 7H11ZM14 7C14.2761 7 14.5 7.22386 14.5 7.5C14.5 7.77614 14.2761 8 14 8H13C12.7239 8 12.5 7.77614 12.5 7.5C12.5 7.22386 12.7239 7 13 7H14Z" fill="black" fill-opacity="0.9"/>
</g>
</svg>
