<svg width="24" height="24" viewBox="0 0 24 24" fill="none" xmlns="http://www.w3.org/2000/svg">
<g id="icon.24.edit.mode.small">
<path id="Icon" d="M16 6C17.1046 6 18 6.89543 18 8C18 8.93162 17.3622 9.71129 16.5 9.93359V14.0654C17.3623 14.2877 18 15.0683 18 16C18 17.1046 17.1046 18 16 18C15.0683 18 14.2877 17.3623 14.0654 16.5H9.93457C9.71235 17.3623 8.93171 18 8 18C6.89543 18 6 17.1046 6 16C6 15.0683 6.63768 14.2877 7.5 14.0654V9.93359C6.6378 9.71129 6 8.93162 6 8C6 6.89543 6.89543 6 8 6C8.93171 6 9.71235 6.63768 9.93457 7.5H14.0654C14.2877 6.63768 15.0683 6 16 6ZM8 15C7.44772 15 7 15.4477 7 16C7 16.5523 7.44772 17 8 17C8.55228 17 9 16.5523 9 16C9 15.4477 8.55228 15 8 15ZM16 15C15.4477 15 15 15.4477 15 16C15 16.5523 15.4477 17 16 17C16.5523 17 17 16.5523 17 16C17 15.4477 16.5523 15 16 15ZM9.93457 8.5C9.7536 9.20225 9.20222 9.75254 8.5 9.93359V14.0654C9.20233 14.2464 9.75357 14.7977 9.93457 15.5H14.0654C14.2464 14.7977 14.7977 14.2464 15.5 14.0654V9.93359C14.7978 9.75254 14.2464 9.20225 14.0654 8.5H9.93457ZM8 7C7.44772 7 7 7.44772 7 8C7 8.55228 7.44772 9 8 9C8.55228 9 9 8.55228 9 8C9 7.44772 8.55228 7 8 7ZM16 7C15.4477 7 15 7.44772 15 8C15 8.55228 15.4477 9 16 9C16.5523 9 17 8.55228 17 8C17 7.44772 16.5523 7 16 7Z" fill="black" fill-opacity="0.9"/>
</g>
</svg>
