<svg width="24" height="24" viewBox="0 0 24 24" fill="none" xmlns="http://www.w3.org/2000/svg">
<g id="icon.24.move.small">
<path id="Icon" d="M6.58594 6.5862C7.14849 6.02364 7.99041 5.84853 8.73047 6.13893L17.7305 9.67409C18.5215 9.98503 19.0299 10.7629 18.998 11.6116C18.9656 12.4605 18.4004 13.1974 17.5879 13.4475L14.4209 14.4212L13.4473 17.5882C13.1972 18.4007 12.4602 18.9659 11.6113 18.9983C10.7626 19.0302 9.98477 18.5217 9.67383 17.7307L6.13867 8.73073C5.84827 7.99067 6.02338 7.14875 6.58594 6.5862ZM8.36523 7.0696C7.99508 6.92435 7.57415 7.01204 7.29297 7.29323C7.01178 7.57441 6.92409 7.99534 7.06934 8.36549L10.6045 17.3655C10.76 17.7608 11.1488 18.0152 11.5732 17.9993C11.9978 17.9831 12.3662 17.7002 12.4912 17.2942L13.6211 13.6214L17.2939 12.4915C17.7 12.3664 17.9828 11.998 17.999 11.5735C18.015 11.1491 17.7605 10.7602 17.3652 10.6048L8.36523 7.0696Z" fill="black" fill-opacity="0.9"/>
</g>
</svg>
