<svg width="24" height="24" viewBox="0 0 24 24" fill="none" xmlns="http://www.w3.org/2000/svg">
<g id="icon.24.remove.background.small">
<path id="Icon" d="M9.72461 11.082C9.91869 10.9539 10.1827 10.9756 10.3535 11.1465L16.207 17H16.5C16.7417 17 16.9437 16.8286 16.9902 16.6006L17.0098 16.3994C17.0563 16.1714 17.2583 16 17.5 16C17.7761 16 18 16.2239 18 16.5C18 17.3284 17.3284 18 16.5 18H7.5C6.67157 18 6 17.3284 6 16.5V12.5C6 12.2239 6.22386 12 6.5 12C6.77614 12 7 12.2239 7 12.5V13.793L9.64648 11.1465L9.72461 11.082ZM7 15.207V16.5C7 16.7761 7.22386 17 7.5 17H14.793L10 12.207L7 15.207ZM17.5 13C17.7761 13 18 13.2239 18 13.5V14.5C18 14.7761 17.7761 15 17.5 15C17.2239 15 17 14.7761 17 14.5V13.5C17 13.2239 17.2239 13 17.5 13ZM17.5 10C17.7761 10 18 10.2239 18 10.5V11.5C18 11.7761 17.7761 12 17.5 12C17.2239 12 17 11.7761 17 11.5V10.5C17 10.2239 17.2239 10 17.5 10ZM14.6465 8.64648C14.8417 8.45122 15.1583 8.45122 15.3535 8.64648C15.5488 8.84175 15.5488 9.15825 15.3535 9.35352L14.707 10L15.3535 10.6465C15.5488 10.8417 15.5488 11.1583 15.3535 11.3535C15.1583 11.5488 14.8417 11.5488 14.6465 11.3535L14 10.707L13.3535 11.3535C13.1583 11.5488 12.8417 11.5488 12.6465 11.3535C12.4512 11.1583 12.4512 10.8417 12.6465 10.6465L13.293 10L12.6465 9.35352C12.4512 9.15825 12.4512 8.84175 12.6465 8.64648C12.8417 8.45122 13.1583 8.45122 13.3535 8.64648L14 9.29297L14.6465 8.64648ZM6.5 9C6.77614 9 7 9.22386 7 9.5V10.5C7 10.7761 6.77614 11 6.5 11C6.22386 11 6 10.7761 6 10.5V9.5C6 9.22386 6.22386 9 6.5 9ZM17.0146 4.44043C17.1409 3.93545 17.8591 3.93545 17.9854 4.44043L18.2998 5.7002L19.5596 6.01465C20.0645 6.14089 20.0645 6.85911 19.5596 6.98535L18.2998 7.2998L17.9854 8.55957C17.8591 9.06455 17.1409 9.06455 17.0146 8.55957L16.7002 7.2998L15.4404 6.98535C14.9355 6.85911 14.9355 6.14089 15.4404 6.01465L16.7002 5.7002L17.0146 4.44043ZM7.5 6C7.77614 6 8 6.22386 8 6.5C8 6.74171 7.82855 6.94371 7.60059 6.99023L7.39941 7.00977C7.20392 7.04966 7.04966 7.20392 7.00977 7.39941L6.99023 7.60059C6.94371 7.82855 6.74171 8 6.5 8C6.22386 8 6 7.77614 6 7.5C6 6.67157 6.67157 6 7.5 6ZM10.5 6C10.7761 6 11 6.22386 11 6.5C11 6.77614 10.7761 7 10.5 7H9.5C9.22386 7 9 6.77614 9 6.5C9 6.22386 9.22386 6 9.5 6H10.5ZM13.5 6C13.7761 6 14 6.22386 14 6.5C14 6.77614 13.7761 7 13.5 7H12.5C12.2239 7 12 6.77614 12 6.5C12 6.22386 12.2239 6 12.5 6H13.5Z" fill="black" fill-opacity="0.9"/>
</g>
</svg>
