<svg width="24" height="24" viewBox="0 0 24 24" fill="none" xmlns="http://www.w3.org/2000/svg">
<g id="icon.24.component.small">
<path id="Icon" d="M11.1162 13.5908C11.6043 13.1028 12.3957 13.1028 12.8838 13.5908L14.2627 14.9697C14.7507 15.4579 14.7507 16.2492 14.2627 16.7373L12.8838 18.1162L12.7891 18.2021C12.3308 18.5758 11.6692 18.5758 11.2109 18.2021L11.1162 18.1162L9.7373 16.7373C9.27976 16.2797 9.25099 15.5554 9.65137 15.0645L9.7373 14.9697L11.1162 13.5908ZM12.1768 14.2979C12.0792 14.2003 11.9208 14.2003 11.8232 14.2979L10.4443 15.6768C10.3468 15.7744 10.3468 15.9327 10.4443 16.0303L11.8232 17.4092C11.9208 17.5067 12.0792 17.5067 12.1768 17.4092L13.5557 16.0303C13.6532 15.9327 13.6532 15.7744 13.5557 15.6768L12.1768 14.2979ZM7.2627 9.7373C7.75083 9.24928 8.54214 9.24928 9.03027 9.7373L10.4092 11.1162C10.8972 11.6043 10.8972 12.3957 10.4092 12.8838L9.03027 14.2627L8.93555 14.3486C8.47733 14.7223 7.81564 14.7223 7.35742 14.3486L7.2627 14.2627L5.88379 12.8838C5.42625 12.4262 5.39747 11.7019 5.79785 11.2109L5.88379 11.1162L7.2627 9.7373ZM14.9697 9.7373C15.4579 9.24928 16.2492 9.24928 16.7373 9.7373L18.1162 11.1162C18.6042 11.6043 18.6042 12.3957 18.1162 12.8838L16.7373 14.2627L16.6426 14.3486C16.1844 14.7223 15.5227 14.7223 15.0645 14.3486L14.9697 14.2627L13.5908 12.8838C13.1333 12.4262 13.1045 11.7019 13.5049 11.2109L13.5908 11.1162L14.9697 9.7373ZM8.32324 10.4443C8.22564 10.3468 8.06733 10.3468 7.96973 10.4443L6.59082 11.8232C6.49332 11.9208 6.49332 12.0792 6.59082 12.1768L7.96973 13.5557C8.06733 13.6532 8.22563 13.6532 8.32324 13.5557L9.70215 12.1768C9.79965 12.0792 9.79965 11.9208 9.70215 11.8232L8.32324 10.4443ZM16.0303 10.4443C15.9327 10.3468 15.7744 10.3468 15.6768 10.4443L14.2979 11.8232C14.2003 11.9208 14.2003 12.0792 14.2979 12.1768L15.6768 13.5557C15.7744 13.6532 15.9327 13.6532 16.0303 13.5557L17.4092 12.1768C17.5067 12.0792 17.5067 11.9208 17.4092 11.8232L16.0303 10.4443ZM11.1162 5.88379C11.6043 5.39576 12.3957 5.39576 12.8838 5.88379L14.2627 7.2627C14.7507 7.75083 14.7507 8.54214 14.2627 9.03027L12.8838 10.4092L12.7891 10.4951C12.3308 10.8688 11.6692 10.8688 11.2109 10.4951L11.1162 10.4092L9.7373 9.03027C9.27976 8.57264 9.25099 7.84835 9.65137 7.35742L9.7373 7.2627L11.1162 5.88379ZM12.1768 6.59082C12.0792 6.49332 11.9208 6.49332 11.8232 6.59082L10.4443 7.96973C10.3468 8.06733 10.3468 8.22563 10.4443 8.32324L11.8232 9.70215C11.9208 9.79965 12.0792 9.79965 12.1768 9.70215L13.5557 8.32324C13.6532 8.22564 13.6532 8.06733 13.5557 7.96973L12.1768 6.59082Z" fill="black" fill-opacity="0.9"/>
</g>
</svg>
