<svg width="24" height="24" viewBox="0 0 24 24" fill="none" xmlns="http://www.w3.org/2000/svg">
<g id="icon.24.code-block">
<path id="Icon" d="M18 4C19.1046 4 20 4.89543 20 6V18C20 19.1046 19.1046 20 18 20H6C4.89543 20 4 19.1046 4 18V11.5C4 11.2239 4.22386 11 4.5 11C4.77614 11 5 11.2239 5 11.5V18C5 18.5523 5.44772 19 6 19H18C18.5523 19 19 18.5523 19 18V6C19 5.44772 18.5523 5 18 5H14.5C14.2239 5 14 4.77614 14 4.5C14 4.22386 14.2239 4 14.5 4H18ZM6.64648 4.14648C6.84175 3.95122 7.15825 3.95122 7.35352 4.14648C7.54878 4.34175 7.54878 4.65825 7.35352 4.85352L5.20703 7L7.35352 9.14648C7.54878 9.34175 7.54878 9.65825 7.35352 9.85352C7.15825 10.0488 6.84175 10.0488 6.64648 9.85352L4.14648 7.35352C3.95122 7.15825 3.95122 6.84175 4.14648 6.64648L6.64648 4.14648ZM9.64648 4.14648C9.84175 3.95122 10.1583 3.95122 10.3535 4.14648L12.8535 6.64648C13.0488 6.84175 13.0488 7.15825 12.8535 7.35352L10.3535 9.85352C10.1583 10.0488 9.84175 10.0488 9.64648 9.85352C9.45122 9.65825 9.45122 9.34175 9.64648 9.14648L11.793 7L9.64648 4.85352C9.45122 4.65825 9.45122 4.34175 9.64648 4.14648Z" fill="black" fill-opacity="0.9"/>
</g>
</svg>
