<svg width="24" height="24" viewBox="0 0 24 24" fill="none" xmlns="http://www.w3.org/2000/svg">
<g id="icon.24.text.align-middle">
<path id="Icon" d="M11.2246 13.082C11.4187 12.9539 11.6827 12.9756 11.8535 13.1465L13.8535 15.1465C14.0488 15.3417 14.0488 15.6583 13.8535 15.8535C13.6583 16.0488 13.3417 16.0488 13.1465 15.8535L12 14.707V18.5C12 18.7761 11.7761 19 11.5 19C11.2239 19 11 18.7761 11 18.5V14.707L9.85352 15.8535C9.65825 16.0488 9.34175 16.0488 9.14648 15.8535C8.95122 15.6583 8.95122 15.3417 9.14648 15.1465L11.1465 13.1465L11.2246 13.082ZM17.5 11C17.7761 11 18 11.2239 18 11.5C18 11.7761 17.7761 12 17.5 12H5.5C5.22386 12 5 11.7761 5 11.5C5 11.2239 5.22386 11 5.5 11H17.5ZM11.5 4C11.7761 4 12 4.22386 12 4.5V8.29297L13.1465 7.14648C13.3417 6.95122 13.6583 6.95122 13.8535 7.14648C14.0488 7.34175 14.0488 7.65825 13.8535 7.85352L11.8535 9.85352C11.6827 10.0244 11.4187 10.0461 11.2246 9.91797L11.1465 9.85352L9.14648 7.85352C8.95122 7.65825 8.95122 7.34175 9.14648 7.14648C9.34175 6.95122 9.65825 6.95122 9.85352 7.14648L11 8.29297V4.5C11 4.22386 11.2239 4 11.5 4Z" fill="black" fill-opacity="0.9"/>
</g>
</svg>
