<svg width="24" height="24" viewBox="0 0 24 24" fill="none" xmlns="http://www.w3.org/2000/svg">
<g id="icon.24.eye.small">
<path id="Icon" d="M12 7C16.6667 7 19 10.75 19 12C19 13.25 16.6667 17 12 17C7.47888 17 5.14784 13.4802 5.00684 12.124L5 12C5 10.75 7.33333 7 12 7ZM12 8C9.95481 8 8.44137 8.81596 7.43359 9.76074C6.92603 10.2366 6.55333 10.7404 6.3125 11.1758C6.05459 11.6422 6 11.9345 6 12C6.00002 12.0656 6.05462 12.3579 6.3125 12.8242C6.55334 13.2597 6.92602 13.7634 7.43359 14.2393C8.44138 15.1841 9.95482 16 12 16C14.0452 16 15.5586 15.1841 16.5664 14.2393C17.074 13.7634 17.4467 13.2597 17.6875 12.8242C17.9454 12.3578 18 12.0655 18 12C18 11.9345 17.9454 11.6422 17.6875 11.1758C17.4467 10.7403 17.074 10.2366 16.5664 9.76074C15.5586 8.81595 14.0452 8 12 8ZM12 10C13.1046 10 14 10.8954 14 12C14 13.1046 13.1046 14 12 14C10.8954 14 10 13.1046 10 12C10 10.8954 10.8954 10 12 10ZM12 11C11.4477 11 11 11.4477 11 12C11 12.5523 11.4477 13 12 13C12.5523 13 13 12.5523 13 12C13 11.4477 12.5523 11 12 11Z" fill="black" fill-opacity="0.9"/>
</g>
</svg>
