<svg width="24" height="24" viewBox="0 0 24 24" fill="none" xmlns="http://www.w3.org/2000/svg">
<g id="icon.24.pencil">
<path id="Icon" d="M4.12402 3.00769L8.12402 3.50769C8.34468 3.53527 8.54979 3.63561 8.70703 3.79285L20.5 15.5858L20.6377 15.7372C21.2784 16.5227 21.2322 17.6817 20.5 18.4139L18.4141 20.4999C17.633 21.2808 16.367 21.2808 15.5859 20.4999L3.79297 8.70691C3.67506 8.58899 3.58922 8.44415 3.54199 8.28601L3.50781 8.1239L3.00781 4.1239C2.96954 3.8177 3.07476 3.51105 3.29297 3.29285C3.51117 3.07464 3.81782 2.96942 4.12402 3.00769ZM14.3535 17.8534L16.293 19.7928C16.6835 20.1833 17.3165 20.1833 17.707 19.7928L19.793 17.7069L19.8613 17.6307C20.1816 17.238 20.159 16.6589 19.793 16.2928L17.8535 14.3534L14.3535 17.8534ZM4.5 7.99988L13.6465 17.1464L17.1465 13.6464L8 4.49988L4 3.99988L4.5 7.99988Z" fill="black" fill-opacity="0.9"/>
</g>
</svg>
