<svg width="24" height="24" viewBox="0 0 24 24" fill="none" xmlns="http://www.w3.org/2000/svg">
<g id="icon.24.sidebars.show.hover">
<path id="Icon" d="M19 5C20.1046 5 21 5.89543 21 7V17C21 18.0357 20.2128 18.887 19.2041 18.9893L19 19H5L4.7959 18.9893C3.85435 18.8938 3.1062 18.1457 3.01074 17.2041L3 17V7C3 5.89543 3.89543 5 5 5H19ZM5 6C4.44772 6 4 6.44772 4 7V17C4 17.5523 4.44772 18 5 18H7V6H5ZM16 18V6H8V18H16ZM19 18C19.5523 18 20 17.5523 20 17V7C20 6.44772 19.5523 6 19 6H17V18H19Z" fill="black" fill-opacity="0.9"/>
</g>
</svg>
