<svg width="24" height="24" viewBox="0 0 24 24" fill="none" xmlns="http://www.w3.org/2000/svg">
<g id="icon.24.al.padding-top">
<path id="Icon" d="M7 7.5C7 7.22386 7.22386 7 7.5 7L16.5 7C16.7761 7 17 7.22386 17 7.5C17 7.77614 16.7761 8 16.5 8H7.5C7.22386 8 7 7.77614 7 7.5ZM10 11C10 10.4477 10.4477 10 11 10H13L13.1025 10.0049C13.6067 10.0562 14 10.4823 14 11V13L13.9951 13.1025C13.9438 13.6067 13.5177 14 13 14H11C10.4477 14 10 13.5523 10 13V11ZM11 11V13H13V11H11Z" fill="black" fill-opacity="0.9"/>
</g>
</svg>
