<svg width="24" height="24" viewBox="0 0 24 24" fill="none" xmlns="http://www.w3.org/2000/svg">
<g id="icon.24.go.to.main.component.small">
<path id="Icon" d="M10.1465 7.14648C10.3417 6.95126 10.6583 6.95123 10.8535 7.14648C11.0487 7.34174 11.0487 7.65826 10.8535 7.85352L6.70703 12L12 17.293L16.1465 13.1465C16.3417 12.9513 16.6583 12.9512 16.8535 13.1465C17.0487 13.3417 17.0487 13.6583 16.8535 13.8535L12.707 18C12.3165 18.3905 11.6835 18.3904 11.293 18L6 12.707C5.60953 12.3165 5.60953 11.6835 6 11.293L10.1465 7.14648ZM17 6C17.5523 6.00004 18 6.44774 18 7V10.5C18 10.7761 17.7761 11 17.5 11C17.2239 11 17 10.7761 17 10.5V7.70703L12.3535 12.3535C12.1583 12.5488 11.8417 12.5487 11.6465 12.3535C11.4512 12.1583 11.4512 11.8417 11.6465 11.6465L16.293 7H13.5C13.2239 7 13 6.77614 13 6.5C13 6.22386 13.2239 6 13.5 6H17Z" fill="black" fill-opacity="0.9"/>
</g>
</svg>
