<svg width="24" height="24" viewBox="0 0 24 24" fill="none" xmlns="http://www.w3.org/2000/svg">
<g id="icon.24.microphone.small">
<path id="Icon" d="M16 11C16.2761 11 16.5 11.2239 16.5 11.5V12C16.5 14.3162 14.7499 16.2219 12.5 16.4707V18H14.5C14.7761 18 15 18.2239 15 18.5C15 18.7761 14.7761 19 14.5 19H9.5C9.22386 19 9 18.7761 9 18.5C9 18.2239 9.22386 18 9.5 18H11.5V16.4707C9.25012 16.2219 7.5 14.3162 7.5 12V11.5C7.5 11.2239 7.72386 11 8 11C8.27614 11 8.5 11.2239 8.5 11.5V12C8.5 13.933 10.067 15.5 12 15.5C13.933 15.5 15.5 13.933 15.5 12V11.5C15.5 11.2239 15.7239 11 16 11ZM12 5C13.1046 5 14 5.89543 14 7V12C14 13.1046 13.1046 14 12 14C10.9643 14 10.113 13.2128 10.0107 12.2041L10 12V7C10 5.89543 10.8954 5 12 5ZM12 6C11.4477 6 11 6.44772 11 7V12C11 12.5523 11.4477 13 12 13C12.5523 13 13 12.5523 13 12V7C13 6.44772 12.5523 6 12 6Z" fill="black" fill-opacity="0.9"/>
</g>
</svg>
