<svg width="24" height="24" viewBox="0 0 24 24" fill="none" xmlns="http://www.w3.org/2000/svg">
<g id="icon.24.swap">
<path id="Icon" d="M15.6465 12.6465C15.8417 12.4512 16.1583 12.4512 16.3535 12.6465L18.8535 15.1465C19.0488 15.3417 19.0488 15.6583 18.8535 15.8535L16.3535 18.3535C16.1583 18.5488 15.8417 18.5488 15.6465 18.3535C15.4512 18.1583 15.4512 17.8417 15.6465 17.6465L17.293 16H5.5C5.22386 16 5 15.7761 5 15.5C5 15.2239 5.22386 15 5.5 15H17.293L15.6465 13.3535C15.4512 13.1583 15.4512 12.8417 15.6465 12.6465ZM7.64648 5.64648C7.84175 5.45122 8.15825 5.45122 8.35352 5.64648C8.54878 5.84175 8.54878 6.15825 8.35352 6.35352L6.70703 8H18.5C18.7761 8 19 8.22386 19 8.5C19 8.77614 18.7761 9 18.5 9H6.70703L8.35352 10.6465C8.54878 10.8417 8.54878 11.1583 8.35352 11.3535C8.15825 11.5488 7.84175 11.5488 7.64648 11.3535L5.14648 8.85352C4.95122 8.65825 4.95122 8.34175 5.14648 8.14648L7.64648 5.64648Z" fill="black" fill-opacity="0.9"/>
</g>
</svg>
