<svg width="24" height="24" viewBox="0 0 24 24" fill="none" xmlns="http://www.w3.org/2000/svg">
<g id="icon.24.text.align-top">
<path id="Icon" d="M11.2246 7.08203C11.4187 6.95387 11.6827 6.97562 11.8535 7.14648L14.8535 10.1465C15.0488 10.3417 15.0488 10.6583 14.8535 10.8535C14.6583 11.0488 14.3417 11.0488 14.1465 10.8535L12 8.70703V16.5C12 16.7761 11.7761 17 11.5 17C11.2239 17 11 16.7761 11 16.5V8.70703L8.85352 10.8535C8.65825 11.0488 8.34175 11.0488 8.14648 10.8535C7.95122 10.6583 7.95122 10.3417 8.14648 10.1465L11.1465 7.14648L11.2246 7.08203ZM17.5 5C17.7761 5 18 5.22386 18 5.5C18 5.77614 17.7761 6 17.5 6H5.5C5.22386 6 5 5.77614 5 5.5C5 5.22386 5.22386 5 5.5 5H17.5Z" fill="black" fill-opacity="0.9"/>
</g>
</svg>
