<svg width="24" height="24" viewBox="0 0 24 24" fill="none" xmlns="http://www.w3.org/2000/svg">
<g id="icon.24.missing-font">
<path id="Icon" d="M19 18V19H5V18H19ZM20 17V7C20 6.44772 19.5523 6 19 6H5C4.44772 6 4 6.44772 4 7V17C4 17.5523 4.44772 18 5 18V19L4.7959 18.9893C3.85435 18.8938 3.1062 18.1457 3.01074 17.2041L3 17V7C3 5.89543 3.89543 5 5 5H19C20.1046 5 21 5.89543 21 7V17C21 18.0357 20.2128 18.887 19.2041 18.9893L19 19V18C19.5523 18 20 17.5523 20 17Z" fill="black" fill-opacity="0.9"/>
</g>
</svg>
