<svg width="24" height="24" viewBox="0 0 24 24" fill="none" xmlns="http://www.w3.org/2000/svg">
<g id="icon.24.notification.bell.filled.small">
<path id="Icon" d="M13.7305 18C13.3845 18.5973 12.7399 19 12 19C11.2601 19 10.6155 18.5973 10.2695 18H13.7305ZM12 5C12.5523 5 13 5.44772 13 6C13 6.04205 12.9962 6.08334 12.9912 6.12402C14.7209 6.56501 16 8.13301 16 10V11.1719C16.0001 12.7176 16.6141 14.2 17.707 15.293C17.993 15.579 18.0786 16.0091 17.9238 16.3828C17.769 16.7564 17.4044 17 17 17H7C6.5956 17 6.23098 16.7564 6.07617 16.3828C5.9214 16.0091 6.00699 15.579 6.29297 15.293C7.38594 14.2 7.99992 12.7176 8 11.1719V10C8 8.13336 9.27864 6.56535 11.0078 6.12402C11.0028 6.08338 11 6.042 11 6C11 5.44772 11.4477 5 12 5ZM7.44141 15.5117C7.47415 15.472 7.50532 15.431 7.53711 15.3906C7.50533 15.431 7.47415 15.472 7.44141 15.5117ZM7.63184 15.2695C7.66897 15.2201 7.70451 15.1695 7.74023 15.1191C7.70452 15.1695 7.66897 15.2201 7.63184 15.2695ZM16.2588 15.1191C16.2945 15.1695 16.3301 15.2201 16.3672 15.2695C16.3301 15.2201 16.2945 15.1695 16.2588 15.1191ZM7.82715 14.9941C7.85771 14.9489 7.88755 14.9033 7.91699 14.8574C7.88756 14.9033 7.85771 14.9489 7.82715 14.9941ZM16.082 14.8574C16.1115 14.9033 16.1413 14.9489 16.1719 14.9941C16.1413 14.9489 16.1115 14.9033 16.082 14.8574ZM7.99805 14.7285C8.02506 14.6843 8.05117 14.6395 8.07715 14.5947C8.05117 14.6396 8.02506 14.6843 7.99805 14.7285ZM15.9219 14.5947C15.9478 14.6395 15.974 14.6843 16.001 14.7285C15.974 14.6843 15.9478 14.6395 15.9219 14.5947ZM8.17285 14.4258C8.19216 14.3902 8.21083 14.3543 8.22949 14.3184C8.21084 14.3543 8.19215 14.3902 8.17285 14.4258ZM15.7695 14.3184C15.7882 14.3543 15.8069 14.3902 15.8262 14.4258C15.8069 14.3902 15.7882 14.3543 15.7695 14.3184ZM8.30859 14.1611C8.33711 14.1026 8.36478 14.0437 8.3916 13.9844C8.36478 14.0437 8.33711 14.1026 8.30859 14.1611ZM15.6074 13.9844C15.6342 14.0437 15.6619 14.1026 15.6904 14.1611C15.6619 14.1026 15.6342 14.0437 15.6074 13.9844ZM8.43262 13.8926C8.46142 13.8263 8.48894 13.7595 8.51562 13.6924C8.48895 13.7595 8.46141 13.8263 8.43262 13.8926ZM15.4834 13.6924C15.5101 13.7595 15.5376 13.8263 15.5664 13.8926C15.5376 13.8263 15.5101 13.7595 15.4834 13.6924ZM8.55469 13.5908C8.58035 13.5231 8.6054 13.4552 8.62891 13.3867C8.60541 13.4552 8.58034 13.5231 8.55469 13.5908ZM15.3701 13.3867C15.3936 13.4552 15.4187 13.5231 15.4443 13.5908C15.4187 13.5231 15.3936 13.4552 15.3701 13.3867ZM8.66113 13.2891C8.68135 13.2271 8.70128 13.1651 8.71973 13.1025C8.70129 13.1651 8.68134 13.2271 8.66113 13.2891ZM15.2793 13.1025C15.2977 13.1651 15.3177 13.2271 15.3379 13.2891C15.3177 13.2271 15.2977 13.1651 15.2793 13.1025ZM8.76367 12.9434C8.7773 12.8927 8.79125 12.8421 8.80371 12.791C8.79125 12.8421 8.77729 12.8927 8.76367 12.9434ZM15.1953 12.791C15.2078 12.8421 15.2217 12.8927 15.2354 12.9434C15.2217 12.8927 15.2078 12.842 15.1953 12.791ZM8.83887 12.6357C8.85078 12.5815 8.86245 12.5272 8.87305 12.4727C8.86246 12.5272 8.85077 12.5815 8.83887 12.6357ZM15.126 12.4727C15.1366 12.5272 15.1482 12.5815 15.1602 12.6357C15.1483 12.5815 15.1366 12.5272 15.126 12.4727ZM8.90137 12.3145C8.91058 12.2602 8.91982 12.2059 8.92773 12.1514C8.91983 12.2059 8.91058 12.2602 8.90137 12.3145ZM15.0713 12.1514C15.0792 12.206 15.0894 12.2601 15.0986 12.3145C15.0894 12.2601 15.0792 12.206 15.0713 12.1514ZM15.0332 11.8467C15.0394 11.9088 15.0488 11.9704 15.0566 12.0322C15.0347 11.8592 15.0175 11.685 15.0088 11.5098L15.0332 11.8467ZM8.94629 12.0039C8.95273 11.9515 8.96157 11.8993 8.9668 11.8467L8.96875 11.8252C8.963 11.885 8.9536 11.9444 8.94629 12.0039Z" fill="black" fill-opacity="0.9"/>
</g>
</svg>
