<svg width="24" height="24" viewBox="0 0 24 24" fill="none" xmlns="http://www.w3.org/2000/svg">
<g id="icon.24.slice.small">
<path id="Icon" d="M15.084 7.05276C15.8652 6.27198 17.1374 6.29152 17.8945 7.09573C18.6197 7.86637 18.6016 9.07388 17.8535 9.8223L11.9893 15.6856C11.8791 16.9819 10.7936 18 9.46875 18H5.34375C5.14162 18 4.95929 17.8781 4.88184 17.6914C4.80451 17.5047 4.84735 17.2895 4.99023 17.1465L15.084 7.05276ZM6.55078 17H9.46875C10.3143 17 10.9998 16.3143 11 15.4688V12.5508L6.55078 17ZM17.166 7.78128C16.7956 7.38782 16.1733 7.3779 15.791 7.7598L12 11.5508V14.2608L17.1455 9.11526C17.5117 8.74904 17.5209 8.15844 17.166 7.78128Z" fill="black" fill-opacity="0.9"/>
</g>
</svg>
