<svg width="24" height="24" viewBox="0 0 24 24" fill="none" xmlns="http://www.w3.org/2000/svg">
<g id="icon.24.action.conditional.small">
<path id="Icon" d="M9.14648 14.1465C9.34175 13.9512 9.65825 13.9512 9.85352 14.1465C10.0488 14.3417 10.0488 14.6583 9.85352 14.8535L8.70703 16L9.85352 17.1465C10.0488 17.3417 10.0488 17.6583 9.85352 17.8535C9.65825 18.0488 9.34175 18.0488 9.14648 17.8535L8 16.707L6.85352 17.8535C6.65825 18.0488 6.34175 18.0488 6.14648 17.8535C5.95122 17.6583 5.95122 17.3417 6.14648 17.1465L7.29297 16L6.14648 14.8535C5.95122 14.6583 5.95122 14.3417 6.14648 14.1465C6.34175 13.9512 6.65825 13.9512 6.85352 14.1465L8 15.293L9.14648 14.1465ZM16 14C17.1046 14 18 14.8954 18 16C18 17.1046 17.1046 18 16 18C14.8954 18 14 17.1046 14 16C14 14.8954 14.8954 14 16 14ZM16 15C15.4477 15 15 15.4477 15 16C15 16.5523 15.4477 17 16 17C16.5523 17 17 16.5523 17 16C17 15.4477 16.5523 15 16 15ZM12 5C12.2761 5 12.5 5.22386 12.5 5.5V8H15C15.8284 8 16.5 8.67157 16.5 9.5V11.5C16.5 11.7761 16.2761 12 16 12C15.7239 12 15.5 11.7761 15.5 11.5V9.5C15.5 9.22386 15.2761 9 15 9H9C8.72386 9 8.5 9.22386 8.5 9.5V11.5C8.5 11.7761 8.27614 12 8 12C7.72386 12 7.5 11.7761 7.5 11.5V9.5C7.5 8.67157 8.17157 8 9 8H11.5V5.5C11.5 5.22386 11.7239 5 12 5Z" fill="black" fill-opacity="0.9"/>
</g>
</svg>
