<svg width="24" height="24" viewBox="0 0 24 24" fill="none" xmlns="http://www.w3.org/2000/svg">
<g id="icon.24.magic.noodle">
<path id="Icon" d="M17.1475 3.14648C17.3427 2.95124 17.6592 2.95123 17.8545 3.14648L20.8545 6.14648L20.9189 6.22461C21.0471 6.41868 21.0253 6.68266 20.8545 6.85352L17.8545 9.85352C17.6592 10.0488 17.3427 10.0488 17.1475 9.85352C16.9522 9.65825 16.9522 9.34175 17.1475 9.14648L19.2939 7H15.501C14.1203 7 13.001 8.11929 13.001 9.5V14.5C13.001 16.433 11.434 18 9.50098 18H8.95117C8.71955 19.1411 7.71046 20 6.50098 20C5.12026 20 4.00098 18.8807 4.00098 17.5C4.00098 16.1193 5.12026 15 6.50098 15C7.71046 15 8.71955 15.8589 8.95117 17H9.50098C10.8817 17 12.001 15.8807 12.001 14.5V9.5C12.001 7.567 13.568 6 15.501 6H19.2939L17.1475 3.85352C16.9522 3.65825 16.9522 3.34175 17.1475 3.14648ZM17.0156 15.4404C17.1419 14.9355 17.8601 14.9355 17.9863 15.4404L18.3008 16.7002L19.5605 17.0146C20.0655 17.1409 20.0655 17.8591 19.5605 17.9854L18.3008 18.2998L17.9863 19.5596C17.8601 20.0645 17.1419 20.0645 17.0156 19.5596L16.7012 18.2998L15.4414 17.9854C14.9364 17.8591 14.9364 17.1409 15.4414 17.0146L16.7012 16.7002L17.0156 15.4404ZM6.50098 16C5.67255 16 5.00098 16.6716 5.00098 17.5C5.00098 18.3284 5.67255 19 6.50098 19C7.32939 19 8.00098 18.3284 8.00098 17.5C8.00098 16.6716 7.32939 16 6.50098 16ZM6.01562 3.44043C6.14187 2.93545 6.86008 2.93545 6.98633 3.44043L7.50098 5.5L9.56055 6.01465C10.0655 6.14089 10.0655 6.85911 9.56055 6.98535L7.50098 7.5L6.98633 9.55957C6.86008 10.0645 6.14187 10.0645 6.01562 9.55957L5.50098 7.5L3.44141 6.98535C2.93643 6.85911 2.93643 6.14089 3.44141 6.01465L5.50098 5.5L6.01562 3.44043Z" fill="black" fill-opacity="0.9"/>
</g>
</svg>
