<svg width="24" height="24" viewBox="0 0 24 24" fill="none" xmlns="http://www.w3.org/2000/svg">
<g id="icon.24.gradient.linear.small">
<path id="Secondary Fill" d="M11.5 7V17H8C7.44772 17 7 16.5523 7 16V8L7.00488 7.89746C7.05621 7.39333 7.48232 7 8 7H11.5Z" fill="black" fill-opacity="0.3"/>
<path id="Icon" d="M16.2041 6.01074C17.2128 6.113 18 6.96435 18 8V16L17.9893 16.2041C17.8938 17.1457 17.1457 17.8938 16.2041 17.9893L16 18H8C6.96435 18 6.113 17.2128 6.01074 16.2041L6 16V8C6 6.89543 6.89543 6 8 6H16L16.2041 6.01074ZM8 7C7.48232 7 7.05621 7.39333 7.00488 7.89746L7 8V16C7 16.5523 7.44772 17 8 17H11.5V7H8ZM12.5 17H16C16.5523 17 17 16.5523 17 16V8C17 7.48232 16.6067 7.05621 16.1025 7.00488L16 7H12.5V17Z" fill="black" fill-opacity="0.9"/>
</g>
</svg>
