<svg width="24" height="24" viewBox="0 0 24 24" fill="none" xmlns="http://www.w3.org/2000/svg">
<g id="icon.24.al.height-max">
<path id="Icon" d="M16.5 18C16.7761 18 17 18.2239 17 18.5C17 18.7761 16.7761 19 16.5 19H6.5C6.22386 19 6 18.7761 6 18.5C6 18.2239 6.22386 18 6.5 18H16.5ZM11.2246 7.08203C11.4187 6.95387 11.6827 6.97562 11.8535 7.14648L14.3535 9.64648C14.5488 9.84175 14.5488 10.1583 14.3535 10.3535C14.1583 10.5488 13.8417 10.5488 13.6465 10.3535L12 8.70703V15.293L13.6465 13.6465C13.8417 13.4512 14.1583 13.4512 14.3535 13.6465C14.5488 13.8417 14.5488 14.1583 14.3535 14.3535L11.8535 16.8535C11.763 16.944 11.6381 17 11.5 17C11.3619 17 11.237 16.944 11.1465 16.8535L8.64648 14.3535C8.45122 14.1583 8.45122 13.8417 8.64648 13.6465C8.84175 13.4512 9.15825 13.4512 9.35352 13.6465L11 15.293V8.70703L9.35352 10.3535C9.15825 10.5488 8.84175 10.5488 8.64648 10.3535C8.45122 10.1583 8.45122 9.84175 8.64648 9.64648L11.1465 7.14648L11.2246 7.08203ZM16.5 5C16.7761 5 17 5.22386 17 5.5C17 5.77614 16.7761 6 16.5 6H6.5C6.22386 6 6 5.77614 6 5.5C6 5.22386 6.22386 5 6.5 5H16.5Z" fill="black" fill-opacity="0.9"/>
</g>
</svg>
