<svg width="24" height="24" viewBox="0 0 24 24" fill="none" xmlns="http://www.w3.org/2000/svg">
<g id="icon.24.page">
<path id="Icon" d="M12.5859 4C12.8511 4.00004 13.1055 4.10547 13.293 4.29297L17.707 8.70703C17.8945 8.89453 18 9.1489 18 9.41406V18C18 19.1046 17.1046 20 16 20H8C6.89543 20 6 19.1046 6 18V6C6 4.89543 6.89543 4 8 4H12.5859ZM8 5C7.44772 5 7 5.44772 7 6V18C7 18.5523 7.44772 19 8 19H16C16.5523 19 17 18.5523 17 18V10H13.5C12.6716 10 12 9.32843 12 8.5V5H8ZM13 8.5C13 8.77614 13.2239 9 13.5 9H16.5859L13 5.41406V8.5Z" fill="black" fill-opacity="0.9"/>
</g>
</svg>
