<svg width="24" height="24" viewBox="0 0 24 24" fill="none" xmlns="http://www.w3.org/2000/svg">
<g id="icon.24.al.width-minmax">
<path id="Icon" d="M5.5 6C5.77614 6 6 6.22386 6 6.5V17.5C6 17.7761 5.77614 18 5.5 18C5.22386 18 5 17.7761 5 17.5V6.5C5 6.22386 5.22386 6 5.5 6ZM18.5 6C18.7761 6 19 6.22386 19 6.5V17.5C19 17.7761 18.7761 18 18.5 18C18.2239 18 18 17.7761 18 17.5V6.5C18 6.22386 18.2239 6 18.5 6ZM10.0146 13.8799L11.4854 8H12.5166L13.9863 13.8799L15.3701 8H16.3965L14.5146 16H13.4854L12.001 10.0625L10.5166 16H9.4873L7.60547 8H8.63184L10.0146 13.8799Z" fill="black" fill-opacity="0.9"/>
</g>
</svg>
