<svg width="24" height="24" viewBox="0 0 24 24" fill="none" xmlns="http://www.w3.org/2000/svg">
<g id="icon.24.play.pause.small">
<path id="Icon" d="M15.5 7C15.7761 7 16 7.22386 16 7.5V16.5C16 16.7761 15.7761 17 15.5 17C15.2239 17 15 16.7761 15 16.5V7.5C15 7.22386 15.2239 7 15.5 7ZM18.5 7C18.7761 7 19 7.22386 19 7.5V16.5C19 16.7761 18.7761 17 18.5 17C18.2239 17 18 16.7761 18 16.5V7.5C18 7.22386 18.2239 7 18.5 7ZM5 8.70605C5 7.35897 6.49198 6.54689 7.62305 7.27832L12.7148 10.5723C13.7501 11.2422 13.7501 12.7578 12.7148 13.4277L7.62305 16.7217C6.49198 17.4531 5 16.641 5 15.2939V8.70605ZM7.08008 8.11816C6.61434 7.8169 6 8.15134 6 8.70605V15.2939C6 15.8487 6.61434 16.1831 7.08008 15.8818L12.1709 12.5879C12.5972 12.3121 12.5972 11.688 12.1709 11.4121L7.08008 8.11816Z" fill="black" fill-opacity="0.9"/>
</g>
</svg>
