<svg width="24" height="24" viewBox="0 0 24 24" fill="none" xmlns="http://www.w3.org/2000/svg">
<g id="icon.24.title-case">
<path id="Icon" d="M15.3262 10.1689C15.6984 10.169 15.9959 10.2314 16.2188 10.3555C16.4416 10.477 16.6138 10.6178 16.7354 10.7773C16.8501 10.9249 16.9417 11.051 17.0088 11.1553C17.0188 11.1706 17.0363 11.1797 17.0547 11.1797C17.0843 11.1795 17.1084 11.1556 17.1084 11.126V10.7129C17.1084 10.4549 17.3172 10.2453 17.5752 10.2451H17.6045C17.8781 10.2454 18.0996 10.4675 18.0996 10.7412V16.2295C18.0996 16.7311 17.9844 17.1404 17.7539 17.457C17.5259 17.7762 17.2172 18.0121 16.8271 18.1641C16.437 18.3161 16.0008 18.3916 15.5195 18.3916C15.0715 18.3916 14.6868 18.3332 14.3652 18.2168C14.0435 18.1028 13.7767 17.9507 13.5664 17.7607C13.4948 17.6953 13.4293 17.6277 13.3691 17.5586C13.1864 17.3486 13.284 17.0409 13.5293 16.9092C13.7586 16.7863 14.0446 16.8546 14.2188 17.0479C14.2206 17.0499 14.2227 17.0526 14.2246 17.0547C14.3461 17.1862 14.5104 17.3003 14.7178 17.3965C14.9255 17.4927 15.1956 17.541 15.5273 17.541C15.9782 17.541 16.3507 17.4303 16.6445 17.21C16.9383 16.9921 17.0849 16.6478 17.085 16.1768V15.0576C17.0847 15.0313 17.0635 15.0098 17.0371 15.0098C17.0199 15.0099 17.0038 15.0193 16.9951 15.0342C16.9301 15.1451 16.8402 15.2731 16.7246 15.417C16.6005 15.5689 16.4255 15.7029 16.2002 15.8193C15.9773 15.9333 15.6818 15.9902 15.3145 15.9902C14.8485 15.9902 14.4289 15.8819 14.0566 15.6641C13.6868 15.4437 13.395 15.1199 13.1797 14.6943C12.9644 14.2688 12.8564 13.7497 12.8564 13.1367C12.8565 12.5288 12.9616 12.0028 13.1719 11.5596C13.3821 11.1139 13.6736 10.7709 14.0459 10.5303C14.4182 10.2897 14.845 10.1689 15.3262 10.1689ZM8.79199 8.2998C9.14107 8.2998 9.45307 8.51858 9.57227 8.84668L11.9453 15.3799C12.0692 15.7208 11.8169 16.082 11.4541 16.082C11.232 16.0819 11.0343 15.9411 10.9609 15.7314L10.3379 13.9502H7.24414L6.62012 15.7314C6.54666 15.941 6.34802 16.082 6.12598 16.082C5.76343 16.0817 5.51079 15.7207 5.63477 15.3799L8.01172 8.8457C8.13104 8.51787 8.44311 8.29982 8.79199 8.2998ZM15.501 11.0547C15.1413 11.0547 14.8412 11.1472 14.6006 11.332C14.3599 11.517 14.1782 11.7656 14.0566 12.0771C13.9377 12.3886 13.8789 12.7372 13.8789 13.1221C13.8789 13.5171 13.939 13.8643 14.0605 14.1631C14.1847 14.4619 14.3664 14.6955 14.6045 14.8652C14.8451 15.0324 15.1438 15.1162 15.501 15.1162C15.8455 15.1162 16.1355 15.0379 16.3711 14.8809C16.6091 14.7213 16.79 14.4921 16.9141 14.1934C17.0381 13.8946 17.1005 13.5373 17.1006 13.1221C17.1006 12.7142 17.0396 12.3549 16.918 12.0459C16.7964 11.7371 16.6169 11.495 16.3789 11.3203C16.1408 11.143 15.848 11.0547 15.501 11.0547ZM8.79199 9.62207C8.77401 9.62214 8.75807 9.6335 8.75195 9.65039L7.56445 13.0381H10.0186L8.83301 9.65039C8.82693 9.63333 8.81012 9.62207 8.79199 9.62207Z" fill="black" fill-opacity="0.9"/>
</g>
</svg>
