<svg width="24" height="24" viewBox="0 0 24 24" fill="none" xmlns="http://www.w3.org/2000/svg">
<g id="icon.24.folder">
<path id="Icon" d="M10.8818 6C11.2606 6 11.607 6.21398 11.7764 6.55273L12.5 8H16.5C17.3284 8 18 8.67157 18 9.5V15.5L17.9922 15.6533C17.9154 16.4097 17.2767 17 16.5 17H7.5C6.72334 17 6.08461 16.4097 6.00781 15.6533L6 15.5V7C6 6.44772 6.44772 6 7 6H10.8818ZM7 15.5C7 15.7761 7.22386 16 7.5 16H16.5C16.7761 16 17 15.7761 17 15.5V9.5C17 9.22386 16.7761 9 16.5 9H7V15.5ZM7 8H11.3818L10.8818 7H7V8Z" fill="black" fill-opacity="0.9"/>
</g>
</svg>
