<svg width="24" height="24" viewBox="0 0 24 24" fill="none" xmlns="http://www.w3.org/2000/svg">
<g id="icon.24.action.video.ends.small">
<path id="Icon" d="M17 6C17.5523 6 18 6.44772 18 7V17C18 17.5177 17.6067 17.9438 17.1025 17.9951L17 18H16L15.8975 17.9951C15.427 17.9472 15.0528 17.573 15.0049 17.1025L15 17V7C15 6.44772 15.4477 6 16 6H17ZM16 17H17V7H16V17ZM13.5 8C13.7761 8 14 8.22386 14 8.5V15.5C14 15.7761 13.7761 16 13.5 16H5.5C5.22386 16 5 15.7761 5 15.5C5 15.2239 5.22386 15 5.5 15H13V9H5.5C5.22386 9 5 8.77614 5 8.5C5 8.22386 5.22386 8 5.5 8H13.5Z" fill="black" fill-opacity="0.9"/>
</g>
</svg>
