<svg width="24" height="24" viewBox="0 0 24 24" fill="none" xmlns="http://www.w3.org/2000/svg">
<g id="icon.24.first.draft">
<path id="Icon" d="M19.0146 16.4404C19.1409 15.9355 19.8591 15.9355 19.9854 16.4404L20.5 18.5L22.5596 19.0146C23.0645 19.1409 23.0645 19.8591 22.5596 19.9854L20.5 20.5L19.9854 22.5596C19.8591 23.0645 19.1409 23.0645 19.0146 22.5596L18.5 20.5L16.4404 19.9854C15.9355 19.8591 15.9355 19.1409 16.4404 19.0146L18.5 18.5L19.0146 16.4404ZM18 4C19.1046 4 20 4.89543 20 6V14C20 14.2761 19.7761 14.5 19.5 14.5C19.2239 14.5 19 14.2761 19 14V9H10V19H14C14.2761 19 14.5 19.2239 14.5 19.5C14.5 19.7761 14.2761 20 14 20H6C4.89543 20 4 19.1046 4 18V6C4 4.89543 4.89543 4 6 4H18ZM5 18C5 18.5523 5.44772 19 6 19H9V9H5V18ZM6 5C5.44772 5 5 5.44772 5 6V8H19V6C19 5.44772 18.5523 5 18 5H6Z" fill="black" fill-opacity="0.9"/>
</g>
</svg>
