<svg width="24" height="24" viewBox="0 0 24 24" fill="none" xmlns="http://www.w3.org/2000/svg">
<g id="icon.24.version.current">
<path id="Icon" d="M12 5C15.866 5 19 8.13401 19 12C19 15.866 15.866 19 12 19C8.13401 19 5 15.866 5 12C5 8.13401 8.13401 5 12 5ZM12 6C8.68629 6 6 8.68629 6 12C6 15.3137 8.68629 18 12 18C15.3137 18 18 15.3137 18 12C18 8.68629 15.3137 6 12 6ZM12 9C13.6569 9 15 10.3431 15 12C15 13.6569 13.6569 15 12 15C10.3431 15 9 13.6569 9 12C9 10.3431 10.3431 9 12 9ZM12 10C10.8954 10 10 10.8954 10 12C10 13.1046 10.8954 14 12 14C13.1046 14 14 13.1046 14 12C14 10.8954 13.1046 10 12 10Z" fill="black" fill-opacity="0.9"/>
</g>
</svg>
