<svg width="24" height="24" viewBox="0 0 24 24" fill="none" xmlns="http://www.w3.org/2000/svg">
<g id="icon.24.codeSnippet">
<path id="Icon" d="M8.64648 7.14648C8.84175 6.95122 9.15825 6.95122 9.35352 7.14648C9.54878 7.34175 9.54878 7.65825 9.35352 7.85352L5.20703 12L9.35352 16.1465C9.54878 16.3417 9.54878 16.6583 9.35352 16.8535C9.15825 17.0488 8.84175 17.0488 8.64648 16.8535L4.14648 12.3535C3.95122 12.1583 3.95122 11.8417 4.14648 11.6465L8.64648 7.14648ZM14.6465 7.14648C14.8417 6.95122 15.1583 6.95122 15.3535 7.14648L19.8535 11.6465C19.9473 11.7403 20 11.8674 20 12C20 12.1326 19.9473 12.2597 19.8535 12.3535L15.3535 16.8535C15.1583 17.0488 14.8417 17.0488 14.6465 16.8535C14.4512 16.6583 14.4512 16.3417 14.6465 16.1465L18.793 12L14.6465 7.85352C14.4512 7.65825 14.4512 7.34175 14.6465 7.14648Z" fill="black" fill-opacity="0.9"/>
</g>
</svg>
