<svg width="24" height="24" viewBox="0 0 24 24" fill="none" xmlns="http://www.w3.org/2000/svg">
<g id="icon.24.notes.on.rectangle.small">
<path id="Icon" d="M15.2041 6.01074C16.2128 6.113 17 6.96435 17 8L17.2041 8.01074C18.2128 8.113 19 8.96435 19 10V16C19 17.1046 18.1046 18 17 18H9C7.89543 18 7 17.1046 7 16C5.89543 16 5 15.1046 5 14V8C5 6.89543 5.89543 6 7 6H15L15.2041 6.01074ZM9 9C8.44772 9 8 9.44772 8 10V16C8 16.5523 8.44772 17 9 17H17C17.5523 17 18 16.5523 18 16V10C18 9.48232 17.6067 9.05621 17.1025 9.00488L17 9H9ZM7 7C6.44772 7 6 7.44772 6 8V14C6 14.5523 6.44772 15 7 15V10C7 8.89543 7.89543 8 9 8H16C16 7.48232 15.6067 7.05621 15.1025 7.00488L15 7H7ZM13.5 13C13.7761 13 14 13.2239 14 13.5C14 13.7761 13.7761 14 13.5 14H10.5C10.2239 14 10 13.7761 10 13.5C10 13.2239 10.2239 13 10.5 13H13.5ZM15.5 11C15.7761 11 16 11.2239 16 11.5C16 11.7761 15.7761 12 15.5 12H10.5C10.2239 12 10 11.7761 10 11.5C10 11.2239 10.2239 11 10.5 11H15.5Z" fill="black" fill-opacity="0.9"/>
</g>
</svg>
