<svg width="24" height="24" viewBox="0 0 24 24" fill="none" xmlns="http://www.w3.org/2000/svg">
<g id="icon.24.audio.small">
<path id="Icon" d="M12.416 6C15.9032 6 18.5565 9.12577 17.9941 12.5645L17.6309 16.2061C17.5288 17.2244 16.6719 17.9999 15.6484 18C14.4698 17.9999 13.549 16.9823 13.666 15.8096L13.9111 13.3506C13.9879 12.5839 14.6338 12.0001 15.4043 12H17.0547C17.2591 9.3331 15.1493 7 12.416 7H11.582C8.84881 7.00013 6.73896 9.33318 6.94336 12H8.59375C9.36433 12 10.0102 12.5839 10.0869 13.3506L10.332 15.8096C10.4491 16.9824 9.52833 18 8.34961 18C7.32622 17.9998 6.4692 17.2244 6.36719 16.2061L6.00293 12.5645C5.44075 9.12592 8.09501 6.00013 11.582 6H12.416ZM7.3623 16.1064C7.41315 16.6136 7.83993 16.9998 8.34961 17C8.93683 17 9.39534 16.4925 9.33691 15.9082L9.0918 13.4502C9.06621 13.1946 8.85061 13 8.59375 13H7.05078L7.3623 16.1064ZM15.4043 13C15.1475 13.0001 14.9318 13.1947 14.9062 13.4502L14.6611 15.9082C14.6027 16.4924 15.0613 16.9999 15.6484 17C16.1582 16.9999 16.5849 16.6137 16.6357 16.1064L16.9473 13H15.4043Z" fill="black" fill-opacity="0.9"/>
</g>
</svg>
