<svg width="24" height="24" viewBox="0 0 24 24" fill="none" xmlns="http://www.w3.org/2000/svg">
<g id="icon.24.send.forward.small">
<path id="Icon" d="M11.2246 10.082C11.4187 9.95387 11.6827 9.97562 11.8535 10.1465L13.8535 12.1465C14.0488 12.3417 14.0488 12.6583 13.8535 12.8535C13.6583 13.0488 13.3417 13.0488 13.1465 12.8535L12 11.707V15H15.5C16.3284 15 17 15.6716 17 16.5C17 17.3284 16.3284 18 15.5 18H7.5C6.67157 18 6 17.3284 6 16.5C6 15.6716 6.67157 15 7.5 15H11V11.707L9.85352 12.8535C9.65825 13.0488 9.34175 13.0488 9.14648 12.8535C8.95122 12.6583 8.95122 12.3417 9.14648 12.1465L11.1465 10.1465L11.2246 10.082ZM7.5 16C7.22386 16 7 16.2239 7 16.5C7 16.7761 7.22386 17 7.5 17H15.5C15.7761 17 16 16.7761 16 16.5C16 16.2239 15.7761 16 15.5 16H7.5ZM15.5 6C16.3284 6 17 6.67157 17 7.5C17 8.32843 16.3284 9 15.5 9H7.5C6.67157 9 6 8.32843 6 7.5C6 6.67157 6.67157 6 7.5 6H15.5ZM7.5 7C7.22386 7 7 7.22386 7 7.5C7 7.77614 7.22386 8 7.5 8H15.5C15.7761 8 16 7.77614 16 7.5C16 7.22386 15.7761 7 15.5 7H7.5Z" fill="black" fill-opacity="0.9"/>
</g>
</svg>
