<svg width="24" height="24" viewBox="0 0 24 24" fill="none" xmlns="http://www.w3.org/2000/svg">
<g id="icon.24.expand">
<path id="Icon" d="M10.1465 13.1465C10.3417 12.9512 10.6583 12.9512 10.8535 13.1465C11.0488 13.3417 11.0488 13.6583 10.8535 13.8535L7.70703 17H10.5C10.7761 17 11 17.2239 11 17.5C11 17.7761 10.7761 18 10.5 18H6.5C6.22386 18 6 17.7761 6 17.5V13.5C6 13.2239 6.22386 13 6.5 13C6.77614 13 7 13.2239 7 13.5V16.293L10.1465 13.1465ZM17.5 6C17.7761 6 18 6.22386 18 6.5V10.5C18 10.7761 17.7761 11 17.5 11C17.2239 11 17 10.7761 17 10.5V7.70703L13.8535 10.8535C13.6583 11.0488 13.3417 11.0488 13.1465 10.8535C12.9512 10.6583 12.9512 10.3417 13.1465 10.1465L16.293 7H13.5C13.2239 7 13 6.77614 13 6.5C13 6.22386 13.2239 6 13.5 6H17.5Z" fill="black" fill-opacity="0.9"/>
</g>
</svg>
