<svg width="24" height="24" viewBox="0 0 24 24" fill="none" xmlns="http://www.w3.org/2000/svg">
<g id="icon.24.replace.content.small">
<path id="Icon" d="M6.5 16C6.77614 16 7 16.2239 7 16.5C7 16.7761 6.77614 17 6.5 17C6.22386 17 6 16.7761 6 16.5C6 16.2239 6.22386 16 6.5 16ZM8.5 16C8.77614 16 9 16.2239 9 16.5C9 16.7761 8.77614 17 8.5 17C8.22386 17 8 16.7761 8 16.5C8 16.2239 8.22386 16 8.5 16ZM10.5 16C10.7761 16 11 16.2239 11 16.5C11 16.7761 10.7761 17 10.5 17C10.2239 17 10 16.7761 10 16.5C10 16.2239 10.2239 16 10.5 16ZM14.5 16C14.7761 16 15 16.2239 15 16.5C15 16.7761 14.7761 17 14.5 17C14.2239 17 14 16.7761 14 16.5C14 16.2239 14.2239 16 14.5 16ZM16.5 16C16.7761 16 17 16.2239 17 16.5C17 16.7761 16.7761 17 16.5 17C16.2239 17 16 16.7761 16 16.5C16 16.2239 16.2239 16 16.5 16ZM18.5 16C18.7761 16 18.9999 16.2239 19 16.5C19 16.7761 18.7761 17 18.5 17C18.2239 17 18 16.7761 18 16.5C18.0001 16.2239 18.2239 16 18.5 16ZM12.0146 11.4404C12.1409 10.9355 12.8591 10.9355 12.9854 11.4404L13.2998 12.7002L14.5596 13.0146C15.0645 13.1409 15.0645 13.8591 14.5596 13.9854L13.2998 14.2998L12.9854 15.5596C12.8591 16.0645 12.1409 16.0645 12.0146 15.5596L11.7002 14.2998L10.4404 13.9854C9.93545 13.8591 9.93545 13.1409 10.4404 13.0146L11.7002 12.7002L12.0146 11.4404ZM8.5 13C8.77614 13 9 13.2239 9 13.5C9 13.7761 8.77614 14 8.5 14H6.5C6.22386 14 6 13.7761 6 13.5C6 13.2239 6.22386 13 6.5 13H8.5ZM16.5 13C16.7761 13 17 13.2239 17 13.5C17 13.7761 16.7761 14 16.5 14C16.2239 14 16 13.7761 16 13.5C16 13.2239 16.2239 13 16.5 13ZM18.5 13C18.7761 13 19 13.2239 19 13.5C19 13.7761 18.7761 14 18.5 14C18.2239 14 18 13.7761 18 13.5C18 13.2239 18.2239 13 18.5 13ZM10.5 10C10.7761 10 11 10.2239 11 10.5C11 10.7761 10.7761 11 10.5 11H6.5C6.22386 11 6 10.7761 6 10.5C6 10.2239 6.22386 10 6.5 10H10.5ZM18.5 10C18.7761 10 19 10.2239 19 10.5C19 10.7761 18.7761 11 18.5 11H14.5C14.2239 11 14 10.7761 14 10.5C14 10.2239 14.2239 10 14.5 10H18.5ZM18.5 7C18.7761 7 19 7.22386 19 7.5C19 7.77614 18.7761 8 18.5 8H6.5C6.22386 8 6 7.77614 6 7.5C6 7.22386 6.22386 7 6.5 7H18.5Z" fill="black" fill-opacity="0.9"/>
</g>
</svg>
