<svg width="24" height="24" viewBox="0 0 24 24" fill="none" xmlns="http://www.w3.org/2000/svg">
<g id="icon.24.mask">
<path id="Icon" d="M4.5 18C4.74171 18 4.94371 18.1714 4.99023 18.3994L5.00977 18.6006C5.04966 18.7961 5.20392 18.9503 5.39941 18.9902L5.60059 19.0098C5.82855 19.0563 6 19.2583 6 19.5C6 19.7761 5.77614 20 5.5 20C4.67157 20 4 19.3284 4 18.5C4 18.2239 4.22386 18 4.5 18ZM8.5 19C8.77614 19 9 19.2239 9 19.5C9 19.7761 8.77614 20 8.5 20H7.5C7.22386 20 7 19.7761 7 19.5C7 19.2239 7.22386 19 7.5 19H8.5ZM11.5 19C11.7761 19 12 19.2239 12 19.5C12 19.7761 11.7761 20 11.5 20H10.5C10.2239 20 10 19.7761 10 19.5C10 19.2239 10.2239 19 10.5 19H11.5ZM14.5 18C14.7761 18 15 18.2239 15 18.5C15 19.3284 14.3284 20 13.5 20C13.2239 20 13 19.7761 13 19.5C13 19.2583 13.1714 19.0563 13.3994 19.0098L13.6006 18.9902C13.7961 18.9503 13.9503 18.7961 13.9902 18.6006L14.0098 18.3994C14.0563 18.1714 14.2583 18 14.5 18ZM4.5 15C4.77614 15 5 15.2239 5 15.5V16.5C5 16.7761 4.77614 17 4.5 17C4.22386 17 4 16.7761 4 16.5V15.5C4 15.2239 4.22386 15 4.5 15ZM14 4C17.3137 4 20 6.68629 20 10C20 12.9729 17.8376 15.4388 15 15.915V16.5C15 16.7761 14.7761 17 14.5 17C14.2239 17 14 16.7761 14 16.5V16C10.6863 16 8 13.3137 8 10H7.5C7.22386 10 7 9.77614 7 9.5C7 9.22386 7.22386 9 7.5 9H8.08496C8.56117 6.16245 11.0271 4 14 4ZM9 10C9 12.7614 11.2386 15 14 15V11C14 10.4477 13.5523 10 13 10H9ZM14 5C11.5811 5 9.5639 6.71781 9.10059 9H13C14.1046 9 15 9.89543 15 11V14.8994C17.2822 14.4361 19 12.4189 19 10C19 7.23858 16.7614 5 14 5ZM4.5 12C4.77614 12 5 12.2239 5 12.5V13.5C5 13.7761 4.77614 14 4.5 14C4.22386 14 4 13.7761 4 13.5V12.5C4 12.2239 4.22386 12 4.5 12ZM5.5 9C5.77614 9 6 9.22386 6 9.5C6 9.74171 5.82855 9.94371 5.60059 9.99023L5.39941 10.0098C5.20392 10.0497 5.04966 10.2039 5.00977 10.3994L4.99023 10.6006C4.94371 10.8286 4.74171 11 4.5 11C4.22386 11 4 10.7761 4 10.5C4 9.67157 4.67157 9 5.5 9Z" fill="black" fill-opacity="0.9"/>
</g>
</svg>
