<svg width="24" height="24" viewBox="0 0 24 24" fill="none" xmlns="http://www.w3.org/2000/svg">
<g id="icon.24.superscript">
<path id="Icon" d="M9.68262 8.21826C10.0317 8.21826 10.3437 8.43704 10.4629 8.76514L12.8359 15.2983C12.9598 15.6393 12.7075 16.0005 12.3447 16.0005C12.1226 16.0004 11.9249 15.8595 11.8516 15.6499L11.2285 13.8687H8.13477L7.51074 15.6499C7.43728 15.8594 7.23864 16.0005 7.0166 16.0005C6.65406 16.0002 6.40142 15.6391 6.52539 15.2983L8.90234 8.76416C9.02167 8.43633 9.33373 8.21828 9.68262 8.21826ZM9.68262 9.54053C9.66463 9.54059 9.6487 9.55196 9.64258 9.56885L8.45508 12.9565H10.9092L9.72363 9.56885C9.71755 9.55179 9.70074 9.54053 9.68262 9.54053ZM15.5938 7.38232C15.9357 7.38232 16.2354 7.44335 16.4912 7.56494C16.7493 7.68644 16.9504 7.85342 17.0947 8.06592C17.2391 8.27617 17.3115 8.51478 17.3115 8.78076C17.3115 8.99092 17.2687 9.18594 17.1826 9.36572C17.099 9.54558 16.967 9.73042 16.7871 9.92041C16.6073 10.1079 16.3755 10.3196 16.0918 10.5552L15.165 11.354C15.1601 11.3584 15.1572 11.3649 15.1572 11.3716C15.1573 11.3844 15.1678 11.395 15.1807 11.395H17.0762C17.2734 11.3951 17.4336 11.5552 17.4336 11.7524C17.4334 11.9495 17.2732 12.1088 17.0762 12.1089H14.3242C14.0835 12.1088 13.8879 11.914 13.8877 11.6733C13.8877 11.5474 13.9423 11.4271 14.0371 11.3442L15.6777 9.9126C15.8499 9.76066 15.9948 9.62537 16.1113 9.50635C16.2277 9.38737 16.3162 9.27203 16.377 9.16064C16.4377 9.04665 16.4678 8.9246 16.4678 8.79541C16.4677 8.57522 16.3821 8.40148 16.21 8.2749C16.0403 8.14575 15.8298 8.08156 15.5791 8.08154C15.3131 8.08154 15.0986 8.1512 14.9365 8.29053C14.8836 8.33607 14.8394 8.38661 14.8037 8.44189C14.677 8.63861 14.5035 8.84521 14.2695 8.84521C14.0357 8.84496 13.8371 8.65081 13.9023 8.42627C13.9756 8.17438 14.1211 7.96033 14.3369 7.78467C14.6661 7.51648 15.085 7.3824 15.5938 7.38232Z" fill="black" fill-opacity="0.9"/>
</g>
</svg>
