<svg width="24" height="24" viewBox="0 0 24 24" fill="none" xmlns="http://www.w3.org/2000/svg">
<g id="icon.24.action.back.small">
<path id="Icon" d="M8.14648 7.14648C8.34175 6.95122 8.65825 6.95122 8.85352 7.14648C9.04878 7.34175 9.04878 7.65825 8.85352 7.85352L6.70703 10H15.5C17.433 10 19 11.567 19 13.5C19 15.433 17.433 17 15.5 17H14.5C14.2239 17 14 16.7761 14 16.5C14 16.2239 14.2239 16 14.5 16H15.5C16.8807 16 18 14.8807 18 13.5C18 12.1193 16.8807 11 15.5 11H6.70703L8.85352 13.1465C9.04878 13.3417 9.04878 13.6583 8.85352 13.8535C8.65825 14.0488 8.34175 14.0488 8.14648 13.8535L5.14648 10.8535C5.05272 10.7597 5 10.6326 5 10.5C5.00001 10.3674 5.05272 10.2402 5.14648 10.1465L8.14648 7.14648Z" fill="black" fill-opacity="0.9"/>
</g>
</svg>
