<svg width="24" height="24" viewBox="0 0 24 24" fill="none" xmlns="http://www.w3.org/2000/svg">
<g id="icon.24.backward.small">
<g id="icon.24.forward.small">
<path id="Icon" d="M11.3828 7.07605C11.0092 6.9213 10.579 7.00691 10.293 7.29285L6.29297 11.2928C5.90246 11.6834 5.90251 12.3164 6.29297 12.7069L10.293 16.7069C10.579 16.9929 11.0091 17.0785 11.3828 16.9237C11.7564 16.7689 12 16.4043 12 15.9999V13.4139L15.293 16.7069C15.579 16.9929 16.0091 17.0785 16.3828 16.9237C16.7564 16.7689 17 16.4043 17 15.9999V7.99988C17 7.59549 16.7564 7.23085 16.3828 7.07605C16.0092 6.92129 15.579 7.00688 15.293 7.29285L12 10.5858V7.99988C12 7.59551 11.7564 7.23085 11.3828 7.07605ZM16 15.9999L12 11.9999L16 7.99988V15.9999ZM11 15.9999L7 11.9999L11 7.99988V15.9999Z" fill="black" fill-opacity="0.9"/>
</g>
</g>
</svg>
