<svg width="24" height="24" viewBox="0 0 24 24" fill="none" xmlns="http://www.w3.org/2000/svg">
<g id="icon.24.close.filled">
<path id="Icon" d="M12 4.1C16.3629 4.10021 19.8994 7.63747 19.8994 12.0004C19.8992 16.3631 16.3627 19.8996 12 19.8998C7.63708 19.8998 4.09982 16.3633 4.09961 12.0004C4.09961 7.63734 7.63695 4.1 12 4.1ZM14.8535 9.14687C14.6583 8.95161 14.3417 8.95161 14.1465 9.14687L12 11.2934L9.85352 9.14687C9.65826 8.95165 9.34174 8.95165 9.14648 9.14687C8.95129 9.34213 8.95127 9.65866 9.14648 9.8539L11.293 12.0004L9.14648 14.1469C8.95128 14.3421 8.95124 14.6587 9.14648 14.8539C9.34176 15.0487 9.65839 15.049 9.85352 14.8539L12 12.7074L14.1465 14.8539C14.3418 15.0487 14.6584 15.049 14.8535 14.8539C15.0486 14.6588 15.0483 14.3422 14.8535 14.1469L12.707 12.0004L14.8535 9.8539C15.0486 9.65879 15.0484 9.34217 14.8535 9.14687Z" fill="black" fill-opacity="0.9"/>
</g>
</svg>
