<svg width="24" height="24" viewBox="0 0 24 24" fill="none" xmlns="http://www.w3.org/2000/svg">
<g id="icon.24.person.small">
<path id="Icon" d="M12.001 14C14.381 14.0001 16.4835 15.1887 17.748 17.0039C17.8805 17.1944 17.8572 17.451 17.6943 17.6162C17.4618 17.8519 17.0754 17.783 16.8828 17.5137C15.7948 15.9923 14.0141 15.0001 12.001 15C9.98742 15.0001 8.20534 15.9927 7.11719 17.5146C6.92471 17.7834 6.53969 17.8516 6.30762 17.6162C6.14482 17.4509 6.12129 17.1943 6.25391 17.0039C7.51847 15.1885 9.62085 14.0001 12.001 14ZM12.001 5C14.2101 5.00003 16.001 6.79088 16.001 9C16.001 11.2091 14.2101 13 12.001 13C9.79184 13 8.00098 11.2091 8.00098 9C8.00098 6.79086 9.79184 5 12.001 5ZM12.001 6C10.3441 6 9.00098 7.34315 9.00098 9C9.00098 10.6569 10.3441 12 12.001 12C13.6578 12 15.001 10.6568 15.001 9C15.001 7.34317 13.6578 6.00003 12.001 6Z" fill="black" fill-opacity="0.9"/>
</g>
</svg>
