<svg width="24" height="24" viewBox="0 0 24 24" fill="none" xmlns="http://www.w3.org/2000/svg">
<g id="icon.24.version.new.branch">
<path id="Icon" d="M15.2246 6.08203C15.4187 5.95387 15.6827 5.97562 15.8535 6.14648L17.8535 8.14648C18.0488 8.34175 18.0488 8.65825 17.8535 8.85352C17.6583 9.04878 17.3417 9.04878 17.1465 8.85352L16 7.70703V11C16 14.866 12.866 18 9 18H8.5C8.22386 18 8 17.7761 8 17.5V7.70703L6.85352 8.85352C6.65825 9.04878 6.34175 9.04878 6.14648 8.85352C5.95122 8.65825 5.95122 8.34175 6.14648 8.14648L8.14648 6.14648L8.22461 6.08203C8.41869 5.95387 8.68265 5.97562 8.85352 6.14648L10.8535 8.14648C11.0488 8.34175 11.0488 8.65825 10.8535 8.85352C10.6583 9.04878 10.3417 9.04878 10.1465 8.85352L9 7.70703V17C12.3137 17 15 14.3137 15 11V7.70703L13.8535 8.85352C13.6583 9.04878 13.3417 9.04878 13.1465 8.85352C12.9512 8.65825 12.9512 8.34175 13.1465 8.14648L15.1465 6.14648L15.2246 6.08203Z" fill="black" fill-opacity="0.9"/>
</g>
</svg>
