<svg width="24" height="24" viewBox="0 0 24 24" fill="none" xmlns="http://www.w3.org/2000/svg">
<g id="icon.24.scale.small">
<path id="Icon" d="M9.5 11C9.77614 11 10 11.2239 10 11.5C10 11.7761 9.77614 12 9.5 12H7V17H12V14.5C12 14.2239 12.2239 14 12.5 14C12.7761 14 13 14.2239 13 14.5V17C13 17.5523 12.5523 18 12 18H7C6.44772 18 6 17.5523 6 17V12C6 11.4477 6.44772 11 7 11H9.5ZM16.5 6C17.3284 6 18 6.67157 18 7.5V16.5C18 17.3284 17.3284 18 16.5 18H14.5C14.2239 18 14 17.7761 14 17.5C14 17.2239 14.2239 17 14.5 17H16.5C16.7761 17 17 16.7761 17 16.5V7.5C17 7.22386 16.7761 7 16.5 7H7.5C7.22386 7 7 7.22386 7 7.5V9.5C7 9.77614 6.77614 10 6.5 10C6.22386 10 6 9.77614 6 9.5V7.5C6 6.67157 6.67157 6 7.5 6H16.5ZM14.5 9C14.7761 9 15 9.22386 15 9.5V12.5C15 12.7761 14.7761 13 14.5 13C14.2239 13 14 12.7761 14 12.5V10.707L9.85352 14.8535C9.65825 15.0488 9.34175 15.0488 9.14648 14.8535C8.95122 14.6583 8.95122 14.3417 9.14648 14.1465L13.293 10H11.5C11.2239 10 11 9.77614 11 9.5C11 9.22386 11.2239 9 11.5 9H14.5Z" fill="black" fill-opacity="0.9"/>
</g>
</svg>
