<svg width="24" height="24" viewBox="0 0 24 24" fill="none" xmlns="http://www.w3.org/2000/svg">
<g id="icon.24.instance.swap.small">
<path id="Icon" d="M6.5 14C6.77614 14 7 14.2239 7 14.5V17H9.5C9.77614 17 10 17.2239 10 17.5C10 17.7761 9.77614 18 9.5 18H6.5C6.22386 18 6 17.7761 6 17.5V14.5C6 14.2239 6.22386 14 6.5 14ZM17.5 14C17.7761 14 18 14.2239 18 14.5V17.5C18 17.7761 17.7761 18 17.5 18H14.5C14.2239 18 14 17.7761 14 17.5C14 17.2239 14.2239 17 14.5 17H17V14.5C17 14.2239 17.2239 14 17.5 14ZM11.7246 8.58203C11.9187 8.45387 12.1827 8.47562 12.3535 8.64648L15.3535 11.6465C15.5488 11.8417 15.5488 12.1583 15.3535 12.3535L12.3535 15.3535C12.1583 15.5488 11.8417 15.5488 11.6465 15.3535L8.64648 12.3535C8.45122 12.1583 8.45122 11.8417 8.64648 11.6465L11.6465 8.64648L11.7246 8.58203ZM9.70703 12L12 14.293L14.293 12L12 9.70703L9.70703 12ZM9.5 6C9.77614 6 10 6.22386 10 6.5C10 6.77614 9.77614 7 9.5 7H7V9.5C7 9.77614 6.77614 10 6.5 10C6.22386 10 6 9.77614 6 9.5V6.5C6 6.22386 6.22386 6 6.5 6H9.5ZM17.5 6C17.7761 6 18 6.22386 18 6.5V9.5C18 9.77614 17.7761 10 17.5 10C17.2239 10 17 9.77614 17 9.5V7H14.5C14.2239 7 14 6.77614 14 6.5C14 6.22386 14.2239 6 14.5 6H17.5Z" fill="black" fill-opacity="0.9"/>
</g>
</svg>
