<svg width="24" height="24" viewBox="0 0 24 24" fill="none" xmlns="http://www.w3.org/2000/svg">
<g id="icon.24.measure">
<path id="Icon" d="M7.86914 3.22461C8.26191 2.90426 8.84092 2.92685 9.20703 3.29297L20.707 14.793C21.0976 15.1835 21.0976 15.8165 20.707 16.207L16.207 20.707C15.8165 21.0976 15.1835 21.0976 14.793 20.707L3.29297 9.20703C2.90244 8.81651 2.90244 8.18349 3.29297 7.79297L7.79297 3.29297L7.86914 3.22461ZM4 8.5L5.39648 9.89648L6.14648 9.14648C6.34175 8.95122 6.65825 8.95122 6.85352 9.14648C7.04878 9.34175 7.04878 9.65825 6.85352 9.85352L6.10352 10.6035L7.39648 11.8965L9.64648 9.64648C9.84175 9.45122 10.1583 9.45122 10.3535 9.64648C10.5488 9.84175 10.5488 10.1583 10.3535 10.3535L8.10352 12.6035L9.39648 13.8965L10.1465 13.1465C10.3417 12.9512 10.6583 12.9512 10.8535 13.1465C11.0488 13.3417 11.0488 13.6583 10.8535 13.8535L10.1035 14.6035L11.3965 15.8965L13.6465 13.6465C13.8417 13.4512 14.1583 13.4512 14.3535 13.6465C14.5488 13.8417 14.5488 14.1583 14.3535 14.3535L12.1035 16.6035L15.5 20L20 15.5L8.5 4L4 8.5ZM16 15C16.5523 15 17 15.4477 17 16C17 16.5523 16.5523 17 16 17C15.4477 17 15 16.5523 15 16C15 15.4477 15.4477 15 16 15Z" fill="black" fill-opacity="0.9"/>
</g>
</svg>
