<svg width="24" height="24" viewBox="0 0 24 24" fill="none" xmlns="http://www.w3.org/2000/svg">
<g id="icon.24.push.to.main.component.small">
<path id="Icon" d="M12 10.0002C13.1045 10.0003 14 10.8957 14 12.0002C13.9999 12.9342 13.3587 13.7158 12.4932 13.9357C12.4959 13.9569 12.5 13.9783 12.5 14.0002V18.0002C12.4999 18.2762 12.276 18.5001 12 18.5002C11.7239 18.5002 11.5001 18.2762 11.5 18.0002V14.0002C11.5 13.9783 11.5031 13.9568 11.5059 13.9357C10.6406 13.7156 10.0001 12.934 10 12.0002C10 10.8956 10.8954 10.0002 12 10.0002ZM11.1162 5.88397C11.6043 5.39594 12.3957 5.39594 12.8838 5.88397L18.1162 11.1164C18.6042 11.6045 18.6042 12.3958 18.1162 12.884L15.3535 15.6467C15.0386 15.9616 14.5 15.7386 14.5 15.2932C14.5 15.1606 14.5527 15.0334 14.6465 14.9396L17.4092 12.1769C17.5067 12.0793 17.5067 11.921 17.4092 11.8234L12.1768 6.591C12.0791 6.4935 11.9208 6.4935 11.8232 6.591L6.59082 11.8234C6.49331 11.921 6.49332 12.0793 6.59082 12.1769L9.35352 14.9396C9.44726 15.0334 9.49999 15.1606 9.5 15.2932C9.5 15.7386 8.96143 15.9616 8.64648 15.6467L5.88379 12.884C5.42625 12.4263 5.39747 11.7021 5.79785 11.2111L5.88379 11.1164L11.1162 5.88397ZM12 11.0002C11.4477 11.0002 11 11.4479 11 12.0002C11.0001 12.5524 11.4478 13.0002 12 13.0002C12.5521 13.0001 12.9999 12.5523 13 12.0002C13 11.448 12.5522 11.0003 12 11.0002Z" fill="black" fill-opacity="0.9"/>
</g>
</svg>
