<svg width="24" height="24" viewBox="0 0 24 24" fill="none" xmlns="http://www.w3.org/2000/svg">
<g id="icon.24.mail">
<path id="Icon" d="M18.3125 6.00977C18.7272 6.05194 19.1021 6.22885 19.3926 6.49609C19.4341 6.53427 19.4738 6.57448 19.5117 6.61621C19.7014 6.82492 19.845 7.07634 19.9258 7.35449C19.9742 7.52111 20 7.69751 20 7.87988V16.1201L19.9902 16.3125C19.9003 17.1971 19.1971 17.9003 18.3125 17.9902L18.1201 18H5.87988C4.90663 17.9999 4.10617 17.2603 4.00977 16.3125L4 16.1201V7.87988C4.00001 7.68531 4.03008 7.4978 4.08496 7.32129C4.26804 6.73245 4.73245 6.26804 5.32129 6.08496C5.43888 6.0484 5.56127 6.0226 5.6875 6.00977C5.75071 6.00334 5.81498 6.00001 5.87988 6H18.1201L18.3125 6.00977ZM12.2354 13.4414L12 13.5664L11.7646 13.4414L5 9.83301V16.1201C5.00006 16.606 5.39397 16.9999 5.87988 17H18.1201C18.606 16.9999 18.9999 16.606 19 16.1201V9.83301L12.2354 13.4414ZM5.79004 7.00488C5.37589 7.04695 5.04695 7.37589 5.00488 7.79004C5.00188 7.81959 5 7.84954 5 7.87988V8.69922L12 12.4326L19 8.69922V7.87988C19 7.70935 18.9513 7.55 18.8672 7.41504C18.7268 7.19 18.4874 7.03307 18.21 7.00488L18.1201 7H5.87988C5.84954 7 5.81959 7.00188 5.79004 7.00488Z" fill="black" fill-opacity="0.9"/>
</g>
</svg>
