<svg width="24" height="24" viewBox="0 0 24 24" fill="none" xmlns="http://www.w3.org/2000/svg">
<g id="icon.24.instance.small">
<path id="Icon" d="M11.1162 5.88397C11.6043 5.39594 12.3957 5.39594 12.8838 5.88397L18.1162 11.1164C18.6041 11.6045 18.6042 12.3959 18.1162 12.884L12.8838 18.1164L12.7891 18.2023C12.3309 18.576 11.6692 18.5759 11.2109 18.2023L11.1162 18.1164L5.88379 12.884C5.42625 12.4263 5.39749 11.7021 5.79785 11.2111L5.88379 11.1164L11.1162 5.88397ZM12.1768 6.591C12.0792 6.4935 11.9209 6.4935 11.8232 6.591L6.59082 11.8234C6.49332 11.921 6.49331 12.0793 6.59082 12.1769L11.8232 17.4094C11.9209 17.5067 12.0792 17.5068 12.1768 17.4094L17.4092 12.1769C17.5066 12.0794 17.5065 11.921 17.4092 11.8234L12.1768 6.591Z" fill="black" fill-opacity="0.9"/>
</g>
</svg>
