<svg width="24" height="24" viewBox="0 0 24 24" fill="none" xmlns="http://www.w3.org/2000/svg">
<g id="icon.24.fill.mixed.small">
<path id="Icon" d="M12.2041 6.01074C13.2128 6.113 14 6.96435 14 8L14.2041 8.01074C15.2128 8.113 16 8.96435 16 10L16.2041 10.0107C17.2128 10.113 18 10.9643 18 12V16L17.9893 16.2041C17.887 17.2128 17.0357 18 16 18H12C10.8954 18 10 17.1046 10 16C8.89543 16 8 15.1046 8 14C6.89543 14 6 13.1046 6 12V8C6 6.89543 6.89543 6 8 6H12L12.2041 6.01074ZM14 12L13.9893 12.2041C13.887 13.2128 13.0357 14 12 14H9C9 14.5523 9.44772 15 10 15H14C14.5523 15 15 14.5523 15 14V10C15 9.44772 14.5523 9 14 9V12ZM8 7C7.44772 7 7 7.44772 7 8V12C7 12.5523 7.44772 13 8 13H12C12.5523 13 13 12.5523 13 12V8C13 7.44772 12.5523 7 12 7H8ZM11 16C11 16.5523 11.4477 17 12 17H16C16.5523 17 17 16.5523 17 16V12C17 11.4477 16.5523 11 16 11V14L15.9893 14.2041C15.887 15.2128 15.0357 16 14 16H11Z" fill="black" fill-opacity="0.9"/>
</g>
</svg>
