<svg width="24" height="24" viewBox="0 0 24 24" fill="none" xmlns="http://www.w3.org/2000/svg">
<g id="icon.24.goToParent">
<path id="Icon" d="M11.7246 11.0821C11.9186 10.9539 12.1826 10.9758 12.3535 11.1465L15.3535 14.1465C15.5488 14.3418 15.5488 14.6583 15.3535 14.8535C15.1582 15.0487 14.8417 15.0488 14.6465 14.8535L12.5 12.7071V18.5C12.5 18.7762 12.2761 19 12 19C11.724 18.9999 11.5 18.7761 11.5 18.5V12.7071L9.35352 14.8535C9.15824 15.0487 8.8417 15.0488 8.64648 14.8535C8.45139 14.6583 8.45141 14.3417 8.64648 14.1465L11.6465 11.1465L11.7246 11.0821ZM11.7822 5.04984C11.9425 4.97227 12.1345 4.98553 12.2842 5.0889L18.7842 9.5889C18.9238 9.68557 19.0055 9.84688 19 10.0166C18.9944 10.1862 18.9024 10.3414 18.7568 10.4287L16.2568 11.9287C16.0201 12.0704 15.7133 11.9935 15.5713 11.7569C15.4296 11.5202 15.5067 11.2134 15.7432 11.0713L17.5781 9.96976L12 6.10745L6.4209 9.96976L8.25684 11.0713C8.49353 11.2133 8.57055 11.5201 8.42871 11.7569C8.28666 11.9935 7.97987 12.0706 7.74316 11.9287L5.24316 10.4287C5.09773 10.3414 5.00563 10.1862 5 10.0166C4.99447 9.84696 5.0763 9.68559 5.21582 9.5889L11.7158 5.0889L11.7822 5.04984Z" fill="black" fill-opacity="0.9"/>
</g>
</svg>
