<svg width="24" height="24" viewBox="0 0 24 24" fill="none" xmlns="http://www.w3.org/2000/svg">
<g id="icon.24.boolean.small">
<path id="Icon" d="M14.2568 7.00684C16.8989 7.14053 19 9.32472 19 12C19 14.6753 16.8989 16.8595 14.2568 16.9932L14 17H10C7.23858 17 5 14.7614 5 12C5 9.23858 7.23858 7 10 7H14L14.2568 7.00684ZM10 8C7.79086 8 6 9.79086 6 12C6 14.2091 7.79086 16 10 16H14C16.2091 16 18 14.2091 18 12C18 9.79086 16.2091 8 14 8H10ZM10 9C11.6569 9 13 10.3431 13 12C13 13.6569 11.6569 15 10 15C8.34315 15 7 13.6569 7 12C7 10.3431 8.34315 9 10 9ZM10 10C8.89543 10 8 10.8954 8 12C8 13.1046 8.89543 14 10 14C11.1046 14 12 13.1046 12 12C12 10.8954 11.1046 10 10 10Z" fill="black" fill-opacity="0.9"/>
</g>
</svg>
