<svg width="24" height="24" viewBox="0 0 24 24" fill="none" xmlns="http://www.w3.org/2000/svg">
<g id="icon.24.star.small">
<path id="Icon" d="M11.1475 4.52814C11.4232 3.7125 12.5768 3.7125 12.8525 4.52814L14.3604 8.99982H19.3486C20.2085 8.99982 20.5785 10.0906 19.8965 10.6141L15.8193 13.742L17.3213 18.3592C17.5743 19.1371 16.7549 19.7927 16.0703 19.4481L15.9355 19.366L12 16.4998L8.06445 19.366L7.92969 19.4481C7.24506 19.7927 6.42566 19.1371 6.67871 18.3592L8.18066 13.742L4.10352 10.6141C3.46402 10.1232 3.74927 9.13408 4.49609 9.01251L4.65137 8.99982H9.63965L11.1475 4.52814ZM10.5869 9.31915L10.3574 9.99982H4.94629L8.78906 12.949L9.34961 13.3797L9.13086 14.0516L7.72461 18.3748L11.4111 15.6912L12 15.2625L12.5889 15.6912L16.2744 18.3748L14.8691 14.0516L14.6504 13.3797L15.2109 12.949L19.0537 9.99982H13.6426L13.4131 9.31915L12 5.12872L10.5869 9.31915Z" fill="black" fill-opacity="0.9"/>
</g>
</svg>
