<svg width="24" height="24" viewBox="0 0 24 24" fill="none" xmlns="http://www.w3.org/2000/svg">
<g id="icon.24.interaction.delay.small">
<path id="Icon" d="M12 5C15.866 5 19 8.13401 19 12C19 15.866 15.866 19 12 19C8.13401 19 5 15.866 5 12C5 11.7239 5.22386 11.5 5.5 11.5C5.77614 11.5 6 11.7239 6 12C6 15.3137 8.68629 18 12 18C15.3137 18 18 15.3137 18 12C18 8.68629 15.3137 6 12 6C11.7239 6 11.5 5.77614 11.5 5.5C11.5 5.22386 11.7239 5 12 5ZM7.0498 7.0498C7.38311 6.71658 7.904 6.66215 8.2998 6.91797L13.0518 9.99219C14.2342 10.7575 14.41 12.4181 13.4141 13.4141C12.4181 14.41 10.7575 14.2342 9.99219 13.0518L6.91797 8.2998L6.87305 8.22559C6.66906 7.84087 6.73715 7.36248 7.0498 7.0498ZM10.832 12.5078L10.915 12.623C11.3326 13.1296 12.0859 13.2101 12.6006 12.8027L12.707 12.707C13.2529 12.1611 13.156 11.2514 12.5078 10.832L7.75781 7.75684L10.832 12.5078Z" fill="black" fill-opacity="0.9"/>
</g>
</svg>
