<svg width="24" height="24" viewBox="0 0 24 24" fill="none" xmlns="http://www.w3.org/2000/svg">
<g id="icon.24.stroke-join-bevel">
<path id="Icon" d="M12.5977 6.00977C12.6939 6.02894 12.7831 6.07608 12.8535 6.14648L17.8535 11.1465C17.9473 11.2403 18 11.3674 18 11.5V17.5C18 17.7761 17.7761 18 17.5 18H12.5C12.2239 18 12 17.7761 12 17.5V12H6.5C6.22386 12 6 11.7761 6 11.5V6.5C6 6.22386 6.22386 6 6.5 6H12.5L12.5977 6.00977ZM7 11H12.5C12.7761 11 13 11.2239 13 11.5V17H17V11.707L12.293 7H7V11Z" fill="black" fill-opacity="0.9"/>
</g>
</svg>
