<svg width="24" height="24" viewBox="0 0 24 24" fill="none" xmlns="http://www.w3.org/2000/svg">
<g id="icon.24.swatch.small">
<path id="Icon" d="M9 5C10.5783 5 11.8701 6.21889 11.9893 7.7666L12.3535 7.4043C13.5251 6.23302 15.4252 6.23282 16.5967 7.4043C17.7678 8.57578 17.7678 10.475 16.5967 11.6465L16.2324 12.0098C17.7806 12.1284 19 13.4214 19 15C18.9999 16.6568 17.6568 18 16 18H9C7.39489 18 6.08421 16.7394 6.00391 15.1543L6 15V8C6 6.34315 7.34315 5 9 5ZM9.3125 17.9834C9.33145 17.9814 9.3503 17.9789 9.36914 17.9766C9.35029 17.9789 9.33145 17.9814 9.3125 17.9834ZM9.63281 17.9316C9.70523 17.916 9.77632 17.8968 9.84668 17.876C9.77627 17.8967 9.70527 17.9161 9.63281 17.9316ZM9.93457 17.8496C9.99545 17.8295 10.0552 17.807 10.1143 17.7832C10.0551 17.8069 9.99551 17.8296 9.93457 17.8496ZM10.2266 17.7354C10.2824 17.7101 10.3376 17.6838 10.3916 17.6553C10.3375 17.6837 10.2825 17.7102 10.2266 17.7354ZM10.4854 17.6035C10.5185 17.5845 10.5507 17.5642 10.583 17.5439C10.5506 17.5641 10.5185 17.5845 10.4854 17.6035ZM10.7637 17.4229C10.7725 17.4164 10.7813 17.4099 10.79 17.4033C10.7813 17.4099 10.7725 17.4164 10.7637 17.4229ZM11.0049 17.2256C11.0117 17.2194 11.0186 17.2133 11.0254 17.207C11.0186 17.2133 11.0117 17.2194 11.0049 17.2256ZM9 6C7.89543 6 7 6.89543 7 8V15C7 16.1046 7.89543 17 9 17C10.1046 17 11 16.1046 11 15V8C11 6.89543 10.1046 6 9 6ZM11.6465 16.5967C11.5573 16.6858 11.4612 16.7653 11.3643 16.8408C11.3217 16.8954 11.2776 16.9485 11.2314 17H16C17.1045 17 17.9999 16.1045 18 15C18 13.8954 17.1046 13 16 13H15.2432L11.6465 16.5967ZM11.8125 16.0361C11.8211 16.0131 11.8299 15.9901 11.8379 15.9668C11.8299 15.9901 11.821 16.013 11.8125 16.0361ZM9 14C9.55228 14 10 14.4477 10 15C10 15.5523 9.55228 16 9 16C8.44772 16 8 15.5523 8 15C8 14.4477 8.44772 14 9 14ZM11.8896 15.7959C11.8979 15.7662 11.9048 15.7361 11.9121 15.7061C11.9048 15.7362 11.8978 15.7662 11.8896 15.7959ZM15.8896 8.11133C15.1087 7.33038 13.8416 7.33058 13.0605 8.11133L12 9.17188V14.8281L15.8896 10.9395C16.6702 10.1585 16.6702 8.89229 15.8896 8.11133Z" fill="black" fill-opacity="0.9"/>
</g>
</svg>
