<svg width="24" height="24" viewBox="0 0 24 24" fill="none" xmlns="http://www.w3.org/2000/svg">
<g id="icon.24.monospace-uppercase-number">
<path id="Icon" d="M8.55371 8.06268C8.9976 8.06268 9.3574 8.42251 9.35742 8.86639V14.8449H10.5264C10.8025 14.8449 11.0264 15.0688 11.0264 15.3449C11.0261 15.6209 10.8024 15.8449 10.5264 15.8449H7.02637C6.75051 15.8447 6.5266 15.6208 6.52637 15.3449C6.52637 15.0689 6.75037 14.8451 7.02637 14.8449H8.29785V9.18085C8.29785 9.16155 8.28197 9.14581 8.2627 9.14569C8.25584 9.14569 8.24889 9.14778 8.24316 9.15155L7.04492 9.94061C6.75584 10.1308 6.37112 9.92342 6.37109 9.57733C6.37109 9.43118 6.4444 9.29451 6.56641 9.21405L8.11133 8.1955C8.2426 8.10892 8.39647 8.06272 8.55371 8.06268ZM16.832 8.06268C17.2612 8.06268 17.6094 8.41087 17.6094 8.84003C17.6093 8.96109 17.5807 9.08048 17.5264 9.18866L14.3184 15.5724C14.2347 15.7389 14.0642 15.8448 13.8779 15.8449C13.5105 15.8449 13.2718 15.457 13.4375 15.1291L16.5098 9.05389C16.5132 9.04706 16.5146 9.03908 16.5146 9.03143C16.5146 9.00437 16.4929 8.98268 16.4658 8.9826H13.0039C12.75 8.9826 12.5441 8.77648 12.5439 8.52264C12.5439 8.26872 12.75 8.06268 13.0039 8.06268H16.832Z" fill="black" fill-opacity="0.9"/>
</g>
</svg>
