<svg width="24" height="24" viewBox="0 0 24 24" fill="none" xmlns="http://www.w3.org/2000/svg">
<g id="icon.24.widget">
<path id="Icon" d="M10 12.9996C10.552 12.9998 10.9998 13.4476 11 13.9996V18.9996C11 19.5172 10.6065 19.9432 10.1025 19.9947L10 19.9996H5L4.89746 19.9947C4.42703 19.9468 4.05278 19.5726 4.00488 19.1021L4 18.9996V13.9996C4.00021 13.4475 4.44785 12.9996 5 12.9996H10ZM16.5 12.9996C18.4327 12.9998 19.9998 14.5669 20 16.4996C20 18.4325 18.4329 19.9994 16.5 19.9996C14.567 19.9996 13 18.4326 13 16.4996C13.0002 14.5668 14.5671 12.9996 16.5 12.9996ZM5 18.9996H10V13.9996H5V18.9996ZM16.5 13.9996C15.1194 13.9996 14.0002 15.1191 14 16.4996C14 17.8803 15.1193 18.9996 16.5 18.9996C17.8806 18.9994 19 17.8802 19 16.4996C18.9998 15.1192 17.8804 13.9998 16.5 13.9996ZM15.793 3.70761C16.1835 3.31722 16.8165 3.31717 17.207 3.70761L20.293 6.79355C20.6831 7.18401 20.6831 7.81716 20.293 8.20761L17.207 11.2935L17.1299 11.3619C16.7635 11.6603 16.2355 11.6604 15.8691 11.3619L15.793 11.2935L12.7061 8.20761L13.4141 7.50058L16.5 10.5865L19.5859 7.50058L16.5 4.41464L12.7061 8.20761L12.6377 8.13242C12.3174 7.73978 12.3403 7.15973 12.7061 6.79355L15.793 3.70761ZM7.5 4.50351C8.47939 3.76586 9.87568 3.84017 10.7676 4.73203C11.7438 5.70822 11.7435 7.29084 10.7676 8.26718L8.20703 10.8277C7.81651 11.2183 7.18349 11.2183 6.79297 10.8277L4.23242 8.26718C3.25615 7.29087 3.25613 5.70832 4.23242 4.73203C5.12445 3.84034 6.5207 3.76563 7.5 4.50351ZM10.0605 5.43906C9.47487 4.85343 8.52525 4.85363 7.93945 5.43906L7.5 5.87851L7.06055 5.43906C6.47487 4.85343 5.52525 4.85363 4.93945 5.43906C4.35368 6.02483 4.35371 6.97436 4.93945 7.56015L7.5 10.1207L10.0605 7.56015C10.646 6.97434 10.6462 6.02473 10.0605 5.43906Z" fill="black" fill-opacity="0.9"/>
</g>
</svg>
