<svg width="24" height="24" viewBox="0 0 24 24" fill="none" xmlns="http://www.w3.org/2000/svg">
<g id="icon.24.thumb.up.small">
<path id="Icon" d="M13 6C14.1046 6 15 6.89543 15 8C15 8.70476 14.852 9.37851 14.6035 10H16.7793C18.1286 10 19.0909 11.3088 18.6885 12.5967L17.6348 15.9697C17.2691 17.14 16.1082 17.8726 14.8945 17.6992L9.91602 16.9883C9.71322 17.5766 9.15717 18 8.5 18H7.5C6.72334 18 6.08461 17.4097 6.00781 16.6533L6 16.5V10.5C6 9.67157 6.67157 9 7.5 9H8.5C9.05542 9 9.53954 9.30234 9.79883 9.75098C9.9768 9.64802 10.1601 9.51182 10.3359 9.33594C10.8052 8.86663 11 8.34954 11 8C11 6.89543 11.8954 6 13 6ZM7.5 10C7.22386 10 7 10.2239 7 10.5V16.5C7 16.7761 7.22386 17 7.5 17H8.5C8.77614 17 9 16.7761 9 16.5V10.5C9 10.2239 8.77614 10 8.5 10H7.5ZM13 7C12.4477 7 12 7.44772 12 8C12 8.67137 11.6556 9.43036 11.043 10.043C10.7242 10.3617 10.365 10.6058 10 10.7686V15.9893L15.0361 16.709C15.7642 16.8129 16.4612 16.3738 16.6807 15.6719L17.7344 12.2988C17.9356 11.655 17.454 11 16.7793 11H13.127L13.6748 9.62891C13.8816 9.11164 14 8.56346 14 8C14 7.44772 13.5523 7 13 7Z" fill="black" fill-opacity="0.9"/>
</g>
</svg>
