<svg width="24" height="24" viewBox="0 0 24 24" fill="none" xmlns="http://www.w3.org/2000/svg">
<g id="icon.24.layout-align-horizontal-center-group">
<g id="icon.24.layout-align-horizontal-center">
<path id="Icon" d="M12.5 5C12.7761 5 13 5.22386 13 5.5V8H17.25C17.6642 8 18 8.33579 18 8.75V9.25C18 9.66421 17.6642 10 17.25 10H13V13H15.25C15.6642 13 16 13.3358 16 13.75V14.25C16 14.6642 15.6642 15 15.25 15H13V17.5C13 17.7761 12.7761 18 12.5 18C12.2239 18 12 17.7761 12 17.5V15H9.75C9.33579 15 9 14.6642 9 14.25V13.75C9 13.3358 9.33579 13 9.75 13H12V10H7.75C7.33579 10 7 9.66421 7 9.25V8.75C7 8.33579 7.33579 8 7.75 8H12V5.5C12 5.22386 12.2239 5 12.5 5Z" fill="black" fill-opacity="0.9"/>
<path id="Secondary" d="M9.5 5C9.77614 5 10 5.22386 10 5.5C10 5.77614 9.77614 6 9.5 6H6.25C6.11193 6 6 6.11193 6 6.25V16.75C6 16.8881 6.11193 17 6.25 17H9.5C9.77614 17 10 17.2239 10 17.5C10 17.7761 9.77614 18 9.5 18H6.25C5.55964 18 5 17.4404 5 16.75V6.25C5 5.55964 5.55964 5 6.25 5H9.5ZM18.75 5C19.4404 5 20 5.55964 20 6.25V16.75C20 17.4404 19.4404 18 18.75 18H15.5C15.2239 18 15 17.7761 15 17.5C15 17.2239 15.2239 17 15.5 17H18.75C18.8881 17 19 16.8881 19 16.75V6.25C19 6.11193 18.8881 6 18.75 6H15.5C15.2239 6 15 5.77614 15 5.5C15 5.22386 15.2239 5 15.5 5H18.75Z" fill="black" fill-opacity="0.3"/>
</g>
</g>
</svg>
