<svg width="24" height="24" viewBox="0 0 24 24" fill="none" xmlns="http://www.w3.org/2000/svg">
<g id="icon.24.vector.bend.small">
<path id="Icon" d="M16 6C17.1046 6 18 6.89543 18 8C18 9.10457 17.1046 10 16 10C15.0683 10 14.2877 9.36232 14.0654 8.5H14C10.9624 8.5 8.5 10.9624 8.5 14V14.0654C9.36232 14.2877 10 15.0683 10 16C10 17.1046 9.10457 18 8 18C6.89543 18 6 17.1046 6 16C6 15.0683 6.63768 14.2877 7.5 14.0654V14C7.5 10.4101 10.4101 7.5 14 7.5H14.0654C14.2877 6.63768 15.0683 6 16 6ZM8 15C7.44772 15 7 15.4477 7 16C7 16.5523 7.44772 17 8 17C8.55228 17 9 16.5523 9 16C9 15.4477 8.55228 15 8 15ZM16 7C15.4477 7 15 7.44772 15 8C15 8.55228 15.4477 9 16 9C16.5523 9 17 8.55228 17 8C17 7.44772 16.5523 7 16 7Z" fill="black" fill-opacity="0.9"/>
</g>
</svg>
