<svg width="24" height="24" viewBox="0 0 24 24" fill="none" xmlns="http://www.w3.org/2000/svg">
<g id="icon.24.stroke-reversed-triangle">
<path id="Icon" d="M5.51562 8.12549C5.8335 7.94952 6.22215 7.96026 6.53027 8.15283L10.5303 10.6528L11.0869 11.0005H18.5C18.7761 11.0005 19 11.2243 19 11.5005C19 11.7766 18.7761 12.0005 18.5 12.0005H11.0869L10.5303 12.3481L6.53027 14.8481C6.22215 15.0407 5.8335 15.0515 5.51562 14.8755C5.19767 14.6993 5 14.364 5 14.0005V9.00049L5.00879 8.86572C5.0509 8.55568 5.23741 8.27969 5.51562 8.12549ZM6 14.0005L10 11.5005L6 9.00049V14.0005Z" fill="black" fill-opacity="0.9"/>
</g>
</svg>
