<svg width="24" height="24" viewBox="0 0 24 24" fill="none" xmlns="http://www.w3.org/2000/svg">
<g id="icon.24.rotate.180.small">
<path id="Icon" d="M12.5303 11.8232C12.2557 11.5486 11.8209 11.5311 11.5264 11.7714L11.4697 11.8232L6.14648 17.1464C5.95122 17.3417 5.95122 17.6582 6.14648 17.8535C6.34175 18.0487 6.65825 18.0487 6.85352 17.8535L12 12.707L17.1465 17.8535C17.3417 18.0487 17.6583 18.0487 17.8535 17.8535C18.0488 17.6582 18.0488 17.3417 17.8535 17.1464L12.5303 11.8232ZM12 5.99994C9.23858 5.99994 7 8.23852 7 10.9999V11.2929L5.85352 10.1464C5.65826 9.95117 5.34175 9.95117 5.14648 10.1464C4.95122 10.3417 4.95122 10.6582 5.14648 10.8535L7.14648 12.8535C7.34175 13.0487 7.65826 13.0487 7.85352 12.8535L9.85352 10.8535C10.0488 10.6582 10.0488 10.3417 9.85352 10.1464C9.65826 9.95117 9.34175 9.95117 9.14648 10.1464L8 11.2929V10.9999C8 8.7908 9.79086 6.99994 12 6.99994C14.2091 6.99995 16 8.79081 16 10.9999V12.4999C16 12.7761 16.2239 12.9999 16.5 12.9999C16.7761 12.9999 17 12.7761 17 12.4999V10.9999C17 8.23852 14.7614 5.99995 12 5.99994Z" fill="black" fill-opacity="0.9"/>
</g>
</svg>
