<svg width="24" height="24" viewBox="0 0 24 24" fill="none" xmlns="http://www.w3.org/2000/svg">
<g id="icon.24.autolayout-add-wrap">
<path id="Icon" d="M9.65332 13.0078C10.4097 13.0846 11 13.7233 11 14.5V16.5C11 17.2767 10.4097 17.9154 9.65332 17.9922L9.5 18H7.5C6.67157 18 6 17.3284 6 16.5V14.5C6 13.6716 6.67157 13 7.5 13H9.5L9.65332 13.0078ZM15.5 13C15.7761 13 16 13.2239 16 13.5V15H17.5C17.7761 15 18 15.2239 18 15.5C18 15.7761 17.7761 16 17.5 16H16V17.5C16 17.7761 15.7761 18 15.5 18C15.2239 18 15 17.7761 15 17.5V16H13.5C13.2239 16 13 15.7761 13 15.5C13 15.2239 13.2239 15 13.5 15H15V13.5C15 13.2239 15.2239 13 15.5 13ZM7.5 14C7.22386 14 7 14.2239 7 14.5V16.5C7 16.7761 7.22386 17 7.5 17H9.5C9.77614 17 10 16.7761 10 16.5V14.5C10 14.2239 9.77614 14 9.5 14H7.5ZM9.65332 6.00781C10.4097 6.08461 11 6.72334 11 7.5V9.5L10.9922 9.65332C10.9205 10.3593 10.3593 10.9205 9.65332 10.9922L9.5 11H7.5L7.34668 10.9922C6.64069 10.9205 6.07949 10.3593 6.00781 9.65332L6 9.5V7.5C6 6.67157 6.67157 6 7.5 6H9.5L9.65332 6.00781ZM16.6533 6.00781C17.4097 6.08461 18 6.72334 18 7.5V9.5L17.9922 9.65332C17.9205 10.3593 17.3593 10.9205 16.6533 10.9922L16.5 11H14.5L14.3467 10.9922C13.6407 10.9205 13.0795 10.3593 13.0078 9.65332L13 9.5V7.5C13 6.67157 13.6716 6 14.5 6H16.5L16.6533 6.00781ZM7.5 7C7.25829 7 7.05629 7.17145 7.00977 7.39941L7 7.5V9.5C7 9.77614 7.22386 10 7.5 10H9.5C9.77614 10 10 9.77614 10 9.5V7.5C10 7.22386 9.77614 7 9.5 7H7.5ZM14.5 7C14.2583 7 14.0563 7.17145 14.0098 7.39941L14 7.5V9.5C14 9.77614 14.2239 10 14.5 10H16.5C16.7761 10 17 9.77614 17 9.5V7.5C17 7.22386 16.7761 7 16.5 7H14.5Z" fill="black" fill-opacity="0.9"/>
</g>
</svg>
