<svg width="24" height="24" viewBox="0 0 24 24" fill="none" xmlns="http://www.w3.org/2000/svg">
<g id="icon.24.al.height-hug">
<path id="Icon" d="M11.5 13C11.6326 13 11.7598 13.0527 11.8535 13.1465L14.8535 16.1465C15.0488 16.3417 15.0488 16.6583 14.8535 16.8535C14.6583 17.0488 14.3417 17.0488 14.1465 16.8535L11.5 14.207L8.85352 16.8535C8.65826 17.0488 8.34174 17.0488 8.14648 16.8535C7.95124 16.6583 7.95124 16.3417 8.14648 16.1465L11.1465 13.1465C11.2402 13.0527 11.3674 13 11.5 13ZM14.1465 7.14648C14.3417 6.95124 14.6583 6.95123 14.8535 7.14648C15.0488 7.34174 15.0488 7.65826 14.8535 7.85352L11.8535 10.8535C11.7598 10.9473 11.6326 11 11.5 11C11.3674 11 11.2402 10.9473 11.1465 10.8535L8.14648 7.85352C7.95124 7.65826 7.95124 7.34174 8.14648 7.14648C8.34174 6.95124 8.65826 6.95124 8.85352 7.14648L11.5 9.79297L14.1465 7.14648Z" fill="black" fill-opacity="0.9"/>
</g>
</svg>
