<svg width="24" height="24" viewBox="0 0 24 24" fill="none" xmlns="http://www.w3.org/2000/svg">
<g id="icon.24.all.small">
<path id="Icon" d="M10.9707 17.5484C11.6041 17.9284 12.3959 17.9284 13.0293 17.5484L17.5146 14.857C17.8157 14.6762 18 14.3507 18 13.9995C17.9999 13.6484 17.8157 13.3228 17.5146 13.1421L15.6104 12.0005L17.5146 10.857C17.8156 10.6762 18 10.3507 18 9.99954C17.9998 9.64851 17.8156 9.32278 17.5146 9.14212L13.0293 6.45071C12.396 6.07086 11.604 6.07086 10.9707 6.45071L6.48535 9.14212C6.18436 9.32278 6.00016 9.64851 6 9.99954C6 10.3507 6.18435 10.6762 6.48535 10.857L8.38867 11.9995L6.48535 13.1421C6.18428 13.3228 6.00006 13.6484 6 13.9995C6 14.3507 6.18428 14.6762 6.48535 14.857L10.9707 17.5484ZM12.3926 12.7534C12.1003 12.8782 11.7625 12.8572 11.4854 12.6909L7 9.99954L11.4854 7.30814C11.8019 7.11829 12.1981 7.11829 12.5146 7.30814L17 9.99954L13.666 11.9995V12.0005L12.5146 12.6909L12.3926 12.7534ZM12.3926 16.7534C12.1003 16.8782 11.7625 16.8572 11.4854 16.6909L7 13.9995L9.36035 12.5835L10.9707 13.5484C11.6041 13.9284 12.3959 13.9284 13.0293 13.5484L14.6377 12.5835L17 13.9995L12.5146 16.6909L12.3926 16.7534Z" fill="black" fill-opacity="0.9"/>
</g>
</svg>
