<svg width="24" height="24" viewBox="0 0 24 24" fill="none" xmlns="http://www.w3.org/2000/svg">
<g id="icon.24.bold">
<path id="Icon" d="M12.75 6C14.5449 6 16 7.45507 16 9.25C16 10.0855 15.6812 10.8442 15.1631 11.4199C16.2569 12.0118 17 13.169 17 14.5C17 16.433 15.433 18 13.5 18H10C8.89543 18 8 17.1046 8 16V8C8 6.89543 8.89543 6 10 6H12.75ZM9.5 16C9.5 16.2761 9.72386 16.5 10 16.5H13.5C14.6046 16.5 15.5 15.6046 15.5 14.5C15.5 13.3954 14.6046 12.5 13.5 12.5H9.5V16ZM10 7.5C9.72386 7.5 9.5 7.72386 9.5 8V11H12.75C13.7165 11 14.5 10.2165 14.5 9.25C14.5 8.2835 13.7165 7.5 12.75 7.5H10Z" fill="black" fill-opacity="0.9"/>
</g>
</svg>
