<svg width="24" height="24" viewBox="0 0 24 24" fill="none" xmlns="http://www.w3.org/2000/svg">
<g id="icon.24.radius.bottom.right">
<path id="Icon" d="M15.5 8C15.7761 8 16 8.22386 16 8.5V11.5C16 12.1918 16 12.7407 15.9639 13.1826C15.9273 13.6304 15.851 14.0127 15.6729 14.3623C15.3853 14.9265 14.9265 15.3853 14.3623 15.6729C14.0127 15.851 13.6304 15.9273 13.1826 15.9639C12.7407 16 12.1918 16 11.5 16H8.5C8.22386 16 8 15.7761 8 15.5C8 15.2239 8.22386 15 8.5 15H11.5C12.2083 15 12.7098 14.9998 13.1016 14.9678C13.4874 14.9362 13.7231 14.8765 13.9082 14.7822C14.2845 14.5905 14.5905 14.2845 14.7822 13.9082C14.8765 13.7231 14.9362 13.4874 14.9678 13.1016C14.9998 12.7098 15 12.2083 15 11.5V8.5C15 8.22386 15.2239 8 15.5 8Z" fill="black" fill-opacity="0.9"/>
</g>
</svg>
