<svg width="24" height="24" viewBox="0 0 24 24" fill="none" xmlns="http://www.w3.org/2000/svg">
<g id="icon.24.cut.small">
<path id="Icon" d="M14.7773 6.30397C15.8523 5.76663 17.1595 6.20181 17.6973 7.27663C18.2351 8.35187 17.799 9.65987 16.7236 10.1975L13.1182 12.0003L16.7236 13.803C17.799 14.3407 18.235 15.6485 17.6973 16.7239C17.1595 17.7993 15.8518 18.2352 14.7764 17.6975L14.5332 17.5755C13.5903 17.104 13.055 16.0819 13.2041 15.0383L13.4531 13.2854L5.77637 9.44753C5.52946 9.324 5.42926 9.02358 5.55273 8.77663C5.67621 8.52967 5.97666 8.42958 6.22363 8.55299L12 11.4407L13.4531 10.7151L13.2041 8.96315C13.055 7.91951 13.5903 6.89755 14.5332 6.42604L14.7773 6.30397ZM14.1934 15.1799C14.1051 15.7974 14.4226 16.4019 14.9805 16.6809L15.2236 16.803C15.8051 17.0937 16.512 16.858 16.8027 16.2766C17.0934 15.6952 16.8578 14.9883 16.2764 14.6975L14.3965 13.7571L14.1934 15.1799ZM9.77637 12.553C10.0233 12.4296 10.3238 12.5297 10.4473 12.7766C10.5708 13.0236 10.4706 13.324 10.2236 13.4475L6.22363 15.4475C5.97666 15.571 5.67622 15.4709 5.55273 15.2239C5.42931 14.9769 5.52946 14.6765 5.77637 14.553L9.77637 12.553ZM16.8027 7.72389C16.512 7.14307 15.8056 6.90815 15.2246 7.1985L14.9805 7.32057C14.4226 7.59958 14.1051 8.20402 14.1934 8.82155L14.3965 10.2434L16.2764 9.30299C16.8577 9.01235 17.0935 8.30514 16.8027 7.72389Z" fill="black" fill-opacity="0.9"/>
</g>
</svg>
