<svg width="24" height="24" viewBox="0 0 24 24" fill="none" xmlns="http://www.w3.org/2000/svg">
<g id="icon.24.section">
<path id="Icon" d="M18 4C19.1046 4 20 4.89543 20 6V18C20 19.1046 19.1046 20 18 20H6C4.89543 20 4 19.1046 4 18V6C4 4.89543 4.89543 4 6 4H18ZM13 9L12.9951 9.10254C12.9472 9.57297 12.573 9.94722 12.1025 9.99512L12 10H5V18C5 18.5523 5.44772 19 6 19H18C18.5523 19 19 18.5523 19 18V6C19 5.44772 18.5523 5 18 5H13V9ZM6 5C5.44772 5 5 5.44772 5 6V9H12V5H6Z" fill="black" fill-opacity="0.9"/>
</g>
</svg>
