<svg width="24" height="24" viewBox="0 0 24 24" fill="none" xmlns="http://www.w3.org/2000/svg">
<g id="icon.24.sound.off.toggle.small">
<path id="Icon" d="M14 18C14 18.4044 13.7564 18.769 13.3828 18.9238C13.0091 19.0786 12.579 18.993 12.293 18.707L9.85352 16.2675L10.5605 15.5605L13 18V13.1211L14 12.1211V18ZM17.1465 6.14645C17.3417 5.95121 17.6583 5.95121 17.8535 6.14645C18.0488 6.34171 18.0488 6.65822 17.8535 6.85349L6.85352 17.8535C6.65825 18.0487 6.34175 18.0487 6.14648 17.8535C5.95124 17.6582 5.95123 17.3417 6.14648 17.1465L17.1465 6.14645ZM17.5947 8.52536C18.4644 9.42497 18.9998 10.6501 19 12C18.9998 14.2384 17.5282 16.1322 15.5 16.7695V15.707C16.9654 15.1134 17.9998 13.6782 18 12C17.9998 10.9261 17.5756 9.95175 16.8867 9.23337L17.5947 8.52536ZM12.293 5.29294C12.579 5.00695 13.0091 4.92137 13.3828 5.07614C13.7564 5.23095 14 5.59557 14 5.99997V7.87888L13 8.87888V5.99997L10 8.99997H6.5C6.22387 8.99997 6.00002 9.22384 6 9.49997V14.5C6 14.7761 6.22386 15 6.5 15H6.87891L5.97461 15.9033C5.45148 15.7073 5.06631 15.2294 5.00781 14.6533L5 14.5V9.49997C5.00002 8.67156 5.67158 7.99997 6.5 7.99997H9.58594L12.293 5.29294ZM16.1787 9.94138C16.687 10.4783 16.9998 11.2022 17 12C16.9999 13.1095 16.3956 14.0758 15.5 14.5947V13.3183C15.8097 12.9662 15.9999 12.5057 16 12C15.9998 11.4938 15.8102 11.0319 15.5 10.6797V10.6211L16.1787 9.94138Z" fill="black" fill-opacity="0.9"/>
</g>
</svg>
