<svg width="24" height="24" viewBox="0 0 24 24" fill="none" xmlns="http://www.w3.org/2000/svg">
<g id="icon.24.annotate.small">
<path id="Icon" d="M11 6.99979C11.276 6.99979 11.4998 7.22384 11.5 7.49979C11.5 7.77593 11.2761 7.99979 11 7.99979H7.5C7.224 7.99979 7.00023 8.22384 7 8.49979L7 16.4998C7 16.7759 7.22386 16.9998 7.5 16.9998H15.5C15.7761 16.9998 16 16.7759 16 16.4998V12.9998C16.0002 12.7238 16.224 12.4998 16.5 12.4998C16.776 12.4998 16.9998 12.7238 17 12.9998V16.4998C17 17.3282 16.3284 17.9998 15.5 17.9998H7.5C6.67157 17.9998 6 17.3282 6 16.4998L6 8.49979C6.00023 7.67156 6.67172 6.99979 7.5 6.99979L11 6.99979ZM15.5537 5.54471C16.1428 5.06427 17.0114 5.09824 17.5605 5.64725L18.3535 6.44022C18.9388 7.02603 18.9391 7.97567 18.3535 8.56131L12.707 14.2078C12.579 14.3357 12.4178 14.4265 12.2422 14.4705L10.2422 14.9705C9.90181 15.0553 9.54117 14.9557 9.29297 14.7078C9.04488 14.4596 8.94547 14.099 9.03027 13.7586L9.53027 11.7586L9.57129 11.6297C9.62135 11.5044 9.69696 11.3898 9.79297 11.2937L15.4395 5.64725L15.5537 5.54471ZM10.5 12.0008L10 14.0008L12 13.5008L16.1465 9.35428L14.6465 7.85428L10.5 12.0008ZM16.8535 6.35428C16.6583 6.15919 16.3417 6.15911 16.1465 6.35428L15.3535 7.14725L16.8535 8.64725L17.6465 7.85428C17.8172 7.68357 17.8387 7.41939 17.7109 7.22537L17.6465 7.14725L16.8535 6.35428Z" fill="black" fill-opacity="0.9"/>
</g>
</svg>
