<svg width="24" height="24" viewBox="0 0 24 24" fill="none" xmlns="http://www.w3.org/2000/svg">
<g id="icon.24.detach.small">
<path id="Icon" d="M8.14648 12.1474C8.34175 11.9522 8.65825 11.9522 8.85352 12.1474C9.04858 12.3427 9.04871 12.6593 8.85352 12.8545L7.35352 14.3545C6.72087 14.9876 6.72078 16.0134 7.35352 16.6465C7.98663 17.2796 9.01331 17.2795 9.64648 16.6465L11.1465 15.1465C11.3417 14.9517 11.6584 14.9516 11.8535 15.1465C12.0486 15.3416 12.0484 15.6582 11.8535 15.8535L10.3535 17.3535C9.32981 18.377 7.67012 18.3771 6.64648 17.3535C5.62314 16.3298 5.62305 14.6701 6.64648 13.6465L8.14648 12.1474ZM14.5 15.5C14.776 15.5001 14.9999 15.724 15 16V17.5C15 17.776 14.776 17.9998 14.5 18C14.2239 18 14 17.7761 14 17.5V16C14.0001 15.7239 14.2239 15.5 14.5 15.5ZM17.5 14C17.776 14.0001 17.9999 14.224 18 14.5C18 14.776 17.776 14.9998 17.5 15H16C15.7239 15 15.5 14.7761 15.5 14.5C15.5001 14.2239 15.7239 14 16 14H17.5ZM13.6465 6.64645C14.6701 5.62306 16.3299 5.62299 17.3535 6.64645C18.377 7.67007 18.3769 9.32983 17.3535 10.3535L15.8535 11.8535C15.6583 12.0487 15.3417 12.0487 15.1465 11.8535C14.9512 11.6582 14.9513 11.3417 15.1465 11.1465L16.6465 9.64645C17.2794 9.01332 17.2794 7.98658 16.6465 7.35349C16.0134 6.72054 14.9867 6.72061 14.3535 7.35349L12.8535 8.85349C12.6584 9.04856 12.3417 9.0484 12.1465 8.85349C11.9516 8.65822 11.9514 8.34162 12.1465 8.14645L13.6465 6.64645ZM8 8.99997C8.27597 9.00011 8.49991 9.22399 8.5 9.49997C8.5 9.77602 8.27602 9.99983 8 9.99997H6.5C6.22386 9.99997 6 9.77611 6 9.49997C6.00009 9.2239 6.22391 8.99997 6.5 8.99997H8ZM9.5 5.99997C9.77597 6.00011 9.99991 6.22399 10 6.49997V7.99997C10 8.27602 9.77602 8.49983 9.5 8.49997C9.22386 8.49997 9 8.27611 9 7.99997V6.49997C9.00009 6.2239 9.22391 5.99997 9.5 5.99997Z" fill="black" fill-opacity="0.9"/>
</g>
</svg>
