<svg width="24" height="24" viewBox="0 0 24 24" fill="none" xmlns="http://www.w3.org/2000/svg">
<g id="icon.24.star">
<path id="Icon" d="M11.0508 2.84613C11.3549 1.93502 12.6431 1.93503 12.9473 2.84613L14.999 9.00043H20.8379C21.8145 9.00043 22.212 10.257 21.4131 10.8188L16.583 14.2153L18.5117 20.0248C18.8182 20.9492 17.7562 21.7218 16.9707 21.1459L11.999 17.5004L7.02734 21.1459L6.87695 21.2387C6.1143 21.6247 5.19911 20.8913 5.48633 20.0248L7.41504 14.2153L2.58496 10.8188C1.83613 10.2923 2.13831 9.15551 2.9834 9.01508L3.16016 9.00043H8.99902L11.0508 2.84613ZM9.94727 9.31683L9.71973 10.0004H3.16016L7.99023 13.3969L8.59863 13.8246L8.36426 14.5307L6.43555 20.3403L11.4072 16.6938L11.999 16.2602L12.5908 16.6938L17.5625 20.3403L15.6338 14.5307L15.3994 13.8246L16.0078 13.3969L20.8379 10.0004H14.2783L14.0508 9.31683L11.999 3.16254L9.94727 9.31683Z" fill="black" fill-opacity="0.9"/>
</g>
</svg>
