<svg width="24" height="24" viewBox="0 0 24 24" fill="none" xmlns="http://www.w3.org/2000/svg">
<g id="icon.24.in.development">
<path id="Icon" d="M16 4C16.2072 4 16.4135 4.01526 16.6172 4.04688C16.9893 4.10462 17.2971 4.3667 17.4141 4.72461C17.531 5.08252 17.4371 5.47585 17.1709 5.74219L16 6.91309V8H17.0859L18.2568 6.82812L18.3623 6.73633C18.6208 6.54161 18.9613 6.4828 19.2744 6.58496C19.6322 6.70189 19.8943 7.00989 19.9521 7.38184C19.9833 7.58247 20 7.78896 20 8C20 10.2091 18.2091 12 16 12C15.6406 12 15.2943 11.9495 14.9658 11.8604L14.8262 11.999L19.4141 16.5859C20.195 17.367 20.1949 18.6331 19.4141 19.4141C18.633 20.1948 17.3669 20.1949 16.5859 19.4141L11.999 14.8271L7.41406 19.4141C6.63301 20.1951 5.36699 20.1951 4.58594 19.4141C3.80489 18.633 3.80489 17.367 4.58594 16.5859L10.2314 10.9385L7.5 8.20703L6.85352 8.85352C6.74771 8.95932 6.60008 9.01265 6.45117 8.99805C6.3021 8.98329 6.16708 8.90198 6.08398 8.77734L4.08398 5.77734C3.95178 5.57903 3.97795 5.31502 4.14648 5.14648L5.14648 4.14648L5.21387 4.08984C5.38002 3.9738 5.60385 3.96832 5.77734 4.08398L8.77734 6.08398C8.90198 6.16708 8.98329 6.3021 8.99805 6.45117C9.01265 6.60008 8.95932 6.74771 8.85352 6.85352L8.20703 7.5L10.9385 10.2314L12.1387 9.03125C12.0501 8.70336 12 8.35813 12 8C12 5.79086 13.7909 4 16 4ZM16 5C14.3431 5 13 6.34315 13 8C13 8.46245 13.108 8.89885 13.2949 9.29004L5.29297 17.293C4.90244 17.6835 4.90245 18.3165 5.29297 18.707C5.68349 19.0976 6.31651 19.0976 6.70703 18.707L14.709 10.7041C15.1005 10.8913 15.5371 11 16 11C17.6569 11 19 9.65685 19 8C19 7.84188 18.9874 7.68667 18.9639 7.53516L17.5 9H15V6.5L16.4639 5.03516C16.3127 5.0117 16.1577 5 16 5ZM12.7061 14.1201L17.293 18.707C17.6834 19.0973 18.3165 19.0972 18.707 18.707C19.0974 18.3165 19.0974 17.6834 18.707 17.293L14.1201 12.7061L12.7061 14.1201ZM5.14258 5.56348L6.57715 7.71484L7.14648 7.14648L7.71484 6.57715L5.56348 5.14258L5.14258 5.56348Z" fill="black" fill-opacity="0.9"/>
</g>
</svg>
