<svg width="24" height="24" viewBox="0 0 24 24" fill="none" xmlns="http://www.w3.org/2000/svg">
<g id="icon.24.shapes.small">
<path id="Icon" d="M17.6533 10.0078C18.4097 10.0846 19 10.7233 19 11.5V17.5L18.9922 17.6533C18.9205 18.3593 18.3593 18.9205 17.6533 18.9922L17.5 19H11.5C10.7233 19 10.0846 18.4097 10.0078 17.6533L10 17.5V11.5C10 10.6716 10.6716 10 11.5 10H17.5L17.6533 10.0078ZM11.5 11C11.2239 11 11 11.2239 11 11.5V17.5C11 17.7761 11.2239 18 11.5 18H17.5C17.7761 18 18 17.7761 18 17.5V11.5C18 11.2239 17.7761 11 17.5 11H11.5ZM10 5C12.1997 5 14.0675 6.4208 14.7363 8.39453C14.8402 8.70163 14.5957 9 14.2715 9C14.0711 8.9999 13.895 8.88256 13.7979 8.71094C13.7815 8.68214 13.7675 8.65168 13.7559 8.62012C13.1938 7.09085 11.7242 6 10 6C7.79086 6 6 7.79086 6 10C6 11.7242 7.09085 13.1938 8.62012 13.7559C8.83977 13.8366 8.99988 14.0375 9 14.2715C9 14.5552 8.77163 14.7772 8.50879 14.7588L8.39453 14.7363C6.4208 14.0675 5 12.1997 5 10C5 7.23858 7.23858 5 10 5Z" fill="black" fill-opacity="0.9"/>
</g>
</svg>
