<svg width="24" height="24" viewBox="0 0 24 24" fill="none" xmlns="http://www.w3.org/2000/svg">
<g id="icon.24.underline-dashed">
<path id="Icon" d="M9 17.0005C9.27614 17.0005 9.5 17.2243 9.5 17.5005C9.49974 17.7764 9.27598 18.0005 9 18.0005H7C6.72402 18.0005 6.50026 17.7764 6.5 17.5005C6.5 17.2243 6.72386 17.0005 7 17.0005H9ZM13 17.0005C13.2761 17.0005 13.5 17.2243 13.5 17.5005C13.4997 17.7764 13.276 18.0005 13 18.0005H11C10.724 18.0005 10.5003 17.7764 10.5 17.5005C10.5 17.2243 10.7239 17.0005 11 17.0005H13ZM17 17.0005C17.2761 17.0005 17.5 17.2243 17.5 17.5005C17.4997 17.7764 17.276 18.0005 17 18.0005H15C14.724 18.0005 14.5003 17.7764 14.5 17.5005C14.5 17.2243 14.7239 17.0005 15 17.0005H17ZM15.5 6.00049C15.7761 6.00049 16 6.22435 16 6.50049V11.0005C16 13.2096 14.2091 15.0005 12 15.0005C9.79086 15.0005 8 13.2096 8 11.0005V6.50049C8 6.22435 8.22386 6.00049 8.5 6.00049C8.77614 6.00049 9 6.22435 9 6.50049V11.0005C9 12.6573 10.3431 14.0005 12 14.0005C13.6569 14.0005 15 12.6573 15 11.0005V6.50049C15 6.22435 15.2239 6.00049 15.5 6.00049Z" fill="black" fill-opacity="0.9"/>
</g>
</svg>
