<svg width="24" height="24" viewBox="0 0 24 24" fill="none" xmlns="http://www.w3.org/2000/svg">
<g id="icon.24.copy.small">
<path id="Icon" d="M13.5 6C14.3284 6 15 6.67157 15 7.5V9H16.5C17.3284 9 18 9.67157 18 10.5V16.5C18 17.3284 17.3284 18 16.5 18H10.5C9.67157 18 9 17.3284 9 16.5V15H7.5C6.67157 15 6 14.3284 6 13.5V7.5C6 6.67157 6.67157 6 7.5 6H13.5ZM15 13.5C15 14.3284 14.3284 15 13.5 15H10V16.5C10 16.7761 10.2239 17 10.5 17H16.5C16.7761 17 17 16.7761 17 16.5V10.5C17 10.2239 16.7761 10 16.5 10H15V13.5ZM7.5 7C7.22386 7 7 7.22386 7 7.5V13.5C7 13.7761 7.22386 14 7.5 14H13.5C13.7761 14 14 13.7761 14 13.5V7.5C14 7.22386 13.7761 7 13.5 7H7.5Z" fill="black" fill-opacity="0.9"/>
</g>
</svg>
