<svg width="24" height="24" viewBox="0 0 24 24" fill="none" xmlns="http://www.w3.org/2000/svg">
<g id="icon.24.fit.to.height.small">
<path id="Icon" d="M17.6533 6.00781C18.4097 6.08461 19 6.72334 19 7.5V16.5C19 17.2767 18.4097 17.9154 17.6533 17.9922L17.5 18H6.5C5.67157 18 5 17.3284 5 16.5V7.5C5 6.67157 5.67157 6 6.5 6H17.5L17.6533 6.00781ZM6.5 7C6.22386 7 6 7.22386 6 7.5V16.5C6 16.7761 6.22386 17 6.5 17H17.5C17.7761 17 18 16.7761 18 16.5V7.5C18 7.22386 17.7761 7 17.5 7H6.5ZM11.6465 8.14648C11.8417 7.95122 12.1583 7.95122 12.3535 8.14648L13.8535 9.64648C14.0488 9.84175 14.0488 10.1583 13.8535 10.3535C13.6583 10.5488 13.3417 10.5488 13.1465 10.3535L12.5 9.70703V14.293L13.1465 13.6465C13.3417 13.4512 13.6583 13.4512 13.8535 13.6465C14.0488 13.8417 14.0488 14.1583 13.8535 14.3535L12.3535 15.8535C12.1583 16.0488 11.8417 16.0488 11.6465 15.8535L10.1465 14.3535C9.95122 14.1583 9.95122 13.8417 10.1465 13.6465C10.3417 13.4512 10.6583 13.4512 10.8535 13.6465L11.5 14.293V9.70703L10.8535 10.3535C10.6583 10.5488 10.3417 10.5488 10.1465 10.3535C9.95122 10.1583 9.95122 9.84175 10.1465 9.64648L11.6465 8.14648Z" fill="black" fill-opacity="0.9"/>
</g>
</svg>
