<svg width="24" height="24" viewBox="0 0 24 24" fill="none" xmlns="http://www.w3.org/2000/svg">
<g id="icon.24.interaction.default.small">
<path id="Icon" d="M12 5C15.866 5 19 8.13401 19 12C19 15.866 15.866 19 12 19C8.13401 19 5 15.866 5 12C5 8.13401 8.13401 5 12 5ZM8.12598 16.5801C9.17138 17.4652 10.5229 18 12 18C15.3137 18 18 15.3137 18 12C18 10.5229 17.4652 9.17138 16.5801 8.12598L8.12598 16.5801ZM12 6C8.68629 6 6 8.68629 6 12C6 13.4766 6.53434 14.8278 7.41895 15.873L15.873 7.41895C14.8278 6.53434 13.4766 6 12 6Z" fill="black" fill-opacity="0.9"/>
</g>
</svg>
