<svg width="24" height="24" viewBox="0 0 24 24" fill="none" xmlns="http://www.w3.org/2000/svg">
<g id="icon.24.pen">
<path id="Icon" d="M4.33262 5.96761C4.14985 4.9848 4.98497 4.14948 5.9678 4.33243C9.15664 4.92652 15.3158 6.31553 17.4997 8.49911C19.4665 10.4659 19.9284 12.6485 19.3089 14.6228L20.7066 16.0204C21.0971 16.4109 21.0971 17.0441 20.7066 17.4346L17.4348 20.7064C17.0443 21.0969 16.4111 21.0969 16.0206 20.7064L14.623 19.3087C12.6489 19.9285 10.4672 19.4672 8.49999 17.5002C6.31592 15.3162 4.92666 9.15651 4.33262 5.96761ZM10.9845 10.2786C11.7514 9.82551 12.7548 9.92639 13.4138 10.5852C14.1949 11.3662 14.1948 12.6326 13.4138 13.4136C12.6328 14.1947 11.3664 14.1947 10.5854 13.4136C9.927 12.755 9.82531 11.7524 10.2774 10.9857L5.37325 6.08155C5.67125 7.6408 6.13836 9.78592 6.77434 11.8109C7.42609 13.8861 8.20195 15.6568 9.0393 16.6129L9.2071 16.7931C10.9404 18.5262 12.7427 18.8506 14.3233 18.3544L14.9012 18.1728L16.7277 19.9993L19.9995 16.7275L18.1737 14.9017L18.3546 14.3231C18.8195 12.841 18.5632 11.1633 17.1013 9.53146L16.7926 9.20621C15.8911 8.30493 14.0241 7.46915 11.8111 6.77415C9.78472 6.13779 7.63785 5.67037 6.07829 5.37237L10.9845 10.2786ZM11.2925 11.2923C10.9021 11.6828 10.9022 12.316 11.2925 12.7065C11.683 13.0971 12.3162 13.0971 12.7067 12.7065C13.0972 12.316 13.0972 11.6828 12.7067 11.2923C12.3162 10.9021 11.683 10.902 11.2925 11.2923Z" fill="black" fill-opacity="0.9"/>
</g>
</svg>
