<svg width="24" height="24" viewBox="0 0 24 24" fill="none" xmlns="http://www.w3.org/2000/svg">
<g id="icon.24.al.padding-vertical">
<path id="Icon" d="M7 16.5C7 16.2239 7.22386 16 7.5 16H16.5C16.7761 16 17 16.2239 17 16.5C17 16.7761 16.7761 17 16.5 17H7.5C7.22386 17 7 16.7761 7 16.5ZM7 7.5C7 7.22386 7.22386 7 7.5 7H16.5C16.7761 7 17 7.22386 17 7.5C17 7.77614 16.7761 8 16.5 8H7.5C7.22386 8 7 7.77614 7 7.5ZM10 11C10 10.4477 10.4477 10 11 10H13L13.1025 10.0049C13.6067 10.0562 14 10.4823 14 11V13L13.9951 13.1025C13.9438 13.6067 13.5177 14 13 14H11C10.4477 14 10 13.5523 10 13V11ZM13 13V11H11V13H13Z" fill="black" fill-opacity="0.9"/>
</g>
</svg>
