<svg width="24" height="24" viewBox="0 0 24 24" fill="none" xmlns="http://www.w3.org/2000/svg">
<g id="icon.24.library">
<path id="Icon" fill-rule="evenodd" clip-rule="evenodd" d="M4.33496 17.2217C4.53394 17.2913 4.75483 17.2288 4.8877 17.0654V17.0664C4.88798 17.0661 4.88841 17.0649 4.88965 17.0635C4.89315 17.0594 4.90094 17.0509 4.91211 17.0391C4.93451 17.0153 4.97238 16.9773 5.02637 16.9297C5.13486 16.834 5.30895 16.6996 5.55566 16.5625C6.04618 16.29 6.83762 16 8 16C9.16238 16 9.95382 16.29 10.4443 16.5625C10.691 16.6996 10.8651 16.834 10.9736 16.9297C11.0276 16.9773 11.0655 17.0153 11.0879 17.0391C11.0991 17.0509 11.1068 17.0594 11.1104 17.0635C11.1116 17.0649 11.112 17.0661 11.1123 17.0664V17.0654L11.1104 17.0635V17.0625C11.2052 17.1808 11.3483 17.25 11.5 17.25C11.6517 17.25 11.7948 17.1808 11.8896 17.0625V17.0635L11.8877 17.0654V17.0664C11.8878 17.0663 11.8879 17.0661 11.888 17.0659C11.8883 17.0653 11.8888 17.0645 11.8896 17.0635C11.8932 17.0594 11.9009 17.0509 11.9121 17.0391C11.9345 17.0153 11.9724 16.9773 12.0264 16.9297C12.1349 16.834 12.309 16.6996 12.5557 16.5625C13.0462 16.29 13.8376 16 15 16C16.1624 16 16.9538 16.29 17.4443 16.5625C17.691 16.6996 17.8651 16.834 17.9736 16.9297C18.0276 16.9773 18.0655 17.0153 18.0879 17.0391C18.0991 17.0509 18.1068 17.0594 18.1104 17.0635L18.1123 17.0654C18.2452 17.2288 18.4661 17.2913 18.665 17.2217C18.8654 17.1514 19 16.9623 19 16.75V7.75C19 7.65129 18.9708 7.55479 18.916 7.47266L18.5001 7.74995C18.916 7.47265 18.9162 7.47193 18.916 7.47168H18.915V7.4707L18.9131 7.46777L18.8936 7.44043C18.8819 7.42427 18.866 7.40279 18.8457 7.37695C18.8048 7.32495 18.7455 7.25402 18.668 7.17188C18.5129 7.00774 18.2814 6.795 17.9648 6.58398C17.3272 6.15891 16.3568 5.75 15 5.75C13.6432 5.75 12.6728 6.15891 12.0352 6.58398C11.8171 6.72934 11.6401 6.87627 11.5 7.00684C11.3599 6.87627 11.1829 6.72934 10.9648 6.58398C10.3272 6.15891 9.35682 5.75 8 5.75C6.64318 5.75 5.67277 6.15891 5.03516 6.58398C4.71864 6.795 4.48709 7.00774 4.33203 7.17188C4.25445 7.25402 4.19516 7.32495 4.1543 7.37695C4.134 7.40279 4.11812 7.42427 4.10645 7.44043L4.08691 7.46777L4.08496 7.4707V7.47168H4.08398C4.08382 7.47193 4.08397 7.47265 4.49994 7.74996L4.08398 7.47266C4.02923 7.55479 4 7.65129 4 7.75V16.75C4 16.9623 4.13459 17.1514 4.33496 17.2217ZM12.5898 7.41602C13.0772 7.09109 13.8568 6.75 15 6.75C16.1432 6.75 16.9228 7.09109 17.4102 7.41602C17.6559 7.57985 17.8308 7.7423 17.9414 7.85938C17.9566 7.87551 17.97 7.89134 17.9823 7.90599C17.9884 7.91324 17.9943 7.9202 18 7.92676V15.7285C17.9905 15.723 17.981 15.7173 17.9715 15.7115C17.9581 15.7034 17.9446 15.6952 17.9307 15.6875C17.2962 15.335 16.3376 15 15 15C13.6624 15 12.7038 15.335 12.0693 15.6875C12.0458 15.7006 12.0227 15.7137 12 15.7268V8C12 7.97605 11.9983 7.9525 11.9951 7.92945C12.0131 7.90863 12.0343 7.88512 12.0586 7.85938C12.1692 7.7423 12.3441 7.57985 12.5898 7.41602ZM11.0049 7.92944C10.9869 7.90863 10.9657 7.88512 10.9414 7.85938C10.8308 7.7423 10.6559 7.57985 10.4102 7.41602C9.92277 7.09109 9.14318 6.75 8 6.75C6.85682 6.75 6.07723 7.09109 5.58984 7.41602C5.34409 7.57985 5.16916 7.7423 5.05859 7.85938C5.04336 7.87551 5.03003 7.89134 5.0177 7.90598C5.01159 7.91323 5.00573 7.92019 5 7.92676V15.7285C5.00951 15.723 5.01898 15.7173 5.02851 15.7115C5.0419 15.7034 5.05541 15.6952 5.06934 15.6875C5.70383 15.335 6.66245 15 8 15C9.33755 15 10.2962 15.335 10.9307 15.6875C10.9542 15.7006 10.9773 15.7137 11 15.7268V8C11 7.97605 11.0017 7.9525 11.0049 7.92944Z" fill="black" fill-opacity="0.9"/>
</g>
</svg>
