<svg width="24" height="24" viewBox="0 0 24 24" fill="none" xmlns="http://www.w3.org/2000/svg">
<g id="icon.24.visual.search.small">
<path id="Icon" d="M6.5 14C6.77614 14 7 14.2239 7 14.5V15.5C7 16.3284 7.67157 17 8.5 17H9.5C9.77614 17 10 17.2239 10 17.5C10 17.7761 9.77614 18 9.5 18H8.5C7.11929 18 6 16.8807 6 15.5V14.5C6 14.2239 6.22386 14 6.5 14ZM15.0146 13.4404C15.1409 12.9355 15.8591 12.9355 15.9854 13.4404L16.2998 14.7002L17.5596 15.0146C18.0645 15.1409 18.0645 15.8591 17.5596 15.9854L16.2998 16.2998L15.9854 17.5596C15.8591 18.0645 15.1409 18.0645 15.0146 17.5596L14.7002 16.2998L13.4404 15.9854C12.9355 15.8591 12.9355 15.1409 13.4404 15.0146L14.7002 14.7002L15.0146 13.4404ZM8.5 6C9.88071 6 11 7.11929 11 8.5C11 9.00948 10.8467 9.48274 10.585 9.87793L11.8535 11.1465C12.0488 11.3417 12.0488 11.6583 11.8535 11.8535C11.6583 12.0488 11.3417 12.0488 11.1465 11.8535L9.87793 10.585C9.48274 10.8467 9.00948 11 8.5 11C7.11929 11 6 9.88071 6 8.5C6 7.11929 7.11929 6 8.5 6ZM8.5 7C7.67157 7 7 7.67157 7 8.5C7 9.32843 7.67157 10 8.5 10C9.32843 10 10 9.32843 10 8.5C10 7.67157 9.32843 7 8.5 7ZM15.5 6C16.8807 6 18 7.11929 18 8.5V9.5C18 9.77614 17.7761 10 17.5 10C17.2239 10 17 9.77614 17 9.5V8.5C17 7.67157 16.3284 7 15.5 7H14.5C14.2239 7 14 6.77614 14 6.5C14 6.22386 14.2239 6 14.5 6H15.5Z" fill="black" fill-opacity="0.9"/>
</g>
</svg>
