<svg width="24" height="24" viewBox="0 0 24 24" fill="none" xmlns="http://www.w3.org/2000/svg">
<g id="icon.24.action.time.set.small">
<path id="Icon" d="M15 6C15.5523 6 16 6.44772 16 7V8H18L18.1025 8.00488C18.6067 8.05621 19 8.48232 19 9V15C19 15.5177 18.6067 15.9438 18.1025 15.9951L18 16H16V17C16 17.5177 15.6067 17.9438 15.1025 17.9951L15 18H14L13.8975 17.9951C13.427 17.9472 13.0528 17.573 13.0049 17.1025L13 17V16H6C5.44772 16 5 15.5523 5 15V9C5 8.44772 5.44772 8 6 8H13V7C13 6.44772 13.4477 6 14 6H15ZM14 17H15V7H14V17ZM16 15H18V9H16V15ZM6 9V15H13V9H6Z" fill="black" fill-opacity="0.9"/>
</g>
</svg>
