<svg width="24" height="24" viewBox="0 0 24 24" fill="none" xmlns="http://www.w3.org/2000/svg">
<g id="icon.24.hidden.small">
<path id="Icon" d="M5.5127 9C5.78121 9 6.03021 9.21752 6.13477 9.46484C6.17893 9.56931 6.23698 9.6894 6.31152 9.82422C6.55232 10.2596 6.92516 10.7634 7.43262 11.2393C8.44033 12.184 9.95406 12.9999 11.999 13C14.0441 13 15.5576 12.184 16.5654 11.2393C17.0729 10.7634 17.4457 10.2596 17.6865 9.82422C17.758 9.69489 17.814 9.57897 17.8574 9.47754C17.9661 9.22367 18.2229 9 18.499 9C18.775 9 18.9939 9.22465 18.916 9.48926C18.7144 10.1715 18.1452 11.1394 17.21 12.0039L18.3525 13.1465C18.5478 13.3417 18.5478 13.6583 18.3525 13.8535C18.1573 14.0486 17.8407 14.0487 17.6455 13.8535L16.4268 12.6348C15.883 13.0163 15.2534 13.3499 14.5371 13.5918L14.9844 15.3789C15.0512 15.6467 14.8879 15.9184 14.6201 15.9854C14.3524 16.0519 14.0806 15.8888 14.0137 15.6211L13.5703 13.8486C13.0797 13.9449 12.5562 14 11.999 14C11.4415 14 10.9176 13.945 10.4268 13.8486L9.98438 15.6211C9.91738 15.8889 9.64572 16.0522 9.37793 15.9854C9.11039 15.9182 8.94695 15.6466 9.01367 15.3789L9.45996 13.5908C8.74384 13.3488 8.113 13.0173 7.56934 12.6357L6.35254 13.8535C6.15726 14.0486 5.8407 14.0487 5.64551 13.8535C5.45053 13.6583 5.45053 13.3417 5.64551 13.1465L6.78809 12.0029C5.66963 10.9689 5.07488 9.78783 5.00586 9.12402C5.00215 9.05672 5.05567 9.00011 5.12305 9H5.5127Z" fill="black" fill-opacity="0.9"/>
</g>
</svg>
