<svg width="24" height="24" viewBox="0 0 24 24" fill="none" xmlns="http://www.w3.org/2000/svg">
<g id="icon.24.crop.small">
<path id="Icon" d="M8.5 5C8.77614 5 9 5.22386 9 5.5V8H15.5C15.7761 8 16 8.22386 16 8.5V15H18.5C18.7761 15 19 15.2239 19 15.5C19 15.7761 18.7761 16 18.5 16H16V18.5C16 18.7761 15.7761 19 15.5 19C15.2239 19 15 18.7761 15 18.5V16H8.5C8.22386 16 8 15.7761 8 15.5V9H5.5C5.22386 9 5 8.77614 5 8.5C5 8.22386 5.22386 8 5.5 8H8V5.5C8 5.22386 8.22386 5 8.5 5ZM9 15H15V9H9V15Z" fill="black" fill-opacity="0.9"/>
</g>
</svg>
