<svg width="24" height="24" viewBox="0 0 24 24" fill="none" xmlns="http://www.w3.org/2000/svg">
<g id="icon.24.radius.top.left">
<path id="Icon" d="M15.5 8C15.7761 8 16 8.22386 16 8.5C16 8.77614 15.7761 9 15.5 9H12.5C11.7917 9 11.2902 9.00022 10.8984 9.03223C10.5126 9.06377 10.2769 9.12345 10.0918 9.21777C9.71554 9.40951 9.40951 9.71554 9.21777 10.0918C9.12345 10.2769 9.06377 10.5126 9.03223 10.8984C9.00022 11.2902 9 11.7917 9 12.5V15.5C9 15.7761 8.77614 16 8.5 16C8.22386 16 8 15.7761 8 15.5V12.5C8 11.8082 8.00003 11.2593 8.03613 10.8174C8.07272 10.3696 8.14901 9.98732 8.32715 9.6377C8.61472 9.07347 9.07347 8.61472 9.6377 8.32715C9.98732 8.14901 10.3696 8.07272 10.8174 8.03613C11.2593 8.00003 11.8082 8 12.5 8H15.5Z" fill="black" fill-opacity="0.9"/>
</g>
</svg>
