<svg width="24" height="24" viewBox="0 0 24 24" fill="none" xmlns="http://www.w3.org/2000/svg">
<g id="icon.24.multiple.components.small">
<path id="Icon" d="M10.2246 13.082C10.4187 12.9539 10.6827 12.9756 10.8535 13.1465L12.8535 15.1465C13.0488 15.3417 13.0488 15.6583 12.8535 15.8535L10.8535 17.8535C10.6583 18.0488 10.3417 18.0488 10.1465 17.8535L8.14648 15.8535C7.95122 15.6583 7.95122 15.3417 8.14648 15.1465L10.1465 13.1465L10.2246 13.082ZM15.1465 15.1465C15.3417 14.9512 15.6583 14.9512 15.8535 15.1465C16.0488 15.3417 16.0488 15.6583 15.8535 15.8535L13.8535 17.8535C13.6583 18.0488 13.3417 18.0488 13.1465 17.8535C12.9512 17.6583 12.9512 17.3417 13.1465 17.1465L15.1465 15.1465ZM9.20703 15.5L10.5 16.793L11.793 15.5L10.5 14.207L9.20703 15.5ZM6.72461 9.58203C6.91869 9.45387 7.18265 9.47562 7.35352 9.64648L9.35352 11.6465C9.54878 11.8417 9.54878 12.1583 9.35352 12.3535L7.35352 14.3535C7.15825 14.5488 6.84175 14.5488 6.64648 14.3535L4.64648 12.3535C4.45122 12.1583 4.45122 11.8417 4.64648 11.6465L6.64648 9.64648L6.72461 9.58203ZM13.7246 9.58203C13.9187 9.45387 14.1827 9.47562 14.3535 9.64648L16.3535 11.6465C16.5488 11.8417 16.5488 12.1583 16.3535 12.3535L14.3535 14.3535C14.1583 14.5488 13.8417 14.5488 13.6465 14.3535L11.6465 12.3535C11.4512 12.1583 11.4512 11.8417 11.6465 11.6465L13.6465 9.64648L13.7246 9.58203ZM16.6465 9.64648C16.8417 9.45122 17.1583 9.45122 17.3535 9.64648L19.3535 11.6465C19.5488 11.8417 19.5488 12.1583 19.3535 12.3535L17.3535 14.3535C17.1583 14.5488 16.8417 14.5488 16.6465 14.3535C16.4512 14.1583 16.4512 13.8417 16.6465 13.6465L18.293 12L16.6465 10.3535C16.4512 10.1583 16.4512 9.84175 16.6465 9.64648ZM5.70703 12L7 13.293L8.29297 12L7 10.707L5.70703 12ZM12.707 12L14 13.293L15.293 12L14 10.707L12.707 12ZM10.2246 6.08203C10.4187 5.95387 10.6827 5.97562 10.8535 6.14648L12.8535 8.14648C13.0488 8.34175 13.0488 8.65825 12.8535 8.85352L10.8535 10.8535C10.6583 11.0488 10.3417 11.0488 10.1465 10.8535L8.14648 8.85352C7.95122 8.65825 7.95122 8.34175 8.14648 8.14648L10.1465 6.14648L10.2246 6.08203ZM9.20703 8.5L10.5 9.79297L11.793 8.5L10.5 7.20703L9.20703 8.5ZM13.1465 6.14648C13.3417 5.95122 13.6583 5.95122 13.8535 6.14648L15.8535 8.14648C16.0488 8.34175 16.0488 8.65825 15.8535 8.85352C15.6583 9.04878 15.3417 9.04878 15.1465 8.85352L13.1465 6.85352C12.9512 6.65825 12.9512 6.34175 13.1465 6.14648Z" fill="black" fill-opacity="0.9"/>
</g>
</svg>
