<svg width="24" height="24" viewBox="0 0 24 24" fill="none" xmlns="http://www.w3.org/2000/svg">
<g id="icon.24.hand.small">
<path id="Icon" d="M12.5 5C13.1921 5 13.7733 5.46912 13.9463 6.10645C14.1177 6.03828 14.3043 6 14.5 6C15.1921 6 15.7733 6.46912 15.9463 7.10645C16.1177 7.03828 16.3043 7 16.5 7C17.3284 7 18 7.67157 18 8.5V12.9854C17.7858 16.0098 16.0868 18 13.0078 18L12.4541 17.9863C10.1599 17.872 9.19487 17.0645 8.97852 16.8516L8.92969 16.8008C8.92959 16.8007 7.42065 14.7635 6.75977 13.7676L6.53613 13.4131C6.13885 12.7319 5.75471 11.9818 6.19824 11.415L6.29883 11.3037C6.89364 10.727 7.72236 10.9262 8.32715 11.4922L9 12V7.5C9 6.67157 9.67157 6 10.5 6C10.6954 6 10.8816 6.03849 11.0527 6.10645C11.2257 5.46899 11.8078 5 12.5 5ZM12.5 6C12.2239 6 12 6.22386 12 6.5V10.5C12 10.7761 11.7761 11 11.5 11C11.2239 11 11 10.7761 11 10.5V7.5C11 7.22386 10.7761 7 10.5 7C10.2239 7 10 7.22386 10 7.5V12C10 12.3794 9.78496 12.7264 9.44531 12.8955C9.1058 13.0643 8.70005 13.0264 8.39746 12.7979L7.72461 12.29C7.69662 12.2689 7.66917 12.2457 7.64355 12.2217C7.45513 12.0455 7.28035 11.9742 7.1748 11.96C7.12737 11.9536 7.09824 11.9594 7.08105 11.9648C7.06633 11.9695 7.03915 11.9801 7.00098 12.0156C7.0019 12.0303 7.00437 12.0537 7.01172 12.0869C7.05421 12.2786 7.18159 12.5367 7.39941 12.9102C7.58103 13.2215 8.14431 14.0209 8.70215 14.7939C8.97289 15.1691 9.2306 15.5229 9.4209 15.7822C9.51583 15.9116 9.59419 16.0173 9.64844 16.0908C9.66524 16.1136 9.67938 16.1341 9.69141 16.1504C9.70418 16.1622 9.72518 16.1805 9.75488 16.2041C9.83862 16.2705 9.99514 16.3798 10.2412 16.4961C10.7298 16.727 11.6016 17 13.0078 17C14.3192 17 15.2368 16.5842 15.8555 15.9365C16.4885 15.2738 16.9074 14.2637 17.0029 12.9141L17.0039 12.9033C17.0038 12.9018 17.004 12.9002 17.0039 12.8984C17.0036 12.8923 17.0024 12.8796 17.002 12.8691C17.001 12.8466 17 12.8119 17 12.7725V8.5C17 8.22386 16.7761 8 16.5 8C16.2239 8 16 8.22386 16 8.5V10.5C16 10.7761 15.7761 11 15.5 11C15.2239 11 15 10.7761 15 10.5V7.5C15 7.22386 14.7761 7 14.5 7C14.2583 7 14.0563 7.17145 14.0098 7.39941L14 7.5V10.5C14 10.7761 13.7761 11 13.5 11C13.2239 11 13 10.7761 13 10.5V6.5C13 6.22386 12.7761 6 12.5 6Z" fill="black" fill-opacity="0.9"/>
</g>
</svg>
