<svg width="24" height="24" viewBox="0 0 24 24" fill="none" xmlns="http://www.w3.org/2000/svg">
<g id="icon.24.version.merged">
<path id="Icon" d="M11.7246 6.08203C11.9187 5.95387 12.1827 5.97562 12.3535 6.14648L14.3535 8.14648C14.5488 8.34175 14.5488 8.65825 14.3535 8.85352C14.1583 9.04878 13.8417 9.04878 13.6465 8.85352L12.5 7.70703V11.5312C14.4731 11.7773 16 13.4602 16 15.5V17.5C16 17.7761 15.7761 18 15.5 18C15.2239 18 15 17.7761 15 17.5V15.5C15 13.8431 13.6569 12.5 12 12.5C10.3431 12.5 9 13.8431 9 15.5V17.5C9 17.7761 8.77614 18 8.5 18C8.22386 18 8 17.7761 8 17.5V15.5C8 13.4602 9.52686 11.7773 11.5 11.5312V7.70703L10.3535 8.85352C10.1583 9.04878 9.84175 9.04878 9.64648 8.85352C9.45122 8.65825 9.45122 8.34175 9.64648 8.14648L11.6465 6.14648L11.7246 6.08203Z" fill="black" fill-opacity="0.9"/>
</g>
</svg>
