<svg width="24" height="24" viewBox="0 0 24 24" fill="none" xmlns="http://www.w3.org/2000/svg">
<g id="icon.24.component">
<path id="Icon" d="M11.1162 3.38403C11.6043 2.896 12.3957 2.896 12.8838 3.38403L16.2715 6.77173C16.3232 6.82346 16.3991 6.83658 16.4629 6.81079L16.5801 6.73267C16.6439 6.70687 16.7198 6.72 16.7715 6.77173L17.2285 7.22876C17.2802 7.28049 17.2934 7.35636 17.2676 7.42017L17.1895 7.53735C17.1637 7.60116 17.1768 7.67703 17.2285 7.72876L20.6162 11.1165C21.1042 11.6046 21.1042 12.3959 20.6162 12.884L17.2285 16.2717C17.1768 16.3235 17.1637 16.3993 17.1895 16.4631L17.2676 16.5803C17.2934 16.6441 17.2802 16.72 17.2285 16.7717L16.7715 17.2288L16.7129 17.2678C16.6704 17.285 16.6225 17.285 16.5801 17.2678L16.4629 17.1897C16.3991 17.1639 16.3232 17.177 16.2715 17.2288L12.8838 20.6165L12.7891 20.7024C12.3308 21.0761 11.6692 21.0761 11.2109 20.7024L11.1162 20.6165L7.72852 17.2288C7.67679 17.177 7.60091 17.1639 7.53711 17.1897L7.41992 17.2678C7.37747 17.285 7.32957 17.285 7.28711 17.2678L7.22852 17.2288L6.77148 16.7717C6.71976 16.72 6.70663 16.6441 6.73242 16.5803L6.81055 16.4631C6.82771 16.4207 6.82771 16.3728 6.81055 16.3303L6.77148 16.2717L3.38379 12.884C2.92625 12.4264 2.89747 11.7021 3.29785 11.2112L3.38379 11.1165L6.77148 7.72876C6.82321 7.67703 6.83634 7.60116 6.81055 7.53735L6.73242 7.42017C6.70663 7.35636 6.71976 7.28049 6.77148 7.22876L7.22852 6.77173C7.28024 6.72 7.35612 6.70687 7.41992 6.73267L7.53711 6.81079C7.57957 6.82795 7.62747 6.82795 7.66992 6.81079L7.72852 6.77173L11.1162 3.38403ZM12.1768 4.09106C12.0791 3.99356 11.9208 3.99356 11.8232 4.09106L8.43555 7.47876C8.25719 7.65712 8.03568 7.76502 7.80469 7.80493C7.76477 8.03592 7.65687 8.25744 7.47852 8.43579L4.09082 11.8235C3.99331 11.9211 3.99332 12.0794 4.09082 12.177L7.47852 15.5647C7.65663 15.7428 7.76464 15.9639 7.80469 16.1946C7.9986 16.2281 8.18607 16.3096 8.34668 16.4407L8.43555 16.5217L11.8232 19.9094C11.9209 20.0069 12.0792 20.0069 12.1768 19.9094L15.5645 16.5217L15.6533 16.4407C15.8137 16.3098 16.0008 16.2282 16.1943 16.1946C16.2344 15.9639 16.3433 15.7429 16.5215 15.5647L19.9092 12.177C20.0067 12.0794 20.0067 11.9211 19.9092 11.8235L16.5215 8.43579C16.3431 8.25739 16.2342 8.03598 16.1943 7.80493C15.9637 7.76488 15.7426 7.65687 15.5645 7.47876L12.1768 4.09106Z" fill="black" fill-opacity="0.9"/>
</g>
</svg>
