<svg width="24" height="24" viewBox="0 0 24 24" fill="none" xmlns="http://www.w3.org/2000/svg">
<g id="icon.24.open.session">
<path id="Icon" d="M13 3C13.8284 3 14.5 3.67157 14.5 4.5V5H17C18.1046 5 19 5.89543 19 7V18C19 19.0357 18.2128 19.887 17.2041 19.9893L17 20H7L6.7959 19.9893C5.85435 19.8938 5.1062 19.1457 5.01074 18.2041L5 18V7C5 5.89543 5.89543 5 7 5H9.5V4.5C9.5 3.67157 10.1716 3 11 3H13ZM7 6C6.48232 6 6.05621 6.39333 6.00488 6.89746L6 7V18C6 18.5523 6.44772 19 7 19H17C17.5523 19 18 18.5523 18 18V7C18 6.44772 17.5523 6 17 6H7ZM12 8C13.3807 8 14.5 9.11929 14.5 10.5C14.5 11.4415 13.9788 12.2601 13.21 12.6865C14.8276 13.1993 16 14.7126 16 16.5C16 16.7761 15.7761 17 15.5 17C15.2239 17 15 16.7761 15 16.5C15 14.8431 13.6569 13.5 12 13.5C10.3431 13.5 9 14.8431 9 16.5C9 16.7761 8.77614 17 8.5 17C8.22386 17 8 16.7761 8 16.5C8 14.713 9.17186 13.1996 10.7891 12.6865C10.0206 12.26 9.5 11.4412 9.5 10.5C9.5 9.11929 10.6193 8 12 8ZM12 9C11.1716 9 10.5 9.67157 10.5 10.5C10.5 11.3284 11.1716 12 12 12C12.8284 12 13.5 11.3284 13.5 10.5C13.5 9.67157 12.8284 9 12 9ZM11 4C10.7239 4 10.5 4.22386 10.5 4.5V5H13.5V4.5C13.5 4.25829 13.3286 4.05629 13.1006 4.00977L13 4H11Z" fill="black" fill-opacity="0.9"/>
</g>
</svg>
