<svg width="24" height="24" viewBox="0 0 24 24" fill="none" xmlns="http://www.w3.org/2000/svg">
<g id="icon.24.action.overlay.swap.small">
<path id="Icon" d="M10.5 14C10.7761 14 11 14.2239 11 14.5V16C11 17.1046 10.1046 18 9 18H6.5C6.22386 18 6 17.7761 6 17.5C6 17.2239 6.22386 17 6.5 17H9C9.55228 17 10 16.5523 10 16V14.5C10 14.2239 10.2239 14 10.5 14ZM13.5 14C13.7761 14 14 14.2239 14 14.5V16C14 16.5523 14.4477 17 15 17H17.5C17.7761 17 18 17.2239 18 17.5C18 17.7761 17.7761 18 17.5 18H15C13.8954 18 13 17.1046 13 16V14.5C13 14.2239 13.2239 14 13.5 14ZM15.6465 10.1465C15.8417 9.95122 16.1583 9.95122 16.3535 10.1465L17.8535 11.6465C18.0488 11.8417 18.0488 12.1583 17.8535 12.3535L16.3535 13.8535C16.1583 14.0488 15.8417 14.0488 15.6465 13.8535C15.4512 13.6583 15.4512 13.3417 15.6465 13.1465L16.293 12.5H7.70703L8.35352 13.1465C8.54878 13.3417 8.54878 13.6583 8.35352 13.8535C8.15825 14.0488 7.84175 14.0488 7.64648 13.8535L6.14648 12.3535C5.95122 12.1583 5.95122 11.8417 6.14648 11.6465L7.64648 10.1465C7.84175 9.95122 8.15825 9.95122 8.35352 10.1465C8.54878 10.3417 8.54878 10.6583 8.35352 10.8535L7.70703 11.5H16.293L15.6465 10.8535C15.4512 10.6583 15.4512 10.3417 15.6465 10.1465ZM9 6C10.1046 6 11 6.89543 11 8V9.5C11 9.77614 10.7761 10 10.5 10C10.2239 10 10 9.77614 10 9.5V8C10 7.44772 9.55228 7 9 7H6.5C6.22386 7 6 6.77614 6 6.5C6 6.22386 6.22386 6 6.5 6H9ZM17.5 6C17.7761 6 18 6.22386 18 6.5C18 6.77614 17.7761 7 17.5 7H15C14.4477 7 14 7.44772 14 8V9.5C14 9.77614 13.7761 10 13.5 10C13.2239 10 13 9.77614 13 9.5V8C13 6.89543 13.8954 6 15 6H17.5Z" fill="black" fill-opacity="0.9"/>
</g>
</svg>
