<svg width="24" height="24" viewBox="0 0 24 24" fill="none" xmlns="http://www.w3.org/2000/svg">
<g id="icon.24.al.spacing-vertical">
<path id="Icon" d="M14.75 14C15.4404 14 16 14.5596 16 15.25V15.5C16 15.7761 15.7761 16 15.5 16C15.2239 15.9999 15 15.7761 15 15.5V15.25C15 15.1119 14.8881 15 14.75 15H8.25C8.11193 15 8 15.1119 8 15.25V15.5C8 15.7761 7.77614 16 7.5 16C7.22386 16 7 15.7761 7 15.5V15.25C7 14.5596 7.55964 14 8.25 14H14.75ZM13.5 11C13.7761 11 14 11.2239 14 11.5C14 11.7761 13.7761 12 13.5 12H9.5C9.22386 12 9 11.7761 9 11.5C9 11.2239 9.22386 11 9.5 11H13.5ZM15.5 7C15.7761 7 16 7.22386 16 7.5V7.75C16 8.44036 15.4404 9 14.75 9H8.25C7.55964 9 7 8.44036 7 7.75V7.5C7 7.22386 7.22386 7 7.5 7C7.77614 7 8 7.22386 8 7.5V7.75C8 7.88807 8.11193 8 8.25 8H14.75C14.8881 8 15 7.88807 15 7.75V7.5C15 7.22386 15.2239 7 15.5 7Z" fill="black" fill-opacity="0.9"/>
</g>
</svg>
