<svg width="24" height="24" viewBox="0 0 24 24" fill="none" xmlns="http://www.w3.org/2000/svg">
<g id="icon.24.overflow.display.small">
<path id="Secondary" d="M13 13V14H11V14.5C11 14.7761 10.7761 15 10.5 15C10.2239 15 10 14.7761 10 14.5V14H9.5C9.22386 14 9 13.7761 9 13.5C9 13.2239 9.22386 13 9.5 13H10V11H11V13H13ZM16 8H11V10H10V8H9.5C9.22386 8 9 7.77614 9 7.5C9 7.22386 9.22386 7 9.5 7H10V6.5C10 6.22386 10.2239 6 10.5 6C10.7761 6 11 6.22386 11 6.5V7H16V6.5C16 6.22386 16.2239 6 16.5 6C16.7761 6 17 6.22386 17 6.5V7H17.5C17.7761 7 18 7.22386 18 7.5C18 7.77614 17.7761 8 17.5 8H17V13H17.5C17.7761 13 18 13.2239 18 13.5C18 13.7761 17.7761 14 17.5 14H17V14.5C17 14.7761 16.7761 15 16.5 15C16.2239 15 16 14.7761 16 14.5V14H14V13H16V8Z" fill="black" fill-opacity="0.3"/>
<path id="Icon" d="M13.1025 10.0049C13.6067 10.0562 14 10.4823 14 11V17C14 17.5523 13.5523 18 13 18H7C6.44772 18 6 17.5523 6 17V11C6 10.4477 6.44772 10 7 10H13L13.1025 10.0049ZM7 17H13V11H7V17Z" fill="black" fill-opacity="0.9"/>
</g>
</svg>
