<svg width="24" height="24" viewBox="0 0 24 24" fill="none" xmlns="http://www.w3.org/2000/svg">
<g id="icon.24.widget.small">
<path id="Icon" d="M15.5 13.0003C16.8807 13.0003 18 14.1196 18 15.5003C17.9998 16.8808 16.8806 18.0003 15.5 18.0003C14.1194 18.0003 13.0002 16.8808 13 15.5003C13 14.1196 14.1193 13.0003 15.5 13.0003ZM10 12.9993C10.5521 12.9993 10.9998 13.4472 11 13.9993V16.9993C11 17.517 10.6067 17.9431 10.1025 17.9944L10 17.9993H7L6.89746 17.9944C6.42711 17.9464 6.05278 17.5722 6.00488 17.1018L6 16.9993V13.9993C6.00022 13.4472 6.44791 12.9994 7 12.9993H10ZM15.5 14.0003C14.6716 14.0003 14 14.6719 14 15.5003C14.0002 16.3285 14.6717 17.0003 15.5 17.0003C16.3283 17.0003 16.9998 16.3285 17 15.5003C17 14.6718 16.3284 14.0003 15.5 14.0003ZM7 16.9993H10V13.9993H7V16.9993ZM14.793 5.70828C15.159 5.34224 15.7391 5.31876 16.1318 5.63895L16.207 5.70828L18.293 7.79422L18.3623 7.86942C18.6827 8.26216 18.659 8.84212 18.293 9.20828L16.207 11.2942L16.1318 11.3626C15.7652 11.6617 15.2358 11.6616 14.8691 11.3626L14.7939 11.2942L12.708 9.20828L12.6387 9.13211C12.3184 8.73933 12.3419 8.15931 12.708 7.79324L14.793 5.70828ZM6.08594 6.33621C6.74069 5.68146 7.73499 5.57777 8.5 6.02078C9.26501 5.57777 10.2593 5.68146 10.9141 6.33621C11.695 7.11727 11.6951 8.38331 10.9141 9.16434L9.20703 10.8714C8.81653 11.2618 8.18347 11.2618 7.79297 10.8714L6.08594 9.16434C5.30491 8.38331 5.30496 7.11727 6.08594 6.33621ZM13.415 8.50027L15.5 10.5862L17.5859 8.50125L15.5 6.41531L13.415 8.50027ZM10.207 7.04324C9.81651 6.65272 9.18349 6.65272 8.79297 7.04324L8.5 7.33621L8.20703 7.04324C7.81651 6.65272 7.18349 6.65272 6.79297 7.04324C6.40252 7.43377 6.40247 8.06681 6.79297 8.45731L8.5 10.1643L10.207 8.45731C10.5975 8.06681 10.5975 7.43377 10.207 7.04324Z" fill="black" fill-opacity="0.9"/>
</g>
</svg>
