<svg width="24" height="24" viewBox="0 0 24 24" fill="none" xmlns="http://www.w3.org/2000/svg">
<g id="icon.24.autolayout-add-vertical">
<path id="Icon" d="M6.00781 9.65332C6.08461 10.4097 6.72334 11 7.5 11L16.5 11C17.2767 11 17.9154 10.4097 17.9922 9.65332L18 9.5L18 7.5C18 6.67157 17.3284 6 16.5 6L7.5 6C6.67157 6 6 6.67157 6 7.5L6 9.5L6.00781 9.65332ZM13 15.5C13 15.7761 13.2239 16 13.5 16L15 16L15 17.5C15 17.7761 15.2239 18 15.5 18C15.7761 18 16 17.7761 16 17.5L16 16L17.5 16C17.7761 16 18 15.7761 18 15.5C18 15.2239 17.7761 15 17.5 15L16 15L16 13.5C16 13.2239 15.7761 13 15.5 13C15.2239 13 15 13.2239 15 13.5L15 15L13.5 15C13.2239 15 13 15.2239 13 15.5ZM7 7.5C7 7.22386 7.22386 7 7.5 7L16.5 7C16.7761 7 17 7.22386 17 7.5L17 9.5C17 9.77614 16.7761 10 16.5 10L7.5 10C7.22386 10 7 9.77614 7 9.5L7 7.5ZM6.00781 16.6533C6.08461 17.4097 6.72334 18 7.5 18L9.5 18C10.2767 18 10.9154 17.4097 10.9922 16.6533L11 16.5L11 14.5C11 13.6716 10.3284 13 9.5 13L7.5 13C6.67157 13 6 13.6716 6 14.5L6 16.5L6.00781 16.6533ZM7 14.5C7 14.2239 7.22386 14 7.5 14L9.5 14C9.77614 14 10 14.2239 10 14.5L10 16.5C10 16.7761 9.77614 17 9.5 17L7.5 17C7.22386 17 7 16.7761 7 16.5L7 14.5Z" fill="black" fill-opacity="0.9"/>
</g>
</svg>
