<svg width="24" height="24" viewBox="0 0 24 24" fill="none" xmlns="http://www.w3.org/2000/svg">
<g id="icon.24.placeholder">
<path id="Icon" d="M8.6747 19.7593C8.80143 19.5401 9.07098 19.4511 9.3096 19.5359C9.71248 19.6792 10.1303 19.7905 10.5601 19.8681C10.8103 19.9133 11 20.126 11 20.3802C11 20.6805 10.7387 20.9153 10.4429 20.8637C9.91636 20.7718 9.4057 20.6341 8.91489 20.4549C8.63342 20.3521 8.52475 20.0187 8.6747 19.7593ZM15.3243 19.7593C15.4743 20.0187 15.3655 20.3521 15.0841 20.4549C14.5936 20.634 14.0833 20.7717 13.5571 20.8636C13.2613 20.9153 13 20.6805 13 20.3802C13 20.126 13.1897 19.9133 13.4399 19.8681C13.8693 19.7905 14.2869 19.6791 14.6895 19.5359C14.9281 19.451 15.1976 19.54 15.3243 19.7593ZM5.24233 17.0556C5.46216 16.9287 5.74075 16.9863 5.90517 17.1797C6.18497 17.5088 6.49081 17.8149 6.81973 18.0949C7.01267 18.2591 7.07018 18.5372 6.9436 18.7567C6.79354 19.0169 6.44957 19.0893 6.21941 18.8963C5.81547 18.5576 5.44166 18.1842 5.10274 17.7805C4.90941 17.5502 4.98191 17.2059 5.24233 17.0556ZM18.7574 17.0557C19.0175 17.206 19.0898 17.5499 18.8967 17.78C18.5577 18.184 18.1837 18.5575 17.7796 18.8964C17.5494 19.0894 17.2055 19.0169 17.0555 18.7567C16.9289 18.5372 16.9864 18.2591 17.1794 18.0949C17.5086 17.8149 17.8148 17.5087 18.0949 17.1795C18.2593 16.9863 18.5378 16.9288 18.7574 17.0557ZM3.6194 12.9996C3.87364 12.9996 4.08634 13.1894 4.13151 13.4396C4.20907 13.8691 4.32036 14.2868 4.46354 14.6895C4.54848 14.9284 4.4593 15.1983 4.23972 15.325C3.98006 15.4749 3.64657 15.3661 3.54384 15.0844C3.3649 14.5937 3.22756 14.0831 3.13585 13.5567C3.08432 13.2609 3.31914 12.9996 3.6194 12.9996ZM20.381 12.9996C20.6816 12.9996 20.9166 13.2612 20.8648 13.5572C20.7727 14.0832 20.6346 14.5932 20.4554 15.0835C20.3525 15.3651 20.019 15.474 19.7593 15.324C19.5397 15.1973 19.4505 14.9274 19.5356 14.6886C19.6789 14.2863 19.7905 13.8691 19.8683 13.44C19.9136 13.1896 20.1265 12.9996 20.381 12.9996ZM4.23968 8.67422C4.45928 8.801 4.54846 9.07089 4.46351 9.3098C4.32033 9.71251 4.20908 10.1302 4.13153 10.5598C4.08636 10.8099 3.87366 10.9996 3.61945 10.9996C3.31916 10.9996 3.08434 10.7383 3.13588 10.4425C3.22759 9.91613 3.3649 9.4055 3.54384 8.9148C3.64656 8.63313 3.98003 8.52431 4.23968 8.67422ZM19.7594 8.6742C20.019 8.5243 20.3525 8.6331 20.4554 8.91468C20.6347 9.40528 20.7727 9.91571 20.8648 10.442C20.9166 10.7381 20.6816 10.9996 20.381 10.9996C20.1265 10.9996 19.9136 10.8097 19.8683 10.5593C19.7906 10.1299 19.679 9.71239 19.5356 9.30979C19.4506 9.0709 19.5398 8.80099 19.7594 8.6742ZM17.056 5.24196C17.2063 4.98155 17.5506 4.90905 17.7809 5.10237C18.1846 5.44133 18.5581 5.8152 18.8968 6.21918C19.0898 6.44934 19.0175 6.79328 18.7574 6.94356C18.5377 7.07048 18.2593 7.013 18.0949 6.81977C17.815 6.49076 17.509 6.18474 17.18 5.90485C16.9867 5.74039 16.9291 5.46179 17.056 5.24196ZM6.94307 5.24202C7.06994 5.46182 7.01238 5.74039 6.81908 5.90485C6.49045 6.18448 6.18474 6.49021 5.90512 6.81885C5.74073 7.01205 5.46227 7.06952 5.24263 6.9426C4.98255 6.79232 4.91024 6.44835 5.10326 6.2182C5.44172 5.81465 5.81479 5.44113 6.21813 5.10246C6.44842 4.90909 6.79275 4.98158 6.94307 5.24202ZM11 3.6195C11 3.87347 10.8105 4.08597 10.5605 4.13108C10.1306 4.20868 9.7126 4.32004 9.30959 4.46336C9.07098 4.54822 8.80144 4.45922 8.67471 4.23996C8.52476 3.98053 8.63344 3.64719 8.91495 3.54452C9.4059 3.36546 9.91675 3.2281 10.4434 3.13639C10.739 3.08492 11 3.31951 11 3.6195ZM13 3.61948C13 3.3195 13.261 3.08491 13.5566 3.13642C14.0829 3.22814 14.5934 3.36554 15.084 3.54451C15.3655 3.6472 15.4742 3.98057 15.3243 4.24002C15.1976 4.45925 14.9281 4.54826 14.6895 4.4634C14.2868 4.32014 13.8691 4.20872 13.4395 4.13111C13.1895 4.08596 13 3.87346 13 3.61948Z" fill="black" fill-opacity="0.3"/>
</g>
</svg>
