<svg width="24" height="24" viewBox="0 0 24 24" fill="none" xmlns="http://www.w3.org/2000/svg">
<g id="icon.24.pen.small">
<path id="Icon" d="M7.27148 6.18538C9.61164 6.55936 14.497 7.49879 15.999 9.00081C17.1989 10.2008 17.6775 11.76 17.4375 13.2479L18.6914 14.5008C19.0819 14.8913 19.0819 15.5253 18.6914 15.9158L15.915 18.6912L15.208 17.9842L17.9834 15.2078L16.3691 13.5936L16.4502 13.0887C16.6258 11.9996 16.3151 10.8418 15.4688 9.89436L15.292 9.70784C15.05 9.4658 14.5999 9.18524 13.9336 8.89729C13.2856 8.61729 12.509 8.36215 11.6836 8.1346C10.4281 7.7885 9.10609 7.51991 8.03711 7.32991L11.3545 10.6473C11.9119 10.3816 12.599 10.4787 13.0605 10.9403L13.1631 11.0535C13.6436 11.6427 13.6097 12.5122 13.0605 13.0614C12.5114 13.6105 11.6419 13.6444 11.0527 13.1639L10.9395 13.0614C10.4777 12.5996 10.3802 11.9119 10.6465 11.3543L7.32812 8.03596C7.51836 9.1053 7.78746 10.4281 8.13379 11.6844C8.3614 12.51 8.61641 13.2873 8.89648 13.9354C9.14832 14.518 9.39467 14.9349 9.61426 15.1922L9.70605 15.2928C10.7079 16.2945 11.9457 16.6711 13.1016 16.4744L13.6104 16.3875L15.915 18.6912C15.5245 19.0818 14.8915 19.0818 14.501 18.6912L13.2686 17.4598C11.7699 17.7146 10.2127 17.2143 8.99902 16.0008C7.49705 14.4988 6.55855 9.61246 6.18457 7.27229C6.08167 6.62836 6.62756 6.08248 7.27148 6.18538ZM12.3535 11.6473C12.1583 11.4521 11.8418 11.4521 11.6465 11.6473C11.4512 11.8426 11.4512 12.1591 11.6465 12.3543C11.8418 12.5493 12.1583 12.5495 12.3535 12.3543C12.5486 12.1591 12.5485 11.8426 12.3535 11.6473Z" fill="black" fill-opacity="0.9"/>
</g>
</svg>
