<svg width="24" height="24" viewBox="0 0 24 24" fill="none" xmlns="http://www.w3.org/2000/svg">
<g id="icon.24.convert.to.raster.small">
<path id="Icon" d="M11.5 5C11.2239 5 11 5.22386 11 5.5V17.5C11 17.7761 11.2239 18 11.5 18C11.7761 18 12 17.7761 12 17.5V5.5C12 5.22386 11.7761 5 11.5 5ZM10 5.82227C10 5.49257 9.69156 5.24895 9.37988 5.35645C6.83127 6.23544 5 8.6537 5 11.501C5.00034 14.3475 6.83104 16.7644 9.37891 17.6436C9.6908 17.7511 9.99984 17.5076 10 17.1777C10 16.9489 9.84706 16.7496 9.63184 16.6719C7.51444 15.9072 6.00034 13.882 6 11.501C6 9.11943 7.51404 7.09196 9.63184 6.32715C9.84685 6.24951 9.99997 6.05086 10 5.82227ZM13.5 6C13.2239 6 13 6.22386 13 6.5C13 6.77614 13.2239 7 13.5 7H15V8.5C15 8.77614 15.2239 9 15.5 9H17V14H15.5C15.2239 14 15 14.2239 15 14.5V16H13.5C13.2239 16 13 16.2239 13 16.5C13 16.7761 13.2239 17 13.5 17H15.5C15.7761 17 16 16.7761 16 16.5V15H17.5C17.7761 15 18 14.7761 18 14.5V8.5C18 8.22386 17.7761 8 17.5 8H16V6.5C16 6.22386 15.7761 6 15.5 6H13.5Z" fill="black" fill-opacity="0.9"/>
</g>
</svg>
