<svg width="24" height="24" viewBox="0 0 24 24" fill="none" xmlns="http://www.w3.org/2000/svg">
<g id="icon.24.open.session.small">
<path id="Icon" d="M12.5 5C13.3284 5 14 5.67157 14 6.5V7H15.5C16.3284 7 17 7.67157 17 8.5V16.5C17 17.2767 16.4097 17.9154 15.6533 17.9922L15.5 18H8.5L8.34668 17.9922C7.64069 17.9205 7.07949 17.3593 7.00781 16.6533L7 16.5V8.5C7 7.67157 7.67157 7 8.5 7H10V6.5C10 5.67157 10.6716 5 11.5 5H12.5ZM8.5 8C8.22386 8 8 8.22386 8 8.5V16.5C8 16.7761 8.22386 17 8.5 17H15.5C15.7761 17 16 16.7761 16 16.5V8.5C16 8.22386 15.7761 8 15.5 8H8.5ZM12 9C13.1046 9 14 9.89543 14 11C14 11.7156 13.6226 12.3409 13.0576 12.6943C14.1922 13.1222 15 14.2157 15 15.5C15 15.7761 14.7761 16 14.5 16C14.2239 16 14 15.7761 14 15.5C14 14.3954 13.1046 13.5 12 13.5C10.8954 13.5 10 14.3954 10 15.5C10 15.7761 9.77614 16 9.5 16C9.22386 16 9 15.7761 9 15.5C9 14.2161 9.80731 13.1225 10.9414 12.6943C10.3768 12.3408 10 11.7153 10 11C10 9.89543 10.8954 9 12 9ZM12 10C11.4477 10 11 10.4477 11 11C11 11.5523 11.4477 12 12 12C12.5523 12 13 11.5523 13 11C13 10.4477 12.5523 10 12 10ZM11.5 6C11.2239 6 11 6.22386 11 6.5V7H13V6.5C13 6.25829 12.8286 6.05629 12.6006 6.00977L12.5 6H11.5Z" fill="black" fill-opacity="0.9"/>
</g>
</svg>
