<svg width="24" height="24" viewBox="0 0 24 24" fill="none" xmlns="http://www.w3.org/2000/svg">
<g id="icon.24.reset.instance.small">
<path id="Icon" d="M11.543 5.4993C11.9335 5.10907 12.5676 5.10887 12.958 5.4993L19.001 11.5432C19.3911 11.9337 19.3911 12.5668 19.001 12.9573L18.1855 13.7727C17.9904 13.9679 17.6738 13.9677 17.4785 13.7727C17.2833 13.5775 17.2833 13.2609 17.4785 13.0657L18.2939 12.2503L12.25 6.20633L6.20703 12.2503L7.9082 13.9524C7.91071 13.9548 7.91452 13.9568 7.91699 13.9593L11.1406 17.1829C12.193 18.2348 13.9333 18.1116 14.8262 16.9212C14.9426 16.7659 15.0406 16.5962 15.1162 16.4173C15.8005 14.7973 14.6119 13.0006 12.8574 13.0003H11.208L12.6045 14.3968C12.7993 14.592 12.7996 14.9087 12.6045 15.1038C12.4094 15.2988 12.0927 15.2986 11.8975 15.1038L9.64746 12.8538C9.45228 12.6585 9.45228 12.342 9.64746 12.1468L11.8975 9.89676C12.0927 9.70155 12.4092 9.70157 12.6045 9.89676C12.7993 10.092 12.7996 10.4087 12.6045 10.6038L11.208 12.0003H12.8574C15.3317 12.0006 16.9985 14.5313 16.0371 16.8069C15.9299 17.0604 15.7912 17.3004 15.626 17.5208C14.368 19.198 11.9163 19.3721 10.4336 17.8899L8.71582 16.1721C8.71387 16.1703 8.71092 16.1692 8.70898 16.1673L5.5 12.9573C5.10948 12.5668 5.10948 11.9338 5.5 11.5432L11.543 5.4993Z" fill="black" fill-opacity="0.9"/>
</g>
</svg>
