<svg width="24" height="24" viewBox="0 0 24 24" fill="none" xmlns="http://www.w3.org/2000/svg">
<g id="icon.24.radius.bottom.left">
<path id="Icon" d="M8.5 8C8.77614 8 9 8.22386 9 8.5V11.5C9 12.2083 9.00022 12.7098 9.03223 13.1016C9.06377 13.4874 9.12345 13.7231 9.21777 13.9082C9.40951 14.2845 9.71554 14.5905 10.0918 14.7822C10.2769 14.8765 10.5126 14.9362 10.8984 14.9678C11.2902 14.9998 11.7917 15 12.5 15H15.5C15.7761 15 16 15.2239 16 15.5C16 15.7761 15.7761 16 15.5 16H12.5C11.8082 16 11.2593 16 10.8174 15.9639C10.3696 15.9273 9.98732 15.851 9.6377 15.6729C9.07347 15.3853 8.61472 14.9265 8.32715 14.3623C8.14901 14.0127 8.07272 13.6304 8.03613 13.1826C8.00003 12.7407 8 12.1918 8 11.5V8.5C8 8.22386 8.22386 8 8.5 8Z" fill="black" fill-opacity="0.9"/>
</g>
</svg>
