<svg width="24" height="24" viewBox="0 0 24 24" fill="none" xmlns="http://www.w3.org/2000/svg">
<g id="icon.24.stroke.cap-none">
<path id="Icon" d="M18.5 7C18.7761 7 19 7.22386 19 7.5V10.5869C19.5823 10.793 20 11.3471 20 12C20 12.6528 19.5822 13.206 19 13.4121V16.5C19 16.7761 18.7761 17 18.5 17H5C4.72386 17 4.5 16.7761 4.5 16.5C4.5 16.2239 4.72386 16 5 16H18V13.4121C17.5743 13.2614 17.2375 12.9257 17.0869 12.5H5C4.72386 12.5 4.5 12.2761 4.5 12C4.5 11.7239 4.72386 11.5 5 11.5H17.0869C17.2376 11.0742 17.5742 10.7376 18 10.5869V8H5C4.72386 8 4.5 7.77614 4.5 7.5C4.5 7.22386 4.72386 7 5 7H18.5Z" fill="black" fill-opacity="0.9"/>
</g>
</svg>
