<svg width="24" height="24" viewBox="0 0 24 24" fill="none" xmlns="http://www.w3.org/2000/svg">
<g id="icon.24.visual.search">
<path id="Icon" d="M4.5 14C4.77614 14 5 14.2239 5 14.5V17C5 18.1046 5.89543 19 7 19H9.5C9.77614 19 10 19.2239 10 19.5C10 19.7761 9.77614 20 9.5 20H7L6.8457 19.9961C5.26055 19.9158 4 18.6051 4 17V14.5C4 14.2239 4.22386 14 4.5 14ZM16.0146 13.4404C16.1409 12.9355 16.8591 12.9355 16.9854 13.4404L17.5 15.5L19.5596 16.0146C20.0645 16.1409 20.0645 16.8591 19.5596 16.9854L17.5 17.5L16.9854 19.5596C16.8591 20.0645 16.1409 20.0645 16.0146 19.5596L15.5 17.5L13.4404 16.9854C12.9355 16.8591 12.9355 16.1409 13.4404 16.0146L15.5 15.5L16.0146 13.4404ZM7.5 4C9.433 4 11 5.567 11 7.5C11 8.28616 10.7403 9.01142 10.3027 9.5957L11.8535 11.1465C12.0488 11.3417 12.0488 11.6583 11.8535 11.8535C11.6583 12.0488 11.3417 12.0488 11.1465 11.8535L9.5957 10.3027C9.01142 10.7403 8.28616 11 7.5 11C5.567 11 4 9.433 4 7.5C4 5.567 5.567 4 7.5 4ZM7.5 5C6.11929 5 5 6.11929 5 7.5C5 8.88071 6.11929 10 7.5 10C8.88071 10 10 8.88071 10 7.5C10 6.11929 8.88071 5 7.5 5ZM17 4C18.6569 4 20 5.34315 20 7V9.5C20 9.77614 19.7761 10 19.5 10C19.2239 10 19 9.77614 19 9.5V7C19 5.89543 18.1046 5 17 5H14.5C14.2239 5 14 4.77614 14 4.5C14 4.22386 14.2239 4 14.5 4H17Z" fill="black" fill-opacity="0.9"/>
</g>
</svg>
