<svg width="24" height="24" viewBox="0 0 24 24" fill="none" xmlns="http://www.w3.org/2000/svg">
<g id="icon.24.ai.small">
<path id="Icon" d="M16.1904 14.7421C16.2713 14.4189 16.7307 14.4189 16.8115 14.7421L17.1006 15.9003L18.2588 16.1903C18.5819 16.2711 18.5819 16.7296 18.2588 16.8104L17.1006 17.1005L16.8115 18.2587C16.7307 18.5817 16.2714 18.5816 16.1904 18.2587L15.9004 17.1005L14.7422 16.8104C14.4194 16.7295 14.4194 16.2713 14.7422 16.1903L15.9004 15.9003L16.1904 14.7421ZM10.4092 7.0614C10.9628 5.54482 13.1991 5.59518 13.6406 7.21277L14.3145 9.68542L16.7881 10.3602C18.4575 10.8161 18.4574 13.1836 16.7881 13.6395L14.3145 14.3134L13.6406 16.787C13.1849 18.4568 10.817 18.4568 10.3613 16.787L9.68652 14.3134L7.21387 13.6395C5.54402 13.1838 5.54403 10.8159 7.21387 10.3602L9.68652 9.68542L10.3613 7.21277L10.4092 7.0614ZM12.6768 7.47644C12.4892 6.78887 11.5129 6.78899 11.3252 7.47644L10.501 10.4999L7.47754 11.3241C6.78978 11.5117 6.78978 12.4881 7.47754 12.6757L10.501 13.4999L11.3252 16.5233C11.501 17.1681 12.3694 17.2085 12.6318 16.6444L12.6768 16.5233L13.501 13.4999L16.5244 12.6757C17.2117 12.4879 17.2118 11.5118 16.5244 11.3241L13.501 10.4999L12.6768 7.47644ZM7.19043 5.74109C7.2714 5.41818 7.73069 5.41807 7.81152 5.74109L8.10059 6.89929L9.25879 7.18933C9.58194 7.27015 9.58196 7.72963 9.25879 7.81042L8.10059 8.09949L7.81152 9.25769C7.73073 9.58087 7.27125 9.58084 7.19043 9.25769L6.90039 8.09949L5.74219 7.81042C5.41917 7.72959 5.41928 7.2703 5.74219 7.18933L6.90039 6.89929L7.19043 5.74109Z" fill="black" fill-opacity="0.9"/>
</g>
</svg>
