<svg width="24" height="24" viewBox="0 0 24 24" fill="none" xmlns="http://www.w3.org/2000/svg">
<g id="icon.24.release.notes.small">
<path id="Icon" d="M8.5 5C7.67157 5 7 5.67157 7 6.5V17.5L7.00781 17.6533C7.07949 18.3593 7.64069 18.9205 8.34668 18.9922L8.5 19H15.5L15.6533 18.9922C16.3593 18.9205 16.9205 18.3593 16.9922 17.6533L17 17.5V6.5C17 5.67157 16.3284 5 15.5 5H8.5ZM15.5 6C15.7761 6 16 6.22386 16 6.5V17.5C16 17.7761 15.7761 18 15.5 18H8.5C8.22386 18 8 17.7761 8 17.5V6.5C8 6.22386 8.22386 6 8.5 6H15.5ZM13.8535 13.1465C13.6583 12.9512 13.3417 12.9512 13.1465 13.1465L11.5 14.793L10.8535 14.1465C10.6583 13.9512 10.3417 13.9512 10.1465 14.1465C9.95122 14.3417 9.95122 14.6583 10.1465 14.8535L11.1465 15.8535C11.3417 16.0488 11.6583 16.0488 11.8535 15.8535L13.8535 13.8535C14.0488 13.6583 14.0488 13.3417 13.8535 13.1465ZM13.8535 8.14648C13.6583 7.95122 13.3417 7.95122 13.1465 8.14648L11.5 9.79297L10.8535 9.14648C10.6583 8.95122 10.3417 8.95122 10.1465 9.14648C9.95122 9.34175 9.95122 9.65825 10.1465 9.85352L11.1465 10.8535C11.3417 11.0488 11.6583 11.0488 11.8535 10.8535L13.8535 8.85352C14.0488 8.65825 14.0488 8.34175 13.8535 8.14648Z" fill="black" fill-opacity="0.9"/>
</g>
</svg>
