<svg width="24" height="24" viewBox="0 0 24 24" fill="none" xmlns="http://www.w3.org/2000/svg">
<g id="icon.24.send.backward.small">
<path id="Icon" d="M11.7754 13.918C11.5813 14.0461 11.3173 14.0244 11.1465 13.8535L9.14648 11.8535C8.95122 11.6583 8.95122 11.3417 9.14648 11.1465C9.34175 10.9512 9.65825 10.9512 9.85352 11.1465L11 12.293L11 9L7.5 9C6.67157 9 6 8.32843 6 7.5C6 6.67157 6.67157 6 7.5 6L15.5 6C16.3284 6 17 6.67157 17 7.5C17 8.32843 16.3284 9 15.5 9L12 9L12 12.293L13.1465 11.1465C13.3417 10.9512 13.6583 10.9512 13.8535 11.1465C14.0488 11.3417 14.0488 11.6583 13.8535 11.8535L11.8535 13.8535L11.7754 13.918ZM15.5 8C15.7761 8 16 7.77614 16 7.5C16 7.22386 15.7761 7 15.5 7L7.5 7C7.22386 7 7 7.22386 7 7.5C7 7.77614 7.22386 8 7.5 8L15.5 8ZM7.5 18C6.67157 18 6 17.3284 6 16.5C6 15.6716 6.67157 15 7.5 15L15.5 15C16.3284 15 17 15.6716 17 16.5C17 17.3284 16.3284 18 15.5 18L7.5 18ZM15.5 17C15.7761 17 16 16.7761 16 16.5C16 16.2239 15.7761 16 15.5 16L7.5 16C7.22386 16 7 16.2239 7 16.5C7 16.7761 7.22386 17 7.5 17L15.5 17Z" fill="black" fill-opacity="0.9"/>
</g>
</svg>
