<svg width="24" height="24" viewBox="0 0 24 24" fill="none" xmlns="http://www.w3.org/2000/svg">
<g id="icon.24.al.constrain-vert">
<path id="Icon" d="M14 6.00018C14.2761 6.00018 14.5 6.22404 14.5 6.50018C14.5 6.77633 14.2761 7.00018 14 7.00018H12V16.0002H14C14.2761 16.0002 14.5 16.224 14.5 16.5002C14.5 16.7763 14.2761 17.0002 14 17.0002H9C8.72386 17.0002 8.5 16.7763 8.5 16.5002C8.5 16.224 8.72386 16.0002 9 16.0002H11V7.00018H9C8.72386 7.00018 8.5 6.77633 8.5 6.50018C8.5 6.22404 8.72386 6.00018 9 6.00018H14Z" fill="black" fill-opacity="0.9"/>
</g>
</svg>
