<svg width="24" height="24" viewBox="0 0 24 24" fill="none" xmlns="http://www.w3.org/2000/svg">
<g id="icon.24.uppercase">
<path id="Icon" d="M8.41113 8.21875C8.76021 8.21875 9.07221 8.43752 9.19141 8.76562L11.5645 15.2988C11.6883 15.6398 11.436 16.001 11.0732 16.001C10.8512 16.0009 10.6534 15.86 10.5801 15.6504L9.95703 13.8691H6.86328L6.23926 15.6504C6.1658 15.8599 5.96716 16.001 5.74512 16.001C5.38257 16.0007 5.12994 15.6396 5.25391 15.2988L7.63086 8.76465C7.75018 8.43681 8.06225 8.21877 8.41113 8.21875ZM15.499 8C16.5354 8 17.4331 8.56642 17.9658 9.39844C18.1147 9.63095 18.0469 9.94092 17.8145 10.0898C17.5819 10.2386 17.272 10.1709 17.123 9.93848C16.7509 9.3572 16.1536 9 15.499 9C14.4383 9.00008 13.499 9.9615 13.499 11.25V12.75C13.499 14.0385 14.4383 14.9999 15.499 15C16.5598 15 17.499 14.0386 17.499 12.75V12.5H15.999C15.7229 12.4999 15.499 12.2761 15.499 12C15.499 11.7239 15.7229 11.5001 15.999 11.5H17.999C18.2752 11.5 18.499 11.7239 18.499 12V12.75C18.499 14.499 17.1997 16 15.499 16C13.7985 15.9999 12.499 14.499 12.499 12.75V11.25C12.499 9.50103 13.7985 8.00008 15.499 8ZM8.41113 9.54102C8.39315 9.54108 8.37721 9.55244 8.37109 9.56934L7.18359 12.957H9.6377L8.45215 9.56934C8.44607 9.55228 8.42926 9.54102 8.41113 9.54102Z" fill="black" fill-opacity="0.9"/>
</g>
</svg>
