<svg width="24" height="24" viewBox="0 0 24 24" fill="none" xmlns="http://www.w3.org/2000/svg">
<g id="icon.24.al.padding-sides">
<path id="Icon" d="M16 9.50006C16 9.22392 16.2239 9.00006 16.5 9.00006C16.7761 9.00007 17 9.22393 17 9.50006V14.5001C17 14.7762 16.7761 15 16.5 15.0001C16.2239 15.0001 16 14.7762 16 14.5001V9.50006ZM9 16.5001C9 16.2239 9.22386 16.0001 9.5 16.0001H14.5C14.7761 16.0001 15 16.2239 15 16.5001C15 16.7762 14.7761 17 14.5 17.0001H9.5C9.22387 17.0001 9.00002 16.7762 9 16.5001ZM9 7.50006C9 7.22392 9.22386 7.00006 9.5 7.00006H14.5C14.7761 7.00007 15 7.22393 15 7.50006C15 7.77618 14.7761 8.00005 14.5 8.00006H9.5C9.22387 8.00006 9.00002 7.77619 9 7.50006ZM7 9.50006C7 9.22392 7.22386 9.00006 7.5 9.00006C7.77613 9.00007 8 9.22393 8 9.50006V14.5001C7.99998 14.7762 7.77612 15 7.5 15.0001C7.22387 15.0001 7.00002 14.7762 7 14.5001L7 9.50006Z" fill="black" fill-opacity="0.9"/>
</g>
</svg>
