<svg width="24" height="24" viewBox="0 0 24 24" fill="none" xmlns="http://www.w3.org/2000/svg">
<g id="icon.24.drop.shadow.mid.small">
<path id="Icon" d="M14.6533 7.00781C15.4097 7.08461 16 7.72334 16 8.5V14.5L15.9922 14.6533C15.9205 15.3593 15.3593 15.9205 14.6533 15.9922L14.5 16H8.5C7.72334 16 7.08461 15.4097 7.00781 14.6533L7 14.5V8.5C7 7.67157 7.67157 7 8.5 7H14.5L14.6533 7.00781ZM8.5 8C8.22386 8 8 8.22386 8 8.5V14.5C8 14.7761 8.22386 15 8.5 15H14.5C14.7761 15 15 14.7761 15 14.5V8.5C15 8.22386 14.7761 8 14.5 8H8.5Z" fill="black" fill-opacity="0.9"/>
<path id="Subtract" d="M16.5 9C17.3284 9 18 9.67157 18 10.5V16.5C18 17.3284 17.3284 18 16.5 18H10.5C9.67157 18 9 17.3284 9 16.5V16H14.5C15.3284 16 16 15.3284 16 14.5V9H16.5Z" fill="black" fill-opacity="0.3"/>
</g>
</svg>
