<svg width="24" height="24" viewBox="0 0 24 24" fill="none" xmlns="http://www.w3.org/2000/svg">
<g id="icon.24.interaction.mouse.down.small">
<path id="Icon" d="M16.5586 13.6865C16.6323 13.712 16.7046 13.7384 16.7754 13.7656C17.397 14.0047 17.9345 14.302 18.3252 14.6572C18.7159 15.0126 18.9999 15.4656 19 16C18.9999 16.5343 18.7159 16.9875 18.3252 17.3428C17.9345 17.6979 17.397 17.9953 16.7754 18.2344C15.5286 18.7138 13.8401 19 12 19C10.1599 19 8.4714 18.7138 7.22461 18.2344C6.60303 17.9953 6.06547 17.6979 5.6748 17.3428C5.2841 16.9875 5.00014 16.5343 5 16C5.00006 15.4656 5.2841 15.0126 5.6748 14.6572C6.06546 14.302 6.60301 14.0047 7.22461 13.7656C7.29499 13.7386 7.36715 13.7129 7.44043 13.6875C7.71824 13.5914 8.00083 13.811 8.04492 14.1016C8.08033 14.3373 7.94819 14.5675 7.72363 14.6475C7.67602 14.6644 7.629 14.6815 7.58301 14.6992C7.02907 14.9123 6.61473 15.1538 6.34766 15.3965C6.08091 15.6391 6.00006 15.8442 6 16C6.00013 16.1558 6.08095 16.361 6.34766 16.6035C6.61475 16.8462 7.02911 17.0877 7.58301 17.3008C8.68872 17.726 10.2505 18 12 18C13.7495 18 15.3113 17.726 16.417 17.3008C16.9709 17.0877 17.3853 16.8462 17.6523 16.6035C17.9191 16.361 17.9999 16.1558 18 16C17.9999 15.8442 17.9191 15.6391 17.6523 15.3965C17.3853 15.1538 16.9709 14.9123 16.417 14.6992C16.3707 14.6814 16.3233 14.6645 16.2754 14.6475C16.0508 14.5677 15.9187 14.3373 15.9541 14.1016C15.9982 13.8109 16.2807 13.5906 16.5586 13.6865ZM12 10C12.2761 10 12.5 10.2239 12.5 10.5V14.293L14.1465 12.6465C14.3417 12.4512 14.6583 12.4512 14.8535 12.6465C15.0488 12.8417 15.0488 13.1583 14.8535 13.3535L12.3535 15.8535C12.1583 16.0488 11.8417 16.0488 11.6465 15.8535L9.14648 13.3535C8.95122 13.1583 8.95122 12.8417 9.14648 12.6465C9.34175 12.4512 9.65825 12.4512 9.85352 12.6465L11.5 14.293V10.5C11.5 10.2239 11.7239 10 12 10ZM17.8135 9.0498C18.0684 8.94435 18.361 9.06555 18.4668 9.32031C18.5724 9.57532 18.4512 9.86783 18.1963 9.97363L16.3193 10.751C16.0737 10.8524 15.7952 10.7113 15.6934 10.4658C15.5915 10.2201 15.6917 9.92892 15.9375 9.82715L17.8135 9.0498ZM5.53223 9.32031C5.63804 9.06574 5.93072 8.94454 6.18555 9.0498L8.06152 9.82617C8.30737 9.92801 8.40669 10.22 8.30469 10.4658C8.20272 10.7115 7.92447 10.8527 7.67871 10.751L5.80371 9.97461C5.54886 9.86891 5.42686 9.57528 5.53223 9.32031ZM9.32031 5.53223C9.57529 5.42661 9.86781 5.5479 9.97363 5.80273L10.751 7.67871C10.8526 7.92442 10.7114 8.20274 10.4658 8.30469C10.2203 8.40644 9.9291 8.30695 9.82715 8.06152L9.0498 6.18555C8.94443 5.9307 9.06571 5.63808 9.32031 5.53223ZM14.0244 5.80273C14.1301 5.5477 14.4236 5.42671 14.6787 5.53223C14.9335 5.63798 15.0547 5.93059 14.9492 6.18555L14.1719 8.06152C14.0699 8.3072 13.7778 8.40706 13.5322 8.30469C13.2867 8.20218 13.1462 7.92261 13.248 7.67676L14.0244 5.80273Z" fill="black" fill-opacity="0.9"/>
</g>
</svg>
