<svg width="24" height="24" viewBox="0 0 24 24" fill="none" xmlns="http://www.w3.org/2000/svg">
<g id="icon.24.fill.gradient.linear.small">
<path id="Icon" d="M16.2041 6.01074C17.2128 6.113 18 6.96435 18 8V16L17.9893 16.2041C17.8938 17.1457 17.1457 17.8938 16.2041 17.9893L16 18H8C6.96435 18 6.113 17.2128 6.01074 16.2041L6 16V8C6 6.89543 6.89543 6 8 6H16L16.2041 6.01074ZM8 7C7.48232 7 7.05621 7.39333 7.00488 7.89746L7 8V16C7 16.5523 7.44772 17 8 17H16C16.5523 17 17 16.5523 17 16V8C17 7.48232 16.6067 7.05621 16.1025 7.00488L16 7H8ZM8.875 14.2402C9.35825 14.2402 9.75 14.632 9.75 15.1152C9.74987 15.5984 9.35817 15.9902 8.875 15.9902C8.39183 15.9902 8.00013 15.5984 8 15.1152C8 14.632 8.39175 14.2402 8.875 14.2402ZM13.542 14.4902C13.8869 14.4905 14.167 14.7702 14.167 15.1152C14.1669 15.4601 13.8869 15.74 13.542 15.7402C13.1969 15.7402 12.9171 15.4603 12.917 15.1152C12.917 14.7701 13.1968 14.4902 13.542 14.4902ZM11.333 12.7451C11.7472 12.7451 12.083 13.0809 12.083 13.4951C12.0829 13.9093 11.7472 14.2451 11.333 14.2451C10.9189 14.245 10.5831 13.9092 10.583 13.4951C10.583 13.081 10.9189 12.7452 11.333 12.7451ZM15.5 12.9971C15.776 12.9971 15.9998 13.2211 16 13.4971C16 13.7732 15.7761 13.9971 15.5 13.9971C15.2239 13.9971 15 13.7732 15 13.4971C15.0002 13.2211 15.224 12.9971 15.5 12.9971ZM8.875 11C9.35825 11 9.75 11.3918 9.75 11.875C9.75 12.3582 9.35825 12.75 8.875 12.75C8.39175 12.75 8 12.3582 8 11.875C8 11.3918 8.39175 11 8.875 11ZM13.542 11.25C13.8869 11.2503 14.167 11.53 14.167 11.875C14.167 12.22 13.8869 12.4997 13.542 12.5C13.1968 12.5 12.917 12.2202 12.917 11.875C12.917 11.5298 13.1968 11.25 13.542 11.25ZM11.333 9.625C11.7472 9.625 12.083 9.96079 12.083 10.375C12.083 10.7892 11.7472 11.125 11.333 11.125C10.9189 11.1249 10.583 10.7891 10.583 10.375C10.583 9.96087 10.9189 9.62513 11.333 9.625ZM15.5 9.875C15.7761 9.875 16 10.0989 16 10.375C16 10.6511 15.7761 10.875 15.5 10.875C15.2239 10.875 15 10.6511 15 10.375C15 10.0989 15.2239 9.875 15.5 9.875ZM8.875 8C9.35825 8 9.75 8.39175 9.75 8.875C9.75 9.35825 9.35825 9.75 8.875 9.75C8.39175 9.75 8 9.35825 8 8.875C8 8.39175 8.39175 8 8.875 8ZM13.542 8.25C13.8869 8.25026 14.167 8.52998 14.167 8.875C14.167 9.22002 13.8869 9.49974 13.542 9.5C13.1968 9.5 12.917 9.22018 12.917 8.875C12.917 8.52982 13.1968 8.25 13.542 8.25Z" fill="black" fill-opacity="0.9"/>
</g>
</svg>
