<svg width="24" height="24" viewBox="0 0 24 24" fill="none" xmlns="http://www.w3.org/2000/svg">
<g id="icon.24.bulb.off">
<path id="Icon" d="M12 6C14.2091 6 16 7.79086 16 10C16 10.2712 15.973 10.5371 15.9209 10.7949L15.8604 11.0498C15.6828 11.7017 15.3924 12.3226 15.1533 12.8447C14.8998 13.3984 14.6958 13.8571 14.585 14.3086C14.5252 14.5517 14.403 14.7839 14.2324 14.9785C14.3996 15.1911 14.5 15.4586 14.5 15.75V16.75C14.5 17.6322 13.8469 18.3599 12.998 18.4805C12.9983 18.487 13 18.4934 13 18.5C13 18.7761 12.7761 19 12.5 19H11.5C11.2239 19 11 18.7761 11 18.5C11 18.4935 11.0007 18.487 11.001 18.4805C10.1526 18.3595 9.5 17.6319 9.5 16.75V15.75C9.5 15.4588 9.59967 15.191 9.7666 14.9785C9.59625 14.784 9.47472 14.5515 9.41504 14.3086C9.3042 13.8571 9.10019 13.3984 8.84668 12.8447C8.63753 12.3879 8.3888 11.8556 8.21094 11.293L8.13965 11.0498C8.04818 10.7138 8 10.3615 8 10C8 7.79086 9.79086 6 12 6ZM10.75 15.5C10.6119 15.5 10.5 15.6119 10.5 15.75V16.75C10.5 17.1642 10.8358 17.5 11.25 17.5H12.75C13.1642 17.5 13.5 17.1642 13.5 16.75V15.75C13.5 15.6119 13.3881 15.5 13.25 15.5H10.75ZM12 7C10.3431 7 9 8.34315 9 10C9 10.2725 9.03625 10.5364 9.10449 10.7871C9.40803 11.9016 10.112 12.955 10.3857 14.0703C10.4456 14.3135 10.6549 14.4998 10.9053 14.5H13.0947L13.1865 14.4912C13.3654 14.4576 13.5134 14.3285 13.585 14.1582L13.6143 14.0703C13.888 12.955 14.592 11.9016 14.8955 10.7871C14.9638 10.5364 15 10.2725 15 10C15 8.34315 13.6569 7 12 7ZM12 8C12.2761 8 12.5 8.22386 12.5 8.5C12.5 8.77614 12.2761 9 12 9C11.4477 9 11 9.44772 11 10C11 10.2761 10.7761 10.5 10.5 10.5C10.2239 10.5 10 10.2761 10 10C10 8.89543 10.8954 8 12 8Z" fill="black" fill-opacity="0.9"/>
</g>
</svg>
