<svg width="24" height="24" viewBox="0 0 24 24" fill="none" xmlns="http://www.w3.org/2000/svg">
<g id="icon.24.link-broken">
<path id="Icon" fill-rule="evenodd" clip-rule="evenodd" d="M14.0001 8V9.5C14.0001 9.77614 14.224 10 14.5001 10C14.7762 10 15.0001 9.77614 15.0001 9.5V8C15.0001 6.34315 13.657 5 12.0001 5C10.3432 5 9.0001 6.34315 9.0001 8V9.5C9.0001 9.77614 9.22396 10 9.5001 10C9.77624 10 10.0001 9.77614 10.0001 9.5V8C10.0001 6.89543 10.8955 6 12.0001 6C13.1047 6 14.0001 6.89543 14.0001 8ZM14.0001 16V14.5C14.0001 14.2239 14.224 14 14.5001 14C14.7762 14 15.0001 14.2239 15.0001 14.5V16C15.0001 17.6569 13.6569 19 12.0001 19C10.3432 19 9.00009 17.6569 9.00009 16V14.5C9.00009 14.2239 9.22395 14 9.50009 14C9.77624 14 10.0001 14.2239 10.0001 14.5V16C10.0001 17.1046 10.8955 18 12.0001 18C13.1047 18 14.0001 17.1046 14.0001 16Z" fill="black" fill-opacity="0.9"/>
</g>
</svg>
