<svg width="24" height="24" viewBox="0 0 24 24" fill="none" xmlns="http://www.w3.org/2000/svg">
<g id="icon.24.ai.summarize">
<path id="Icon" d="M6.01562 15.4404C6.14187 14.9355 6.86008 14.9355 6.98633 15.4404L7.30078 16.7002L8.56055 17.0146C9.06552 17.1409 9.06552 17.8591 8.56055 17.9854L7.30078 18.2998L6.98633 19.5596C6.86008 20.0645 6.14187 20.0645 6.01562 19.5596L5.70117 18.2998L4.44141 17.9854C3.93643 17.8591 3.93643 17.1409 4.44141 17.0146L5.70117 16.7002L6.01562 15.4404ZM19.501 17C19.7771 17 20.001 17.2239 20.001 17.5C20.001 17.7761 19.7771 18 19.501 18H10.501C10.2248 18 10.001 17.7761 10.001 17.5C10.001 17.2239 10.2248 17 10.501 17H19.501ZM6.01562 9.44043C6.14187 8.93545 6.86008 8.93545 6.98633 9.44043L7.30078 10.7002L8.56055 11.0146C9.06552 11.1409 9.06552 11.8591 8.56055 11.9854L7.30078 12.2998L6.98633 13.5596C6.86008 14.0645 6.14187 14.0645 6.01562 13.5596L5.70117 12.2998L4.44141 11.9854C3.93643 11.8591 3.93643 11.1409 4.44141 11.0146L5.70117 10.7002L6.01562 9.44043ZM19.501 11C19.7771 11 20.001 11.2239 20.001 11.5C20.001 11.7761 19.7771 12 19.501 12H10.501C10.2248 12 10.001 11.7761 10.001 11.5C10.001 11.2239 10.2248 11 10.501 11H19.501ZM6.01562 3.44043C6.14187 2.93545 6.86008 2.93545 6.98633 3.44043L7.30078 4.7002L8.56055 5.01465C9.06552 5.14089 9.06552 5.85911 8.56055 5.98535L7.30078 6.2998L6.98633 7.55957C6.86008 8.06455 6.14187 8.06455 6.01562 7.55957L5.70117 6.2998L4.44141 5.98535C3.93643 5.85911 3.93643 5.14089 4.44141 5.01465L5.70117 4.7002L6.01562 3.44043ZM19.501 5C19.7771 5 20.001 5.22386 20.001 5.5C20.001 5.77614 19.7771 6 19.501 6H10.501C10.2248 6 10.001 5.77614 10.001 5.5C10.001 5.22386 10.2248 5 10.501 5H19.501Z" fill="black" fill-opacity="0.9"/>
</g>
</svg>
