<svg width="24" height="24" viewBox="0 0 24 24" fill="none" xmlns="http://www.w3.org/2000/svg">
<g id="icon.24.variable.color">
<path id="Icon" d="M5.63574 5.63644C9.15046 2.12173 14.8486 2.12173 18.3633 5.63644C19.7757 7.04892 20.6204 8.81689 20.8965 10.6521C21.2023 12.6874 19.3977 13.9995 17.7285 13.9997H15.499C14.6706 13.9997 13.999 14.6713 13.999 15.4997V17.7292C13.9988 19.3984 12.6867 21.203 10.6514 20.8972C8.81618 20.6211 7.04822 19.7764 5.63574 18.364C2.12102 14.8493 2.12102 9.15116 5.63574 5.63644ZM17.6562 6.34348C14.5321 3.21928 9.46697 3.21928 6.34277 6.34348C3.21858 9.46767 3.21858 14.5328 6.34277 17.657C7.59884 18.9129 9.16867 19.6626 10.7998 19.9079C11.9682 20.0835 12.8788 19.1228 12.9883 17.9636L12.999 17.7292V15.4997C12.999 14.2054 13.9826 13.1405 15.2432 13.0124L15.499 12.9997H17.7285L17.9629 12.989C19.045 12.8868 19.9544 12.0864 19.9277 11.03L19.9072 10.8005C19.6619 9.16938 18.9122 7.59954 17.6562 6.34348ZM7.5 14.1345C7.97811 13.8586 8.589 14.0219 8.86523 14.4997C9.14129 14.9779 8.97793 15.5897 8.5 15.8659C8.02171 16.1421 7.40993 15.978 7.13379 15.4997C6.85781 15.0215 7.02178 14.4106 7.5 14.1345ZM7.13379 9.49973C7.41006 9.02179 8.02186 8.85844 8.5 9.13449C8.97784 9.41074 9.14112 10.0216 8.86523 10.4997C8.58914 10.9779 7.97826 11.1419 7.5 10.8659C7.02171 10.5898 6.85765 9.97802 7.13379 9.49973ZM15.5 9.13449C15.9781 8.8586 16.589 9.02186 16.8652 9.49973C17.1413 9.97786 16.9779 10.5897 16.5 10.8659C16.0217 11.1421 15.4099 10.978 15.1338 10.4997C14.8578 10.0215 15.0218 9.41059 15.5 9.13449ZM11.999 5.99973C12.5512 5.99973 12.9989 6.44757 12.999 6.99973C12.999 7.55201 12.5513 7.99973 11.999 7.99973C11.4469 7.99954 10.999 7.5519 10.999 6.99973C10.9992 6.44768 11.447 5.99991 11.999 5.99973Z" fill="black" fill-opacity="0.9"/>
</g>
</svg>
