<svg width="24" height="24" viewBox="0 0 24 24" fill="none" xmlns="http://www.w3.org/2000/svg">
<g id="icon.24.al.width-hug">
<path id="Icon" d="M7.14648 8.14648C7.34175 7.95122 7.65825 7.95122 7.85352 8.14648L10.8535 11.1465C10.9473 11.2403 11 11.3674 11 11.5C11 11.6326 10.9473 11.7598 10.8535 11.8535L7.85352 14.8535C7.65826 15.0488 7.34174 15.0488 7.14648 14.8535C6.95123 14.6583 6.95124 14.3417 7.14648 14.1465L9.79297 11.5L7.14648 8.85352C6.95122 8.65825 6.95122 8.34175 7.14648 8.14648ZM16.1465 8.14648C16.3417 7.95122 16.6583 7.95122 16.8535 8.14648C17.0488 8.34175 17.0488 8.65825 16.8535 8.85352L14.207 11.5L16.8535 14.1465C17.0488 14.3417 17.0488 14.6583 16.8535 14.8535C16.6583 15.0488 16.3417 15.0488 16.1465 14.8535L13.1465 11.8535C13.0527 11.7598 13 11.6326 13 11.5C13 11.3674 13.0527 11.2403 13.1465 11.1465L16.1465 8.14648Z" fill="black" fill-opacity="0.9"/>
</g>
</svg>
