<svg width="24" height="24" viewBox="0 0 24 24" fill="none" xmlns="http://www.w3.org/2000/svg">
<g id="icon.24.stroke-weight">
<path id="Icon" d="M17.25 14C17.6642 14 18 14.3358 18 14.75V17.25C18 17.6642 17.6642 18 17.25 18H6.75C6.33579 18 6 17.6642 6 17.25V14.75C6 14.3358 6.33579 14 6.75 14H17.25ZM7 17H17V15H7V17ZM17.25 9C17.6642 9 18 9.33579 18 9.75V11.25C18 11.6642 17.6642 12 17.25 12H6.75C6.33579 12 6 11.6642 6 11.25V9.75C6 9.33579 6.33579 9 6.75 9H17.25ZM7 11H17V10H7V11ZM17.5 6C17.7761 6 18 6.22386 18 6.5C18 6.77614 17.7761 7 17.5 7H6.5C6.22386 7 6 6.77614 6 6.5C6 6.22386 6.22386 6 6.5 6H17.5Z" fill="black" fill-opacity="0.9"/>
</g>
</svg>
