<svg width="24" height="24" viewBox="0 0 24 24" fill="none" xmlns="http://www.w3.org/2000/svg">
<g id="icon.24.al.width-min">
<path id="Icon" d="M10.918 11.2246C11.0461 11.4187 11.0244 11.6827 10.8535 11.8535L8.85352 13.8535C8.65825 14.0488 8.34175 14.0488 8.14648 13.8535C7.95122 13.6583 7.95122 13.3417 8.14648 13.1465L9.29297 12L5.5 12C5.22386 12 5 11.7761 5 11.5C5 11.2239 5.22386 11 5.5 11L9.29297 11L8.14648 9.85352C7.95122 9.65825 7.95122 9.34175 8.14648 9.14648C8.34175 8.95122 8.65825 8.95122 8.85352 9.14648L10.8535 11.1465L10.918 11.2246ZM13 17.5C13 17.7761 12.7761 18 12.5 18C12.2239 18 12 17.7761 12 17.5L12 5.5C12 5.22386 12.2239 5 12.5 5C12.7761 5 13 5.22386 13 5.5L13 17.5ZM20 11.5C20 11.7761 19.7761 12 19.5 12L15.707 12L16.8535 13.1465C17.0488 13.3417 17.0488 13.6583 16.8535 13.8535C16.6583 14.0488 16.3417 14.0488 16.1465 13.8535L14.1465 11.8535C13.9756 11.6827 13.9539 11.4187 14.082 11.2246L14.1465 11.1465L16.1465 9.14648C16.3417 8.95122 16.6583 8.95122 16.8535 9.14648C17.0488 9.34175 17.0488 9.65825 16.8535 9.85352L15.707 11L19.5 11C19.7761 11 20 11.2239 20 11.5Z" fill="black" fill-opacity="0.9"/>
</g>
</svg>
