<svg width="24" height="24" viewBox="0 0 24 24" fill="none" xmlns="http://www.w3.org/2000/svg">
<g id="icon.24.link-connected">
<path id="Icon" d="M14.5 14C14.7761 14 15 14.2239 15 14.5V16C15 17.6569 13.6569 19 12 19C10.3431 19 9 17.6569 9 16V14.5C9 14.2239 9.22386 14 9.5 14C9.77614 14 10 14.2239 10 14.5V16C10 17.1046 10.8954 18 12 18C13.1046 18 14 17.1046 14 16V14.5C14 14.2239 14.2239 14 14.5 14ZM12 9.5C12.2761 9.5 12.5 9.72386 12.5 10V14C12.5 14.2761 12.2761 14.5 12 14.5C11.7239 14.5 11.5 14.2761 11.5 14V10C11.5 9.72386 11.7239 9.5 12 9.5ZM12 5C13.6569 5 15 6.34315 15 8V9.5C15 9.77614 14.7761 10 14.5 10C14.2239 10 14 9.77614 14 9.5V8C14 6.89543 13.1046 6 12 6C10.8954 6 10 6.89543 10 8V9.5C10 9.77614 9.77614 10 9.5 10C9.22386 10 9 9.77614 9 9.5V8C9 6.34315 10.3431 5 12 5Z" fill="black" fill-opacity="0.9"/>
</g>
</svg>
