<svg width="24" height="24" viewBox="0 0 24 24" fill="none" xmlns="http://www.w3.org/2000/svg">
<g id="icon.24.tablet.small">
<path id="Icon" d="M15.5 6C16.3284 6 17 6.67157 17 7.5V16.5C17 17.2767 16.4097 17.9154 15.6533 17.9922L15.5 18H8.5L8.34668 17.9922C7.59028 17.9154 7 17.2767 7 16.5V7.5C7 6.67157 7.67157 6 8.5 6H15.5ZM8.5 7C8.22386 7 8 7.22386 8 7.5V16.5C8 16.7761 8.22386 17 8.5 17H15.5C15.7761 17 16 16.7761 16 16.5V7.5C16 7.22386 15.7761 7 15.5 7H8.5ZM12 15C12.2761 15 12.5 15.2239 12.5 15.5C12.5 15.7761 12.2761 16 12 16C11.7239 16 11.5 15.7761 11.5 15.5C11.5 15.2239 11.7239 15 12 15Z" fill="black" fill-opacity="0.9"/>
</g>
</svg>
