<svg width="24" height="24" viewBox="0 0 24 24" fill="none" xmlns="http://www.w3.org/2000/svg">
<g id="icon.24.shorten.small">
<path id="Icon" d="M9.68066 15.3801C9.76399 15.0469 10.2369 15.0469 10.3203 15.3801L10.6006 16.4993L11.7197 16.7795C12.0524 16.8631 12.0525 17.3357 11.7197 17.4192L10.6006 17.6995L10.3203 18.8186C10.2369 19.1516 9.76421 19.1515 9.68066 18.8186L9.40039 17.6995L8.28125 17.4192C7.94804 17.3358 7.948 16.8629 8.28125 16.7795L9.40039 16.4993L9.68066 15.3801ZM14.7773 6.30396C15.8523 5.76661 17.1595 6.2018 17.6973 7.27661C18.2351 8.35185 17.799 9.65985 16.7236 10.1975L13.1182 12.0002L16.7236 13.803C17.799 14.3407 18.235 15.6485 17.6973 16.7239C17.1595 17.7993 15.8518 18.2352 14.7764 17.6975L14.5332 17.5754C13.5903 17.104 13.055 16.0819 13.2041 15.0383L13.4531 13.2854L5.77637 9.44751C5.52946 9.32398 5.42926 9.02356 5.55273 8.77661C5.67621 8.52966 5.97666 8.42957 6.22363 8.55298L12 11.4407L13.4531 10.7151L13.2041 8.96313C13.055 7.91949 13.5903 6.89754 14.5332 6.42603L14.7773 6.30396ZM14.1934 15.1799C14.1051 15.7974 14.4226 16.4019 14.9805 16.6809L15.2236 16.803C15.8051 17.0937 16.512 16.858 16.8027 16.2766C17.0934 15.6952 16.8578 14.9882 16.2764 14.6975L14.3965 13.7571L14.1934 15.1799ZM9.77637 12.553C10.0233 12.4295 10.3238 12.5297 10.4473 12.7766C10.5708 13.0236 10.4706 13.324 10.2236 13.4475L6.22363 15.4475C5.97666 15.571 5.67622 15.4708 5.55273 15.2239C5.42931 14.9769 5.52946 14.6765 5.77637 14.553L9.77637 12.553ZM16.8027 7.72388C16.512 7.14305 15.8056 6.90813 15.2246 7.19849L14.9805 7.32056C14.4226 7.59957 14.1051 8.20401 14.1934 8.82153L14.3965 10.2434L16.2764 9.30298C16.8577 9.01233 17.0935 8.30512 16.8027 7.72388Z" fill="black" fill-opacity="0.9"/>
</g>
</svg>
