<svg width="24" height="24" viewBox="0 0 24 24" fill="none" xmlns="http://www.w3.org/2000/svg">
<g id="icon.24.component.set">
<path id="Icon" d="M4.5 17C4.77614 17 5 17.2239 5 17.5V18C5 18.5523 5.44772 19 6 19H6.5C6.77614 19 7 19.2239 7 19.5C7 19.7761 6.77614 20 6.5 20H6C4.89543 20 4 19.1046 4 18V17.5C4 17.2239 4.22386 17 4.5 17ZM10.75 19C11.0261 19 11.25 19.2239 11.25 19.5C11.25 19.7761 11.0261 20 10.75 20H9C8.72386 20 8.5 19.7761 8.5 19.5C8.5 19.2239 8.72386 19 9 19H10.75ZM15 19C15.2761 19 15.5 19.2239 15.5 19.5C15.5 19.7761 15.2761 20 15 20H13.25C12.9739 20 12.75 19.7761 12.75 19.5C12.75 19.2239 12.9739 19 13.25 19H15ZM19.5 17C19.7761 17 20 17.2239 20 17.5V18C20 19.1046 19.1046 20 18 20H17.5C17.2239 20 17 19.7761 17 19.5C17 19.2239 17.2239 19 17.5 19H18C18.5523 19 19 18.5523 19 18V17.5C19 17.2239 19.2239 17 19.5 17ZM11.6465 13.0605C11.8417 12.8654 12.1583 12.8654 12.3535 13.0605L13.793 14.5C13.9882 14.6953 13.9882 15.0118 13.793 15.207L12.3535 16.6465L12.2754 16.7109C12.109 16.8208 11.891 16.8208 11.7246 16.7109L11.6465 16.6465L10.207 15.207C10.0119 15.0118 10.0118 14.6952 10.207 14.5L11.6465 13.0605ZM11.2676 14.8535L12 15.5859L12.7324 14.8535L12 14.1211L11.2676 14.8535ZM4.5 12.75C4.77614 12.75 5 12.9739 5 13.25V15C5 15.2761 4.77614 15.5 4.5 15.5C4.22386 15.5 4 15.2761 4 15V13.25C4 12.9739 4.22386 12.75 4.5 12.75ZM19.5 12.75C19.7761 12.75 20 12.9739 20 13.25V15C20 15.2761 19.7761 15.5 19.5 15.5C19.2239 15.5 19 15.2761 19 15V13.25C19 12.9739 19.2239 12.75 19.5 12.75ZM8.79297 10.207C8.9882 10.0118 9.30474 10.0119 9.5 10.207L10.9395 11.6465C11.1347 11.8417 11.1347 12.1583 10.9395 12.3535L9.5 13.793L9.42188 13.8574C9.25553 13.9672 9.03744 13.9673 8.87109 13.8574L8.79297 13.793L7.35352 12.3535C7.15838 12.1583 7.15833 11.8417 7.35352 11.6465L8.79297 10.207ZM14.5 10.207C14.6952 10.0118 15.0118 10.0119 15.207 10.207L16.6465 11.6465C16.8417 11.8417 16.8417 12.1583 16.6465 12.3535L15.207 13.793L15.1289 13.8574C14.9626 13.9672 14.7445 13.9673 14.5781 13.8574L14.5 13.793L13.0605 12.3535C12.8654 12.1583 12.8654 11.8417 13.0605 11.6465L14.5 10.207ZM8.41406 12L9.14648 12.7324L9.87891 12L9.14648 11.2676L8.41406 12ZM14.1211 12L14.8535 12.7324L15.5859 12L14.8535 11.2676L14.1211 12ZM4.5 8.5C4.77614 8.5 5 8.72386 5 9V10.75C5 11.0261 4.77614 11.25 4.5 11.25C4.22386 11.25 4 11.0261 4 10.75V9C4 8.72386 4.22386 8.5 4.5 8.5ZM19.5 8.5C19.7761 8.5 20 8.72386 20 9V10.75C20 11.0261 19.7761 11.25 19.5 11.25C19.2239 11.25 19 11.0261 19 10.75V9C19 8.72386 19.2239 8.5 19.5 8.5ZM11.6465 7.35352C11.8417 7.15833 12.1583 7.15838 12.3535 7.35352L13.793 8.79297C13.9882 8.98822 13.9882 9.30475 13.793 9.5L12.3535 10.9395L12.2754 11.0039C12.109 11.1137 11.891 11.1137 11.7246 11.0039L11.6465 10.9395L10.207 9.5C10.0119 9.30474 10.0118 8.9882 10.207 8.79297L11.6465 7.35352ZM11.2676 9.14648L12 9.87891L12.7324 9.14648L12 8.41406L11.2676 9.14648ZM6.5 4C6.77614 4 7 4.22386 7 4.5C7 4.77614 6.77614 5 6.5 5H6C5.44772 5 5 5.44772 5 6V6.5C5 6.77614 4.77614 7 4.5 7C4.22386 7 4 6.77614 4 6.5V6C4 4.89543 4.89543 4 6 4H6.5ZM18 4C19.1046 4 20 4.89543 20 6V6.5C20 6.77614 19.7761 7 19.5 7C19.2239 7 19 6.77614 19 6.5V6C19 5.44772 18.5523 5 18 5H17.5C17.2239 5 17 4.77614 17 4.5C17 4.22386 17.2239 4 17.5 4H18ZM10.75 4C11.0261 4 11.25 4.22386 11.25 4.5C11.25 4.77614 11.0261 5 10.75 5H9C8.72386 5 8.5 4.77614 8.5 4.5C8.5 4.22386 8.72386 4 9 4H10.75ZM15 4C15.2761 4 15.5 4.22386 15.5 4.5C15.5 4.77614 15.2761 5 15 5H13.25C12.9739 5 12.75 4.77614 12.75 4.5C12.75 4.22386 12.9739 4 13.25 4H15Z" fill="black" fill-opacity="0.9"/>
</g>
</svg>
