<svg width="24" height="24" viewBox="0 0 24 24" fill="none" xmlns="http://www.w3.org/2000/svg">
<g id="icon.24.mic.mute">
<path id="Icon" d="M17.5 10.5C17.7761 10.5 18 10.7239 18 11V11.167C17.9998 14.2766 15.5664 16.8165 12.5 16.9893V20H15.5C15.7761 20 16 20.2239 16 20.5C16 20.7761 15.7761 21 15.5 21H8.5C8.22386 21 8 20.7761 8 20.5C8 20.2239 8.22386 20 8.5 20H11.5V16.9893C10.8207 16.951 10.1728 16.796 9.5752 16.5449L10.3525 15.7676C10.8192 15.9177 11.3164 16 11.833 16H12.167C14.8361 15.9998 16.9998 13.8361 17 11.167V11C17 10.7239 17.2239 10.5 17.5 10.5ZM19.1465 4.14648C19.3417 3.95122 19.6583 3.95122 19.8535 4.14648C20.0488 4.34175 20.0488 4.65825 19.8535 4.85352L4.85352 19.8535C4.65825 20.0488 4.34175 20.0488 4.14648 19.8535C3.95122 19.6583 3.95122 19.3417 4.14648 19.1465L19.1465 4.14648ZM6.5 10.5C6.77614 10.5 7 10.7239 7 11V11.167C7.00007 12.2151 7.33449 13.1847 7.90137 13.9766L7.18652 14.6914C6.44246 13.7124 6.00007 12.4917 6 11.167V11C6 10.7239 6.22386 10.5 6.5 10.5ZM12 3C13.6569 3 15 4.34315 15 6V6.87891L14 7.87891V6C14 4.89543 13.1046 4 12 4C10.8954 4 10 4.89543 10 6V11C10 11.2602 10.0512 11.5083 10.1416 11.7363L9.39355 12.4844C9.16761 12.0885 9.02835 11.6367 9.00391 11.1543L9 11V6C9 4.34315 10.3431 3 12 3Z" fill="black" fill-opacity="0.9"/>
</g>
</svg>
