<svg width="24" height="24" viewBox="0 0 24 24" fill="none" xmlns="http://www.w3.org/2000/svg">
<g id="icon.24.ungroup.small">
<path id="Icon" d="M17.1465 6.14648C17.3417 5.95122 17.6583 5.95122 17.8535 6.14648C18.0488 6.34175 18.0488 6.65825 17.8535 6.85352L6.85352 17.8535C6.65825 18.0488 6.34175 18.0488 6.14648 17.8535C5.95122 17.6583 5.95122 17.3417 6.14648 17.1465L17.1465 6.14648ZM11 17C11.2761 17 11.5 17.2239 11.5 17.5C11.5 17.7761 11.2761 18 11 18H9.5C9.22386 18 9 17.7761 9 17.5C9 17.2239 9.22386 17 9.5 17H11ZM14.5 17C14.7761 17 15 17.2239 15 17.5C15 17.7761 14.7761 18 14.5 18H13C12.7239 18 12.5 17.7761 12.5 17.5C12.5 17.2239 12.7239 17 13 17H14.5ZM17.5 16C17.7761 16 18 16.2239 18 16.5C18 17.3284 17.3284 18 16.5 18C16.2239 18 16 17.7761 16 17.5C16 17.2583 16.1714 17.0563 16.3994 17.0098L16.6006 16.9902C16.7961 16.9503 16.9503 16.7961 16.9902 16.6006L17.0098 16.3994C17.0563 16.1714 17.2583 16 17.5 16ZM6.5 12.5C6.77614 12.5 7 12.7239 7 13V14.5C7 14.7761 6.77614 15 6.5 15C6.22386 15 6 14.7761 6 14.5V13C6 12.7239 6.22386 12.5 6.5 12.5ZM17.5 12.5C17.7761 12.5 18 12.7239 18 13V14.5C18 14.7761 17.7761 15 17.5 15C17.2239 15 17 14.7761 17 14.5V13C17 12.7239 17.2239 12.5 17.5 12.5ZM6.5 9C6.77614 9 7 9.22386 7 9.5V11C7 11.2761 6.77614 11.5 6.5 11.5C6.22386 11.5 6 11.2761 6 11V9.5C6 9.22386 6.22386 9 6.5 9ZM17.5 9C17.7761 9 18 9.22386 18 9.5V11C18 11.2761 17.7761 11.5 17.5 11.5C17.2239 11.5 17 11.2761 17 11V9.5C17 9.22386 17.2239 9 17.5 9ZM7.5 6C7.77614 6 8 6.22386 8 6.5C8 6.74171 7.82855 6.94371 7.60059 6.99023L7.39941 7.00977C7.20392 7.04966 7.04966 7.20392 7.00977 7.39941L6.99023 7.60059C6.94371 7.82855 6.74171 8 6.5 8C6.22386 8 6 7.77614 6 7.5C6 6.67157 6.67157 6 7.5 6ZM11 6C11.2761 6 11.5 6.22386 11.5 6.5C11.5 6.77614 11.2761 7 11 7H9.5C9.22386 7 9 6.77614 9 6.5C9 6.22386 9.22386 6 9.5 6H11ZM14.5 6C14.7761 6 15 6.22386 15 6.5C15 6.77614 14.7761 7 14.5 7H13C12.7239 7 12.5 6.77614 12.5 6.5C12.5 6.22386 12.7239 6 13 6H14.5Z" fill="black" fill-opacity="0.9"/>
</g>
</svg>
