<svg width="24" height="24" viewBox="0 0 24 24" fill="none" xmlns="http://www.w3.org/2000/svg">
<g id="icon.24.lock.small">
<g id="Icon">
<mask id="path-1-inside-1_1027518_8335" fill="white">
<path d="M12 6C13.6569 6 15 7.34315 15 9V11H15.5C16.3284 11 17 11.6716 17 12.5V16.5C17 17.3284 16.3284 18 15.5 18H8.5C7.67157 18 7 17.3284 7 16.5V12.5C7 11.6716 7.67157 11 8.5 11H9V9C9 7.34315 10.3431 6 12 6ZM12 7C10.8954 7 10 7.89543 10 9V11H14V9C14 7.89543 13.1046 7 12 7Z"/>
</mask>
<path d="M15 11H14V12H15V11ZM17 12.5L18 12.5L17 12.5ZM17 16.5L18 16.5V16.5H17ZM15.5 18L15.5 19H15.5L15.5 18ZM7 16.5L6 16.5L7 16.5ZM7 12.5L6 12.5V12.5H7ZM8.5 11L8.5 10H8.5L8.5 11ZM9 11V12H10V11H9ZM10 11H9V12H10V11ZM14 11V12H15V11H14ZM12 6V7C13.1046 7 14 7.89543 14 9H15H16C16 6.79086 14.2091 5 12 5V6ZM15 9H14V11H15H16V9H15ZM15 11V12H15.5V11V10H15V11ZM15.5 11V12C15.7761 12 16 12.2239 16 12.5L17 12.5L18 12.5C18 11.1193 16.8807 10 15.5 10V11ZM17 12.5H16V16.5H17H18V12.5H17ZM17 16.5L16 16.5C16 16.7761 15.7761 17 15.5 17L15.5 18L15.5 19C16.8807 19 18 17.8807 18 16.5L17 16.5ZM15.5 18V17H8.5V18V19H15.5V18ZM8.5 18V17C8.22386 17 8 16.7761 8 16.5L7 16.5L6 16.5C6 17.8807 7.11929 19 8.5 19V18ZM7 16.5H8V12.5H7H6V16.5H7ZM7 12.5L8 12.5C8 12.2239 8.22386 12 8.5 12L8.5 11L8.5 10C7.11929 10 6 11.1193 6 12.5L7 12.5ZM8.5 11V12H9V11V10H8.5V11ZM9 11H10V9H9H8V11H9ZM9 9H10C10 7.89543 10.8954 7 12 7V6V5C9.79086 5 8 6.79086 8 9H9ZM12 7V6C10.3431 6 9 7.34315 9 9H10H11C11 8.44772 11.4477 8 12 8V7ZM10 9H9V11H10H11V9H10ZM10 11V12H14V11V10H10V11ZM14 11H15V9H14H13V11H14ZM14 9H15C15 7.34315 13.6569 6 12 6V7V8C12.5523 8 13 8.44772 13 9H14Z" fill="black" fill-opacity="0.9" mask="url(#path-1-inside-1_1027518_8335)"/>
</g>
</g>
</svg>
