<svg width="24" height="24" viewBox="0 0 24 24" fill="none" xmlns="http://www.w3.org/2000/svg">
<g id="icon.24.layout-align-horizontal-center">
<path id="Icon" d="M15.25 13C15.6642 13 16 13.3358 16 13.75V14.25C16 14.6642 15.6642 15 15.25 15H9.75C9.33579 15 9 14.6642 9 14.25V13.75C9 13.3358 9.33579 13 9.75 13H15.25ZM17.25 8C17.6642 8 18 8.33579 18 8.75V9.25C18 9.66421 17.6642 10 17.25 10H7.75C7.33579 10 7 9.66421 7 9.25V8.75C7 8.33579 7.33579 8 7.75 8H17.25Z" fill="black" fill-opacity="0.9"/>
<path id="Secondary" d="M13 17.5C13 17.7761 12.7761 18 12.5 18C12.2239 18 12 17.7761 12 17.5V15H13V17.5ZM13 13H12V10H13V13ZM12.5 5C12.7761 5 13 5.22386 13 5.5V8H12V5.5C12 5.22386 12.2239 5 12.5 5Z" fill="black" fill-opacity="0.3"/>
</g>
</svg>
