<svg width="24" height="24" viewBox="0 0 24 24" fill="none" xmlns="http://www.w3.org/2000/svg">
<g id="icon.24.home.small">
<path id="Icon" d="M11.5186 5.12272C11.8675 4.931 12.3054 4.96288 12.625 5.21842L17.625 9.21842C17.8621 9.40813 17.9999 9.69601 18 9.99967V16.9997C18 17.552 17.5523 17.9997 17 17.9997H14C13.4477 17.9997 13 17.552 13 16.9997V12.9997H11V16.9997C11 17.552 10.5523 17.9997 10 17.9997H7C6.44772 17.9997 6 17.552 6 16.9997V9.99967C6.0001 9.69601 6.13787 9.40813 6.375 9.21842L11.375 5.21842L11.5186 5.12272ZM7 9.99967V16.9997H10V12.9997C10.0002 12.4475 10.4478 11.9997 11 11.9997H13C13.5522 11.9997 13.9998 12.4475 14 12.9997V16.9997H17V9.99967L12 5.99967L7 9.99967Z" fill="black" fill-opacity="0.9"/>
</g>
</svg>
