<svg width="24" height="24" viewBox="0 0 24 24" fill="none" xmlns="http://www.w3.org/2000/svg">
<g id="icon.24.boolean.subtract.small">
<path id="Subtract" d="M17 17H10V14H14V10H17V17Z" fill="black" fill-opacity="0.3"/>
<path id="Icon" d="M14 6C14.5523 6 15 6.44772 15 7V9H17C17.5523 9 18 9.44772 18 10V17C18 17.5523 17.5523 18 17 18H10C9.44772 18 9 17.5523 9 17V15H7C6.44772 15 6 14.5523 6 14V7C6 6.44772 6.44772 6 7 6H14ZM15 14C15 14.5523 14.5523 15 14 15H10V17H17V10H15V14ZM7 14H14V7H7V14Z" fill="black" fill-opacity="0.9"/>
</g>
</svg>
