<svg width="24" height="24" viewBox="0 0 24 24" fill="none" xmlns="http://www.w3.org/2000/svg">
<g id="icon.24.truncate-text">
<path id="Icon" d="M12.9336 13.9873C13.1183 13.9873 13.2776 14.0539 13.4102 14.1865C13.5425 14.319 13.6084 14.4776 13.6084 14.6621C13.6084 14.7827 13.578 14.895 13.5166 14.999C13.4551 15.1007 13.3732 15.1826 13.2715 15.2441C13.1721 15.3057 13.0591 15.3369 12.9336 15.3369C12.7491 15.3368 12.5905 15.2702 12.458 15.1377C12.3255 15.0052 12.2588 14.8467 12.2588 14.6621C12.2588 14.4776 12.3256 14.3191 12.458 14.1865C12.5905 14.054 12.7491 13.9874 12.9336 13.9873ZM15.627 13.9873C15.8116 13.9873 15.97 14.054 16.1025 14.1865C16.235 14.3191 16.3018 14.4775 16.3018 14.6621C16.3017 14.7828 16.2705 14.8949 16.209 14.999C16.1474 15.1008 16.0657 15.1826 15.9639 15.2441C15.8645 15.3056 15.7523 15.3369 15.627 15.3369C15.4423 15.3369 15.2839 15.2702 15.1514 15.1377C15.0188 15.0051 14.9522 14.8467 14.9521 14.6621C14.9521 14.4775 15.0188 14.3191 15.1514 14.1865C15.2839 14.054 15.4423 13.9873 15.627 13.9873ZM18.3203 13.9873C18.5049 13.9873 18.6634 14.054 18.7959 14.1865C18.9284 14.3191 18.9951 14.4775 18.9951 14.6621C18.9951 14.7828 18.9638 14.8949 18.9023 14.999C18.8408 15.1008 18.759 15.1826 18.6572 15.2441C18.5579 15.3056 18.4457 15.3369 18.3203 15.3369C18.1357 15.3369 17.9773 15.2702 17.8447 15.1377C17.7122 15.0051 17.6455 14.8467 17.6455 14.6621C17.6455 14.4775 17.7122 14.3191 17.8447 14.1865C17.9773 14.054 18.1357 13.9873 18.3203 13.9873ZM8.19434 8C8.52058 8 8.81243 8.20411 8.92383 8.51074L11.1416 14.6172C11.2574 14.9358 11.0216 15.2725 10.6826 15.2725C10.475 15.2724 10.2903 15.1413 10.2217 14.9453L9.63867 13.2803H6.74805L6.16406 14.9463C6.09525 15.1418 5.91044 15.2725 5.70312 15.2725C5.36425 15.2723 5.12833 14.9357 5.24414 14.6172L7.46582 8.51074C7.57727 8.20436 7.86833 8.00012 8.19434 8ZM8.19434 9.23535C8.17748 9.23552 8.16281 9.24677 8.15723 9.2627L7.04688 12.4287H9.34082L8.23242 9.2627C8.2268 9.24663 8.21136 9.23535 8.19434 9.23535Z" fill="black" fill-opacity="0.9"/>
</g>
</svg>
