<svg width="24" height="24" viewBox="0 0 24 24" fill="none" xmlns="http://www.w3.org/2000/svg">
<g id="icon.24.eyedropper">
<path id="Icon" d="M15.8965 3.89618C17.0582 2.73461 18.9418 2.73466 20.1035 3.89618C21.2652 5.0579 21.2651 6.94144 20.1035 8.10321L17.168 11.0378C17.6032 11.75 17.5147 12.6919 16.8984 13.3083L16.8086 13.3981C16.0861 14.1206 14.9149 14.1206 14.1924 13.3981L14 13.2057L6.64648 20.5602C6.36522 20.8415 5.98371 20.9997 5.58594 20.9997H3.5C3.22386 20.9997 3 20.7758 3 20.4997V18.4138C3.00011 18.0161 3.15825 17.6344 3.43945 17.3532L10.793 9.99872L10.6016 9.80731C9.87923 9.08483 9.87914 7.91353 10.6016 7.1911L10.6914 7.10126C11.3074 6.4854 12.2488 6.39641 12.9609 6.83075L15.8965 3.89618ZM4.14648 18.0602C4.05281 18.1539 4.00011 18.2813 4 18.4138V19.9997H5.58594C5.71849 19.9997 5.84572 19.9469 5.93945 19.8532L13.293 12.4997L11.5 10.7067L4.14648 18.0602ZM19.3965 4.60321C18.6253 3.83221 17.3747 3.83217 16.6035 4.60321L13 8.20673L12.6465 7.85321L12.6006 7.80829C12.2687 7.47653 11.7304 7.47652 11.3984 7.80829L11.3086 7.89813C10.9767 8.23003 10.9768 8.76832 11.3086 9.10028L11.8535 9.64618L14.3535 12.1462L14.8994 12.6911C15.2314 13.023 15.7696 13.023 16.1016 12.6911L16.1914 12.6013C16.5232 12.2693 16.5233 11.731 16.1914 11.3991L16.1465 11.3532L15.793 10.9997L19.3965 7.39618C20.1676 6.62493 20.1677 5.3744 19.3965 4.60321Z" fill="black" fill-opacity="0.9"/>
</g>
</svg>
