<svg width="24" height="24" viewBox="0 0 24 24" fill="none" xmlns="http://www.w3.org/2000/svg">
<g id="icon.24.stroke-circle-arrow">
<path id="Icon" d="M8.5 8C10.2632 8 11.7212 9.3039 11.9639 11H18.5C18.7761 11 19 11.2239 19 11.5C19 11.7761 18.7761 12 18.5 12H11.9639C11.7212 13.6961 10.2632 15 8.5 15C6.567 15 5 13.433 5 11.5C5 9.567 6.567 8 8.5 8ZM8.5 9C7.11929 9 6 10.1193 6 11.5C6 12.8807 7.11929 14 8.5 14C9.88071 14 11 12.8807 11 11.5C11 10.1193 9.88071 9 8.5 9Z" fill="black" fill-opacity="0.9"/>
</g>
</svg>
