<svg width="24" height="24" viewBox="0 0 24 24" fill="none" xmlns="http://www.w3.org/2000/svg">
<g id="icon.24.template.small">
<path id="Icon" d="M17 6C18.1046 6 19 6.89543 19 8V16L18.9893 16.2041C18.8938 17.1457 18.1457 17.8938 17.2041 17.9893L17 18H7L6.7959 17.9893C5.85435 17.8938 5.1062 17.1457 5.01074 16.2041L5 16V8C5 6.89543 5.89543 6 7 6H17ZM6 16C6 16.5523 6.44772 17 7 17H9V11H6V16ZM10 11V17H17C17.5523 17 18 16.5523 18 16V11H10ZM7 7C6.48232 7 6.05621 7.39333 6.00488 7.89746L6 8V10H18V8C18 7.44772 17.5523 7 17 7H7Z" fill="black" fill-opacity="0.9"/>
</g>
</svg>
