<svg width="24" height="24" viewBox="0 0 24 24" fill="none" xmlns="http://www.w3.org/2000/svg">
<g id="icon.24.company.small">
<path id="Icon" d="M12 5C12.5523 5 13 5.44772 13 6V10H15V8.5C15 8.22386 15.2239 8 15.5 8C15.7761 8 16 8.22386 16 8.5V10H18L18.1025 10.0049C18.6067 10.0562 19 10.4823 19 11V17L18.9951 17.1025C18.9472 17.573 18.573 17.9472 18.1025 17.9951L18 18H7L6.89746 17.9951C6.42703 17.9472 6.05278 17.573 6.00488 17.1025L6 17V6C6 5.44772 6.44772 5 7 5H12ZM13 17H18V11H13V17ZM7 17H8V15C8 14.4477 8.44772 14 9 14H10C10.5523 14 11 14.4477 11 15V17H12V6H7V17ZM9 17H10V15H9V17Z" fill="black" fill-opacity="0.9"/>
</g>
</svg>
