<svg width="24" height="24" viewBox="0 0 24 24" fill="none" xmlns="http://www.w3.org/2000/svg">
<g id="icon.24.images.small">
<path id="Icon" d="M14.5 6C15.3284 6 16 6.67157 16 7.5V8H16.5C17.3284 8 18 8.67157 18 9.5V16.5C18 17.2767 17.4097 17.9154 16.6533 17.9922L16.5 18H9.5L9.34668 17.9922C8.64069 17.9205 8.07949 17.3593 8.00781 16.6533L8 16.5V16H7.5L7.34668 15.9922C6.64069 15.9205 6.07949 15.3593 6.00781 14.6533L6 14.5V7.5C6 6.67157 6.67157 6 7.5 6H14.5ZM9 15.207V16.5C9 16.7761 9.22386 17 9.5 17H14.793L11 13.207L9 15.207ZM9.5 9C9.22386 9 9 9.22386 9 9.5V13.793L10.6465 12.1465L10.7246 12.082C10.9187 11.9539 11.1827 11.9756 11.3535 12.1465L16.207 17H16.5C16.7761 17 17 16.7761 17 16.5V9.5C17 9.22386 16.7761 9 16.5 9H9.5ZM7.5 7C7.22386 7 7 7.22386 7 7.5V14.5C7 14.7761 7.22386 15 7.5 15H8V9.5C8 8.67157 8.67157 8 9.5 8H15V7.5C15 7.22386 14.7761 7 14.5 7H7.5ZM14.5 10C15.3284 10 16 10.6716 16 11.5C16 12.3284 15.3284 13 14.5 13C13.6716 13 13 12.3284 13 11.5C13 10.6716 13.6716 10 14.5 10ZM14.5 11C14.2239 11 14 11.2239 14 11.5C14 11.7761 14.2239 12 14.5 12C14.7761 12 15 11.7761 15 11.5C15 11.2239 14.7761 11 14.5 11Z" fill="black" fill-opacity="0.9"/>
</g>
</svg>
