<svg width="24" height="24" viewBox="0 0 24 24" fill="none" xmlns="http://www.w3.org/2000/svg">
<g id="icon.24.saturation.small">
<path id="Secondary Fill" d="M13.9777 13.5435C13.8397 12.1738 13.0874 10.9853 12.0006 10.2578C10.9137 10.9853 10.1614 12.1738 10.0234 13.5435C10.6202 13.8358 11.2912 14 12.0006 14C12.7099 14 13.3809 13.8358 13.9777 13.5435Z" fill="black" fill-opacity="0.3"/>
<path id="Icon" d="M12 4C15.0004 4 17.4378 6.40251 17.4971 9.38867C19.0035 10.3698 20 12.0682 20 14C20 17.0376 17.5376 19.5 14.5 19.5C13.5995 19.5 12.7503 19.2821 12 18.8984C11.2497 19.2821 10.4005 19.5 9.5 19.5C6.46243 19.5 4 17.0376 4 14C4 12.0685 4.99588 10.3698 6.50195 9.38867C6.56125 6.4025 8.99964 4 12 4ZM6.60156 10.5576C5.62219 11.3831 5 12.6189 5 14C5 16.4853 7.01472 18.5 9.5 18.5C10.0262 18.5 10.5307 18.4081 11 18.2422C9.80505 17.2552 9.03469 15.7734 9.00195 14.1104C7.77818 13.3129 6.8908 12.0426 6.60156 10.5576ZM17.3975 10.5576C17.1081 12.0428 16.2211 13.313 14.9971 14.1104C14.9643 15.7737 14.1943 17.2552 12.999 18.2422C13.4686 18.4083 13.9735 18.5 14.5 18.5C16.9853 18.5 19 16.4853 19 14C19 12.6186 18.3772 11.3831 17.3975 10.5576ZM10.0459 14.6406C10.23 15.9322 10.9624 17.0465 12 17.7412C13.0376 17.0465 13.769 15.9322 13.9531 14.6406C13.346 14.8714 12.6881 15 12 15C11.3115 15 10.6533 14.8716 10.0459 14.6406ZM12 10.2578C10.9133 10.9853 10.1606 12.1734 10.0225 13.543C10.6194 13.8355 11.2904 14 12 14C12.7093 14 13.3798 13.8352 13.9766 13.543C13.8384 12.1735 13.0867 10.9852 12 10.2578ZM14.5 9.5C13.9736 9.5 13.4685 9.59076 12.999 9.75684C13.9619 10.5518 14.6491 11.6679 14.8975 12.9414C15.7677 12.208 16.3562 11.1515 16.4766 9.95605C15.8799 9.6639 15.2091 9.5 14.5 9.5ZM9.5 9.5C8.79059 9.5 8.11928 9.66366 7.52246 9.95605C7.64275 11.1513 8.23161 12.208 9.10156 12.9414C9.3498 11.6681 10.0374 10.5518 11 9.75684C10.5308 9.59095 10.026 9.5 9.5 9.5ZM12 5C9.73257 5 7.85732 6.67706 7.5459 8.8584C8.15322 8.62745 8.81165 8.5 9.5 8.5C10.4004 8.5 11.2498 8.71704 12 9.10059C12.7502 8.71704 13.5996 8.5 14.5 8.5C15.188 8.5 15.846 8.62766 16.4531 8.8584C16.1416 6.67713 14.2674 5 12 5Z" fill="black" fill-opacity="0.9"/>
</g>
</svg>
