<svg width="24" height="24" viewBox="0 0 24 24" fill="none" xmlns="http://www.w3.org/2000/svg">
<g id="icon.24.boolean">
<path id="Icon" d="M14 4C14.5523 4 15 4.44772 15 5V9H19C19.5523 9 20 9.44772 20 10V19C20 19.5177 19.6067 19.9438 19.1025 19.9951L19 20H10L9.89746 19.9951C9.42703 19.9472 9.05278 19.573 9.00488 19.1025L9 19V15H5L4.89746 14.9951C4.42703 14.9472 4.05278 14.573 4.00488 14.1025L4 14V5C4 4.44772 4.44772 4 5 4H14ZM15 14C15 14.5177 14.6067 14.9438 14.1025 14.9951L14 15H10V19H19V10H15V14ZM5 14H9V10C9 9.44772 9.44772 9 10 9H14V5H5V14ZM10 14H14V10H10V14Z" fill="black" fill-opacity="0.9"/>
</g>
</svg>
