<svg width="24" height="24" viewBox="0 0 24 24" fill="none" xmlns="http://www.w3.org/2000/svg">
<g id="icon.24.enhance.small">
<path id="Icon" d="M14.5 7.00006C14.7761 7.00006 15 7.22392 15 7.50006C15 7.77618 14.7761 8.00006 14.5 8.00006H6.5C6.22386 8.00006 6 8.22392 6 8.50006V15.5001C6.00003 15.7762 6.22388 16.0001 6.5 16.0001H17.5C17.7761 16.0001 18 15.7762 18 15.5001V11.5001C18 11.2239 18.2239 11.0001 18.5 11.0001C18.7761 11.0001 19 11.2239 19 11.5001V15.5001C19 16.3285 18.3284 17.0001 17.5 17.0001H6.5C5.72336 17.0001 5.08464 16.4098 5.00781 15.6534L5 15.5001V8.50006C5 7.7234 5.59028 7.08467 6.34668 7.00787L6.5 7.00006H14.5ZM11 9.00006C11.2761 9.00006 11.5 9.22392 11.5 9.50006V14.5001C11.5 14.7762 11.2761 15.0001 11 15.0001C10.7239 15.0001 10.5 14.7762 10.5 14.5001V12.5001H8.5V14.5001C8.49995 14.7762 8.27611 15.0001 8 15.0001C7.72389 15.0001 7.50005 14.7762 7.5 14.5001V9.50006C7.5 9.22392 7.72386 9.00006 8 9.00006C8.27614 9.00006 8.5 9.22392 8.5 9.50006V11.5001H10.5V9.50006C10.5 9.22392 10.7239 9.00006 11 9.00006ZM14.5 9.00006C15.6046 9.00006 16.5 9.89549 16.5 11.0001V13.0001C16.5 14.1046 15.6045 15.0001 14.5 15.0001H13C12.7239 15.0001 12.5 14.7762 12.5 14.5001V9.50006C12.5 9.22392 12.7239 9.00006 13 9.00006H14.5ZM13.5 14.0001H14.5C15.0523 14.0001 15.5 13.5523 15.5 13.0001V11.0001C15.5 10.4478 15.0523 10.0001 14.5 10.0001H13.5V14.0001ZM18.0146 5.44049C18.1409 4.93551 18.8591 4.93551 18.9854 5.44049L19.2998 6.70026L20.5596 7.01471C21.0645 7.14095 21.0645 7.85917 20.5596 7.98541L19.2998 8.29987L18.9854 9.55963C18.8591 10.0646 18.1409 10.0646 18.0146 9.55963L17.7002 8.29987L16.4404 7.98541C15.9355 7.85917 15.9355 7.14095 16.4404 7.01471L17.7002 6.70026L18.0146 5.44049Z" fill="black" fill-opacity="0.9"/>
</g>
</svg>
