<svg width="24" height="24" viewBox="0 0 24 24" fill="none" xmlns="http://www.w3.org/2000/svg">
<g id="icon.24.border-bottom-left-right.small">
<path id="Icon" d="M8.10254 6.00488C8.60667 6.05621 9 6.48232 9 7V15H15V7C15 6.44772 15.4477 6 16 6H17C17.5523 6 18 6.44772 18 7V17C18 17.5523 17.5523 18 17 18H7C6.44772 18 6 17.5523 6 17V7C6 6.44772 6.44772 6 7 6H8L8.10254 6.00488ZM7 17H17V7H16V16H8V7H7V17ZM11 7C11.2761 7 11.5 7.22386 11.5 7.5C11.5 7.77614 11.2761 8 11 8H10C9.72386 8 9.5 7.77614 9.5 7.5C9.5 7.22386 9.72386 7 10 7H11ZM14 7C14.2761 7 14.5 7.22386 14.5 7.5C14.5 7.77614 14.2761 8 14 8H13C12.7239 8 12.5 7.77614 12.5 7.5C12.5 7.22386 12.7239 7 13 7H14Z" fill="black" fill-opacity="0.9"/>
</g>
</svg>
