<svg width="24" height="24" viewBox="0 0 24 24" fill="none" xmlns="http://www.w3.org/2000/svg">
<g id="icon.24.comment.new">
<path id="Icon" d="M12 4C16.4183 4 20 7.58172 20 12C20 16.4183 16.4183 20 12 20H7.2002L6.45801 19.9971C5.91644 19.9886 5.55193 19.9578 5.25977 19.8535L5.0918 19.7822C4.76256 19.6145 4.48707 19.3592 4.29492 19.0459L4.21777 18.9082C3.99979 18.4804 4 17.9199 4 16.7998V12C4 7.58172 7.58172 4 12 4ZM12 5C8.13401 5 5 8.13401 5 12V16.7998C5 17.3764 5.00126 17.7489 5.02441 18.0322C5.04661 18.3038 5.08419 18.4047 5.10938 18.4541C5.20522 18.6421 5.35793 18.7948 5.5459 18.8906C5.59534 18.9158 5.69619 18.9534 5.96777 18.9756C6.25111 18.9987 6.62364 19 7.2002 19H12C15.866 19 19 15.866 19 12C19 8.13401 15.866 5 12 5Z" fill="black" fill-opacity="0.9"/>
<circle id="Ellipse 2711" cx="17.5" cy="6.5" r="2.5" fill="#F24822"/>
</g>
</svg>
