<svg width="24" height="24" viewBox="0 0 24 24" fill="none" xmlns="http://www.w3.org/2000/svg">
<g id="icon.24.settings.small">
<path id="Icon" d="M11.999 5C12.4122 5 12.818 5.03652 13.2119 5.10547C13.9072 5.2274 14.251 5.84466 14.249 6.36524C14.2478 6.7147 14.4284 7.05093 14.749 7.23633C15.0695 7.42136 15.4514 7.40943 15.7539 7.2334L15.8408 7.1875C16.2603 6.98706 16.8511 6.99336 17.2734 7.40625L17.3613 7.50098L17.5518 7.73731C17.9826 8.29804 18.3305 8.92631 18.5771 9.60352C18.8186 10.2664 18.4555 10.8725 18.0039 11.1309C17.7003 11.3048 17.499 11.6297 17.499 12C17.499 12.3696 17.6999 12.694 18.0039 12.8682C18.4555 13.1265 18.8185 13.7327 18.5771 14.3955C18.2952 15.1698 17.8804 15.8797 17.3613 16.4981C16.9081 17.0376 16.2033 17.027 15.7539 16.7656C15.4518 16.59 15.0699 16.5784 14.749 16.7637C14.4285 16.9491 14.2478 17.2854 14.249 17.6348C14.2508 18.1553 13.907 18.7712 13.2129 18.8936C12.8197 18.9627 12.4135 19 11.999 19C11.5844 19 11.178 18.9628 10.7842 18.8936C10.0901 18.7711 9.74602 18.1545 9.74805 17.6338C9.74926 17.2837 9.56911 16.9485 9.24902 16.7637C8.92744 16.5781 8.54485 16.59 8.24316 16.7656C7.79374 17.0269 7.08791 17.0382 6.63477 16.4981C6.11593 15.8796 5.70253 15.1692 5.4209 14.3955C5.17975 13.7328 5.54254 13.1265 5.99414 12.8682L6.10352 12.7959C6.31075 12.6386 6.45369 12.4042 6.49023 12.1367L6.49902 12C6.49902 11.6292 6.29781 11.3046 5.99414 11.1309C5.54261 10.8725 5.17962 10.2663 5.4209 9.60352L5.5332 9.31641C5.80805 8.65399 6.18074 8.04215 6.63477 7.50098C7.05976 6.99446 7.70674 6.97365 8.15625 7.18848L8.24414 7.23438L8.36035 7.292C8.64021 7.40979 8.96784 7.39857 9.24902 7.23633L9.3623 7.16016C9.61153 6.96714 9.74936 6.67183 9.74805 6.36524C9.74585 5.84456 10.09 5.22753 10.7852 5.10547C11.1797 5.03637 11.5857 5.00004 11.999 5ZM11.999 6C11.6441 6.00004 11.296 6.03066 10.958 6.08985C10.831 6.11225 10.7475 6.23236 10.748 6.36133C10.7509 7.05519 10.393 7.73072 9.74902 8.10254C9.10497 8.47426 8.33977 8.44796 7.74023 8.09864C7.62884 8.03386 7.4842 8.04581 7.40137 8.14454C6.95664 8.67467 6.60263 9.28356 6.36133 9.94629C6.31748 10.0672 6.37868 10.1986 6.49023 10.2627C7.09274 10.6073 7.49902 11.2562 7.49902 12C7.49901 12.7437 7.09264 13.3919 6.49023 13.7363C6.37874 13.8003 6.31669 13.9319 6.36035 14.0527C6.6016 14.7156 6.95662 15.3243 7.40137 15.8545C7.47381 15.9408 7.59384 15.9615 7.69727 15.9219L7.74023 15.9014C8.3398 15.5524 9.1051 15.5258 9.74902 15.8975C10.3928 16.2691 10.7506 16.9442 10.748 17.6377C10.7475 17.7666 10.8311 17.8867 10.958 17.9092C11.296 17.9686 11.644 18 11.999 18C12.265 18 12.5273 17.9822 12.7842 17.9482L13.0391 17.9092C13.1503 17.8896 13.2279 17.7952 13.2451 17.6856L13.249 17.6377C13.2467 16.9444 13.6057 16.2692 14.249 15.8975C14.8926 15.5259 15.6574 15.5528 16.2568 15.9014C16.3542 15.9579 16.4769 15.955 16.5615 15.8877L16.5957 15.8555C16.9853 15.3914 17.3052 14.8669 17.541 14.2988L17.6377 14.0527C17.676 13.9469 17.633 13.8333 17.5469 13.7637L17.5078 13.7363C16.9057 13.3917 16.499 12.7435 16.499 12C16.499 11.3031 16.8559 10.6891 17.3965 10.3311L17.5078 10.2627C17.6055 10.2067 17.6644 10.0992 17.6484 9.99219L17.6367 9.94629C17.3952 9.28321 17.0409 8.67385 16.5957 8.14356C16.5128 8.04527 16.368 8.03302 16.2568 8.09766C15.6574 8.4466 14.8928 8.47421 14.249 8.10254C13.6457 7.75395 13.2926 7.13831 13.2529 6.49122L13.249 6.36133C13.2495 6.23225 13.1662 6.11211 13.0391 6.08985C12.7014 6.03075 12.3536 6 11.999 6ZM12 9.5C13.3805 9.50023 14.5 10.6194 14.5 12C14.5 13.3806 13.3805 14.4998 12 14.5C10.6193 14.5 9.5 13.3807 9.5 12C9.5 10.6193 10.6193 9.5 12 9.5ZM12 10.5C11.1716 10.5 10.5 11.1716 10.5 12C10.5 12.8284 11.1716 13.5 12 13.5C12.8282 13.4998 13.5 12.8283 13.5 12C13.5 11.1717 12.8282 10.5002 12 10.5Z" fill="black" fill-opacity="0.9"/>
</g>
</svg>
