<svg width="24" height="24" viewBox="0 0 24 24" fill="none" xmlns="http://www.w3.org/2000/svg">
<g id="icon.24.al.padding-right">
<path id="Icon" d="M16.5 7C16.7761 7 17 7.22386 17 7.5V16.5C17 16.7761 16.7761 17 16.5 17C16.2239 17 16 16.7761 16 16.5V7.5C16 7.22386 16.2239 7 16.5 7ZM13 10C13.5523 10 14 10.4477 14 11V13L13.9951 13.1025C13.9438 13.6067 13.5177 14 13 14H11L10.8975 13.9951C10.3933 13.9438 10 13.5177 10 13V11C10 10.4477 10.4477 10 11 10H13ZM13 11H11V13H13V11Z" fill="black" fill-opacity="0.9"/>
</g>
</svg>
