<svg width="24" height="24" viewBox="0 0 24 24" fill="none" xmlns="http://www.w3.org/2000/svg">
<g id="icon.24.loop.small">
<path id="Icon" d="M15 8C17.2091 8 19 9.79086 19 12C19 14.2091 17.2091 16 15 16H13.707L14.8535 17.1465C15.0488 17.3417 15.0488 17.6583 14.8535 17.8535C14.6583 18.0488 14.3417 18.0488 14.1465 17.8535L12.1465 15.8535C11.9512 15.6583 11.9512 15.3417 12.1465 15.1465L14.1465 13.1465C14.3417 12.9512 14.6583 12.9512 14.8535 13.1465C15.0488 13.3417 15.0488 13.6583 14.8535 13.8535L13.707 15H15C16.6569 15 18 13.6569 18 12C18 10.3431 16.6569 9 15 9H14.5C14.2239 9 14 8.77614 14 8.5C14 8.22386 14.2239 8 14.5 8H15ZM9.14648 6.14648C9.34175 5.95122 9.65825 5.95122 9.85352 6.14648L11.8535 8.14648C12.0488 8.34175 12.0488 8.65825 11.8535 8.85352L9.85352 10.8535C9.65825 11.0488 9.34175 11.0488 9.14648 10.8535C8.95122 10.6583 8.95122 10.3417 9.14648 10.1465L10.293 9H9C7.34315 9 6 10.3431 6 12C6 13.6569 7.34315 15 9 15H9.5C9.77614 15 10 15.2239 10 15.5C10 15.7761 9.77614 16 9.5 16H9C6.79086 16 5 14.2091 5 12C5 9.79086 6.79086 8 9 8H10.293L9.14648 6.85352C8.95122 6.65825 8.95122 6.34175 9.14648 6.14648Z" fill="black" fill-opacity="0.9"/>
</g>
</svg>
