<svg width="24" height="24" viewBox="0 0 24 24" fill="none" xmlns="http://www.w3.org/2000/svg">
<g id="icon.24.layout-distribute-vertical-spacing">
<path id="Secondary" d="M18.5 17C18.7761 17 19 17.2239 19 17.5C19 17.7761 18.7761 18 18.5 18H6.5C6.22386 18 6 17.7761 6 17.5C6 17.2239 6.22386 17 6.5 17H18.5ZM18.5 6C18.7761 6 19 6.22386 19 6.5C19 6.77614 18.7761 7 18.5 7H6.5C6.22386 7 6 6.77614 6 6.5C6 6.22386 6.22386 6 6.5 6H18.5Z" fill="black" fill-opacity="0.3"/>
<path id="Icon" d="M9 12.25C9 12.6642 9.33579 13 9.75 13H15.25C15.6642 13 16 12.6642 16 12.25V11.75C16 11.3358 15.6642 11 15.25 11H9.75C9.33579 11 9 11.3358 9 11.75V12.25Z" fill="black" fill-opacity="0.9"/>
</g>
</svg>
