<svg width="24" height="24" viewBox="0 0 24 24" fill="none" xmlns="http://www.w3.org/2000/svg">
<g id="icon.24.action.go.small">
<path id="Icon" d="M13.1465 7.14648C13.3417 6.95129 13.6583 6.95125 13.8535 7.14648L17.8535 11.1465C17.9473 11.2403 18 11.3674 18 11.5C18 11.6326 17.9473 11.7597 17.8535 11.8535L13.8535 15.8535C13.6583 16.0488 13.3417 16.0487 13.1465 15.8535C12.9512 15.6583 12.9512 15.3417 13.1465 15.1465L16.293 12H6.5C6.22386 12 6 11.7761 6 11.5C6 11.2239 6.22386 11 6.5 11H16.293L13.1465 7.85352C12.9512 7.65826 12.9512 7.34175 13.1465 7.14648Z" fill="black" fill-opacity="0.9"/>
</g>
</svg>
