<svg width="24" height="24" viewBox="0 0 24 24" fill="none" xmlns="http://www.w3.org/2000/svg">
<g id="icon.24.text.align-bottom">
<path id="Icon" d="M17.5 18C17.7761 18 18 18.2239 18 18.5C18 18.7761 17.7761 19 17.5 19H5.5C5.22386 19 5 18.7761 5 18.5C5 18.2239 5.22386 18 5.5 18H17.5ZM11.5 7C11.7761 7 12 7.22386 12 7.5V15.293L14.1465 13.1465C14.3417 12.9512 14.6583 12.9512 14.8535 13.1465C15.0488 13.3417 15.0488 13.6583 14.8535 13.8535L11.8535 16.8535C11.6827 17.0244 11.4187 17.0461 11.2246 16.918L11.1465 16.8535L8.14648 13.8535C7.95122 13.6583 7.95122 13.3417 8.14648 13.1465C8.34175 12.9512 8.65825 12.9512 8.85352 13.1465L11 15.293V7.5C11 7.22386 11.2239 7 11.5 7Z" fill="black" fill-opacity="0.9"/>
</g>
</svg>
