<svg width="24" height="24" viewBox="0 0 24 24" fill="none" xmlns="http://www.w3.org/2000/svg">
<g id="icon.24.thumb.down.small">
<path id="Icon" d="M13 18C14.1046 18 15 17.1046 15 16C15 15.2952 14.852 14.6215 14.6035 14H16.7793C18.1286 14 19.0909 12.6912 18.6885 11.4033L17.6348 8.03027C17.2691 6.86005 16.1082 6.12739 14.8945 6.30078L9.91602 7.01172C9.71322 6.42344 9.15717 6 8.5 6H7.5C6.72334 6 6.08461 6.59028 6.00781 7.34668L6 7.5V13.5C6 14.3284 6.67157 15 7.5 15H8.5C9.05542 15 9.53954 14.6977 9.79883 14.249C9.9768 14.352 10.1601 14.4882 10.3359 14.6641C10.8052 15.1334 11 15.6505 11 16C11 17.1046 11.8954 18 13 18ZM7.5 14C7.22386 14 7 13.7761 7 13.5V7.5C7 7.22386 7.22386 7 7.5 7H8.5C8.77614 7 9 7.22386 9 7.5V13.5C9 13.7761 8.77614 14 8.5 14H7.5ZM13 17C12.4477 17 12 16.5523 12 16C12 15.3286 11.6556 14.5696 11.043 13.957C10.7242 13.6383 10.365 13.3942 10 13.2314V8.01074L15.0361 7.29102C15.7642 7.18707 16.4612 7.62619 16.6807 8.32812L17.7344 11.7012C17.9356 12.345 17.454 13 16.7793 13H13.127L13.6748 14.3711C13.8816 14.8884 14 15.4365 14 16C14 16.5523 13.5523 17 13 17Z" fill="black" fill-opacity="0.9"/>
</g>
</svg>
