<svg width="24" height="24" viewBox="0 0 24 24" fill="none" xmlns="http://www.w3.org/2000/svg">
<g id="icon.24.file.design">
<path id="File Type Frame" d="M4 24H20C21.1046 24 22 23.1046 22 22V6.74264C22 5.94699 21.6839 5.18393 21.1213 4.62132L17.3787 0.87868C16.8161 0.316071 16.053 0 15.2574 0H4C2.89543 0 2 0.89543 2 2V22C2 23.1046 2.89543 24 4 24Z" fill="#0D99FF"/>
<path id="Intersect" d="M15.2578 0C16.0534 6.49018e-05 16.8164 0.316355 17.3789 0.878906L21.1211 4.62109C21.6836 5.1836 21.9999 5.9467 22 6.74219V7L21.9951 6.89746C21.9439 6.39325 21.5177 6 21 6H18C16.8956 5.99989 16.0001 5.10441 16 4V1C16 0.447715 15.5523 0 15 0H15.2578Z" fill="white" fill-opacity="0.4"/>
<g id="icon.16.pen">
<path id="Icon" d="M7.72754 7.02148C8.8383 7.13058 13.6739 7.67516 14.999 9C15.8879 9.88906 16.2712 11.2834 16.1113 12.5967L17.2979 13.793C17.6854 14.1839 17.6841 14.8148 17.2949 15.2041L15.1738 17.3252C14.7822 17.7168 14.1469 17.7154 13.7568 17.3223L12.5596 16.1162C11.2568 16.2649 9.87995 15.8808 8.99902 15C7.67435 13.6749 7.12969 8.83974 7.02051 7.72852C7.00622 7.58226 7.05919 7.43987 7.16309 7.33594L7.33496 7.16406C7.43895 7.06009 7.58119 7.00711 7.72754 7.02148ZM11.7402 11.0342C11.8228 11.0121 11.9095 11 11.999 11C12.5513 11 12.999 11.4477 12.999 12C12.999 12.5523 12.5513 13 11.999 13C11.4468 13 10.999 12.5523 10.999 12C10.999 11.9105 11.0111 11.8238 11.0332 11.7412L8.16211 8.87012C8.24819 9.5094 8.36901 10.2925 8.5332 11.0801C8.6858 11.812 8.86951 12.5244 9.08594 13.1191C9.28423 13.664 9.47925 14.0227 9.63965 14.2188L9.70605 14.293C10.3303 14.917 11.383 15.2431 12.4453 15.1221L12.9287 15.0674L13.2695 15.4121L14.4658 16.6182L16.5879 14.4971L15.4014 13.3008L15.0605 12.957L15.1191 12.4756C15.2495 11.4046 14.9222 10.3375 14.292 9.70703C14.1205 9.53568 13.7409 9.31348 13.1182 9.08691C12.5234 8.87054 11.8111 8.68668 11.0791 8.53418C10.2915 8.3701 9.5085 8.24898 8.86914 8.16309L11.7402 11.0342Z" fill="white"/>
</g>
</g>
</svg>
