<svg width="24" height="24" viewBox="0 0 24 24" fill="none" xmlns="http://www.w3.org/2000/svg">
<g id="icon.24.rename.small">
<path id="Icon" d="M15.5 5C15.7761 5 16 5.22386 16 5.5C16 5.77614 15.7761 6 15.5 6H14V18H15.5C15.7761 18 16 18.2239 16 18.5C16 18.7761 15.7761 19 15.5 19H11.5C11.2239 19 11 18.7761 11 18.5C11 18.2239 11.2239 18 11.5 18H13V6H11.5C11.2239 6 11 5.77614 11 5.5C11 5.22386 11.2239 5 11.5 5H15.5ZM11.5 8C11.7761 8 12 8.22386 12 8.5C12 8.77614 11.7761 9 11.5 9H6.5C6.22386 9 6 9.22386 6 9.5V14.5C6 14.7761 6.22386 15 6.5 15H11.5C11.7761 15 12 15.2239 12 15.5C12 15.7761 11.7761 16 11.5 16H6.5C5.67157 16 5 15.3284 5 14.5V9.5C5 8.67157 5.67157 8 6.5 8H11.5ZM17.5 8C18.3284 8 19 8.67157 19 9.5V14.5C19 15.3284 18.3284 16 17.5 16H15.5C15.2239 16 15 15.7761 15 15.5C15 15.2239 15.2239 15 15.5 15H17.5C17.7761 15 18 14.7761 18 14.5V9.5C18 9.22386 17.7761 9 17.5 9H15.5C15.2239 9 15 8.77614 15 8.5C15 8.22386 15.2239 8 15.5 8H17.5Z" fill="black" fill-opacity="0.9"/>
</g>
</svg>
