<svg width="24" height="24" viewBox="0 0 24 24" fill="none" xmlns="http://www.w3.org/2000/svg">
<g id="icon.24.mobile.small">
<path id="Icon" d="M14 5C15.1046 5 16 5.89543 16 7V17L15.9893 17.2041C15.8938 18.1457 15.1457 18.8938 14.2041 18.9893L14 19H10L9.7959 18.9893C8.85435 18.8938 8.1062 18.1457 8.01074 17.2041L8 17V7C8 5.89543 8.89543 5 10 5H14ZM10 6C9.48232 6 9.05621 6.39333 9.00488 6.89746L9 7V17C9 17.5523 9.44772 18 10 18H14C14.5523 18 15 17.5523 15 17V7C15 6.44772 14.5523 6 14 6H10ZM12 16C12.2761 16 12.5 16.2239 12.5 16.5C12.5 16.7761 12.2761 17 12 17C11.7239 17 11.5 16.7761 11.5 16.5C11.5 16.2239 11.7239 16 12 16ZM12.5 7C12.7761 7 13 7.22386 13 7.5C13 7.77614 12.7761 8 12.5 8H11.5C11.2239 8 11 7.77614 11 7.5C11 7.22386 11.2239 7 11.5 7H12.5Z" fill="black" fill-opacity="0.9"/>
</g>
</svg>
