<svg width="24" height="24" viewBox="0 0 24 24" fill="none" xmlns="http://www.w3.org/2000/svg">
<g id="icon.24.resolve">
<path id="Icon" d="M12.4062 4.11074C16.5803 4.32239 19.8994 7.77373 19.8994 12.0004L19.8896 12.4066C19.678 16.5806 16.2265 19.8996 12 19.8998L11.5928 19.89C7.55348 19.6851 4.31517 16.446 4.11035 12.4066L4.09961 12.0004C4.09961 7.63734 7.63695 4.1 12 4.1L12.4062 4.11074ZM12 5.1C8.18924 5.1 5.09961 8.18963 5.09961 12.0004C5.09982 15.811 8.18937 18.8998 12 18.8998C15.8105 18.8996 18.8992 15.8108 18.8994 12.0004C18.8994 8.18976 15.8106 5.10021 12 5.1ZM14.5684 8.74844C14.7075 8.51001 15.0135 8.42963 15.252 8.56875C15.4901 8.70802 15.5707 9.01398 15.4316 9.25234L11.9316 15.2523C11.8496 15.3929 11.7041 15.4847 11.542 15.4984C11.3798 15.512 11.2206 15.4455 11.1162 15.3207L8.61621 12.3207C8.43951 12.1087 8.46781 11.7934 8.67969 11.6166C8.89173 11.4399 9.20697 11.4682 9.38379 11.6801L11.4268 14.1322L14.5684 8.74844Z" fill="black" fill-opacity="0.9"/>
</g>
</svg>
