<svg width="24" height="24" viewBox="0 0 24 24" fill="none" xmlns="http://www.w3.org/2000/svg">
<g id="icon.24.rotate.ccw.small">
<g id="icon.24.rotate">
<path id="Icon" d="M12.9463 9.54388C12.3571 9.06349 11.4886 9.09733 10.9395 9.64642L7.64648 12.9394C7.06084 13.5251 7.06086 14.4747 7.64648 15.0605L10.9395 18.3535C11.5252 18.9392 12.4748 18.9391 13.0605 18.3535L16.3535 15.0605C16.9393 14.4747 16.9393 13.5252 16.3535 12.9394L13.0605 9.64642L12.9463 9.54388ZM11.6465 10.3535C11.8417 10.1583 12.1583 10.1583 12.3535 10.3535L15.6465 13.6464C15.8417 13.8417 15.8417 14.1582 15.6465 14.3535L12.3535 17.6464C12.1827 17.8172 11.9186 17.839 11.7246 17.7109L11.6465 17.6464L8.35352 14.3535C8.18279 14.1826 8.16099 13.9186 8.28906 13.7245L8.35352 13.6464L11.6465 10.3535ZM14.4746 5.76752C13.1078 4.40108 10.8921 4.40101 9.52539 5.76752L8 7.29291V5.99994C7.99998 5.72381 7.77613 5.49994 7.5 5.49994C7.22394 5.50002 7.00002 5.72386 7 5.99994V8.49994C7 8.77603 7.22393 8.99986 7.5 8.99994H10C10.2761 8.99994 10.5 8.77608 10.5 8.49994C10.5 8.22381 10.2761 7.99994 10 7.99994H8.70703L10.2324 6.47455C11.2086 5.49857 12.7913 5.49863 13.7676 6.47455L16.1465 8.85345C16.3417 9.0487 16.6582 9.04866 16.8535 8.85345C17.0488 8.65819 17.0488 8.34169 16.8535 8.14642L14.4746 5.76752Z" fill="black" fill-opacity="0.9"/>
</g>
</g>
</svg>
