<svg width="24" height="24" viewBox="0 0 24 24" fill="none" xmlns="http://www.w3.org/2000/svg">
<g id="icon.24.placeholder.small">
<path id="Icon" d="M8.94293 18.7934C9.07146 18.5706 9.34671 18.4826 9.58813 18.5713C9.9778 18.7146 10.3836 18.8244 10.8023 18.8968C11.0556 18.9406 11.25 19.1543 11.25 19.4114C11.25 19.7075 10.995 19.9409 10.7028 19.8931C10.1747 19.8069 9.6643 19.6689 9.1764 19.4846C8.8992 19.3799 8.79486 19.0501 8.94293 18.7934ZM15.0561 18.7934C15.2042 19.0501 15.0998 19.3799 14.8226 19.4846C14.335 19.6688 13.8249 19.8069 13.2972 19.8931C13.005 19.9408 12.75 19.7075 12.75 19.4114C12.75 19.1543 12.9444 18.9406 13.1977 18.8967C13.6161 18.8243 14.0215 18.7145 14.4109 18.5713C14.6523 18.4825 14.9276 18.5706 15.0561 18.7934ZM5.95675 16.3537C6.17916 16.2254 6.46104 16.2865 6.62559 16.4836C6.89489 16.8062 7.19257 17.1042 7.51499 17.3737C7.71188 17.5383 7.77288 17.82 7.64455 18.0422C7.49633 18.2988 7.15835 18.3731 6.92923 18.1852C6.52169 17.8508 6.14786 17.4771 5.81347 17.0696C5.62528 16.8402 5.69978 16.5019 5.95675 16.3537ZM18.042 16.3547C18.2986 16.503 18.3729 16.8409 18.1849 17.07C17.8507 17.4774 17.4771 17.8509 17.0698 18.1852C16.8407 18.3732 16.5027 18.2989 16.3545 18.0422C16.2261 17.82 16.2872 17.5383 16.4841 17.3737C16.8065 17.1045 17.1042 16.8067 17.3735 16.4844C17.538 16.2874 17.8197 16.2264 18.042 16.3547ZM19.4116 12.7503C19.7075 12.7503 19.9406 13.005 19.8929 13.297C19.8067 13.8248 19.6686 14.3351 19.4844 14.8229C19.3796 15.1001 19.0498 15.2044 18.7931 15.0563C18.5703 14.9278 18.4823 14.6526 18.5712 14.4112C18.7146 14.0217 18.8248 13.6161 18.8974 13.1975C18.9413 12.9445 19.1548 12.7503 19.4116 12.7503ZM4.58793 12.7503C4.84502 12.7503 5.05871 12.9446 5.1026 13.198C5.17504 13.616 5.28491 14.0213 5.42807 14.4104C5.51685 14.6517 5.42891 14.9269 5.2063 15.0556C4.94947 15.204 4.61923 15.0997 4.51442 14.8222C4.33036 14.3348 4.1924 13.8249 4.1062 13.2975C4.05844 13.0053 4.29182 12.7503 4.58793 12.7503ZM5.20588 8.94319C5.42867 9.07172 5.51674 9.34697 5.42797 9.58838C5.28469 9.97805 5.1749 10.3839 5.10251 10.8025C5.05871 11.0559 4.845 11.2503 4.5879 11.2503C4.2918 11.2503 4.05842 10.9953 4.10614 10.703C4.19235 10.175 4.33039 9.66457 4.51469 9.17668C4.61939 8.89947 4.9492 8.79512 5.20588 8.94319ZM18.7932 8.94319C19.0498 8.79512 19.3796 8.89946 19.4843 9.17666C19.6687 9.66472 19.8068 10.1754 19.893 10.7036C19.9406 10.9955 19.7075 11.2503 19.4117 11.2503C19.1548 11.2503 18.9413 11.056 18.8975 10.803C18.8249 10.3841 18.7147 9.97817 18.5712 9.58835C18.4823 9.34697 18.5704 9.07172 18.7932 8.94319ZM7.64497 5.95669C7.7736 6.17924 7.71252 6.46149 7.5152 6.62624C7.19284 6.8954 6.89501 7.1929 6.62569 7.51511C6.46104 7.71209 6.17921 7.7732 5.95682 7.64491C5.69982 7.49665 5.62534 7.15831 5.81356 6.92896C6.14784 6.52163 6.52151 6.14798 6.92884 5.81371C7.15818 5.6255 7.4965 5.69983 7.64497 5.95669ZM16.3534 5.95701C16.5017 5.70004 16.84 5.62554 17.0693 5.81373C17.4768 6.14812 17.8505 6.52195 18.1849 6.92948C18.3729 7.15861 18.2986 7.49659 18.0419 7.64481C17.8197 7.77314 17.538 7.71214 17.3734 7.51525C17.104 7.19283 16.806 6.89515 16.4834 6.62585C16.2863 6.4613 16.2251 6.17942 16.3534 5.95701ZM12.75 4.58819C12.75 4.29208 13.005 4.0587 13.2972 4.10646C13.8246 4.19266 14.3345 4.33062 14.8219 4.51468C15.0994 4.61949 15.2038 4.94973 15.0553 5.20656C14.9266 5.42917 14.6515 5.51711 14.4102 5.42833C14.021 5.28517 13.6158 5.1753 13.1977 5.10286C12.9444 5.05897 12.75 4.84528 12.75 4.58819ZM11.25 4.58816C11.25 4.84526 11.0556 5.05897 10.8022 5.10268C10.3836 5.17489 9.97778 5.28432 9.58814 5.42738C9.3467 5.51603 9.07147 5.42797 8.94295 5.20518C8.79487 4.9485 8.89923 4.61868 9.17649 4.51408C9.66434 4.33002 10.1748 4.19235 10.7028 4.10631C10.995 4.05868 11.25 4.29206 11.25 4.58816Z" fill="black" fill-opacity="0.3"/>
</g>
</svg>
