<svg width="24" height="24" viewBox="0 0 24 24" fill="none" xmlns="http://www.w3.org/2000/svg">
<g id="icon.24.camera.off.small">
<path id="Icon" d="M17.1465 6.14648C17.3417 5.95122 17.6583 5.95122 17.8535 6.14648C18.0488 6.34175 18.0488 6.65825 17.8535 6.85352L6.85352 17.8535C6.65825 18.0488 6.34175 18.0488 6.14648 17.8535C5.95122 17.6583 5.95122 17.3417 6.14648 17.1465L17.1465 6.14648ZM17.459 8.66113C17.7311 8.48561 18.0756 8.44891 18.3828 8.57617C18.7564 8.73098 19 9.09558 19 9.5V14.5C19 14.9044 18.7564 15.269 18.3828 15.4238C18.0091 15.5786 17.579 15.493 17.293 15.207L16 13.9141V14.5L15.9873 14.7559C15.8677 15.9323 14.9323 16.8677 13.7559 16.9873L13.5 17H9.12109L10.1211 16H13.5C14.3284 16 15 15.3284 15 14.5V11.1211L17.459 8.66113ZM13.7559 7.0127C14.0622 7.04383 14.3518 7.13107 14.6152 7.2627L13.8389 8.03906C13.7783 8.02507 13.7164 8.01422 13.6533 8.00781L13.5 8H7.5C6.67157 8 6 8.67157 6 9.5V14.5C6 14.8831 6.14449 15.232 6.38086 15.4971L5.6748 16.2031C5.25783 15.7565 5 15.1593 5 14.5V9.5C5 8.11929 6.11929 7 7.5 7H13.5L13.7559 7.0127ZM16 11.5V12.5L18 14.5V9.5L16 11.5Z" fill="black" fill-opacity="0.9"/>
</g>
</svg>
