<svg width="24" height="24" viewBox="0 0 24 24" fill="none" xmlns="http://www.w3.org/2000/svg">
<g id="icon.24.blendmode.active.small">
<path id="Secondary Fill" d="M11.251 5.99902C11.6246 5.4784 12.3754 5.4784 12.749 5.99902C13.907 7.61254 16 10.8298 16 13C15.9998 15.209 14.209 17 12 17C9.79098 17 8.00019 15.209 8 13C8 10.8298 10.093 7.61254 11.251 5.99902Z" fill="black" fill-opacity="0.3"/>
<path id="Icon" d="M11.251 5.99902C11.6246 5.4784 12.3754 5.4784 12.749 5.99902C13.907 7.61254 16 10.8298 16 13C15.9998 15.209 14.209 17 12 17C9.79098 17 8.00019 15.209 8 13C8 10.8298 10.093 7.61254 11.251 5.99902ZM12 6.67285C11.4405 7.45807 10.6908 8.58085 10.0771 9.75391C9.41971 11.0108 9 12.1736 9 13C9.00019 14.6567 10.3433 16 12 16C13.6567 16 14.9998 14.6567 15 13C15 12.1736 14.5803 11.0108 13.9229 9.75391C13.3092 8.58085 12.5595 7.45807 12 6.67285Z" fill="black" fill-opacity="0.9"/>
</g>
</svg>
