<svg width="24" height="24" viewBox="0 0 24 24" fill="none" xmlns="http://www.w3.org/2000/svg">
<g id="icon.24.lowercase">
<path id="Icon" d="M14.8291 10.1699C15.2015 10.1699 15.4997 10.2323 15.7227 10.3564C15.9453 10.478 16.1178 10.6188 16.2393 10.7783C16.3538 10.9256 16.4447 11.0512 16.5117 11.1553C16.5217 11.1708 16.5391 11.1807 16.5576 11.1807C16.5873 11.1806 16.6113 11.1566 16.6113 11.127V10.7129C16.6115 10.455 16.8211 10.2461 17.0791 10.2461H17.1074C17.3812 10.2462 17.6035 10.4684 17.6035 10.7422V16.2305C17.6035 16.732 17.4874 17.1414 17.2568 17.458C17.0289 17.777 16.72 18.0121 16.3301 18.1641C15.9401 18.316 15.5046 18.3925 15.0234 18.3926C14.5752 18.3926 14.1898 18.3343 13.8682 18.2178C13.5465 18.1038 13.2805 17.9516 13.0703 17.7617C12.9986 17.6961 12.9323 17.6288 12.8721 17.5596C12.6892 17.3494 12.7877 17.0408 13.0332 16.9092C13.2624 16.7867 13.5477 16.8557 13.7217 17.0488C13.7235 17.0509 13.7257 17.0526 13.7275 17.0547C13.8491 17.1864 14.014 17.3012 14.2217 17.3975C14.4293 17.4935 14.6989 17.541 15.0303 17.541C15.481 17.541 15.8537 17.4312 16.1475 17.2109C16.4412 16.9932 16.5888 16.6487 16.5889 16.1777V15.0586C16.5888 15.0323 16.5673 15.011 16.541 15.0107C16.5237 15.0107 16.5078 15.0203 16.499 15.0352C16.434 15.1461 16.3431 15.2731 16.2275 15.417C16.1034 15.569 15.9286 15.7038 15.7031 15.8203C15.4803 15.9342 15.1854 15.9912 14.8184 15.9912C14.3523 15.9912 13.9329 15.8819 13.5605 15.6641C13.1907 15.4437 12.8979 15.1209 12.6826 14.6953C12.4673 14.2698 12.3594 13.7506 12.3594 13.1377C12.3594 12.5297 12.4646 12.0038 12.6748 11.5605C12.885 11.1148 13.1765 10.7719 13.5488 10.5312C13.9212 10.2906 14.3479 10.17 14.8291 10.1699ZM8.94434 10.1699C9.15454 10.1699 9.38641 10.1954 9.63965 10.2461C9.89289 10.2942 10.1334 10.3894 10.3613 10.5312C10.5918 10.6706 10.7822 10.8768 10.9316 11.1504C11.081 11.4214 11.1553 11.7785 11.1553 12.2217V15.5811C11.1551 15.8578 10.9311 16.0819 10.6543 16.082H10.5498C10.3306 16.082 10.1525 15.9047 10.1523 15.6855V15.3164C10.1523 15.3009 10.1395 15.2881 10.124 15.2881C10.1134 15.2882 10.1034 15.2942 10.0986 15.3037C10.0324 15.4355 9.92985 15.5711 9.79102 15.71C9.64668 15.8517 9.45846 15.9726 9.22559 16.0713C8.99254 16.1675 8.70977 16.2148 8.37793 16.2148C8.00811 16.2148 7.67252 16.1452 7.37109 16.0059C7.07225 15.8665 6.83354 15.6658 6.65625 15.4023C6.48153 15.1364 6.39457 14.812 6.39453 14.4297C6.39453 14.0979 6.45876 13.8264 6.58789 13.6162C6.71959 13.4035 6.8945 13.2358 7.1123 13.1143C7.33016 12.9927 7.57289 12.9016 7.83887 12.8408C8.10461 12.7801 8.37414 12.7331 8.64746 12.7002C8.99957 12.6546 9.28508 12.6191 9.50293 12.5938C9.72317 12.5684 9.88407 12.527 9.98535 12.4688C10.0865 12.4105 10.1376 12.3106 10.1377 12.1689V12.1377C10.1376 11.7858 10.0397 11.5123 9.84473 11.3174C9.64967 11.1223 9.3569 11.0244 8.9668 11.0244C8.56168 11.0244 8.24414 11.1138 8.01367 11.291C7.92226 11.3613 7.84138 11.4343 7.77148 11.5098C7.6004 11.6946 7.34666 11.8211 7.10449 11.752C6.81756 11.6699 6.65763 11.3517 6.8291 11.1074C6.92357 10.9729 7.03053 10.8552 7.15039 10.7549C7.40113 10.5447 7.68125 10.3953 7.99023 10.3066C8.30181 10.2154 8.62009 10.1699 8.94434 10.1699ZM9.89746 13.3047C9.77596 13.3401 9.63638 13.3702 9.47949 13.3955C9.32527 13.4208 9.17359 13.4436 9.02441 13.4639C8.87751 13.4816 8.75543 13.4971 8.65918 13.5098C8.43373 13.5402 8.22474 13.5884 8.03223 13.6543C7.84224 13.7202 7.68879 13.8181 7.57227 13.9473C7.45847 14.0739 7.40137 14.2448 7.40137 14.46C7.40141 14.7563 7.51208 14.9809 7.73242 15.1328C7.95273 15.2821 8.2317 15.3564 8.56836 15.3564C8.90503 15.3564 9.18992 15.2908 9.42285 15.1592C9.6559 15.0275 9.83349 14.8558 9.95508 14.6455C10.079 14.4354 10.1406 14.2115 10.1406 13.9736V13.46C10.1406 13.362 9.99154 13.2772 9.89746 13.3047ZM15.0039 11.0557C14.6443 11.0557 14.3441 11.1481 14.1035 11.333C13.863 11.5178 13.6821 11.7658 13.5605 12.0771C13.4415 12.3887 13.3819 12.7371 13.3818 13.1221C13.3818 13.5172 13.4429 13.8642 13.5645 14.1631C13.6886 14.462 13.8693 14.6965 14.1074 14.8662C14.348 15.0334 14.6468 15.1172 15.0039 15.1172C15.3483 15.1172 15.6385 15.0388 15.874 14.8818C16.1121 14.7222 16.2938 14.4923 16.418 14.1934C16.5419 13.8946 16.6035 13.5373 16.6035 13.1221C16.6035 12.7143 16.5425 12.3559 16.4209 12.0469C16.2993 11.738 16.1199 11.496 15.8818 11.3213C15.6437 11.144 15.3509 11.0557 15.0039 11.0557Z" fill="black" fill-opacity="0.9"/>
</g>
</svg>
