<svg width="24" height="24" viewBox="0 0 24 24" fill="none" xmlns="http://www.w3.org/2000/svg">
<g id="icon.24.border-top-left-bottom.small">
<path id="Icon" d="M17 6C17.5523 6 18 6.44772 18 7V8C18 8.55228 17.5523 9 17 9H9V15H17C17.5523 15 18 15.4477 18 16V17C18 17.5523 17.5523 18 17 18H7C6.44772 18 6 17.5523 6 17V7C6 6.44772 6.44772 6 7 6H17ZM7 17H17V16H8V8H17V7H7V17ZM16.5 12.5C16.7761 12.5 17 12.7239 17 13V14C17 14.2761 16.7761 14.5 16.5 14.5C16.2239 14.5 16 14.2761 16 14V13C16 12.7239 16.2239 12.5 16.5 12.5ZM16.5 9.5C16.7761 9.5 17 9.72386 17 10V11C17 11.2761 16.7761 11.5 16.5 11.5C16.2239 11.5 16 11.2761 16 11V10C16 9.72386 16.2239 9.5 16.5 9.5Z" fill="black" fill-opacity="0.9"/>
</g>
</svg>
