<svg width="24" height="24" viewBox="0 0 24 24" fill="none" xmlns="http://www.w3.org/2000/svg">
<g id="icon.24.hand">
<path id="Icon" d="M12.001 3C12.8728 3 13.612 3.55869 13.8857 4.33691C14.2037 4.12382 14.5865 4 14.998 4C16.1026 4 16.998 4.89543 16.998 6V6.27148C17.2931 6.09992 17.6351 6 18.001 6C19.1055 6 20.001 6.89543 20.001 8V8.5H20.0107L20.0117 13.3623L20.0059 13.5059C20.0025 13.5532 19.9978 13.6001 19.9912 13.6465C19.7057 17.6793 16.3437 20.8622 12.2383 20.8623L11.8613 20.8564C8.08408 20.7327 6.82258 18.7688 6.80078 18.7344C6.80064 18.7342 4.17353 15.1868 3.6084 14.2178C3.07875 13.3095 2.5679 12.3093 3.15918 11.5537L3.29297 11.4053C4.08605 10.6361 5.19161 10.9006 5.99805 11.6553L7.00098 12.6045V6C7.00098 4.89543 7.89641 4 9.00098 4C9.41318 4 9.79597 4.12513 10.1143 4.33887C10.3874 3.55941 11.1283 3 12.001 3ZM12.001 4C11.4487 4 11.001 4.44772 11.001 5V10C11.001 10.2761 10.7771 10.5 10.501 10.5C10.2248 10.5 10.001 10.2761 10.001 10V6C10.001 5.44772 9.55326 5 9.00098 5C8.44869 5 8.00098 5.44772 8.00098 6V12.6045C8.0009 13.0038 7.76319 13.3645 7.39648 13.5225C7.02983 13.6804 6.60465 13.6052 6.31445 13.3311L5.31055 12.3828V12.3818C5.02247 12.1136 4.72949 11.9804 4.50586 11.9502C4.31378 11.9243 4.15135 11.9659 3.98926 12.123C3.92405 12.1863 3.90913 12.2286 3.90234 12.2578C3.89291 12.2987 3.88676 12.3793 3.91797 12.5205C3.98726 12.8336 4.18417 13.2192 4.47266 13.7139C4.72478 14.1462 5.48768 15.2287 6.22754 16.2539C6.58919 16.755 6.93343 17.227 7.1875 17.5732C7.31444 17.7463 7.41873 17.8881 7.49121 17.9863C7.52741 18.0354 7.55603 18.0737 7.5752 18.0996C7.58467 18.1124 7.59181 18.1223 7.59668 18.1289C7.59913 18.1322 7.60132 18.1351 7.60254 18.1367L7.60352 18.1387H7.60449L7.64062 18.1914L7.66016 18.2188C7.68451 18.2506 7.73019 18.3064 7.79883 18.3789C7.9359 18.5236 8.16634 18.7349 8.51172 18.9521C9.19406 19.3813 10.3686 19.8623 12.2383 19.8623C15.8151 19.8622 18.7454 17.0891 18.9941 13.5762L19.001 13.5059C19.0075 13.4598 19.0117 13.4122 19.0117 13.3633L19.0107 8.62012H19.001V8C19.001 7.44772 18.5533 7 18.001 7C17.4487 7 17.001 7.44772 17.001 8V10C17.001 10.2761 16.7771 10.5 16.501 10.5C16.2248 10.5 16.001 10.2761 16.001 10V8.62012H15.998V6C15.998 5.44772 15.5503 5 14.998 5C14.4664 5 14.0328 5.41488 14.001 5.93848V10C14.001 10.2761 13.7771 10.5 13.501 10.5C13.2248 10.5 13.001 10.2761 13.001 10V8.62012H12.998V6C12.998 5.98136 13.0005 5.96285 13.001 5.94434V5C13.001 4.44772 12.5533 4 12.001 4Z" fill="black" fill-opacity="0.9"/>
</g>
</svg>
