<svg width="24" height="24" viewBox="0 0 24 24" fill="none" xmlns="http://www.w3.org/2000/svg">
<g id="icon.24.count-polygon">
<path id="Icon" d="M12 15C12.5523 15 13 15.4477 13 16C13 16.5523 12.5523 17 12 17C11.4477 17 11 16.5523 11 16C11 15.4477 11.4477 15 12 15ZM8 11C8.55228 11 9 11.4477 9 12C9 12.5523 8.55228 13 8 13C7.44772 13 7 12.5523 7 12C7 11.4477 7.44772 11 8 11ZM16 11C16.5523 11 17 11.4477 17 12C17 12.5523 16.5523 13 16 13C15.4477 13 15 12.5523 15 12C15 11.4477 15.4477 11 16 11ZM12 7C12.5523 7 13 7.44772 13 8C13 8.55228 12.5523 9 12 9C11.4477 9 11 8.55228 11 8C11 7.44772 11.4477 7 12 7Z" fill="black" fill-opacity="0.9"/>
</g>
</svg>
