<svg width="24" height="24" viewBox="0 0 24 24" fill="none" xmlns="http://www.w3.org/2000/svg">
<g id="icon.24.restart">
<path id="Icon" d="M8.14648 5.14648C8.34175 4.95122 8.65825 4.95122 8.85352 5.14648C9.04878 5.34175 9.04878 5.65825 8.85352 5.85352L6.70703 8H14L14.2568 8.00684C16.8988 8.14064 19 10.3248 19 13C19 15.7614 16.7613 17.9999 14 18C11.81 17.9999 9.94791 16.5921 9.27148 14.6318C9.16513 14.3236 9.41026 14.0225 9.73633 14.0225C9.96984 14.0225 10.1712 14.1816 10.2529 14.4004C10.8205 15.9187 12.2837 16.9999 14 17C16.209 16.9999 18 15.2091 18 13C18 10.86 16.3193 9.11222 14.2061 9.00488L14 9H6.70703L8.85352 11.1465C9.04878 11.3417 9.04878 11.6583 8.85352 11.8535C8.65825 12.0488 8.34175 12.0488 8.14648 11.8535L5.14648 8.85352C4.95122 8.65825 4.95122 8.34175 5.14648 8.14648L8.14648 5.14648Z" fill="black" fill-opacity="0.9"/>
</g>
</svg>
