<svg width="24" height="24" viewBox="0 0 24 24" fill="none" xmlns="http://www.w3.org/2000/svg">
<g id="icon.24.wand">
<path id="Icon" d="M12.1465 12.1465C12.3417 11.9512 12.6583 11.9512 12.8535 12.1465L19.8535 19.1465C20.0488 19.3417 20.0488 19.6582 19.8535 19.8535C19.6582 20.0488 19.3417 20.0488 19.1465 19.8535L12.1465 12.8535C11.9512 12.6583 11.9512 12.3417 12.1465 12.1465ZM5 13C5.55228 13 6 13.4477 6 14C6 14.5523 5.55228 15 5 15C4.44772 15 4 14.5523 4 14C4 13.4477 4.44772 13 5 13ZM9.5 4C9.77614 4 10 4.22386 10 4.5V9H14.5C14.7761 9 15 9.22386 15 9.5C15 9.77614 14.7761 10 14.5 10H10V14.5C10 14.7761 9.77614 15 9.5 15C9.22386 15 9 14.7761 9 14.5V10H4.5C4.22386 10 4 9.77614 4 9.5C4 9.22386 4.22386 9 4.5 9H9V4.5C9 4.22386 9.22386 4 9.5 4ZM5 4C5.55228 4 6 4.44772 6 5C6 5.55228 5.55228 6 5 6C4.44772 6 4 5.55228 4 5C4 4.44772 4.44772 4 5 4ZM14 4C14.5523 4 15 4.44772 15 5C15 5.55228 14.5523 6 14 6C13.4477 6 13 5.55228 13 5C13 4.44772 13.4477 4 14 4Z" fill="black" fill-opacity="0.9"/>
</g>
</svg>
