<svg width="24" height="24" viewBox="0 0 24 24" fill="none" xmlns="http://www.w3.org/2000/svg">
<g id="icon.24.drop.shadow.bottom.left.small">
<path id="Icon" d="M17 5C18.1046 5 19 5.89543 19 7V17C19 18.1046 18.1046 19 17 19H7C5.89543 19 5 18.1046 5 17V7C5 5.89543 5.89543 5 7 5H17ZM7 6C6.44772 6 6 6.44772 6 7V17C6 17.5523 6.44772 18 7 18H17C17.5523 18 18 17.5523 18 17V7C18 6.44772 17.5523 6 17 6H7Z" fill="black" fill-opacity="0.9"/>
<path id="Subtract" d="M5 7V17C5 18.1046 5.89543 19 7 19H17C17 20.1046 16.1046 21 15 21H5C3.89543 21 3 20.1046 3 19V9C3 7.89543 3.89543 7 5 7Z" fill="black" fill-opacity="0.3"/>
</g>
</svg>
