<svg width="24" height="24" viewBox="0 0 24 24" fill="none" xmlns="http://www.w3.org/2000/svg">
<g id="icon.24.drop.shadow.top.right.small">
<path id="Icon" d="M17 5C18.1046 5 19 5.89543 19 7V17C19 18.1046 18.1046 19 17 19H7C5.89543 19 5 18.1046 5 17V7C5 5.89543 5.89543 5 7 5H17ZM7 6C6.44772 6 6 6.44772 6 7V17C6 17.5523 6.44772 18 7 18H17C17.5523 18 18 17.5523 18 17V7C18 6.44772 17.5523 6 17 6H7Z" fill="black" fill-opacity="0.9"/>
<path id="Subtract" d="M19 3C20.1046 3 21 3.89543 21 5V15C21 16.0357 20.2128 16.887 19.2041 16.9893L19 17V7C19 5.89543 18.1046 5 17 5H7C7 3.89543 7.89543 3 9 3H19Z" fill="black" fill-opacity="0.3"/>
</g>
</svg>
