<svg width="24" height="24" viewBox="0 0 24 24" fill="none" xmlns="http://www.w3.org/2000/svg">
<g id="icon.24.slides">
<path id="Icon" d="M19 5C20.1046 5 21 5.89543 21 7V15L20.9893 15.2041C20.8938 16.1457 20.1457 16.8938 19.2041 16.9893L19 17H17.0176L17.9629 19.3105C18.0674 19.5661 17.9449 19.8583 17.6895 19.9629C17.4339 20.0673 17.1417 19.9449 17.0371 19.6895L15.9375 17H8.0625L6.96289 19.6895C6.85835 19.945 6.5661 20.0673 6.31055 19.9629C6.05518 19.8583 5.93265 19.566 6.03711 19.3105L6.98242 17H5L4.7959 16.9893C3.85435 16.8938 3.1062 16.1457 3.01074 15.2041L3 15V7C3 5.89543 3.89543 5 5 5H19ZM5 6C4.48232 6 4.05621 6.39333 4.00488 6.89746L4 7V15C4 15.5523 4.44772 16 5 16H19C19.5523 16 20 15.5523 20 15V7C20 6.44772 19.5523 6 19 6H5ZM7 12C7.55228 12 8 12.4477 8 13C8 13.5523 7.55228 14 7 14C6.44772 14 6 13.5523 6 13C6 12.4477 6.44772 12 7 12ZM7 8C7.55228 8 8 8.44772 8 9C8 9.55228 7.55228 10 7 10C6.44772 10 6 9.55228 6 9C6 8.44772 6.44772 8 7 8Z" fill="black" fill-opacity="0.9"/>
</g>
</svg>
