<svg width="24" height="24" viewBox="0 0 24 24" fill="none" xmlns="http://www.w3.org/2000/svg">
<g id="icon.24.link.small">
<path id="Icon" d="M12.8535 15.1463C13.0487 15.3413 13.0495 15.658 12.8549 15.8535L11.6782 17.0315C10.3789 18.3331 8.27014 18.3338 6.96944 17.0336C5.67107 15.7348 5.66972 13.6298 6.96667 12.3297L8.14611 11.1461C8.34109 10.951 8.65781 10.9514 8.85321 11.1461C9.0484 11.341 9.04925 11.6577 8.8546 11.8532L7.67447 13.0347C6.76696 13.9443 6.76805 15.4179 7.67654 16.3265C8.58659 17.2364 10.0628 17.2361 10.9718 16.3251L12.1464 15.1463C12.3414 14.9512 12.6581 14.9514 12.8535 15.1463ZM14.354 9.64625C14.5492 9.84144 14.549 10.1581 14.354 10.3534L10.3537 14.3536C10.1585 14.5486 9.84182 14.5488 9.64664 14.3536C9.45147 14.1584 9.45164 13.8418 9.64664 13.6465L13.6469 9.64625C13.8422 9.45121 14.1588 9.45106 14.354 9.64625ZM17.0174 6.9732C18.3134 8.2692 18.3182 10.3696 17.0278 11.6709L15.8552 12.8531C15.6607 13.0487 15.344 13.0488 15.1481 12.8545C14.9523 12.66 14.951 12.3433 15.1454 12.1474L16.3172 10.9672C17.2202 10.0569 17.217 8.58701 16.3103 7.6803C15.3984 6.7687 13.9198 6.77253 13.0116 7.6879L11.855 8.85283C11.6605 9.0483 11.3445 9.04892 11.1486 8.8549C10.9526 8.6604 10.9507 8.3431 11.1451 8.1471L12.3017 6.98217C13.6 5.67418 15.7141 5.67016 17.0174 6.9732Z" fill="black" fill-opacity="0.9"/>
</g>
</svg>
