<svg width="24" height="24" viewBox="0 0 24 24" fill="none" xmlns="http://www.w3.org/2000/svg">
<g id="icon.24.lock.open.small">
<g id="Icon">
<mask id="path-1-inside-1_1027518_8339" fill="white">
<path d="M12 5C13.6569 5 15 6.34315 15 8V8.5C15 8.77614 14.7761 9 14.5 9C14.2239 9 14 8.77614 14 8.5V8C14 6.89543 13.1046 6 12 6C10.8954 6 10 6.89543 10 8V11H15.5C16.3284 11 17 11.6716 17 12.5V16.5C17 17.3284 16.3284 18 15.5 18H8.5C7.67157 18 7 17.3284 7 16.5V12.5C7 11.6716 7.67157 11 8.5 11H9V8C9 6.34315 10.3431 5 12 5Z"/>
</mask>
<path d="M10 8L9 8V8H10ZM10 11H9V12H10V11ZM17 12.5L18 12.5L17 12.5ZM17 16.5L18 16.5V16.5H17ZM15.5 18L15.5 19H15.5L15.5 18ZM7 16.5L6 16.5L7 16.5ZM7 12.5L6 12.5V12.5H7ZM8.5 11L8.5 10H8.5L8.5 11ZM9 11V12H10V11H9ZM9 8L8 8V8H9ZM12 5V6C13.1046 6 14 6.89543 14 8H15H16C16 5.79086 14.2091 4 12 4V5ZM15 8H14V8.5H15H16V8H15ZM15 8.5H14C14 8.22386 14.2239 8 14.5 8V9V10C15.3284 10 16 9.32843 16 8.5H15ZM14.5 9V8C14.7761 8 15 8.22386 15 8.5H14H13C13 9.32843 13.6716 10 14.5 10V9ZM14 8.5H15V8H14H13V8.5H14ZM14 8H15C15 6.34315 13.6569 5 12 5V6V7C12.5523 7 13 7.44772 13 8H14ZM12 6V5C10.3431 5 9 6.34315 9 8L10 8L11 8C11 7.44772 11.4477 7 12 7V6ZM10 8H9V11H10H11V8H10ZM10 11V12H15.5V11V10H10V11ZM15.5 11V12C15.7761 12 16 12.2239 16 12.5L17 12.5L18 12.5C18 11.1193 16.8807 10 15.5 10V11ZM17 12.5H16V16.5H17H18V12.5H17ZM17 16.5L16 16.5C16 16.7761 15.7761 17 15.5 17L15.5 18L15.5 19C16.8807 19 18 17.8807 18 16.5L17 16.5ZM15.5 18V17H8.5V18V19H15.5V18ZM8.5 18V17C8.22386 17 8 16.7761 8 16.5L7 16.5L6 16.5C6 17.8807 7.11929 19 8.5 19V18ZM7 16.5H8V12.5H7H6V16.5H7ZM7 12.5L8 12.5C8 12.2239 8.22386 12 8.5 12L8.5 11L8.5 10C7.11929 10 6 11.1193 6 12.5L7 12.5ZM8.5 11V12H9V11V10H8.5V11ZM9 11H10V8H9H8V11H9ZM9 8L10 8C10 6.89543 10.8954 6 12 6V5V4C9.79086 4 8 5.79086 8 8L9 8Z" fill="black" fill-opacity="0.9" mask="url(#path-1-inside-1_1027518_8339)"/>
</g>
</g>
</svg>
