<svg width="24" height="24" viewBox="0 0 24 24" fill="none" xmlns="http://www.w3.org/2000/svg">
<g id="icon.24.eyedropper.small">
<path id="Icon" d="M14.5156 5.76709C15.5386 4.73901 17.203 4.7367 18.2285 5.76221C19.25 6.78399 19.2513 8.43996 18.2324 9.46436L16.6602 11.0435C17.0848 11.771 16.9869 12.7196 16.3633 13.3433L16.3438 13.3638C15.6018 14.1055 14.3982 14.1054 13.6562 13.3638L13.5 13.2075L7.85352 18.8481C7.75978 18.9418 7.63252 18.9946 7.5 18.9946H5.50391C5.22841 18.9944 5.00451 18.7712 5.00391 18.4956L5 16.5005C4.99979 16.3678 5.05181 16.2399 5.14551 16.146L10.792 10.4995L10.6367 10.3433C9.89467 9.60127 9.8947 8.39778 10.6367 7.65576L10.6562 7.63623C11.2789 7.01362 12.2251 6.91514 12.9521 7.3374L14.5156 5.76709ZM6.00098 16.7056L6.00391 17.9937H7.29297L12.793 12.5005L11.499 11.2065L6.00098 16.7056ZM17.5205 6.46924C16.8863 5.8355 15.8572 5.83673 15.2246 6.47217L13.3545 8.35205L13.001 8.70752L12.6367 8.34326C12.2852 7.99183 11.7147 7.99181 11.3633 8.34326L11.3438 8.36279C10.9923 8.71427 10.9923 9.28476 11.3438 9.63623L14.3633 12.6558C14.7147 13.0073 15.2852 13.0072 15.6367 12.6558L15.6562 12.6362C16.0077 12.2848 16.0077 11.7143 15.6562 11.3628L15.2939 11.0005L15.6455 10.647L17.5234 8.75928C18.1538 8.12571 18.1523 7.10128 17.5205 6.46924Z" fill="black" fill-opacity="0.9"/>
</g>
</svg>
