<svg width="24" height="24" viewBox="0 0 24 24" fill="none" xmlns="http://www.w3.org/2000/svg">
<g id="icon.24.exposure.small">
<path id="Secondary Fill" d="M11.5 16.9739C11.4987 16.9737 11.4974 16.974 11.4961 16.9739C11.2638 16.9506 11.0363 16.9116 10.8145 16.8577C10.8099 16.8566 10.8053 16.8558 10.8008 16.8547C10.6663 16.8216 10.5342 16.7823 10.4043 16.7385C9.86906 16.5584 9.37448 16.2906 8.9375 15.9514C8.6157 15.7018 8.32553 15.4136 8.07324 15.094C8.00307 15.0051 7.9352 14.9142 7.87109 14.8206C7.80275 14.7207 7.73885 14.6178 7.67773 14.5129C7.24749 13.7745 7.00005 12.9165 7 12.0002C7 10.7922 7.42838 9.68386 8.1416 8.81958L8.30273 8.63403C8.36384 8.56695 8.42658 8.50141 8.49121 8.43774C9.28242 7.65833 10.3321 7.14061 11.5 7.02466V16.9739Z" fill="black" fill-opacity="0.3"/>
<path id="Icon" d="M12 4C12.2761 4 12.5 4.22386 12.5 4.5V6C12.5 6.00723 12.4974 6.01433 12.4971 6.02148C13.7796 6.12663 14.9471 6.63512 15.874 7.41992C15.879 7.41451 15.8834 7.40857 15.8887 7.40332L16.9502 6.34277C17.1455 6.14792 17.4621 6.14765 17.6572 6.34277C17.8524 6.5379 17.8521 6.85451 17.6572 7.0498L16.5967 8.11133C16.5914 8.11659 16.5845 8.12002 16.5791 8.125C17.3643 9.05185 17.8721 10.2193 17.9775 11.502C17.985 11.5016 17.9925 11.5 18 11.5H19.5C19.7761 11.5 20 11.7239 20 12C20 12.2761 19.7761 12.5 19.5 12.5H18C17.9924 12.5 17.985 12.4974 17.9775 12.4971C17.8723 13.7798 17.3642 14.947 16.5791 15.874C16.5847 15.8791 16.5913 15.8833 16.5967 15.8887L17.6572 16.9502C17.8521 17.1455 17.8524 17.4621 17.6572 17.6572C17.4621 17.8524 17.1455 17.8521 16.9502 17.6572L15.8887 16.5967C15.8833 16.5913 15.8791 16.5847 15.874 16.5791C14.947 17.3641 13.7798 17.8724 12.4971 17.9775C12.4974 17.985 12.5 17.9924 12.5 18V19.5C12.5 19.7761 12.2761 20 12 20C11.7239 19.9999 11.5 19.7761 11.5 19.5V18C11.5 17.9925 11.5016 17.985 11.502 17.9775C10.2194 17.8721 9.0518 17.3642 8.125 16.5791C8.12002 16.5845 8.11659 16.5914 8.11133 16.5967L7.0498 17.6572C6.85451 17.8521 6.5379 17.8524 6.34277 17.6572C6.14765 17.4621 6.14792 17.1455 6.34277 16.9502L7.40332 15.8887C7.40857 15.8834 7.41451 15.879 7.41992 15.874C6.63516 14.9471 6.12668 13.7796 6.02148 12.4971C6.01433 12.4974 6.00723 12.5 6 12.5H4.5C4.22386 12.5 4 12.2761 4 12C4 11.7239 4.22386 11.5 4.5 11.5H6C6.00722 11.5 6.01434 11.5017 6.02148 11.502C6.12687 10.2196 6.63508 9.05176 7.41992 8.125C7.41467 8.12018 7.40841 8.11642 7.40332 8.11133L6.34277 7.0498C6.14792 6.85451 6.14765 6.5379 6.34277 6.34277C6.5379 6.14765 6.85451 6.14792 7.0498 6.34277L8.11133 7.40332C8.11642 7.40841 8.12018 7.41467 8.125 7.41992C9.05174 6.63501 10.2196 6.12693 11.502 6.02148C11.5017 6.01434 11.5 6.00722 11.5 6V4.5C11.5 4.2239 11.7239 4.00006 12 4ZM11.5 7.02441C8.97344 7.27538 7 9.4074 7 12C7 14.5926 8.97349 16.7236 11.5 16.9746V7.02441ZM12.5 16.9746C15.0267 16.7238 17 14.5927 17 12C17 9.40723 15.0268 7.27515 12.5 7.02441V16.9746Z" fill="black" fill-opacity="0.9"/>
</g>
</svg>
