<svg width="24" height="24" viewBox="0 0 24 24" fill="none" xmlns="http://www.w3.org/2000/svg">
<g id="icon.24.interactive.small">
<path id="Icon" d="M12.6484 11.0576C13.2705 11.1209 13.7751 11.5776 13.9121 12.1748C14.0918 12.095 14.2907 12.0498 14.5 12.0498C15.1888 12.0499 15.7644 12.5308 15.9121 13.1748C16.0918 13.095 16.2907 13.0498 16.5 13.0498C17.3007 13.05 17.9502 13.6993 17.9502 14.5V15.8984C17.9543 15.9343 17.957 15.9704 17.957 16.0068C17.9571 16.039 17.9575 16.0746 17.958 16.1182C17.9616 16.4342 17.976 17.0547 17.7549 17.6895C17.518 18.3695 17.0265 19.0301 16.123 19.4561C15.6537 19.6773 14.8474 19.9331 13.9395 19.9629C13.0225 19.9929 11.9167 19.7926 10.9814 18.9961C10.5262 18.6083 9.17393 17.3574 8.66797 16.8877C8.08115 16.3429 8.04702 15.4258 8.5918 14.8389C9.13348 14.2556 10.0427 14.219 10.6299 14.7539H10.6309L11.0508 15.1328V12.5C11.0508 11.6993 11.6993 11.05 12.5 11.0498L12.6484 11.0576ZM12.5 12C12.224 12.0002 12 12.224 12 12.5V15.8984C12 16.3228 11.3922 16.7503 11.0908 16.4492L9.99414 15.459C9.79181 15.2713 9.47593 15.2832 9.28809 15.4854C9.10023 15.6877 9.11209 16.0035 9.31445 16.1914C9.82923 16.6693 11.1625 17.9028 11.5977 18.2734C12.9124 19.3931 14.7381 19.0026 15.5664 18.6641L15.7188 18.5977C17.0291 17.9796 17.0152 16.7828 17.0078 16.1289C17.0073 16.0865 17.0069 16.0463 17.0068 16.0088C17.0068 16.0057 17.006 16.0022 17.0039 16L17 15.9922V14.5C17 14.224 16.776 14.0002 16.5 14C16.224 14.0002 16 14.224 16 14.5V15.5C16 15.776 15.776 15.9998 15.5 16C15.224 15.9998 15 15.776 15 15.5V13.5C15 13.224 14.776 13.0002 14.5 13C14.224 13.0002 14 13.224 14 13.5V15.5C14 15.776 13.776 15.9998 13.5 16C13.224 15.9998 13 15.776 13 15.5V12.5C13 12.224 12.776 12.0002 12.5 12ZM12.5 5C15.8137 5 18.5 7.68629 18.5 11C18.5 11.2761 18.2761 11.5 18 11.5C17.7239 11.5 17.5 11.2761 17.5 11C17.5 8.23858 15.2614 6 12.5 6C9.73858 6 7.5 8.23858 7.5 11C7.5 11.6194 7.61233 12.2117 7.81738 12.7578C7.91421 13.0162 7.78367 13.3043 7.52539 13.4014C7.26695 13.4984 6.97802 13.3677 6.88086 13.1094C6.63424 12.4526 6.5 11.7413 6.5 11C6.5 7.68629 9.18629 5 12.5 5ZM12.5 7C14.2187 7 15.6827 8.08386 16.249 9.60352C16.3454 9.86225 16.2138 10.1497 15.9551 10.2461C15.6963 10.3424 15.4089 10.2109 15.3125 9.95215C14.8872 8.81118 13.7875 8 12.5 8C10.8431 8 9.5 9.34315 9.5 11C9.5 11.093 9.50447 11.1848 9.5127 11.2754C9.53769 11.5504 9.33458 11.7934 9.05957 11.8184C8.78465 11.8433 8.54163 11.6411 8.5166 11.3662C8.50563 11.2455 8.5 11.1233 8.5 11C8.5 8.79086 10.2909 7 12.5 7Z" fill="black" fill-opacity="0.9"/>
</g>
</svg>
