<svg width="24" height="24" viewBox="0 0 24 24" fill="none" xmlns="http://www.w3.org/2000/svg">
<g id="icon.24.settings">
<path id="Icon" d="M12 3C12.412 3.00002 12.8186 3.02815 13.2168 3.08203C14.0182 3.19072 14.4441 3.86716 14.5137 4.44238C14.5868 5.04881 14.9335 5.61043 15.5 5.9375C16.0664 6.26439 16.7255 6.28369 17.2871 6.04395C17.7863 5.831 18.5191 5.84414 19.0166 6.37207L19.1123 6.48535L19.2949 6.72852C19.7107 7.30307 20.0606 7.92945 20.333 8.5957C20.6389 9.34414 20.2651 10.051 19.8018 10.3984C19.313 10.765 19 11.3457 19 12C19 12.6543 19.313 13.235 19.8018 13.6016C20.2651 13.949 20.6389 14.6559 20.333 15.4043C20.0216 16.1658 19.6089 16.875 19.1123 17.5146C18.6172 18.1524 17.8196 18.1832 17.2871 17.9561C16.7255 17.7163 16.0664 17.7356 15.5 18.0625C14.9335 18.3896 14.5868 18.9512 14.5137 19.5576C14.4441 20.1328 14.0182 20.8093 13.2168 20.918C12.8186 20.9718 12.412 21 12 21C11.588 21 11.1815 20.9718 10.7832 20.918C9.98154 20.8095 9.5559 20.1329 9.48633 19.5576C9.41325 18.9514 9.0662 18.3896 8.5 18.0625C7.93368 17.7355 7.27354 17.7164 6.71191 17.9561C6.1795 18.1831 5.38177 18.1521 4.88672 17.5146C4.39021 16.8751 3.97741 16.1657 3.66602 15.4043C3.3602 14.6558 3.73389 13.9489 4.19727 13.6016L4.37207 13.4551C4.75973 13.0894 5 12.5727 5 12C4.99999 11.3457 4.68613 10.7649 4.19727 10.3984C3.73388 10.0511 3.36017 9.34421 3.66602 8.5957L3.78809 8.3125C4.08243 7.65795 4.45226 7.04502 4.88672 6.48535L4.9834 6.37207C5.48083 5.84457 6.21286 5.83114 6.71191 6.04395C7.27354 6.28361 7.93367 6.26447 8.5 5.9375C9.06621 5.61038 9.41325 5.04864 9.48633 4.44238L9.50293 4.33398C9.6098 3.78502 10.0314 3.18375 10.7832 3.08203L11.083 3.0459C11.3846 3.01535 11.6909 3 12 3ZM12 4C11.6329 4 11.271 4.02439 10.917 4.07227C10.6751 4.10501 10.5077 4.32013 10.4785 4.5625C10.3694 5.4678 9.85035 6.31257 9 6.80371C8.14962 7.29468 7.15791 7.32176 6.31934 6.96387C6.0953 6.86843 5.82617 6.90635 5.67676 7.09863C5.23521 7.66743 4.86837 8.29735 4.5918 8.97363C4.49952 9.1993 4.60192 9.45129 4.79688 9.59766C5.52683 10.1449 5.99999 11.0175 6 12C6 12.9825 5.52683 13.8551 4.79688 14.4023C4.60191 14.5487 4.49951 14.8007 4.5918 15.0264C4.86837 15.7026 5.23521 16.3326 5.67676 16.9014C5.82617 17.0937 6.0953 17.1316 6.31934 17.0361C7.1579 16.6782 8.14962 16.7053 9 17.1963C9.85035 17.6874 10.3694 18.5322 10.4785 19.4375C10.5077 19.6799 10.6751 19.895 10.917 19.9277C11.271 19.9756 11.6329 20 12 20C12.367 20 12.7291 19.9756 13.083 19.9277C13.3245 19.8947 13.4913 19.6796 13.5205 19.4375C13.6297 18.5321 14.1494 17.6874 15 17.1963C15.8504 16.7055 16.8412 16.6782 17.6797 17.0361C17.9038 17.1317 18.1728 17.0938 18.3223 16.9014C18.7638 16.3326 19.1306 15.7027 19.4072 15.0264C19.4995 14.8007 19.3972 14.5487 19.2021 14.4023C18.4721 13.8551 18 12.9826 18 12C18 11.0174 18.4721 10.1449 19.2021 9.59766C19.3972 9.45133 19.4995 9.19934 19.4072 8.97363C19.1306 8.29734 18.7638 7.66744 18.3223 7.09863C18.1728 6.90617 17.9038 6.86831 17.6797 6.96387C16.8412 7.3218 15.8504 7.29454 15 6.80371C14.1494 6.31262 13.6297 5.46794 13.5205 4.5625C13.4913 4.32038 13.3245 4.10532 13.083 4.07227C12.7291 4.02438 12.367 4.00002 12 4ZM11.999 8.5C13.932 8.5 15.499 10.067 15.499 12C15.499 13.933 13.932 15.5 11.999 15.5C10.0662 15.4998 8.49902 13.9328 8.49902 12C8.49902 10.0672 10.0662 8.50024 11.999 8.5ZM11.999 9.5C10.6185 9.50024 9.49902 10.6194 9.49902 12C9.49902 13.3806 10.6185 14.4998 11.999 14.5C13.3797 14.5 14.499 13.3807 14.499 12C14.499 10.6193 13.3797 9.5 11.999 9.5Z" fill="black" fill-opacity="0.9"/>
</g>
</svg>
