<svg width="24" height="24" viewBox="0 0 24 24" fill="none" xmlns="http://www.w3.org/2000/svg">
<g id="icon.24.spacing.horizontal.small">
<path id="Icon" d="M12 6C12.2761 6 12.5 6.22386 12.5 6.5V17.5C12.5 17.7761 12.2761 18 12 18C11.7239 18 11.5 17.7761 11.5 17.5V6.5C11.5 6.22386 11.7239 6 12 6ZM9 8C9.55228 8 10 8.44772 10 9V15C10 15.5523 9.55228 16 9 16H7C6.44772 16 6 15.5523 6 15V9C6 8.44772 6.44772 8 7 8H9ZM17 8C17.5523 8 18 8.44772 18 9V15C18 15.5523 17.5523 16 17 16H15C14.4477 16 14 15.5523 14 15V9C14 8.44772 14.4477 8 15 8H17ZM7 15H9V9H7V15ZM15 15H17V9H15V15Z" fill="black" fill-opacity="0.9"/>
</g>
</svg>
