<svg width="24" height="24" viewBox="0 0 24 24" fill="none" xmlns="http://www.w3.org/2000/svg">
<g id="icon.24.cloud.offline">
<path id="Icon" d="M12.5 5C15.4105 5 17.7911 7.26085 17.9854 10.1221C19.718 10.561 21 12.1309 21 14C21 16.2091 19.2091 18 17 18H7.5V17.9746C4.97337 17.7237 3 15.5927 3 13C3 10.376 5.02134 8.22532 7.5918 8.01758C8.499 6.22742 10.3558 5 12.5 5ZM12.5 6C10.7474 6 9.22705 7.00231 8.4834 8.46973L8.23047 8.96875L7.67188 9.01465C5.61647 9.18102 4 10.9018 4 13C4 15.0733 5.57829 16.7788 7.59863 16.9795L7.80469 17H17C18.6569 17 20 15.6569 20 14C20 12.5996 19.0396 11.4212 17.7402 11.0918L17.0371 10.9131L16.9873 10.1895C16.8282 7.84914 14.8803 6 12.5 6ZM13.6465 10.1465C13.8417 9.95122 14.1583 9.95122 14.3535 10.1465C14.5488 10.3417 14.5488 10.6583 14.3535 10.8535L12.707 12.5L14.3535 14.1465C14.5488 14.3417 14.5488 14.6583 14.3535 14.8535C14.1583 15.0488 13.8417 15.0488 13.6465 14.8535L12 13.207L10.3535 14.8535C10.1583 15.0488 9.84175 15.0488 9.64648 14.8535C9.45122 14.6583 9.45122 14.3417 9.64648 14.1465L11.293 12.5L9.64648 10.8535C9.45122 10.6583 9.45122 10.3417 9.64648 10.1465C9.84175 9.95122 10.1583 9.95122 10.3535 10.1465L12 11.793L13.6465 10.1465Z" fill="black" fill-opacity="0.9"/>
</g>
</svg>
