<svg width="24" height="24" viewBox="0 0 24 24" fill="none" xmlns="http://www.w3.org/2000/svg">
<g id="icon.24.template">
<path id="Icon" d="M18 5C19.1046 5 20 5.89543 20 7V17L19.9893 17.2041C19.8938 18.1457 19.1457 18.8938 18.2041 18.9893L18 19H6L5.7959 18.9893C4.85435 18.8938 4.1062 18.1457 4.01074 17.2041L4 17V7C4 5.89543 4.89543 5 6 5H18ZM5 17C5 17.5523 5.44772 18 6 18H9V11H5V17ZM10 11V18H18C18.5523 18 19 17.5523 19 17V11H10ZM6 6C5.44772 6 5 6.44772 5 7V10H19V7C19 6.44772 18.5523 6 18 6H6Z" fill="black" fill-opacity="0.9"/>
</g>
</svg>
