<svg width="24" height="24" viewBox="0 0 24 24" fill="none" xmlns="http://www.w3.org/2000/svg">
<g id="icon.24.responsive.small">
<path id="Icon" d="M17.6533 6.00781C18.4097 6.08461 19 6.72334 19 7.5V16.5C19 17.2767 18.4097 17.9154 17.6533 17.9922L17.5 18H6.5C5.67157 18 5 17.3284 5 16.5V7.5C5 6.67157 5.67157 6 6.5 6H17.5L17.6533 6.00781ZM6.5 7C6.22386 7 6 7.22386 6 7.5V16.5C6 16.7761 6.22386 17 6.5 17H10V7H6.5ZM11 17H13V7H11V17ZM14 17H17.5C17.7761 17 18 16.7761 18 16.5V7.5C18 7.22386 17.7761 7 17.5 7H14V17ZM8.14648 10.6465C8.34175 10.4512 8.65825 10.4512 8.85352 10.6465C9.04878 10.8417 9.04878 11.1583 8.85352 11.3535L8.20703 12L8.85352 12.6465C9.04878 12.8417 9.04878 13.1583 8.85352 13.3535C8.65825 13.5488 8.34175 13.5488 8.14648 13.3535L7.14648 12.3535C6.95122 12.1583 6.95122 11.8417 7.14648 11.6465L8.14648 10.6465ZM15.1465 10.6465C15.3417 10.4512 15.6583 10.4512 15.8535 10.6465L16.8535 11.6465C17.0488 11.8417 17.0488 12.1583 16.8535 12.3535L15.8535 13.3535C15.6583 13.5488 15.3417 13.5488 15.1465 13.3535C14.9512 13.1583 14.9512 12.8417 15.1465 12.6465L15.793 12L15.1465 11.3535C14.9512 11.1583 14.9512 10.8417 15.1465 10.6465Z" fill="black" fill-opacity="0.9"/>
</g>
</svg>
