<svg width="24" height="24" viewBox="0 0 24 24" fill="none" xmlns="http://www.w3.org/2000/svg">
<g id="icon.24.warning.small">
<path id="Icon" d="M10.2568 6.05952C11.0214 4.70022 12.9785 4.70026 13.7432 6.05952L18.7832 15.0195C19.5331 16.3527 18.5697 17.9999 17.04 17.9999H6.95996C5.43035 17.9999 4.4669 16.3527 5.2168 15.0195L10.2568 6.05952ZM12.8711 6.54975C12.4888 5.87014 11.5112 5.87011 11.1289 6.54975L6.08789 15.5097L6.02832 15.6367C5.79209 16.2338 6.18392 16.9036 6.82031 16.9902L6.95996 16.9999H17.04C17.757 16.9999 18.2247 16.2764 17.9717 15.6367L17.9121 15.5097L12.8711 6.54975ZM12 14.0029C12.4141 14.0029 12.7498 14.3389 12.75 14.7529C12.75 15.1671 12.4142 15.5029 12 15.5029C11.5858 15.5029 11.25 15.1671 11.25 14.7529C11.2502 14.3389 11.586 14.0029 12 14.0029ZM12 8.49995C12.2761 8.49995 12.5 8.7238 12.5 8.99995V12.4999C12.5 12.7761 12.2761 12.9999 12 12.9999C11.7239 12.9999 11.5 12.7761 11.5 12.4999V8.99995C11.5 8.72382 11.7239 8.49997 12 8.49995Z" fill="black" fill-opacity="0.9"/>
</g>
</svg>
