<svg width="24" height="24" viewBox="0 0 24 24" fill="none" xmlns="http://www.w3.org/2000/svg">
<g id="icon.24.measure.small">
<path id="Icon" d="M8.86914 5.22461C9.26191 4.90426 9.84092 4.92685 10.207 5.29297L18.707 13.793C19.0976 14.1835 19.0976 14.8165 18.707 15.207L15.207 18.707C14.8165 19.0976 14.1835 19.0976 13.793 18.707L5.29297 10.207C4.90244 9.81651 4.90244 9.18349 5.29297 8.79297L8.79297 5.29297L8.86914 5.22461ZM6 9.5L7.39648 10.8965L8.14648 10.1465C8.34175 9.95122 8.65825 9.95122 8.85352 10.1465C9.04878 10.3417 9.04878 10.6583 8.85352 10.8535L8.10352 11.6035L9.39648 12.8965L11.1465 11.1465C11.3417 10.9512 11.6583 10.9512 11.8535 11.1465C12.0488 11.3417 12.0488 11.6583 11.8535 11.8535L10.1035 13.6035L14.5 18L18 14.5L9.5 6L6 9.5ZM14.5 13.5C15.0523 13.5 15.5 13.9477 15.5 14.5C15.5 15.0523 15.0523 15.5 14.5 15.5C13.9477 15.5 13.5 15.0523 13.5 14.5C13.5 13.9477 13.9477 13.5 14.5 13.5Z" fill="black" fill-opacity="0.9"/>
</g>
</svg>
