<svg width="24" height="24" viewBox="0 0 24 24" fill="none" xmlns="http://www.w3.org/2000/svg">
<g id="icon.24.spacing.vertical.small">
<path id="Icon" d="M15 13C15.5523 13 16 13.4477 16 14V16C16 16.5523 15.5523 17 15 17H9C8.44772 17 8 16.5523 8 16V14C8 13.4477 8.44772 13 9 13H15ZM9 16H15V14H9V16ZM17.5 11C17.7761 11 18 11.2239 18 11.5C18 11.7761 17.7761 12 17.5 12H6.5C6.22386 12 6 11.7761 6 11.5C6 11.2239 6.22386 11 6.5 11H17.5ZM15 6C15.5523 6 16 6.44772 16 7V9C16 9.55228 15.5523 10 15 10H9C8.44772 10 8 9.55228 8 9V7C8 6.44772 8.44772 6 9 6H15ZM9 9H15V7H9V9Z" fill="black" fill-opacity="0.9"/>
</g>
</svg>
