<svg width="24" height="24" viewBox="0 0 24 24" fill="none" xmlns="http://www.w3.org/2000/svg">
<g id="icon.24.action.video.hits.small">
<path id="Icon" d="M14.6465 17.1465C14.8417 16.9512 15.1583 16.9512 15.3535 17.1465L16.3535 18.1465C16.5488 18.3417 16.5488 18.6583 16.3535 18.8535C16.1583 19.0488 15.8417 19.0488 15.6465 18.8535L15 18.207L14.3535 18.8535C14.1583 19.0488 13.8417 19.0488 13.6465 18.8535C13.4512 18.6583 13.4512 18.3417 13.6465 18.1465L14.6465 17.1465ZM10 6C10.5523 6 11 6.44772 11 7V8H18L18.1025 8.00488C18.6067 8.05621 19 8.48232 19 9V15C19 15.5177 18.6067 15.9438 18.1025 15.9951L18 16H11V17C11 17.5177 10.6067 17.9438 10.1025 17.9951L10 18H9L8.89746 17.9951C8.42703 17.9472 8.05278 17.573 8.00488 17.1025L8 17V16H6C5.44772 16 5 15.5523 5 15V9C5 8.44772 5.44772 8 6 8H8V7C8 6.44772 8.44772 6 9 6H10ZM9 17H10V7H9V17ZM6 15H8V9H6V15ZM11 15H18V9H11V15ZM15.6465 5.14648C15.8417 4.95122 16.1583 4.95122 16.3535 5.14648C16.5488 5.34175 16.5488 5.65825 16.3535 5.85352L15.3535 6.85352C15.1583 7.04878 14.8417 7.04878 14.6465 6.85352L13.6465 5.85352C13.4512 5.65825 13.4512 5.34175 13.6465 5.14648C13.8417 4.95122 14.1583 4.95122 14.3535 5.14648L15 5.79297L15.6465 5.14648Z" fill="black" fill-opacity="0.9"/>
</g>
</svg>
