<svg width="24" height="24" viewBox="0 0 24 24" fill="none" xmlns="http://www.w3.org/2000/svg">
<g id="icon.24.desktop.small">
<path id="Icon" d="M18.5 7C18.7761 7 19 7.22386 19 7.5V15.5L18.9902 15.6006C18.9503 15.7961 18.7961 15.9503 18.6006 15.9902L18.5 16H14V17H14.5C14.7761 17 15 17.2239 15 17.5C15 17.7761 14.7761 18 14.5 18H9.5C9.22386 18 9 17.7761 9 17.5C9 17.2239 9.22386 17 9.5 17H10V16H5.5L5.39941 15.9902C5.20392 15.9503 5.04966 15.7961 5.00977 15.6006L5 15.5V7.5C5 7.22386 5.22386 7 5.5 7H18.5ZM11 16V17H13V16H11ZM6 15H18V8H6V15Z" fill="black" fill-opacity="0.9"/>
</g>
</svg>
