<svg width="24" height="24" viewBox="0 0 24 24" fill="none" xmlns="http://www.w3.org/2000/svg">
<g id="icon.24.collapse">
<path id="Icon" d="M10.5 13C10.7761 13 11 13.2239 11 13.5V17.5C11 17.7761 10.7761 18 10.5 18C10.2239 18 10 17.7761 10 17.5V14.707L6.85352 17.8535C6.65825 18.0488 6.34175 18.0488 6.14648 17.8535C5.95122 17.6583 5.95122 17.3417 6.14648 17.1465L9.29297 14H6.5C6.22386 14 6 13.7761 6 13.5C6 13.2239 6.22386 13 6.5 13H10.5ZM17.1465 6.14648C17.3417 5.95122 17.6583 5.95122 17.8535 6.14648C18.0488 6.34175 18.0488 6.65825 17.8535 6.85352L14.707 10H17.5C17.7761 10 18 10.2239 18 10.5C18 10.7761 17.7761 11 17.5 11H13.5C13.2239 11 13 10.7761 13 10.5V6.5C13 6.22386 13.2239 6 13.5 6C13.7761 6 14 6.22386 14 6.5V9.29297L17.1465 6.14648Z" fill="black" fill-opacity="0.9"/>
</g>
</svg>
