<svg width="24" height="24" viewBox="0 0 24 24" fill="none" xmlns="http://www.w3.org/2000/svg">
<g id="icon.24.al.width-max">
<path id="Icon" d="M6 16.5C6 16.7761 5.77614 17 5.5 17C5.22386 17 5 16.7761 5 16.5L5 6.5C5 6.22386 5.22386 6 5.5 6C5.77614 6 6 6.22386 6 6.5L6 16.5ZM16.918 11.2246C17.0461 11.4187 17.0244 11.6827 16.8535 11.8535L14.3535 14.3535C14.1583 14.5488 13.8417 14.5488 13.6465 14.3535C13.4512 14.1583 13.4512 13.8417 13.6465 13.6465L15.293 12L8.70703 12L10.3535 13.6465C10.5488 13.8417 10.5488 14.1583 10.3535 14.3535C10.1583 14.5488 9.84175 14.5488 9.64648 14.3535L7.14648 11.8535C7.05272 11.7597 7 11.6326 7 11.5C7 11.3674 7.05272 11.2403 7.14648 11.1465L9.64648 8.64648C9.84175 8.45122 10.1583 8.45122 10.3535 8.64648C10.5488 8.84175 10.5488 9.15825 10.3535 9.35352L8.70703 11L15.293 11L13.6465 9.35352C13.4512 9.15825 13.4512 8.84175 13.6465 8.64648C13.8417 8.45122 14.1583 8.45122 14.3535 8.64648L16.8535 11.1465L16.918 11.2246ZM19 16.5C19 16.7761 18.7761 17 18.5 17C18.2239 17 18 16.7761 18 16.5L18 6.5C18 6.22386 18.2239 6 18.5 6C18.7761 6 19 6.22386 19 6.5L19 16.5Z" fill="black" fill-opacity="0.9"/>
</g>
</svg>
