<svg width="24" height="24" viewBox="0 0 24 24" fill="none" xmlns="http://www.w3.org/2000/svg">
<g id="icon.24.al.absolute-position">
<path id="Icon" d="M6.5 14C6.77614 14 7 14.2239 7 14.5V17H9.5C9.77614 17 10 17.2239 10 17.5C10 17.7761 9.77614 18 9.5 18H7C6.44772 18 6 17.5523 6 17V14.5C6 14.2239 6.22386 14 6.5 14ZM17.5 14C17.7761 14 18 14.2239 18 14.5V17C18 17.5523 17.5523 18 17 18H14.5C14.2239 18 14 17.7761 14 17.5C14 17.2239 14.2239 17 14.5 17H17V14.5C17 14.2239 17.2239 14 17.5 14ZM14.1025 9.00488C14.6066 9.05624 15 9.48234 15 10V14L14.9951 14.1025C14.9472 14.5729 14.5729 14.9472 14.1025 14.9951L14 15H10C9.48233 15 9.05622 14.6067 9.00488 14.1025L9 14V10C9 9.44772 9.44772 9 10 9H14L14.1025 9.00488ZM10 14H14V10H10V14ZM9.5 6C9.77614 6 10 6.22386 10 6.5C10 6.77614 9.77614 7 9.5 7H7V9.5C7 9.77614 6.77614 10 6.5 10C6.22386 10 6 9.77614 6 9.5V7C6 6.44772 6.44772 6 7 6H9.5ZM17 6C17.5523 6 18 6.44772 18 7V9.5C18 9.77614 17.7761 10 17.5 10C17.2239 10 17 9.77614 17 9.5V7H14.5C14.2239 7 14 6.77614 14 6.5C14 6.22386 14.2239 6 14.5 6H17Z" fill="black" fill-opacity="0.9"/>
</g>
</svg>
