<svg width="24" height="24" viewBox="0 0 24 24" fill="none" xmlns="http://www.w3.org/2000/svg">
<g id="icon.24.drop.shadow.max.small">
<path id="Icon" d="M13.6533 6.00781C14.4097 6.08461 15 6.72334 15 7.5V13.5L14.9922 13.6533C14.9205 14.3593 14.3593 14.9205 13.6533 14.9922L13.5 15H7.5C6.72334 15 6.08461 14.4097 6.00781 13.6533L6 13.5V7.5C6 6.67157 6.67157 6 7.5 6H13.5L13.6533 6.00781ZM7.5 7C7.22386 7 7 7.22386 7 7.5V13.5C7 13.7761 7.22386 14 7.5 14H13.5C13.7761 14 14 13.7761 14 13.5V7.5C14 7.22386 13.7761 7 13.5 7H7.5Z" fill="black" fill-opacity="0.9"/>
<path id="Subtract" d="M16.5 9C17.3284 9 18 9.67157 18 10.5V16.5C18 17.3284 17.3284 18 16.5 18H10.5C9.67157 18 9 17.3284 9 16.5V15H13.5C14.3284 15 15 14.3284 15 13.5V9H16.5Z" fill="black" fill-opacity="0.3"/>
</g>
</svg>
