<svg width="24" height="24" viewBox="0 0 24 24" fill="none" xmlns="http://www.w3.org/2000/svg">
<g id="icon.24.swap.small" clip-path="url(#clip0_1027518_5993)">
<g id="icon.24.action.change.small">
<path id="Icon" d="M17.5225 12.0358C17.7972 12.0626 17.9983 12.3069 17.9717 12.5817C17.8228 14.1092 17.0901 15.5811 15.8105 16.6334C13.2511 18.7382 9.47098 18.3696 7.36621 15.8102C7.23439 15.6499 7.11281 15.4843 7 15.3151V17.4996C7 17.7758 6.77614 17.9996 6.5 17.9996C6.22386 17.9996 6 17.7758 6 17.4996V14.4996C6.00019 14.2237 6.22398 13.9996 6.5 13.9996H9.5C9.77602 13.9996 9.99981 14.2237 10 14.4996C10 14.7758 9.77614 14.9996 9.5 14.9996H8.00195C8.04633 15.0586 8.0913 15.1178 8.13867 15.1754C9.89267 17.3082 13.043 17.6149 15.1758 15.861C16.2421 14.9839 16.8523 13.7592 16.9766 12.485C17.0033 12.2102 17.2477 12.0091 17.5225 12.0358ZM17.5 5.99965C17.776 5.99965 17.9998 6.22367 18 6.49965V9.49965C18 9.77579 17.7761 9.99965 17.5 9.99965H14.5C14.2239 9.99965 14 9.77579 14 9.49965C14.0002 9.22367 14.224 8.99965 14.5 8.99965H15.998C15.9537 8.94072 15.9086 8.88139 15.8613 8.82386C14.1073 6.69132 10.957 6.38443 8.82422 8.13832C7.7579 9.01528 7.14775 10.2402 7.02344 11.5143C6.99664 11.7891 6.75235 11.9903 6.47754 11.9635C6.2027 11.9367 6.00154 11.6924 6.02832 11.4176C6.17724 9.89014 6.90989 8.41813 8.18945 7.36586C10.7488 5.26123 14.5291 5.62977 16.6338 8.1891C16.7654 8.34916 16.8873 8.51427 17 8.68324V6.49965C17.0002 6.22367 17.224 5.99965 17.5 5.99965Z" fill="black" fill-opacity="0.9"/>
</g>
</g>
<defs>
<clipPath id="clip0_1027518_5993">
<rect width="24" height="24" fill="white"/>
</clipPath>
</defs>
</svg>
