<svg width="24" height="24" viewBox="0 0 24 24" fill="none" xmlns="http://www.w3.org/2000/svg">
<g id="icon.24.pending.invite">
<path id="Icon" d="M12.4805 22.9893C12.7564 22.9774 12.9901 23.1919 13.002 23.4678C13.0138 23.7437 12.7993 23.9774 12.5234 23.9893C12.3499 23.9967 12.1753 24 12 24C11.8247 24 11.6501 23.9967 11.4766 23.9893C11.2007 23.9774 10.9862 23.7437 10.998 23.4678C11.0099 23.1919 11.2436 22.9774 11.5195 22.9893C11.6788 22.9961 11.839 23 12 23C12.161 23 12.3212 22.9961 12.4805 22.9893ZM8.06348 22.8203C8.14644 22.5569 8.42802 22.4112 8.69141 22.4941C8.9945 22.5896 9.30337 22.6719 9.61719 22.7412C9.88684 22.8007 10.0576 23.0682 9.99805 23.3379C9.93835 23.6072 9.67178 23.7771 9.40234 23.7178C9.05946 23.6421 8.72183 23.5516 8.39062 23.4473C8.12729 23.3643 7.98054 23.0837 8.06348 22.8203ZM15.3086 22.4941C15.572 22.4112 15.8536 22.5569 15.9365 22.8203C16.0195 23.0837 15.8727 23.3643 15.6094 23.4473C15.2782 23.5516 14.9405 23.6421 14.5977 23.7178C14.3282 23.7771 14.0616 23.6072 14.002 23.3379C13.9424 23.0682 14.1132 22.8007 14.3828 22.7412C14.6966 22.6719 15.0055 22.5896 15.3086 22.4941ZM5.39844 21.4316C5.54703 21.1989 5.85709 21.1307 6.08984 21.2793C6.35883 21.451 6.63573 21.6115 6.91992 21.7598C7.16466 21.8875 7.2594 22.1888 7.13184 22.4336C7.00422 22.6782 6.70275 22.7738 6.45801 22.6465C6.14786 22.4847 5.84521 22.3094 5.55176 22.1221C5.31917 21.9736 5.25028 21.6643 5.39844 21.4316ZM17.9102 21.2793C18.1429 21.1307 18.453 21.1989 18.6016 21.4316C18.7497 21.6643 18.6808 21.9736 18.4482 22.1221C18.1548 22.3094 17.8521 22.4847 17.542 22.6465C17.2973 22.7738 16.9958 22.6782 16.8682 22.4336C16.7406 22.1888 16.8353 21.8875 17.0801 21.7598C17.3643 21.6115 17.6412 21.451 17.9102 21.2793ZM3.18359 19.4004C3.38715 19.2141 3.70313 19.2282 3.88965 19.4316C4.10595 19.6676 4.33243 19.894 4.56836 20.1104C4.7718 20.2969 4.78592 20.6129 4.59961 20.8164C4.41301 21.0199 4.09612 21.0342 3.89258 20.8477C3.63529 20.6118 3.38823 20.3647 3.15234 20.1074C2.96576 19.9039 2.98006 19.587 3.18359 19.4004ZM20.1104 19.4316C20.2969 19.2282 20.6129 19.2141 20.8164 19.4004C21.0199 19.587 21.0342 19.9039 20.8477 20.1074C20.6118 20.3647 20.3647 20.6118 20.1074 20.8477C19.9039 21.0342 19.587 21.0199 19.4004 20.8164C19.2141 20.6129 19.2282 20.2969 19.4316 20.1104C19.6676 19.894 19.894 19.6676 20.1104 19.4316ZM1.56641 16.8682C1.81119 16.7406 2.11254 16.8353 2.24023 17.0801C2.38848 17.3643 2.549 17.6412 2.7207 17.9102C2.86929 18.1429 2.80112 18.453 2.56836 18.6016C2.33566 18.7497 2.02641 18.6808 1.87793 18.4482C1.69061 18.1548 1.5153 17.8521 1.35352 17.542C1.22623 17.2973 1.32175 16.9958 1.56641 16.8682ZM21.7598 17.0801C21.8875 16.8353 22.1888 16.7406 22.4336 16.8682C22.6782 16.9958 22.7738 17.2973 22.6465 17.542C22.4847 17.8521 22.3094 18.1548 22.1221 18.4482C21.9736 18.6808 21.6643 18.7497 21.4316 18.6016C21.1989 18.453 21.1307 18.1429 21.2793 17.9102C21.451 17.6412 21.6115 17.3643 21.7598 17.0801ZM12 14C12.4086 14 12.8088 14.0372 13.1982 14.1045C13.2037 14.1053 13.2093 14.1055 13.2148 14.1064C13.225 14.1082 13.235 14.1105 13.2451 14.1123C13.3073 14.1235 13.369 14.1366 13.4307 14.1494C13.4785 14.1595 13.5264 14.1696 13.5742 14.1807C13.8143 14.2359 14.0493 14.3036 14.2793 14.3828C14.3178 14.396 14.3565 14.4081 14.3945 14.4219C14.3985 14.4233 14.4023 14.4252 14.4062 14.4268C15.1617 14.7035 15.855 15.1072 16.4629 15.6113C16.4751 15.6198 16.4884 15.627 16.5 15.6367C16.7595 15.8547 17.0012 16.0916 17.2246 16.3428C17.2335 16.3528 17.2421 16.363 17.251 16.373C17.2883 16.4155 17.326 16.4577 17.3623 16.501C17.3694 16.5095 17.3744 16.5195 17.3809 16.5283C17.5088 16.6821 17.6325 16.8395 17.7471 17.0039C17.8795 17.1944 17.8563 17.451 17.6934 17.6162C17.4608 17.8519 17.0744 17.783 16.8818 17.5137C16.1702 16.5186 15.1618 15.7517 13.9863 15.3389C13.8448 15.2894 13.6999 15.2445 13.5527 15.2051C13.3889 15.1612 13.2243 15.1244 13.0605 15.0947C12.7163 15.0333 12.362 15 12 15C11.6299 15 11.2676 15.0334 10.916 15.0977C10.6247 15.1514 10.3387 15.227 10.0605 15.3223C8.86419 15.731 7.83748 16.5058 7.11621 17.5146C6.92372 17.7834 6.5387 17.8516 6.30664 17.6162C6.14388 17.4509 6.12035 17.1943 6.25293 17.0039C6.36351 16.8451 6.48244 16.6927 6.60547 16.5439C6.61529 16.5293 6.62417 16.5138 6.63574 16.5C6.89911 16.1866 7.18924 15.898 7.5 15.6377C7.50957 15.6297 7.5203 15.6234 7.53027 15.6162C8.13941 15.1098 8.83497 14.7045 9.59277 14.4268C9.59698 14.4251 9.6012 14.4234 9.60547 14.4219C9.64355 14.408 9.68234 14.396 9.7207 14.3828C9.82066 14.3484 9.92149 14.3161 10.0234 14.2861C10.0864 14.2676 10.1493 14.2483 10.2129 14.2314C10.2634 14.2181 10.3142 14.2056 10.3652 14.1934C10.4555 14.1716 10.5464 14.152 10.6377 14.1338C10.6663 14.1281 10.6949 14.1225 10.7236 14.1172C10.7438 14.1134 10.7639 14.1091 10.7842 14.1055C10.7942 14.1037 10.8044 14.1037 10.8145 14.1025C11.1999 14.0367 11.5958 14 12 14ZM0.662109 14.002C0.93176 13.9424 1.19926 14.1132 1.25879 14.3828C1.32808 14.6966 1.4104 15.0055 1.50586 15.3086C1.58883 15.572 1.44307 15.8536 1.17969 15.9365C0.916334 16.0195 0.635722 15.8727 0.552734 15.6094C0.448402 15.2782 0.357918 14.9405 0.282227 14.5977C0.222871 14.3282 0.392777 14.0616 0.662109 14.002ZM23.3379 14.002C23.6072 14.0616 23.7771 14.3282 23.7178 14.5977C23.6421 14.9405 23.5516 15.2782 23.4473 15.6094C23.3643 15.8727 23.0837 16.0195 22.8203 15.9365C22.5569 15.8536 22.4112 15.572 22.4941 15.3086C22.5896 15.0055 22.6719 14.6966 22.7412 14.3828C22.8007 14.1132 23.0682 13.9424 23.3379 14.002ZM0.532227 10.998C0.808114 11.0099 1.02259 11.2436 1.01074 11.5195C1.0039 11.6788 1 11.839 1 12C1 12.161 1.0039 12.3212 1.01074 12.4805C1.02259 12.7564 0.808114 12.9901 0.532227 13.002C0.256344 13.0138 0.0225947 12.7993 0.0107422 12.5234C0.00328756 12.3499 0 12.1753 0 12C0 11.8247 0.00328756 11.6501 0.0107422 11.4766C0.0225947 11.2007 0.256344 10.9862 0.532227 10.998ZM23.4678 10.998C23.7437 10.9862 23.9774 11.2007 23.9893 11.4766C23.9967 11.6501 24 11.8247 24 12C24 12.1753 23.9967 12.3499 23.9893 12.5234C23.9774 12.7993 23.7437 13.0138 23.4678 13.002C23.1919 12.9901 22.9774 12.7564 22.9893 12.4805C22.9961 12.3212 23 12.161 23 12C23 11.839 22.9961 11.6788 22.9893 11.5195C22.9774 11.2436 23.1919 11.0099 23.4678 10.998ZM12 5C12.0846 5 12.1687 5.00264 12.252 5.00781C12.2624 5.00848 12.2728 5.01 12.2832 5.01074C12.3564 5.01586 12.4289 5.02322 12.501 5.03223C12.5078 5.03308 12.5147 5.03329 12.5215 5.03418C12.5231 5.03439 12.5247 5.03493 12.5264 5.03516C13.2341 5.1282 13.8828 5.40645 14.4238 5.81934C14.4275 5.82197 14.432 5.82342 14.4355 5.82617C14.4522 5.839 14.4679 5.85313 14.4844 5.86621C14.5203 5.89471 14.5559 5.92344 14.5908 5.95312C14.6168 5.97526 14.6425 5.99772 14.668 6.02051C14.6932 6.04311 14.7175 6.06662 14.7422 6.08984C14.7972 6.14167 14.8504 6.19517 14.9023 6.25C14.9279 6.27691 14.9538 6.30344 14.9785 6.33105C15.0013 6.35648 15.0237 6.3822 15.0459 6.4082C15.0756 6.44307 15.1043 6.47876 15.1328 6.51465C15.1462 6.53148 15.1607 6.5474 15.1738 6.56445C15.1763 6.56767 15.1773 6.57194 15.1797 6.5752C15.5928 7.11613 15.8706 7.7649 15.9639 8.47266C15.9642 8.47466 15.9656 8.4765 15.9658 8.47852C15.9667 8.485 15.967 8.49155 15.9678 8.49805C15.9884 8.66251 16 8.82995 16 9C16 9.16736 15.9887 9.33218 15.9688 9.49414C15.9676 9.50324 15.967 9.5124 15.9658 9.52148C15.9656 9.52317 15.9641 9.52468 15.9639 9.52637C15.8708 10.2342 15.5928 10.8828 15.1797 11.4238C15.1772 11.4273 15.1765 11.4321 15.1738 11.4355C15.1609 11.4524 15.146 11.4677 15.1328 11.4844C15.1043 11.5203 15.0756 11.5559 15.0459 11.5908C15.0238 11.6168 15.0013 11.6425 14.9785 11.668C14.9538 11.6956 14.9279 11.7221 14.9023 11.749C14.8526 11.8015 14.8015 11.8526 14.749 11.9023C14.7221 11.9279 14.6956 11.9538 14.668 11.9785C14.6425 12.0013 14.6168 12.0238 14.5908 12.0459C14.5559 12.0756 14.5203 12.1043 14.4844 12.1328C14.4677 12.146 14.4524 12.1609 14.4355 12.1738C14.4323 12.1763 14.4281 12.1773 14.4248 12.1797C13.8836 12.593 13.2345 12.8707 12.5264 12.9639C12.5247 12.9641 12.5232 12.9656 12.5215 12.9658C12.5147 12.9667 12.5078 12.9669 12.501 12.9678C12.429 12.9768 12.3564 12.9832 12.2832 12.9883C12.2728 12.989 12.2624 12.9905 12.252 12.9912C12.1686 12.9964 12.0846 13 12 13C11.915 13 11.8307 12.9964 11.7471 12.9912C11.7366 12.9905 11.7262 12.989 11.7158 12.9883C11.6427 12.9831 11.5701 12.9768 11.498 12.9678C11.4916 12.967 11.485 12.9667 11.4785 12.9658C11.4765 12.9656 11.4747 12.9642 11.4727 12.9639C10.7646 12.8706 10.1153 12.5931 9.57422 12.1797C9.57118 12.1775 9.56746 12.1761 9.56445 12.1738C9.5474 12.1607 9.53148 12.1462 9.51465 12.1328C9.47876 12.1043 9.44307 12.0756 9.4082 12.0459C9.3822 12.0237 9.35648 12.0013 9.33105 11.9785C9.30344 11.9538 9.27691 11.9279 9.25 11.9023C9.19751 11.8526 9.14642 11.8015 9.09668 11.749C9.07118 11.7221 9.04526 11.6956 9.02051 11.668C8.99772 11.6425 8.97526 11.6168 8.95312 11.5908C8.92344 11.5559 8.89471 11.5203 8.86621 11.4844C8.85313 11.4679 8.839 11.4522 8.82617 11.4355C8.82342 11.432 8.82197 11.4275 8.81934 11.4238C8.40645 10.8828 8.1282 10.2341 8.03516 9.52637C8.03493 9.52473 8.0344 9.52313 8.03418 9.52148C8.033 9.5124 8.03238 9.50324 8.03125 9.49414C8.01129 9.33219 8 9.16735 8 9C8 8.82996 8.01163 8.66251 8.03223 8.49805C8.03304 8.49155 8.03333 8.485 8.03418 8.47852C8.03444 8.47655 8.03488 8.47461 8.03516 8.47266C8.1284 7.7648 8.40612 7.11521 8.81934 6.57422C8.82167 6.57102 8.82375 6.56761 8.82617 6.56445C8.83915 6.54756 8.85296 6.53133 8.86621 6.51465C8.89471 6.47876 8.92343 6.44307 8.95312 6.4082C8.97527 6.3822 8.99772 6.35648 9.02051 6.33105C9.04526 6.30344 9.07118 6.27691 9.09668 6.25C9.1488 6.195 9.20268 6.14182 9.25781 6.08984C9.28228 6.06678 9.30602 6.04295 9.33105 6.02051C9.35648 5.99772 9.3822 5.97527 9.4082 5.95312C9.44307 5.92343 9.47876 5.89471 9.51465 5.86621C9.53133 5.85296 9.54756 5.83915 9.56445 5.82617C9.56782 5.82358 9.57178 5.82182 9.5752 5.81934C10.1161 5.40636 10.7651 5.12837 11.4727 5.03516C11.4746 5.03488 11.4766 5.03444 11.4785 5.03418C11.485 5.03333 11.4916 5.03304 11.498 5.03223C11.5701 5.0232 11.6426 5.01588 11.7158 5.01074C11.7262 5.01 11.7366 5.00848 11.7471 5.00781C11.8307 5.00259 11.915 5 12 5ZM12 6C11.8769 6 11.7556 6.00814 11.6367 6.02246C11.0648 6.09152 10.5424 6.32077 10.1162 6.66504C9.95816 6.79277 9.81385 6.93697 9.68457 7.09375C9.32989 7.52408 9.09276 8.05448 9.02246 8.63672C9.00815 8.75557 9 8.87694 9 9C9.00001 9.12273 9.00822 9.24376 9.02246 9.3623C9.092 9.93983 9.32605 10.466 9.67578 10.8945C9.80726 11.0556 9.95455 11.2033 10.1162 11.334C10.5424 11.6784 11.0647 11.9075 11.6367 11.9766C11.7557 11.9909 11.8768 12 12 12C12.1228 12 12.2437 11.9908 12.3623 11.9766C12.94 11.907 13.4659 11.6732 13.8945 11.3232C14.0556 11.1917 14.2033 11.0445 14.334 10.8828C14.6784 10.4564 14.9076 9.93449 14.9766 9.3623C14.9908 9.24372 15 9.12277 15 9C15 8.8769 14.9909 8.75561 14.9766 8.63672C14.9075 8.06465 14.6785 7.54245 14.334 7.11621C14.2033 6.95454 14.0556 6.80726 13.8945 6.67578C13.466 6.32605 12.9398 6.092 12.3623 6.02246C12.2437 6.00821 12.1228 6 12 6ZM1.17969 8.06348C1.44307 8.14644 1.58883 8.42802 1.50586 8.69141C1.4104 8.9945 1.32808 9.30337 1.25879 9.61719C1.19926 9.88684 0.93176 10.0576 0.662109 9.99805C0.392777 9.93835 0.222869 9.67178 0.282227 9.40234C0.357918 9.05946 0.448402 8.72183 0.552734 8.39062C0.635723 8.12729 0.916335 7.98054 1.17969 8.06348ZM22.8203 8.06348C23.0837 7.98054 23.3643 8.12729 23.4473 8.39062C23.5516 8.72183 23.6421 9.05946 23.7178 9.40234C23.7771 9.67178 23.6072 9.93835 23.3379 9.99805C23.0682 10.0576 22.8007 9.88684 22.7412 9.61719C22.6719 9.30337 22.5896 8.9945 22.4941 8.69141C22.4112 8.42802 22.5569 8.14644 22.8203 8.06348ZM1.87793 5.55176C2.02641 5.31917 2.33566 5.25028 2.56836 5.39844C2.80112 5.54703 2.86929 5.85709 2.7207 6.08984C2.549 6.35883 2.38848 6.63573 2.24023 6.91992C2.11254 7.16466 1.81119 7.2594 1.56641 7.13184C1.32175 7.00422 1.22622 6.70275 1.35352 6.45801C1.5153 6.14786 1.69061 5.84521 1.87793 5.55176ZM21.4316 5.39844C21.6643 5.25028 21.9736 5.31917 22.1221 5.55176C22.3094 5.84521 22.4847 6.14787 22.6465 6.45801C22.7738 6.70275 22.6782 7.00422 22.4336 7.13184C22.1888 7.2594 21.8875 7.16466 21.7598 6.91992C21.6115 6.63573 21.451 6.35883 21.2793 6.08984C21.1307 5.85709 21.1989 5.54703 21.4316 5.39844ZM3.89258 3.15234C4.09612 2.96576 4.41301 2.98006 4.59961 3.18359C4.78592 3.38715 4.7718 3.70313 4.56836 3.88965C4.33243 4.10595 4.10595 4.33243 3.88965 4.56836C3.70313 4.7718 3.38715 4.78592 3.18359 4.59961C2.98006 4.41301 2.96576 4.09612 3.15234 3.89258C3.38823 3.63529 3.63529 3.38823 3.89258 3.15234ZM19.4004 3.18359C19.587 2.98006 19.9039 2.96576 20.1074 3.15234C20.3647 3.38823 20.6118 3.63529 20.8477 3.89258C21.0342 4.09612 21.0199 4.41301 20.8164 4.59961C20.6129 4.78592 20.2969 4.7718 20.1104 4.56836C19.894 4.33243 19.6676 4.10595 19.4316 3.88965C19.2282 3.70313 19.2141 3.38715 19.4004 3.18359ZM6.45801 1.35352C6.70275 1.22623 7.00422 1.32175 7.13184 1.56641C7.2594 1.81119 7.16466 2.11254 6.91992 2.24023C6.63573 2.38848 6.35883 2.549 6.08984 2.7207C5.85709 2.86929 5.54703 2.80112 5.39844 2.56836C5.25028 2.33566 5.31917 2.02641 5.55176 1.87793C5.84521 1.69061 6.14787 1.5153 6.45801 1.35352ZM16.8682 1.56641C16.9958 1.32175 17.2973 1.22622 17.542 1.35352C17.8521 1.5153 18.1548 1.69061 18.4482 1.87793C18.6808 2.02641 18.7497 2.33566 18.6016 2.56836C18.453 2.80112 18.1429 2.86929 17.9102 2.7207C17.6412 2.549 17.3643 2.38848 17.0801 2.24023C16.8353 2.11254 16.7406 1.81119 16.8682 1.56641ZM9.40234 0.282227C9.67178 0.222871 9.93835 0.392777 9.99805 0.662109C10.0576 0.93176 9.88684 1.19926 9.61719 1.25879C9.30337 1.32808 8.9945 1.4104 8.69141 1.50586C8.42802 1.58883 8.14644 1.44307 8.06348 1.17969C7.98054 0.916334 8.12729 0.635722 8.39062 0.552734C8.72183 0.448402 9.05946 0.357918 9.40234 0.282227ZM14.5977 0.282227C14.9405 0.357918 15.2782 0.448402 15.6094 0.552734C15.8727 0.635723 16.0195 0.916335 15.9365 1.17969C15.8536 1.44307 15.572 1.58883 15.3086 1.50586C15.0055 1.4104 14.6966 1.32808 14.3828 1.25879C14.1132 1.19926 13.9424 0.93176 14.002 0.662109C14.0616 0.392777 14.3282 0.222869 14.5977 0.282227ZM12.5234 0.0107422C12.7993 0.0225947 13.0138 0.256344 13.002 0.532227C12.9901 0.808114 12.7564 1.02259 12.4805 1.01074C12.3212 1.0039 12.161 1 12 1C11.839 1 11.6788 1.0039 11.5195 1.01074C11.2436 1.02259 11.0099 0.808114 10.998 0.532227C10.9862 0.256344 11.2007 0.0225947 11.4766 0.0107422C11.6501 0.00328756 11.8247 0 12 0C12.1753 0 12.3499 0.00328756 12.5234 0.0107422Z" fill="black" fill-opacity="0.9"/>
</g>
</svg>
