<svg width="24" height="24" viewBox="0 0 24 24" fill="none" xmlns="http://www.w3.org/2000/svg">
<g id="icon.24.mask.small">
<path id="Icon" d="M6.5 16C6.74171 16 6.94371 16.1714 6.99023 16.3994L7.00977 16.6006C7.04966 16.7961 7.20392 16.9503 7.39941 16.9902L7.60059 17.0098C7.82855 17.0563 8 17.2583 8 17.5C8 17.7761 7.77614 18 7.5 18C6.67157 18 6 17.3284 6 16.5C6 16.2239 6.22386 16 6.5 16ZM10.5 17C10.7761 17 11 17.2239 11 17.5C11 17.7761 10.7761 18 10.5 18H9.5C9.22386 18 9 17.7761 9 17.5C9 17.2239 9.22386 17 9.5 17H10.5ZM13.5 16C13.7761 16 14 16.2239 14 16.5C14 17.3284 13.3284 18 12.5 18C12.2239 18 12 17.7761 12 17.5C12 17.2583 12.1714 17.0563 12.3994 17.0098L12.6006 16.9902C12.7961 16.9503 12.9503 16.7961 12.9902 16.6006L13.0098 16.3994C13.0563 16.1714 13.2583 16 13.5 16ZM6.5 13C6.77614 13 7 13.2239 7 13.5V14.5C7 14.7761 6.77614 15 6.5 15C6.22386 15 6 14.7761 6 14.5V13.5C6 13.2239 6.22386 13 6.5 13ZM13.5 6C15.9853 6 18 8.01472 18 10.5C18 12.9853 15.9853 15 13.5 15C11.0147 15 9 12.9853 9 10.5C9 8.01472 11.0147 6 13.5 6ZM10.0361 11C10.2554 12.5328 11.4672 13.7446 13 13.9639V12C13 11.4477 12.5523 11 12 11H10.0361ZM13.5 7C11.7368 7 10.2788 8.3039 10.0361 10H12C13.1046 10 14 10.8954 14 12V13.9639C15.6961 13.7212 17 12.2632 17 10.5C17 8.567 15.433 7 13.5 7ZM7.5 10C7.77614 10 8 10.2239 8 10.5C8 10.7417 7.82855 10.9437 7.60059 10.9902L7.39941 11.0098C7.20392 11.0497 7.04966 11.2039 7.00977 11.3994L6.99023 11.6006C6.94371 11.8286 6.74171 12 6.5 12C6.22386 12 6 11.7761 6 11.5C6 10.6716 6.67157 10 7.5 10Z" fill="black" fill-opacity="0.9"/>
</g>
</svg>
