<svg width="24" height="24" viewBox="0 0 24 24" fill="none" xmlns="http://www.w3.org/2000/svg">
<g id="icon.24.translate.small">
<path id="Icon" d="M15 11C15.2019 11 15.3843 11.1213 15.4619 11.3076L17.1279 15.3076L17.9619 17.3076C18.0681 17.5625 17.9473 17.8557 17.6924 17.9619C17.4375 18.0681 17.1443 17.9473 17.0381 17.6924L16.333 16H13.167L12.4619 17.6924C12.3557 17.9473 12.0625 18.0681 11.8076 17.9619C11.5527 17.8557 11.4319 17.5625 11.5381 17.3076L12.3721 15.3076L14.0381 11.3076L14.0723 11.2412C14.1619 11.093 14.3233 11 14.5 11H15ZM9.5 5C9.77614 5 10 5.22386 10 5.5V7H13.5C13.7761 7 14 7.22386 14 7.5C14 7.77614 13.7761 8 13.5 8H12.2178L12.1641 8.16016C11.6607 9.64734 11.0765 10.6973 10.1328 11.8652L11.6602 13.7744C11.7716 13.9138 11.801 14.1022 11.7363 14.2686C11.5964 14.6276 11.1196 14.7003 10.8789 14.3994L9.47168 12.6406C8.78289 13.4107 7.93355 14.2722 6.85352 15.3535C6.65839 15.5486 6.3418 15.5485 6.14648 15.3535C5.95132 15.1584 5.95142 14.8418 6.14648 14.6465C7.29266 13.4989 8.1583 12.6177 8.83789 11.8477L7.20996 9.8125C6.94795 9.48494 7.18113 9 7.60059 9C7.75245 9.00008 7.89633 9.06892 7.99121 9.1875L9.49219 11.0645C10.2646 10.0791 10.7405 9.19788 11.1602 8H5.5C5.22386 8 5 7.77614 5 7.5C5 7.22386 5.22386 7 5.5 7H9V5.5C9 5.22386 9.22386 5 9.5 5ZM13.583 15H15.917L14.75 12.2002L13.583 15ZM17.0146 6.44043C17.1409 5.93545 17.8591 5.93545 17.9854 6.44043L18.2998 7.7002L19.5596 8.01465C20.0645 8.14089 20.0645 8.85911 19.5596 8.98535L18.2998 9.2998L17.9854 10.5596C17.8591 11.0645 17.1409 11.0645 17.0146 10.5596L16.7002 9.2998L15.4404 8.98535C14.9355 8.85911 14.9355 8.14089 15.4404 8.01465L16.7002 7.7002L17.0146 6.44043Z" fill="black" fill-opacity="0.9"/>
</g>
</svg>
