<svg width="24" height="24" viewBox="0 0 24 24" fill="none" xmlns="http://www.w3.org/2000/svg">
<g id="icon.24.ai">
<path id="Icon" d="M18.0137 16.4405C18.1399 15.9355 18.8581 15.9355 18.9844 16.4405L19.2988 17.7003L20.5586 18.0147C21.0636 18.141 21.0636 18.8592 20.5586 18.9854L19.2988 19.2999L18.9844 20.5596C18.8581 21.0646 18.1399 21.0646 18.0137 20.5596L17.6992 19.2999L16.4395 18.9854C15.9345 18.8592 15.9345 18.141 16.4395 18.0147L17.6992 17.7003L18.0137 16.4405ZM10.3574 5.12799C10.9227 3.63241 13.0753 3.63242 13.6406 5.12799L13.6914 5.28326L14.8076 9.19049L18.7158 10.3077C20.4178 10.794 20.4178 13.2062 18.7158 13.6924L14.8076 14.8087L13.6914 18.7169C13.2051 20.4188 10.7929 20.4188 10.3066 18.7169L9.18945 14.8087L5.28223 13.6924C3.58029 13.2061 3.58027 10.794 5.28223 10.3077L9.18945 9.19049L10.3066 5.28326L10.3574 5.12799ZM12.7295 5.55768C12.5194 4.82289 11.4786 4.82288 11.2686 5.55768L9.99902 10.0001L5.55664 11.2696C4.82188 11.4797 4.82188 12.5205 5.55664 12.7305L9.99902 14.0001L11.2686 18.4424C11.4655 19.1314 12.3925 19.1742 12.6807 18.5714L12.7295 18.4424L13.999 14.0001L18.4414 12.7305C19.1303 12.5336 19.1732 11.6066 18.5703 11.3184L18.4414 11.2696L13.999 10.0001L12.7295 5.55768ZM5.01367 3.44049C5.13992 2.93551 5.85813 2.93551 5.98438 3.44049L6.29883 4.70026L7.55859 5.01471C8.06357 5.14095 8.06357 5.85917 7.55859 5.98541L6.29883 6.29987L5.98438 7.55963C5.85813 8.06461 5.13992 8.06461 5.01367 7.55963L4.69922 6.29987L3.43945 5.98541C2.93448 5.85917 2.93448 5.14095 3.43945 5.01471L4.69922 4.70026L5.01367 3.44049Z" fill="black" fill-opacity="0.9"/>
</g>
</svg>
