<svg width="24" height="24" viewBox="0 0 24 24" fill="none" xmlns="http://www.w3.org/2000/svg">
<g id="icon.24.unsaved.changes">
<path id="Icon" d="M11.7246 11.082C11.9187 10.9539 12.1827 10.9756 12.3535 11.1465L14.8535 13.6465C15.0488 13.8417 15.0488 14.1583 14.8535 14.3535C14.6583 14.5488 14.3417 14.5488 14.1465 14.3535L12.5 12.707V19C12.5 19.2761 12.2761 19.5 12 19.5C11.7239 19.5 11.5 19.2761 11.5 19V12.707L9.85352 14.3535C9.65825 14.5488 9.34175 14.5488 9.14648 14.3535C8.95122 14.1583 8.95122 13.8417 9.14648 13.6465L11.6465 11.1465L11.7246 11.082ZM12.5 5C15.4105 5 17.7911 7.26085 17.9854 10.1221C19.718 10.561 21 12.1309 21 14C21 16.2091 19.2091 18 17 18H14C13.7239 18 13.5 17.7761 13.5 17.5C13.5 17.2239 13.7239 17 14 17H17C18.6569 17 20 15.6569 20 14C20 12.5996 19.0396 11.4212 17.7402 11.0918L17.0371 10.9131L16.9873 10.1895C16.8282 7.84914 14.8803 6 12.5 6C10.7474 6 9.22705 7.00231 8.4834 8.46973L8.23047 8.96875L7.67188 9.01465C5.61647 9.18102 4 10.9018 4 13C4 15.2091 5.79086 17 8 17H10C10.2761 17 10.5 17.2239 10.5 17.5C10.5 17.7761 10.2761 18 10 18H8C5.23858 18 3 15.7614 3 13C3 10.376 5.02134 8.22532 7.5918 8.01758C8.499 6.22742 10.3558 5 12.5 5Z" fill="black" fill-opacity="0.9"/>
</g>
</svg>
