<svg width="24" height="24" viewBox="0 0 24 24" fill="none" xmlns="http://www.w3.org/2000/svg">
<g id="icon.24.camera.small">
<path id="Icon" d="M13.7559 7.0127C15.0164 7.14082 16 8.20566 16 9.5V10.0859L17.293 8.79297C17.579 8.50697 18.0091 8.42139 18.3828 8.57617C18.7564 8.73098 19 9.09558 19 9.5V14.5C19 14.9044 18.7564 15.269 18.3828 15.4238C18.0091 15.5786 17.579 15.493 17.293 15.207L16 13.9141V14.5L15.9873 14.7559C15.8677 15.9323 14.9323 16.8677 13.7559 16.9873L13.5 17H7.5C6.11929 17 5 15.8807 5 14.5V9.5C5 8.11929 6.11929 7 7.5 7H13.5L13.7559 7.0127ZM7.5 8C6.67157 8 6 8.67157 6 9.5V14.5C6 15.3284 6.67157 16 7.5 16H13.5C14.3284 16 15 15.3284 15 14.5V9.5C15 8.72334 14.4097 8.08461 13.6533 8.00781L13.5 8H7.5ZM16 11.5V12.5L18 14.5V9.5L16 11.5Z" fill="black" fill-opacity="0.9"/>
</g>
</svg>
