<svg width="24" height="24" viewBox="0 0 24 24" fill="none" xmlns="http://www.w3.org/2000/svg">
<g id="icon.24.branch.small">
<path id="Icon" d="M7.5 7C9.433 7 11 8.567 11 10.5V12.5C11 13.8807 12.1193 15 13.5 15H17.293L16.1465 13.8535C15.9512 13.6583 15.9512 13.3417 16.1465 13.1465C16.3417 12.9512 16.6583 12.9512 16.8535 13.1465L18.8535 15.1465C19.0488 15.3417 19.0488 15.6583 18.8535 15.8535L16.8535 17.8535C16.6583 18.0488 16.3417 18.0488 16.1465 17.8535C15.9512 17.6583 15.9512 17.3417 16.1465 17.1465L17.293 16H13.5C11.567 16 10 14.433 10 12.5V10.5C10 9.11929 8.88071 8 7.5 8H5.5C5.22386 8 5 7.77614 5 7.5C5 7.22386 5.22386 7 5.5 7H7.5ZM18.5 7C18.7761 7 19 7.22386 19 7.5C19 7.77614 18.7761 8 18.5 8H13.5C13.2239 8 13 7.77614 13 7.5C13 7.22386 13.2239 7 13.5 7H18.5Z" fill="black" fill-opacity="0.9"/>
</g>
</svg>
