<svg width="24" height="24" viewBox="0 0 24 24" fill="none" xmlns="http://www.w3.org/2000/svg">
<g id="icon.24.outline.stroke.small">
<path id="Icon" d="M15.5 6C16.8807 6 18 7.11929 18 8.5C18 9.88071 16.8807 11 15.5 11C13.0147 11 11 13.0147 11 15.5C11 16.8807 9.88071 18 8.5 18C7.11929 18 6 16.8807 6 15.5C6 10.2533 10.2533 6 15.5 6ZM15.5 7C10.8056 7 7 10.8056 7 15.5C7 16.3284 7.67157 17 8.5 17C9.32843 17 10 16.3284 10 15.5C10 12.4624 12.4624 10 15.5 10C16.3284 10 17 9.32843 17 8.5C17 7.67157 16.3284 7 15.5 7ZM15.5 8C15.7761 8 16 8.22386 16 8.5C16 8.77614 15.7761 9 15.5 9C11.9101 9 9 11.9101 9 15.5C9 15.7761 8.77614 16 8.5 16C8.22386 16 8 15.7761 8 15.5C8 11.3579 11.3579 8 15.5 8Z" fill="black" fill-opacity="0.9"/>
</g>
</svg>
