<svg width="24" height="24" viewBox="0 0 24 24" fill="none" xmlns="http://www.w3.org/2000/svg">
<g id="icon.24.file.design.viewer">
<path id="File Type Frame" d="M4 24H20C21.1046 24 22 23.1046 22 22V6.74264C22 5.94699 21.6839 5.18393 21.1213 4.62132L17.3787 0.87868C16.8161 0.316071 16.053 0 15.2574 0H4C2.89543 0 2 0.89543 2 2V22C2 23.1046 2.89543 24 4 24Z" fill="#0D99FF"/>
<path id="Intersect" d="M15.2578 0C16.0534 6.49018e-05 16.8164 0.316355 17.3789 0.878906L21.1211 4.62109C21.6836 5.1836 21.9999 5.9467 22 6.74219V7L21.9951 6.89746C21.9439 6.39325 21.5177 6 21 6H18C16.8956 5.99989 16.0001 5.10441 16 4V1C16 0.447715 15.5523 0 15 0H15.2578Z" fill="white" fill-opacity="0.4"/>
<g id="icon.16.prototype">
<path id="Icon" d="M8 8.64832C8 7.36578 9.39926 6.57342 10.499 7.23328L16.2568 10.6884L16.4307 10.8085C17.1896 11.4147 17.1896 12.585 16.4307 13.1913L16.2568 13.3114L10.499 16.7665C9.39926 17.4263 8 16.634 8 15.3514V8.64832ZM9.98438 8.0907C9.57819 7.84699 9.06795 8.10586 9.00586 8.55554L9 8.64832V15.3514L9.00586 15.4442C9.06384 15.8641 9.51252 16.1176 9.90234 15.951L9.98438 15.9091L15.7422 12.454C16.0853 12.2481 16.0853 11.7516 15.7422 11.5458L9.98438 8.0907Z" fill="white"/>
</g>
</g>
</svg>
