<svg width="24" height="24" viewBox="0 0 24 24" fill="none" xmlns="http://www.w3.org/2000/svg">
<g id="icon.24.embed.code.small">
<path id="Icon" d="M16.2041 6.01074C17.2128 6.113 18 6.96435 18 8V16L17.9893 16.2041C17.8938 17.1457 17.1457 17.8938 16.2041 17.9893L16 18H8C6.96435 18 6.113 17.2128 6.01074 16.2041L6 16V8C6 6.89543 6.89543 6 8 6H16L16.2041 6.01074ZM8 7C7.48232 7 7.05621 7.39333 7.00488 7.89746L7 8V16C7 16.5523 7.44772 17 8 17H16C16.5523 17 17 16.5523 17 16V8C17 7.48232 16.6067 7.05621 16.1025 7.00488L16 7H8ZM10.1465 10.1465C10.3417 9.95122 10.6583 9.95122 10.8535 10.1465C11.0488 10.3417 11.0488 10.6583 10.8535 10.8535L9.70703 12L10.8535 13.1465C11.0488 13.3417 11.0488 13.6583 10.8535 13.8535C10.6583 14.0488 10.3417 14.0488 10.1465 13.8535L8.64648 12.3535C8.45122 12.1583 8.45122 11.8417 8.64648 11.6465L10.1465 10.1465ZM13.1465 10.1465C13.3417 9.95122 13.6583 9.95122 13.8535 10.1465L15.3535 11.6465C15.5488 11.8417 15.5488 12.1583 15.3535 12.3535L13.8535 13.8535C13.6583 14.0488 13.3417 14.0488 13.1465 13.8535C12.9512 13.6583 12.9512 13.3417 13.1465 13.1465L14.293 12L13.1465 10.8535C12.9512 10.6583 12.9512 10.3417 13.1465 10.1465Z" fill="black" fill-opacity="0.9"/>
</g>
</svg>
