<svg width="24" height="24" viewBox="0 0 24 24" fill="none" xmlns="http://www.w3.org/2000/svg">
<g id="icon.24.layout-tidy-up-list-vertical">
<path id="Icon" d="M17.25 16C17.6642 16 18 16.3358 18 16.75V17.25C18 17.6642 17.6642 18 17.25 18H5.75C5.33579 18 5 17.6642 5 17.25V16.75C5 16.3358 5.33579 16 5.75 16H17.25ZM17.25 11C17.6642 11 18 11.3358 18 11.75V12.25C18 12.6642 17.6642 13 17.25 13H5.75C5.33579 13 5 12.6642 5 12.25V11.75C5 11.3358 5.33579 11 5.75 11H17.25ZM17.25 6C17.6642 6 18 6.33579 18 6.75V7.25C18 7.66421 17.6642 8 17.25 8H5.75C5.33579 8 5 7.66421 5 7.25V6.75C5 6.33579 5.33579 6 5.75 6H17.25Z" fill="black" fill-opacity="0.9"/>
</g>
</svg>
