<svg width="24" height="24" viewBox="0 0 24 24" fill="none" xmlns="http://www.w3.org/2000/svg">
<g id="icon.24.file.devmode">
<path id="File Type Frame" d="M4 24H20C21.1046 24 22 23.1046 22 22V6.74264C22 5.94699 21.6839 5.18393 21.1213 4.62132L17.3787 0.87868C16.8161 0.316071 16.053 0 15.2574 0H4C2.89543 0 2 0.89543 2 2V22C2 23.1046 2.89543 24 4 24Z" fill="#0D99FF"/>
<path id="Intersect" d="M15.2578 0C16.0534 6.49018e-05 16.8164 0.316355 17.3789 0.878906L21.1211 4.62109C21.6836 5.1836 21.9999 5.9467 22 6.74219V7L21.9951 6.89746C21.9439 6.39325 21.5177 6 21 6H18C16.8956 5.99989 16.0001 5.10441 16 4V1C16 0.447715 15.5523 0 15 0H15.2578Z" fill="white" fill-opacity="0.4"/>
<g id="icon.16.dev">
<path id="Icon" d="M12.5254 8.84241C12.6127 8.58044 12.8962 8.43868 13.1582 8.526C13.4199 8.61349 13.5619 8.89699 13.4746 9.15881L11.4746 15.1588C11.3872 15.4204 11.1035 15.5622 10.8418 15.4752C10.5799 15.3879 10.4383 15.1043 10.5254 14.8424L12.5254 8.84241ZM8.11621 8.67932C8.2931 8.46779 8.6084 8.43925 8.82031 8.61584C9.03205 8.79257 9.06014 9.10791 8.88379 9.31995L6.65137 11.9996L8.88379 14.6793C9.06039 14.8912 9.03185 15.2065 8.82031 15.3834C8.60827 15.5601 8.29304 15.5318 8.11621 15.3199L5.61621 12.3199C5.46174 12.1345 5.46171 11.8647 5.61621 11.6793L8.11621 8.67932ZM15.1797 8.61584C15.3917 8.4395 15.7071 8.46762 15.8838 8.67932L18.3838 11.6793C18.5382 11.8646 18.538 12.1345 18.3838 12.3199L15.8838 15.3199C15.707 15.5318 15.3917 15.5601 15.1797 15.3834C14.9678 15.2066 14.9395 14.8914 15.1162 14.6793L17.3486 11.9996L15.1162 9.31995C14.9396 9.1079 14.9678 8.79266 15.1797 8.61584Z" fill="white"/>
</g>
</g>
</svg>
