<svg width="24" height="24" viewBox="0 0 24 24" fill="none" xmlns="http://www.w3.org/2000/svg">
<g id="icon.24.clipboard.small">
<path id="Icon" d="M14.1025 5.00488C14.6067 5.05621 15 5.48232 15 6C16.1046 6 17 6.89543 17 8V16L16.9893 16.2041C16.8938 17.1457 16.1457 17.8938 15.2041 17.9893L15 18H9L8.7959 17.9893C7.85435 17.8938 7.1062 17.1457 7.01074 16.2041L7 16V8C7 6.89543 7.89543 6 9 6C9 5.44772 9.44772 5 10 5H14L14.1025 5.00488ZM15 7C15 7.51768 14.6067 7.94379 14.1025 7.99512L14 8H10C9.48232 8 9.05621 7.60667 9.00488 7.10254L9 7C8.48232 7 8.05621 7.39333 8.00488 7.89746L8 8V16C8 16.5523 8.44772 17 9 17H15C15.5523 17 16 16.5523 16 16V8C16 7.44772 15.5523 7 15 7ZM13.5 13C13.7761 13 14 13.2239 14 13.5C14 13.7761 13.7761 14 13.5 14H10.5C10.2239 14 10 13.7761 10 13.5C10 13.2239 10.2239 13 10.5 13H13.5ZM13.5 10C13.7761 10 14 10.2239 14 10.5C14 10.7761 13.7761 11 13.5 11H10.5C10.2239 11 10 10.7761 10 10.5C10 10.2239 10.2239 10 10.5 10H13.5ZM10 7H14V6H10V7Z" fill="black" fill-opacity="0.9"/>
</g>
</svg>
