<svg width="24" height="24" viewBox="0 0 24 24" fill="none" xmlns="http://www.w3.org/2000/svg">
<g id="icon.24.loop-off.small">
<path id="Icon" d="M17.1465 6.14648C17.3417 5.95122 17.6583 5.95122 17.8535 6.14648C18.0488 6.34175 18.0488 6.65825 17.8535 6.85352L6.85352 17.8535C6.65825 18.0488 6.34175 18.0488 6.14648 17.8535C5.95122 17.6583 5.95122 17.3417 6.14648 17.1465L17.1465 6.14648ZM17.1504 9.19336C17.3476 9.00029 17.6642 9.00306 17.8574 9.2002C18.5639 9.92113 19 10.9103 19 12C19 14.2091 17.2091 16 15 16H13.707L14.8535 17.1465C15.0488 17.3417 15.0488 17.6583 14.8535 17.8535C14.6583 18.0488 14.3417 18.0488 14.1465 17.8535L12.1465 15.8535C11.9512 15.6583 11.9512 15.3417 12.1465 15.1465L14.1465 13.1465C14.3417 12.9512 14.6583 12.9512 14.8535 13.1465C15.0488 13.3417 15.0488 13.6583 14.8535 13.8535L13.707 15H15C16.6569 15 18 13.6569 18 12C18 11.1824 17.6733 10.442 17.1426 9.90039C16.9495 9.70315 16.9532 9.38657 17.1504 9.19336ZM9.14648 6.14648C9.34175 5.95122 9.65825 5.95122 9.85352 6.14648L11.8535 8.14648C12.0488 8.34175 12.0488 8.65825 11.8535 8.85352L9.85352 10.8535C9.65825 11.0488 9.34175 11.0488 9.14648 10.8535C8.95122 10.6583 8.95122 10.3417 9.14648 10.1465L10.293 9H9C7.34315 9 6 10.3431 6 12C6 12.8176 6.3267 13.558 6.85742 14.0996C7.05051 14.2969 7.04678 14.6134 6.84961 14.8066C6.65238 14.9997 6.33579 14.9969 6.14258 14.7998C5.43611 14.0789 5 13.0897 5 12C5 9.79086 6.79086 8 9 8H10.293L9.14648 6.85352C8.95122 6.65825 8.95122 6.34175 9.14648 6.14648Z" fill="black" fill-opacity="0.9"/>
</g>
</svg>
