<svg width="24" height="24" viewBox="0 0 24 24" fill="none" xmlns="http://www.w3.org/2000/svg">
<g id="icon.24.trash">
<path id="Icon" d="M13 4C14.1046 4 15 4.89543 15 6H17.5C18.3284 6 19 6.67157 19 7.5C19 8.16674 18.5646 8.73058 17.9629 8.92578L17.1221 18.1807C17.0284 19.2108 16.1643 20 15.1299 20H8.87012C7.83571 20 6.97158 19.2108 6.87793 18.1807L6.03613 8.92578C5.43491 8.73031 5 8.16641 5 7.5C5 6.67157 5.67157 6 6.5 6H9C9 4.89543 9.89543 4 11 4H13ZM7.87402 18.0908C7.92099 18.6058 8.35301 19 8.87012 19H15.1299C15.647 19 16.079 18.6058 16.126 18.0908L16.9521 9H7.04785L7.87402 18.0908ZM10.5 11C10.7761 11 11 11.2239 11 11.5V16.5C11 16.7761 10.7761 17 10.5 17C10.2239 17 10 16.7761 10 16.5V11.5C10 11.2239 10.2239 11 10.5 11ZM13.5 11C13.7761 11 14 11.2239 14 11.5V16.5C14 16.7761 13.7761 17 13.5 17C13.2239 17 13 16.7761 13 16.5V11.5C13 11.2239 13.2239 11 13.5 11ZM6.5 7C6.22386 7 6 7.22386 6 7.5C6 7.77614 6.22386 8 6.5 8H17.5C17.7761 8 18 7.77614 18 7.5C18 7.22386 17.7761 7 17.5 7H6.5ZM11 5C10.4477 5 10 5.44772 10 6H14C14 5.44772 13.5523 5 13 5H11Z" fill="black" fill-opacity="0.9"/>
</g>
</svg>
