<svg width="24" height="24" viewBox="0 0 24 24" fill="none" xmlns="http://www.w3.org/2000/svg">
<g id="icon.24.fit.to.width.small">
<path id="Icon" d="M17.6533 6.00781C18.4097 6.08461 19 6.72334 19 7.5V16.5C19 17.2767 18.4097 17.9154 17.6533 17.9922L17.5 18H6.5C5.67157 18 5 17.3284 5 16.5V7.5C5 6.67157 5.67157 6 6.5 6H17.5L17.6533 6.00781ZM6.5 7C6.22386 7 6 7.22386 6 7.5V16.5C6 16.7761 6.22386 17 6.5 17H17.5C17.7761 17 18 16.7761 18 16.5V7.5C18 7.22386 17.7761 7 17.5 7H6.5ZM14.6465 10.1465C14.8417 9.95122 15.1583 9.95122 15.3535 10.1465L16.8535 11.6465C17.0488 11.8417 17.0488 12.1583 16.8535 12.3535L15.3535 13.8535C15.1583 14.0488 14.8417 14.0488 14.6465 13.8535C14.4512 13.6583 14.4512 13.3417 14.6465 13.1465L15.293 12.5H8.70703L9.35352 13.1465C9.54878 13.3417 9.54878 13.6583 9.35352 13.8535C9.15825 14.0488 8.84175 14.0488 8.64648 13.8535L7.14648 12.3535C6.95122 12.1583 6.95122 11.8417 7.14648 11.6465L8.64648 10.1465C8.84175 9.95122 9.15825 9.95122 9.35352 10.1465C9.54878 10.3417 9.54878 10.6583 9.35352 10.8535L8.70703 11.5H15.293L14.6465 10.8535C14.4512 10.6583 14.4512 10.3417 14.6465 10.1465Z" fill="black" fill-opacity="0.9"/>
</g>
</svg>
