<svg width="24" height="24" viewBox="0 0 24 24" fill="none" xmlns="http://www.w3.org/2000/svg">
<g id="icon.24.slide.small">
<path id="Icon" d="M17 6C18.1046 6 19 6.89543 19 8V14C19 15.0357 18.2128 15.887 17.2041 15.9893L17 16H15.7119L16.4336 17.25C16.5712 17.4888 16.4893 17.7944 16.251 17.9326C16.012 18.0706 15.7056 17.9889 15.5674 17.75L14.5566 16H9.44434L8.43359 17.75C8.29562 17.9889 7.99001 18.0702 7.75098 17.9326C7.51196 17.7945 7.42945 17.4891 7.56738 17.25L8.28906 16H7L6.7959 15.9893C5.85435 15.8938 5.1062 15.1457 5.01074 14.2041L5 14V8C5 6.89543 5.89543 6 7 6H17ZM7 7C6.44772 7 6 7.44772 6 8V14C6 14.5523 6.44772 15 7 15H17C17.5523 15 18 14.5523 18 14V8C18 7.44772 17.5523 7 17 7H7ZM10 9.63281C10.0002 8.85568 10.8482 8.37552 11.5146 8.77539L13.793 10.1426C14.44 10.531 14.44 11.469 13.793 11.8574L11.5146 13.2246C10.8482 13.6245 10.0002 13.1443 10 12.3672V9.63281ZM11 12.3672L13.2783 11L11 9.63281V12.3672Z" fill="black" fill-opacity="0.9"/>
</g>
</svg>
