<svg width="24" height="24" viewBox="0 0 24 24" fill="none" xmlns="http://www.w3.org/2000/svg">
<g id="icon.24.number-list">
<path id="Icon" d="M8.5 13C8.77614 13 8.99999 13.2239 9 13.5V15C9 15.1894 8.89302 15.3626 8.72363 15.4473L7 16.3086V16.5H8.5C8.77614 16.5 8.99999 16.7239 9 17C9 17.2761 8.77614 17.5 8.5 17.5H6.5C6.22386 17.5 6 17.2761 6 17V16L6.00488 15.9297C6.02773 15.7686 6.12821 15.6268 6.27637 15.5527L8 14.6904V14H6.5C6.22386 14 6 13.7761 6 13.5C6.00001 13.2239 6.22386 13 6.5 13H8.5ZM17.5 16.5C17.7761 16.5 18 16.7239 18 17C18 17.2761 17.7761 17.5 17.5 17.5H11.5C11.2239 17.5 11 17.2761 11 17C11 16.7239 11.2239 16.5 11.5 16.5H17.5ZM17.5 11.5C17.7761 11.5 18 11.7239 18 12C18 12.2761 17.7761 12.5 17.5 12.5H11.5C11.2239 12.5 11 12.2761 11 12C11 11.7239 11.2239 11.5 11.5 11.5H17.5ZM7.60059 6.50977C7.82855 6.55629 7.99999 6.75829 8 7V10.5C8 10.7761 7.77614 11 7.5 11C7.22386 11 7 10.7761 7 10.5V7.5H6.5C6.22386 7.5 6 7.27614 6 7C6.00001 6.72386 6.22386 6.5 6.5 6.5H7.5L7.60059 6.50977ZM17.5 6.5C17.7761 6.50001 18 6.72386 18 7C18 7.27614 17.7761 7.49999 17.5 7.5H11.5C11.2239 7.5 11 7.27614 11 7C11 6.72386 11.2239 6.5 11.5 6.5H17.5Z" fill="black" fill-opacity="0.9"/>
</g>
</svg>
