<svg width="24" height="24" viewBox="0 0 24 24" fill="none" xmlns="http://www.w3.org/2000/svg">
<g id="icon.24.action.overlay.close.small">
<path id="Icon" d="M16.2041 6.01074C17.2128 6.113 18 6.96435 18 8V16L17.9893 16.2041C17.8938 17.1457 17.1457 17.8938 16.2041 17.9893L16 18H8C6.96435 18 6.113 17.2128 6.01074 16.2041L6 16V8C6 6.89543 6.89543 6 8 6H16L16.2041 6.01074ZM8 7C7.48232 7 7.05621 7.39333 7.00488 7.89746L7 8V16C7 16.5523 7.44772 17 8 17H16C16.5523 17 17 16.5523 17 16V8C17 7.48232 16.6067 7.05621 16.1025 7.00488L16 7H8ZM13.4141 9.87891C13.6093 9.68365 13.9258 9.68365 14.1211 9.87891C14.3164 10.0742 14.3164 10.3907 14.1211 10.5859L12.707 12L14.1211 13.4141C14.3164 13.6093 14.3164 13.9258 14.1211 14.1211C13.9258 14.3164 13.6093 14.3164 13.4141 14.1211L12 12.707L10.5859 14.1211C10.3907 14.3164 10.0742 14.3164 9.87891 14.1211C9.68365 13.9258 9.68365 13.6093 9.87891 13.4141L11.293 12L9.87891 10.5859C9.68364 10.3907 9.68364 10.0742 9.87891 9.87891C10.0742 9.68365 10.3907 9.68365 10.5859 9.87891L12 11.293L13.4141 9.87891Z" fill="black" fill-opacity="0.9"/>
</g>
</svg>
