<svg width="24" height="24" viewBox="0 0 24 24" fill="none" xmlns="http://www.w3.org/2000/svg">
<g id="icon.24.proportional-lowercase-number">
<path id="Icon" d="M16.0918 10.0625C16.521 10.0625 16.8691 10.4107 16.8691 10.8398C16.8691 10.9609 16.8405 11.0803 16.7861 11.1885L13.5781 17.5723C13.4945 17.7387 13.324 17.8447 13.1377 17.8447C12.7703 17.8447 12.5316 17.4568 12.6973 17.1289L15.7695 11.0537C15.773 11.0469 15.7744 11.0389 15.7744 11.0312C15.7744 11.0042 15.7526 10.9825 15.7256 10.9824H12.2637C12.0098 10.9824 11.8038 10.7763 11.8037 10.5225C11.8037 10.2685 12.0098 10.0625 12.2637 10.0625H16.0918ZM9.31348 10.0625C9.75736 10.0625 10.1172 10.4223 10.1172 10.8662V15.3145C10.1171 15.6071 9.87959 15.8447 9.58691 15.8447C9.29445 15.8445 9.05773 15.6069 9.05762 15.3145V11.1807C9.05762 11.1614 9.04173 11.1456 9.02246 11.1455C9.0156 11.1455 9.00866 11.1476 9.00293 11.1514L7.80469 11.9404C7.5156 12.1306 7.13089 11.9232 7.13086 11.5771C7.13086 11.431 7.20416 11.2943 7.32617 11.2139L8.87109 10.1953C9.00236 10.1087 9.15623 10.0625 9.31348 10.0625Z" fill="black" fill-opacity="0.9"/>
</g>
</svg>
