<svg width="24" height="24" viewBox="0 0 24 24" fill="none" xmlns="http://www.w3.org/2000/svg">
<g id="icon.24.annotate">
<path id="Icon" d="M11.5508 4.99976C11.9961 4.99982 12.219 5.53828 11.9043 5.85327C11.8105 5.94702 11.6834 5.99974 11.5508 5.99976L6 5.99976C5.48241 5.99976 5.05633 6.39321 5.00488 6.89722L5 6.99976L5 17.9998C5 18.552 5.44772 18.9998 6 18.9998H17C17.5523 18.9998 18 18.552 18 17.9998V12.449C18.0001 12.3165 18.0528 12.1891 18.1465 12.0955C18.4614 11.7808 18.9997 12.0038 19 12.449V17.9998C19 19.0354 18.2128 19.8867 17.2041 19.989L17 19.9998H6L5.7959 19.989C4.85436 19.8935 4.1062 19.1454 4.01074 18.2039L4 17.9998L4 6.99976C4.00014 5.8953 4.89552 4.99976 6 4.99976L11.5508 4.99976ZM17.0537 3.54468C17.6038 3.09609 18.3974 3.09576 18.9473 3.54468L19.0605 3.64722L20.3535 4.94019C20.9389 5.52596 20.939 6.47561 20.3535 7.06128L12.207 15.2078C12.0675 15.3472 11.8897 15.4425 11.6963 15.4812L9.19629 15.9812C8.86863 16.0467 8.52933 15.9439 8.29297 15.7078C8.0567 15.4715 7.95419 15.1321 8.01953 14.8044L8.51953 12.3044C8.55828 12.1112 8.65363 11.9332 8.79297 11.7937L16.9395 3.64722L17.0537 3.54468ZM9.5 12.5007L9 15.0007L11.5 14.5007L17.8965 8.10327L15.8965 6.10327L9.5 12.5007ZM18.3535 4.35425C18.1583 4.15905 17.8417 4.15906 17.6465 4.35425L16.6035 5.39624L18.6035 7.39624L19.6465 6.35425C19.8415 6.15909 19.8414 5.84246 19.6465 5.64722L18.3535 4.35425Z" fill="black" fill-opacity="0.9"/>
</g>
</svg>
