<svg width="24" height="24" viewBox="0 0 24 24" fill="none" xmlns="http://www.w3.org/2000/svg">
<g id="icon.24.duplicate.small">
<path id="Icon" d="M13.6533 6.00781C14.4097 6.08461 15 6.72334 15 7.5V9H16.5L16.6533 9.00781C17.4097 9.08461 18 9.72334 18 10.5V16.5L17.9922 16.6533C17.9205 17.3593 17.3593 17.9205 16.6533 17.9922L16.5 18H10.5C9.72334 18 9.08461 17.4097 9.00781 16.6533L9 16.5V15H7.5C6.72334 15 6.08461 14.4097 6.00781 13.6533L6 13.5V7.5C6 6.67157 6.67157 6 7.5 6H13.5L13.6533 6.00781ZM10.5 10C10.2239 10 10 10.2239 10 10.5V16.5C10 16.7761 10.2239 17 10.5 17H16.5C16.7761 17 17 16.7761 17 16.5V10.5C17 10.2239 16.7761 10 16.5 10H10.5ZM13.5 11.5C13.7761 11.5 14 11.7239 14 12V13H15C15.2761 13 15.5 13.2239 15.5 13.5C15.5 13.7761 15.2761 14 15 14H14V15C14 15.2761 13.7761 15.5 13.5 15.5C13.2239 15.5 13 15.2761 13 15V14H12C11.7239 14 11.5 13.7761 11.5 13.5C11.5 13.2239 11.7239 13 12 13H13V12C13 11.7239 13.2239 11.5 13.5 11.5ZM7.5 7C7.22386 7 7 7.22386 7 7.5V13.5C7 13.7761 7.22386 14 7.5 14H9V10.5C9 9.67157 9.67157 9 10.5 9H14V7.5C14 7.22386 13.7761 7 13.5 7H7.5Z" fill="black" fill-opacity="0.9"/>
</g>
</svg>
