<svg width="24" height="24" viewBox="0 0 24 24" fill="none" xmlns="http://www.w3.org/2000/svg">
<g id="icon.24.normal-number">
<path id="Icon" d="M8.68262 8.21826C9.0317 8.21826 9.3437 8.43704 9.46289 8.76514L11.8359 15.2983C11.9598 15.6393 11.7075 16.0005 11.3447 16.0005C11.1227 16.0004 10.9249 15.8595 10.8516 15.6499L10.2285 13.8687H7.13477L6.51074 15.6499C6.43728 15.8594 6.23864 16.0005 6.0166 16.0005C5.65406 16.0002 5.40142 15.6391 5.52539 15.2983L7.90234 8.76416C8.02166 8.4363 8.33372 8.21828 8.68262 8.21826ZM15.6162 8.11182C16.0899 8.11182 16.5079 8.20973 16.8701 8.40479C17.2323 8.5973 17.5165 8.85773 17.7217 9.18701C17.9268 9.51621 18.0292 9.88481 18.0293 10.2925C18.0293 10.5813 17.9755 10.864 17.8691 11.1401C17.7653 11.4137 17.5845 11.7193 17.3262 12.0562C17.0678 12.3905 16.708 12.7972 16.2471 13.2759L14.6133 15.0073C14.6059 15.0153 14.6017 15.0258 14.6016 15.0366C14.6016 15.0607 14.6215 15.0806 14.6455 15.0806H17.6982C17.9522 15.0806 18.1582 15.2866 18.1582 15.5405C18.1581 15.7943 17.9521 16.0005 17.6982 16.0005H13.6924C13.3889 16.0004 13.1428 15.7541 13.1426 15.4507C13.1426 15.3108 13.1962 15.1757 13.292 15.0737L15.7451 12.4624C16.0364 12.1483 16.2764 11.8751 16.4639 11.6421C16.6538 11.4091 16.7959 11.1873 16.8896 10.9771C16.9834 10.7668 17.0303 10.545 17.0303 10.312C17.0303 10.0462 16.9664 9.81697 16.8398 9.62451C16.7132 9.42955 16.5409 9.27875 16.3232 9.17236C16.1054 9.06599 15.8608 9.01222 15.5898 9.01221C15.3012 9.01221 15.0492 9.07198 14.834 9.19092C14.6212 9.30998 14.4564 9.47618 14.3398 9.68896C14.2962 9.76863 14.2607 9.85353 14.2334 9.94385C14.153 10.21 13.9392 10.4409 13.6611 10.4409C13.3832 10.4408 13.151 10.213 13.2031 9.93994C13.2531 9.67832 13.3452 9.43869 13.4775 9.22119C13.6902 8.87189 13.9824 8.59976 14.3545 8.40479C14.7268 8.20975 15.1476 8.11183 15.6162 8.11182ZM8.68262 9.54053C8.66461 9.54059 8.64869 9.55193 8.64258 9.56885L7.45508 12.9565H9.90918L8.72363 9.56885C8.71756 9.55177 8.70076 9.54053 8.68262 9.54053Z" fill="black" fill-opacity="0.9"/>
</g>
</svg>
