<svg width="24" height="24" viewBox="0 0 24 24" fill="none" xmlns="http://www.w3.org/2000/svg">
<g id="icon.24.interaction.click.small">
<path id="Icon" d="M11.293 11.2934C11.5703 11.0161 11.9844 10.9262 12.3516 11.0639L18.3516 13.3139C18.761 13.4678 19.0228 13.8704 18.998 14.3071C18.973 14.7439 18.6667 15.114 18.2422 15.2202L15.8242 15.8246L15.2197 18.2426C15.1135 18.667 14.7435 18.9735 14.3066 18.9985C13.87 19.0233 13.4674 18.7614 13.3135 18.352L11.0635 12.352C10.9258 11.9848 11.0157 11.5707 11.293 11.2934ZM9.8252 15.9379C9.92715 15.6918 10.2198 15.5925 10.4658 15.6948C10.7115 15.7971 10.8527 16.0758 10.751 16.3217L9.97461 18.1967C9.86894 18.4518 9.57542 18.5738 9.32031 18.4682C9.06525 18.3625 8.94425 18.069 9.0498 17.8139L9.8252 15.9379ZM14.25 18.0004L15 15.0004L18 14.2504L12 12.0004L14.25 18.0004ZM7.67871 13.2485C7.9244 13.1467 8.20258 13.2871 8.30469 13.5327C8.40671 13.7783 8.30723 14.0704 8.06152 14.1723L6.18555 14.9496C5.93056 15.0552 5.63798 14.934 5.53223 14.6791C5.42659 14.4241 5.54781 14.1316 5.80273 14.0258L7.67871 13.2485ZM17.8135 9.05023C18.0684 8.94477 18.361 9.06592 18.4668 9.32074C18.5724 9.57574 18.4512 9.86826 18.1963 9.97406L16.3193 10.7514C16.0737 10.853 15.7953 10.7118 15.6934 10.4662C15.5915 10.2205 15.6917 9.92936 15.9375 9.82758L17.8135 9.05023ZM5.53223 9.32074C5.63807 9.06609 5.93067 8.94481 6.18555 9.05023L8.06152 9.8266C8.30719 9.9285 8.4066 10.2206 8.30469 10.4662C8.20275 10.7118 7.92442 10.853 7.67871 10.7514L5.80371 9.97504C5.54869 9.8694 5.42676 9.57579 5.53223 9.32074ZM9.32031 5.53265C9.57532 5.42703 9.86784 5.54827 9.97363 5.80316L10.751 7.67914C10.8526 7.92482 10.7114 8.20318 10.4658 8.30511C10.2201 8.40704 9.92806 8.30763 9.82617 8.06195L9.0498 6.18597C8.94434 5.93104 9.06554 5.63844 9.32031 5.53265ZM14.0244 5.80316C14.1301 5.54805 14.4236 5.42699 14.6787 5.53265C14.9335 5.63841 15.0547 5.93101 14.9492 6.18597L14.1719 8.06195C14.0699 8.30769 13.7778 8.4075 13.5322 8.30511C13.2865 8.20267 13.1461 7.92311 13.248 7.67719L14.0244 5.80316Z" fill="black" fill-opacity="0.9"/>
</g>
</svg>
