<svg width="24" height="24" viewBox="0 0 24 24" fill="none" xmlns="http://www.w3.org/2000/svg">
<g id="icon.24.flatten.small">
<path id="Icon" d="M17.5 17C17.7761 17 18 17.2239 18 17.5C18 17.7761 17.7761 18 17.5 18H6.5C6.22386 18 6 17.7761 6 17.5C6 17.2239 6.22386 17 6.5 17H17.5ZM18.5 14C18.7761 14 19 14.2239 19 14.5C19 14.7761 18.7761 15 18.5 15H5.5C5.22386 15 5 14.7761 5 14.5C5 14.2239 5.22386 14 5.5 14H18.5ZM12 5C12.2761 5 12.5 5.22386 12.5 5.5V10.293L14.1465 8.64648C14.3417 8.45122 14.6583 8.45122 14.8535 8.64648C15.0488 8.84175 15.0488 9.15825 14.8535 9.35352L12.3535 11.8535C12.1583 12.0488 11.8417 12.0488 11.6465 11.8535L9.14648 9.35352C8.95122 9.15825 8.95122 8.84175 9.14648 8.64648C9.34175 8.45122 9.65825 8.45122 9.85352 8.64648L11.5 10.293V5.5C11.5 5.22386 11.7239 5 12 5Z" fill="black" fill-opacity="0.9"/>
</g>
</svg>
