<svg width="24" height="24" viewBox="0 0 24 24" fill="none" xmlns="http://www.w3.org/2000/svg">
<g id="icon.24.search">
<path id="Icon" d="M10.5 4.00002C14.0899 4.00002 17 6.91017 17 10.5C17 12.1149 16.4094 13.5908 15.4346 14.7276L19.8535 19.1465C20.0488 19.3418 20.0488 19.6583 19.8535 19.8535C19.6583 20.0488 19.3417 20.0488 19.1465 19.8535L14.7275 15.4346C13.5908 16.4094 12.1149 17 10.5 17C6.91015 17 4 14.0899 4 10.5C4 6.91017 6.91015 4.00002 10.5 4.00002ZM10.5 5.00002C7.46243 5.00002 5 7.46246 5 10.5C5 13.5376 7.46243 16 10.5 16C13.5376 16 16 13.5376 16 10.5C16 7.46246 13.5376 5.00002 10.5 5.00002Z" fill="black" fill-opacity="0.9"/>
</g>
</svg>
