<svg width="24" height="24" viewBox="0 0 24 24" fill="none" xmlns="http://www.w3.org/2000/svg">
<g id="icon.24.shadows.small">
<path id="Secondary Fill" d="M12 18.9293C8.6081 18.4447 6 15.5262 6 12C6 8.47389 8.6081 5.5554 12 5.0708V18.9293Z" fill="black" fill-opacity="0.3"/>
<path id="Icon" d="M12.002 4.06171C12.55 3.9935 13 4.4479 13 5.00018V6.08417C15.8377 6.56023 18 9.02717 18 12.0002C17.9999 14.9731 15.8376 17.4391 13 17.9152V19.0002C12.9999 19.5179 12.6045 19.9498 12.1035 19.9455L12.002 19.9387C8.05474 19.4474 5.00008 16.0804 5 12.0002C5 7.91989 8.0547 4.55294 12.002 4.06171ZM12 5.07245C8.60822 5.55715 6 8.47411 6 12.0002C6.00008 15.5261 8.60832 18.4422 12 18.9269V5.07245ZM13 16.8996C15.2821 16.4363 16.9999 14.419 17 12.0002C17 9.5812 15.2823 7.56303 13 7.09979V16.8996Z" fill="black" fill-opacity="0.9"/>
</g>
</svg>
