<svg width="24" height="24" viewBox="0 0 24 24" fill="none" xmlns="http://www.w3.org/2000/svg">
<g id="icon.24.al.spacing-horizontal">
<path id="Icon" d="M7.75 7C8.44036 7 9 7.55964 9 8.25V14.75C9 15.4404 8.44036 16 7.75 16H7.5C7.22386 16 7 15.7761 7 15.5C7 15.2239 7.22386 15 7.5 15H7.75C7.88807 15 8 14.8881 8 14.75V8.25C8 8.11193 7.88807 8 7.75 8H7.5C7.22386 8 7 7.77614 7 7.5C7 7.22386 7.22386 7 7.5 7H7.75ZM15.5 7C15.7761 7 15.9999 7.22397 16 7.5C15.9999 7.77609 15.7761 8 15.5 8H15.25C15.112 8 15.0001 8.11204 15 8.25V14.75C15 14.8881 15.1119 15 15.25 15H15.5C15.7761 15 15.9999 15.224 16 15.5C16 15.7761 15.7761 16 15.5 16H15.25C14.5596 16 14 15.4404 14 14.75V8.25C14.0001 7.55976 14.5597 7 15.25 7H15.5ZM11.5 9C11.7761 9 12 9.22386 12 9.5V13.5C12 13.7761 11.7761 14 11.5 14C11.2239 14 11 13.7761 11 13.5V9.5C11 9.22386 11.2239 9 11.5 9Z" fill="black" fill-opacity="0.9"/>
</g>
</svg>
