<svg width="24" height="24" viewBox="0 0 24 24" fill="none" xmlns="http://www.w3.org/2000/svg">
<g id="icon.24.approved.checkmark">
<path id="Icon" d="M12 5C15.866 5 19 8.13401 19 12C19 15.866 15.866 19 12 19C8.13401 19 5 15.866 5 12C5 8.13401 8.13401 5 12 5ZM12 6C8.68629 6 6 8.68629 6 12C6 15.3137 8.68629 18 12 18C15.3137 18 18 15.3137 18 12C18 8.68629 15.3137 6 12 6ZM14.0713 9.24316C14.2133 9.00647 14.5201 8.92945 14.7568 9.07129C14.9935 9.21331 15.0706 9.52008 14.9287 9.75684L11.9287 14.7568C11.8405 14.9038 11.6831 14.9959 11.5117 15C11.3404 15.004 11.179 14.9199 11.084 14.7773L9.08398 11.7773C8.93081 11.5476 8.99289 11.2372 9.22266 11.084C9.45242 10.9308 9.76284 10.9929 9.91602 11.2227L11.4775 13.5654L14.0713 9.24316Z" fill="black" fill-opacity="0.9"/>
</g>
</svg>
