<svg width="24" height="24" viewBox="0 0 24 24" fill="none" xmlns="http://www.w3.org/2000/svg">
<g id="icon.24.boolean.exclude">
<path id="Secondary Fill" d="M14 10H19V19H10V14H5V5H14V10ZM10 10V14H14V10H10Z" fill="black" fill-opacity="0.3"/>
<path id="Icon" d="M14 4C14.5523 4 15 4.44772 15 5V9H19C19.5523 9 20 9.44772 20 10V19C20 19.5523 19.5523 20 19 20H10C9.44772 20 9 19.5523 9 19V15H5C4.44772 15 4 14.5523 4 14V5C4 4.44772 4.44772 4 5 4H14ZM15 14C15 14.5523 14.5523 15 14 15H10V19H19V10H15V14ZM10 10V14H14V10H10ZM5 14H9V10C9 9.44772 9.44772 9 10 9H14V5H5V14Z" fill="black" fill-opacity="0.9"/>
</g>
</svg>
