<svg width="24" height="24" viewBox="0 0 24 24" fill="none" xmlns="http://www.w3.org/2000/svg">
<g id="icon.24.edit.mode">
<path id="Icon" d="M17.5 4C18.8807 4 20 5.11929 20 6.5C20 7.70943 19.141 8.71753 18 8.94922V15.0498C19.1411 15.2814 20 16.2905 20 17.5C20 18.8807 18.8807 20 17.5 20C16.2905 20 15.2814 19.1411 15.0498 18H8.9502C8.71858 19.1411 7.70949 20 6.5 20C5.11929 20 4 18.8807 4 17.5C4 16.2905 4.85886 15.2814 6 15.0498V8.94922C4.85895 8.71753 4 7.70943 4 6.5C4 5.11929 5.11929 4 6.5 4C7.70949 4 8.71858 4.85886 8.9502 6H15.0498C15.2814 4.85886 16.2905 4 17.5 4ZM6.5 16C5.67157 16 5 16.6716 5 17.5C5 18.3284 5.67157 19 6.5 19C7.32843 19 8 18.3284 8 17.5C8 16.6716 7.32843 16 6.5 16ZM17.5 16C16.6716 16 16 16.6716 16 17.5C16 18.3284 16.6716 19 17.5 19C18.3284 19 19 18.3284 19 17.5C19 16.6716 18.3284 16 17.5 16ZM8.9502 7C8.75138 7.97953 7.97951 8.75033 7 8.94922V15.0498C7.9796 15.2486 8.75136 16.0204 8.9502 17H15.0498C15.2486 16.0204 16.0204 15.2486 17 15.0498V8.94922C16.0205 8.75033 15.2486 7.97953 15.0498 7H8.9502ZM6.5 5C5.67157 5 5 5.67157 5 6.5C5 7.32843 5.67157 8 6.5 8C7.32843 8 8 7.32843 8 6.5C8 5.67157 7.32843 5 6.5 5ZM17.5 5C16.6716 5 16 5.67157 16 6.5C16 7.32843 16.6716 8 17.5 8C18.3284 8 19 7.32843 19 6.5C19 5.67157 18.3284 5 17.5 5Z" fill="black" fill-opacity="0.9"/>
</g>
</svg>
