<svg width="24" height="24" viewBox="0 0 24 24" fill="none" xmlns="http://www.w3.org/2000/svg">
<g id="icon.24.highlights.small">
<path id="Secondary Fill" d="M9.26855 17.3403C9.72721 17.5753 10.2197 17.7537 10.7373 17.8647L11.001 17.9155C10.3865 17.8123 9.80459 17.6151 9.26855 17.3403ZM7.83203 16.312C8.05919 16.5315 8.303 16.7337 8.5625 16.9155C8.30302 16.7336 8.05916 16.5316 7.83203 16.312ZM11.001 16.8998C8.71892 16.4366 7.00117 14.4192 7.00098 12.0004C7.00098 9.58147 8.71874 7.56331 11.001 7.10004V16.8998ZM7.45801 15.9174C7.56195 16.0378 7.67014 16.1543 7.7832 16.2661C7.67016 16.1543 7.56192 16.0378 7.45801 15.9174ZM10.7373 6.13324C10.3045 6.22601 9.88877 6.36574 9.49609 6.54633C9.88882 6.36565 10.3044 6.22604 10.7373 6.13324ZM8.01562 7.51703C8.0013 7.52976 7.98588 7.54127 7.97168 7.55414C7.98588 7.54126 8.0013 7.52977 8.01562 7.51703ZM9.49707 6.5473C9.48912 6.55096 9.48059 6.55338 9.47266 6.55707C9.48059 6.55338 9.48912 6.55096 9.49707 6.5473ZM10.7373 6.13324C10.8244 6.11456 10.9125 6.09926 11.001 6.08441C10.9125 6.09926 10.8244 6.11457 10.7373 6.13324Z" fill="black" fill-opacity="0.3"/>
<path id="Icon" d="M11.998 4.06171C15.9453 4.55293 19 7.91989 19 12.0002C18.9999 16.0804 15.9453 19.4474 11.998 19.9387L11.8965 19.9455C11.3956 19.9496 11.0001 19.5178 11 19.0002V17.9152C8.16249 17.439 6.00008 14.973 6 12.0002C6 9.02725 8.16238 6.56033 11 6.08417V5.00018C11 4.44797 11.4501 3.99365 11.998 4.06171ZM12 18.9269C15.3917 18.4422 17.9999 15.5261 18 12.0002C18 8.4741 15.3918 5.55714 12 5.07245V18.9269ZM11 7.09979C8.71774 7.56304 7 9.58121 7 12.0002C7.00008 14.419 8.71786 16.4363 11 16.8996V7.09979Z" fill="black" fill-opacity="0.9"/>
</g>
</svg>
