<svg width="24" height="24" viewBox="0 0 24 24" fill="none" xmlns="http://www.w3.org/2000/svg">
<g id="icon.24.close">
<path id="Icon" d="M16.6465 6.64648C16.8417 6.45122 17.1583 6.45122 17.3535 6.64648C17.5488 6.84175 17.5488 7.15825 17.3535 7.35352L12.707 12L17.3535 16.6465C17.5488 16.8417 17.5488 17.1583 17.3535 17.3535C17.1583 17.5488 16.8417 17.5488 16.6465 17.3535L12 12.707L7.35352 17.3535C7.15825 17.5488 6.84175 17.5488 6.64648 17.3535C6.45122 17.1583 6.45122 16.8417 6.64648 16.6465L11.293 12L6.64648 7.35352C6.45127 7.15825 6.45124 6.84173 6.64648 6.64648C6.84173 6.45129 7.15827 6.45129 7.35352 6.64648L12 11.293L16.6465 6.64648Z" fill="black" fill-opacity="0.9"/>
</g>
</svg>
