<svg width="24" height="24" viewBox="0 0 24 24" fill="none" xmlns="http://www.w3.org/2000/svg">
<g id="icon.24.vector.bend">
<path id="Icon" d="M17.5 4C18.8807 4 20 5.11929 20 6.5C20 7.88071 18.8807 9 17.5 9C16.2905 9 15.2814 8.14114 15.0498 7H14C10.134 7 7 10.134 7 14V15.0498C8.14114 15.2814 9 16.2905 9 17.5C9 18.8807 7.88071 20 6.5 20C5.11929 20 4 18.8807 4 17.5C4 16.2905 4.85886 15.2814 6 15.0498V14C6 9.58172 9.58172 6 14 6H15.0498C15.2814 4.85886 16.2905 4 17.5 4ZM6.5 16C5.67157 16 5 16.6716 5 17.5C5 18.3284 5.67157 19 6.5 19C7.32843 19 8 18.3284 8 17.5C8 16.6716 7.32843 16 6.5 16ZM17.5 5C16.6716 5 16 5.67157 16 6.5C16 7.32843 16.6716 8 17.5 8C18.3284 8 19 7.32843 19 6.5C19 5.67157 18.3284 5 17.5 5Z" fill="black" fill-opacity="0.9"/>
</g>
</svg>
