<svg width="24" height="24" viewBox="0 0 24 24" fill="none" xmlns="http://www.w3.org/2000/svg">
<g id="icon.24.description.small">
<path id="Icon" d="M15 6C16.1046 6 17 6.89543 17 8V16C17 17.1046 16.1046 18 15 18H9L8.7959 17.9893C7.78722 17.887 7 17.0357 7 16V8C7 6.89543 7.89543 6 9 6H15ZM9 7C8.44772 7 8 7.44772 8 8V16C8 16.5523 8.44772 17 9 17H15C15.5523 17 16 16.5523 16 16V8C16 7.44772 15.5523 7 15 7H9ZM12.5 13C12.7761 13 13 13.2239 13 13.5C13 13.7761 12.7761 14 12.5 14H10.5C10.2239 14 10 13.7761 10 13.5C10 13.2239 10.2239 13 10.5 13H12.5ZM13.5 11C13.7761 11 14 11.2239 14 11.5C14 11.7761 13.7761 12 13.5 12H10.5C10.2239 12 10 11.7761 10 11.5C10 11.2239 10.2239 11 10.5 11H13.5ZM13.5 9C13.7761 9 14 9.22386 14 9.5C14 9.77614 13.7761 10 13.5 10H10.5C10.2239 10 10 9.77614 10 9.5C10 9.22386 10.2239 9 10.5 9H13.5Z" fill="black" fill-opacity="0.9"/>
</g>
</svg>
