<svg width="24" height="24" viewBox="0 0 24 24" fill="none" xmlns="http://www.w3.org/2000/svg">
<g id="icon.24.variable.mode.small">
<path id="Icon" d="M8.9707 6.61755C9.60407 6.23753 10.3959 6.23753 11.0293 6.61755L14.0293 8.41736C14.6315 8.77884 15 9.43076 15 10.1332V13.8676L14.9961 13.9994C14.9532 14.6508 14.5938 15.2446 14.0293 15.5834L11.0293 17.3832L10.9082 17.4496C10.338 17.7404 9.66203 17.7403 9.0918 17.4496L8.9707 17.3832L5.9707 15.5834C5.36842 15.222 5.00012 14.5699 5 13.8676V10.1332C5 9.43073 5.36841 8.77883 5.9707 8.41736L8.9707 6.61755ZM12.9717 6.61658C13.6049 6.23717 14.3963 6.23775 15.0293 6.61755L18.0293 8.41736C18.6315 8.77885 19 9.43078 19 10.1332V13.8676L18.9961 13.9994C18.9532 14.6507 18.5937 15.2446 18.0293 15.5834L15.0293 17.3832L14.9082 17.4496C14.338 17.7402 13.6619 17.7403 13.0918 17.4496L12.9717 17.3832L14.2021 16.6439C14.3104 16.6215 14.4168 16.5844 14.5146 16.5258L17.5146 14.726C17.8156 14.5453 17.9999 14.2186 18 13.8676V10.1332C18 9.782 17.8157 9.45553 17.5146 9.27478L14.5146 7.47498C14.4167 7.41619 14.3106 7.37726 14.2021 7.35486L12.9717 6.61658ZM10.5146 7.47498C10.198 7.28497 9.80203 7.28498 9.48535 7.47498L6.48535 9.27478C6.18424 9.45552 6 9.78198 6 10.1332V13.8676C6.00012 14.2187 6.18425 14.5453 6.48535 14.726L9.48535 16.5258C9.80195 16.7156 10.1981 16.7156 10.5146 16.5258L13.5146 14.726C13.8157 14.5453 13.9999 14.2187 14 13.8676V10.1332C14 9.78198 13.8158 9.45552 13.5146 9.27478L10.5146 7.47498ZM10 11.0004C10.5523 11.0004 11 11.4481 11 12.0004C10.9998 12.5525 10.5522 13.0004 10 13.0004C9.44783 13.0004 9.00019 12.5525 9 12.0004C9 11.4481 9.44772 11.0004 10 11.0004Z" fill="black" fill-opacity="0.9"/>
</g>
</svg>
