<svg width="24" height="24" viewBox="0 0 24 24" fill="none" xmlns="http://www.w3.org/2000/svg">
<g id="icon.24.layout-overlay-center">
<g id="Icon">
<mask id="path-1-inside-1_1027518_7315" fill="white">
<path d="M16.2041 4.01074C17.2128 4.113 18 4.96435 18 6V18C18 19.0357 17.2128 19.887 16.2041 19.9893L16 20H8C6.89543 20 6 19.1046 6 18V6C6 4.89543 6.89543 4 8 4H16L16.2041 4.01074ZM8 5C7.44772 5 7 5.44772 7 6V18C7 18.5523 7.44772 19 8 19H16C16.5523 19 17 18.5523 17 18V6C17 5.48232 16.6067 5.05621 16.1025 5.00488L16 5H8ZM14 9C14.5523 9 15 9.44772 15 10V14C15 14.5523 14.5523 15 14 15H10C9.44772 15 9 14.5523 9 14V10C9 9.44772 9.44772 9 10 9H14Z"/>
</mask>
<path d="M16.2041 4.01074C17.2128 4.113 18 4.96435 18 6V18C18 19.0357 17.2128 19.887 16.2041 19.9893L16 20H8C6.89543 20 6 19.1046 6 18V6C6 4.89543 6.89543 4 8 4H16L16.2041 4.01074ZM8 5C7.44772 5 7 5.44772 7 6V18C7 18.5523 7.44772 19 8 19H16C16.5523 19 17 18.5523 17 18V6C17 5.48232 16.6067 5.05621 16.1025 5.00488L16 5H8ZM14 9C14.5523 9 15 9.44772 15 10V14C15 14.5523 14.5523 15 14 15H10C9.44772 15 9 14.5523 9 14V10C9 9.44772 9.44772 9 10 9H14Z" fill="black" fill-opacity="0.3"/>
<path d="M16.2041 4.01074L16.305 3.01584L16.2809 3.0134L16.2567 3.01212L16.2041 4.01074ZM16.2041 19.9893L16.2567 20.9879L16.2809 20.9866L16.305 20.9842L16.2041 19.9893ZM16 20V21H16.0263L16.0526 20.9986L16 20ZM8 20L8 21H8V20ZM6 6H5H6ZM8 4L8 3L8 3L8 4ZM16 4L16.0526 3.00138L16.0263 3H16V4ZM8 5L8 4L8 4L8 5ZM7 6H6H7ZM8 19L8 20H8V19ZM16 19L16 20H16L16 19ZM16.1025 5.00488L16.2038 4.01003L16.177 4.0073L16.1501 4.00601L16.1025 5.00488ZM16 5L16.0476 4.00113L16.0238 4H16V5ZM14 9L14 8H14V9ZM15 10L16 10V10L15 10ZM15 14L16 14V14H15ZM14 15L14 16H14L14 15ZM10 15L10 16H10V15ZM9 14L8 14V14L9 14ZM9 10L8 10V10H9ZM10 9L10 8L10 8L10 9ZM16.2041 4.01074L16.1032 5.00564C16.6068 5.0567 17 5.48311 17 6H18H19C19 4.44559 17.8187 3.16931 16.305 3.01584L16.2041 4.01074ZM18 6H17V18H18H19V6H18ZM18 18H17C17 18.5169 16.6068 18.9433 16.1032 18.9944L16.2041 19.9893L16.305 20.9842C17.8187 20.8307 19 19.5544 19 18H18ZM16.2041 19.9893L16.1515 18.9906L15.9474 19.0014L16 20L16.0526 20.9986L16.2567 20.9879L16.2041 19.9893ZM16 20V19H8V20V21H16V20ZM8 20L8 19C7.44772 19 7 18.5523 7 18H6H5C5 19.6569 6.34315 21 8 21L8 20ZM6 18H7V6H6H5V18H6ZM6 6H7C7 5.44772 7.44772 5 8 5L8 4L8 3C6.34315 3 5 4.34315 5 6H6ZM8 4V5H16V4V3H8V4ZM16 4L15.9474 4.99862L16.1515 5.00936L16.2041 4.01074L16.2567 3.01212L16.0526 3.00138L16 4ZM8 5L8 4C6.89543 4 6 4.89543 6 6L7 6L8 6L8 6L8 5ZM7 6H6V18H7H8V6H7ZM7 18H6C6 19.1046 6.89543 20 8 20L8 19L8 18L8 18H7ZM8 19V20H16V19V18H8V19ZM16 19L16 20C17.1046 20 18 19.1046 18 18H17H16H16L16 19ZM17 18H18V6H17H16V18H17ZM17 6H18C18 4.96446 17.2136 4.11284 16.2038 4.01003L16.1025 5.00488L16.0012 5.99974C16.0013 5.99975 16.001 5.99971 16.0004 5.99953C15.9998 5.99937 15.9994 5.99919 15.9992 5.99908C15.9989 5.99893 15.9994 5.99915 16.0001 5.99988C16.0007 6.00057 16.0006 6.00075 16.0003 6.00001C15.9998 5.99872 16 5.99815 16 6H17ZM16.1025 5.00488L16.1501 4.00601L16.0476 4.00113L16 5L15.9524 5.99887L16.055 6.00375L16.1025 5.00488ZM16 5V4H8V5V6H16V5ZM14 9L14 10L14 10L15 10L16 10C16 8.89543 15.1046 8 14 8L14 9ZM15 10H14V14H15H16V10H15ZM15 14L14 14L14 14L14 15L14 16C15.1046 16 16 15.1046 16 14L15 14ZM14 15V14H10V15V16H14V15ZM10 15L10 14L10 14L9 14L8 14C8 15.1046 8.89543 16 10 16L10 15ZM9 14H10V10H9H8V14H9ZM9 10L10 10L10 10L10 9L10 8C8.89543 8 8 8.89543 8 10L9 10ZM10 9V10H14V9V8H10V9Z" fill="black" fill-opacity="0.9" mask="url(#path-1-inside-1_1027518_7315)"/>
</g>
</g>
</svg>
