<svg width="24" height="24" viewBox="0 0 24 24" fill="none" xmlns="http://www.w3.org/2000/svg">
<g id="icon.24.layout-align-bottom">
<path id="Icon" d="M13 10.75C13 10.3358 13.3358 10 13.75 10H14.25C14.6642 10 15 10.3358 15 10.75V15.25C15 15.6642 14.6642 16 14.25 16H13.75C13.3358 16 13 15.6642 13 15.25V10.75ZM8 6.75C8 6.33579 8.33579 6 8.75 6H9.25C9.66421 6 10 6.33579 10 6.75V15.25C10 15.6642 9.66421 16 9.25 16H8.75C8.33579 16 8 15.6642 8 15.25L8 6.75Z" fill="black" fill-opacity="0.9"/>
<path id="Rectangle 7.31" d="M17.5 18C17.7761 18 18 18.2239 18 18.5C18 18.7761 17.7761 19 17.5 19H5.5C5.22386 19 5 18.7761 5 18.5C5 18.2239 5.22386 18 5.5 18H17.5Z" fill="black" fill-opacity="0.3"/>
</g>
</svg>
