<svg width="24" height="24" viewBox="0 0 24 24" fill="none" xmlns="http://www.w3.org/2000/svg">
<g id="icon.24.edit.object">
<path id="Icon" d="M18.1025 3.00476C18.6067 3.05609 19 3.4822 19 3.99988V5.99988L18.9951 6.10242C18.9438 6.60655 18.5177 6.99988 18 6.99988H16C15.9104 6.99988 15.8239 6.98683 15.7412 6.96472L13.7061 8.99988C14.5758 8.6759 15.5174 8.49988 16.5 8.49988C18.0797 8.49988 19.5526 8.95763 20.793 9.74792C20.9237 9.83123 21 9.97766 21 10.1327C20.9998 10.5307 20.5248 10.7584 20.1865 10.5487C19.116 9.88406 17.8527 9.49988 16.5 9.49988C15.3801 9.49988 14.3215 9.76283 13.3828 10.2303C13.3814 10.231 13.3793 10.2306 13.3779 10.2313C13.4562 10.4736 13.5 10.7316 13.5 10.9999C13.5 12.3806 12.3807 13.4999 11 13.4999C10.7317 13.4999 10.4737 13.4561 10.2314 13.3778C10.2308 13.3792 10.2312 13.3813 10.2305 13.3827C9.76295 14.3214 9.5 15.38 9.5 16.4999C9.5 17.8528 9.88482 19.1159 10.5498 20.1864C10.7595 20.5246 10.5318 20.9996 10.1338 20.9999C9.97878 20.9999 9.83234 20.9236 9.74902 20.7928C8.95848 19.5524 8.5 18.0798 8.5 16.4999C8.5 15.5173 8.67603 14.5756 9 13.7059L6.96484 15.7411C6.98695 15.8237 7 15.9103 7 15.9999V17.9999L6.99512 18.1024C6.94379 18.6065 6.51768 18.9999 6 18.9999H4C3.44772 18.9999 3 18.5522 3 17.9999V15.9999C3 15.4476 3.44772 14.9999 4 14.9999H6L6.10254 15.0048C6.15572 15.0102 6.20743 15.0206 6.25781 15.0341L8.91406 12.3778C8.65254 11.9827 8.5 11.5092 8.5 10.9999C8.5 9.61917 9.61929 8.49988 11 8.49988C11.5093 8.49988 11.9828 8.65242 12.3779 8.91394L15.0342 6.25769C15.0123 6.17539 15 6.08908 15 5.99988V3.99988C15 3.44759 15.4477 2.99988 16 2.99988H18L18.1025 3.00476ZM4 17.9999H6V15.9999H4V17.9999ZM11 9.49988C10.1716 9.49988 9.5 10.1715 9.5 10.9999C9.5 11.8283 10.1716 12.4999 11 12.4999C11.8284 12.4999 12.5 11.8283 12.5 10.9999C12.5 10.1715 11.8284 9.49988 11 9.49988ZM16 5.99988H18V3.99988H16V5.99988Z" fill="black" fill-opacity="0.9"/>
</g>
</svg>
