<svg width="24" height="24" viewBox="0 0 24 24" fill="none" xmlns="http://www.w3.org/2000/svg">
<g id="icon.24.component.set.small">
<path id="Icon" d="M6.5 16C6.74171 16 6.94371 16.1714 6.99023 16.3994L7.00977 16.6006C7.04966 16.7961 7.20392 16.9503 7.39941 16.9902L7.60059 17.0098C7.82855 17.0563 8 17.2583 8 17.5C8 17.7761 7.77614 18 7.5 18C6.67157 18 6 17.3284 6 16.5C6 16.2239 6.22386 16 6.5 16ZM11 17C11.2761 17 11.5 17.2239 11.5 17.5C11.5 17.7761 11.2761 18 11 18H9.5C9.22386 18 9 17.7761 9 17.5C9 17.2239 9.22386 17 9.5 17H11ZM14.5 17C14.7761 17 15 17.2239 15 17.5C15 17.7761 14.7761 18 14.5 18H13C12.7239 18 12.5 17.7761 12.5 17.5C12.5 17.2239 12.7239 17 13 17H14.5ZM17.5 16C17.7761 16 18 16.2239 18 16.5C18 17.3284 17.3284 18 16.5 18C16.2239 18 16 17.7761 16 17.5C16 17.2583 16.1714 17.0563 16.3994 17.0098L16.6006 16.9902C16.7961 16.9503 16.9503 16.7961 16.9902 16.6006L17.0098 16.3994C17.0563 16.1714 17.2583 16 17.5 16ZM11.6465 13.0605C11.8417 12.8654 12.1583 12.8654 12.3535 13.0605L12.918 13.625C13.1132 13.8202 13.1132 14.1368 12.918 14.332L12.3535 14.8965C12.1583 15.0917 11.8417 15.0917 11.6465 14.8965L11.082 14.332C10.8869 14.1368 10.8868 13.8202 11.082 13.625L11.6465 13.0605ZM6.5 12.5C6.77614 12.5 7 12.7239 7 13V14.5C7 14.7761 6.77614 15 6.5 15C6.22386 15 6 14.7761 6 14.5V13C6 12.7239 6.22386 12.5 6.5 12.5ZM17.5 12.5C17.7761 12.5 18 12.7239 18 13V14.5C18 14.7761 17.7761 15 17.5 15C17.2239 15 17 14.7761 17 14.5V13C17 12.7239 17.2239 12.5 17.5 12.5ZM9.66797 11.082C9.8632 10.8868 10.1797 10.8869 10.375 11.082L10.9395 11.6465C11.1347 11.8417 11.1347 12.1583 10.9395 12.3535L10.375 12.918C10.1797 13.1132 9.86322 13.1132 9.66797 12.918L9.10352 12.3535C8.90838 12.1583 8.90833 11.8417 9.10352 11.6465L9.66797 11.082ZM13.625 11.082C13.8202 10.8868 14.1368 10.8869 14.332 11.082L14.8965 11.6465C15.0917 11.8417 15.0917 12.1583 14.8965 12.3535L14.332 12.918C14.1368 13.1132 13.8202 13.1132 13.625 12.918L13.0605 12.3535C12.8654 12.1583 12.8654 11.8417 13.0605 11.6465L13.625 11.082ZM6.5 9C6.77614 9 7 9.22386 7 9.5V11C7 11.2761 6.77614 11.5 6.5 11.5C6.22386 11.5 6 11.2761 6 11V9.5C6 9.22386 6.22386 9 6.5 9ZM17.5 9C17.7761 9 18 9.22386 18 9.5V11C18 11.2761 17.7761 11.5 17.5 11.5C17.2239 11.5 17 11.2761 17 11V9.5C17 9.22386 17.2239 9 17.5 9ZM11.6465 9.10352C11.8417 8.90833 12.1583 8.90838 12.3535 9.10352L12.918 9.66797C13.1132 9.86322 13.1132 10.1797 12.918 10.375L12.3535 10.9395C12.1583 11.1347 11.8417 11.1347 11.6465 10.9395L11.082 10.375C10.8869 10.1797 10.8868 9.8632 11.082 9.66797L11.6465 9.10352ZM7.5 6C7.77614 6 8 6.22386 8 6.5C8 6.74171 7.82855 6.94371 7.60059 6.99023L7.39941 7.00977C7.20392 7.04966 7.04966 7.20392 7.00977 7.39941L6.99023 7.60059C6.94371 7.82855 6.74171 8 6.5 8C6.22386 8 6 7.77614 6 7.5C6 6.67157 6.67157 6 7.5 6ZM16.5 6C17.3284 6 18 6.67157 18 7.5C18 7.77614 17.7761 8 17.5 8C17.2583 8 17.0563 7.82855 17.0098 7.60059L16.9902 7.39941C16.9503 7.20392 16.7961 7.04966 16.6006 7.00977L16.3994 6.99023C16.1714 6.94371 16 6.74171 16 6.5C16 6.22386 16.2239 6 16.5 6ZM11 6C11.2761 6 11.5 6.22386 11.5 6.5C11.5 6.77614 11.2761 7 11 7H9.5C9.22386 7 9 6.77614 9 6.5C9 6.22386 9.22386 6 9.5 6H11ZM14.5 6C14.7761 6 15 6.22386 15 6.5C15 6.77614 14.7761 7 14.5 7H13C12.7239 7 12.5 6.77614 12.5 6.5C12.5 6.22386 12.7239 6 13 6H14.5Z" fill="black" fill-opacity="0.9"/>
</g>
</svg>
