<svg width="24" height="24" viewBox="0 0 24 24" fill="none" xmlns="http://www.w3.org/2000/svg">
<g id="icon.24.stroke-triangle-arrow">
<path id="Icon" d="M9.46973 8.15207C9.77785 7.95949 10.1665 7.94876 10.4844 8.12473C10.8023 8.30095 11 8.6362 11 8.99973V10.9997H18.5C18.7761 10.9997 19 11.2236 19 11.4997C18.9999 11.7757 18.7761 11.9997 18.5 11.9997H11V13.9997C11 14.3633 10.8023 14.6985 10.4844 14.8747C10.1665 15.0507 9.77785 15.04 9.46973 14.8474L5.46973 12.3474C5.17755 12.1646 5 11.8444 5 11.4997C5 11.1551 5.17755 10.8348 5.46973 10.6521L9.46973 8.15207ZM6 11.4997L10 13.9997V8.99973L6 11.4997Z" fill="black" fill-opacity="0.9"/>
</g>
</svg>
