<svg width="24" height="24" viewBox="0 0 24 24" fill="none" xmlns="http://www.w3.org/2000/svg">
<g id="icon.24.mention">
<path id="Icon" d="M12 5C15.866 5 19 8.13401 19 12V12.5C19 13.8807 17.8807 15 16.5 15C15.6046 15 14.8214 14.5278 14.3799 13.8203C13.8316 14.5361 12.9713 15 12 15C10.3431 15 9 13.6569 9 12C9 10.3431 10.3431 9 12 9C12.7692 9 13.469 9.29156 14 9.76758V9.5C14 9.22386 14.2239 9 14.5 9C14.7761 9 15 9.22386 15 9.5V12.5C15 13.3284 15.6716 14 16.5 14C17.3284 14 18 13.3284 18 12.5V12C18 8.68629 15.3137 6 12 6C8.68629 6 6 8.68629 6 12C6 15.3137 8.68629 18 12 18C12.2761 18 12.5 18.2239 12.5 18.5C12.5 18.7761 12.2761 19 12 19C8.13401 19 5 15.866 5 12C5 8.13401 8.13401 5 12 5ZM12 10C10.8954 10 10 10.8954 10 12C10 13.1046 10.8954 14 12 14C13.1046 14 14 13.1046 14 12C14 10.8954 13.1046 10 12 10Z" fill="black" fill-opacity="0.9"/>
</g>
</svg>
