<svg width="24" height="24" viewBox="0 0 24 24" fill="none" xmlns="http://www.w3.org/2000/svg">
<g id="icon.24.action.scroll.small">
<path id="Icon" d="M12 5C13.1046 5 14 5.89543 14 7C14 7.93413 13.3589 8.71566 12.4932 8.93555C12.4959 8.95676 12.5 8.97804 12.5 9V10H13.5C13.7761 10 14 10.2239 14 10.5C14 10.7761 13.7761 11 13.5 11H12.5V16.9717C14.2284 16.8 15.6988 15.7518 16.4551 14.2725C16.5808 14.0266 16.8821 13.9291 17.1279 14.0547C17.3737 14.1804 17.4713 14.4817 17.3457 14.7275C16.4249 16.5288 14.6188 17.8037 12.5 17.9785V18.5C12.5 18.7761 12.2761 19 12 19C11.7239 19 11.5 18.7761 11.5 18.5V17.9785C9.38129 17.8036 7.5751 16.5288 6.6543 14.7275C6.52872 14.4817 6.6263 14.1804 6.87207 14.0547C7.11792 13.9291 7.41923 14.0266 7.54492 14.2725C8.30114 15.7517 9.77167 16.7999 11.5 16.9717V11H10.5C10.2239 11 10 10.7761 10 10.5C10 10.2239 10.2239 10 10.5 10H11.5V9C11.5 8.97809 11.5031 8.95672 11.5059 8.93555C10.6407 8.7153 10 7.93376 10 7C10 5.89545 10.8955 5.00003 12 5ZM12 6C11.4477 6.00003 11 6.44773 11 7C11 7.55227 11.4477 7.99997 12 8C12.5523 8 13 7.55228 13 7C13 6.44772 12.5523 6 12 6Z" fill="black" fill-opacity="0.9"/>
</g>
</svg>
