<svg width="24" height="24" viewBox="0 0 24 24" fill="none" xmlns="http://www.w3.org/2000/svg">
<g id="icon.24.stroke-diamond-arrow">
<path id="Icon" d="M7.79297 8.29312C8.18349 7.9026 8.81651 7.9026 9.20703 8.29312L11.707 10.7931C11.7701 10.8562 11.8216 10.9265 11.8643 11.0002H18.5C18.7761 11.0002 19 11.224 19 11.5002C19 11.7763 18.7761 12.0002 18.5 12.0002H11.8643C11.8216 12.0738 11.7701 12.1441 11.707 12.2072L9.20703 14.7072C8.81651 15.0977 8.18349 15.0977 7.79297 14.7072L5.29297 12.2072L5.22461 12.131C4.90426 11.7382 4.92685 11.1592 5.29297 10.7931L7.79297 8.29312ZM6 11.5002L8.5 14.0002L11 11.5002L8.5 9.00015L6 11.5002Z" fill="black" fill-opacity="0.9"/>
</g>
</svg>
