<svg width="24" height="24" viewBox="0 0 24 24" fill="none" xmlns="http://www.w3.org/2000/svg">
<g id="icon.24.flip.vertical">
<path id="Icon" d="M18 12C18 12.2761 17.7761 12.5 17.5 12.5L6.5 12.5C6.22386 12.5 6 12.2761 6 12C6 11.7239 6.22386 11.5 6.5 11.5L17.5 11.5C17.7761 11.5 18 11.7239 18 12ZM14.8965 6C15.523 6.00003 15.8563 6.71042 15.5059 7.18848L15.4268 7.28027L12.707 10C12.3165 10.3905 11.6835 10.3905 11.293 10L8.57324 7.28027C8.1008 6.8078 8.43537 6.00003 9.10352 6L14.8965 6ZM15.5059 16.8115C15.8563 17.2896 15.523 18 14.8965 18L9.10352 18C8.43537 18 8.1008 17.1922 8.57324 16.7197L11.293 14C11.6835 13.6095 12.3165 13.6095 12.707 14L15.4268 16.7197L15.5059 16.8115ZM9.70703 7L12 9.29297L14.293 7L9.70703 7ZM12 14.707L9.70703 17L14.293 17L12 14.707Z" fill="black" fill-opacity="0.9"/>
</g>
</svg>
