<svg width="24" height="24" viewBox="0 0 24 24" fill="none" xmlns="http://www.w3.org/2000/svg">
<g id="icon.24.plugin.small">
<path id="Icon" d="M12.001 5.0498C13.0778 5.04991 13.9512 5.92311 13.9512 7C13.9511 7.22983 13.9111 7.45252 13.8369 7.65918C13.8178 7.71229 13.798 7.76365 13.7812 7.80762C13.7433 7.90699 13.7232 7.96079 13.71 8.00781C13.6982 8.04951 13.7011 8.05558 13.7012 8.04004V8.0498H16.001C16.5256 8.04991 16.9512 8.47539 16.9512 9V10C16.9511 10.5245 16.5255 10.9501 16.001 10.9502C15.4211 10.9502 14.9512 11.4201 14.9512 12C14.9513 12.5798 15.4211 13.0498 16.001 13.0498C16.5256 13.0499 16.9512 13.4754 16.9512 14V15C16.9511 15.5245 16.5255 15.9501 16.001 15.9502H13.7012V15.96C13.7012 15.9442 13.6981 15.9502 13.71 15.9922C13.7232 16.0392 13.7434 16.0931 13.7812 16.1924C13.798 16.2363 13.8179 16.2878 13.8369 16.3408C13.9111 16.5475 13.9512 16.7702 13.9512 17C13.9511 18.0768 13.0778 18.9501 12.001 18.9502C10.9241 18.9502 10.0509 18.0769 10.0508 17C10.0508 16.7701 10.0909 16.5475 10.165 16.3408C10.1841 16.2877 10.2039 16.2364 10.2207 16.1924C10.2586 16.093 10.2787 16.0392 10.292 15.9922C10.3038 15.9502 10.3008 15.9442 10.3008 15.96V15.9502H8.00098C7.47637 15.9502 7.05089 15.5246 7.05078 15V14C7.05078 13.4753 7.47631 13.0498 8.00098 13.0498C8.58072 13.0497 9.05068 12.5797 9.05078 12C9.05078 11.4202 8.58079 10.9503 8.00098 10.9502C7.47637 10.9502 7.05089 10.5246 7.05078 10V9C7.05078 8.47533 7.47631 8.0498 8.00098 8.0498H10.3008V8.04004C10.3008 8.05556 10.3037 8.04942 10.292 8.00781C10.2787 7.96081 10.2586 7.90691 10.2207 7.80762C10.2039 7.76369 10.1841 7.71224 10.165 7.65918C10.0909 7.45252 10.0508 7.22983 10.0508 7C10.0508 5.92304 10.924 5.0498 12.001 5.0498ZM12.001 6C11.4487 6 11.001 6.44772 11.001 7C11.001 7.11852 11.0217 7.2324 11.0596 7.33789C11.0752 7.38141 11.0918 7.42518 11.1084 7.46875C11.1793 7.65455 11.251 7.84288 11.251 8.04004V9H8.00098V10C9.10546 10.0001 10.001 10.8955 10.001 12C10.0009 13.1044 9.10539 13.9999 8.00098 14V15H11.251V15.96C11.2509 16.1571 11.1793 16.3454 11.1084 16.5312C11.0918 16.5749 11.0752 16.6185 11.0596 16.6621C11.0217 16.7676 11.001 16.8815 11.001 17C11.0011 17.5522 11.4488 18 12.001 18C12.5531 17.9999 13.0009 17.5521 13.001 17C13.001 16.8815 12.9802 16.7676 12.9424 16.6621C12.9268 16.6186 12.9102 16.5748 12.8936 16.5312C12.8227 16.3454 12.751 16.1571 12.751 15.96V15H16.001V14C14.8965 14 14.0011 13.1045 14.001 12C14.001 10.8954 14.8964 10 16.001 10V9H12.751V8.04004C12.751 7.84284 12.8227 7.6546 12.8936 7.46875C12.9102 7.42514 12.9267 7.38145 12.9424 7.33789C12.9803 7.2324 13.001 7.11852 13.001 7C13.001 6.44778 12.5532 6.00011 12.001 6Z" fill="black" fill-opacity="0.9"/>
</g>
</svg>
