<svg width="24" height="24" viewBox="0 0 24 24" fill="none" xmlns="http://www.w3.org/2000/svg">
<g id="icon.24.text.paragraph-indent">
<path id="Icon" d="M18.5 16C18.7761 16 19 16.2239 19 16.5C19 16.7761 18.7761 17 18.5 17H5.5C5.22386 17 5 16.7761 5 16.5C5 16.2239 5.22386 16 5.5 16H18.5ZM18.5 12C18.7761 12 19 12.2239 19 12.5C19 12.7761 18.7761 13 18.5 13H5.5C5.22386 13 5 12.7761 5 12.5C5 12.2239 5.22386 12 5.5 12H18.5ZM7.14648 6.14648C7.34175 5.95122 7.65825 5.95122 7.85352 6.14648L9.85352 8.14648C10.0488 8.34175 10.0488 8.65825 9.85352 8.85352L7.85352 10.8535C7.65825 11.0488 7.34175 11.0488 7.14648 10.8535C6.95122 10.6583 6.95122 10.3417 7.14648 10.1465L8.29297 9H5.5C5.22386 9 5 8.77614 5 8.5C5 8.22386 5.22386 8 5.5 8H8.29297L7.14648 6.85352C6.95122 6.65825 6.95122 6.34175 7.14648 6.14648ZM18.5 8C18.7761 8 19 8.22386 19 8.5C19 8.77614 18.7761 9 18.5 9H11.5C11.2239 9 11 8.77614 11 8.5C11 8.22386 11.2239 8 11.5 8H18.5Z" fill="black" fill-opacity="0.9"/>
</g>
</svg>
