<svg width="24" height="24" viewBox="0 0 24 24" fill="none" xmlns="http://www.w3.org/2000/svg">
<g id="icon.24.frame">
<path id="Icon" d="M16.5 4C16.7761 4 17 4.22386 17 4.5V7H19.5C19.7761 7 20 7.22386 20 7.5C20 7.77614 19.7761 8 19.5 8H17V16H19.5C19.7761 16 20 16.2239 20 16.5C20 16.7761 19.7761 17 19.5 17H17V19.5C17 19.7761 16.7761 20 16.5 20C16.2239 20 16 19.7761 16 19.5V17H8V19.5C8 19.7761 7.77614 20 7.5 20C7.22386 20 7 19.7761 7 19.5V17H4.5C4.22386 17 4 16.7761 4 16.5C4 16.2239 4.22386 16 4.5 16H7V8H4.5C4.22386 8 4 7.77614 4 7.5C4 7.22386 4.22386 7 4.5 7H7V4.5C7 4.22386 7.22386 4 7.5 4C7.77614 4 8 4.22386 8 4.5V7H16V4.5C16 4.22386 16.2239 4 16.5 4ZM8 8V16H16V8H8Z" fill="black" fill-opacity="0.9"/>
</g>
</svg>
