<svg width="24" height="24" viewBox="0 0 24 24" fill="none" xmlns="http://www.w3.org/2000/svg">
<g id="icon.24.no-trim">
<path id="Icon" d="M18 17C18.2761 17 18.5 17.2239 18.5 17.5C18.5 17.7761 18.2761 18 18 18H6C5.72386 18 5.5 17.7761 5.5 17.5C5.5 17.2239 5.72386 17 6 17H18ZM14.1885 10.5547C14.4088 10.5547 14.5912 10.5915 14.7354 10.666C14.8794 10.7389 14.9952 10.8286 15.083 10.9346C15.1658 11.0346 15.2299 11.131 15.2744 11.2236C15.2793 11.2338 15.2895 11.2402 15.3008 11.2402C15.3165 11.2401 15.329 11.2276 15.3291 11.2119V10.9219C15.3293 10.7463 15.4719 10.6045 15.6475 10.6045H15.8057C16.0684 10.6047 16.2812 10.8173 16.2812 11.0801V14.4746C16.2812 14.801 16.2023 15.0717 16.0449 15.2871C15.8891 15.5025 15.6735 15.6647 15.3984 15.7725C15.1235 15.88 14.8101 15.9336 14.459 15.9336C14.1277 15.9336 13.8434 15.8893 13.6064 15.7998C13.3695 15.7103 13.1796 15.589 13.0371 15.4365C13.0193 15.4174 13.0027 15.3976 12.9863 15.3779C12.8097 15.1656 12.9818 14.884 13.2529 14.8311L13.3662 14.8096C13.5195 14.7796 13.6711 14.8648 13.7803 14.9766C13.8482 15.0478 13.9391 15.1056 14.0518 15.1504C14.1661 15.1968 14.3088 15.2197 14.4795 15.2197C14.7246 15.2197 14.9269 15.1603 15.0859 15.041C15.2465 14.9233 15.3271 14.7274 15.3271 14.4541V13.7686C15.3271 13.7535 15.3148 13.7414 15.2998 13.7412C15.2892 13.7412 15.2791 13.7474 15.2744 13.7568C15.2282 13.8493 15.1624 13.9413 15.0762 14.0322C14.9867 14.1283 14.8685 14.2088 14.7227 14.2734C14.5786 14.3363 14.4004 14.3672 14.1885 14.3672C13.8985 14.3672 13.6344 14.3 13.3975 14.1641C13.1606 14.0266 12.9731 13.8198 12.834 13.5449C12.6948 13.2682 12.625 12.9205 12.625 12.5029C12.625 12.0788 12.6948 11.7216 12.834 11.4316C12.9748 11.1418 13.1635 10.9228 13.4004 10.7754C13.6373 10.628 13.9002 10.5547 14.1885 10.5547ZM9.83594 9.33105C10.2067 9.33105 10.537 9.56598 10.6592 9.91602L12.0039 13.7656C12.1159 14.0864 11.8777 14.4217 11.5381 14.4219C11.3253 14.4219 11.1363 14.2859 11.0693 14.084L10.7773 13.2041H8.89355L8.60156 14.084C8.53458 14.2858 8.34546 14.4219 8.13281 14.4219C7.79307 14.4217 7.55485 14.0864 7.66699 13.7656L9.01367 9.91504C9.13607 9.5656 9.46568 9.33125 9.83594 9.33105ZM14.4746 11.335C14.284 11.335 14.1234 11.3852 13.9941 11.4863C13.8666 11.5858 13.7694 11.7238 13.7031 11.8994C13.6386 12.0733 13.6065 12.2729 13.6064 12.498C13.6064 12.7267 13.6398 12.9257 13.7061 13.0947C13.7723 13.2621 13.8695 13.3928 13.9971 13.4873C14.1263 13.5801 14.2857 13.627 14.4746 13.627C14.6567 13.6269 14.8119 13.5816 14.9395 13.4922C15.0668 13.4011 15.1633 13.2717 15.2295 13.1045C15.2974 12.9355 15.332 12.7333 15.332 12.498C15.332 12.2645 15.2987 12.0607 15.2324 11.8867C15.1662 11.7111 15.0689 11.5756 14.9414 11.4795C14.8139 11.3834 14.6584 11.335 14.4746 11.335ZM9.83691 10.4229C9.82508 10.4229 9.81431 10.4302 9.81055 10.4414L9.15234 12.4238H10.5195L9.8623 10.4414C9.85856 10.4304 9.84857 10.423 9.83691 10.4229ZM18 7C18.2761 7 18.5 7.22386 18.5 7.5C18.5 7.77614 18.2761 8 18 8H6C5.72386 8 5.5 7.77614 5.5 7.5C5.5 7.22386 5.72386 7 6 7H18Z" fill="black" fill-opacity="0.9"/>
</g>
</svg>
