<svg width="24" height="24" viewBox="0 0 24 24" fill="none" xmlns="http://www.w3.org/2000/svg">
<g id="icon.24.ai.sort">
<path id="Icon" d="M9.65332 13.0078C10.4097 13.0846 11 13.7233 11 14.5V18.5L10.9922 18.6533C10.9205 19.3593 10.3593 19.9205 9.65332 19.9922L9.5 20H5.5C4.72334 20 4.08461 19.4097 4.00781 18.6533L4 18.5V14.5C4 13.6716 4.67157 13 5.5 13H9.5L9.65332 13.0078ZM16.0146 13.4404C16.1409 12.9355 16.8591 12.9355 16.9854 13.4404L17.5 15.5L19.5596 16.0146C20.0645 16.1409 20.0645 16.8591 19.5596 16.9854L17.5 17.5L16.9854 19.5596C16.8591 20.0645 16.1409 20.0645 16.0146 19.5596L15.5 17.5L13.4404 16.9854C12.9355 16.8591 12.9355 16.1409 13.4404 16.0146L15.5 15.5L16.0146 13.4404ZM5.5 14C5.22386 14 5 14.2239 5 14.5V18.5C5 18.7761 5.22386 19 5.5 19H9.5C9.77614 19 10 18.7761 10 18.5V14.5C10 14.2239 9.77614 14 9.5 14H5.5ZM9.65332 4.00781C10.4097 4.08461 11 4.72334 11 5.5V9.5L10.9922 9.65332C10.9205 10.3593 10.3593 10.9205 9.65332 10.9922L9.5 11H5.5C4.72334 11 4.08461 10.4097 4.00781 9.65332L4 9.5V5.5C4 4.67157 4.67157 4 5.5 4H9.5L9.65332 4.00781ZM18.6533 4.00781C19.4097 4.08461 20 4.72334 20 5.5V9.5L19.9922 9.65332C19.9205 10.3593 19.3593 10.9205 18.6533 10.9922L18.5 11H14.5C13.7233 11 13.0846 10.4097 13.0078 9.65332L13 9.5V5.5C13 4.67157 13.6716 4 14.5 4H18.5L18.6533 4.00781ZM14.5 5C14.2239 5 14 5.22386 14 5.5V9.5C14 9.77614 14.2239 10 14.5 10H18.5C18.7761 10 19 9.77614 19 9.5V5.5C19 5.22386 18.7761 5 18.5 5H14.5ZM5.5 5C5.22386 5 5 5.22386 5 5.5V9.5C5 9.77614 5.22386 10 5.5 10H9.5C9.77614 10 10 9.77614 10 9.5V5.5C10 5.22386 9.77614 5 9.5 5H5.5Z" fill="black" fill-opacity="0.9"/>
</g>
</svg>
