<svg width="24" height="24" viewBox="0 0 24 24" fill="none" xmlns="http://www.w3.org/2000/svg">
<g id="icon.24.action.next.small">
<g id="icon.24.action.back.small">
<path id="Icon" d="M15.8535 7.14746C15.6583 6.9522 15.3417 6.9522 15.1465 7.14746C14.9512 7.34272 14.9512 7.65923 15.1465 7.85449L17.293 10.001H8.5C6.56701 10.001 5.00002 11.568 5 13.501C5 15.434 6.567 17.001 8.5 17.001H9.5C9.77614 17.001 10 16.7771 10 16.501C9.99998 16.2248 9.77613 16.001 9.5 16.001H8.5C7.11929 16.001 6 14.8817 6 13.501C6.00002 12.1203 7.1193 11.001 8.5 11.001H17.293L15.1465 13.1475C14.9512 13.3427 14.9512 13.6592 15.1465 13.8545C15.3417 14.0498 15.6583 14.0498 15.8535 13.8545L18.8535 10.8545C18.9473 10.7607 19 10.6336 19 10.501C19 10.3684 18.9473 10.2412 18.8535 10.1475L15.8535 7.14746Z" fill="black" fill-opacity="0.9"/>
</g>
</g>
</svg>
