<svg width="24" height="24" viewBox="0 0 24 24" fill="none" xmlns="http://www.w3.org/2000/svg">
<g id="icon.24.section.small">
<path id="Icon" d="M16.2041 6.01074C17.2128 6.113 18 6.96435 18 8V16L17.9893 16.2041C17.8938 17.1457 17.1457 17.8938 16.2041 17.9893L16 18H8C6.96435 18 6.113 17.2128 6.01074 16.2041L6 16V8C6 6.89543 6.89543 6 8 6H16L16.2041 6.01074ZM13 9.25C13 9.63817 12.7051 9.95747 12.3271 9.99609L12.25 10H7V16C7 16.5523 7.44772 17 8 17H16C16.5523 17 17 16.5523 17 16V8C17 7.48232 16.6067 7.05621 16.1025 7.00488L16 7H13V9.25ZM8 7C7.95123 7 7.90335 7.004 7.85645 7.01074C7.80912 7.01755 7.76271 7.02685 7.71777 7.04004C7.48797 7.10747 7.2928 7.25564 7.16406 7.45117C7.13691 7.49245 7.1127 7.53582 7.0918 7.58105C7.08607 7.59345 7.07945 7.6055 7.07422 7.61816C7.03813 7.70558 7.01484 7.79964 7.00488 7.89746L7 8V9H12V7H8Z" fill="black" fill-opacity="0.9"/>
</g>
</svg>
