<svg width="24" height="24" viewBox="0 0 24 24" fill="none" xmlns="http://www.w3.org/2000/svg">
<g id="icon.24.send.to.front.small">
<path id="Icon" d="M11.2246 6.08203C11.4187 5.95387 11.6827 5.97562 11.8535 6.14648L13.8535 8.14648C14.0488 8.34175 14.0488 8.65825 13.8535 8.85352C13.6583 9.04878 13.3417 9.04878 13.1465 8.85352L12 7.70703V15H15.5C16.3284 15 17 15.6716 17 16.5C17 17.3284 16.3284 18 15.5 18H7.5C6.67157 18 6 17.3284 6 16.5C6 15.6716 6.67157 15 7.5 15H11V7.70703L9.85352 8.85352C9.65825 9.04878 9.34175 9.04878 9.14648 8.85352C8.95122 8.65825 8.95122 8.34175 9.14648 8.14648L11.1465 6.14648L11.2246 6.08203ZM7.5 16C7.22386 16 7 16.2239 7 16.5C7 16.7761 7.22386 17 7.5 17H15.5C15.7761 17 16 16.7761 16 16.5C16 16.2239 15.7761 16 15.5 16H7.5ZM9.5 11C9.77614 11 10 11.2239 10 11.5C10 11.7761 9.77614 12 9.5 12H7.5C7.22386 12 7 12.2239 7 12.5C7 12.7761 7.22386 13 7.5 13H9.5C9.77614 13 10 13.2239 10 13.5C10 13.7761 9.77614 14 9.5 14H7.5C6.67157 14 6 13.3284 6 12.5C6 11.6716 6.67157 11 7.5 11H9.5ZM15.5 11C16.3284 11 17 11.6716 17 12.5C17 13.3284 16.3284 14 15.5 14H13.5C13.2239 14 13 13.7761 13 13.5C13 13.2239 13.2239 13 13.5 13H15.5C15.7761 13 16 12.7761 16 12.5C16 12.2239 15.7761 12 15.5 12H13.5C13.2239 12 13 11.7761 13 11.5C13 11.2239 13.2239 11 13.5 11H15.5Z" fill="black" fill-opacity="0.9"/>
</g>
</svg>
