<svg width="24" height="24" viewBox="0 0 24 24" fill="none" xmlns="http://www.w3.org/2000/svg">
<g id="icon.24.variable.color.small">
<path id="Icon" d="M7.0498 7.04974C9.78332 4.31623 14.2155 4.31658 16.9492 7.04974C18.1119 8.21243 18.7805 9.68505 18.9531 11.2011C19.1522 12.9503 17.5921 13.9999 16.2227 13.9999H15C14.4481 14.0002 14.0002 14.448 14 14.9999V16.2226C13.9999 17.592 12.9504 19.1521 11.2012 18.9531C9.68511 18.7804 8.21249 18.1118 7.0498 16.9492C4.31664 14.2155 4.31629 9.78326 7.0498 7.04974ZM16.2422 7.75677C13.899 5.41412 10.0998 5.41379 7.75684 7.75677C5.41385 10.0998 5.41418 13.8989 7.75684 16.2421C8.7538 17.2391 10.0147 17.8109 11.3145 17.9589C12.224 18.0624 12.91 17.304 12.9922 16.4042L13 16.2226V14.9999C13.0002 13.8957 13.8958 13.0002 15 12.9999H16.2227L16.4043 12.9921C17.3041 12.9099 18.0625 12.2239 17.959 11.3144C17.811 10.0147 17.2392 8.75374 16.2422 7.75677ZM8.5 13.1337C8.97823 12.8577 9.59003 13.0218 9.86621 13.4999C10.1424 13.9782 9.97829 14.59 9.5 14.8661C9.02172 15.1422 8.40991 14.9782 8.13379 14.4999C7.85792 14.0217 8.02182 13.4098 8.5 13.1337ZM8.13379 9.49994C8.40988 9.02177 9.02176 8.85785 9.5 9.13373C9.97823 9.40984 10.1422 10.0217 9.86621 10.4999C9.59007 10.9782 8.97829 11.1423 8.5 10.8661C8.02183 10.59 7.85768 9.97818 8.13379 9.49994ZM14.5 9.13373C14.9782 8.85766 15.59 9.0218 15.8662 9.49994C16.1424 9.97823 15.9783 10.59 15.5 10.8661C15.0217 11.1422 14.4099 10.9782 14.1338 10.4999C13.8579 10.0217 14.0218 9.40981 14.5 9.13373ZM12 6.99994C12.5523 6.99994 13 7.44769 13 7.99994C13 8.55222 12.5523 8.99994 12 8.99994C11.4477 8.99993 11 8.55222 11 7.99994C11 7.44769 11.4477 6.99995 12 6.99994Z" fill="black" fill-opacity="0.9"/>
</g>
</svg>
