<svg width="24" height="24" viewBox="0 0 24 24" fill="none" xmlns="http://www.w3.org/2000/svg">
<g id="icon.24.layout-align-vertical-center">
<path id="Icon" d="M13 8.75C13 8.33579 13.3358 8 13.75 8H14.25C14.6642 8 15 8.33579 15 8.75V14.25C15 14.6642 14.6642 15 14.25 15H13.75C13.3358 15 13 14.6642 13 14.25V8.75ZM8 6.75C8 6.33579 8.33579 6 8.75 6H9.25C9.66421 6 10 6.33579 10 6.75V16.25C10 16.6642 9.66421 17 9.25 17H8.75C8.33579 17 8 16.6642 8 16.25V6.75Z" fill="black" fill-opacity="0.9"/>
<path id="Subtract" d="M8 12H5.5C5.22386 12 5 11.7761 5 11.5C5 11.2239 5.22386 11 5.5 11H8V12ZM13 11V12H10V11H13ZM17.5 11C17.7761 11 18 11.2239 18 11.5C18 11.7761 17.7761 12 17.5 12H15V11H17.5Z" fill="black" fill-opacity="0.3"/>
</g>
</svg>
