<svg width="24" height="24" viewBox="0 0 24 24" fill="none" xmlns="http://www.w3.org/2000/svg">
<g id="icon.24.design.small">
<path id="Icon" d="M7.27148 6.18567C9.61164 6.55965 14.497 7.49908 15.999 9.0011C17.1989 10.2011 17.6775 11.7603 17.4375 13.2482L18.6914 14.5011C19.0819 14.8916 19.0819 15.5256 18.6914 15.9161L15.915 18.6915L15.208 17.9845L17.9834 15.2081L16.3691 13.5939L16.4502 13.089C16.6375 11.9272 16.2712 10.6875 15.292 9.70813C15.05 9.46609 14.5999 9.18553 13.9336 8.89758C13.2856 8.61758 12.509 8.36244 11.6836 8.13489C10.4281 7.78879 9.10609 7.5202 8.03711 7.3302L11.8535 11.1466C12.4109 10.8806 13.0979 10.978 13.5596 11.4396C14.1454 12.0254 14.1454 12.9749 13.5596 13.5607C13.0105 14.1095 12.1418 14.1442 11.5527 13.6642L11.4385 13.5607C10.9767 13.0988 10.8801 12.4112 11.1465 11.8536L7.32812 8.03625C7.51836 9.10559 7.78746 10.4284 8.13379 11.6847C8.3614 12.5103 8.61641 13.2876 8.89648 13.9357C9.14832 14.5183 9.39467 14.9352 9.61426 15.1925L9.70605 15.2931C10.7079 16.2948 11.9457 16.6714 13.1016 16.4747L13.6104 16.3878L15.915 18.6915C15.5245 19.0821 14.8915 19.0821 14.501 18.6915L13.2686 17.4601C11.7699 17.7149 10.2127 17.2146 8.99902 16.0011C7.49705 14.4991 6.55855 9.61275 6.18457 7.27258C6.08167 6.62865 6.62756 6.08277 7.27148 6.18567ZM12.8525 12.1466C12.6573 11.9514 12.3408 11.9514 12.1455 12.1466C11.9505 12.3419 11.9504 12.6584 12.1455 12.8536C12.3407 13.0488 12.6573 13.0487 12.8525 12.8536C13.0478 12.6584 13.0478 12.3419 12.8525 12.1466Z" fill="black" fill-opacity="0.9"/>
</g>
</svg>
