<svg width="24" height="24" viewBox="0 0 24 24" fill="none" xmlns="http://www.w3.org/2000/svg">
<g id="icon.24.magic.noodle.small">
<path id="Icon" d="M16.1807 14.7803C16.2641 14.4474 16.7378 14.4474 16.8213 14.7803L17.1006 15.9005L18.2207 16.1797C18.5536 16.2632 18.5536 16.7369 18.2207 16.8204L17.1006 17.0997L16.8213 18.2198C16.7378 18.5527 16.2641 18.5527 16.1807 18.2198L15.9014 17.0997L14.7812 16.8204C14.4483 16.7369 14.4483 16.2632 14.7812 16.1797L15.9014 15.9005L16.1807 14.7803ZM15.1475 5.64655C15.3427 5.45128 15.6592 5.45128 15.8545 5.64655L17.8545 7.64655L17.9189 7.72467C18.0471 7.91874 18.0253 8.18273 17.8545 8.35358L15.8545 10.3536C15.6592 10.5488 15.3427 10.5488 15.1475 10.3536C14.9522 10.1583 14.9522 9.84181 15.1475 9.64655L16.2939 8.50006H14.501C13.6725 8.50006 13.001 9.17163 13.001 10.0001V14.0001C13.0009 15.3807 11.8817 16.5 10.501 16.5001H10.001C9.97903 16.5001 9.95772 16.496 9.93652 16.4932C9.71661 17.3589 8.93505 18 8.00098 18.0001C6.89643 18.0001 6.00101 17.1046 6.00098 16.0001C6.00098 14.8955 6.89641 14.0001 8.00098 14.0001C8.93474 14.0001 9.7163 14.6407 9.93652 15.5059C9.95769 15.5032 9.97907 15.5001 10.001 15.5001H10.501C11.3294 15.5 12.0009 14.8285 12.001 14.0001V10.0001C12.001 8.61935 13.1203 7.50006 14.501 7.50006H16.2939L15.1475 6.35358C14.9522 6.15832 14.9522 5.84181 15.1475 5.64655ZM8.00098 15.0001C7.44869 15.0001 7.00098 15.4478 7.00098 16.0001C7.00101 16.5523 7.44871 17.0001 8.00098 17.0001C8.55323 17 9.00094 16.5523 9.00098 16.0001C9.00098 15.4478 8.55325 15.0001 8.00098 15.0001ZM7.01562 5.44049C7.14187 4.93551 7.86008 4.93551 7.98633 5.44049L8.30078 6.70026L9.56055 7.01471C10.0655 7.14095 10.0655 7.85917 9.56055 7.98541L8.30078 8.29987L7.98633 9.55963C7.86008 10.0646 7.14187 10.0646 7.01562 9.55963L6.70117 8.29987L5.44141 7.98541C4.93643 7.85917 4.93643 7.14095 5.44141 7.01471L6.70117 6.70026L7.01562 5.44049Z" fill="black" fill-opacity="0.9"/>
</g>
</svg>
