<svg width="24" height="24" viewBox="0 0 24 24" fill="none" xmlns="http://www.w3.org/2000/svg">
<g id="icon.24.h1">
<path id="Icon" d="M13.5 6C13.7761 6 14 6.22386 14 6.5V17.5C14 17.7761 13.7761 18 13.5 18C13.2239 18 13 17.7761 13 17.5V12H7V17.5C7 17.7761 6.77614 18 6.5 18C6.22386 18 6 17.7761 6 17.5V6.5C6 6.22386 6.22386 6 6.5 6C6.77614 6 7 6.22386 7 6.5V11H13V6.5C13 6.22386 13.2239 6 13.5 6ZM17.2227 12.084C17.3761 11.9817 17.5737 11.9726 17.7363 12.0596C17.8986 12.1467 18 12.3158 18 12.5V17.5C18 17.7761 17.7761 18 17.5 18C17.2239 18 17 17.7761 17 17.5V13.4336L16.2773 13.916C16.0476 14.0692 15.7372 14.0071 15.584 13.7773C15.4308 13.5476 15.4929 13.2372 15.7227 13.084L17.2227 12.084Z" fill="black" fill-opacity="0.9"/>
</g>
</svg>
