<svg width="24" height="24" viewBox="0 0 24 24" fill="none" xmlns="http://www.w3.org/2000/svg">
<g id="icon.24.wand.small">
<path id="Icon" d="M11.6465 11.6465C11.8417 11.4512 12.1583 11.4512 12.3535 11.6465L18.8535 18.1465C19.0488 18.3417 19.0488 18.6583 18.8535 18.8535C18.6583 19.0488 18.3417 19.0488 18.1465 18.8535L11.6465 12.3535C11.4512 12.1583 11.4512 11.8417 11.6465 11.6465ZM6 12C6.55228 12 7 12.4477 7 13C7 13.5523 6.55228 14 6 14C5.44772 14 5 13.5523 5 13C5 12.4477 5.44772 12 6 12ZM9.5 5C9.77614 5 10 5.22386 10 5.5V9H13.5C13.7761 9 14 9.22386 14 9.5C14 9.77614 13.7761 10 13.5 10H10V13.5C10 13.7761 9.77614 14 9.5 14C9.22386 14 9 13.7761 9 13.5V10H5.5C5.22386 10 5 9.77614 5 9.5C5 9.22386 5.22386 9 5.5 9H9V5.5C9 5.22386 9.22386 5 9.5 5ZM6 5C6.55228 5 7 5.44772 7 6C7 6.55228 6.55228 7 6 7C5.44772 7 5 6.55228 5 6C5 5.44772 5.44772 5 6 5ZM13 5C13.5523 5 14 5.44772 14 6C14 6.55228 13.5523 7 13 7C12.4477 7 12 6.55228 12 6C12 5.44772 12.4477 5 13 5Z" fill="black" fill-opacity="0.9"/>
</g>
</svg>
