<svg width="24" height="24" viewBox="0 0 24 24" fill="none" xmlns="http://www.w3.org/2000/svg">
<g id="icon.24.layout-overlay-left">
<path id="Secondary" d="M6 6C6 4.89543 6.89543 4 8 4H12V20H8C6.89543 20 6 19.1046 6 18V6Z" fill="black" fill-opacity="0.3"/>
<path id="Icon" d="M16.2041 4.01074C17.2128 4.113 18 4.96435 18 6V18C18 19.0357 17.2128 19.887 16.2041 19.9893L16 20H8C6.89543 20 6 19.1046 6 18V6C6 4.89543 6.89543 4 8 4H16L16.2041 4.01074ZM8 5C7.44772 5 7 5.44772 7 6V18C7 18.5523 7.44772 19 8 19H11V5H8ZM16 19C16.5523 19 17 18.5523 17 18V6C17 5.48232 16.6067 5.05621 16.1025 5.00488L16 5H12V19H16Z" fill="black" fill-opacity="0.9"/>
</g>
</svg>
