<svg width="24" height="24" viewBox="0 0 24 24" fill="none" xmlns="http://www.w3.org/2000/svg">
<g id="icon.24.audio">
<path id="Icon" d="M12.5703 4C17.0814 4.00013 20.5722 7.95435 20.0127 12.4307L19.9961 12.5625L19.9951 12.5703L19.209 18.0752C19.0512 19.1795 18.1048 19.9999 16.9893 20C15.6335 19.9999 14.5884 18.8058 14.7676 17.4619L15.2705 13.6846C15.4359 12.4448 16.5811 11.578 17.8193 11.7549L19.0557 11.9307C19.3075 8.20829 16.3533 5.00013 12.5703 5H11.4297C7.64663 5 4.69154 8.20823 4.94336 11.9307L6.18066 11.7549C7.41878 11.5782 8.56408 12.4449 8.72949 13.6846L9.23242 17.4619C9.41157 18.8057 8.36634 19.9998 7.01074 20C5.89515 20 4.9488 19.1796 4.79102 18.0752L4.00488 12.5703L4.00391 12.5625L3.9873 12.4307C3.42775 7.95427 6.91845 4 11.4297 4H12.5703ZM6.32227 12.7451L5.06543 12.9238L5.78125 17.9336C5.86866 18.5453 6.3928 19 7.01074 19C7.76155 18.9998 8.34043 18.338 8.24121 17.5938L7.73828 13.8174C7.64646 13.1287 7.01005 12.6471 6.32227 12.7451ZM17.6777 12.7451C16.9899 12.647 16.3536 13.1286 16.2617 13.8174L15.7588 17.5938C15.6595 18.3381 16.2383 18.9999 16.9893 19C17.6071 18.9999 18.1314 18.5453 18.2188 17.9336L18.9336 12.9238L17.6777 12.7451Z" fill="black" fill-opacity="0.9"/>
</g>
</svg>
