<svg width="24" height="24" viewBox="0 0 24 24" fill="none" xmlns="http://www.w3.org/2000/svg">
<g id="icon.24.closed.captioning.small">
<path id="Icon" d="M17 6C18.1046 6 19 6.89543 19 8V16L18.9893 16.2041C18.8938 17.1457 18.1457 17.8938 17.2041 17.9893L17 18H7L6.7959 17.9893C5.85435 17.8938 5.1062 17.1457 5.01074 16.2041L5 16V8C5 6.89543 5.89543 6 7 6H17ZM7 7C6.48232 7 6.05621 7.39333 6.00488 7.89746L6 8V16C6 16.5523 6.44772 17 7 17H17C17.5523 17 18 16.5523 18 16V8C18 7.44772 17.5523 7 17 7H7ZM11.5 15C11.7761 15 12 15.2239 12 15.5C12 15.7761 11.7761 16 11.5 16H9.5C9.22386 16 9 15.7761 9 15.5C9 15.2239 9.22386 15 9.5 15H11.5ZM14.5 15C14.7761 15 15 15.2239 15 15.5C15 15.7761 14.7761 16 14.5 16H13.5C13.2239 16 13 15.7761 13 15.5C13 15.2239 13.2239 15 13.5 15H14.5ZM8.5 13C8.77614 13 9 13.2239 9 13.5C9 13.7761 8.77614 14 8.5 14H7.5C7.22386 14 7 13.7761 7 13.5C7 13.2239 7.22386 13 7.5 13H8.5ZM12.5 13C12.7761 13 13 13.2239 13 13.5C13 13.7761 12.7761 14 12.5 14H10.5C10.2239 14 10 13.7761 10 13.5C10 13.2239 10.2239 13 10.5 13H12.5ZM16.5 13C16.7761 13 17 13.2239 17 13.5C17 13.7761 16.7761 14 16.5 14H14.5C14.2239 14 14 13.7761 14 13.5C14 13.2239 14.2239 13 14.5 13H16.5Z" fill="black" fill-opacity="0.9"/>
</g>
</svg>
