<svg width="24" height="24" viewBox="0 0 24 24" fill="none" xmlns="http://www.w3.org/2000/svg">
<g id="icon.24.interaction.enter.small">
<path id="Icon" d="M6 15.5C6 15.2239 6.22386 15 6.5 15C6.77614 15 7 15.2239 7 15.5L7 16.5C7 16.7761 7.22386 17 7.5 17L16.5 17C16.7761 17 17 16.7761 17 16.5L17 7.5C17 7.22386 16.7761 7 16.5 7L7.5 7C7.22386 7 7 7.22386 7 7.5L7 8.5C7 8.77614 6.77614 9 6.5 9C6.22386 9 6 8.77614 6 8.5L6 7.5C6 6.67157 6.67157 6 7.5 6L16.5 6C17.3284 6 18 6.67157 18 7.5L18 16.5C18 17.3284 17.3284 18 16.5 18L7.5 18C6.67157 18 6 17.3284 6 16.5L6 15.5ZM9 12C9 11.7239 9.22386 11.5 9.5 11.5L13.293 11.5L11.6465 9.85352C11.4512 9.65825 11.4512 9.34175 11.6465 9.14648C11.8417 8.95122 12.1583 8.95122 12.3535 9.14648L14.8535 11.6465C15.0488 11.8417 15.0488 12.1583 14.8535 12.3535L12.3535 14.8535C12.1583 15.0488 11.8417 15.0488 11.6465 14.8535C11.4512 14.6583 11.4512 14.3417 11.6465 14.1465L13.293 12.5L9.5 12.5C9.22386 12.5 9 12.2761 9 12Z" fill="black" fill-opacity="0.9"/>
</g>
</svg>
