<svg width="24" height="24" viewBox="0 0 24 24" fill="none" xmlns="http://www.w3.org/2000/svg">
<g id="icon.24.preview.prototype.small">
<path id="Icon" d="M17 6C17.5523 6 18 6.44772 18 7V17C18 17.5177 17.6067 17.9438 17.1025 17.9951L17 18H7L6.89746 17.9951C6.42703 17.9472 6.05278 17.573 6.00488 17.1025L6 17V7C6 6.44772 6.44772 6 7 6H17ZM7 17H17V9H7V17ZM10 11.9414C10.0001 10.9699 11.0604 10.3702 11.8936 10.8701L13.6572 11.9277C14.4664 12.4132 14.4664 13.5868 13.6572 14.0723L11.8936 15.1299C11.0604 15.6298 10.0001 15.0301 10 14.0586V11.9414ZM11.3789 11.7275C11.2123 11.6276 11.0001 11.7472 11 11.9414V14.0586L11.0098 14.1279C11.0528 14.2794 11.2332 14.3599 11.3789 14.2725L13.1426 13.2148C13.3044 13.1177 13.3044 12.8823 13.1426 12.7852L11.3789 11.7275ZM7 8H8V7H7V8ZM16 8H17V7H16V8ZM9 8H15V7H9V8Z" fill="black" fill-opacity="0.9"/>
</g>
</svg>
