<svg width="24" height="24" viewBox="0 0 24 24" fill="none" xmlns="http://www.w3.org/2000/svg">
<g id="icon.24.spotlight.small">
<path id="Icon" d="M11.7246 6.58192C11.9187 6.45387 12.1827 6.47556 12.3535 6.64638L17.3535 11.6464C17.5487 11.8416 17.5486 12.1581 17.3535 12.3534L15.3535 14.3534C15.2987 14.4083 15.2318 14.4499 15.1582 14.4745L12.2695 15.4374L9.56055 18.1464C8.97479 18.7321 8.02522 18.732 7.43945 18.1464L5.85352 16.5604C5.26783 15.9747 5.26783 15.0251 5.85352 14.4393L8.5625 11.7304L9.52539 8.84169C9.54994 8.76811 9.59163 8.70123 9.64648 8.64638L11.6465 6.64638L11.7246 6.58192ZM9.47461 12.1581C9.45008 12.2317 9.40834 12.2985 9.35352 12.3534L6.56055 15.1464C6.36539 15.3416 6.36538 15.6582 6.56055 15.8534L8.14648 17.4393C8.34173 17.6345 8.65828 17.6345 8.85352 17.4393L11.6465 14.6464L11.7373 14.5741C11.77 14.554 11.8052 14.5375 11.8418 14.5253L14.0742 13.7811L10.2188 9.92567L9.47461 12.1581ZM10.6465 12.6464C10.8418 12.4512 11.1583 12.4512 11.3535 12.6464C11.5487 12.8416 11.5486 13.1581 11.3535 13.3534L10.8535 13.8534C10.6583 14.0487 10.3417 14.0487 10.1465 13.8534C9.95122 13.6581 9.95122 13.3416 10.1465 13.1464L10.6465 12.6464ZM10.707 8.99989L15 13.2929L16.293 11.9999L12 7.70692L10.707 8.99989ZM18.2764 9.05263C18.5233 8.92926 18.8238 9.02935 18.9473 9.27626C19.0707 9.52319 18.9705 9.82361 18.7236 9.94716L17.7236 10.4472C17.4766 10.5707 17.1762 10.4705 17.0527 10.2235C16.9293 9.97654 17.0294 9.67612 17.2764 9.55263L18.2764 9.05263ZM17.1465 6.14638C17.3418 5.95125 17.6583 5.95116 17.8535 6.14638C18.0487 6.3416 18.0486 6.65814 17.8535 6.85341L16.3535 8.35341C16.1583 8.54866 15.8417 8.54865 15.6465 8.35341C15.4512 8.15815 15.4512 7.84164 15.6465 7.64638L17.1465 6.14638ZM14.0527 5.27626C14.1763 5.02938 14.4767 4.92916 14.7236 5.05263C14.9705 5.17612 15.0706 5.47659 14.9473 5.72353L14.4473 6.72353C14.3238 6.97049 14.0233 7.07059 13.7764 6.94716C13.5294 6.82366 13.4292 6.52325 13.5527 6.27626L14.0527 5.27626Z" fill="black" fill-opacity="0.9"/>
</g>
</svg>
