<svg width="24" height="24" viewBox="0 0 24 24" fill="none" xmlns="http://www.w3.org/2000/svg">
<g id="icon.24.select.matching.small">
<path id="Icon" d="M6.5 16C6.77614 16 7 16.2239 7 16.5V17H7.5C7.77614 17 8 17.2239 8 17.5C8 17.7761 7.77614 18 7.5 18H7C6.44772 18 6 17.5523 6 17V16.5C6 16.2239 6.22386 16 6.5 16ZM10.5 16C10.7761 16 11 16.2239 11 16.5V17C11 17.5523 10.5523 18 10 18H9.5C9.22386 18 9 17.7761 9 17.5C9 17.2239 9.22386 17 9.5 17H10V16.5C10 16.2239 10.2239 16 10.5 16ZM13.5 16C13.7761 16 14 16.2239 14 16.5V17H14.5C14.7761 17 15 17.2239 15 17.5C15 17.7761 14.7761 18 14.5 18H14C13.4477 18 13 17.5523 13 17V16.5C13 16.2239 13.2239 16 13.5 16ZM17.5 16C17.7761 16 18 16.2239 18 16.5V17C18 17.5523 17.5523 18 17 18H16.5C16.2239 18 16 17.7761 16 17.5C16 17.2239 16.2239 17 16.5 17H17V16.5C17 16.2239 17.2239 16 17.5 16ZM7.5 13C7.77614 13 8 13.2239 8 13.5C8 13.7761 7.77614 14 7.5 14H7V14.5C7 14.7761 6.77614 15 6.5 15C6.22386 15 6 14.7761 6 14.5V14C6 13.4477 6.44772 13 7 13H7.5ZM10 13C10.5523 13 11 13.4477 11 14V14.5C11 14.7761 10.7761 15 10.5 15C10.2239 15 10 14.7761 10 14.5V14H9.5C9.22386 14 9 13.7761 9 13.5C9 13.2239 9.22386 13 9.5 13H10ZM14.5 13C14.7761 13 15 13.2239 15 13.5C15 13.7761 14.7761 14 14.5 14H14V14.5C14 14.7761 13.7761 15 13.5 15C13.2239 15 13 14.7761 13 14.5V14C13 13.4477 13.4477 13 14 13H14.5ZM17 13C17.5523 13 18 13.4477 18 14V14.5C18 14.7761 17.7761 15 17.5 15C17.2239 15 17 14.7761 17 14.5V14H16.5C16.2239 14 16 13.7761 16 13.5C16 13.2239 16.2239 13 16.5 13H17ZM10 6C10.5523 6 11 6.44772 11 7V10C11 10.5523 10.5523 11 10 11H7C6.44772 11 6 10.5523 6 10V7C6 6.44772 6.44772 6 7 6H10ZM13.5 9C13.7761 9 14 9.22386 14 9.5V10H14.5C14.7761 10 15 10.2239 15 10.5C15 10.7761 14.7761 11 14.5 11H14C13.4477 11 13 10.5523 13 10V9.5C13 9.22386 13.2239 9 13.5 9ZM17.5 9C17.7761 9 18 9.22386 18 9.5V10C18 10.5523 17.5523 11 17 11H16.5C16.2239 11 16 10.7761 16 10.5C16 10.2239 16.2239 10 16.5 10H17V9.5C17 9.22386 17.2239 9 17.5 9ZM7 10H10V7H7V10ZM14.5 6C14.7761 6 15 6.22386 15 6.5C15 6.77614 14.7761 7 14.5 7H14V7.5C14 7.77614 13.7761 8 13.5 8C13.2239 8 13 7.77614 13 7.5V7C13 6.44772 13.4477 6 14 6H14.5ZM17 6C17.5523 6 18 6.44772 18 7V7.5C18 7.77614 17.7761 8 17.5 8C17.2239 8 17 7.77614 17 7.5V7H16.5C16.2239 7 16 6.77614 16 6.5C16 6.22386 16.2239 6 16.5 6H17Z" fill="black" fill-opacity="0.9"/>
</g>
</svg>
