<svg width="24" height="24" viewBox="0 0 24 24" fill="none" xmlns="http://www.w3.org/2000/svg">
<g id="icon.24.noodle">
<path id="Icon" d="M17.1465 3.14648C17.3417 2.95122 17.6583 2.95122 17.8535 3.14648L20.8535 6.14648L20.918 6.22461C21.0461 6.41869 21.0244 6.68265 20.8535 6.85352L17.8535 9.85352C17.6583 10.0488 17.3417 10.0488 17.1465 9.85352C16.9512 9.65825 16.9512 9.34175 17.1465 9.14648L19.293 7H15.5C14.1193 7 13 8.11929 13 9.5V14.5C13 16.433 11.433 18 9.5 18H8.9502C8.71858 19.1411 7.70949 20 6.5 20C5.11929 20 4 18.8807 4 17.5C4 16.1193 5.11929 15 6.5 15C7.70949 15 8.71858 15.8589 8.9502 17H9.5C10.8807 17 12 15.8807 12 14.5V9.5C12 7.567 13.567 6 15.5 6H19.293L17.1465 3.85352C16.9512 3.65825 16.9512 3.34175 17.1465 3.14648ZM6.5 16C5.67157 16 5 16.6716 5 17.5C5 18.3284 5.67157 19 6.5 19C7.32843 19 8 18.3284 8 17.5C8 16.6716 7.32843 16 6.5 16Z" fill="black" fill-opacity="0.9"/>
</g>
</svg>
