<svg width="24" height="24" viewBox="0 0 24 24" fill="none" xmlns="http://www.w3.org/2000/svg">
<g id="icon.24.pause.small">
<path id="Icon" d="M9.65332 6.00781C10.4097 6.08461 11 6.72334 11 7.5V16.5C11 17.2767 10.4097 17.9154 9.65332 17.9922L9.5 18H7.5C6.67157 18 6 17.3284 6 16.5V7.5C6 6.67157 6.67157 6 7.5 6H9.5L9.65332 6.00781ZM16.6533 6.00781C17.4097 6.08461 18 6.72334 18 7.5V16.5C18 17.2767 17.4097 17.9154 16.6533 17.9922L16.5 18H14.5C13.6716 18 13 17.3284 13 16.5V7.5C13 6.67157 13.6716 6 14.5 6H16.5L16.6533 6.00781ZM7.5 7C7.22386 7 7 7.22386 7 7.5V16.5C7 16.7761 7.22386 17 7.5 17H9.5C9.77614 17 10 16.7761 10 16.5V7.5C10 7.22386 9.77614 7 9.5 7H7.5ZM14.5 7C14.2239 7 14 7.22386 14 7.5V16.5C14 16.7761 14.2239 17 14.5 17H16.5C16.7761 17 17 16.7761 17 16.5V7.5C17 7.22386 16.7761 7 16.5 7H14.5Z" fill="black" fill-opacity="0.9"/>
</g>
</svg>
