<svg width="24" height="24" viewBox="0 0 24 24" fill="none" xmlns="http://www.w3.org/2000/svg">
<g id="icon.24.replace.text.style.small">
<path id="Icon" d="M18 10C18.5523 10 19 10.4477 19 11V12C19 12.5523 18.5523 13 18 13H17V16C17 16.5523 16.5523 17 16 17H15C14.4477 17 14 16.5523 14 16V13H13C12.4477 13 12 12.5523 12 12V11C12 10.4477 12.4477 10 13 10H18ZM13 12H15V16H16V12H18V11H13V12ZM11.6006 7.00977C11.8286 7.05629 12 7.25829 12 7.5V8.35742C11.9998 8.63344 11.776 8.85742 11.5 8.85742C11.224 8.85742 11.0002 8.63344 11 8.35742V8H9V13H9.35742C9.63344 13.0002 9.85742 13.224 9.85742 13.5C9.85742 13.776 9.63344 13.9998 9.35742 14H7.64258C7.36656 13.9998 7.14258 13.776 7.14258 13.5C7.14258 13.224 7.36656 13.0002 7.64258 13H8V8H6V8.35742C5.99985 8.63344 5.77605 8.85742 5.5 8.85742C5.22395 8.85742 5.00015 8.63344 5 8.35742V7.5C5 7.22386 5.22386 7 5.5 7H11.5L11.6006 7.00977Z" fill="black" fill-opacity="0.9"/>
</g>
</svg>
