<svg width="24" height="24" viewBox="0 0 24 24" fill="none" xmlns="http://www.w3.org/2000/svg">
<g id="icon.24.image">
<path id="Icon" d="M18 4C19.1046 4 20 4.89543 20 6V18C20 19.1046 19.1046 20 18 20H6C4.89543 20 4 19.1046 4 18V6C4 4.89543 4.89543 4 6 4H18ZM5 15.707V18C5 18.5523 5.44772 19 6 19H16.293L9 11.707L5 15.707ZM6 5C5.44772 5 5 5.44772 5 6V14.293L8.64648 10.6465L8.72461 10.582C8.91869 10.4539 9.18265 10.4756 9.35352 10.6465L17.707 19H18C18.5523 19 19 18.5523 19 18V6C19 5.44772 18.5523 5 18 5H6ZM14.5 7C15.8807 7 17 8.11929 17 9.5C17 10.8807 15.8807 12 14.5 12C13.1193 12 12 10.8807 12 9.5C12 8.11929 13.1193 7 14.5 7ZM14.5 8C13.6716 8 13 8.67157 13 9.5C13 10.3284 13.6716 11 14.5 11C15.3284 11 16 10.3284 16 9.5C16 8.67157 15.3284 8 14.5 8Z" fill="black" fill-opacity="0.9"/>
</g>
</svg>
