<svg width="24" height="24" viewBox="0 0 24 24" fill="none" xmlns="http://www.w3.org/2000/svg">
<g id="icon.24.actual.size.small">
<path id="Icon" d="M17.6533 6.00781C18.4097 6.08461 19 6.72334 19 7.5V16.5C19 17.2767 18.4097 17.9154 17.6533 17.9922L17.5 18H6.5C5.67157 18 5 17.3284 5 16.5V7.5C5 6.67157 5.67157 6 6.5 6H17.5L17.6533 6.00781ZM6.5 7C6.22386 7 6 7.22386 6 7.5V16.5C6 16.7761 6.22386 17 6.5 17H17.5C17.7761 17 18 16.7761 18 16.5V7.5C18 7.22386 17.7761 7 17.5 7H6.5ZM8.77637 9.05273C8.93125 8.97529 9.11534 8.98331 9.2627 9.07422C9.4101 9.16532 9.5 9.32671 9.5 9.5V14H10C10.2761 14 10.5 14.2239 10.5 14.5C10.5 14.7761 10.2761 15 10 15H8C7.72386 15 7.5 14.7761 7.5 14.5C7.5 14.2239 7.72386 14 8 14H8.5V10.3086L8.22363 10.4473C7.97664 10.5708 7.67623 10.4706 7.55273 10.2236C7.42924 9.97664 7.52938 9.67623 7.77637 9.55273L8.77637 9.05273ZM14.7764 9.05273C14.9312 8.97529 15.1153 8.98331 15.2627 9.07422C15.4101 9.16532 15.5 9.32671 15.5 9.5V14H16C16.2761 14 16.5 14.2239 16.5 14.5C16.5 14.7761 16.2761 15 16 15H14C13.7239 15 13.5 14.7761 13.5 14.5C13.5 14.2239 13.7239 14 14 14H14.5V10.3086L14.2236 10.4473C13.9766 10.5708 13.6762 10.4706 13.5527 10.2236C13.4292 9.97664 13.5294 9.67623 13.7764 9.55273L14.7764 9.05273ZM12 13C12.2761 13 12.5 13.2239 12.5 13.5C12.5 13.7761 12.2761 14 12 14C11.7239 14 11.5 13.7761 11.5 13.5C11.5 13.2239 11.7239 13 12 13ZM12 10C12.2761 10 12.5 10.2239 12.5 10.5C12.5 10.7761 12.2761 11 12 11C11.7239 11 11.5 10.7761 11.5 10.5C11.5 10.2239 11.7239 10 12 10Z" fill="black" fill-opacity="0.9"/>
</g>
</svg>
