<svg width="24" height="24" viewBox="0 0 24 24" fill="none" xmlns="http://www.w3.org/2000/svg">
<g id="icon.24.text.library">
<path id="Icon" d="M20.5 12C20.6326 12 20.7597 12.0527 20.8535 12.1465C20.9473 12.2403 21 12.3674 21 12.5V13.5C21 13.7761 20.7761 14 20.5 14C20.2239 14 20 13.7761 20 13.5V13H18V18H18.5C18.7761 18 19 18.2239 19 18.5C19 18.7761 18.7761 19 18.5 19H16.5C16.2239 19 16 18.7761 16 18.5C16 18.2239 16.2239 18 16.5 18H17V13H15V13.5C15 13.7761 14.7761 14 14.5 14C14.2239 14 14 13.7761 14 13.5V12.5C14 12.2239 14.2239 12 14.5 12H20.5ZM14 5.75C15.3568 5.75 16.3272 6.15891 16.9648 6.58398C17.2814 6.795 17.5129 7.00774 17.668 7.17188C17.7455 7.25402 17.8048 7.32495 17.8457 7.37695C17.866 7.40279 17.8819 7.42427 17.8936 7.44043L17.9131 7.46777C17.9137 7.46871 17.9145 7.46993 17.915 7.4707V7.47168H17.916C17.9162 7.47193 17.916 7.47265 17.5 7.75L17.916 7.47266C17.9708 7.55479 18 7.65129 18 7.75V10H17V7.92676C16.9827 7.90694 16.9642 7.88349 16.9414 7.85938C16.8308 7.7423 16.6559 7.57985 16.4102 7.41602C15.9228 7.09109 15.1432 6.75 14 6.75C12.8568 6.75 12.0772 7.09109 11.5898 7.41602C11.3441 7.57985 11.1692 7.7423 11.0586 7.85938C11.0358 7.88349 11.0173 7.90694 11 7.92676V15.7275C11.0228 15.7144 11.0457 15.7007 11.0693 15.6875C11.5328 15.43 12.1694 15.1834 13 15.0684V16.0811C12.3642 16.1857 11.8899 16.3768 11.5557 16.5625C11.309 16.6996 11.1349 16.834 11.0264 16.9297C10.9724 16.9773 10.9345 17.0153 10.9121 17.0391C10.9009 17.0509 10.8932 17.0594 10.8896 17.0635V17.0625C10.7948 17.1808 10.6517 17.25 10.5 17.25C10.3483 17.25 10.2052 17.1808 10.1104 17.0625V17.0635L10.1123 17.0654V17.0664C10.112 17.0661 10.1116 17.0649 10.1104 17.0635C10.1068 17.0594 10.0991 17.0509 10.0879 17.0391C10.0655 17.0153 10.0276 16.9773 9.97363 16.9297C9.86514 16.834 9.69105 16.6996 9.44434 16.5625C8.95382 16.29 8.16238 16 7 16C5.83762 16 5.04618 16.29 4.55566 16.5625C4.30895 16.6996 4.13486 16.834 4.02637 16.9297C3.97238 16.9773 3.93451 17.0153 3.91211 17.0391C3.90094 17.0509 3.89315 17.0594 3.88965 17.0635C3.88841 17.0649 3.88798 17.0661 3.8877 17.0664V17.0654C3.75483 17.2288 3.53394 17.2913 3.33496 17.2217C3.13459 17.1514 3 16.9623 3 16.75V7.75C3 7.65129 3.02923 7.55479 3.08398 7.47266L3.5 7.75C3.08397 7.47265 3.08382 7.47193 3.08398 7.47168H3.08496V7.4707C3.08548 7.46993 3.08628 7.46871 3.08691 7.46777L3.10645 7.44043C3.11812 7.42427 3.134 7.40279 3.1543 7.37695C3.19516 7.32495 3.25445 7.25402 3.33203 7.17188C3.48709 7.00774 3.71864 6.795 4.03516 6.58398C4.67277 6.15891 5.64318 5.75 7 5.75C8.35682 5.75 9.32723 6.15891 9.96484 6.58398C10.1829 6.72934 10.3599 6.87627 10.5 7.00684C10.6401 6.87627 10.8171 6.72934 11.0352 6.58398C11.6728 6.15891 12.6432 5.75 14 5.75ZM7 6.75C5.85682 6.75 5.07723 7.09109 4.58984 7.41602C4.34409 7.57985 4.16916 7.7423 4.05859 7.85938C4.03582 7.88349 4.0173 7.90694 4 7.92676V15.7285C4.02288 15.7153 4.04551 15.7007 4.06934 15.6875C4.70383 15.335 5.66245 15 7 15C8.33755 15 9.29617 15.335 9.93066 15.6875C9.95435 15.7007 9.97725 15.7144 10 15.7275V7.92676C9.9827 7.90694 9.96418 7.88349 9.94141 7.85938C9.83084 7.7423 9.65591 7.57985 9.41016 7.41602C8.92277 7.09109 8.14318 6.75 7 6.75Z" fill="black" fill-opacity="0.9"/>
</g>
</svg>
