<svg width="24" height="24" viewBox="0 0 24 24" fill="none" xmlns="http://www.w3.org/2000/svg">
<g id="icon.24.ai.outline">
<path id="Icon" d="M19 5C20.1046 5 21 5.89543 21 7V15L20.9893 15.2041C20.8938 16.1457 20.1457 16.8938 19.2041 16.9893L19 17H17.0176L17.9629 19.3105C18.0674 19.5661 17.9449 19.8583 17.6895 19.9629C17.4339 20.0673 17.1417 19.9449 17.0371 19.6895L15.9375 17H8.0625L6.96289 19.6895C6.85835 19.945 6.5661 20.0673 6.31055 19.9629C6.05518 19.8583 5.93265 19.566 6.03711 19.3105L6.98242 17H5L4.7959 16.9893C3.85435 16.8938 3.1062 16.1457 3.01074 15.2041L3 15V7C3 5.89543 3.89543 5 5 5H19ZM5 6C4.48232 6 4.05621 6.39333 4.00488 6.89746L4 7V15C4 15.5523 4.44772 16 5 16H19C19.5523 16 20 15.5523 20 15V7C20 6.44772 19.5523 6 19 6H5ZM8.01465 8.94043C8.14089 8.43545 8.85911 8.43545 8.98535 8.94043L9.2998 10.2002L10.5596 10.5146C11.0645 10.6409 11.0645 11.3591 10.5596 11.4854L9.2998 11.7998L8.98535 13.0596C8.85911 13.5645 8.14089 13.5645 8.01465 13.0596L7.7002 11.7998L6.44043 11.4854C5.93545 11.3591 5.93545 10.6409 6.44043 10.5146L7.7002 10.2002L8.01465 8.94043ZM16.5 12C16.7761 12 17 12.2239 17 12.5C17 12.7761 16.7761 13 16.5 13H12.5C12.2239 13 12 12.7761 12 12.5C12 12.2239 12.2239 12 12.5 12H16.5ZM17.5 9C17.7761 9 18 9.22386 18 9.5C18 9.77614 17.7761 10 17.5 10H12.5C12.2239 10 12 9.77614 12 9.5C12 9.22386 12.2239 9 12.5 9H17.5Z" fill="black" fill-opacity="0.9"/>
</g>
</svg>
