<svg width="24" height="24" viewBox="0 0 24 24" fill="none" xmlns="http://www.w3.org/2000/svg">
<g id="icon.24.ai.sort.small">
<path id="Icon" d="M10.1025 13.0049C10.6067 13.0562 11 13.4823 11 14V18L10.9951 18.1025C10.9472 18.573 10.573 18.9472 10.1025 18.9951L10 19H6C5.48232 19 5.05621 18.6067 5.00488 18.1025L5 18V14C5 13.4477 5.44772 13 6 13H10L10.1025 13.0049ZM15.5146 13.4404C15.6409 12.9355 16.3591 12.9355 16.4854 13.4404L16.9004 15.0996L18.5596 15.5146C19.0645 15.6409 19.0645 16.3591 18.5596 16.4854L16.9004 16.9004L16.4854 18.5596C16.3591 19.0645 15.6409 19.0645 15.5146 18.5596L15.0996 16.9004L13.4404 16.4854C12.9355 16.3591 12.9355 15.6409 13.4404 15.5146L15.0996 15.0996L15.5146 13.4404ZM6 18H10V14H6V18ZM10.1025 5.00488C10.6067 5.05621 11 5.48232 11 6V10L10.9951 10.1025C10.9472 10.573 10.573 10.9472 10.1025 10.9951L10 11H6C5.48232 11 5.05621 10.6067 5.00488 10.1025L5 10V6C5 5.44772 5.44772 5 6 5H10L10.1025 5.00488ZM18.1025 5.00488C18.6067 5.05621 19 5.48232 19 6V10L18.9951 10.1025C18.9472 10.573 18.573 10.9472 18.1025 10.9951L18 11H14C13.4823 11 13.0562 10.6067 13.0049 10.1025L13 10V6C13 5.44772 13.4477 5 14 5H18L18.1025 5.00488ZM14 10H18V6H14V10ZM6 10H10V6H6V10Z" fill="black" fill-opacity="0.9"/>
</g>
</svg>
