<svg width="24" height="24" viewBox="0 0 24 24" fill="none" xmlns="http://www.w3.org/2000/svg">
<g id="icon.24.skip.ink.true">
<path id="Icon" d="M15.4697 9.16913C15.8419 9.16913 16.1394 9.23165 16.3623 9.35565C16.5852 9.47724 16.7583 9.61794 16.8799 9.77753C16.9945 9.92496 17.0853 10.0513 17.1523 10.1555C17.1624 10.1709 17.1798 10.1799 17.1982 10.1799C17.2279 10.1798 17.252 10.1558 17.252 10.1262V9.71307C17.252 9.45496 17.4616 9.2453 17.7197 9.2453H17.748C18.0218 9.24547 18.2432 9.46764 18.2432 9.74139V15.2297C18.2432 15.7312 18.128 16.1406 17.8975 16.4572C17.6695 16.7763 17.3608 17.0123 16.9707 17.1642C16.5807 17.3162 16.1451 17.3917 15.6641 17.3918C15.2158 17.3918 14.8305 17.3335 14.5088 17.217C14.1871 17.103 13.9212 16.9509 13.7109 16.7609C13.6392 16.6953 13.573 16.628 13.5127 16.5588C13.33 16.3488 13.4277 16.0411 13.6729 15.9094C13.9021 15.7865 14.1882 15.8548 14.3623 16.048C14.3642 16.0502 14.3662 16.0527 14.3682 16.0549C14.4897 16.1865 14.6548 16.3005 14.8623 16.3967C15.0699 16.4928 15.3394 16.5412 15.6709 16.5412C16.1218 16.5412 16.4943 16.4305 16.7881 16.2101C17.0819 15.9923 17.2295 15.648 17.2295 15.1769V14.0578C17.2292 14.0315 17.207 14.0099 17.1807 14.0099C17.1635 14.0101 17.1474 14.0196 17.1387 14.0344C17.0736 14.1453 16.9837 14.2733 16.8682 14.4172C16.7441 14.5691 16.5691 14.703 16.3438 14.8195C16.1208 14.9335 15.8253 14.9904 15.458 14.9904C14.9923 14.9904 14.5733 14.8818 14.2012 14.6642C13.8313 14.4439 13.5386 14.1201 13.3232 13.6945C13.108 13.269 13 12.7498 13 12.1369C13 11.529 13.1052 11.003 13.3154 10.5598C13.5257 10.1141 13.8172 9.77104 14.1895 9.53046C14.5618 9.28986 14.9885 9.16914 15.4697 9.16913ZM11.5 16.0002C11.7761 16.0002 12 16.224 12 16.5002C11.9999 16.7762 11.7761 17.0002 11.5 17.0002H6.5C6.22392 17.0002 6.0001 16.7762 6 16.5002C6 16.224 6.22386 16.0002 6.5 16.0002H11.5ZM9.41211 7.29999C9.76115 7.30003 10.0732 7.51879 10.1924 7.84686L12.5654 14.3801C12.6893 14.721 12.437 15.0822 12.0742 15.0822C11.8521 15.0822 11.6544 14.9413 11.5811 14.7316L10.957 12.9504H7.86426L7.24023 14.7316C7.16677 14.9412 6.96814 15.0822 6.74609 15.0822C6.38347 15.082 6.1309 14.7209 6.25488 14.3801L8.63184 7.84589C8.75118 7.51807 9.06323 7.29999 9.41211 7.29999ZM15.6445 10.0549C15.2849 10.0549 14.9848 10.1473 14.7441 10.3322C14.5035 10.5171 14.3228 10.7658 14.2012 11.0773C14.0822 11.3889 14.0225 11.7373 14.0225 12.1223C14.0225 12.5172 14.0826 12.8645 14.2041 13.1633C14.3282 13.4621 14.51 13.6957 14.748 13.8654C14.9887 14.0326 15.2874 14.1164 15.6445 14.1164C15.989 14.1164 16.2791 14.0381 16.5146 13.881C16.7527 13.7215 16.9335 13.4923 17.0576 13.1935C17.1817 12.8947 17.2441 12.5375 17.2441 12.1223C17.2441 11.7144 17.1831 11.3551 17.0615 11.0461C16.9399 10.7373 16.7604 10.4952 16.5225 10.3205C16.2844 10.1432 15.9915 10.0549 15.6445 10.0549ZM9.41211 8.62225C9.39408 8.62226 9.37822 8.63366 9.37207 8.65057L8.18457 12.0383H10.6377L9.45215 8.65057C9.44599 8.63367 9.43014 8.62225 9.41211 8.62225Z" fill="black" fill-opacity="0.9"/>
</g>
</svg>
