<svg width="16" height="16" viewBox="0 0 16 16" fill="none" xmlns="http://www.w3.org/2000/svg">
<g id="favicon.slides.viewer">
<g id="icon.16.design">
<path d="M0 2C0 0.895431 0.895431 0 2 0H14C15.1046 0 16 0.895431 16 2V14C16 15.1046 15.1046 16 14 16H2C0.895431 16 0 15.1046 0 14V2Z" fill="#0D99FF"/>
<g id="icon.16.prototype">
<path id="Icon" d="M4 4.64832C4 3.36578 5.39926 2.57342 6.49902 3.23328L12.2568 6.68835L12.4307 6.80847C13.1896 7.41471 13.1896 8.58504 12.4307 9.19128L12.2568 9.3114L6.49902 12.7665C5.39926 13.4263 4 12.634 4 11.3514V4.64832ZM5.98438 4.0907C5.57819 3.84699 5.06795 4.10586 5.00586 4.55554L5 4.64832V11.3514L5.00586 11.4442C5.06384 11.8641 5.51252 12.1176 5.90234 11.951L5.98438 11.9091L11.7422 8.45398C12.0853 8.24813 12.0853 7.75163 11.7422 7.54578L5.98438 4.0907Z" fill="white"/>
</g>
</g>
</g>
</svg>
