<svg width="16" height="16" viewBox="0 0 16 16" fill="none" xmlns="http://www.w3.org/2000/svg">
<g id="favicon.design">
<g id="icon.16.design">
<path d="M0 2C0 0.895431 0.895431 0 2 0H14C15.1046 0 16 0.895431 16 2V14C16 15.1046 15.1046 16 14 16H2C0.895431 16 0 15.1046 0 14V2Z" fill="#0D99FF"/>
<g id="icon.16.pen">
<path id="Icon" d="M3.72852 3.02148C4.83927 3.13058 9.67486 3.67516 11 5C11.8888 5.88906 12.2722 7.2834 12.1123 8.59668L13.2988 9.79297C13.6863 10.1839 13.6851 10.8148 13.2959 11.2041L11.1748 13.3252C10.7832 13.7168 10.1479 13.7154 9.75781 13.3223L8.56055 12.1162C7.2578 12.2649 5.88093 11.8808 5 11C3.67532 9.6749 3.13066 4.83974 3.02148 3.72852C3.0072 3.58226 3.06016 3.43987 3.16406 3.33594L3.33594 3.16406C3.43993 3.06009 3.58217 3.00711 3.72852 3.02148ZM7.74121 7.03418C7.82378 7.01211 7.91047 7 8 7C8.55228 7 9 7.44772 9 8C9 8.55228 8.55228 9 8 9C7.44773 8.99998 7 8.55227 7 8C7 7.91048 7.01211 7.82378 7.03418 7.74121L4.16309 4.87012C4.24916 5.5094 4.36999 6.29252 4.53418 7.08008C4.68678 7.81196 4.87049 8.52444 5.08691 9.11914C5.2852 9.66396 5.48022 10.0227 5.64062 10.2188L5.70703 10.293C6.33125 10.917 7.38395 11.2431 8.44629 11.1221L8.92969 11.0674L9.27051 11.4121L10.4668 12.6182L12.5889 10.4971L11.4023 9.30078L11.0615 8.95703L11.1201 8.47559C11.2505 7.40457 10.9232 6.33746 10.293 5.70703C10.1215 5.53568 9.7419 5.31348 9.11914 5.08691C8.52435 4.87054 7.81205 4.68668 7.08008 4.53418C6.29252 4.3701 5.50948 4.24898 4.87012 4.16309L7.74121 7.03418Z" fill="white"/>
</g>
</g>
</g>
</svg>
