<svg width="26" height="16" viewBox="0 0 26 16" fill="none" xmlns="http://www.w3.org/2000/svg">
<g id="favicon.devmode">
<path d="M0 2C0 0.895431 0.895431 0 2 0H24C25.1046 0 26 0.895431 26 2V14C26 15.1046 25.1046 16 24 16H2C0.89543 16 0 15.1046 0 14V2Z" fill="#0D99FF"/>
<g id="icon.16.dev">
<path id="Icon" d="M13.5257 4.84241C13.613 4.58044 13.8966 4.43868 14.1585 4.526C14.4202 4.61349 14.5622 4.89699 14.4749 5.15881L12.4749 11.1588C12.3875 11.4204 12.1039 11.5622 11.8421 11.4752C11.5803 11.3879 11.4386 11.1043 11.5257 10.8424L13.5257 4.84241ZM9.11654 4.67932C9.29343 4.46779 9.60872 4.43925 9.82064 4.61584C10.0324 4.79257 10.0605 5.10791 9.88412 5.31995L7.6517 7.99963L9.88412 10.6793C10.0607 10.8912 10.0322 11.2065 9.82064 11.3834C9.6086 11.5601 9.29337 11.5318 9.11654 11.3199L6.61654 8.31995C6.46207 8.13453 6.46204 7.86472 6.61654 7.67932L9.11654 4.67932ZM16.18 4.61584C16.392 4.4395 16.7074 4.46762 16.8841 4.67932L19.3841 7.67932C19.5385 7.86462 19.5383 8.13453 19.3841 8.31995L16.8841 11.3199C16.7073 11.5318 16.3921 11.5601 16.18 11.3834C15.9681 11.2066 15.9398 10.8914 16.1165 10.6793L18.349 7.99963L16.1165 5.31995C15.9399 5.1079 15.9682 4.79266 16.18 4.61584Z" fill="white"/>
</g>
</g>
</svg>
