<svg width="16" height="16" viewBox="0 0 16 16" fill="none" xmlns="http://www.w3.org/2000/svg">
<g id="icon.16.component-property">
<path id="Icon" d="M6.93555 2.43951C7.52127 1.8538 8.47084 1.85393 9.05664 2.43951L13.5557 6.93756C14.1413 7.52336 14.1414 8.47388 13.5557 9.05963L9.05664 13.5577C8.47085 14.1429 7.52116 14.1432 6.93555 13.5577L4.68652 11.3087C4.49141 11.1135 4.49172 10.7969 4.68652 10.6016C4.88179 10.4064 5.19829 10.4064 5.39355 10.6016L7.64258 12.8506C7.83767 13.0456 8.15434 13.0453 8.34961 12.8506L12.8486 8.3526C13.0439 8.15737 13.0438 7.83986 12.8486 7.64459L8.34961 3.14655C8.15433 2.95149 7.83777 2.95135 7.64258 3.14655L5.39355 5.39557C5.1983 5.59046 4.88168 5.59061 4.68652 5.39557C4.4915 5.20041 4.49164 4.88378 4.68652 4.68854L6.93555 2.43951ZM8 6.00006C9.10457 6.00006 10 6.89549 10 8.00006C10 9.10463 9.10457 10.0001 8 10.0001C7.06829 10.0001 6.28766 9.36237 6.06543 8.50006H2.5C2.22395 8.50006 2.00015 8.27608 2 8.00006C2.00013 7.72404 2.22395 7.50008 2.5 7.50006H6.06543C6.28765 6.63774 7.06829 6.00006 8 6.00006ZM8 7.00006C7.44772 7.00006 7 7.44778 7 8.00006C7 8.55234 7.44772 9.00006 8 9.00006C8.55228 9.00006 9 8.55234 9 8.00006C9 7.44778 8.55228 7.00006 8 7.00006Z" fill="black" fill-opacity="0.9"/>
</g>
</svg>
