<svg width="16" height="16" viewBox="0 0 16 16" fill="none" xmlns="http://www.w3.org/2000/svg">
<g id="icon.16.person">
<path id="Icon" d="M7.99992 10C10.1135 10 11.372 10.6651 12.1034 11.3965C12.4633 11.7564 12.6825 12.1191 12.8124 12.3975C12.8772 12.5363 12.9198 12.6551 12.9472 12.7422C12.9609 12.7858 12.9716 12.8227 12.9784 12.8496C12.9818 12.8628 12.9843 12.8741 12.9863 12.8828C12.9872 12.8872 12.9875 12.8914 12.9882 12.8945C12.9885 12.896 12.9889 12.8973 12.9892 12.8984L12.9902 12.9004V12.9014C12.9895 12.9019 12.9714 12.9057 12.4999 13L12.9902 12.9023C13.0441 13.173 12.8682 13.4361 12.5976 13.4902C12.3271 13.5441 12.0641 13.369 12.0097 13.0986V13.0996L12.0087 13.0947C12.0063 13.0851 12.0017 13.0674 11.9941 13.043C11.9785 12.9935 11.9505 12.9163 11.9062 12.8213C11.8173 12.6309 11.6613 12.3684 11.3964 12.1035C10.8778 11.5849 9.8863 11 7.99992 11C6.11355 11 5.12205 11.5849 4.60344 12.1035C4.33851 12.3684 4.18252 12.6309 4.09367 12.8213C4.04934 12.9163 4.02134 12.9935 4.00578 13.043C3.99811 13.0674 3.99357 13.0851 3.99113 13.0947C3.99064 13.0967 3.99047 13.0983 3.99016 13.0996V13.0986C3.93577 13.369 3.67273 13.5441 3.40227 13.4902C3.13161 13.4361 2.95577 13.173 3.00969 12.9023L3.49992 13C3.02844 12.9057 3.01031 12.9019 3.00969 12.9014V12.9004L3.01067 12.8984C3.01091 12.8973 3.01134 12.896 3.01164 12.8945C3.01232 12.8914 3.01261 12.8872 3.0136 12.8828C3.01557 12.8741 3.01806 12.8628 3.02141 12.8496C3.02823 12.8227 3.03895 12.7858 3.05266 12.7422C3.08006 12.6551 3.12263 12.5363 3.18742 12.3975C3.31735 12.1191 3.5365 11.7564 3.89641 11.3965C4.6278 10.6651 5.8863 10 7.99992 10ZM7.99992 3C9.65678 3 10.9999 4.34315 10.9999 6C10.9999 7.65685 9.65678 9 7.99992 9C6.34307 9 4.99992 7.65685 4.99992 6C4.99992 4.34315 6.34307 3 7.99992 3ZM7.99992 4C6.89535 4 5.99992 4.89543 5.99992 6C5.99992 7.10457 6.89535 8 7.99992 8C9.10449 8 9.99992 7.10457 9.99992 6C9.99992 4.89543 9.10449 4 7.99992 4Z" fill="black" fill-opacity="0.9"/>
</g>
</svg>
