<svg width="16" height="16" viewBox="0 0 16 16" fill="none" xmlns="http://www.w3.org/2000/svg">
<g id="icon.16.detach">
<path id="Icon" d="M8.3528 10.6459C8.54801 10.8411 8.5479 11.1578 8.3528 11.353L7.35291 12.3529C6.32921 13.3765 4.66976 13.3766 3.64612 12.3529C2.62292 11.3293 2.62273 9.66971 3.64612 8.64615L4.64602 7.64626C4.8412 7.45125 5.15789 7.45132 5.35312 7.64626C5.54833 7.84147 5.54822 8.15809 5.35312 8.35337L4.35323 9.35326C3.72037 9.98629 3.72055 11.0127 4.35323 11.6458C4.98634 12.2789 6.01262 12.2788 6.6458 11.6458L7.6457 10.6459C7.84077 10.451 8.15755 10.4513 8.3528 10.6459ZM3.99968 5.00013C4.27582 5.00013 4.49962 5.22394 4.49962 5.50008C4.49958 5.77618 4.27579 6.00003 3.99968 6.00003H2.49984C2.2238 5.99993 1.99993 5.77612 1.99989 5.50008C1.99989 5.224 2.22378 5.00023 2.49984 5.00013L3.99968 5.00013ZM10.4997 11.5001C10.7758 11.5001 10.9996 11.7239 10.9996 12.0001L10.9996 13.4999C10.9996 13.7761 10.7758 13.9999 10.4997 13.9999C10.2237 13.9997 9.99973 13.776 9.99973 13.4999L9.99973 12.0001C9.99973 11.724 10.2237 11.5003 10.4997 11.5001ZM5.50021 1.99976C5.77618 1.99988 6.00004 2.22373 6.00015 2.49971V3.99955C6.00015 4.27562 5.77625 4.49938 5.50021 4.4995C5.22406 4.4995 5.00026 4.27569 5.00026 3.99955V2.49971C5.00037 2.22366 5.22413 1.99976 5.50021 1.99976ZM13.5 9.9996C13.776 9.99962 13.9997 10.2236 14 10.4995C14 10.7757 13.7762 10.9995 13.5 10.9995L12.0002 10.9995C11.7241 10.9995 11.5003 10.7757 11.5003 10.4995C11.5005 10.2236 11.7242 9.9996 12.0002 9.9996L13.5 9.9996ZM12.3538 3.64669C13.3771 4.67033 13.3772 6.32984 12.3538 7.35347L11.3539 8.35337C11.1586 8.54865 10.842 8.54861 10.6468 8.35337C10.4515 8.15812 10.4515 7.84152 10.6468 7.64626L11.6466 6.64637C12.2796 6.01326 12.2795 4.98692 11.6466 4.35379C11.0135 3.72071 9.98656 3.72011 9.35339 4.3531L8.35349 5.353C8.15823 5.54826 7.84165 5.54826 7.64639 5.353C7.45141 5.15771 7.45122 4.84106 7.64639 4.64589L8.64628 3.646C9.66998 2.62248 11.3301 2.62308 12.3538 3.64669Z" fill="black" fill-opacity="0.9"/>
</g>
</svg>
