<svg width="16" height="16" viewBox="0 0 16 16" fill="none" xmlns="http://www.w3.org/2000/svg">
<g id="icon.16.close">
<path id="Icon" d="M11.1465 4.1465C11.3417 3.95124 11.6582 3.95124 11.8535 4.1465C12.0487 4.34176 12.0487 4.65827 11.8535 4.85353L8.707 8.00002L11.8535 11.1465C12.0487 11.3418 12.0487 11.6583 11.8535 11.8535C11.6582 12.0488 11.3417 12.0488 11.1465 11.8535L7.99997 8.70705L4.85349 11.8535C4.65822 12.0488 4.34172 12.0488 4.14645 11.8535C3.95119 11.6583 3.95119 11.3418 4.14645 11.1465L7.29294 8.00002L4.14645 4.85353C3.95119 4.65827 3.95119 4.34176 4.14645 4.1465C4.34172 3.95124 4.65822 3.95124 4.85349 4.1465L7.99997 7.29298L11.1465 4.1465Z" fill="black" fill-opacity="0.9"/>
</g>
</svg>
