<svg width="16" height="16" viewBox="0 0 16 16" fill="none" xmlns="http://www.w3.org/2000/svg">
<g id="icon.16.ui.kit">
<path id="Icon" d="M6.65332 4.00781C7.40972 4.08461 8 4.72334 8 5.5V7.5L7.99219 7.65332C7.97432 7.82931 7.92493 7.99578 7.85156 8.14844C8.04796 8.05404 8.26753 8 8.5 8H10.5L10.6533 8.00781C11.4097 8.08461 12 8.72334 12 9.5V11.5L11.9922 11.6533C11.9205 12.3593 11.3593 12.9205 10.6533 12.9922L10.5 13H8.5C8.11511 13 7.76456 12.8545 7.49902 12.6162C7.26936 12.8219 6.97724 12.9593 6.65332 12.9922L6.5 13H4.5C3.72334 13 3.08461 12.4097 3.00781 11.6533L3 11.5V9.5C3 9.11588 3.14535 8.76634 3.38281 8.50098C3.17683 8.27121 3.04073 7.97751 3.00781 7.65332L3 7.5V5.5C3 4.67157 3.67157 4 4.5 4H6.5L6.65332 4.00781ZM4.5 9C4.22386 9 4 9.22386 4 9.5V11.5C4 11.7761 4.22386 12 4.5 12H6.5C6.77614 12 7 11.7761 7 11.5V9.5C7 9.22386 6.77614 9 6.5 9H4.5ZM8.5 9C8.22386 9 8 9.22386 8 9.5V11.5C8 11.7761 8.22386 12 8.5 12H10.5C10.7761 12 11 11.7761 11 11.5V9.5C11 9.22386 10.7761 9 10.5 9H8.5ZM4.5 5C4.22386 5 4 5.22386 4 5.5V7.5C4 7.77614 4.22386 8 4.5 8H6.5C6.77614 8 7 7.77614 7 7.5V5.5C7 5.22386 6.77614 5 6.5 5H4.5ZM12.6533 2.00781C13.4097 2.08461 14 2.72334 14 3.5V5.5L13.9922 5.65332C13.9205 6.35931 13.3593 6.92051 12.6533 6.99219L12.5 7H10.5C9.72334 7 9.08461 6.40972 9.00781 5.65332L9 5.5V3.5C9 2.67157 9.67157 2 10.5 2H12.5L12.6533 2.00781ZM10.5 3C10.2239 3 10 3.22386 10 3.5V5.5C10 5.77614 10.2239 6 10.5 6H12.5C12.7761 6 13 5.77614 13 5.5V3.5C13 3.22386 12.7761 3 12.5 3H10.5Z" fill="black" fill-opacity="0.9"/>
</g>
</svg>
