<svg width="16" height="16" viewBox="0 0 16 16" fill="none" xmlns="http://www.w3.org/2000/svg">
<g id="icon.16.variable.mode">
<path id="Icon" d="M5.47342 3.26849C6.10069 2.89816 6.88033 2.89816 7.5076 3.26849L10.0388 4.76263C10.648 5.12234 11.0221 5.77786 11.0222 6.48529V9.51361C11.0222 10.2211 10.648 10.8765 10.0388 11.2363L7.5076 12.7314C6.88031 13.1018 6.10073 13.1017 5.47342 12.7314L2.94217 11.2363C2.37116 10.899 2.00608 10.3025 1.96268 9.64642L1.95877 9.51361V6.48529C1.95887 5.77786 2.333 5.12234 2.94217 4.76263L5.47342 3.26849ZM8.48221 3.26361C9.10794 2.89844 9.88325 2.89993 10.5076 3.26849L13.0388 4.76263C13.648 5.1223 14.0221 5.77793 14.0222 6.48529V9.51361C14.0222 10.221 13.6479 10.8765 13.0388 11.2363L10.5076 12.7314C9.88327 13.1 9.10798 13.1024 8.48221 12.7372L9.79373 11.9619C9.82192 11.9529 9.85023 11.9422 9.87772 11.9306L9.99881 11.8701L12.5301 10.3749C12.7965 10.2176 12.9735 9.94744 13.0135 9.64545L13.0222 9.51361V6.48529C13.0221 6.1317 12.8346 5.80376 12.5301 5.62396L9.99881 4.12885C9.93305 4.09005 9.8638 4.05955 9.79276 4.03705L8.48221 3.26361ZM6.99881 4.12885C6.68538 3.94391 6.29569 3.94403 5.98221 4.12885L3.44998 5.62396C3.14555 5.80381 2.95887 6.13171 2.95877 6.48529V9.51361C2.95877 9.8672 3.14563 10.195 3.44998 10.3749L5.98221 11.8701C6.25659 12.0319 6.58885 12.0521 6.87772 11.9306L6.99881 11.8701L9.53006 10.3749C9.7965 10.2176 9.97349 9.94747 10.0135 9.64545L10.0222 9.51361V6.48529C10.0221 6.13163 9.8346 5.80379 9.53006 5.62396L6.99881 4.12885ZM6.49979 6.99994C7.05207 6.99994 7.49979 7.44765 7.49979 7.99994C7.49978 8.55222 7.05207 8.99994 6.49979 8.99994C5.94762 8.99981 5.49979 8.55214 5.49979 7.99994C5.49979 7.44774 5.94761 7.00007 6.49979 6.99994Z" fill="black" fill-opacity="0.9"/>
</g>
</svg>
