<svg width="16" height="16" viewBox="0 0 16 16" fill="none" xmlns="http://www.w3.org/2000/svg">
<g id="icon.16.slide">
<g id="icon.16.slides">
<path id="Icon" d="M12.2043 3.01074C13.213 3.113 14.0002 3.96435 14.0002 5V10C14.0002 11.0357 13.213 11.887 12.2043 11.9893L12.0002 12H11.5667L11.9788 13.3545C12.059 13.6186 11.9098 13.8981 11.6458 13.9785C11.3816 14.0588 11.1021 13.9096 11.0217 13.6455L10.5208 12H5.47974L4.97876 13.6455C4.89837 13.9096 4.61884 14.0588 4.35474 13.9785C4.09067 13.8981 3.94144 13.6186 4.02173 13.3545L4.43384 12H4.00024C2.96459 12 2.11325 11.2128 2.01099 10.2041L2.00024 10V5C2.00024 3.89543 2.89567 3 4.00024 3H12.0002L12.2043 3.01074ZM4.00024 4C3.44796 4 3.00024 4.44772 3.00024 5V10C3.00024 10.5523 3.44796 11 4.00024 11H12.0002C12.5525 11 13.0002 10.5523 13.0002 10V5C13.0002 4.48232 12.6069 4.05621 12.1028 4.00488L12.0002 4H4.00024ZM5.00024 8C5.55253 8 6.00024 8.44772 6.00024 9C6.00024 9.55228 5.55253 10 5.00024 10C4.44796 10 4.00024 9.55228 4.00024 9C4.00024 8.44772 4.44796 8 5.00024 8ZM5.00024 5C5.55253 5 6.00024 5.44772 6.00024 6C6.00024 6.55228 5.55253 7 5.00024 7C4.44796 7 4.00024 6.55228 4.00024 6C4.00024 5.44772 4.44796 5 5.00024 5Z" fill="black" fill-opacity="0.9"/>
</g>
</g>
</svg>
