<svg width="16" height="16" viewBox="0 0 16 16" fill="none" xmlns="http://www.w3.org/2000/svg">
<g id="icon.16.image">
<path id="Icon" d="M11.5 3C12.3284 3 13 3.67157 13 4.5V11.5C13 12.2767 12.4097 12.9154 11.6533 12.9922L11.5 13H4.5L4.34668 12.9922C3.64069 12.9205 3.07949 12.3593 3.00781 11.6533L3 11.5V4.5C3 3.67157 3.67157 3 4.5 3H11.5ZM4 11.207V11.5C4 11.7761 4.22386 12 4.5 12H9.79297L6.5 8.70703L4 11.207ZM4.5 4C4.22386 4 4 4.22386 4 4.5V9.79297L6.14648 7.64648L6.22461 7.58203C6.41869 7.45387 6.68265 7.47562 6.85352 7.64648L11.207 12H11.5C11.7761 12 12 11.7761 12 11.5V4.5C12 4.22386 11.7761 4 11.5 4H4.5ZM9.5 5.5C10.0523 5.5 10.5 5.94772 10.5 6.5C10.5 7.05228 10.0523 7.5 9.5 7.5C8.94772 7.5 8.5 7.05228 8.5 6.5C8.5 5.94772 8.94772 5.5 9.5 5.5Z" fill="black" fill-opacity="0.9"/>
</g>
</svg>
