<svg width="16" height="16" viewBox="0 0 16 16" fill="none" xmlns="http://www.w3.org/2000/svg">
<g id="icon.16.help">
<path id="Icon" d="M8 2C11.3137 2 14 4.68629 14 8C14 11.3137 11.3137 14 8 14C4.68629 14 2 11.3137 2 8C2 4.68629 4.68629 2 8 2ZM8 3C5.23858 3 3 5.23858 3 8C3 10.7614 5.23858 13 8 13C10.7614 13 13 10.7614 13 8C13 5.23858 10.7614 3 8 3ZM7.86523 9.73535C8.03357 9.73542 8.17974 9.796 8.30273 9.91699C8.42758 10.0381 8.49008 10.1843 8.49023 10.3545C8.49023 10.4698 8.46083 10.5754 8.40234 10.6699C8.34556 10.7646 8.26943 10.8407 8.1748 10.8975C8.08207 10.9523 7.97877 10.9794 7.86523 10.9795C7.69485 10.9795 7.54787 10.919 7.4248 10.7979C7.30186 10.6767 7.24023 10.5286 7.24023 10.3545C7.24039 10.1843 7.30185 10.0381 7.4248 9.91699C7.54781 9.79603 7.69499 9.73538 7.86523 9.73535ZM7.99805 5.01953C8.35968 5.01953 8.67856 5.08314 8.95312 5.20996C9.22947 5.3368 9.44428 5.51826 9.59766 5.75293C9.75282 5.98576 9.831 6.2622 9.83105 6.58203C9.83105 6.79769 9.7955 6.99082 9.72559 7.16113C9.65746 7.33146 9.56034 7.48371 9.43359 7.61621C9.30672 7.74877 9.15566 7.86752 8.98145 7.97168C8.82819 8.0663 8.70194 8.16442 8.60352 8.2666C8.50699 8.3688 8.43504 8.48979 8.3877 8.62793C8.34238 8.76406 8.31835 8.93257 8.31641 9.13281V9.20703H7.37109V9.13281C7.37303 8.79065 7.40445 8.51788 7.4668 8.31543C7.53119 8.11292 7.62287 7.94922 7.74023 7.82617C7.85759 7.70131 8.00055 7.58649 8.16895 7.48242C8.28434 7.41053 8.38769 7.33219 8.47852 7.24707C8.57125 7.15999 8.64426 7.06303 8.69727 6.95703C8.75016 6.84926 8.77728 6.72898 8.77734 6.59668C8.77729 6.44723 8.74188 6.31678 8.67188 6.20703C8.60182 6.09733 8.5069 6.01172 8.3877 5.95117C8.27045 5.89072 8.13872 5.8604 7.99316 5.86035C7.85882 5.86037 7.73048 5.88962 7.60938 5.94824C7.49012 6.00503 7.39007 6.09263 7.31055 6.20996C7.23306 6.32537 7.19017 6.47266 7.18066 6.65039H6.16895C6.17846 6.29071 6.26595 5.98941 6.43066 5.74707C6.59731 5.50474 6.81719 5.32235 7.08984 5.20117C7.36418 5.08017 7.66702 5.0196 7.99805 5.01953Z" fill="black" fill-opacity="0.9"/>
</g>
</svg>
