<svg width="16" height="16" viewBox="0 0 16 16" fill="none" xmlns="http://www.w3.org/2000/svg">
<g id="icon.16.warning">
<path id="Icon" d="M6.28473 2.91502C7.0615 1.62042 8.93754 1.62055 9.71442 2.91502L13.9488 9.97069C14.7486 11.3037 13.7876 13 12.233 13H3.76617C2.21192 12.9997 1.25079 11.3036 2.05035 9.97069L6.28473 2.91502ZM8.85699 3.4287C8.46845 2.78205 7.53057 2.78189 7.14215 3.4287L2.90875 10.4853L2.84332 10.6123C2.58786 11.2116 2.97831 11.9007 3.6236 11.9902L3.76617 12H12.233C13.0103 12 13.4903 11.1519 13.0904 10.4853L8.85699 3.4287ZM7.99957 9.6367C8.16804 9.6367 8.31401 9.69727 8.43707 9.81834C8.562 9.93952 8.62456 10.0855 8.62457 10.2558C8.62454 10.3713 8.59536 10.4766 8.53668 10.5713C8.47991 10.6658 8.4037 10.7411 8.30914 10.7978C8.2164 10.8527 8.11311 10.8808 7.99957 10.8808C7.82742 10.8808 7.67922 10.8203 7.55621 10.6992C7.43518 10.5781 7.37461 10.4299 7.37457 10.2558C7.37459 10.0856 7.43523 9.93948 7.55621 9.81834C7.67923 9.69722 7.82738 9.63679 7.99957 9.6367ZM8.00153 4.99998C8.30281 5.00016 8.54551 5.24854 8.53864 5.54979L8.46735 8.65135C8.46156 8.90513 8.25433 9.10814 8.00055 9.10838C7.74643 9.10838 7.53839 8.90541 7.53278 8.65135L7.46442 5.54881C7.45788 5.2477 7.70031 4.99998 8.00153 4.99998Z" fill="black" fill-opacity="0.9"/>
</g>
</svg>
