<svg width="16" height="16" viewBox="0 0 16 16" fill="none" xmlns="http://www.w3.org/2000/svg">
<g id="icon.16.sticky">
<path id="Icon" d="M11.5 3C12.3284 3 13 3.67157 13 4.5V8.67188L12.9902 8.86914C12.9448 9.32703 12.7423 9.75772 12.4141 10.0859L10.0859 12.4141L9.93945 12.5469C9.58359 12.8386 9.13603 12.9999 8.67188 13H4.5L4.34668 12.9922C3.59028 12.9154 3 12.2767 3 11.5V4.5C3 3.67157 3.67157 3 4.5 3H11.5ZM4.5 4C4.22386 4 4 4.22386 4 4.5V11.5C4 11.7761 4.22386 12 4.5 12H8V8.5C8 8.22386 8.22386 8 8.5 8H12V4.5C12 4.22386 11.7761 4 11.5 4H4.5ZM9 9V11.9434C9.14116 11.8942 9.27126 11.8147 9.37891 11.707L11.707 9.37891C11.8147 9.27126 11.8942 9.14116 11.9434 9H9Z" fill="black" fill-opacity="0.9"/>
</g>
</svg>
