<svg width="16" height="16" viewBox="0 0 16 16" fill="none" xmlns="http://www.w3.org/2000/svg">
<g id="icon.16.community">
<path id="Icon" d="M8 2C11.3137 2 14 4.68629 14 8C14 11.3137 11.3137 14 8 14C4.68629 14 2 11.3137 2 8C2 4.68629 4.68629 2 8 2ZM6.50977 8.5C6.55957 9.84878 6.80731 11.0233 7.15527 11.8584C7.35131 12.3288 7.55942 12.6446 7.73926 12.8271C7.82603 12.9152 7.89377 12.9594 7.93652 12.9805C7.97568 12.9997 7.99471 13 8 13C8.00529 13 8.02432 12.9997 8.06348 12.9805C8.10623 12.9594 8.17397 12.9152 8.26074 12.8271C8.44058 12.6446 8.64869 12.3288 8.84473 11.8584C9.19269 11.0233 9.44043 9.84878 9.49023 8.5H6.50977ZM3.02441 8.5C3.22399 10.5102 4.61481 12.1691 6.48047 12.7637C5.93634 11.7621 5.57042 10.2359 5.51074 8.5H3.02441ZM10.4893 8.5C10.4296 10.2362 10.0628 11.7621 9.51855 12.7637C11.3847 12.1693 12.776 10.5106 12.9756 8.5H10.4893ZM6.48047 3.23535C4.61467 3.82988 3.224 5.48966 3.02441 7.5H5.51074C5.57044 5.76362 5.93611 4.23687 6.48047 3.23535ZM7.93652 3.01953C7.89377 3.04059 7.82603 3.08481 7.73926 3.17285C7.55942 3.35541 7.35131 3.6712 7.15527 4.1416C6.80731 4.97671 6.55957 6.15122 6.50977 7.5H9.49023C9.44043 6.15122 9.19269 4.97671 8.84473 4.1416C8.64869 3.6712 8.44058 3.35541 8.26074 3.17285C8.17397 3.08481 8.10623 3.04059 8.06348 3.01953C8.02432 3.0003 8.00529 3 8 3C7.99471 3 7.97568 3.0003 7.93652 3.01953ZM9.51855 3.23535C10.063 4.23687 10.4296 5.76338 10.4893 7.5H12.9756C12.776 5.48934 11.3848 3.82963 9.51855 3.23535Z" fill="black" fill-opacity="0.9"/>
</g>
</svg>
