<svg width="16" height="16" viewBox="0 0 16 16" fill="none" xmlns="http://www.w3.org/2000/svg">
<g id="icon.16.password">
<path id="Icon" d="M12.2041 5.01074C13.2128 5.113 14 5.96435 14 7V9C14 10.0357 13.2128 10.887 12.2041 10.9893L12 11H4C2.96435 11 2.113 10.2128 2.01074 9.2041L2 9V7C2 5.89543 2.89543 5 4 5H12L12.2041 5.01074ZM4 6C3.44772 6 3 6.44772 3 7V9C3 9.55228 3.44772 10 4 10H12C12.5523 10 13 9.55228 13 9V7C13 6.48232 12.6067 6.05621 12.1025 6.00488L12 6H4ZM5 7C5.55228 7 6 7.44772 6 8C6 8.55228 5.55228 9 5 9C4.44772 9 4 8.55228 4 8C4 7.44772 4.44772 7 5 7ZM8 7C8.55228 7 9 7.44772 9 8C9 8.55228 8.55228 9 8 9C7.44772 9 7 8.55228 7 8C7 7.44772 7.44772 7 8 7ZM11 7C11.5523 7 12 7.44772 12 8C12 8.55228 11.5523 9 11 9C10.4477 9 10 8.55228 10 8C10 7.44772 10.4477 7 11 7Z" fill="black" fill-opacity="0.9"/>
</g>
</svg>
