<svg width="16" height="16" viewBox="0 0 16 16" fill="none" xmlns="http://www.w3.org/2000/svg">
<g id="icon.16.exposeNested">
<path id="Icon" d="M7.64648 8.14648C7.84175 7.95122 8.15825 7.95122 8.35352 8.14648L10.8535 10.6465C11.0488 10.8417 11.0488 11.1583 10.8535 11.3535C10.6583 11.5488 10.3417 11.5488 10.1465 11.3535L8.5 9.70703V13.5C8.5 13.7761 8.27614 14 8 14C7.72386 14 7.5 13.7761 7.5 13.5V9.70703L5.85352 11.3535C5.65825 11.5488 5.34175 11.5488 5.14648 11.3535C4.95122 11.1583 4.95122 10.8417 5.14648 10.6465L7.64648 8.14648ZM7.29297 2.29297C7.68349 1.90244 8.31651 1.90244 8.70703 2.29297L12.707 6.29297C13.0976 6.68349 13.0976 7.31651 12.707 7.70703L11.5605 8.85352C11.3653 9.04874 11.0488 9.04877 10.8535 8.85352C10.6583 8.65826 10.6583 8.34174 10.8535 8.14648L12 7L8 3L4 7L5.14648 8.14648C5.3417 8.34174 5.3417 8.65826 5.14648 8.85352C4.95123 9.04877 4.63472 9.04874 4.43945 8.85352L3.29297 7.70703C2.90244 7.31651 2.90244 6.68349 3.29297 6.29297L7.29297 2.29297Z" fill="black" fill-opacity="0.9"/>
</g>
</svg>
