<svg width="16" height="16" viewBox="0 0 16 16" fill="none" xmlns="http://www.w3.org/2000/svg">
<g id="icon.16.autolayout.wrap.center">
<path id="Icon" d="M9.10254 9.00488C9.60667 9.05621 10 9.48232 10 10V12C10 12.5523 9.55228 13 9 13H7C6.44772 13 6 12.5523 6 12V10C6 9.44772 6.44772 9 7 9H9L9.10254 9.00488ZM7 12H9V10H7V12ZM6.10254 3.00488C6.60667 3.05621 7 3.48232 7 4V6C7 6.55228 6.55228 7 6 7H4C3.44772 7 3 6.55228 3 6V4C3 3.44772 3.44772 3 4 3H6L6.10254 3.00488ZM12.1025 3.00488C12.6067 3.05621 13 3.48232 13 4V6C13 6.55228 12.5523 7 12 7H10C9.44772 7 9 6.55228 9 6V4C9 3.44772 9.44772 3 10 3H12L12.1025 3.00488ZM4 6H6V4H4V6ZM10 6H12V4H10V6Z" fill="black" fill-opacity="0.9"/>
</g>
</svg>
