<svg width="24" height="24" viewBox="0 0 24 24" fill="none" xmlns="http://www.w3.org/2000/svg">
<g id="icon.16.multi.edit">
<path id="Icon" d="M7.5 14.5C7.77614 14.5 8 14.7239 8 15V16H9C9.27614 16 9.5 16.2239 9.5 16.5C9.5 16.7761 9.27614 17 9 17H7.5C7.22386 17 7 16.7761 7 16.5V15C7 14.7239 7.22386 14.5 7.5 14.5ZM16.5 14.5C16.7761 14.5 17 14.7239 17 15V16.5C17 16.6326 16.9473 16.7597 16.8535 16.8535C16.7597 16.9473 16.6326 17 16.5 17H15C14.7239 17 14.5 16.7761 14.5 16.5C14.5 16.2239 14.7239 16 15 16H16V15C16 14.7239 16.2239 14.5 16.5 14.5ZM10.5 9C11.0523 9 11.5 9.44772 11.5 10V14L11.4951 14.1025C11.4472 14.573 11.073 14.9472 10.6025 14.9951L10.5 15H9.5L9.39746 14.9951C8.92703 14.9472 8.55278 14.573 8.50488 14.1025L8.5 14V10C8.5 9.44772 8.94772 9 9.5 9H10.5ZM14.5 9C15.0523 9 15.5 9.44772 15.5 10V14L15.4951 14.1025C15.4472 14.573 15.073 14.9472 14.6025 14.9951L14.5 15H13.5L13.3975 14.9951C12.927 14.9472 12.5528 14.573 12.5049 14.1025L12.5 14V10C12.5 9.44772 12.9477 9 13.5 9H14.5ZM13.5 14H14.5V10H13.5V14ZM9.5 14H10.5V10H9.5V14ZM9 7C9.27614 7 9.5 7.22386 9.5 7.5C9.5 7.77614 9.27614 8 9 8H8V9C8 9.27614 7.77614 9.5 7.5 9.5C7.22386 9.5 7 9.27614 7 9V7.5C7 7.22386 7.22386 7 7.5 7H9ZM16.5 7C16.7761 7 17 7.22386 17 7.5V9C17 9.27614 16.7761 9.5 16.5 9.5C16.2239 9.5 16 9.27614 16 9V8H15C14.7239 8 14.5 7.77614 14.5 7.5C14.5 7.22386 14.7239 7 15 7H16.5Z" fill="black" fill-opacity="0.9"/>
</g>
</svg>
