<svg width="16" height="16" viewBox="0 0 16 16" fill="none" xmlns="http://www.w3.org/2000/svg">
<g id="icon.16.autolayout.wrap.right">
<path id="Icon" d="M9.89746 9.00488C9.39333 9.05621 9 9.48232 9 10V12C9 12.5523 9.44772 13 10 13H12C12.5523 13 13 12.5523 13 12V10C13 9.44772 12.5523 9 12 9H10L9.89746 9.00488ZM12 12H10V10H12V12ZM9.89746 3.00488C9.39333 3.05621 9 3.48232 9 4V6C9 6.55228 9.44772 7 10 7H12C12.5523 7 13 6.55228 13 6V4C13 3.44772 12.5523 3 12 3H10L9.89746 3.00488ZM3.89746 3.00488C3.39333 3.05621 3 3.48232 3 4V6C3 6.55228 3.44772 7 4 7H6C6.55228 7 7 6.55228 7 6V4C7 3.44772 6.55228 3 6 3H4L3.89746 3.00488ZM12 6H10V4H12V6ZM6 6H4V4H6V6Z" fill="black" fill-opacity="0.9"/>
</g>
</svg>
