<svg width="16" height="16" viewBox="0 0 16 16" fill="none" xmlns="http://www.w3.org/2000/svg">
<g id="icon.16.adjust">
<path id="Icon" d="M5.5 13C5.77614 13 6 12.7761 6 12.5V10.9121C6.58218 10.706 7 10.1528 7 9.5C7 8.84707 6.58234 8.29297 6 8.08691V3.5C6 3.22386 5.77614 3 5.5 3C5.22386 3 5 3.22386 5 3.5V8.08691C4.41766 8.29297 4 8.84707 4 9.5C4 10.1528 4.41782 10.706 5 10.9121V12.5C5 12.7761 5.22386 13 5.5 13ZM10.5 13C10.7761 13 11 12.7761 11 12.5V7.91309C11.5823 7.70703 12 7.15293 12 6.5C12 5.84719 11.5822 5.29403 11 5.08789V3.5C11 3.22386 10.7761 3 10.5 3C10.2239 3 10 3.22386 10 3.5V5.08789C9.41782 5.29403 9 5.84719 9 6.5C9 7.15293 9.41766 7.70703 10 7.91309V12.5C10 12.7761 10.2239 13 10.5 13ZM10.5 7C10.2239 7 10 6.77614 10 6.5C10 6.22386 10.2239 6 10.5 6C10.7761 6 11 6.22386 11 6.5C11 6.77614 10.7761 7 10.5 7ZM5.5 10C5.22386 10 5 9.77614 5 9.5C5 9.22386 5.22386 9 5.5 9C5.77614 9 6 9.22386 6 9.5C6 9.77614 5.77614 10 5.5 10Z" fill="black" fill-opacity="0.9"/>
</g>
</svg>
