<svg width="16" height="16" viewBox="0 0 16 16" fill="none" xmlns="http://www.w3.org/2000/svg">
<g id="icon.16.ai.sort">
<path id="Icon" d="M10.5146 8.94043C10.6409 8.43545 11.3591 8.43545 11.4854 8.94043L11.7998 10.2002L13.0596 10.5146C13.5645 10.6409 13.5645 11.3591 13.0596 11.4854L11.7998 11.7998L11.4854 13.0596C11.3591 13.5645 10.6409 13.5645 10.5146 13.0596L10.2002 11.7998L8.94043 11.4854C8.43545 11.3591 8.43545 10.6409 8.94043 10.5146L10.2002 10.2002L10.5146 8.94043ZM6.10254 9.00488C6.60667 9.05621 7 9.48232 7 10V12L6.99512 12.1025C6.94379 12.6067 6.51768 13 6 13H4C3.44772 13 3 12.5523 3 12V10C3 9.44772 3.44772 9 4 9H6L6.10254 9.00488ZM4 12H6V10H4V12ZM6.10254 3.00488C6.60667 3.05621 7 3.48232 7 4V6L6.99512 6.10254C6.94379 6.60667 6.51768 7 6 7H4C3.44772 7 3 6.55228 3 6V4C3 3.44772 3.44772 3 4 3H6L6.10254 3.00488ZM12.1025 3.00488C12.6067 3.05621 13 3.48232 13 4V6L12.9951 6.10254C12.9438 6.60667 12.5177 7 12 7H10C9.44772 7 9 6.55228 9 6V4C9 3.44772 9.44772 3 10 3H12L12.1025 3.00488ZM10 6H12V4H10V6ZM4 6H6V4H4V6Z" fill="black" fill-opacity="0.9"/>
</g>
</svg>
