<svg width="16" height="16" viewBox="0 0 16 16" fill="none" xmlns="http://www.w3.org/2000/svg">
<g id="icon.16.other">
<path id="Icon" d="M3 5.99997C4.10457 5.99997 5 6.8954 5 7.99997C5 9.10454 4.10457 9.99997 3 9.99997C1.89543 9.99997 1 9.10454 1 7.99997C1 6.8954 1.89543 5.99997 3 5.99997ZM8 5.99997C9.10457 5.99997 10 6.8954 10 7.99997C10 9.10454 9.10457 9.99997 8 9.99997C6.89543 9.99997 6 9.10454 6 7.99997C6 6.8954 6.89543 5.99997 8 5.99997ZM13 5.99997C14.1046 5.99997 15 6.8954 15 7.99997C15 9.10454 14.1046 9.99997 13 9.99997C11.8954 9.99997 11 9.10454 11 7.99997C11 6.8954 11.8954 5.99997 13 5.99997ZM3 6.99997C2.44772 6.99997 2 7.44768 2 7.99997C2 8.55225 2.44772 8.99997 3 8.99997C3.55228 8.99997 4 8.55225 4 7.99997C4 7.44768 3.55228 6.99997 3 6.99997ZM8 6.99997C7.44772 6.99997 7 7.44768 7 7.99997C7 8.55225 7.44772 8.99997 8 8.99997C8.55228 8.99997 9 8.55225 9 7.99997C9 7.44768 8.55228 6.99997 8 6.99997ZM13 6.99997C12.4477 6.99997 12 7.44768 12 7.99997C12 8.55225 12.4477 8.99997 13 8.99997C13.5523 8.99997 14 8.55225 14 7.99997C14 7.44768 13.5523 6.99997 13 6.99997Z" fill="black" fill-opacity="0.9"/>
</g>
</svg>
