<svg width="16" height="16" viewBox="0 0 16 16" fill="none" xmlns="http://www.w3.org/2000/svg">
<g id="icon.16.mask">
<path id="Icon" d="M3.5 11C3.74171 11 3.94371 11.1714 3.99023 11.3994L4.00977 11.6006C4.04966 11.7961 4.20392 11.9503 4.39941 11.9902L4.60059 12.0098C4.82855 12.0563 5 12.2583 5 12.5C5 12.7761 4.77614 13 4.5 13C3.67157 13 3 12.3284 3 11.5C3 11.2239 3.22386 11 3.5 11ZM7 12C7.27614 12 7.5 12.2239 7.5 12.5C7.5 12.7761 7.27614 13 7 13H6C5.72386 13 5.5 12.7761 5.5 12.5C5.5 12.2239 5.72386 12 6 12H7ZM9.5 11C9.77614 11 10 11.2239 10 11.5C10 12.3284 9.32843 13 8.5 13C8.22386 13 8 12.7761 8 12.5C8 12.2583 8.17145 12.0563 8.39941 12.0098L8.60059 11.9902C8.79608 11.9503 8.95034 11.7961 8.99023 11.6006L9.00977 11.3994C9.05629 11.1714 9.25829 11 9.5 11ZM3.5 8.5C3.77614 8.5 4 8.72386 4 9V10C4 10.2761 3.77614 10.5 3.5 10.5C3.22386 10.5 3 10.2761 3 10V9C3 8.72386 3.22386 8.5 3.5 8.5ZM9.25 3C11.3211 3 13 4.67893 13 6.75C13 8.82107 11.3211 10.5 9.25 10.5C7.17893 10.5 5.5 8.82107 5.5 6.75C5.5 4.67893 7.17893 3 9.25 3ZM6.5127 7C6.63163 8.31915 7.68086 9.36735 9 9.48633V7.5C9 7.22386 8.77614 7 8.5 7H6.5127ZM9.25 4C7.9915 4 6.93316 4.84614 6.60645 6H8.5C9.32843 6 10 6.67157 10 7.5V9.39258C11.1537 9.06578 12 8.0084 12 6.75C12 5.23122 10.7688 4 9.25 4ZM4.5 6C4.77614 6 5 6.22386 5 6.5C5 6.74171 4.82855 6.94371 4.60059 6.99023L4.39941 7.00977C4.20392 7.04966 4.04966 7.20392 4.00977 7.39941L3.99023 7.60059C3.94371 7.82855 3.74171 8 3.5 8C3.22386 8 3 7.77614 3 7.5C3 6.67157 3.67157 6 4.5 6Z" fill="black" fill-opacity="0.9"/>
</g>
</svg>
