<svg width="16" height="16" viewBox="0 0 16 16" fill="none" xmlns="http://www.w3.org/2000/svg">
<g id="icon.16.placeholder">
<path id="Icon" d="M5.71674 12.9534C5.84639 12.7291 6.12414 12.6424 6.36908 12.7268C6.58887 12.8027 6.81629 12.8636 7.04877 12.9085C7.30304 12.9577 7.49994 13.1719 7.49994 13.4309C7.49967 13.7254 7.24715 13.9592 6.95697 13.9085C6.6096 13.8477 6.27223 13.7568 5.94818 13.6389C5.67106 13.5379 5.56927 13.2089 5.71674 12.9534ZM9.62982 12.7268C9.87482 12.6423 10.1526 12.7289 10.2822 12.9534C10.4296 13.2089 10.327 13.5382 10.0497 13.6389C9.72605 13.7565 9.38889 13.8469 9.04193 13.9075C8.75206 13.9578 8.49995 13.7243 8.49994 13.43C8.49994 13.1712 8.69704 12.9576 8.95111 12.9085C9.18338 12.8636 9.41022 12.8026 9.62982 12.7268ZM3.54681 11.1468C3.77097 11.0175 4.05483 11.0813 4.22455 11.2766C4.37859 11.4539 4.54531 11.6197 4.7226 11.7737C4.91791 11.9434 4.98077 12.2273 4.8515 12.4514C4.70391 12.7073 4.36765 12.7831 4.14154 12.593C3.87534 12.3693 3.62896 12.1229 3.40521 11.8567C3.21521 11.6307 3.29102 11.2943 3.54681 11.1468ZM11.7744 11.2766C11.944 11.0814 12.227 11.0177 12.4511 11.1468C12.7068 11.2943 12.7834 11.6306 12.5937 11.8567C12.3699 12.123 12.1227 12.3692 11.8564 12.593C11.6303 12.7831 11.294 12.7073 11.1464 12.4514C11.0173 12.2273 11.081 11.9433 11.2763 11.7737C11.4536 11.6197 11.6203 11.4539 11.7744 11.2766ZM2.5683 8.50027C2.82715 8.50027 3.04167 8.69729 3.09076 8.95144C3.13562 9.18366 3.1966 9.41058 3.2724 9.63015C3.35673 9.87505 3.26925 10.1531 3.04486 10.2825C2.78937 10.4297 2.46096 10.3273 2.36029 10.0501C2.24269 9.72627 2.15143 9.38934 2.09076 9.04226C2.0403 8.75239 2.27403 8.50037 2.5683 8.50027ZM13.4306 8.50027C13.725 8.50027 13.9588 8.75233 13.9081 9.04226C13.8473 9.38932 13.7564 9.72629 13.6386 10.0501C13.5378 10.3273 13.2086 10.4299 12.9531 10.2825C12.7286 10.153 12.6419 9.87503 12.7265 9.63015C12.8025 9.41052 12.8641 9.18374 12.9091 8.95144C12.9584 8.69738 13.1718 8.50035 13.4306 8.50027ZM2.35931 5.94851C2.46008 5.67124 2.78934 5.56966 3.04486 5.71706C3.26914 5.8467 3.35675 6.1245 3.2724 6.36941C3.19649 6.58934 3.13464 6.81647 3.08978 7.0491C3.04074 7.30324 2.82714 7.50027 2.5683 7.50027C2.274 7.50019 2.04037 7.2482 2.09076 6.95828C2.15137 6.61067 2.24163 6.27278 2.35931 5.94851ZM12.9531 5.71706C13.2086 5.56943 13.5376 5.67125 13.6386 5.94851C13.7565 6.27282 13.8474 6.6106 13.9081 6.95828C13.9587 7.24824 13.725 7.50027 13.4306 7.50027C13.1718 7.50016 12.9583 7.30317 12.9091 7.0491C12.8641 6.81643 12.8026 6.58936 12.7265 6.36941C12.6419 6.1245 12.7287 5.84674 12.9531 5.71706ZM4.14154 3.40554C4.36754 3.21541 4.70392 3.29132 4.8515 3.54714C4.98074 3.77126 4.91787 4.05517 4.7226 4.22488C4.54519 4.37902 4.37868 4.54551 4.22455 4.72292C4.05492 4.9181 3.77075 4.98116 3.54681 4.85183C3.29146 4.70424 3.21552 4.36775 3.40521 4.14187C3.62883 3.8756 3.87549 3.62938 4.14154 3.40554ZM11.1464 3.54714C11.294 3.29135 11.6304 3.21544 11.8564 3.40554C12.1225 3.62938 12.3691 3.87557 12.5927 4.14187C12.7824 4.36781 12.7066 4.70428 12.4511 4.85183C12.2273 4.98104 11.944 4.91787 11.7744 4.72292C11.6203 4.54558 11.4536 4.37896 11.2763 4.22488C11.081 4.0552 11.0173 3.77127 11.1464 3.54714ZM6.95795 2.09206C7.2476 2.04159 7.4997 2.27466 7.49994 2.56863C7.49994 2.8271 7.30345 3.04084 7.04974 3.09011C6.81693 3.13515 6.58918 3.19658 6.36908 3.27273C6.1242 3.35733 5.8464 3.27049 5.71674 3.04617C5.56931 2.79069 5.67102 2.46147 5.94818 2.36062C6.27249 2.24291 6.61029 2.15267 6.95795 2.09206ZM9.04193 2.09206C9.389 2.1527 9.72595 2.24305 10.0497 2.36062C10.3271 2.46143 10.4287 2.79059 10.2812 3.04617C10.1515 3.27053 9.87373 3.35752 9.62885 3.27273C9.40948 3.19678 9.18311 3.13612 8.95111 3.09109C8.69726 3.04184 8.49994 2.82722 8.49994 2.56863C8.50022 2.27467 8.75229 2.04147 9.04193 2.09206Z" fill="black" fill-opacity="0.3"/>
</g>
</svg>
