<svg width="16" height="16" viewBox="0 0 16 16" fill="none" xmlns="http://www.w3.org/2000/svg">
<g id="icon.16.temperature">
<path id="Icon" d="M8 1.5C9.10457 1.5 10 2.39543 10 3.5V9.26855C10.6114 9.81637 11 10.6114 11 11.5C11 13.1569 9.65685 14.5 8 14.5C6.34315 14.5 5 13.1569 5 11.5C5 10.6114 5.3886 9.81637 6 9.26855V3.5C6 2.39543 6.89543 1.5 8 1.5ZM7 9.75293L6.80078 9.90234C6.31367 10.2688 6 10.8476 6 11.5C6 12.6046 6.89543 13.5 8 13.5C9.10457 13.5 10 12.6046 10 11.5C10 10.8476 9.68633 10.2688 9.19922 9.90234L9 9.75293V7H7V9.75293ZM12.5 8C12.7761 8 13 8.22386 13 8.5C13 8.77614 12.7761 9 12.5 9H11.5C11.2239 9 11 8.77614 11 8.5C11 8.22386 11.2239 8 11.5 8H12.5ZM12.5 6C12.7761 6 13 6.22386 13 6.5C13 6.77614 12.7761 7 12.5 7H11.5C11.2239 7 11 6.77614 11 6.5C11 6.22386 11.2239 6 11.5 6H12.5ZM8 2.5C7.44772 2.5 7 2.94772 7 3.5V6H9V3.5C9 2.94772 8.55228 2.5 8 2.5ZM12.5 4C12.7761 4 13 4.22386 13 4.5C13 4.77614 12.7761 5 12.5 5H11.5C11.2239 5 11 4.77614 11 4.5C11 4.22386 11.2239 4 11.5 4H12.5Z" fill="black" fill-opacity="0.9"/>
</g>
</svg>
