<svg width="16" height="16" viewBox="0 0 16 16" fill="none" xmlns="http://www.w3.org/2000/svg">
<g id="icon.16.autolayout.absolute.position">
<path id="Icon" d="M0.500046 12C0.776188 12 1.00005 12.2239 1.00005 12.5V15H3.50005C3.77619 15 4.00005 15.2239 4.00005 15.5C4.00005 15.7761 3.77619 16 3.50005 16H1.00005C0.447761 16 4.57844e-05 15.5523 4.57764e-05 15V12.5C4.57764e-05 12.2239 0.223903 12 0.500046 12ZM15.5 12C15.7762 12 16 12.2239 16 12.5V15C16 15.5523 15.5523 16 15 16H12.5C12.2239 16 12 15.7761 12 15.5C12 15.2239 12.2239 15 12.5 15H15V12.5C15 12.2239 15.2239 12 15.5 12ZM3.50005 0C3.77619 0 4.00005 0.223858 4.00005 0.5C4.00005 0.776142 3.77619 1 3.50005 1H1.00005V3.5C1.00005 3.77614 0.776188 4 0.500046 4C0.223903 4 4.57764e-05 3.77614 4.57764e-05 3.5V1C4.57844e-05 0.447715 0.447761 8.05319e-09 1.00005 0H3.50005ZM15 0C15.5523 8.05319e-09 16 0.447715 16 1V3.5C16 3.77614 15.7762 4 15.5 4C15.2239 4 15 3.77614 15 3.5V1H12.5C12.2239 1 12 0.776142 12 0.5C12 0.223858 12.2239 0 12.5 0H15Z" fill="black" fill-opacity="0.9"/>
</g>
</svg>
