<svg width="16" height="16" viewBox="0 0 16 16" fill="none" xmlns="http://www.w3.org/2000/svg">
<g id="icon.16.ai.summarize">
<path id="Icon" d="M4.25732 9.97028C4.32045 9.71779 4.67955 9.71779 4.74268 9.97028L5.00049 11.0005L6.02979 11.2574C6.28227 11.3205 6.28227 11.6796 6.02979 11.7427L5.00049 12.0005L4.74268 13.0298C4.67955 13.2823 4.32045 13.2823 4.25732 13.0298L4.00049 12.0005L2.97021 11.7427C2.71773 11.6796 2.71773 11.3205 2.97021 11.2574L4.00049 11.0005L4.25732 9.97028ZM12.5005 11.0005C12.7765 11.0007 13.0005 11.2245 13.0005 11.5005C13.0003 11.7764 12.7764 12.0004 12.5005 12.0005H7.50049C7.22444 12.0005 7.00064 11.7766 7.00049 11.5005C7.00049 11.2244 7.22435 11.0005 7.50049 11.0005H12.5005ZM4.25732 5.97028C4.32045 5.71779 4.67955 5.71779 4.74268 5.97028L4.99951 6.99957L6.02979 7.25739C6.28227 7.32051 6.28227 7.67961 6.02979 7.74274L4.99951 7.99957L4.74268 9.02985C4.67955 9.28233 4.32045 9.28233 4.25732 9.02985L3.99951 7.99957L2.97021 7.74274C2.71773 7.67961 2.71773 7.32051 2.97021 7.25739L3.99951 6.99957L4.25732 5.97028ZM12.5005 7.00055C12.7765 7.00075 13.0005 7.22453 13.0005 7.50055C13.0003 7.77644 12.7764 8.00035 12.5005 8.00055H7.50049C7.22444 8.00055 7.00064 7.77657 7.00049 7.50055C7.00049 7.22441 7.22435 7.00055 7.50049 7.00055H12.5005ZM4.25732 1.97028C4.32045 1.71779 4.67955 1.71779 4.74268 1.97028L5.00049 2.99957L6.02979 3.25739C6.28227 3.32051 6.28227 3.67961 6.02979 3.74274L5.00049 3.99957L4.74268 5.02985C4.67955 5.28233 4.32045 5.28233 4.25732 5.02985L4.00049 3.99957L2.97021 3.74274C2.71773 3.67961 2.71773 3.32051 2.97021 3.25739L4.00049 2.99957L4.25732 1.97028ZM12.5005 3.00055C12.7765 3.00075 13.0005 3.22453 13.0005 3.50055C13.0003 3.77644 12.7764 4.00035 12.5005 4.00055H7.50049C7.22444 4.00055 7.00064 3.77657 7.00049 3.50055C7.00049 3.22441 7.22435 3.00055 7.50049 3.00055H12.5005Z" fill="black" fill-opacity="0.9"/>
</g>
</svg>
