<svg width="16" height="16" viewBox="0 0 16 16" fill="none" xmlns="http://www.w3.org/2000/svg">
<g id="icon.16.visible">
<path id="Icon" fill-rule="evenodd" clip-rule="evenodd" d="M14 8C14 7 11.5 4 8 4C4.5 4 2 7 2 8C2 9 4.5 12 8 12C11.5 12 14 9 14 8ZM11.6768 9.60352C10.743 10.3725 9.46015 11 8 11C6.53985 11 5.25704 10.3725 4.32324 9.60352C3.85836 9.22067 3.50222 8.81962 3.27051 8.48145C3.15453 8.31217 3.0786 8.17203 3.03516 8.06934C3.02387 8.04267 3.01672 8.02103 3.0113 8.00465C3.01078 8.00305 3.01026 8.0015 3.00977 8C3.01026 7.9985 3.01078 7.99695 3.0113 7.99535C3.01672 7.97897 3.02387 7.95733 3.03516 7.93066C3.0786 7.82797 3.15453 7.68783 3.27051 7.51855C3.50222 7.18038 3.85836 6.77933 4.32324 6.39648C5.25704 5.62755 6.53985 5 8 5C9.46015 5 10.743 5.62755 11.6768 6.39648C12.1416 6.77933 12.4978 7.18038 12.7295 7.51855C12.8455 7.68783 12.9214 7.82797 12.9648 7.93066C12.9744 7.95315 12.9804 7.97224 12.9852 7.98752C12.9867 7.99201 12.988 7.99618 12.9893 8C12.988 8.00382 12.9867 8.00799 12.9852 8.01249C12.9804 8.02776 12.9744 8.04685 12.9648 8.06934C12.9214 8.17203 12.8455 8.31217 12.7295 8.48145C12.4978 8.81962 12.1416 9.22067 11.6768 9.60352ZM8 9C8.55228 9 9 8.55228 9 8C9 7.44772 8.55228 7 8 7C7.44772 7 7 7.44772 7 8C7 8.55228 7.44772 9 8 9Z" fill="black" fill-opacity="0.9"/>
</g>
</svg>
