<svg width="16" height="16" viewBox="0 0 16 16" fill="none" xmlns="http://www.w3.org/2000/svg">
<g id="icon.16.wand">
<path id="Icon" d="M8.64648 8.64648C8.84175 8.45122 9.15825 8.45122 9.35351 8.64648L12.8535 12.1465C13.0488 12.3417 13.0488 12.6583 12.8535 12.8535C12.6583 13.0488 12.3417 13.0488 12.1465 12.8535L8.64648 9.35351C8.45122 9.15825 8.45122 8.84175 8.64648 8.64648ZM3.75 8.5C4.16421 8.5 4.5 8.83579 4.5 9.25C4.5 9.66421 4.16421 10 3.75 10C3.33579 10 3 9.66421 3 9.25C3 8.83579 3.33579 8.5 3.75 8.5ZM6.5 3C6.77614 3 7 3.22386 7 3.5V6H9.5C9.77614 6 10 6.22386 10 6.5C10 6.77614 9.77614 7 9.5 7H7V9.5C7 9.77614 6.77614 10 6.5 10C6.22386 10 6 9.77614 6 9.5V7H3.5C3.22386 7 3 6.77614 3 6.5C3 6.22386 3.22386 6 3.5 6H6V3.5C6 3.22386 6.22386 3 6.5 3ZM3.75 3C4.16421 3 4.5 3.33579 4.5 3.75C4.5 4.16421 4.16421 4.5 3.75 4.5C3.33579 4.5 3 4.16421 3 3.75C3 3.33579 3.33579 3 3.75 3ZM9.25 3C9.66421 3 10 3.33579 10 3.75C10 4.16421 9.66421 4.5 9.25 4.5C8.83579 4.5 8.5 4.16421 8.5 3.75C8.5 3.33579 8.83579 3 9.25 3Z" fill="black" fill-opacity="0.9"/>
</g>
</svg>
