<svg width="16" height="16" viewBox="0 0 16 16" fill="none" xmlns="http://www.w3.org/2000/svg">
<g id="icon.16.variable">
<path id="Icon" d="M7 2.23288C7.6188 1.87561 8.3812 1.87561 9 2.23288L12.5 4.25339C13.1188 4.61065 13.5 5.27128 13.5 5.98581V10.0268C13.5 10.7413 13.1188 11.402 12.5 11.7592L9 13.7798C8.38122 14.137 7.61878 14.137 7 13.7798L3.5 11.7592C2.88121 11.402 2.50001 10.7413 2.5 10.0268V5.98581C2.5 5.27128 2.88121 4.61065 3.5 4.25339L7 2.23288ZM8.5 3.09909C8.1906 2.92046 7.8094 2.92046 7.5 3.09909L4 5.1196L3.88965 5.19284C3.64579 5.38058 3.5 5.67313 3.5 5.98581V10.0268C3.50001 10.3841 3.69061 10.7144 4 10.893L7.5 12.9135C7.77073 13.0698 8.09639 13.0894 8.38086 12.9721L8.5 12.9135L12 10.893C12.3094 10.7144 12.5 10.3841 12.5 10.0268V5.98581C12.5 5.67313 12.3542 5.38058 12.1104 5.19284L12 5.1196L8.5 3.09909ZM9 9.00046H7V7.00046H9V9.00046Z" fill="black" fill-opacity="0.9"/>
</g>
</svg>
