<svg width="16" height="16" viewBox="0 0 16 16" fill="none" xmlns="http://www.w3.org/2000/svg">
<g id="icon.16.heart">
<g id="Icon">
<mask id="path-1-outside-1_1027518_13343" maskUnits="userSpaceOnUse" x="2.00006" y="3.00006" width="12" height="11" fill="black">
<rect fill="white" x="2.00006" y="3.00006" width="12" height="11"/>
<path d="M8.73248 4.73248C9.70879 3.75617 11.2913 3.75617 12.2676 4.73248C13.2439 5.70879 13.2439 7.29133 12.2676 8.26764L8.00006 12.5352L3.73248 8.26764C2.75617 7.29133 2.75617 5.70879 3.73248 4.73248C4.70879 3.75617 6.29133 3.75617 7.26764 4.73248L8.00006 5.4649L8.73248 4.73248Z"/>
</mask>
<path d="M8.73248 4.73248L8.02538 4.02538L8.73248 4.73248ZM12.2676 8.26764L11.5605 7.56053L12.2676 8.26764ZM8.00006 12.5352L7.29295 13.2423C7.68348 13.6328 8.31664 13.6328 8.70717 13.2423L8.00006 12.5352ZM8.00006 5.4649L7.29295 6.17201C7.68348 6.56254 8.31664 6.56254 8.70717 6.17201L8.00006 5.4649ZM8.73248 4.73248L9.43959 5.43959C10.0254 4.8538 10.9747 4.8538 11.5605 5.43959L12.2676 4.73248L12.9747 4.02538C11.6079 2.65854 9.39221 2.65854 8.02538 4.02538L8.73248 4.73248ZM12.2676 4.73248L11.5605 5.43959C12.1463 6.02538 12.1463 6.97475 11.5605 7.56053L12.2676 8.26764L12.9747 8.97475C14.3416 7.60791 14.3416 5.39221 12.9747 4.02538L12.2676 4.73248ZM12.2676 8.26764L11.5605 7.56053L7.29295 11.8281L8.00006 12.5352L8.70717 13.2423L12.9747 8.97475L12.2676 8.26764ZM8.00006 12.5352L8.70717 11.8281L4.43959 7.56053L3.73248 8.26764L3.02538 8.97475L7.29295 13.2423L8.00006 12.5352ZM3.73248 8.26764L4.43959 7.56053C3.8538 6.97475 3.8538 6.02538 4.43959 5.43959L3.73248 4.73248L3.02538 4.02538C1.65854 5.39221 1.65854 7.60791 3.02538 8.97475L3.73248 8.26764ZM3.73248 4.73248L4.43959 5.43959C5.02538 4.8538 5.97475 4.8538 6.56053 5.43959L7.26764 4.73248L7.97475 4.02538C6.60791 2.65854 4.39221 2.65854 3.02538 4.02538L3.73248 4.73248ZM7.26764 4.73248L6.56053 5.43959L7.29295 6.17201L8.00006 5.4649L8.70717 4.7578L7.97475 4.02538L7.26764 4.73248ZM8.00006 5.4649L8.70717 6.17201L9.43959 5.43959L8.73248 4.73248L8.02538 4.02538L7.29295 4.7578L8.00006 5.4649Z" fill="black" fill-opacity="0.9" mask="url(#path-1-outside-1_1027518_13343)"/>
</g>
</g>
</svg>
