<svg width="16" height="16" viewBox="0 0 16 16" fill="none" xmlns="http://www.w3.org/2000/svg">
<g id="icon.16.page">
<path id="Icon" d="M8.09766 2.50977C8.19389 2.52894 8.28311 2.57608 8.35352 2.64648L12.3535 6.64648C12.4473 6.74025 12.5 6.86739 12.5 7V12.5C12.5 13.0523 12.0523 13.5 11.5 13.5H4.5C3.94772 13.5 3.5 13.0523 3.5 12.5V3.5C3.5 2.94772 3.94772 2.5 4.5 2.5H8L8.09766 2.50977ZM4.5 12.5H11.5V7.5H8.5C7.94772 7.5 7.5 7.05228 7.5 6.5V3.5H4.5V12.5ZM8.5 6.5H10.793L8.5 4.20703V6.5Z" fill="black" fill-opacity="0.9"/>
</g>
</svg>
