<svg width="16" height="16" viewBox="0 0 16 16" fill="none" xmlns="http://www.w3.org/2000/svg">
<g id="icon.16.all">
<path id="Icon" d="M6.9707 2.45134C7.60407 2.07132 8.39593 2.07132 9.0293 2.45134L13.5146 5.14275C13.8157 5.3235 14 5.64899 14 6.00017C13.9999 6.35131 13.8157 6.67688 13.5146 6.85759L11.6094 8.00017L13.5146 9.14275C13.8157 9.32349 14 9.64904 14 10.0002C13.9999 10.3513 13.8157 10.6769 13.5146 10.8576L9.0293 13.549C8.39599 13.9289 7.60401 13.9289 6.9707 13.549L2.48535 10.8576C2.18433 10.6769 2.00009 10.3513 2 10.0002C2.00003 9.64904 2.18432 9.32349 2.48535 9.14275L4.38867 8.00017L2.48535 6.85759C2.18428 6.67688 2.00006 6.35131 2 6.00017C2 5.64899 2.18428 5.3235 2.48535 5.14275L6.9707 2.45134ZM9.0293 9.549C8.39597 9.92895 7.60403 9.92895 6.9707 9.549L5.36035 8.5822L3 10.0002L7.48535 12.6916C7.76243 12.8578 8.10041 12.8788 8.39258 12.7541L8.51465 12.6916L13 10.0002L10.6387 8.5822L9.0293 9.549ZM8.51465 3.30876C8.19797 3.11875 7.80203 3.11875 7.48535 3.30876L3 6.00017L5.36133 7.41716L6.33301 7.99919H6.33203L7.48535 8.69157C7.76245 8.8578 8.10039 8.87877 8.39258 8.75407L8.51465 8.69157L9.66699 7.99919H9.66602L10.6377 7.41716L13 6.00017L8.51465 3.30876Z" fill="black" fill-opacity="0.9"/>
</g>
</svg>
