<svg width="16" height="16" viewBox="0 0 16 16" fill="none" xmlns="http://www.w3.org/2000/svg">
<g id="icon.16.component.set">
<path id="Icon" d="M0.5 13C0.776142 13 1 13.2239 1 13.5V14C1 14.5523 1.44772 15 2 15H2.5C2.77614 15 3 15.2239 3 15.5C3 15.7761 2.77614 16 2.5 16H2C0.895431 16 0 15.1046 0 14V13.5C0 13.2239 0.223858 13 0.5 13ZM6.75 15C7.02614 15 7.25 15.2239 7.25 15.5C7.25 15.7761 7.02614 16 6.75 16H5C4.72386 16 4.5 15.7761 4.5 15.5C4.5 15.2239 4.72386 15 5 15H6.75ZM11 15C11.2761 15 11.5 15.2239 11.5 15.5C11.5 15.7761 11.2761 16 11 16H9.25C8.97386 16 8.75 15.7761 8.75 15.5C8.75 15.2239 8.97386 15 9.25 15H11ZM15.5 13C15.7761 13 16 13.2239 16 13.5V14C16 15.1046 15.1046 16 14 16H13.5C13.2239 16 13 15.7761 13 15.5C13 15.2239 13.2239 15 13.5 15H14C14.5523 15 15 14.5523 15 14V13.5C15 13.2239 15.2239 13 15.5 13ZM7.64648 9.06055C7.84171 8.86536 8.15826 8.86541 8.35352 9.06055L9.79297 10.5C9.98818 10.6953 9.98818 11.0118 9.79297 11.207L8.35352 12.6465L8.27539 12.7109C8.10904 12.8208 7.89095 12.8208 7.72461 12.7109L7.64648 12.6465L6.20703 11.207C6.01189 11.0118 6.01184 10.6952 6.20703 10.5L7.64648 9.06055ZM7.26758 10.8535L8 11.5859L8.73242 10.8535L8 10.1211L7.26758 10.8535ZM0.5 8.75C0.776142 8.75 1 8.97386 1 9.25V11C1 11.2761 0.776142 11.5 0.5 11.5C0.223858 11.5 8.05326e-09 11.2761 0 11V9.25C8.05319e-09 8.97386 0.223858 8.75 0.5 8.75ZM15.5 8.75C15.7761 8.75 16 8.97386 16 9.25V11C16 11.2761 15.7761 11.5 15.5 11.5C15.2239 11.5 15 11.2761 15 11V9.25C15 8.97386 15.2239 8.75 15.5 8.75ZM4.79297 6.20703C4.9882 6.01184 5.30474 6.01189 5.5 6.20703L6.93945 7.64648C7.13467 7.84174 7.13467 8.15826 6.93945 8.35352L5.5 9.79297L5.42188 9.85742C5.25553 9.96724 5.03744 9.96725 4.87109 9.85742L4.79297 9.79297L3.35352 8.35352C3.15838 8.15826 3.15833 7.84171 3.35352 7.64648L4.79297 6.20703ZM10.5 6.20703C10.6952 6.01184 11.0118 6.01189 11.207 6.20703L12.6465 7.64648C12.8417 7.84174 12.8417 8.15826 12.6465 8.35352L11.207 9.79297L11.1289 9.85742C10.9626 9.96724 10.7445 9.96725 10.5781 9.85742L10.5 9.79297L9.06055 8.35352C8.86541 8.15826 8.86536 7.84171 9.06055 7.64648L10.5 6.20703ZM4.41406 8L5.14648 8.73242L5.87891 8L5.14648 7.26758L4.41406 8ZM10.1211 8L10.8535 8.73242L11.5859 8L10.8535 7.26758L10.1211 8ZM0.5 4.5C0.776142 4.5 1 4.72386 1 5V6.75C1 7.02614 0.776142 7.25 0.5 7.25C0.223858 7.25 8.05326e-09 7.02614 0 6.75V5C8.05319e-09 4.72386 0.223858 4.5 0.5 4.5ZM15.5 4.5C15.7761 4.5 16 4.72386 16 5V6.75C16 7.02614 15.7761 7.25 15.5 7.25C15.2239 7.25 15 7.02614 15 6.75V5C15 4.72386 15.2239 4.5 15.5 4.5ZM7.64648 3.35352C7.84171 3.15833 8.15826 3.15838 8.35352 3.35352L9.79297 4.79297C9.98818 4.98822 9.98818 5.30475 9.79297 5.5L8.35352 6.93945L8.27539 7.00391C8.10904 7.11373 7.89095 7.11373 7.72461 7.00391L7.64648 6.93945L6.20703 5.5C6.01189 5.30474 6.01184 4.9882 6.20703 4.79297L7.64648 3.35352ZM7.26758 5.14648L8 5.87891L8.73242 5.14648L8 4.41406L7.26758 5.14648ZM2.5 0C2.77614 0 3 0.223858 3 0.5C3 0.776142 2.77614 1 2.5 1H2C1.44772 1 1 1.44772 1 2V2.5C1 2.77614 0.776142 3 0.5 3C0.223858 3 0 2.77614 0 2.5V2C1.99722e-07 0.895431 0.895431 1.85224e-08 2 0H2.5ZM14 0C15.1046 1.35296e-07 16 0.89543 16 2V2.5C16 2.77614 15.7761 3 15.5 3C15.2239 3 15 2.77614 15 2.5V2C15 1.44772 14.5523 1 14 1H13.5C13.2239 1 13 0.776142 13 0.5C13 0.223858 13.2239 0 13.5 0H14ZM6.75 0C7.02614 8.05326e-09 7.25 0.223858 7.25 0.5C7.25 0.776142 7.02614 1 6.75 1H5C4.72386 1 4.5 0.776142 4.5 0.5C4.5 0.223858 4.72386 8.05326e-09 5 0H6.75ZM11 0C11.2761 8.05326e-09 11.5 0.223858 11.5 0.5C11.5 0.776142 11.2761 1 11 1H9.25C8.97386 1 8.75 0.776142 8.75 0.5C8.75 0.223858 8.97386 8.05326e-09 9.25 0H11Z" fill="black" fill-opacity="0.9"/>
</g>
</svg>
