<svg width="16" height="16" viewBox="0 0 16 16" fill="none" xmlns="http://www.w3.org/2000/svg">
<g id="icon.16.boolean.union">
<path id="Secondary Fill" fill-rule="evenodd" clip-rule="evenodd" d="M9 4H4V9H7V12H12V7H9V4Z" fill="black" fill-opacity="0.3"/>
<g id="Icon">
<mask id="path-2-inside-1_1027518_13261" fill="white">
<path fill-rule="evenodd" clip-rule="evenodd" d="M4 3C3.44772 3 3 3.44772 3 4V9C3 9.55228 3.44772 10 4 10H6V12C6 12.5523 6.44772 13 7 13H12C12.5523 13 13 12.5523 13 12V7C13 6.44772 12.5523 6 12 6H10V4C10 3.44772 9.55228 3 9 3H4Z"/>
</mask>
<path d="M6 10H7V9H6V10ZM10 6H9V7H10V6ZM3 4H4V4V3V2C2.89543 2 2 2.89543 2 4H3ZM3 9H4V4H3H2V9H3ZM4 10V9H4H3H2C2 10.1046 2.89543 11 4 11V10ZM6 10V9H4V10V11H6V10ZM6 12H7V10H6H5V12H6ZM7 13V12H6H5C5 13.1046 5.89543 14 7 14V13ZM12 13V12H7V13V14H12V13ZM13 12H12V13V14C13.1046 14 14 13.1046 14 12H13ZM13 7H12V12H13H14V7H13ZM12 6V7H13H14C14 5.89543 13.1046 5 12 5V6ZM10 6V7H12V6V5H10V6ZM10 4H9V6H10H11V4H10ZM9 3V4H10H11C11 2.89543 10.1046 2 9 2V3ZM4 3V4H9V3V2H4V3Z" fill="black" fill-opacity="0.9" mask="url(#path-2-inside-1_1027518_13261)"/>
</g>
</g>
</svg>
