<svg width="16" height="16" viewBox="0 0 16 16" fill="none" xmlns="http://www.w3.org/2000/svg">
<g id="icon.16.tint">
<path id="Icon" d="M8 2C8.27837 2.0001 8.54423 2.1161 8.7334 2.32031V2.32129H8.73438L8.73828 2.3252C8.74058 2.32769 8.74313 2.33164 8.74707 2.33594C8.7551 2.3447 8.76676 2.35706 8.78125 2.37305C8.81032 2.40511 8.85194 2.45161 8.9043 2.51074C9.0091 2.62911 9.15788 2.79914 9.33496 3.01074C9.68824 3.43289 10.1606 4.02555 10.6357 4.70215C11.1087 5.37571 11.5979 6.15206 11.9717 6.94141C12.3375 7.71395 12.6357 8.58652 12.6357 9.42871C12.6357 11.9702 10.5433 13.9998 8 14C5.45652 14 3.36336 11.9703 3.36328 9.42871C3.36328 8.58655 3.66151 7.71393 4.02734 6.94141C4.40116 6.15206 4.89031 5.37571 5.36328 4.70215C5.83843 4.0255 6.31174 3.43292 6.66504 3.01074C6.84199 2.79931 6.98999 2.62904 7.09473 2.51074C7.14714 2.45154 7.18869 2.40514 7.21777 2.37305C7.2323 2.35703 7.2439 2.34473 7.25195 2.33594C7.25598 2.33154 7.2594 2.32772 7.26172 2.3252L7.26562 2.32129C7.26865 2.32384 7.31382 2.36486 8 3L7.26562 2.32031C7.45488 2.11593 7.72144 2 8 2ZM4.41113 10C4.68004 11.6417 6.08682 12.9092 7.8125 12.9951L8 13C9.81008 12.9998 11.3104 11.7007 11.5889 10H4.41113ZM8 3C8 3 4.75788 6.50458 4.39746 9H11.6025C11.2438 6.5148 8.02642 3.02858 8 3Z" fill="black" fill-opacity="0.9"/>
</g>
</svg>
