<svg width="16" height="16" viewBox="0 0 16 16" fill="none" xmlns="http://www.w3.org/2000/svg">
<g id="icon.16.number">
<path id="Icon" d="M11.5 13C12.3284 13 13 12.3284 13 11.5V4.5C13 3.67157 12.3284 3 11.5 3H4.5C3.67157 3 3 3.67157 3 4.5V11.5C3 12.3284 3.67157 13 4.5 13H11.5ZM4.5 12C4.22386 12 4 11.7761 4 11.5V4.5C4 4.22386 4.22386 4 4.5 4H11.5C11.7761 4 12 4.22386 12 4.5V11.5C12 11.7761 11.7761 12 11.5 12H4.5ZM6.4502 10.9971C6.72493 11.0245 6.96955 10.8245 6.99707 10.5498L7.05176 10H8.54785L8.50293 10.4502C8.47546 10.7249 8.67547 10.9695 8.9502 10.9971C9.22493 11.0245 9.46955 10.8245 9.49707 10.5498L9.55176 10H10.5C10.7761 10 11 9.77614 11 9.5C11 9.22386 10.7761 9 10.5 9H9.65234L9.85254 7H10.5C10.7761 7 11 6.77614 11 6.5C11 6.22386 10.7761 6 10.5 6H9.95215L9.99707 5.5498C10.0245 5.27507 9.82453 5.03045 9.5498 5.00293C9.27507 4.97546 9.03045 5.17547 9.00293 5.4502L8.94824 6H7.45215L7.49707 5.5498C7.52454 5.27507 7.32453 5.03045 7.0498 5.00293C6.77507 4.97546 6.53045 5.17547 6.50293 5.4502L6.44824 6H5.5C5.22386 6 5 6.22386 5 6.5C5 6.77614 5.22386 7 5.5 7H6.34766L6.14746 9H5.5C5.22386 9 5 9.22386 5 9.5C5 9.77614 5.22386 10 5.5 10H6.04785L6.00293 10.4502C5.97546 10.7249 6.17547 10.9695 6.4502 10.9971ZM7.15234 9L7.35254 7H8.84766L8.64746 9H7.15234Z" fill="black" fill-opacity="0.9"/>
</g>
</svg>
