<svg width="16" height="16" viewBox="0 0 16 16" fill="none" xmlns="http://www.w3.org/2000/svg">
<g id="icon.16.info">
<path id="Icon" d="M8 2C11.3137 2 14 4.68629 14 8C14 11.3137 11.3137 14 8 14C4.68629 14 2 11.3137 2 8C2 4.68629 4.68629 2 8 2ZM8 3C5.23858 3 3 5.23858 3 8C3 10.7614 5.23858 13 8 13C10.7614 13 13 10.7614 13 8C13 5.23858 10.7614 3 8 3ZM7.99707 6.68555C8.28128 6.68555 8.51168 6.916 8.51172 7.2002V10.5352C8.51172 10.8194 8.2813 11.0498 7.99707 11.0498C7.71288 11.0498 7.48242 10.8194 7.48242 10.5352V7.2002C7.48246 6.91603 7.71291 6.6856 7.99707 6.68555ZM8 4.9502C8.16464 4.95021 8.30445 5.00553 8.41992 5.11523C8.5373 5.22315 8.59664 5.35454 8.59668 5.50977C8.59668 5.66317 8.53735 5.79445 8.41992 5.9043C8.30442 6.01221 8.16472 6.06639 8 6.06641C7.83716 6.06638 7.6965 6.01223 7.5791 5.9043C7.46201 5.79454 7.40332 5.66296 7.40332 5.50977C7.40336 5.35469 7.46195 5.22309 7.5791 5.11523C7.6965 5.00541 7.83716 4.95022 8 4.9502Z" fill="black" fill-opacity="0.9"/>
</g>
</svg>
