<svg width="16" height="16" viewBox="0 0 16 16" fill="none" xmlns="http://www.w3.org/2000/svg">
<g id="icon.16.saturation">
<path id="Icon" d="M8 2.5C10.1516 2.5 11.8963 4.24405 11.8965 6.39551L11.8945 6.4541C12.867 7.16233 13.4998 8.30866 13.5 9.60352L13.4951 9.80469C13.3906 11.8629 11.6878 13.5 9.60352 13.5L9.40332 13.4941C8.90499 13.4689 8.43167 13.3496 8 13.1543C7.51052 13.3759 6.96765 13.5 6.39551 13.5L6.19531 13.4941C4.1369 13.3897 2.5 11.6878 2.5 9.60352C2.50021 8.30814 3.13253 7.16031 4.10547 6.45215C4.1052 6.4333 4.10449 6.41442 4.10449 6.39551C4.10464 4.2442 5.84862 2.50024 8 2.5ZM11.7012 7.61133C11.4435 8.39594 10.9441 9.06971 10.29 9.5459C10.2903 9.56508 10.292 9.58427 10.292 9.60352L10.2871 9.80469C10.2342 10.8458 9.77189 11.779 9.05859 12.4473C9.23518 12.481 9.41712 12.5 9.60352 12.5C11.2029 12.5 12.5 11.2028 12.5 9.60352C12.4998 8.83072 12.1948 8.13052 11.7012 7.61133ZM4.29883 7.60938C3.80465 8.12868 3.50017 8.83015 3.5 9.60352C3.5 11.2026 4.79628 12.4998 6.39551 12.5C6.58229 12.5 6.76445 12.4801 6.94141 12.4463C6.1828 11.7355 5.70801 10.7251 5.70801 9.60352C5.70801 9.58427 5.7087 9.56507 5.70898 9.5459C5.05502 9.06948 4.55612 8.39436 4.29883 7.60938ZM6.75098 10.0859C6.88566 10.8889 7.34806 11.5802 7.99902 12.0146C8.65065 11.5803 9.1132 10.8893 9.24805 10.0859C8.85605 10.2185 8.43668 10.292 8 10.292L7.7998 10.2861C7.4346 10.2676 7.08285 10.1982 6.75098 10.0859ZM7.99902 7.19336C7.37726 7.60806 6.92437 8.25675 6.76758 9.01367C7.14185 9.19032 7.55873 9.29192 8 9.29199C8.44094 9.29199 8.85731 9.19 9.23145 9.01367C9.07447 8.25639 8.62142 7.60799 7.99902 7.19336ZM6.39551 6.70801C5.95474 6.70807 5.53801 6.80916 5.16406 6.98535C5.27524 7.52277 5.53743 8.0042 5.90137 8.3877C6.10747 7.76007 6.46937 7.20326 6.94043 6.76172C6.76381 6.72807 6.58191 6.70801 6.39551 6.70801ZM9.60352 6.70801C9.41684 6.70804 9.23446 6.72697 9.05762 6.76074C9.52936 7.20243 9.89129 7.75957 10.0977 8.3877C10.4619 8.00433 10.7245 7.5237 10.8359 6.98633C10.4616 6.80986 10.0447 6.70801 9.60352 6.70801ZM8 3.5C6.56508 3.50022 5.37705 4.54447 5.14746 5.91406C5.53938 5.78152 5.95885 5.70806 6.39551 5.70801C6.96725 5.70801 7.50984 5.83249 7.99902 6.05371C8.48835 5.83219 9.03145 5.70807 9.60352 5.70801C10.0408 5.70801 10.4611 5.78119 10.8535 5.91406C10.6238 4.54432 9.43512 3.5 8 3.5Z" fill="black" fill-opacity="0.9"/>
</g>
</svg>
