<svg width="16" height="16" viewBox="0 0 16 16" fill="none" xmlns="http://www.w3.org/2000/svg">
<g id="icon.16.shadows">
<path id="Icon" d="M8 2C4.68629 2 2 4.68629 2 8C2 11.3137 4.68629 14 8 14H8.5C8.77614 14 9 13.7761 9 13.5V12.8994C11.2822 12.4361 13 10.4189 13 8C13 5.58101 11.2823 3.56285 9 3.09961V2.5C9 2.22386 8.77614 2 8.5 2H8ZM8 13C5.23858 13 3 10.7614 3 8C3 5.23858 5.23858 3 8 3V13ZM9 4.12598C10.7252 4.57002 12 6.13616 12 8C12 9.86384 10.7252 11.43 9 11.874V4.12598Z" fill="black" fill-opacity="0.9"/>
</g>
</svg>
