<svg width="16" height="16" viewBox="0 0 16 16" fill="none" xmlns="http://www.w3.org/2000/svg">
<g id="icon.16.star">
<path id="Icon" d="M8.00003 2C8.43439 2.00014 8.81937 2.28079 8.95218 2.69434L9.85257 5.5H12.7559C13.1906 5.50022 13.5756 5.78129 13.708 6.19531C13.8403 6.60966 13.6894 7.06227 13.335 7.31445L11.0069 8.96973L11.9453 11.6719C12.0873 12.0809 11.9495 12.5353 11.6045 12.7969C11.2592 13.0584 10.7842 13.0678 10.4287 12.8203L8.00003 11.1279L5.5723 12.8203C5.21689 13.0679 4.74188 13.0583 4.39652 12.7969C4.05137 12.5353 3.91367 12.081 4.0557 11.6719L4.9932 8.96973L2.66605 7.31445C2.31148 7.06229 2.16065 6.60978 2.293 6.19531C2.42556 5.78121 2.81029 5.5 3.24515 5.5H6.14847L7.04788 2.69434L7.10941 2.5459C7.27791 2.21511 7.61996 2.00015 8.00003 2ZM6.87796 6.5H3.24515L6.18363 8.58984L5.00101 12L8.00003 9.91016L11.001 12L9.81644 8.58984L12.7559 6.5H9.12308L8.00003 3L6.87796 6.5Z" fill="black" fill-opacity="0.9"/>
</g>
</svg>
