<svg width="16" height="16" viewBox="0 0 16 16" fill="none" xmlns="http://www.w3.org/2000/svg">
<g id="icon.16.stamp">
<path id="Icon" d="M10.5 13C10.7761 13 11 13.2239 11 13.5C11 13.7761 10.7761 14 10.5 14H5.5C5.22386 14 5 13.7761 5 13.5C5 13.2239 5.22386 13 5.5 13H10.5ZM8 2C9.65685 2 11 3.34315 11 5C11 5.88738 10.6124 6.68219 10 7.23145V8.57617L12.582 9.00684C12.8231 9.04702 13 9.25558 13 9.5V11.5C13 11.7761 12.7761 12 12.5 12H3.5C3.22386 12 3 11.7761 3 11.5V9.5C3 9.25558 3.17687 9.04702 3.41797 9.00684L6 8.57617V7.23145C5.3876 6.68219 5 5.88738 5 5C5 3.34315 6.34315 2 8 2ZM4 9.92285V11H12V9.92285L9.45898 9.5H6.54102L4 9.92285ZM8 3C6.89543 3 6 3.89543 6 5C6 5.58877 6.25599 6.11781 6.66797 6.4873L7 6.78516V8.5H9V6.78516L9.33203 6.4873C9.74401 6.11781 10 5.58877 10 5C10 3.89543 9.10457 3 8 3Z" fill="black" fill-opacity="0.9"/>
</g>
</svg>
