<svg width="16" height="16" viewBox="0 0 16 16" fill="none" xmlns="http://www.w3.org/2000/svg">
<g id="icon.16.autolayout.horizontal.top">
<path id="Icon" d="M6.10254 3.00488C6.60667 3.05621 7 3.48232 7 4V12L6.99512 12.1025C6.94379 12.6067 6.51768 13 6 13H4C3.48232 13 3.05621 12.6067 3.00488 12.1025L3 12V4C3 3.44772 3.44772 3 4 3H6L6.10254 3.00488ZM4 12H6V4H4V12ZM12 3C12.5523 3 13 3.44772 13 4V8L12.9951 8.10254C12.9438 8.60667 12.5177 9 12 9H10C9.48232 9 9.05621 8.60667 9.00488 8.10254L9 8V4C9 3.44772 9.44772 3 10 3H12ZM10 8H12V4H10V8Z" fill="black" fill-opacity="0.9"/>
</g>
</svg>
