<svg width="16" height="16" viewBox="0 0 16 16" fill="none" xmlns="http://www.w3.org/2000/svg">
<g id="icon.16.component">
<path id="Icon" d="M7.56958 9.17905C7.80765 8.94122 8.19284 8.94122 8.43091 9.17905L10.3206 11.0667C10.5597 11.306 10.5599 11.6948 10.3206 11.9339L8.43091 13.8216L8.33521 13.8997C8.09888 14.0558 7.77793 14.0295 7.56958 13.8216L5.67993 11.9339C5.44048 11.6947 5.44052 11.306 5.67993 11.0667L7.56958 9.17905ZM6.6604 11.5003L8.00024 12.8382L9.33911 11.5003L8.00024 10.1615L6.6604 11.5003ZM4.06665 5.68002C4.30588 5.44056 4.69461 5.44056 4.93384 5.68002L6.82153 7.56967C7.05907 7.80776 7.05927 8.19303 6.82153 8.431L4.93384 10.3206C4.6947 10.56 4.30588 10.5598 4.06665 10.3206L2.17896 8.431L2.10083 8.3353C1.94468 8.09888 1.97087 7.77802 2.17896 7.56967L4.06665 5.68002ZM11.0667 5.68002C11.3059 5.44056 11.6946 5.44056 11.9338 5.68002L13.8215 7.56967C14.0591 7.80776 14.0593 8.19303 13.8215 8.431L11.9338 10.3206C11.6947 10.56 11.3059 10.5598 11.0667 10.3206L9.17896 8.431L9.10083 8.3353C8.94468 8.09888 8.97087 7.77802 9.17896 7.56967L11.0667 5.68002ZM3.16235 8.00034L4.50024 9.3392L5.83911 8.00034L4.50024 6.66049L3.16235 8.00034ZM10.1624 8.00034L11.5002 9.3392L12.8391 8.00034L11.5002 6.66049L10.1624 8.00034ZM7.56958 2.17905C7.80765 1.94122 8.19284 1.94122 8.43091 2.17905L10.3206 4.06674C10.5597 4.30599 10.5599 4.6948 10.3206 4.93393L8.43091 6.82162L8.33521 6.89975C8.09888 7.05584 7.77793 7.0295 7.56958 6.82162L5.67993 4.93393C5.44048 4.69472 5.44052 4.30597 5.67993 4.06674L7.56958 2.17905ZM6.6604 4.50034L8.00024 5.83823L9.33911 4.50034L8.00024 3.16147L6.6604 4.50034Z" fill="black" fill-opacity="0.9"/>
</g>
</svg>
