<svg width="16" height="16" viewBox="0 0 16 16" fill="none" xmlns="http://www.w3.org/2000/svg">
<g id="icon.16.library">
<path id="Icon" d="M8 4.33313C9.32542 3.21986 11.2739 3.24115 12.5752 4.39758L12.832 4.6261C12.9387 4.72098 13 4.85735 13 5.00012V12.0001C12.9999 12.1969 12.8845 12.3755 12.7051 12.4562C12.5256 12.5367 12.3151 12.5047 12.168 12.3741L11.9111 12.1456C10.9639 11.3037 9.53608 11.3037 8.58887 12.1456L8.33203 12.3741C8.1427 12.5421 7.8573 12.5421 7.66797 12.3741L7.41113 12.1456C6.46392 11.3037 5.03608 11.3037 4.08887 12.1456L3.83203 12.3741C3.68491 12.5047 3.47438 12.5367 3.29492 12.4562C3.1155 12.3755 3.00008 12.1969 3 12.0001V5.00012C3 4.85735 3.06128 4.72098 3.16797 4.6261L3.4248 4.39758C4.72607 3.24115 6.67458 3.21986 8 4.33313ZM7.41113 5.14563C6.46392 4.30366 5.03608 4.30366 4.08887 5.14563L4 5.22375V10.9845C5.08073 10.3593 6.41927 10.3593 7.5 10.9845V5.22375L7.41113 5.14563ZM11.9111 5.14563C10.9639 4.30366 9.53608 4.30366 8.58887 5.14563L8.5 5.22375V10.9845C9.58073 10.3593 10.9193 10.3593 12 10.9845V5.22375L11.9111 5.14563Z" fill="black" fill-opacity="0.9"/>
</g>
</svg>
