<svg width="16" height="16" viewBox="0 0 16 16" fill="none" xmlns="http://www.w3.org/2000/svg">
<g id="icon.16.hidden">
<path id="Icon" d="M13.4137 5.5C13.7372 5.5 13.9806 5.76652 13.8414 6.05859C13.6075 6.54952 13.1215 7.17678 12.442 7.7627L13.4156 9.22266C13.5688 9.45242 13.5067 9.76284 13.277 9.91602C13.0472 10.069 12.7367 10.007 12.5836 9.77734L11.6412 8.36328C11.1673 8.67367 10.6354 8.9499 10.0524 9.15039L10.485 10.8789C10.5518 11.1467 10.3885 11.4184 10.1207 11.4854C9.85302 11.5519 9.58121 11.3888 9.51428 11.1211L9.08459 9.40332C8.73564 9.46559 8.3732 9.5 7.99963 9.5C7.62563 9.49998 7.26303 9.46575 6.9137 9.40332L6.48499 11.1211C6.41799 11.3889 6.14633 11.5522 5.87854 11.4854C5.61095 11.4183 5.44754 11.1466 5.51428 10.8789L5.94592 9.15039C5.36295 8.94979 4.83093 8.67372 4.35706 8.36328L3.41565 9.77734C3.26243 10.007 2.952 10.0692 2.72229 9.91602C2.49279 9.76282 2.43064 9.45232 2.58362 9.22266L3.55627 7.76172C2.87763 7.1762 2.39264 6.54916 2.15881 6.05859C2.01967 5.76657 2.26213 5.50011 2.58557 5.5C3.05123 5.5 3.0219 5.6191 3.27014 5.98145C3.50186 6.31962 3.85799 6.72067 4.32288 7.10352C5.25662 7.87247 6.53952 8.49991 7.99963 8.5C9.45969 8.5 10.7426 7.87238 11.6764 7.10352C12.1413 6.72067 12.4984 6.31962 12.7301 5.98145C12.981 5.61523 12.9588 5.50007 13.4137 5.5Z" fill="black" fill-opacity="0.9"/>
</g>
</svg>
