<svg width="16" height="16" viewBox="0 0 16 16" fill="none" xmlns="http://www.w3.org/2000/svg">
<g id="icon.16.flatten">
<path id="Icon" d="M12.5 12C12.7761 12 13 12.2239 13 12.5C13 12.7761 12.7761 13 12.5 13H3.5C3.22386 13 3 12.7761 3 12.5C3 12.2239 3.22386 12 3.5 12H12.5ZM13.5 9C13.7761 9 14 9.22386 14 9.5C14 9.77614 13.7761 10 13.5 10H2.5C2.22386 10 2 9.77614 2 9.5C2 9.22386 2.22386 9 2.5 9H13.5ZM8 2C8.27614 2 8.5 2.22386 8.5 2.5V5.29297L9.64648 4.14648C9.84175 3.95122 10.1583 3.95122 10.3535 4.14648C10.5488 4.34175 10.5488 4.65825 10.3535 4.85352L8.35352 6.85352C8.15825 7.04878 7.84175 7.04878 7.64648 6.85352L5.64648 4.85352C5.45122 4.65825 5.45122 4.34175 5.64648 4.14648C5.84175 3.95122 6.15825 3.95122 6.35352 4.14648L7.5 5.29297V2.5C7.5 2.22386 7.72386 2 8 2Z" fill="black" fill-opacity="0.9"/>
</g>
</svg>
