<svg width="16" height="16" viewBox="0 0 16 16" fill="none" xmlns="http://www.w3.org/2000/svg">
<g id="icon.16.show-all">
<path id="Icon" d="M7 12C7 11.4477 7.44772 11 8 11C8.55228 11 9 11.4477 9 12C9 12.5523 8.55228 13 8 13C7.44772 13 7 12.5523 7 12ZM7 7.99997C7 7.44768 7.44772 6.99997 8 6.99997C8.55228 6.99997 9 7.44768 9 7.99997C9 8.55225 8.55228 8.99997 8 8.99997C7.44772 8.99997 7 8.55225 7 7.99997ZM7 3.99997C7 3.44768 7.44772 2.99997 8 2.99997C8.55228 2.99997 9 3.44768 9 3.99997C9 4.55225 8.55228 4.99997 8 4.99997C7.44772 4.99997 7 4.55225 7 3.99997Z" fill="black" fill-opacity="0.9"/>
</g>
</svg>
