<svg width="16" height="16" viewBox="0 0 16 16" fill="none" xmlns="http://www.w3.org/2000/svg">
<g id="icon.16.pen">
<path id="Icon" d="M3.72849 3.02145C4.83924 3.13055 9.67483 3.67513 11 4.99997C11.8888 5.88903 12.2722 7.28337 12.1123 8.59665L13.2988 9.79294C13.6863 10.1839 13.6851 10.8148 13.2959 11.2041L11.1748 13.3252C10.7831 13.7168 10.1478 13.7154 9.75778 13.3222L8.56052 12.1162C7.25777 12.2648 5.8809 11.8808 4.99997 11C3.67529 9.67487 3.13063 4.83971 3.02145 3.72849C3.00717 3.58223 3.06013 3.43984 3.16403 3.33591L3.33591 3.16403C3.4399 3.06006 3.58214 3.00708 3.72849 3.02145ZM7.74118 7.03415C7.82375 7.01208 7.91044 6.99997 7.99997 6.99997C8.55225 6.99997 8.99997 7.44768 8.99997 7.99997C8.99997 8.55225 8.55225 8.99997 7.99997 8.99997C7.4477 8.99995 6.99997 8.55224 6.99997 7.99997C6.99997 7.91045 7.01208 7.82375 7.03415 7.74118L4.16306 4.87009C4.24913 5.50937 4.36996 6.29249 4.53415 7.08005C4.68675 7.81193 4.87046 8.52441 5.08688 9.11911C5.28517 9.66393 5.48019 10.0227 5.64059 10.2187L5.707 10.2929C6.33122 10.917 7.38392 11.243 8.44626 11.122L8.92966 11.0674L9.27048 11.4121L10.4668 12.6181L12.5888 10.497L11.4023 9.30075L11.0615 8.957L11.1201 8.47556C11.2505 7.40454 10.9231 6.33743 10.2929 5.707C10.1215 5.53565 9.74187 5.31345 9.11911 5.08688C8.52432 4.87051 7.81202 4.68665 7.08005 4.53415C6.29249 4.37007 5.50945 4.24895 4.87009 4.16306L7.74118 7.03415Z" fill="black" fill-opacity="0.9"/>
</g>
</svg>
