<svg width="16" height="16" viewBox="0 0 16 16" fill="none" xmlns="http://www.w3.org/2000/svg">
<g id="icon.16.boolean">
<path id="Icon" d="M10 12C12.2091 12 14 10.2091 14 8C14 5.79086 12.2091 4 10 4H6L5.79395 4.00488C3.68056 4.11211 2 5.85996 2 8C2 10.14 3.68056 11.8879 5.79395 11.9951L6 12H10ZM10 10C11.1046 10 12 9.10457 12 8C12 6.89543 11.1046 6 10 6C8.89543 6 8 6.89543 8 8C8 9.10457 8.89543 10 10 10ZM10 9C9.44772 9 9 8.55228 9 8C9 7.44772 9.44772 7 10 7C10.5523 7 11 7.44772 11 8C11 8.55228 10.5523 9 10 9ZM3 8C3 6.34315 4.34315 5 6 5H10C11.6569 5 13 6.34315 13 8C13 9.65685 11.6569 11 10 11H6C4.34315 11 3 9.65685 3 8Z" fill="black" fill-opacity="0.9"/>
</g>
</svg>
