<svg width="16" height="16" viewBox="0 0 16 16" fill="none" xmlns="http://www.w3.org/2000/svg">
<g id="icon.16.complexvector">
<path id="Icon" d="M11.5001 3.00002C12.3285 3.00002 13.0001 3.67159 13.0001 4.50002C13.0001 5.15283 12.5823 5.70598 12.0001 5.91212V10.5L12.8233 11.3233C12.921 11.4209 12.921 11.5791 12.8233 11.6768L11.6769 12.8233C11.5792 12.9209 11.421 12.9209 11.3233 12.8233L10.1769 11.6768C10.0793 11.5791 10.0793 11.4209 10.1769 11.3233L11.0001 10.5V8.50392C10.7448 8.79716 10.4484 8.99099 10.1085 9.07814C9.66487 9.19184 9.22857 9.10284 8.85069 8.96584C8.47443 8.82935 8.0964 8.62152 7.76085 8.43849C7.40908 8.24662 7.09924 8.07934 6.80772 7.97365C6.51794 7.86865 6.30534 7.84818 6.13975 7.89064C5.98957 7.92919 5.79993 8.03979 5.59385 8.37013C5.3856 8.70405 5.17946 9.23595 5.0001 10.0567V10.0869C5.58244 10.293 6.0001 10.8471 6.0001 11.5C6.0001 12.3284 5.32853 13 4.5001 13L4.34678 12.9922C3.59038 12.9154 3.0001 12.2767 3.0001 11.5C3.00011 10.8471 3.41776 10.293 4.0001 10.0869V5.50002L3.17686 4.67677C3.07925 4.57915 3.07926 4.42089 3.17686 4.32326L4.32335 3.17677C4.42098 3.07915 4.57923 3.07915 4.67686 3.17677L5.82335 4.32326C5.92095 4.42089 5.92096 4.57915 5.82335 4.67677L5.0001 5.50002V7.49513C5.2553 7.20221 5.55204 7.00898 5.89171 6.92189C6.33534 6.80819 6.77164 6.89719 7.14952 7.03419C7.52578 7.17068 7.90381 7.37851 8.23936 7.56154C8.59113 7.75341 8.90097 7.92069 9.19249 8.02638C9.48227 8.13138 9.69487 8.15185 9.86046 8.10939C10.0106 8.07084 10.2003 7.96024 10.4064 7.6299C10.6147 7.29585 10.8207 6.76363 11.0001 5.9424V5.91212C10.4179 5.706 10.0001 5.15283 10.0001 4.50002C10.0001 3.72335 10.5904 3.08462 11.3468 3.00783L11.5001 3.00002ZM4.5001 11C4.22396 11 4.00011 11.2239 4.0001 11.5C4.0001 11.7762 4.22396 12 4.5001 12C4.77625 12 5.0001 11.7762 5.0001 11.5C5.0001 11.2239 4.77625 11 4.5001 11ZM11.5001 4.00002C11.224 4.00002 11.0001 4.22387 11.0001 4.50002C11.0001 4.77616 11.224 5.00002 11.5001 5.00002C11.7762 5.00002 12.0001 4.77616 12.0001 4.50002C12.0001 4.22387 11.7762 4.00002 11.5001 4.00002Z" fill="black" fill-opacity="0.9"/>
</g>
</svg>
