<svg width="16" height="16" viewBox="0 0 16 16" fill="none" xmlns="http://www.w3.org/2000/svg">
<g id="icon.16.branch">
<path id="Icon" d="M4.5 4C5.88071 4 7 5.11929 7 6.5V8.5C7 9.32843 7.67157 10 8.5 10H11.293L10.1465 8.85352C9.95122 8.65825 9.95122 8.34175 10.1465 8.14648C10.3417 7.95122 10.6583 7.95122 10.8535 8.14648L12.8535 10.1465C13.0488 10.3417 13.0488 10.6583 12.8535 10.8535L10.8535 12.8535C10.6583 13.0488 10.3417 13.0488 10.1465 12.8535C9.95122 12.6583 9.95122 12.3417 10.1465 12.1465L11.293 11H8.5C7.11929 11 6 9.88071 6 8.5V6.5C6 5.67157 5.32843 5 4.5 5H3.5C3.22386 5 3 4.77614 3 4.5C3 4.22386 3.22386 4 3.5 4H4.5ZM12.5 4C12.7761 4 13 4.22386 13 4.5C13 4.77614 12.7761 5 12.5 5H9C8.72386 5 8.5 4.77614 8.5 4.5C8.5 4.22386 8.72386 4 9 4H12.5Z" fill="black" fill-opacity="0.9"/>
</g>
</svg>
