<svg width="16" height="16" viewBox="0 0 16 16" fill="none" xmlns="http://www.w3.org/2000/svg">
<g id="icon.16.feedback">
<path id="Icon" d="M10.5 12C11.3284 12 12 11.3284 12 10.5V9.5C12 9.22386 11.7761 9 11.5 9C11.2239 9 11 9.22386 11 9.5V10.5C11 10.7761 10.7761 11 10.5 11H5.5C5.22386 11 5 10.7761 5 10.5V5.5C5 5.22386 5.22386 5 5.5 5H6.5C6.77614 5 7 4.77614 7 4.5C7 4.22386 6.77614 4 6.5 4H5.5C4.67157 4 4 4.67157 4 5.5V10.5C4 11.3284 4.67157 12 5.5 12H10.5ZM11.5 8C11.7761 8 12 7.77614 12 7.5V4H8.5C8.22386 4 8 4.22386 8 4.5C8 4.77614 8.22386 5 8.5 5H10.293L8.14648 7.14648C7.95122 7.34175 7.95122 7.65825 8.14648 7.85352C8.34175 8.04878 8.65825 8.04878 8.85352 7.85352L11 5.70703V7.5C11 7.77614 11.2239 8 11.5 8Z" fill="black" fill-opacity="0.9"/>
</g>
</svg>
