<svg width="16" height="16" viewBox="0 0 16 16" fill="none" xmlns="http://www.w3.org/2000/svg">
<g id="icon.16.autolayout.wrap.left">
<path id="Icon" d="M6.10254 9.00488C6.60667 9.05621 7 9.48232 7 10V12C7 12.5523 6.55228 13 6 13H4C3.44772 13 3 12.5523 3 12V10C3 9.44772 3.44772 9 4 9H6L6.10254 9.00488ZM4 12H6V10H4V12ZM6.10254 3.00488C6.60667 3.05621 7 3.48232 7 4V6C7 6.55228 6.55228 7 6 7H4C3.44772 7 3 6.55228 3 6V4C3 3.44772 3.44772 3 4 3H6L6.10254 3.00488ZM12.1025 3.00488C12.6067 3.05621 13 3.48232 13 4V6C13 6.55228 12.5523 7 12 7H10C9.44772 7 9 6.55228 9 6V4C9 3.44772 9.44772 3 10 3H12L12.1025 3.00488ZM4 6H6V4H4V6ZM10 6H12V4H10V6Z" fill="black" fill-opacity="0.9"/>
</g>
</svg>
