<svg width="16" height="16" viewBox="0 0 16 16" fill="none" xmlns="http://www.w3.org/2000/svg">
<g id="icon.16.linkedobject">
<path id="Icon" d="M8.73242 10.7324C8.9276 10.5373 9.2442 10.5374 9.43945 10.7324C9.63427 10.9277 9.6345 11.2443 9.43945 11.4395C8.85384 12.0251 8.85402 12.9748 9.43945 13.5605C10.0252 14.146 10.9749 14.1462 11.5605 13.5605C11.7557 13.3655 12.0723 13.3658 12.2676 13.5605C12.4625 13.7558 12.4626 14.0724 12.2676 14.2676C11.2914 15.2437 9.70874 15.2435 8.73242 14.2676C7.75646 13.2913 7.75628 11.7086 8.73242 10.7324ZM11.5 3C12.3284 3 13 3.67157 13 4.5V6.5C13 6.77614 12.7761 7 12.5 7C12.2239 7 12 6.77614 12 6.5V4.5C12 4.22386 11.7761 4 11.5 4H4.5C4.22386 4 4 4.22386 4 4.5V11.5C4 11.7761 4.22386 12 4.5 12H6.5C6.77614 12 7 12.2239 7 12.5C7 12.7761 6.77614 13 6.5 13H4.5L4.34668 12.9922C3.64069 12.9205 3.07949 12.3593 3.00781 11.6533L3 11.5V4.5C3 3.67157 3.67157 3 4.5 3H11.5ZM12.1465 10.1465C12.3417 9.95131 12.6582 9.95148 12.8535 10.1465C13.0485 10.3418 13.0487 10.6583 12.8535 10.8535L10.8535 12.8535C10.6583 13.0487 10.3418 13.0485 10.1465 12.8535C9.95148 12.6582 9.95131 12.3417 10.1465 12.1465L12.1465 10.1465ZM10.7324 8.73242C11.7086 7.75628 13.2913 7.75646 14.2676 8.73242C15.2435 9.70874 15.2437 11.2914 14.2676 12.2676C14.0724 12.4626 13.7558 12.4625 13.5605 12.2676C13.3658 12.0723 13.3655 11.7557 13.5605 11.5605C14.1462 10.9749 14.146 10.0252 13.5605 9.43945C12.9748 8.85402 12.0251 8.85384 11.4395 9.43945C11.2443 9.6345 10.9277 9.63427 10.7324 9.43945C10.5374 9.2442 10.5373 8.9276 10.7324 8.73242Z" fill="black" fill-opacity="0.9"/>
</g>
</svg>
