<svg width="16" height="16" viewBox="0 0 16 16" fill="none" xmlns="http://www.w3.org/2000/svg">
<g id="icon.16.mobile">
<path id="Icon" d="M10 2C11.1046 2 12 2.89543 12 4V12L11.9893 12.2041C11.887 13.2128 11.0357 14 10 14H6C4.96435 14 4.113 13.2128 4.01074 12.2041L4 12V4C4 2.89543 4.89543 2 6 2H10ZM6 3C5.48232 3 5.05621 3.39333 5.00488 3.89746L5 4V12C5 12.5523 5.44772 13 6 13H10C10.5523 13 11 12.5523 11 12V4C11 3.44772 10.5523 3 10 3H6ZM8 11C8.27614 11 8.5 11.2239 8.5 11.5C8.5 11.7761 8.27614 12 8 12C7.72386 12 7.5 11.7761 7.5 11.5C7.5 11.2239 7.72386 11 8 11ZM8.5 4C8.77614 4 9 4.22386 9 4.5C9 4.77614 8.77614 5 8.5 5H7.5C7.22386 5 7 4.77614 7 4.5C7 4.22386 7.22386 4 7.5 4H8.5Z" fill="black" fill-opacity="0.9"/>
</g>
</svg>
