<svg width="16" height="16" viewBox="0 0 16 16" fill="none" xmlns="http://www.w3.org/2000/svg">
<g id="icon.16.variable.color">
<path id="Icon" d="M8 2C11.3137 2 14 4.68629 14 8C14 9.26604 12.8933 10 11.8926 10H10.5C10.2239 10 10 10.2239 10 10.5V11.8926C10 12.8933 9.26604 14 8 14C4.68629 14 2 11.3137 2 8C2 4.68629 4.68629 2 8 2ZM8 3C5.23858 3 3 5.23858 3 8C3 10.7614 5.23858 13 8 13C8.58576 13 9 12.4783 9 11.8926V10.5C9 9.67157 9.67157 9 10.5 9H11.8926C12.4783 9 13 8.58576 13 8C13 5.23858 10.7614 3 8 3ZM5 8.63379C5.47825 8.35769 6.09004 8.52181 6.36621 9C6.64235 9.47829 6.47829 10.0901 6 10.3662C5.52173 10.6422 4.90991 10.4782 4.63379 10C4.35787 9.52175 4.5218 8.90988 5 8.63379ZM5.5 5.5C6.05228 5.5 6.5 5.94772 6.5 6.5C6.49997 7.05226 6.05227 7.5 5.5 7.5C4.94776 7.49997 4.50003 7.05224 4.5 6.5C4.5 5.94773 4.94774 5.50003 5.5 5.5ZM10.0977 5.63379C10.5759 5.35767 11.1877 5.52179 11.4639 6C11.74 6.47829 11.5759 7.09007 11.0977 7.36621C10.6195 7.642 10.0085 7.47804 9.73242 7C9.45632 6.52179 9.61954 5.91 10.0977 5.63379ZM8 4C8.55228 4 9 4.44772 9 5C9 5.55228 8.55228 6 8 6C7.44772 6 7 5.55228 7 5C7 4.44772 7.44772 4 8 4Z" fill="black" fill-opacity="0.9"/>
</g>
</svg>
