<svg width="16" height="16" viewBox="0 0 16 16" fill="none" xmlns="http://www.w3.org/2000/svg">
<g id="icon.16.tablet">
<path id="Icon" d="M11.5 2C12.3284 2 13 2.67157 13 3.5V12.5C13 13.3284 12.3284 14 11.5 14H4.5L4.34668 13.9922C3.59028 13.9154 3 13.2767 3 12.5V3.5C3 2.67157 3.67157 2 4.5 2H11.5ZM4.5 3C4.22386 3 4 3.22386 4 3.5V12.5C4 12.7761 4.22386 13 4.5 13H11.5C11.7761 13 12 12.7761 12 12.5V3.5C12 3.25829 11.8286 3.05629 11.6006 3.00977L11.5 3H4.5ZM8 11C8.27614 11 8.5 11.2239 8.5 11.5C8.5 11.7761 8.27614 12 8 12C7.72386 12 7.5 11.7761 7.5 11.5C7.5 11.2239 7.72386 11 8 11Z" fill="black" fill-opacity="0.9"/>
</g>
</svg>
