<svg width="16" height="16" viewBox="0 0 16 16" fill="none" xmlns="http://www.w3.org/2000/svg">
<g id="icon.16.slides">
<path id="Icon" d="M12.2041 3.01074C13.2128 3.113 14 3.96435 14 5V10C14 11.0357 13.2128 11.887 12.2041 11.9893L12 12H11.5664L11.9785 13.3545C12.0588 13.6186 11.9096 13.8981 11.6455 13.9785C11.3814 14.0588 11.1019 13.9096 11.0215 13.6455L10.5205 12H5.47949L4.97852 13.6455C4.89813 13.9096 4.61859 14.0588 4.35449 13.9785C4.09043 13.8981 3.94119 13.6186 4.02148 13.3545L4.43359 12H4C2.96435 12 2.113 11.2128 2.01074 10.2041L2 10V5C2 3.89543 2.89543 3 4 3H12L12.2041 3.01074ZM4 4C3.44772 4 3 4.44772 3 5V10C3 10.5523 3.44772 11 4 11H12C12.5523 11 13 10.5523 13 10V5C13 4.48232 12.6067 4.05621 12.1025 4.00488L12 4H4ZM5 8C5.55228 8 6 8.44772 6 9C6 9.55228 5.55228 10 5 10C4.44772 10 4 9.55228 4 9C4 8.44772 4.44772 8 5 8ZM5 5C5.55228 5 6 5.44772 6 6C6 6.55228 5.55228 7 5 7C4.44772 7 4 6.55228 4 6C4 5.44772 4.44772 5 5 5Z" fill="black" fill-opacity="0.9"/>
</g>
</svg>
