<svg width="16" height="16" viewBox="0 0 16 16" fill="none" xmlns="http://www.w3.org/2000/svg">
<g id="icon.16.widget">
<path id="Icon" d="M6.93896 1.98978C7.52475 1.40399 8.47525 1.40399 9.06104 1.98978L10.0708 3.00052H11.5005C12.3287 3.00076 13.0005 3.67224 13.0005 4.50052V5.92923L14.0103 6.939C14.596 7.52478 14.596 8.47528 14.0103 9.06107L13.0005 10.0708V11.5005C13.0002 12.3286 12.3286 13.0003 11.5005 13.0005H10.0708L9.06104 14.0103C8.47525 14.5961 7.52475 14.5961 6.93896 14.0103L5.9292 13.0005H4.50049C3.67222 13.0005 3.00074 12.3287 3.00049 11.5005V10.0708L1.98975 9.06107C1.40396 8.47528 1.40396 7.52478 1.98975 6.939L3.00049 5.92923V4.50052C3.00049 3.67209 3.67206 3.00052 4.50049 3.00052H5.9292L6.93896 1.98978ZM8.354 2.69681C8.15882 2.50162 7.84225 2.50177 7.64697 2.69681L6.34326 4.00052H4.50049C4.22435 4.00052 4.00049 4.22438 4.00049 4.50052V6.34329L2.69678 7.647C2.50174 7.84228 2.50159 8.15885 2.69678 8.35403L3.70752 9.3638L4.00049 9.65677V11.5005C4.00074 11.7764 4.2245 12.0005 4.50049 12.0005H6.34326L6.63623 12.2925L7.64697 13.3033C7.84225 13.4983 8.1588 13.4985 8.354 13.3033L9.36377 12.2925L9.65674 12.0005H11.5005C11.7763 12.0003 12.0002 11.7763 12.0005 11.5005V9.65677L12.2925 9.3638L13.3032 8.35403C13.4984 8.15883 13.4983 7.84228 13.3032 7.647L12.2925 6.63626L12.0005 6.34329V4.50052C12.0005 4.22453 11.7764 4.00076 11.5005 4.00052H9.65674L9.36377 3.70755L8.354 2.69681ZM7.52588 4.84232C7.6132 4.58034 7.89672 4.43859 8.15869 4.52591C8.42029 4.61346 8.56236 4.89695 8.4751 5.15872L7.69482 7.50052H9.00049C9.16103 7.50068 9.31188 7.57827 9.40576 7.70853C9.49937 7.83882 9.52584 8.00649 9.4751 8.15872L8.4751 11.1587C8.38773 11.4203 8.104 11.562 7.84229 11.4751C7.58041 11.3878 7.43876 11.1042 7.52588 10.8423L8.30615 8.50052H7.00049C6.83999 8.50052 6.68922 8.42256 6.59521 8.29251C6.50134 8.16222 6.4752 7.99468 6.52588 7.84232L7.52588 4.84232Z" fill="black" fill-opacity="0.9"/>
</g>
</svg>
