<svg width="16" height="16" viewBox="0 0 16 16" fill="none" xmlns="http://www.w3.org/2000/svg">
<g id="icon.16.figjam">
<path id="Icon" d="M2.79297 2.79297C3.02939 2.55655 3.36843 2.45397 3.69629 2.51953L6.19629 3.01953C6.3898 3.05827 6.56748 3.15342 6.70703 3.29297L12.8535 9.43945C13.4393 10.0252 13.4393 10.9748 12.8535 11.5605L11.5605 12.8535C11.0114 13.4026 10.1429 13.4365 9.55371 12.9561L9.43945 12.8535L3.29297 6.70703C3.15342 6.56748 3.05827 6.3898 3.01953 6.19629L2.51953 3.69629C2.45397 3.36843 2.55655 3.02939 2.79297 2.79297ZM5.35352 7.35352L10.1465 12.1465C10.3417 12.3417 10.6583 12.3417 10.8535 12.1465L12.1465 10.8535L12.2109 10.7754C12.3391 10.5813 12.3173 10.3173 12.1465 10.1465L7.35352 5.35352L5.35352 7.35352ZM4 6L4.64648 6.64648L6.64648 4.64648L6 4L3.5 3.5L4 6Z" fill="black" fill-opacity="0.9"/>
</g>
</svg>
