<svg width="16" height="16" viewBox="0 0 16 16" fill="none" xmlns="http://www.w3.org/2000/svg">
<g id="icon.16.highlights">
<path id="Icon" d="M8 2C11.3137 2 14 4.68629 14 8C14 11.3137 11.3137 14 8 14H7.5C7.22386 14 7 13.7761 7 13.5V12.8994C4.71781 12.4361 3 10.4189 3 8C3 5.58101 4.71772 3.56285 7 3.09961V2.5C7 2.22386 7.22386 2 7.5 2H8ZM8 13C10.7614 13 13 10.7614 13 8C13 5.23858 10.7614 3 8 3V13ZM7 4.12598C5.27477 4.57002 4 6.13616 4 8C4 9.86384 5.27477 11.43 7 11.874V4.12598Z" fill="black" fill-opacity="0.9"/>
</g>
</svg>
