<svg width="16" height="16" viewBox="0 0 16 16" fill="none" xmlns="http://www.w3.org/2000/svg">
<g id="icon.16.notes.on.rectangle.small">
<path id="Icon" d="M8.5 4C9.32843 4 10 4.67157 10 5.5V6H10.5C11.3284 6 12 6.67157 12 7.5V9.5L11.9922 9.65332C11.9154 10.4097 11.2767 11 10.5 11H7.5C6.72334 11 6.08461 10.4097 6.00781 9.65332L6 9.5V9H5.5C4.72334 9 4.08461 8.40972 4.00781 7.65332L4 7.5V5.5C4 4.67157 4.67157 4 5.5 4H8.5ZM7.5 7C7.22386 7 7 7.22386 7 7.5V9.5C7 9.77614 7.22386 10 7.5 10H10.5C10.7761 10 11 9.77614 11 9.5V7.5C11 7.22386 10.7761 7 10.5 7H7.5ZM9.5 8C9.77614 8 10 8.22386 10 8.5C10 8.77614 9.77614 9 9.5 9H8.5C8.22386 9 8 8.77614 8 8.5C8 8.22386 8.22386 8 8.5 8H9.5ZM5.5 5C5.22386 5 5 5.22386 5 5.5V7.5C5 7.77614 5.22386 8 5.5 8H6V7.5C6 6.67157 6.67157 6 7.5 6H9V5.5C9 5.22386 8.77614 5 8.5 5H5.5Z" fill="black" fill-opacity="0.9"/>
</g>
</svg>
