<svg width="16" height="16" viewBox="0 0 16 16" fill="none" xmlns="http://www.w3.org/2000/svg">
<g id="icon.16.exposure">
<path id="Icon" d="M7.99902 1.75C8.27517 1.75 8.49902 1.97386 8.49902 2.25V3.52734C8.5134 3.52893 8.52765 3.53148 8.54199 3.5332C8.61781 3.54231 8.69296 3.55358 8.76758 3.56641C8.79431 3.571 8.82109 3.57501 8.84766 3.58008C8.94081 3.59784 9.033 3.6182 9.12402 3.6416C9.13711 3.64497 9.15005 3.64886 9.16309 3.65234C9.24549 3.67433 9.32676 3.69911 9.40723 3.72559C9.42347 3.73093 9.43989 3.73569 9.45605 3.74121C9.54652 3.77213 9.63587 3.80538 9.72363 3.8418C9.73615 3.84699 9.74828 3.85309 9.76074 3.8584C9.83975 3.89203 9.91753 3.92788 9.99414 3.96582C10.0095 3.97345 10.0247 3.98146 10.04 3.98926C10.204 4.07284 10.362 4.16621 10.5137 4.26855C10.5358 4.28351 10.5582 4.29814 10.5801 4.31348C10.6529 4.36455 10.7244 4.41746 10.7939 4.47266C10.7981 4.47597 10.8025 4.47909 10.8066 4.48242L11.709 3.58008C11.9042 3.38489 12.2207 3.38504 12.416 3.58008C12.6113 3.77534 12.6113 4.09185 12.416 4.28711L11.5137 5.18848C11.5772 5.2678 11.6372 5.35001 11.6953 5.43359C11.698 5.43745 11.7005 5.44145 11.7031 5.44531C12.1151 6.04138 12.3867 6.74103 12.4707 7.49805L13.7471 7.49902C14.0232 7.49902 14.2471 7.72288 14.2471 7.99902C14.2468 8.27494 14.023 8.49902 13.7471 8.49902L12.4717 8.49805C12.376 9.36664 12.0328 10.1598 11.5146 10.8076L12.416 11.71C12.6113 11.9052 12.6113 12.2217 12.416 12.417C12.2207 12.612 11.9042 12.6122 11.709 12.417L10.8086 11.5156C10.5695 11.7069 10.3105 11.8738 10.0352 12.0137C10.0278 12.0174 10.0201 12.0207 10.0127 12.0244C9.92821 12.0667 9.8423 12.1065 9.75488 12.1436C9.74548 12.1475 9.736 12.1514 9.72656 12.1553C9.6353 12.1932 9.54243 12.2278 9.44824 12.2598C9.44103 12.2622 9.43399 12.2652 9.42676 12.2676C9.23452 12.3318 9.03679 12.3839 8.83398 12.4219C8.82137 12.4242 8.80855 12.4255 8.7959 12.4277C8.69792 12.4452 8.59909 12.4606 8.49902 12.4717V13.7471C8.49902 14.0232 8.27517 14.2471 7.99902 14.2471C7.72308 14.2468 7.49902 14.0231 7.49902 13.7471V12.4707C6.63086 12.3745 5.83781 12.032 5.19043 11.5137L4.28906 12.417C4.09381 12.6122 3.7773 12.6122 3.58203 12.417C3.38677 12.2217 3.38677 11.9052 3.58203 11.71L4.4834 10.8066C4.48007 10.8025 4.47695 10.7981 4.47363 10.7939C4.3551 10.6445 4.24654 10.4872 4.14746 10.3232C4.13605 10.3044 4.12442 10.2856 4.11328 10.2666C4.02041 10.1077 3.93645 9.94301 3.86328 9.77246C3.85379 9.75037 3.84411 9.72833 3.83496 9.70605C3.76242 9.52915 3.70118 9.34654 3.65137 9.15918C3.64781 9.14583 3.64406 9.13254 3.64062 9.11914C3.61723 9.02772 3.59583 8.93536 3.57812 8.8418C3.57353 8.81754 3.57061 8.79295 3.56641 8.76855C3.5529 8.69008 3.54064 8.61106 3.53125 8.53125C3.52995 8.52019 3.52856 8.50913 3.52734 8.49805H2.25C1.97406 8.49781 1.75 8.27404 1.75 7.99805C1.75026 7.72228 1.97422 7.49828 2.25 7.49805H3.52832C3.56309 7.18478 3.62987 6.88131 3.72559 6.59082C3.73354 6.56664 3.74165 6.54255 3.75 6.51855C3.81268 6.33871 3.88568 6.16374 3.96973 5.99512C3.97959 5.97529 3.99083 5.95618 4.00098 5.93652C4.03388 5.87289 4.06771 5.80987 4.10352 5.74805C4.11616 5.72619 4.1286 5.70423 4.1416 5.68262C4.18674 5.60762 4.2339 5.53398 4.2832 5.46191C4.29769 5.44073 4.31329 5.42034 4.32812 5.39941C4.37017 5.34016 4.41321 5.2817 4.45801 5.22461C4.46689 5.21329 4.47539 5.20166 4.48438 5.19043L3.58203 4.28711C3.38677 4.09185 3.38677 3.77534 3.58203 3.58008C3.77732 3.38508 4.09389 3.38491 4.28906 3.58008L5.19238 4.4834C5.19925 4.47791 5.20599 4.47225 5.21289 4.4668C5.27784 4.41549 5.34434 4.36609 5.41211 4.31836C5.42702 4.30786 5.44199 4.29743 5.45703 4.28711C5.61747 4.17701 5.78546 4.0772 5.95996 3.98828C5.96943 3.98346 5.97877 3.97839 5.98828 3.97363C6.16118 3.88708 6.34068 3.8121 6.52539 3.74805C6.54483 3.74131 6.56442 3.73499 6.58398 3.72852C6.77407 3.66553 6.96955 3.61452 7.16992 3.57715C7.17544 3.57612 7.18099 3.57523 7.18652 3.57422C7.28572 3.5561 7.38595 3.54079 7.4873 3.5293C7.4912 3.52886 7.49513 3.52875 7.49902 3.52832V2.25C7.49902 1.974 7.72308 1.75024 7.99902 1.75ZM7.5 4.53516C6.96737 4.61134 6.47293 4.80693 6.0459 5.09473C5.8868 5.20197 5.73769 5.32286 5.59863 5.4541C5.35951 5.67973 5.15252 5.9388 4.98438 6.22363C4.88855 6.38599 4.80532 6.55658 4.73633 6.73438C4.58399 7.12693 4.5 7.55362 4.5 8C4.5 8.44606 4.5842 8.87233 4.73633 9.26465C4.92031 9.73896 5.20473 10.1627 5.56348 10.5107C5.57157 10.5186 5.57972 10.5264 5.58789 10.5342C5.80009 10.7361 6.03732 10.9117 6.29492 11.0557C6.30472 11.0611 6.31436 11.0669 6.32422 11.0723C6.58949 11.2172 6.87546 11.3287 7.17676 11.4014C7.28277 11.4269 7.39047 11.4482 7.5 11.4639V4.53516ZM8.5 11.4639C8.60921 11.4482 8.71655 11.4268 8.82227 11.4014C9.12361 11.3288 9.40947 11.2171 9.6748 11.0723C9.68466 11.0669 9.6943 11.0611 9.7041 11.0557C9.96178 10.9117 10.1989 10.7361 10.4111 10.5342C10.4193 10.5264 10.4274 10.5186 10.4355 10.5107C10.7944 10.1627 11.0786 9.73905 11.2627 9.26465C11.4149 8.87224 11.5 8.44618 11.5 8C11.5 7.5535 11.4151 7.12702 11.2627 6.73438C11.1937 6.55654 11.1105 6.38601 11.0146 6.22363C10.8464 5.93876 10.6396 5.67973 10.4004 5.4541C10.2613 5.32287 10.1123 5.20195 9.95312 5.09473C9.52624 4.80718 9.03235 4.6113 8.5 4.53516V11.4639Z" fill="black" fill-opacity="0.9"/>
</g>
</svg>
