<svg width="16" height="16" viewBox="0 0 16 16" fill="none" xmlns="http://www.w3.org/2000/svg">
<g id="icon.16.contrast">
<path id="Icon" d="M8 2C11.3137 2 14 4.68629 14 8C14 11.3137 11.3137 14 8 14C4.68629 14 2 11.3137 2 8C2 4.68629 4.68629 2 8 2ZM4.12988 4.83301C3.42344 5.69527 3 6.79833 3 8C3 10.7614 5.23858 13 8 13C9.20162 13 10.3038 12.5755 11.166 11.8691C11.1599 11.8636 11.1524 11.8594 11.1465 11.8535L4.14648 4.85352C4.14023 4.84727 4.13573 4.8395 4.12988 4.83301ZM8 3C6.79833 3 5.69527 3.42344 4.83301 4.12988C4.8395 4.13573 4.84727 4.14023 4.85352 4.14648L11.8535 11.1465C11.8594 11.1524 11.8636 11.1599 11.8691 11.166C12.5755 10.3038 13 9.20162 13 8C13 5.23858 10.7614 3 8 3ZM7 9.5C7.27614 9.5 7.5 9.72386 7.5 10C7.5 10.2761 7.27614 10.5 7 10.5H5C4.72386 10.5 4.5 10.2761 4.5 10C4.5 9.72386 4.72386 9.5 5 9.5H7ZM10 4.5C10.2761 4.5 10.5 4.72386 10.5 5V5.5H11C11.2761 5.5 11.5 5.72386 11.5 6C11.5 6.27614 11.2761 6.5 11 6.5H10.5V7C10.5 7.27614 10.2761 7.5 10 7.5C9.72386 7.5 9.5 7.27614 9.5 7V6.5H9C8.72386 6.5 8.5 6.27614 8.5 6C8.5 5.72386 8.72386 5.5 9 5.5H9.5V5C9.5 4.72386 9.72386 4.5 10 4.5Z" fill="black" fill-opacity="0.9"/>
</g>
</svg>
