<svg width="16" height="16" viewBox="0 0 16 16" fill="none" xmlns="http://www.w3.org/2000/svg">
<g id="icon.16.reset">
<path id="Icon" d="M5.64648 2.14648C5.84175 1.95122 6.15825 1.95122 6.35352 2.14648C6.54878 2.34175 6.54878 2.65825 6.35352 2.85352L5.20703 4H8.5C11.2614 4 13.5 6.23858 13.5 9C13.5 11.7614 11.2614 14 8.5 14C5.73858 14 3.5 11.7614 3.5 9C3.5 8.72386 3.72386 8.5 4 8.5C4.27614 8.5 4.5 8.72386 4.5 9C4.5 11.2091 6.29086 13 8.5 13C10.7091 13 12.5 11.2091 12.5 9C12.5 6.79086 10.7091 5 8.5 5H5.20703L6.35352 6.14648C6.54878 6.34175 6.54878 6.65825 6.35352 6.85352C6.15825 7.04878 5.84175 7.04878 5.64648 6.85352L3.64648 4.85352C3.45122 4.65825 3.45122 4.34175 3.64648 4.14648L5.64648 2.14648Z" fill="black" fill-opacity="0.9"/>
</g>
</svg>
