<svg width="16" height="16" viewBox="0 0 16 16" fill="none" xmlns="http://www.w3.org/2000/svg">
<g id="icon.16.autolayout.horizontal.bottom">
<path id="Icon" d="M6.10254 3.00488C6.60667 3.05621 7 3.48232 7 4V12L6.99512 12.1025C6.94379 12.6067 6.51768 13 6 13H4C3.48232 13 3.05621 12.6067 3.00488 12.1025L3 12V4C3 3.44772 3.44772 3 4 3H6L6.10254 3.00488ZM12 7C12.5523 7 13 7.44772 13 8V12L12.9951 12.1025C12.9438 12.6067 12.5177 13 12 13H10C9.48232 13 9.05621 12.6067 9.00488 12.1025L9 12V8C9 7.44772 9.44772 7 10 7H12ZM4 12H6V4H4V12ZM10 12H12V8H10V12Z" fill="black" fill-opacity="0.9"/>
</g>
</svg>
