<svg width="16" height="16" viewBox="0 0 16 16" fill="none" xmlns="http://www.w3.org/2000/svg">
<g id="icon.16.rating">
<path id="Icon" d="M7.35078 2.33508C7.65274 1.80246 8.47395 1.84026 8.70234 2.44836L9.84687 5.50012H13.2404C13.9638 5.50064 14.267 6.42412 13.6848 6.85364L10.8635 8.93372L11.7971 12.0206C12.0028 12.7011 11.2342 13.2595 10.6506 12.8536L8.00019 11.0089L5.3498 12.8536C4.76614 13.2598 3.99747 12.7012 4.20332 12.0206L5.13593 8.93372L2.31562 6.85364C1.7332 6.4241 2.03644 5.50048 2.75996 5.50012H6.15351L7.29804 2.44836L7.35078 2.33508ZM7.02949 6.01379C6.91972 6.30621 6.63965 6.49988 6.32734 6.50012H3.5207L5.87226 8.2345C6.12752 8.42287 6.23659 8.75212 6.14472 9.05579L5.36836 11.6222L7.57148 10.089C7.79677 9.93226 8.08691 9.91284 8.32832 10.0304L8.4289 10.089L10.6311 11.6222L9.85566 9.05579C9.76377 8.75205 9.87273 8.42285 10.1281 8.2345L12.4797 6.50012H9.67304C9.3607 6.49996 9.08072 6.30619 8.9709 6.01379L8.00019 3.42493L7.02949 6.01379Z" fill="black" fill-opacity="0.9"/>
</g>
</svg>
