<svg width="16" height="16" viewBox="0 0 16 16" fill="none" xmlns="http://www.w3.org/2000/svg">
<g id="icon.16.link">
<path id="Icon" d="M9.06056 10.4749C9.25582 10.6702 9.25582 10.9868 9.06056 11.182L7.9999 12.2427C6.82831 13.4142 4.92879 13.4142 3.75725 12.2427C2.58573 11.0712 2.58579 9.17163 3.75725 8.00005L4.81792 6.93939C5.01317 6.74414 5.32976 6.74414 5.52502 6.93939C5.72028 7.13466 5.72028 7.45124 5.52502 7.6465L4.46436 8.70716C3.68342 9.48821 3.68336 10.7546 4.46436 11.5356C5.24538 12.3166 6.51173 12.3165 7.29279 11.5356L8.35345 10.4749C8.54871 10.2797 8.86529 10.2797 9.06056 10.4749ZM9.76766 6.23229C9.96292 6.42755 9.96292 6.74413 9.76766 6.93939L6.93924 9.76782C6.74397 9.963 6.42736 9.96306 6.23213 9.76782C6.03696 9.57258 6.03697 9.25596 6.23213 9.06071L9.06056 6.23229C9.2558 6.03705 9.57239 6.03709 9.76766 6.23229ZM12.2425 3.75741C13.4141 4.92899 13.4141 6.82848 12.2425 8.00005L11.1819 9.06071C10.9866 9.25598 10.67 9.25598 10.4748 9.06071C10.2795 8.86545 10.2795 8.54887 10.4748 8.35361L11.5354 7.29295C12.3165 6.5119 12.3165 5.24557 11.5354 4.46452C10.7544 3.68347 9.48805 3.68347 8.707 4.46452L7.64634 5.52518C7.45108 5.72044 7.1345 5.72044 6.93924 5.52518C6.74397 5.32992 6.74397 5.01334 6.93924 4.81807L7.9999 3.75741C9.17147 2.58584 11.071 2.58584 12.2425 3.75741Z" fill="black" fill-opacity="0.9"/>
</g>
</svg>
