<svg width="16" height="16" viewBox="0 0 16 16" fill="none" xmlns="http://www.w3.org/2000/svg">
<g id="icon.16.autolayout.vertical.right">
<path id="Icon" d="M3.00488 6.10254C3.05621 6.60667 3.48232 7 4 7L12 7L12.1025 6.99512C12.6067 6.94379 13 6.51768 13 6L13 4C13 3.48232 12.6067 3.05621 12.1025 3.00488L12 3L4 3C3.44772 3 3 3.44772 3 4L3 6L3.00488 6.10254ZM7 12C7 12.5523 7.44771 13 8 13L12 13L12.1025 12.9951C12.6067 12.9438 13 12.5177 13 12L13 10C13 9.48232 12.6067 9.05621 12.1025 9.00488L12 9L8 9C7.44772 9 7 9.44772 7 10L7 12ZM12 4L12 6L4 6L4 4L12 4ZM12 10L12 12L8 12L8 10L12 10Z" fill="black" fill-opacity="0.9"/>
</g>
</svg>
