<svg width="16" height="16" viewBox="0 0 16 16" fill="none" xmlns="http://www.w3.org/2000/svg">
<g id="icon.16.first.draft">
<path id="Icon" d="M6.37714 2.03516C6.63389 1.93357 6.92493 2.05967 7.02655 2.31641C7.1278 2.57304 7.00186 2.86327 6.7453 2.96484C5.71421 3.37286 4.80955 3.99698 4.04706 4.87305C2.27884 6.90505 2.95703 9.59998 4.57343 11.1338C5.44724 11.9629 6.61009 12.1556 7.78241 11.8877C7.96636 11.8457 8.1478 11.7882 8.32831 11.7246L7.06366 8.35156C6.92597 7.98439 7.01586 7.57026 7.29315 7.29297C7.57044 7.01577 7.98462 6.9258 8.35175 7.06348L11.7658 8.34375C11.9443 7.83394 12.0258 7.28815 11.9924 6.66797V6.66699C11.9242 5.56519 11.6131 4.88444 11.2209 4.47559C10.8317 4.06997 10.307 3.87424 9.69061 3.85156C8.42431 3.80516 6.89784 4.50105 5.94647 5.35352C5.74081 5.5374 5.42458 5.51995 5.24042 5.31445C5.05626 5.1088 5.0739 4.79265 5.27948 4.6084C6.36899 3.63216 8.1373 2.79311 9.72772 2.85156C10.5396 2.88143 11.3337 3.1486 11.9426 3.7832C12.4722 4.33537 12.8185 5.12128 12.9484 6.15332L12.9914 6.61035V6.61426C13.0332 7.38875 12.9223 8.06889 12.7004 8.69336L13.3517 8.93848C13.7613 9.09231 14.023 9.49486 13.9982 9.93164C13.9733 10.3686 13.6669 10.7385 13.2424 10.8447L11.3244 11.3242L10.8449 13.2422C10.7388 13.6668 10.3688 13.9731 9.93182 13.998C9.495 14.0228 9.09246 13.7612 8.93866 13.3516L8.67889 12.6611C8.45683 12.7404 8.23256 12.8103 8.00507 12.8623C6.59138 13.1854 5.05861 12.973 3.88495 11.8594C2.004 10.0745 1.07066 6.7694 3.29315 4.21582C4.16348 3.21594 5.20156 2.50038 6.37714 2.03516ZM9.87518 13L10.1428 11.9258V11.9268L10.5002 10.5L11.9465 10.1377H11.9455L13.0002 9.875L8.00018 8L9.87518 13Z" fill="black" fill-opacity="0.9"/>
</g>
</svg>
