<svg width="16" height="16" viewBox="0 0 16 16" fill="none" xmlns="http://www.w3.org/2000/svg">
<g id="icon.16.string">
<path id="Icon" d="M11.5 13C12.3284 13 13 12.3284 13 11.5V4.5C13 3.67157 12.3284 3 11.5 3H4.5C3.67157 3 3 3.67157 3 4.5V11.5C3 12.3284 3.67157 13 4.5 13H11.5ZM4.5 12C4.22386 12 4 11.7761 4 11.5V4.5C4 4.22386 4.22386 4 4.5 4H11.5C11.7761 4 12 4.22386 12 4.5V11.5C12 11.7761 11.7761 12 11.5 12H4.5ZM8.5 10C8.77614 10 9 9.77614 9 9.5C9 9.22386 8.77614 9 8.5 9V7H9C9 7.27614 9.22386 7.5 9.5 7.5C9.77614 7.5 10 7.27614 10 7V6.5C10 6.22386 9.77614 6 9.5 6H6.5C6.22386 6 6 6.22386 6 6.5V7C6 7.27614 6.22386 7.5 6.5 7.5C6.77614 7.5 7 7.27614 7 7H7.5V9C7.22386 9 7 9.22386 7 9.5C7 9.77614 7.22386 10 7.5 10H8.5Z" fill="black" fill-opacity="0.9"/>
</g>
</svg>
