<svg width="16" height="16" viewBox="0 0 16 16" fill="none" xmlns="http://www.w3.org/2000/svg">
<g id="icon.16.desktop">
<path id="Icon" d="M13.6006 3.00977C13.8286 3.05629 14 3.25829 14 3.5V10.5C14 10.7417 13.8286 10.9437 13.6006 10.9902L13.5 11H10V12H10.5C10.7761 12 11 12.2239 11 12.5C11 12.7761 10.7761 13 10.5 13H5.5C5.22386 13 5 12.7761 5 12.5C5 12.2239 5.22386 12 5.5 12H6V11H2.5C2.22386 11 2 10.7761 2 10.5V3.5C2 3.22386 2.22386 3 2.5 3H13.5L13.6006 3.00977ZM7 11V12H9V11H7ZM3 10H13V4H3V10Z" fill="black" fill-opacity="0.9"/>
</g>
</svg>
