<svg width="16" height="16" viewBox="0 0 16 16" fill="none" xmlns="http://www.w3.org/2000/svg">
<g id="icon.16.shape.text">
<path id="Icon" d="M11.5 3C12.3284 3 13 3.67157 13 4.5V11.5C13 12.2767 12.4097 12.9154 11.6533 12.9922L11.5 13H4.5L4.34668 12.9922C3.64069 12.9205 3.07949 12.3593 3.00781 11.6533L3 11.5V4.5C3 3.67157 3.67157 3 4.5 3H11.5ZM4.5 4C4.22386 4 4 4.22386 4 4.5V11.5C4 11.7761 4.22386 12 4.5 12H11.5C11.7761 12 12 11.7761 12 11.5V4.5C12 4.22386 11.7761 4 11.5 4H4.5ZM10 5.5C10.2761 5.5 10.5 5.72386 10.5 6V6.5C10.5 6.77614 10.2761 7 10 7C9.72386 7 9.5 6.77614 9.5 6.5H8.5V9.5C8.77614 9.5 9 9.72386 9 10C9 10.2761 8.77614 10.5 8.5 10.5H7.5C7.22386 10.5 7 10.2761 7 10C7 9.72386 7.22386 9.5 7.5 9.5V6.5H6.5C6.5 6.77614 6.27614 7 6 7C5.72386 7 5.5 6.77614 5.5 6.5V6C5.5 5.72386 5.72386 5.5 6 5.5H10Z" fill="black" fill-opacity="0.9"/>
</g>
</svg>
