<svg width="16" height="16" viewBox="0 0 16 16" fill="none" xmlns="http://www.w3.org/2000/svg">
<g id="icon.16.approved.checkmark">
<path id="Icon" d="M8 2C11.3137 2 14 4.68629 14 8C14 11.3137 11.3137 14 8 14C4.68629 14 2 11.3137 2 8C2 4.68629 4.68629 2 8 2ZM8 3C5.23858 3 3 5.23858 3 8C3 10.7614 5.23858 13 8 13C10.7614 13 13 10.7614 13 8C13 5.23858 10.7614 3 8 3ZM9.55273 5.77637C9.67623 5.52938 9.97664 5.42924 10.2236 5.55273C10.4706 5.67623 10.5708 5.97664 10.4473 6.22363L8.44727 10.2236C8.3754 10.3674 8.2387 10.4674 8.08008 10.4932C7.92143 10.5189 7.76013 10.4672 7.64648 10.3535L5.64648 8.35352C5.45122 8.15825 5.45122 7.84175 5.64648 7.64648C5.84175 7.45122 6.15825 7.45122 6.35352 7.64648L7.8623 9.15527L9.55273 5.77637Z" fill="black" fill-opacity="0.9"/>
</g>
</svg>
