<svg width="16" height="16" viewBox="0 0 16 16" fill="none" xmlns="http://www.w3.org/2000/svg">
<g id="icon.16.design">
<g id="icon.16.pen">
<path id="Icon" d="M3.72849 3.02148C4.83924 3.13058 9.67483 3.67516 11 5C11.8888 5.88906 12.2722 7.2834 12.1123 8.59668L13.2988 9.79297C13.6863 10.1839 13.6851 10.8148 13.2959 11.2041L11.1748 13.3252C10.7831 13.7168 10.1478 13.7154 9.75778 13.3223L8.56052 12.1162C7.25777 12.2649 5.8809 11.8808 4.99997 11C3.67529 9.6749 3.13063 4.83974 3.02145 3.72852C3.00717 3.58226 3.06013 3.43987 3.16403 3.33594L3.33591 3.16406C3.4399 3.06009 3.58214 3.00711 3.72849 3.02148ZM7.74118 7.03418C7.82375 7.01211 7.91044 7 7.99997 7C8.55225 7 8.99997 7.44772 8.99997 8C8.99997 8.55228 8.55225 9 7.99997 9C7.4477 8.99998 6.99997 8.55227 6.99997 8C6.99997 7.91048 7.01208 7.82378 7.03415 7.74121L4.16306 4.87012C4.24913 5.5094 4.36996 6.29252 4.53415 7.08008C4.68675 7.81196 4.87046 8.52444 5.08688 9.11914C5.28517 9.66396 5.48019 10.0227 5.64059 10.2188L5.707 10.293C6.33122 10.917 7.38392 11.2431 8.44626 11.1221L8.92966 11.0674L9.27048 11.4121L10.4668 12.6182L12.5888 10.4971L11.4023 9.30078L11.0615 8.95703L11.1201 8.47559C11.2505 7.40457 10.9231 6.33746 10.2929 5.70703C10.1215 5.53568 9.74187 5.31348 9.11911 5.08691C8.52432 4.87054 7.81202 4.68668 7.08005 4.53418C6.29249 4.3701 5.50945 4.24898 4.87009 4.16309L7.74118 7.03418Z" fill="black" fill-opacity="0.9"/>
</g>
</g>
</svg>
