<svg width="16" height="16" viewBox="0 0 16 16" fill="none" xmlns="http://www.w3.org/2000/svg">
<g id="icon.16.refresh">
<path id="Icon" d="M13 8C13.2761 8.00001 13.5023 8.22498 13.4775 8.5C13.2249 11.3032 10.869 13.5 8 13.5C6.42307 13.5 5.00286 12.8347 4 11.7715V13C4 13.2761 3.77614 13.5 3.5 13.5C3.22386 13.5 3 13.2761 3 13V10.5C3 10.2239 3.22386 10 3.5 10H6C6.27614 10 6.5 10.2239 6.5 10.5C6.5 10.7761 6.27614 11 6 11H4.64844C5.47238 11.9199 6.66788 12.5 8 12.5C10.3165 12.5 12.2243 10.7494 12.4727 8.49902C12.503 8.22463 12.7239 8 13 8ZM12.5 2.5C12.7761 2.5 13 2.72386 13 3V5.5C13 5.77614 12.7761 6 12.5 6H10C9.72386 6 9.5 5.77614 9.5 5.5C9.5 5.22386 9.72386 5 10 5H11.3516C10.5276 4.08012 9.33212 3.50001 8 3.5C5.68345 3.5 3.7757 5.25062 3.52734 7.50098C3.49698 7.77537 3.27607 7.99999 3 8C2.72386 8 2.4977 7.77503 2.52246 7.5C2.77508 4.69675 5.13098 2.5 8 2.5C9.57667 2.50001 10.9972 3.1646 12 4.22754V3C12 2.72386 12.2239 2.5 12.5 2.5Z" fill="black" fill-opacity="0.9"/>
</g>
</svg>
