<svg width="16" height="16" viewBox="0 0 16 16" fill="none" xmlns="http://www.w3.org/2000/svg">
<g id="icon.16.publish">
<path id="Icon" d="M8.18446 4.30579C9.60952 3.45076 11.3903 3.45076 12.8153 4.30579L13.2567 4.57141C13.2591 4.57285 13.2612 4.57482 13.2636 4.57629C13.2824 4.58805 13.2992 4.60225 13.3163 4.61633C13.3251 4.6236 13.3344 4.63005 13.3427 4.63782C13.3583 4.65262 13.372 4.66897 13.3856 4.68567C13.3924 4.69395 13.4 4.70143 13.4061 4.71008C13.4174 4.72578 13.4261 4.74291 13.4354 4.75989C13.4421 4.77206 13.4503 4.78338 13.4559 4.79602C13.4635 4.81299 13.4688 4.83085 13.4745 4.84875C13.4781 4.86009 13.4815 4.87138 13.4843 4.88293C13.4883 4.89959 13.4908 4.91646 13.4931 4.93372C13.4953 4.95061 13.4974 4.9674 13.4979 4.9845C13.4981 4.98965 13.4999 4.99493 13.4999 5.00012V12.0001C13.4999 12.0103 13.4976 12.0203 13.497 12.0304C13.4959 12.0481 13.4941 12.0655 13.4911 12.0831C13.488 12.1018 13.4836 12.1199 13.4784 12.1378C13.4745 12.1513 13.4708 12.1646 13.4657 12.1779C13.4589 12.1956 13.45 12.212 13.4413 12.2286C13.4365 12.2379 13.4341 12.2489 13.4286 12.2579C13.4265 12.2615 13.423 12.2642 13.4208 12.2677C13.4139 12.2786 13.4061 12.2887 13.3983 12.299C13.3857 12.3159 13.3727 12.3319 13.3583 12.3468C13.3504 12.3549 13.3413 12.3617 13.3329 12.3693C13.3162 12.3843 13.2995 12.3987 13.2811 12.4113C13.2752 12.4153 13.2687 12.4182 13.2626 12.422C13.2427 12.4343 13.2233 12.4468 13.202 12.4562C13.1897 12.4616 13.1768 12.4654 13.164 12.4698C13.1449 12.4765 13.126 12.4832 13.1063 12.4874C13.0961 12.4897 13.0855 12.4897 13.0751 12.4913C13.0546 12.4944 13.0343 12.4976 13.0136 12.4982C13.009 12.4983 13.0045 12.5001 12.9999 12.5001C12.9893 12.5001 12.979 12.4969 12.9686 12.4962C12.9497 12.495 12.9309 12.4938 12.912 12.4904C12.8967 12.4876 12.8819 12.4837 12.8671 12.4796C12.8523 12.4755 12.8376 12.4715 12.8231 12.4659C12.8044 12.4588 12.787 12.4498 12.7694 12.4406C12.761 12.4361 12.7513 12.4338 12.7431 12.4288L12.3007 12.1642C11.1922 11.499 9.80758 11.499 8.69911 12.1642L8.25673 12.4288C8.23706 12.4406 8.2169 12.4512 8.19618 12.4601C8.19212 12.4618 8.18759 12.4624 8.18348 12.464C8.16086 12.4729 8.13757 12.479 8.11415 12.4845C8.10538 12.4866 8.09672 12.4888 8.08778 12.4904C8.02916 12.5009 7.96962 12.501 7.91102 12.4904C7.90209 12.4887 7.89341 12.4866 7.88465 12.4845C7.86384 12.4795 7.84333 12.4736 7.82313 12.4659C7.81324 12.4622 7.80341 12.4586 7.79383 12.4542C7.77671 12.4464 7.75943 12.4386 7.74305 12.4288L7.30067 12.1642C6.19223 11.4991 4.80755 11.4991 3.69911 12.1642L3.25673 12.4288C3.24818 12.4339 3.23809 12.436 3.22938 12.4406C3.2118 12.4497 3.19441 12.4589 3.17567 12.4659C3.16056 12.4717 3.14515 12.4754 3.12977 12.4796C3.11614 12.4833 3.10282 12.4878 3.08876 12.4904C3.06925 12.4939 3.04976 12.495 3.03016 12.4962C3.02013 12.4968 3.01007 12.5001 2.99989 12.5001C2.99497 12.5001 2.99012 12.4983 2.98524 12.4982C2.96447 12.4976 2.94417 12.4945 2.92372 12.4913C2.91327 12.4897 2.90269 12.4897 2.89247 12.4874C2.87279 12.4831 2.85388 12.4765 2.83485 12.4698C2.82204 12.4653 2.80907 12.4617 2.79676 12.4562C2.77556 12.4468 2.75604 12.4343 2.73622 12.422C2.73014 12.4182 2.72356 12.4153 2.71766 12.4113C2.69936 12.3987 2.68257 12.3843 2.6659 12.3693C2.65785 12.362 2.64905 12.3556 2.64149 12.3478C2.62708 12.3329 2.61512 12.3159 2.60243 12.299C2.59545 12.2897 2.58728 12.2814 2.58094 12.2716C2.57792 12.2669 2.57407 12.2627 2.57118 12.2579C2.56464 12.247 2.56019 12.2349 2.55458 12.2238C2.54718 12.2091 2.54001 12.1943 2.53407 12.1788C2.52754 12.1618 2.52301 12.1444 2.51844 12.1271C2.51512 12.1144 2.51102 12.102 2.50868 12.089C2.50518 12.0695 2.50397 12.05 2.50282 12.0304C2.50221 12.0203 2.49989 12.0103 2.49989 12.0001V5.00012C2.49989 4.99527 2.50073 4.99029 2.50087 4.98547C2.50139 4.96804 2.5044 4.95094 2.50673 4.93372C2.50874 4.91854 2.51021 4.90351 2.51356 4.88879C2.51667 4.87521 2.52105 4.86204 2.52528 4.84875C2.53178 4.82833 2.53878 4.80838 2.54774 4.78918C2.55199 4.78006 2.55759 4.77169 2.56239 4.76282C2.57142 4.74618 2.57991 4.72942 2.59071 4.71399C2.60114 4.69905 2.61373 4.68584 2.62587 4.672C2.63593 4.66052 2.64508 4.64833 2.65614 4.63782C2.66434 4.63004 2.6737 4.6236 2.68251 4.61633C2.69952 4.60223 2.71644 4.58807 2.73524 4.57629C2.73784 4.57467 2.74041 4.573 2.74305 4.57141L3.18446 4.30579C4.60952 3.45076 6.39026 3.45076 7.81532 4.30579L7.99989 4.41614L8.18446 4.30579ZM7.30067 5.16321C6.19236 4.49831 4.80741 4.49831 3.69911 5.16321L3.49989 5.28235V11.1349C4.75939 10.5095 6.24037 10.5096 7.49989 11.1349V5.28235L7.30067 5.16321ZM12.3007 5.16321C11.1924 4.49831 9.80741 4.49831 8.69911 5.16321L8.49989 5.28235V11.1349C9.75943 10.5094 11.2403 10.5095 12.4999 11.1349V5.28235L12.3007 5.16321Z" fill="black" fill-opacity="0.9"/>
</g>
</svg>
