<svg width="16" height="16" viewBox="0 0 16 16" fill="none" xmlns="http://www.w3.org/2000/svg">
<g id="icon.16.more">
<path id="Icon" d="M4 6.99997C4.55228 6.99997 5 7.44768 5 7.99997C5 8.55225 4.55228 8.99997 4 8.99997C3.44772 8.99997 3 8.55225 3 7.99997C3 7.44768 3.44772 6.99997 4 6.99997ZM8 6.99997C8.55228 6.99997 9 7.44768 9 7.99997C9 8.55225 8.55228 8.99997 8 8.99997C7.44772 8.99997 7 8.55225 7 7.99997C7 7.44768 7.44772 6.99997 8 6.99997ZM12 6.99997C12.5523 6.99997 13 7.44768 13 7.99997C13 8.55225 12.5523 8.99997 12 8.99997C11.4477 8.99997 11 8.55225 11 7.99997C11 7.44768 11.4477 6.99997 12 6.99997Z" fill="black" fill-opacity="0.9"/>
</g>
</svg>
