<svg width="16" height="16" viewBox="0 0 16 16" fill="none" xmlns="http://www.w3.org/2000/svg">
<g id="icon.16.autolayout.vertical.left">
<path id="Primary Fill" d="M3.00488 6.10254C3.05621 6.60667 3.48232 7 4 7L12 7L12.1025 6.99512C12.6067 6.94379 13 6.51768 13 6L13 4C13 3.48232 12.6067 3.05621 12.1025 3.00488L12 3L4 3C3.44772 3 3 3.44772 3 4L3 6L3.00488 6.10254ZM12 4L12 6L4 6L4 4L12 4ZM3 12C3 12.5523 3.44771 13 4 13L8 13L8.10254 12.9951C8.60667 12.9438 9 12.5177 9 12L9 10C9 9.48232 8.60667 9.05621 8.10254 9.00488L8 9L4 9C3.44772 9 3 9.44772 3 10L3 12ZM8 10L8 12L4 12L4 10L8 10Z" fill="black" fill-opacity="0.9"/>
<path id="Icon" d="M3.00488 6.10254C3.05621 6.60667 3.48232 7 4 7L12 7L12.1025 6.99512C12.6067 6.94379 13 6.51768 13 6L13 4C13 3.48232 12.6067 3.05621 12.1025 3.00488L12 3L4 3C3.44772 3 3 3.44772 3 4L3 6L3.00488 6.10254ZM12 4L12 6L4 6L4 4L12 4ZM3 12C3 12.5523 3.44771 13 4 13L8 13L8.10254 12.9951C8.60667 12.9438 9 12.5177 9 12L9 10C9 9.48232 8.60667 9.05621 8.10254 9.00488L8 9L4 9C3.44772 9 3 9.44772 3 10L3 12ZM8 10L8 12L4 12L4 10L8 10Z" fill="black" fill-opacity="0.9"/>
</g>
</svg>
