<svg width="16" height="16" viewBox="0 0 16 16" fill="none" xmlns="http://www.w3.org/2000/svg">
<g id="icon.16.ai">
<path id="Icon" d="M12.2573 10.9702C12.3204 10.7177 12.6795 10.7177 12.7426 10.9702L13.0005 12.0004L14.0298 12.2573C14.2822 12.3204 14.2822 12.6795 14.0298 12.7426L13.0005 13.0004L12.7426 14.0297C12.6795 14.2822 12.3204 14.2822 12.2573 14.0297L12.0005 13.0004L10.9702 12.7426C10.7177 12.6795 10.7177 12.3204 10.9702 12.2573L12.0005 12.0004L12.2573 10.9702ZM6.75534 3.87836C7.16985 2.66783 8.95768 2.7083 9.28073 3.99945L9.82468 6.17523L12.0014 6.72015C13.3335 7.05398 13.3337 8.94705 12.0014 9.2807L9.82468 9.82465L9.28073 12.0014C8.94708 13.3336 7.05401 13.3335 6.72018 12.0014L6.17526 9.82465L3.99948 9.2807C2.66672 8.94724 2.66673 7.05361 3.99948 6.72015L6.17526 6.17523L6.72018 3.99945L6.75534 3.87836ZM8.311 4.24261C8.23021 3.91943 7.77071 3.91943 7.68991 4.24261L7.00046 7.00043L4.24265 7.68988C3.91946 7.77068 3.91946 8.23018 4.24265 8.31097L7.00046 9.00043L7.68991 11.7582C7.76597 12.0605 8.17388 12.0802 8.29147 11.8159L8.311 11.7582L9.00046 9.00043L11.5923 8.35199L11.7583 8.31097C12.0809 8.22999 12.0808 7.77104 11.7583 7.68988L9.00046 7.00043L8.311 4.24261ZM3.25729 1.97015C3.32042 1.71767 3.67952 1.71767 3.74265 1.97015L3.99948 2.99945L5.02975 3.25726C5.28224 3.32039 5.28224 3.67949 5.02975 3.74261L3.99948 3.99945L3.74265 5.02972C3.67952 5.28221 3.32042 5.28221 3.25729 5.02972L2.99948 3.99945L1.97018 3.74261C1.7177 3.67949 1.7177 3.32039 1.97018 3.25726L2.99948 2.99945L3.25729 1.97015Z" fill="black" fill-opacity="0.9"/>
</g>
</svg>
