<svg width="16" height="16" viewBox="0 0 16 16" fill="none" xmlns="http://www.w3.org/2000/svg">
<g id="icon.16.slides.small">
<path id="Icon" d="M10.4999 4C11.3283 4 11.9999 4.67157 11.9999 5.5V9.5L11.9921 9.65332C11.9284 10.2808 11.4777 10.7925 10.8827 10.9492L10.9862 11.3838C11.0501 11.6522 10.8843 11.9221 10.6161 11.9863C10.3476 12.0502 10.0777 11.8845 10.0135 11.6162L9.86707 11H6.13269L5.98621 11.6162C5.92208 11.8845 5.65208 12.0501 5.38367 11.9863C5.11534 11.9221 4.94965 11.6522 5.01355 11.3838L5.11609 10.9492C4.52161 10.7922 4.07136 10.2804 4.00769 9.65332L3.99988 9.5V5.5C3.99988 4.67161 4.67151 4.00007 5.49988 4H10.4999ZM5.49988 5C5.22379 5.00007 4.99988 5.2239 4.99988 5.5V9.5C4.99988 9.7761 5.22379 9.99993 5.49988 10H10.4999C10.776 10 10.9999 9.77614 10.9999 9.5V5.5C10.9999 5.22386 10.776 5 10.4999 5H5.49988ZM6.49988 8C6.77602 8 6.99988 8.22386 6.99988 8.5C6.99988 8.77614 6.77602 9 6.49988 9C6.22379 8.99993 5.99988 8.7761 5.99988 8.5C5.99988 8.2239 6.22379 8.00007 6.49988 8ZM6.49988 6C6.77602 6 6.99988 6.22386 6.99988 6.5C6.99988 6.77614 6.77602 7 6.49988 7C6.22379 6.99993 5.99988 6.7761 5.99988 6.5C5.99988 6.2239 6.22379 6.00007 6.49988 6Z" fill="black" fill-opacity="0.9"/>
</g>
</svg>
