<svg width="16" height="16" viewBox="0 0 16 16" fill="none" xmlns="http://www.w3.org/2000/svg">
<g id="icon.16.connector">
<path id="Icon" d="M10.6465 2.64648C10.8417 2.45122 11.1583 2.45122 11.3535 2.64648L12.8535 4.14648C13.0488 4.34175 13.0488 4.65825 12.8535 4.85352L11.3535 6.35352C11.1583 6.54878 10.8417 6.54878 10.6465 6.35352C10.4512 6.15825 10.4512 5.84175 10.6465 5.64648L11.293 5H10.5C9.67157 5 9 5.67157 9 6.5V9.5C9 10.8807 7.88071 12 6.5 12H6C5.97095 12 5.94274 11.996 5.91504 11.9912C5.71138 12.578 5.15608 13 4.5 13C3.67157 13 3 12.3284 3 11.5C3 10.6716 3.67157 10 4.5 10C5.15575 10 5.71113 10.4215 5.91504 11.0078C5.94268 11.0031 5.971 11 6 11H6.5C7.32843 11 8 10.3284 8 9.5V6.5C8 5.11929 9.11929 4 10.5 4H11.293L10.6465 3.35352C10.4512 3.15825 10.4512 2.84175 10.6465 2.64648ZM4.5 11C4.22386 11 4 11.2239 4 11.5C4 11.7761 4.22386 12 4.5 12C4.77614 12 5 11.7761 5 11.5C5 11.2239 4.77614 11 4.5 11Z" fill="black" fill-opacity="0.9"/>
</g>
</svg>
