<svg width="16" height="16" viewBox="0 0 16 16" fill="none" xmlns="http://www.w3.org/2000/svg">
<g id="icon.16.home">
<path id="Icon" d="M7.66797 2.79492L7.33603 2.42101L7.33578 2.42122L7.66797 2.79492ZM8.33203 2.79492L8.66422 2.42122L8.66397 2.42101L8.33203 2.79492ZM12.332 6.35059L11.9998 6.72429L11.9998 6.72429L12.332 6.35059ZM12.5 12L13 12V12H12.5ZM12 12.5L12 13L12 12.5ZM9 8.5L9 8H9V8.5ZM7 8.5L7 8H7L7 8.5ZM4 12.5L4 13H4V12.5ZM3.5 12L3 12L3 12L3.5 12ZM3.66797 6.35059L4.00015 6.72429L4.00016 6.72429L3.66797 6.35059ZM7.66797 2.79492L7.99991 3.16884L8.00009 3.16884L8.33203 2.79492L8.66397 2.42101C8.28524 2.08479 7.71476 2.08479 7.33603 2.42101L7.66797 2.79492ZM8.33203 2.79492L7.99984 3.16862L11.9998 6.72429L12.332 6.35059L12.6642 5.97689L8.66422 2.42122L8.33203 2.79492ZM12.332 6.35059L11.9998 6.72429L12 6.72461H12.5H13C13 6.43895 12.8777 6.16664 12.6642 5.97688L12.332 6.35059ZM12.5 6.72461H12V12H12.5H13V6.72461H12.5ZM12.5 12L12 12L12 12L12 12.5L12 13C12.5523 13 13 12.5522 13 12L12.5 12ZM12 12.5V12H10V12.5V13H12V12.5ZM9.5 12H10V9H9.5H9V12H9.5ZM9.5 9H10C10 8.44772 9.55228 8 9 8L9 8.5L9 9L9 9H9.5ZM9 8.5V8H7V8.5V9H9V8.5ZM7 8.5L7 8C6.44772 8 6 8.44772 6 9H6.5H7H7L7 8.5ZM6.5 9H6V12H6.5H7V9H6.5ZM6 12.5V12H4V12.5V13H6V12.5ZM4 12.5L4 12L4 12L3.5 12L3 12C3.00003 12.5522 3.44769 13 4 13L4 12.5ZM3.5 12H4V6.72461H3.5H3V12H3.5ZM3.5 6.72461H4L4.00015 6.72429L3.66797 6.35059L3.33579 5.97688C3.12231 6.16664 3 6.43895 3 6.72461H3.5ZM3.66797 6.35059L4.00016 6.72429L8.00016 3.16862L7.66797 2.79492L7.33578 2.42122L3.33578 5.97689L3.66797 6.35059ZM6.5 12H6L6 12V12.5V13C6.55228 13 7 12.5523 7 12H6.5ZM10 12.5V12L10 12H9.5H9C9 12.5523 9.44772 13 10 13V12.5Z" fill="black" fill-opacity="0.9"/>
</g>
</svg>
